<svg xmlns="http://www.w3.org/2000/svg" width="22" height="24" fill="none" viewBox="0 0 22 24"><path fill="currentColor" d="M21.3 9.434c.865-.633.805-2.005-.195-2.532l-8.662-4.565a3 3 0 0 0-2.788-.005L.908 6.899c-1.087.568-1.07 2.13.029 2.674l8.775 4.348a3 3 0 0 0 2.674-.005l7.114-3.557v1.72h1.8V9.434z"/><path fill="currentColor" d="M4.437 13.1A1 1 0 0 0 3 14v2.438c0 .848.213 1.815.902 2.575C4.972 20.194 7.237 22 11 22c3.317 0 5.647-1.697 6.831-2.827.856-.815 1.169-1.932 1.169-2.955V14a1 1 0 0 0-1.437-.9l-5.252 2.552a3 3 0 0 1-2.622 0L4.437 13.1z"/></svg>