<svg xmlns="http://www.w3.org/2000/svg" width="24" height="24" fill="none" viewBox="0 0 24 24"><path fill="currentColor" fill-rule="evenodd" d="M6.5 1.5a5 5 0 0 0-5 5v11a5 5 0 0 0 5 5h11a5 5 0 0 0 5-5v-11a5 5 0 0 0-5-5h-11zm-3 5a3 3 0 0 1 3-3h11a3 3 0 0 1 3 3v11a3 3 0 0 1-3 3h-11a3 3 0 0 1-3-3v-11zm5.23 4.414v-.091h9.191V9.497H8.73V8.041c3.146-.078 5.98-.351 8.502-.819L16.569 6c-2.678.52-5.746.793-9.178.819v4.095c-.065 2.548-.533 4.537-1.391 5.967l1.014 1.066c1.066-1.742 1.638-4.095 1.716-7.033zm8.242 7.059V12.24H9.627v5.733h1.365v-.494h4.615v.494h1.365zm-1.365-1.82h-4.615V13.54h4.615v2.613z" clip-rule="evenodd"/></svg>