<svg xmlns="http://www.w3.org/2000/svg" width="24" height="24" fill="none" viewBox="0 0 24 24"><path fill="currentColor" fill-rule="evenodd" d="M7 21.999h16v-14a6 6 0 0 0-6-6H7a6 6 0 0 0-6 6v8a6 6 0 0 0 6 6zm4.076-14.53a.4.4 0 0 1 .327-.17h2.392a.4.4 0 0 1 .4.4v8.2a.4.4 0 0 1-.4.4h-1.2a.4.4 0 0 1-.4-.4V9.473a.1.1 0 0 0-.182-.057l-3.308 4.726a.1.1 0 0 0 .082.157h2.1a.5.5 0 0 1 .446.723l-.5 1a.5.5 0 0 1-.447.277h-3.57a1 1 0 0 1-.82-1.574l5.08-7.256zm4.418.33a.5.5 0 0 1 .5-.5h1a.5.5 0 0 1 .5.5v8a.5.5 0 0 1-.5.5h-1a.5.5 0 0 1-.5-.5v-8z" clip-rule="evenodd"/></svg>