<svg xmlns="http://www.w3.org/2000/svg" width="24" height="24" fill="none" viewBox="0 0 24 24"><path fill="currentColor" fill-rule="evenodd" d="M.298 17.98 7.565 3.989A1.312 1.312 0 0 1 8.73 3.28h5.152c.725 0 1.313.588 1.313 1.313v14.812c0 .725-.588 1.313-1.313 1.313h-2.109a1.313 1.313 0 0 1-1.312-1.313V8.296c0-.198-.265-.261-.355-.086l-3.935 7.692a.187.187 0 0 0 .167.273h2.294a.75.75 0 0 1 .672 1.084l-1.516 3.044a.75.75 0 0 1-.671.416H1.962a1.875 1.875 0 0 1-1.664-2.74zm18.346-14.7c-.725 0-1.313.588-1.313 1.313v14.78c0 .725.588 1.312 1.313 1.312h2.106c.725 0 1.313-.587 1.313-1.312V4.594c0-.725-.588-1.313-1.313-1.313h-2.106z" clip-rule="evenodd"/></svg>