<svg width="24" height="24" xmlns="http://www.w3.org/2000/svg" viewBox="0 0 24 24"><path d="M12.203.5C18.488.5 23.58 5.651 23.58 12s-5.09 11.5-11.376 11.5c-4.628 0-8.733-2.82-10.49-7.043l-.113-.284 1.866-.719.109.27c1.457 3.466 4.83 5.776 8.627 5.776 5.175 0 9.376-4.25 9.376-9.5s-4.2-9.5-9.376-9.5A9.31 9.31 0 005.04 5.869l1.217.702a.2.2 0 01.027.328l-.046.028-3.924 1.737a.2.2 0 01-.266-.104l-.014-.052-.578-4.337a.2.2 0 01.238-.223l.06.023 1.533.886A11.314 11.314 0 0112.203.5z" fill-rule="evenodd"/></svg>