<svg xmlns="http://www.w3.org/2000/svg" width="22" height="24" fill="none" viewBox="0 0 22 24"><path fill="currentColor" fill-rule="evenodd" d="M2 12a9 9 0 1 1 18 0 9 9 0 0 1-18 0zm9-11C4.925 1 0 5.925 0 12s4.925 11 11 11 11-4.925 11-11S17.075 1 11 1zM8.214 6.13l1.631 2.826-2.658 4.608H4.5v1.857h8.015l-1.072-1.857H9.496l4.29-7.435-1.732-1-1.136 1.969L9.822 5.2l-1.608.93zM15.18 18.2l-3.65-6.326 1.072-1.857 2.047 3.547H17.5v1.857h-1.78l1.067 1.85-1.608.929zm-7.286-1.857h-2.31l-.494.857 1.732 1 1.072-1.857z" clip-rule="evenodd"/></svg>