<svg xmlns="http://www.w3.org/2000/svg" width="24" height="24" fill="none" viewBox="0 0 24 24"><path fill="currentColor" fill-rule="evenodd" d="M4.7 2.3a2.4 2.4 0 0 0-2.4 2.4v4.18a2.4 2.4 0 0 0 2.4 2.4h4.18a2.4 2.4 0 0 0 2.4-2.4V4.7a2.4 2.4 0 0 0-2.4-2.4H4.7zm-.6 2.4a.6.6 0 0 1 .6-.6h4.18a.6.6 0 0 1 .6.6v4.18a.6.6 0 0 1-.6.6H4.7a.6.6 0 0 1-.6-.6V4.7zm.6 7.922a2.4 2.4 0 0 0-2.4 2.4v4.18a2.4 2.4 0 0 0 2.4 2.4h4.18a2.4 2.4 0 0 0 2.4-2.4v-4.18a2.4 2.4 0 0 0-2.4-2.4H4.7zm-.6 2.4a.6.6 0 0 1 .6-.6h4.18a.6.6 0 0 1 .6.6v4.18a.6.6 0 0 1-.6.6H4.7a.6.6 0 0 1-.6-.6v-4.18zm8.52 0a2.4 2.4 0 0 1 2.4-2.4h4.18a2.4 2.4 0 0 1 2.4 2.4v4.18a2.4 2.4 0 0 1-2.4 2.4h-4.18a2.4 2.4 0 0 1-2.4-2.4v-4.18zm2.4-.6a.6.6 0 0 0-.6.6v4.18a.6.6 0 0 0 .6.6h4.18a.6.6 0 0 0 .6-.6v-4.18a.6.6 0 0 0-.6-.6h-4.18zM15.022 2.3a2.4 2.4 0 0 0-2.4 2.4v4.18a2.4 2.4 0 0 0 2.4 2.4h4.18a2.4 2.4 0 0 0 2.4-2.4V4.7a2.4 2.4 0 0 0-2.4-2.4h-4.18zm-.6 2.4a.6.6 0 0 1 .6-.6h4.18a.6.6 0 0 1 .6.6v4.18a.6.6 0 0 1-.6.6h-4.18a.6.6 0 0 1-.6-.6V4.7z" clip-rule="evenodd"/></svg>