<svg xmlns="http://www.w3.org/2000/svg" width="22" height="24" fill="none" viewBox="0 0 22 24"><path fill="currentColor" fill-rule="evenodd" d="M17.579 2.592a2.28 2.28 0 0 1 3.224 3.225l-.67.67a2.51 2.51 0 0 1-1.257 4.043 4.9 4.9 0 0 1-1.198 4.974l-5.657 5.657a4.9 4.9 0 0 1-6.93 0l-2.828-2.829a4.9 4.9 0 0 1 0-6.93L7.92 5.747a4.9 4.9 0 0 1 4.941-1.209 2.51 2.51 0 0 1 4.047-1.274l.67-.67zm.125 6.008a4.25 4.25 0 0 0-.026-.026L14.85 5.746l-.027-.026-.037-.038a.71.71 0 1 1 1.004-1.004l2.927 2.928a.71.71 0 1 1-1.004 1.004l-.01-.01zm-5.109 3.79L9.841 9.636l1.273-1.273 2.754 2.755-1.273 1.272zm-2.602 2.603-2.754-2.755 1.272-1.273 2.755 2.755-1.273 1.273zm-5.357-.153 2.755 2.755 1.273-1.273-2.755-2.754-1.273 1.272z" clip-rule="evenodd"/></svg>