<svg xmlns="http://www.w3.org/2000/svg" width="24" height="24" fill="none" viewBox="0 0 24 24"><path fill="currentColor" fill-rule="evenodd" d="M6.5 22.5a5 5 0 0 1-5-5v-11a5 5 0 0 1 5-5h11a5 5 0 0 1 5 5v11a5 5 0 0 1-5 5h-11zM5.973 3.667 3.467 6.173c-.223.222-.223.612 0 .78l.78.779a.538.538 0 0 0 .78 0l2.505-2.506a.538.538 0 0 0 0-.78l-.78-.779a.538.538 0 0 0-.78 0zm5.846.613-8.074 8.073a.538.538 0 0 0 0 .78l.78.78a.538.538 0 0 0 .78 0l8.074-8.074a.538.538 0 0 0 0-.78l-.78-.78a.538.538 0 0 0-.78 0zM4.024 19.258l.78.78a.606.606 0 0 0 .835 0l14.143-14.2a.538.538 0 0 0 0-.779l-.78-.78a.538.538 0 0 0-.78 0L4.025 18.48a.538.538 0 0 0 0 .779zm5.902.445.78.78a.538.538 0 0 0 .78 0l8.463-8.464a.538.538 0 0 0 0-.78l-.78-.779a.538.538 0 0 0-.78 0l-8.463 8.464a.538.538 0 0 0 0 .78zm8.185.446 2.34-2.339c.222-.223.222-.612 0-.78l-.78-.779a.538.538 0 0 0-.78 0l-2.339 2.339a.538.538 0 0 0 0 .78l.78.779a.538.538 0 0 0 .78 0z" clip-rule="evenodd"/></svg>