<svg xmlns="http://www.w3.org/2000/svg" width="24" height="24" fill="none" viewBox="0 0 24 24"><path fill="currentColor" fill-rule="evenodd" d="M6.324 2A4.324 4.324 0 0 0 2 6.324v10.352A4.324 4.324 0 0 0 6.324 21h6.448A6.213 6.213 0 0 1 21 12.06V6.324A4.324 4.324 0 0 0 16.676 2H6.324zM4 7.443v2.53L9.964 4H7.443L4 7.443zM13.041 4 4 13.041v2.522L15.548 4h-2.507zm.556 12.416a.89.89 0 0 1 0-1.259l2.417-2.416 1.259 1.26-.897.895h5.637v1.781H14.24a.888.888 0 0 1-.643-.26zm7.566 1.513h.024a.89.89 0 0 1 .678 1.519l-2.416 2.416-1.26-1.26.896-.895H14v-1.78h7.163z" clip-rule="evenodd"/></svg>