<svg width="24" height="24" fill="none" xmlns="http://www.w3.org/2000/svg" viewBox="0 0 24 24"><path fill-rule="evenodd" clip-rule="evenodd" d="M1.5 6.5a5 5 0 015-5h11a5 5 0 015 5v11a5 5 0 01-5 5h-11a5 5 0 01-5-5v-11zm5-3a3 3 0 00-3 3v11a3 3 0 003 3h11a3 3 0 003-3v-11a3 3 0 00-3-3h-11z" fill="currentColor"/><mask id="a" style="mask-type:alpha" maskUnits="userSpaceOnUse" x="4" y="4" width="16" height="16"><path d="M4.5 4.5h15v15h-15v-15z" fill="currentColor"/></mask><g mask="url(#a)" fill="currentColor"><path d="M18.91 3.16a1.071 1.071 0 00-1.515-1.515L2.66 16.38a1.071 1.071 0 101.516 1.515L18.91 3.16zm-7.045-.985a1.071 1.071 0 010 1.515L.88 14.675A1.071 1.071 0 11-.635 13.16L10.349 2.175a1.071 1.071 0 011.516 0zm10.303 4.243a1.071 1.071 0 00-1.515-1.515L5.918 19.638a1.071 1.071 0 101.516 1.515L22.168 6.418zm-.53 7.046a1.071 1.071 0 10-1.515-1.515L9.138 22.933a1.071 1.071 0 101.515 1.516l10.985-10.985z"/></g></svg>