<svg width="24" height="24" xmlns="http://www.w3.org/2000/svg" viewBox="0 0 24 24"><path d="M3.5 1.5v16.99a2 2 0 001.848 1.995l-.048.007c.232-.024.419-.092.56-.203a.95.95 0 00.32-.473l-.002-6.112a2.954 2.954 0 115.908 0l-.001 6.174a.93.93 0 00.297.411.965.965 0 00.395.176l.156.025h.246l.157-.025a.965.965 0 00.395-.176.954.954 0 00.323-.489V9.926a2.954 2.954 0 115.909 0l-.001 9.879c.063.204.17.366.322.484a.965.965 0 00.396.176l.155.025h1.836v2H5.5a4 4 0 01-3.995-3.8l-.005-.2V1.5h2zm13.509 7.472a.954.954 0 00-.948.843l-.006.111-.001 10.465h1.908V9.926a.954.954 0 00-.842-.948l-.111-.006zM9.132 12.75a.954.954 0 00-.948.843l-.006.11-.001 6.451h1.908v-6.45a.954.954 0 00-.842-.948l-.111-.006z" fill-rule="evenodd"/></svg>