<svg xmlns="http://www.w3.org/2000/svg" width="24" height="24" fill="none" viewBox="0 0 24 24"><path fill="currentColor" fill-rule="evenodd" d="M6.5 1.5a5 5 0 0 0-5 5v11a5 5 0 0 0 5 5h11a5 5 0 0 0 5-5v-11a5 5 0 0 0-5-5h-11zm8.808 4.968L13.995 6a10.628 10.628 0 0 1-.949 1.56h-2.275a15.846 15.846 0 0 0-.767-1.43l-1.43.234c.273.364.52.767.728 1.196H6v1.326h11.765V7.56h-3.198c.26-.338.507-.702.741-1.092zm-5.746 11.57h1.014c.845 0 1.274-.533 1.274-1.586V9.588H6.819v8.554h1.326v-2.717h2.392v.728c0 .403-.143.611-.403.611l-.936-.052.364 1.326zm.975-3.809H8.145v-1.092h2.392v1.092zm0-2.288H8.145v-1.092h2.392v1.092zm3.354 6.058h1.755c.884 0 1.326-.455 1.326-1.365V9.341H15.62v6.942c0 .338-.156.507-.442.507-.507 0-1.027-.026-1.573-.078l.286 1.287zm.377-7.683h-1.326v5.525h1.326v-5.525z" clip-rule="evenodd"/></svg>