<svg xmlns="http://www.w3.org/2000/svg" width="20" height="24" fill="none" viewBox="0 0 20 24"><path fill="currentColor" fill-rule="evenodd" d="M8.793 2.534a1.207 1.207 0 0 1 2.413 0v.473a6.71 6.71 0 0 1 5.563 6.61v3.068a11.677 11.677 0 0 1 2.209 3.132c.265.551.485 1.122.657 1.705.176.596-.297 1.16-.919 1.16H1.284c-.622 0-1.095-.564-.92-1.16.172-.583.393-1.154.658-1.705a11.676 11.676 0 0 1 2.331-3.253V9.617a6.71 6.71 0 0 1 5.44-6.588v-.495zM2.823 16.68a9.555 9.555 0 0 1 2.036-2.793c.16-.15.325-.295.494-.432V9.617a4.708 4.708 0 0 1 9.416-.003v1.559h-.007v2.378a9.058 9.058 0 0 1 1.126 1.13 9.555 9.555 0 0 1 1.288 2H2.824z" clip-rule="evenodd"/><path fill="currentColor" d="M10 22.411a3 3 0 0 1-2.98-2.645h5.96A3 3 0 0 1 10 22.41z"/></svg>