<svg width="20" height="24" xmlns="http://www.w3.org/2000/svg" viewBox="0 0 20 24"><path d="M10 .78c.513 0 .935.39.993.894l.007.118v1.3c3.946.499 6.999 3.906 6.999 8.036v7.085l1.999-.001.002 2.024-6.5.007-.006.189c-.1 1.866-1.626 3.348-3.494 3.348-1.868 0-3.395-1.482-3.494-3.348l-.006-.18-6.498.008L0 18.236l2-.003.001-7.105c0-4.13 3.053-7.537 7-8.035v-1.3A1.004 1.004 0 0110 .78zm1.5 19.465l-3 .005.006.135c.073.77.713 1.372 1.493 1.372.78 0 1.42-.603 1.493-1.372l.007-.139zM10 5.055c-3.238 0-5.877 2.596-5.995 5.845L4 11.128v7.085h11.998v-7.085c0-3.278-2.565-5.95-5.774-6.07L10 5.055z" fill="currentColor" fill-rule="evenodd"/></svg>