<svg xmlns="http://www.w3.org/2000/svg" width="24" height="24" fill="none" viewBox="0 0 24 24"><path fill="currentColor" d="M16 7.9H7V6.1h9v1.8zm-9 4h7v-1.8H7v1.8z"/><path fill="currentColor" fill-rule="evenodd" d="M2.6 5.58a3.9 3.9 0 0 1 3.9-3.9h11a3.9 3.9 0 0 1 3.9 3.9v6.92a3.9 3.9 0 0 1-3.9 3.9h-11a2.1 2.1 0 1 0 0 4.2h14v1.8h-14a3.9 3.9 0 0 1-3.878-4.32H2.6V5.58zm1.8 9.633a3.882 3.882 0 0 1 2.1-.613h11a2.1 2.1 0 0 0 2.1-2.1V5.58a2.1 2.1 0 0 0-2.1-2.1h-11a2.1 2.1 0 0 0-2.1 2.1v9.633z" clip-rule="evenodd"/><path fill="currentColor" d="M20.5 19.4h-14v-1.8h14v1.8z"/></svg>