<svg width="18" height="24" xmlns="http://www.w3.org/2000/svg" viewBox="0 0 18 24"><path d="M14.721 0c.89 0 1.38.107 1.885.41.461.278.822.683 1.06 1.184.226.476.317.93.332 1.722l.002.248V16a1 1 0 01-.883.993L17 17H3a1 1 0 00-.993.883L2 18v1.94l.009.38c.019.51.069.77.165 1.028.092.247.211.417.343.518.11.084.2.12.497.13l.265.004H18v2H3.279c-.926 0-1.456-.146-1.977-.546C.854 23.112.518 22.63.3 22.048c-.204-.545-.286-1.062-.299-2.009L0 20V3.564c0-.949.085-1.447.334-1.97.238-.5.599-.906 1.06-1.184C1.853.134 2.3.021 3.046.003L3.279 0h11.442zM18 18.5v2H4v-2h14zM14.876 2.001H3.124l-.245.008c-.243.015-.346.05-.454.115a.734.734 0 00-.284.328l-.05.122c-.059.169-.085.382-.09.816v11.78c.26-.091.535-.148.823-.165L3 15h13V3.564c0-.677-.037-.894-.14-1.112a.734.734 0 00-.285-.328l-.095-.048c-.116-.049-.27-.07-.604-.075zM11 9.5v2H4v-2h7zm2-4v2H4v-2h9z" fill-rule="evenodd"/></svg>