<svg width="20" height="24" xmlns="http://www.w3.org/2000/svg" viewBox="0 0 20 24"><path d="M18.993 1A1 1 0 0120 2v20a1 1 0 01-1.327.944l-8.612-2.976-8.739 2.978a1 1 0 01-1.315-.828L0 21.999V2.131a1 1 0 01.993-1zM18 3.006L2 3.124V20.6l7.742-2.636a1 1 0 01.52-.033l.129.035L18 20.595V3.006zM9.076 4.92a1.05 1.05 0 011.849.006l1.551 2.905 3.3.39c.537.063.932.522.926 1.051l-.007.115a1.05 1.05 0 01-.305.623l-2.412 2.383.706 3.155a1.05 1.05 0 01-.686 1.223l-.11.031a1.05 1.05 0 01-.695-.084l-3.181-1.575-3.049 1.573a1.05 1.05 0 01-1.352-.346l-.062-.106a1.05 1.05 0 01-.104-.649l.545-3.368-2.189-2.048a1.05 1.05 0 01-.133-1.383l.084-.101a1.05 1.05 0 01.588-.317l3.139-.543zm.917 1.87L8.776 9.03a.85.85 0 01-.602.43l-2.258.39 1.566 1.465a.85.85 0 01.269.637l-.01.12-.412 2.543 2.285-1.18a.85.85 0 01.661-.05l.106.045 2.346 1.16-.51-2.285a.85.85 0 01.16-.71l.072-.08 1.785-1.765-2.398-.283a.85.85 0 01-.587-.343l-.063-.1L9.993 6.79z" fill-rule="evenodd"/></svg>