<svg width="22" height="24" xmlns="http://www.w3.org/2000/svg" viewBox="0 0 22 24"><path d="M21.017 2c.543 0 .983.448.983 1 0 .155-.036.308-.104.447L20.641 6l1.255 2.553a1.008 1.008 0 01-.44 1.341.97.97 0 01-.44.106h-1.358l-.982 2 .983 2h1.358c.543 0 .983.448.983 1 0 .155-.036.308-.104.447L20.641 18l1.255 2.553a1.008 1.008 0 01-.44 1.341.97.97 0 01-.44.106H5.899c-2.172 0-3.932-1.79-3.932-4 0-.823.244-1.589.664-2.225A3.997 3.997 0 010 12a3.998 3.998 0 012.63-3.776A4.025 4.025 0 011.966 6c0-2.21 1.76-4 3.932-4h15.119zm-1.591 14H5.898c-1.037 0-1.886.816-1.96 1.85l-.006.15c0 1.054.802 1.918 1.819 1.995l.147.005h13.529l-.983-2 .982-2zM11.9 11.845a1.09 1.09 0 01-1.1 1.082c-.146 0-.29-.03-.426-.085l-1.516-.627-1.518.627a1.11 1.11 0 01-1.387-.472l-.053-.106a1.065 1.065 0 01-.086-.419V10H3.932c-1.037 0-1.886.816-1.96 1.85l-.006.15c0 1.054.802 1.918 1.819 1.995l.147.005H17.46l-.983-2 .982-2H11.9zm-1.8-4.717H7.616v3.682l1.242-.513 1.243.513V7.128zM19.426 4H5.898c-1.037 0-1.886.816-1.96 1.85L3.931 6c0 1.054.802 1.918 1.819 1.995l.064.002V5.359H11.9V8h7.526l-.983-2 .982-2z" fill-rule="evenodd"/></svg>