<svg xmlns="http://www.w3.org/2000/svg" width="20" height="24" fill="none" viewBox="0 0 20 24"><path fill="currentColor" fill-rule="evenodd" d="M1.138 4.666a3 3 0 0 1 2.971-2.848l11.586-.095a3 3 0 0 1 3.021 2.85l.788 15.674a2 2 0 0 1-2.648 1.992l-6.215-2.136A2 2 0 0 0 9.35 20.1l-6.361 2.155a2 2 0 0 1-2.64-1.995l.79-15.594zm4.264 4.685a.6.6 0 0 0-.307 1.032l1.79 1.653-.458 2.795a.6.6 0 0 0 .865.632l2.555-1.301 2.637 1.288a.6.6 0 0 0 .848-.671l-.581-2.57 2.002-1.953a.6.6 0 0 0-.35-1.025l-2.712-.317-1.325-2.448a.6.6 0 0 0-1.054-.004l-1.35 2.452-2.56.437z" clip-rule="evenodd"/></svg>