<svg width="24" height="24" fill="none" xmlns="http://www.w3.org/2000/svg" viewBox="0 0 24 24"><path fill-rule="evenodd" clip-rule="evenodd" d="M6 2.15a3.85 3.85 0 00-2.83 6.461 3.85 3.85 0 000 6.778A3.85 3.85 0 006 21.85h15.35a1.217 1.217 0 001.043-1.846L21.183 18l1.21-2.004a1.217 1.217 0 00-1.043-1.846h-.862a1.247 1.247 0 00-.048-.092L19.265 12l1.045-1.83c.06-.105.104-.212.134-.32h.67a1.35 1.35 0 001.156-2.047L21.183 6l1.21-2.004A1.217 1.217 0 0021.35 2.15H6zm-.4 5.963V7a1.8 1.8 0 011.8-1.8h3A1.8 1.8 0 0112.2 7v1.15h8.295l-.89-1.476a1.306 1.306 0 010-1.348l.89-1.476H6a2.15 2.15 0 00-.4 4.263zm0 1.737H5a2.15 2.15 0 000 4.3h13.535l-.856-1.499a1.315 1.315 0 010-1.302l.856-1.499H12.2v2.85a1 1 0 01-1.387.921L8.9 12.818l-1.913.803A1 1 0 015.6 12.7V9.85zM3.85 18A2.15 2.15 0 016 15.85h14.495l-.77 1.274a1.695 1.695 0 000 1.752l.77 1.274H6A2.15 2.15 0 013.85 18zM10.4 6.8c.11 0 .2.09.2.2v4.796l-1.7-.714-1.7.714V7c0-.11.09-.2.2-.2h3z" fill="currentColor"/></svg>