<svg width="22" height="24" fill="none" xmlns="http://www.w3.org/2000/svg" viewBox="0 0 22 24"><path fill-rule="evenodd" clip-rule="evenodd" d="M6.835 2h8.332a4 4 0 013.482 2.03l2.803 4.955a.01.01 0 01-.01.015h.015v9a4 4 0 01-4 4H4.544a4 4 0 01-4-4V9h.02a.01.01 0 01-.009-.015l2.797-4.952A4 4 0 016.835 2zM6.53 4a1.5 1.5 0 00-1.33.805L3.949 7.202a.5.5 0 00.444.731h5.624V4H6.531zm5.454 0v3.933h5.896a.5.5 0 00.442-.733l-1.27-2.401A1.5 1.5 0 0015.729 4h-3.743zM11.5 17.5h6v-2h-6v2z" fill="currentColor"/></svg>