<svg xmlns="http://www.w3.org/2000/svg" width="22" height="24" fill="none" viewBox="0 0 22 24"><path fill="currentColor" fill-rule="evenodd" d="M6.835 2h8.332a4 4 0 0 1 3.482 2.03l2.803 4.955a.01.01 0 0 1-.01.015h.015v9a4 4 0 0 1-4 4H4.544a4 4 0 0 1-4-4V9h.02a.01.01 0 0 1-.009-.015l2.797-4.952A4 4 0 0 1 6.835 2zM6.53 4a1.5 1.5 0 0 0-1.33.805L3.949 7.202a.5.5 0 0 0 .444.731h5.624V4H6.531zm5.454 0v3.933h5.896a.5.5 0 0 0 .442-.733l-1.27-2.401A1.5 1.5 0 0 0 15.729 4h-3.743zM11.5 17.5h6v-2h-6v2z" clip-rule="evenodd"/></svg>