<svg xmlns="http://www.w3.org/2000/svg" width="24" height="24" fill="none" viewBox="0 0 24 24"><path fill="currentColor" d="m22.49 21.69-1.437-8.144h.485c.39 0 .705-.31.705-.693V7.736a.697.697 0 0 0-.705-.693h-6.666v-4.85a.697.697 0 0 0-.704-.693H9.832c-.39 0-.704.31-.704.693v4.85H2.462c-.39 0-.705.31-.705.693v5.117c0 .384.315.693.705.693h.485L1.511 21.69a.697.697 0 0 0 .694.81h19.59a.691.691 0 0 0 .694-.81zM3.653 8.909h7.37V3.366h1.952v5.543h7.37v2.771H3.654V8.91zm12.681 11.726v-4.158a.216.216 0 0 0-.216-.213h-1.3a.216.216 0 0 0-.218.213v4.158H9.4v-4.158a.216.216 0 0 0-.217-.213h-1.3a.216.216 0 0 0-.217.213v4.158H3.622l1.222-6.93h14.31l1.222 6.93h-4.04z"/></svg>