<svg xmlns="http://www.w3.org/2000/svg" width="24" height="24" fill="none" viewBox="0 0 24 24"><path fill="currentColor" d="M13.575 14.1h-7.35v2h7.35v-2zm-7.35-5.5h7.35v2h-7.35v-2z"/><path fill="currentColor" fill-rule="evenodd" d="M1.5 5.5a4 4 0 0 1 4-4h8.8a4 4 0 0 1 4 4v17H5.5a4 4 0 0 1-4-4v-13zm4-2h8.8a2 2 0 0 1 2 2v15H5.5a2 2 0 0 1-2-2v-13a2 2 0 0 1 2-2z" clip-rule="evenodd"/><path fill="currentColor" d="M18.3 11.95h1.15a1 1 0 0 1 1 1v6.5a1 1 0 0 1-1 1H18.3v2h1.15a3 3 0 0 0 3-3v-6.5a3 3 0 0 0-3-3H18.3v2z"/></svg>