<svg width="24" height="24" fill="none" xmlns="http://www.w3.org/2000/svg" viewBox="0 0 24 24"><path d="M13.575 14.1h-7.35v2h7.35v-2zm-7.35-5.5h7.35v2h-7.35v-2z" fill="currentColor"/><path fill-rule="evenodd" clip-rule="evenodd" d="M1.5 5.5a4 4 0 014-4h8.8a4 4 0 014 4v17H5.5a4 4 0 01-4-4v-13zm4-2h8.8a2 2 0 012 2v15H5.5a2 2 0 01-2-2v-13a2 2 0 012-2z" fill="currentColor"/><path d="M18.3 11.95h1.15a1 1 0 011 1v6.5a1 1 0 01-1 1H18.3v2h1.15a3 3 0 003-3v-6.5a3 3 0 00-3-3H18.3v2z" fill="currentColor"/></svg>