<svg width="24" height="24" xmlns="http://www.w3.org/2000/svg" viewBox="0 0 24 24"><path d="M14 1a3 3 0 013 3v4h3.25c1.476 0 2.66 1.198 2.745 2.684l.005.173v9.286c0 1.507-1.129 2.76-2.581 2.852L20.25 23H4a3 3 0 01-3-3V4a3 3 0 013-3h10zm6.25 9H17v11h3.25c.37 0 .696-.316.744-.747l.006-.11v-9.286c0-.449-.298-.8-.659-.85L20.25 10zM14 3H4a1 1 0 00-.993.883L3 4v16a1 1 0 00.883.993L4 21h11V4a1 1 0 00-.77-.974l-.113-.02L14 3zm-2.5 11.107a1 1 0 010 2h-5a1 1 0 110-2h5zm0-6a1 1 0 010 2h-5a1 1 0 110-2h5z" fill="currentColor"/></svg>