<svg width="20" height="24" xmlns="http://www.w3.org/2000/svg" viewBox="0 0 20 24"><path d="M15 22v2H5v-2h10zM10 0c5.51 0 10 4.24 10 9.5 0 3.248-1.884 6.314-4.747 8.07l-.018.01V19a2 2 0 01-1.85 1.995l-.15.005H6.773l-.165-.007a2 2 0 01-1.835-2.009l.01-1.378-.253-.151C1.832 15.779.11 12.947.005 9.805L0 9.5C0 4.24 4.49 0 10 0zm0 2C5.57 2 2 5.371 2 9.5c0 2.793 1.645 5.321 4.236 6.62l.557.279L6.773 19h6.462v-2.6l.53-.283C16.306 14.765 18 12.18 18 9.5 18 5.371 14.43 2 10 2z" fill="currentColor" fill-rule="evenodd"/></svg>