<svg xmlns="http://www.w3.org/2000/svg" width="24" height="24" fill="none" viewBox="0 0 24 24"><path fill="currentColor" d="M7.861 20.11c2.687.89 5.591.89 8.278 0l-.109 1.09a2 2 0 0 1-1.99 1.8H9.96a2 2 0 0 1-1.99-1.801l-.109-1.088z"/><path fill="currentColor" fill-rule="evenodd" d="M16.931 18.296a9.35 9.35 0 1 0-9.862 0 11.781 11.781 0 0 0 9.862 0zm-4.678-12.76L8.548 9.703c-.687.774-.138 1.997.897 1.997h3.478l-2.455 3.076 1.564 1.248 3.49-4.376c.628-.786.068-1.948-.937-1.948h-3.358l2.52-2.836-1.494-1.328z" clip-rule="evenodd"/></svg>