<svg xmlns="http://www.w3.org/2000/svg" width="24" height="24" fill="none" viewBox="0 0 24 24"><path fill="currentColor" fill-rule="evenodd" d="M21.35 10.35a9.344 9.344 0 0 1-4.42 7.946 11.781 11.781 0 0 1-9.861 0 9.35 9.35 0 1 1 14.28-7.946zM17.128 6.6h-4.873a.347.347 0 0 0-.264.573l1.265 1.476-1.486 1.467-.67-.703a1.247 1.247 0 0 0-1.797-.01L6.5 12.283v2.58l3.694-3.793.661.695a1.247 1.247 0 0 0 1.78.028l2.851-2.814 1.881-1.78a.347.347 0 0 0-.238-.599z" clip-rule="evenodd"/><path fill="currentColor" d="M16.138 20.11a13.183 13.183 0 0 1-8.278 0l.11 1.089A2 2 0 0 0 9.96 23h4.08a2 2 0 0 0 1.99-1.801l.108-1.088z"/></svg>