<svg xmlns="http://www.w3.org/2000/svg" width="22" height="24" fill="none" viewBox="0 0 22 24"><path fill="currentColor" d="m7.678 20.392-.98.196.98-.196zm6.644 0 .98.196-.98-.196zm-7.066-.995-.411.911.411-.911zm.297.367.98-.196-.98.196zm7.19-.367-.411-.912.412.912zm-.296.367-.98-.196.98.196zM19.1 11.1a8.102 8.102 0 0 1-4.768 7.385l.823 1.823A10.102 10.102 0 0 0 21.1 11.1h-2zM11 3a8.1 8.1 0 0 1 8.1 8.1h2C21.1 5.522 16.578 1 11 1v2zm-8.1 8.1A8.1 8.1 0 0 1 11 3V1C5.422 1 .9 5.522.9 11.1h2zm4.768 7.385A8.102 8.102 0 0 1 2.9 11.1h-2c0 4.098 2.441 7.625 5.945 9.208l.823-1.823zm.991 1.711-.126-.628-1.96.392.125.628 1.961-.392zm.98.804a1 1 0 0 1-.98-.804l-1.961.392A3 3 0 0 0 9.64 23v-2zm2.721 0H9.64v2h2.72v-2zm.981-.804a1 1 0 0 1-.98.804v2a3 3 0 0 0 2.941-2.412l-1.961-.392zm.126-.628-.126.628 1.961.392.126-.628-1.961-.392zm-6.622.74a.484.484 0 0 1-.273-.348l1.961-.392a1.516 1.516 0 0 0-.865-1.083l-.823 1.823zm7.487-1.823a1.52 1.52 0 0 0-.865 1.083l1.96.392a.484.484 0 0 1-.271.348l-.824-1.823z"/><path stroke="currentColor" stroke-width="2" d="M11 8v7"/></svg>