<svg xmlns="http://www.w3.org/2000/svg" width="24" height="24" fill="none" viewBox="0 0 24 24"><path fill="currentColor" d="M12.253 5.536 8.548 9.703c-.687.774-.138 1.997.897 1.997h3.478l-2.455 3.076 1.564 1.248 3.49-4.376c.628-.785.068-1.948-.937-1.948h-3.358l2.52-2.836-1.494-1.328z"/><path fill="currentColor" fill-rule="evenodd" d="M2.5 10.5a9.5 9.5 0 1 1 14.556 8.044c-.029.018-.088.07-.15.211-.064.142-.11.33-.13.544l-.1 1A3 3 0 0 1 13.69 23h-3.38a3 3 0 0 1-2.985-2.701l-.1-1a1.822 1.822 0 0 0-.13-.544c-.063-.14-.122-.193-.152-.211A9.494 9.494 0 0 1 2.5 10.5zM12 3a7.5 7.5 0 0 0-3.99 13.852c.575.362.882.922 1.046 1.448h5.888c.164-.526.471-1.086 1.047-1.448A7.5 7.5 0 0 0 12 3zm-1.69 18a1 1 0 0 1-.995-.9h5.37a1 1 0 0 1-.995.9h-3.38z" clip-rule="evenodd"/></svg>