<svg xmlns="http://www.w3.org/2000/svg" width="24" height="24" viewBox="0 0 24 24"><path fill-rule="evenodd" d="M12 0c.495 0 .994.037 1.52.107l.401.06-.319 1.974A9.971 9.971 0 0 0 12 2C6.477 2 2 6.477 2 12s4.477 10 10 10 10-4.477 10-10a9.4 9.4 0 0 0-.09-1.262l-.051-.34 1.974-.32c.11.678.167 1.303.167 1.922 0 6.628-5.373 12-12 12-6.628 0-12-5.372-12-12S5.372 0 12 0ZM9.88 5.617l.535 1.927a4.905 4.905 0 0 0 1.316 9.627 4.905 4.905 0 0 0 4.648-3.34l.066-.213 1.923.55A6.903 6.903 0 1 1 9.636 5.69l.245-.073Zm7.398-4.189a1.1 1.1 0 0 1 1.86.582l.437 2.413 2.414.438a1.1 1.1 0 0 1 .902 1.159l-.015.12a1.1 1.1 0 0 1-.305.58l-3.942 3.942-4.185.307-2.006 2.006-1.414-1.414 2.004-2.005.309-4.186Zm.199 2.629-2.2 2.2-.196 2.66 2.66-.196 2.2-2.2-2.086-.377-.378-2.087Z"/></svg>