<svg xmlns="http://www.w3.org/2000/svg" width="22" height="24" fill="none" viewBox="0 0 22 24"><path fill="currentColor" d="m15.609 5.543-1.65 1.65-.121 1.645.325.325 1.643-.121 1.65-1.65-1.564-.284-.283-1.565z"/><path fill="currentColor" fill-rule="evenodd" d="M0 12C0 5.925 4.925 1 11 1s11 4.925 11 11-4.925 11-11 11S0 18.075 0 12zm12.504-5.472L12.3 9.285l-2.008 2.008 1.414 1.414 2.008-2.008 2.758-.202 2.922-2.923a.85.85 0 0 0-.449-1.437l-1.763-.32-.32-1.763a.85.85 0 0 0-1.437-.45l-2.922 2.924zm-3.04-.492A6.095 6.095 0 0 0 5 11.907 6.095 6.095 0 0 0 11.098 18a6.1 6.1 0 0 0 5.863-4.416l-1.922-.55A4.1 4.1 0 0 1 7 11.907a4.095 4.095 0 0 1 2.998-3.943l-.535-1.928z" clip-rule="evenodd"/></svg>