<svg width="24" height="24" xmlns="http://www.w3.org/2000/svg" viewBox="0 0 24 24"><path d="M11.823 1.5c6.53 0 11.823 5.293 11.823 11.823 0 3.855-1.845 7.28-4.7 9.437l-1.2-1.6a9.808 9.808 0 003.9-7.837c0-5.425-4.398-9.823-9.823-9.823C6.398 3.5 2 7.898 2 13.323a9.81 9.81 0 004.13 8.005L4.928 22.93A11.808 11.808 0 010 13.323C0 6.793 5.293 1.5 11.823 1.5zm0 3.823a8 8 0 014.829 14.379l-1.2-1.6a6 6 0 10-7.028.167l-1.2 1.6a8 8 0 014.599-14.547zm0 4a4 4 0 012.428 7.179l-1.2-1.6a2 2 0 10-2.22.158l-1.204 1.607a4 4 0 012.196-7.344z" fill-rule="evenodd"/></svg>