<svg xmlns="http://www.w3.org/2000/svg" width="24" height="24" fill="none" viewBox="0 0 24 24"><path fill="currentColor" d="M3 13a9 9 0 1 1 14.503 7.122l1.223 1.583A10.982 10.982 0 0 0 23 13c0-6.075-4.925-11-11-11S1 6.925 1 13c0 3.542 1.674 6.693 4.274 8.705l1.223-1.583A8.985 8.985 0 0 1 3 13z"/><path fill="currentColor" d="M6.5 13a5.5 5.5 0 1 1 8.863 4.352l1.223 1.583a7.5 7.5 0 1 0-9.172 0l1.223-1.583A5.49 5.49 0 0 1 6.5 13z"/><path fill="currentColor" d="M12 11.5a1.5 1.5 0 0 0-.917 2.687L9.86 15.77a3.5 3.5 0 1 1 4.28 0l-1.223-1.583A1.5 1.5 0 0 0 12 11.5z"/></svg>