<svg xmlns="http://www.w3.org/2000/svg" width="22" height="24" fill="none" viewBox="0 0 22 24"><path fill="currentColor" d="M7.9 2.6V1.1H6.1v1.5h-.6A4.9 4.9 0 0 0 .6 7.5h20.8a4.9 4.9 0 0 0-4.9-4.9h-.6V1.1h-1.8v1.5H7.9zm4.385 10.537c-.107.084-.413.41-.62.64a.898.898 0 0 1-1.317.02l-.095-.1c-.203-.213-.446-.47-.57-.57l-.018-.015-.014-.013h-.002a.416.416 0 0 0-.1-.046.818.818 0 0 0-.28-.036c-.204.008-.454.088-.69.354-.312.351-.438 1.171.029 1.764.63.8 1.622 1.77 2.287 2.394.06.057.15.058.212 0 .673-.63 1.68-1.61 2.313-2.4.09-.111.239-.427.273-.821.033-.378-.048-.708-.253-.943-.29-.335-.546-.374-.726-.364a.958.958 0 0 0-.428.136h-.001z"/><path fill="currentColor" fill-rule="evenodd" d="M21.4 9.3H.6v8.2a4.9 4.9 0 0 0 4.9 4.9h11a4.9 4.9 0 0 0 4.9-4.9V9.3zm-8.783 2.104c.654-.04 1.4.184 2.032.912.571.659.696 1.466.638 2.13-.057.65-.296 1.281-.618 1.684-.712.889-1.795 1.938-2.47 2.568a1.752 1.752 0 0 1-2.398-.002c-.669-.626-1.738-1.668-2.45-2.57-.962-1.223-.777-2.906.03-3.817.542-.61 1.21-.866 1.824-.89.566-.023 1.134.152 1.505.48.082.069.18.161.28.26.113-.112.223-.215.311-.284a2.49 2.49 0 0 1 1.316-.47z" clip-rule="evenodd"/></svg>