<svg width="14" height="16" xmlns="http://www.w3.org/2000/svg" viewBox="0 0 14 16"><path d="M4.667 1l-.001 1h4.667V1h1.334l-.001 1H12a2 2 0 012 2v9a2 2 0 01-2 2H2a2 2 0 01-2-2V4a2 2 0 012-2h1.333V1h1.334zm7.168 5.666H2.202l-.11.017a1.02 1.02 0 00-.443.19.972.972 0 00-.317.45L1.333 13c0 .342.258.624.59.662l.077.005h10a.667.667 0 00.662-.59l.005-.077V7.323a.974.974 0 00-.319-.457 1.02 1.02 0 00-.443-.19l-.07-.01zM3.333 3.333H2a.667.667 0 00-.662.59L1.333 4v1.333h11.333V4a.667.667 0 00-.588-.662L12 3.333h-1.334v.87H9.334v-.87H4.666v.87H3.334v-.87z" fill-rule="evenodd"/></svg>