<svg xmlns="http://www.w3.org/2000/svg" width="24" height="24" fill="none" viewBox="0 0 24 24"><path fill="currentColor" d="M8.842 4.553A1 1 0 0 1 9.736 4h4.528a1 1 0 0 1 .894.553l.671 1.341A2 2 0 0 0 17.618 7H19a2 2 0 0 1 2 2v4.5h2V9a4 4 0 0 0-4-4h-1.382l-.67-1.342A3 3 0 0 0 14.263 2H9.736a3 3 0 0 0-2.683 1.658L6.382 5H5a4 4 0 0 0-4 4v9a4 4 0 0 0 4 4h8v-2H5a2 2 0 0 1-2-2V9a2 2 0 0 1 2-2h1.382a2 2 0 0 0 1.789-1.106l.67-1.341z"/><path fill="currentColor" d="M15.13 18.085v1.8h2.955V22.9h1.8v-3.015H22.9v-1.8h-3.015V15.13h-1.8v2.955H15.13z"/><path fill="currentColor" fill-rule="evenodd" d="M12 8.8a4 4 0 1 0 0 8 4 4 0 0 0 0-8zm-2 4a2 2 0 1 1 4 0 2 2 0 0 1-4 0z" clip-rule="evenodd"/></svg>