<svg width="24" height="24" fill="none" xmlns="http://www.w3.org/2000/svg" viewBox="0 0 24 24"><path d="M8.842 4.553A1 1 0 019.736 4h4.528a1 1 0 01.894.553l.671 1.341A2 2 0 0017.618 7H19a2 2 0 012 2v4.5h2V9a4 4 0 00-4-4h-1.382l-.67-1.342A3 3 0 0014.263 2H9.736a3 3 0 00-2.683 1.658L6.382 5H5a4 4 0 00-4 4v9a4 4 0 004 4h8v-2H5a2 2 0 01-2-2V9a2 2 0 012-2h1.382a2 2 0 001.789-1.106l.67-1.341z" fill="currentColor"/><path d="M15.13 18.085v1.8h2.955V22.9h1.8v-3.015H22.9v-1.8h-3.015V15.13h-1.8v2.955H15.13z" fill="currentColor"/><path fill-rule="evenodd" clip-rule="evenodd" d="M12 8.8a4 4 0 100 8 4 4 0 000-8zm-2 4a2 2 0 114 0 2 2 0 01-4 0z" fill="currentColor"/></svg>