<svg xmlns="http://www.w3.org/2000/svg" width="22" height="24" fill="none" viewBox="0 0 22 24"><path fill="currentColor" d="M11 9.2a2.8 2.8 0 1 0 0 5.6 2.8 2.8 0 0 0 0-5.6z"/><path fill="currentColor" fill-rule="evenodd" d="M7.357 2.5h7.286c1.084 0 1.958 0 2.666.058.729.06 1.369.185 1.961.487a5 5 0 0 1 2.185 2.185c.302.592.428 1.233.487 1.961C22 7.9 22 8.773 22 9.857v4.286c0 1.084 0 1.958-.058 2.666-.06.729-.185 1.369-.487 1.961a5 5 0 0 1-2.185 2.185c-.592.302-1.232.428-1.961.487-.708.058-1.582.058-2.666.058H7.357c-1.084 0-1.958 0-2.666-.058-.728-.06-1.369-.185-1.961-.487A5 5 0 0 1 .545 18.77c-.302-.592-.428-1.232-.487-1.961C0 16.1 0 15.227 0 14.143V9.857C0 8.773 0 7.9.058 7.191c.06-.728.185-1.369.487-1.96A5 5 0 0 1 2.73 3.044c.592-.302 1.233-.428 1.961-.487C5.4 2.5 6.273 2.5 7.357 2.5zM18.2 7.4a1.1 1.1 0 1 1-2.2 0 1.1 1.1 0 0 1 2.2 0zM6.2 12a4.8 4.8 0 1 1 9.6 0 4.8 4.8 0 0 1-9.6 0z" clip-rule="evenodd"/></svg>