<svg xmlns="http://www.w3.org/2000/svg" width="24" height="24" fill="none" viewBox="0 0 24 24"><path fill="currentColor" fill-rule="evenodd" d="M7.2 12a4.8 4.8 0 1 1 9.6 0 4.8 4.8 0 0 1-9.6 0zM12 9.2a2.8 2.8 0 1 0 0 5.6 2.8 2.8 0 0 0 0-5.6z" clip-rule="evenodd"/><path fill="currentColor" d="M18.1 8.5a1.1 1.1 0 1 0 0-2.2 1.1 1.1 0 0 0 0 2.2z"/><path fill="currentColor" fill-rule="evenodd" d="M8.357 2.5h7.286c1.084 0 1.958 0 2.666.058.729.06 1.369.185 1.961.487a5 5 0 0 1 2.185 2.185c.302.592.428 1.233.487 1.961C23 7.9 23 8.773 23 9.857v4.286c0 1.084 0 1.958-.058 2.666-.06.729-.185 1.369-.487 1.961a5 5 0 0 1-2.185 2.185c-.592.302-1.232.428-1.961.487-.708.058-1.582.058-2.666.058H8.357c-1.084 0-1.958 0-2.666-.058-.728-.06-1.369-.185-1.961-.487a5 5 0 0 1-2.185-2.185c-.302-.592-.428-1.232-.487-1.961C1 16.1 1 15.227 1 14.143V9.857c0-1.084 0-1.958.058-2.666.06-.728.185-1.369.487-1.96A5 5 0 0 1 3.73 3.044c.592-.302 1.233-.428 1.961-.487C6.4 2.5 7.273 2.5 8.357 2.5zM5.854 4.551c-.605.05-.953.142-1.216.276a3 3 0 0 0-1.311 1.311c-.134.263-.226.611-.276 1.216C3.001 7.971 3 8.764 3 9.9v4.2c0 1.137 0 1.929.051 2.546.05.605.142.953.276 1.216a3 3 0 0 0 1.311 1.311c.263.134.611.226 1.216.276.617.05 1.41.051 2.546.051h7.2c1.137 0 1.929 0 2.546-.051.605-.05.953-.142 1.216-.276a3 3 0 0 0 1.311-1.311c.134-.263.226-.611.276-1.216.05-.617.051-1.41.051-2.546V9.9c0-1.137 0-1.929-.051-2.546-.05-.605-.142-.953-.276-1.216a3 3 0 0 0-1.311-1.311c-.263-.134-.611-.226-1.216-.276-.617-.05-1.41-.051-2.546-.051H8.4c-1.137 0-1.929 0-2.546.051z" clip-rule="evenodd"/></svg>