<svg xmlns="http://www.w3.org/2000/svg" width="22" height="24" fill="none" viewBox="0 0 22 24"><path fill="currentColor" d="M6.053 2.858A3 3 0 0 1 8.736 1.2h4.528a3 3 0 0 1 2.683 1.658l.671 1.342H18a4 4 0 0 1 4 4v7.137A5.493 5.493 0 0 0 17.5 13a5.48 5.48 0 0 0-2.96.863 4 4 0 1 0-1.677 1.677A5.474 5.474 0 0 0 12 18.5c0 .981.257 1.902.707 2.7H4a4 4 0 0 1-4-4v-9a4 4 0 0 1 4-4h1.382l.67-1.342z"/><path fill="currentColor" d="M11 10a2 2 0 1 0 0 4 2 2 0 0 0 0-4zm5.585 4.63v2.955H13.63v1.8h2.955V22.4h1.8v-3.015H21.4v-1.8h-3.015V14.63h-1.8z"/></svg>