<svg width="24" height="24" fill="none" xmlns="http://www.w3.org/2000/svg" viewBox="0 0 24 24"><path d="M9 14.5a1.5 1.5 0 11-3 0 1.5 1.5 0 013 0zm7.5 1.5a1.5 1.5 0 100-3 1.5 1.5 0 000 3z" fill="currentColor"/><path fill-rule="evenodd" clip-rule="evenodd" d="M4.337 3.877A3 3 0 017.118 2h9.704a3 3 0 012.771 1.851L20.898 7H23v2h-1.273l.273.658V17a3.001 3.001 0 01-2 2.83V22h-2v-2H6v2H4v-2.17A3.001 3.001 0 012 17V9.663L2.268 9H1V7h2.075l1.262-3.123zM7.118 4a1 1 0 00-.927.626L4.425 9h15.137l-1.816-4.383A1 1 0 0016.822 4H7.118zM20 11H4v6a1 1 0 001 1h14a1 1 0 001-1v-6z" fill="currentColor"/></svg>