<svg xmlns="http://www.w3.org/2000/svg" width="24" height="24" fill="none" viewBox="0 0 24 24"><path fill="currentColor" fill-rule="evenodd" d="M18 2H6a5 5 0 0 0-5 5v10a5 5 0 0 0 5 5h12a5 5 0 0 0 5-5V7a5 5 0 0 0-5-5zM5 16.762c0-.42.341-.762.762-.762h12.476c.42 0 .762.341.762.762v.476c0 .42-.341.762-.762.762H5.762A.762.762 0 0 1 5 17.238v-.476zM5.762 11a.762.762 0 0 0-.762.762v.476c0 .42.341.762.762.762h3.81c.42 0 .761-.341.761-.762v-.476A.762.762 0 0 0 9.571 11h-3.81z" clip-rule="evenodd"/></svg>