<svg xmlns="http://www.w3.org/2000/svg" width="24" height="24" fill="none" viewBox="0 0 24 24"><path fill="currentColor" d="M6.5 7.2h11v2h-11v-2zm0 4.8v2h6v-2h-6z"/><path fill="currentColor" fill-rule="evenodd" d="M8.357 1.3c-1.084 0-1.958 0-2.666.058-.728.06-1.369.185-1.961.487A5 5 0 0 0 1.545 4.03c-.302.592-.428 1.233-.487 1.961C1 6.7 1 7.573 1 8.657v3.286c0 1.084 0 1.958.058 2.666.06.729.185 1.369.487 1.96a5 5 0 0 0 2.185 2.186c.659.336 1.398.46 2.278.51V20.7c0 1.582 1.75 2.538 3.081 1.682l4.794-3.082h1.76c1.084 0 1.958 0 2.666-.058.729-.06 1.369-.185 1.961-.487a5 5 0 0 0 2.185-2.185c.302-.592.428-1.232.487-1.961C23 13.9 23 13.027 23 11.943V8.657c0-1.084 0-1.958-.058-2.666-.06-.728-.185-1.369-.487-1.961a5 5 0 0 0-2.185-2.185c-.592-.302-1.232-.428-1.961-.487C17.6 1.3 16.727 1.3 15.643 1.3H8.357zM4.638 3.627c.263-.134.611-.226 1.216-.276.617-.05 1.41-.051 2.546-.051h7.2c1.137 0 1.929 0 2.546.051.605.05.953.142 1.216.276a3 3 0 0 1 1.311 1.311c.134.263.226.611.276 1.216.05.617.051 1.41.051 2.546v3.2c0 1.137 0 1.929-.051 2.546-.05.605-.142.953-.276 1.216a3 3 0 0 1-1.311 1.311c-.263.134-.611.226-1.216.276-.617.05-1.41.051-2.546.051h-2.01a1 1 0 0 0-.54.159l-5.042 3.24v-2.405a1 1 0 0 0-.987-1c-1.374-.018-1.96-.106-2.383-.321a3 3 0 0 1-1.311-1.311c-.134-.263-.226-.611-.276-1.216C3.001 13.829 3 13.036 3 11.9V8.7c0-1.137 0-1.929.051-2.546.05-.605.142-.953.276-1.216a3 3 0 0 1 1.311-1.311z" clip-rule="evenodd"/></svg>