<svg xmlns="http://www.w3.org/2000/svg" width="22" height="24" fill="none" viewBox="0 0 22 24"><path fill="currentColor" fill-rule="evenodd" d="M6.462 2.3h9.076c.808 0 1.468 0 2.006.044.555.045 1.058.142 1.526.381a3.9 3.9 0 0 1 1.705 1.704c.239.47.335.971.38 1.527.045.537.045 1.198.045 2.006v4.476c0 .808 0 1.469-.044 2.006-.046.556-.142 1.058-.381 1.526a3.899 3.899 0 0 1-1.705 1.705c-.468.239-.97.336-1.526.381-.538.044-1.198.044-2.006.044H6.462c-.808 0-1.469 0-2.006-.044-.556-.045-1.058-.142-1.527-.381a3.9 3.9 0 0 1-1.704-1.705c-.239-.468-.336-.97-.381-1.526C.8 13.907.8 13.246.8 12.438V7.962c0-.808 0-1.469.044-2.006.045-.556.142-1.058.38-1.527A3.9 3.9 0 0 1 2.93 2.725c.47-.239.971-.336 1.527-.38C4.993 2.3 5.654 2.3 6.462 2.3zM5 8h12V6H5v2zm12 5.5h-4v-2h4v2zm-9.653 1.762 3.983-3.904-1.26-1.285-2.674 2.62-1.242-1.312-1.308 1.237 2.5 2.644z" clip-rule="evenodd"/><path fill="currentColor" d="M2.1 21.7h17.8v-1.8H2.1v1.8z"/></svg>