<svg xmlns="http://www.w3.org/2000/svg" width="24" height="24" fill="none" viewBox="0 0 24 24"><path fill="currentColor" d="M9.596 9.596a3.4 3.4 0 1 1 4.808 4.808 3.4 3.4 0 0 1-4.808-4.808z"/><path fill="currentColor" fill-rule="evenodd" d="M15.348 2.575a3.6 3.6 0 0 0-6.696 0C4.777 3.951 2 7.65 2 12c0 .906.121 1.807.363 2.68a3.6 3.6 0 0 0 4.294 5.775A9.956 9.956 0 0 0 12 22a9.95 9.95 0 0 0 5.61-1.722 3.6 3.6 0 0 0 4.076-5.783 10.002 10.002 0 0 0-6.338-11.92zM5.22 7.75a8.001 8.001 0 0 0-.988 6.168 3.6 3.6 0 0 1 3.692 4.967A7.957 7.957 0 0 0 12 20a7.958 7.958 0 0 0 4.042-1.096 3.6 3.6 0 0 1 3.82-5.423 8 8 0 0 0-4.376-8.683 3.6 3.6 0 0 1-6.974 0A8.001 8.001 0 0 0 5.22 7.75z" clip-rule="evenodd"/></svg>