<svg width="21" height="24" xmlns="http://www.w3.org/2000/svg" viewBox="0 0 21 24"><g fill="none" fill-rule="evenodd"><path d="M3.47 15.56a3.47 3.47 0 110 6.94 3.47 3.47 0 010-6.94zM17.53 1.5a3.47 3.47 0 11-1.296 6.689L14.96 9.463c.445.758.7 1.64.7 2.583a5.09 5.09 0 01-.857 2.834l1.09 1.091a3.47 3.47 0 11-1.421 1.421l-1.09-1.09A5.113 5.113 0 016.29 9.21L5.107 8.029a3.47 3.47 0 111.421-1.421l1.18 1.182a5.09 5.09 0 012.837-.857A5.09 5.09 0 0113.62 7.96l1.04-1.04a3.47 3.47 0 012.87-5.421zM3.47 17.57a1.46 1.46 0 100 2.921 1.46 1.46 0 000-2.921zm14.06 0a1.46 1.46 0 100 2.921 1.46 1.46 0 000-2.921zm-6.984-8.63a3.104 3.104 0 100 6.209 3.104 3.104 0 000-6.209zM3.47 3.51a1.46 1.46 0 100 2.921 1.46 1.46 0 000-2.921zm14.06 0a1.46 1.46 0 100 2.921 1.46 1.46 0 000-2.921z" fill="currentColor"/><path stroke="currentColor" stroke-width="2" d="M6 17l2-2"/></g></svg>