<svg xmlns="http://www.w3.org/2000/svg" width="22" height="24" fill="none" viewBox="0 0 22 24"><path fill="currentColor" d="M4.1 1.6a3.4 3.4 0 1 0 1.525 6.44l1.203 1.203A4.977 4.977 0 0 0 6 12c0 1.02.305 1.967.828 2.757L5.525 16.06a3.4 3.4 0 1 0 1.445 1.384l1.273-1.272C9.033 16.695 9.98 17 11 17s1.967-.305 2.758-.828l1.272 1.272a3.4 3.4 0 1 0 1.445-1.383l-1.303-1.304c.523-.79.828-1.738.828-2.757 0-1.02-.305-1.967-.828-2.757l1.272-1.273a3.4 3.4 0 1 0-1.384-1.445l-1.303 1.303A4.977 4.977 0 0 0 11 7a4.977 4.977 0 0 0-2.757.828L7.07 6.656A3.4 3.4 0 0 0 4.1 1.6z"/></svg>