<svg xmlns="http://www.w3.org/2000/svg" width="24" height="24" fill="none" viewBox="0 0 24 24"><g clip-path="url(#dls-44b52-a)"><path fill="currentColor" fill-rule="evenodd" d="M18.5 20c-.169 0-.335-.008-.5-.022V20H5a5 5 0 0 1-1-9.9V10a8 8 0 0 1 15.96-.804A5.5 5.5 0 0 1 18.5 20zm-1.088-9.574-3.935-3.544a2 2 0 0 0-2.73.05l-3.661 3.545 1.391 1.437 2.66-2.576V16.5h2V9.268l2.937 2.644 1.338-1.486z" clip-rule="evenodd"/></g><defs><clipPath id="dls-44b52-a"><path fill="currentColor" d="M0 0h24v24H0z"/></clipPath></defs></svg>