<svg xmlns="http://www.w3.org/2000/svg" width="24" height="24" fill="none" viewBox="0 0 24 24"><g clip-path="url(#dls-b21bf-a)"><path stroke="currentColor" stroke-linejoin="round" stroke-width="2" d="M2.74 11.241c.135-3.278 1.861-6.362 4.854-8.024 4.652-2.584 10.605-.753 13.294 4.09 2.69 4.842 1.1 10.863-3.554 13.447-3.573 1.985-7.913 1.365-10.952-1.223"/><path fill="currentColor" fill-rule="evenodd" d="M2.274 14.472a.5.5 0 0 0 .8-.01l1.946-2.667A.5.5 0 0 0 4.616 11h-4a.5.5 0 0 0-.396.805l2.054 2.667z" clip-rule="evenodd"/><path stroke="currentColor" stroke-width="2" d="m15.8 7-3.5 4-3.5-4m-1 4h9m-4.5-.6v7.5m-4.5-3.4h9"/></g><defs><clipPath id="dls-b21bf-a"><path fill="currentColor" d="M0 0h24v24H0z"/></clipPath></defs></svg>