<svg xmlns="http://www.w3.org/2000/svg" width="24" height="24" fill="none" viewBox="0 0 24 24"><path fill="currentColor" fill-rule="evenodd" d="M3 12a9 9 0 1 1 18 0 9 9 0 0 1-18 0zm9-11C5.925 1 1 5.925 1 12s4.925 11 11 11 11-4.925 11-11S18.075 1 12 1zM9.434 7a1.3 1.3 0 0 0-1.083.58l-2.053 3.092a1.3 1.3 0 0 0 .13 1.604l4.62 4.968a1.3 1.3 0 0 0 1.903 0l4.62-4.968a1.3 1.3 0 0 0 .131-1.604L15.65 7.58A1.3 1.3 0 0 0 14.566 7H9.434zm-1.165 4.319L9.81 9h4.382l1.54 2.319L12 15.331l-3.73-4.012z" clip-rule="evenodd"/></svg>