<svg xmlns="http://www.w3.org/2000/svg" width="24" height="24" fill="none" viewBox="0 0 24 24"><path fill="currentColor" d="M10.7 8.5a1.1 1.1 0 1 0 0-2.2 1.1 1.1 0 0 0 0 2.2zm-3.6 2.2a1.1 1.1 0 1 0 0-2.2 1.1 1.1 0 0 0 0 2.2zm.6 2.9a1.1 1.1 0 1 1-2.2 0 1.1 1.1 0 0 1 2.2 0z"/><path fill="currentColor" fill-rule="evenodd" d="M17.202 3.709c-1.63-.825-3.62-1.212-5.547-1.209-1.923.003-3.875.395-5.42 1.219C.585 6.732-.862 13.765 3.716 18.27c2.429 2.39 5.417 3.139 7.832 3.221a13.106 13.106 0 0 0 3.136-.263c.42-.09.79-.196 1.092-.31.253-.095.599-.245.839-.479a1.24 1.24 0 0 0 .36-.663 1.238 1.238 0 0 0-.088-.723c-.13-.296-.365-.534-.487-.656-.08-.08-.16-.157-.241-.236-.254-.246-.523-.506-.814-.879a1.577 1.577 0 0 1-.311-.975c.013-.327.156-.766.798-1.2.463-.313 1.485-.454 2.234.417.333.387.349.736.346 1.069v.036c-.002.076-.003.198.004.298.004.065.014.171.047.29.032.115.104.31.278.488.438.447.984.319 1.158.262.194-.063.374-.17.504-.253.931-.594 1.72-1.74 2.172-3.061.46-1.35.609-3 .132-4.688-.487-1.726-2.286-4.627-5.505-6.257zM7.176 5.484c1.187-.634 2.797-.981 4.482-.984 1.683-.003 3.349.34 4.64.993 2.682 1.358 4.137 3.785 4.484 5.016a5.906 5.906 0 0 1-.1 3.5 5.28 5.28 0 0 1-.531 1.122 3.418 3.418 0 0 0-.568-.91 3.72 3.72 0 0 0-4.871-.77c-1.135.768-1.634 1.774-1.676 2.773-.04.94.327 1.771.733 2.29.217.279.44.523.638.728l-.142.032c-.687.147-1.611.255-2.649.22-2.079-.072-4.528-.71-6.497-2.649-3.503-3.447-2.547-8.907 2.057-11.361z" clip-rule="evenodd"/></svg>