<svg width="24" height="24" fill="none" xmlns="http://www.w3.org/2000/svg" viewBox="0 0 24 24"><path fill-rule="evenodd" clip-rule="evenodd" d="M5 2a3 3 0 00-3 3v4.8a3 3 0 003 3h6.101L11.086 2H5zM4 5a1 1 0 011-1h4.089l.01 6.8H5a1 1 0 01-1-1V5zm15.5-3A2.5 2.5 0 0122 4.5v1.8a2.5 2.5 0 01-2.5 2.5h-7.003l.02-6.8H19.5zm.5 2.5a.5.5 0 00-.5-.5h-4.99l-.007 2.8H19.5a.5.5 0 00.5-.5V4.5zm2 8.5a3 3 0 00-3-3h-6.485l-.016 12H19a3 3 0 003-3v-6zm-3-1a1 1 0 011 1v6a1 1 0 01-1 1h-4.499l.011-8H19zM5 14a3 3 0 00-3 3v2a3 3 0 003 3h6.102l-.017-8H5zm-1 3a1 1 0 011-1h4.09l.008 4H5a1 1 0 01-1-1v-2z" fill="currentColor"/></svg>