<svg width="24" height="24" xmlns="http://www.w3.org/2000/svg" viewBox="0 0 24 24"><path d="M19.625 1.5a2.875 2.875 0 012.87 2.706l.005.169v11.25a2.875 2.875 0 01-2.706 2.87l-.169.005H18.5v1a3 3 0 01-2.824 2.995l-.176.005h-11a3 3 0 01-2.995-2.824L1.5 19.5v-11a3 3 0 012.824-2.995L4.5 5.5h1V4.375a2.875 2.875 0 012.706-2.87l.169-.005h11.25zm-4.125 6h-11a1 1 0 00-.993.883L3.5 8.5v11a1 1 0 00.883.993l.117.007h11a1 1 0 00.993-.883l.007-.117v-11a1 1 0 00-.883-.993L15.5 7.5zm4.125-4H8.375a.875.875 0 00-.868.765l-.007.11V5.5h8a3 3 0 012.995 2.824l.005.176v8h1.125a.875.875 0 00.868-.765l.007-.11V4.375a.875.875 0 00-.765-.868l-.11-.007z" fill-rule="evenodd"/></svg>