<svg xmlns="http://www.w3.org/2000/svg" width="22" height="24" fill="none" viewBox="0 0 22 24"><g clip-path="url(#dls-c3aef-a)"><path fill="currentColor" fill-rule="evenodd" d="M0 7a5 5 0 0 1 5-5h12a5 5 0 0 1 5 5v2.207a1 1 0 0 1-.93.998 1.8 1.8 0 0 0 0 3.59 1 1 0 0 1 .93.998V17a5 5 0 0 1-5 5H5a5 5 0 0 1-5-5v-2.207a1 1 0 0 1 1.07-.998 1.8 1.8 0 1 0 0-3.59A1 1 0 0 1 0 9.207V7zm10.348 2.268a1.5 1.5 0 1 1-2.598-1.5 1.5 1.5 0 0 1 2.598 1.5zm2.616-2.531-5.5 9.526 1.732 1 5.5-9.526-1.732-1zm1.447 9.495a1.5 1.5 0 1 1-2.599-1.5 1.5 1.5 0 0 1 2.599 1.5z" clip-rule="evenodd"/></g><defs><clipPath id="dls-c3aef-a"><path fill="currentColor" d="M0 0h22v24H0z"/></clipPath></defs></svg>