<svg xmlns="http://www.w3.org/2000/svg" width="20" height="24" fill="none" viewBox="0 0 20 24"><path stroke="currentColor" stroke-width="2" d="M5.5 12h9"/><path fill="currentColor" d="m7.207 2 .998-.07A1 1 0 0 0 7.207 1v1zm5.586 0V1a1 1 0 0 0-.998.93l.998.07zm0 20-.998-.07a1 1 0 0 0 .998 1.07v-1zm-5.586 0v1a1 1 0 0 0 .998-1.07l-.998.07zm0-21H5v2h2.207V1zM10 3.6a1.8 1.8 0 0 1-1.795-1.67l-1.995.14A3.8 3.8 0 0 0 10 5.6v-2zm1.795-1.67A1.8 1.8 0 0 1 10 3.6v2a3.8 3.8 0 0 0 3.79-3.53l-1.995-.14zM15 1h-2.207v2H15V1zm5 5a5 5 0 0 0-5-5v2a3 3 0 0 1 3 3h2zm0 12V6h-2v12h2zm-5 5a5 5 0 0 0 5-5h-2a3 3 0 0 1-3 3v2zm-2.207 0H15v-2h-2.207v2zm-.993-1.2c0 .044-.002.087-.005.13l1.995.14c.007-.09.01-.18.01-.27h-2zM10 20a1.8 1.8 0 0 1 1.8 1.8h2A3.8 3.8 0 0 0 10 18v2zm-1.8 1.8A1.8 1.8 0 0 1 10 20v-2a3.8 3.8 0 0 0-3.8 3.8h2zm.005.13a1.843 1.843 0 0 1-.005-.13h-2c0 .09.003.18.01.27l1.995-.14zM5 23h2.207v-2H5v2zm-5-5a5 5 0 0 0 5 5v-2a3 3 0 0 1-3-3H0zM0 6v12h2V6H0zm5-5a5 5 0 0 0-5 5h2a3 3 0 0 1 3-3V1z"/></svg>