<svg width="24" height="24" xmlns="http://www.w3.org/2000/svg" viewBox="0 0 24 24"><path d="M5.84 1.5v2.34h11.315a3 3 0 012.995 2.824l.005.176-.001 11.314h2.341v2h-2.341v2.341h-2v-2.341H6.84a3 3 0 01-2.995-2.823l-.005-.176V5.839L1.5 5.84v-2h2.34V1.5h2zm11.315 4.34H6.667c-.178.061-.33.146-.453.26l-.114.124a1.124 1.124 0 00-.205.46l-.03.193-.026-.001.001 10.279a1 1 0 00.883.993l.117.007 10.542.002c.221-.075.397-.196.528-.364.097-.124.165-.277.205-.46l.03-.193.01-.001V6.84a1 1 0 00-.883-.993l-.117-.007z" fill-rule="evenodd"/></svg>