<svg width="23" height="24" xmlns="http://www.w3.org/2000/svg" viewBox="0 0 23 24"><path d="M4.66.5l-.001 2.658H17.34a3 3 0 012.996 2.825l.005.177v12.68H23v2.001h-2.659V23.5h-2l-.001-2.659H5.66a3 3 0 01-2.996-2.824l-.005-.177-.001-12.68H0v-2l2.658-.001V.5H4.66zm12.68 4.66L5.545 5.158c-.21.07-.385.17-.525.308l-.099.11c-.141.181-.227.42-.258.716l-.004-.001V17.84a1 1 0 00.884.994l.117.007h11.8c.26-.08.467-.217.619-.411.141-.181.227-.42.258-.716h.003V6.16a1 1 0 00-.883-.994l-.117-.007z" fill-rule="evenodd"/></svg>