<svg width="24" height="24" fill="none" xmlns="http://www.w3.org/2000/svg" viewBox="0 0 24 24"><path fill-rule="evenodd" clip-rule="evenodd" d="M9.6 4a2.4 2.4 0 114.085 1.709l2.66 2.493 1.807-.703a2.4 2.4 0 113.302 1.705l-1.09 6.822a2 2 0 01-1.975 1.684H5.611a2 2 0 01-1.975-1.684l-1.09-6.823a2.4 2.4 0 113.271-1.576l.39-.08 1.851.656 2.314-2.44A2.394 2.394 0 019.6 4zm2.4-.6a.6.6 0 100 1.2.6.6 0 000-1.2zM4.564 9.152a2.41 2.41 0 00.074-.038l3.087 1.092a1.455 1.455 0 001.54-.37l2.777-2.927 3.186 2.987a1.456 1.456 0 001.523.294l2.677-1.042.008.004-1.047 6.558H5.611L4.564 9.152zM2.9 7a.6.6 0 111.2 0 .6.6 0 01-1.2 0zm17 0a.6.6 0 111.2 0 .6.6 0 01-1.2 0z" fill="currentColor"/><path d="M4 22h16v-2H4v2z" fill="currentColor"/></svg>