<svg xmlns="http://www.w3.org/2000/svg" width="22" height="24" fill="none" viewBox="0 0 22 24"><g clip-path="url(#dls-4c467-a)"><path stroke="currentColor" stroke-width="1.8" d="M17 16c1.548 0 2.878.954 3.797 2.033.478.56.488 1.377.047 1.967-1.082 1.448-2.238 2-3.844 2-1.913 0-3.216-1.22-3.91-2.104a1.453 1.453 0 0 1 .005-1.791C14.48 16.304 16.066 16 17 16z"/><ellipse cx="16.959" cy="19.047" fill="currentColor" rx="1.459" ry="1.478"/><path stroke="currentColor" stroke-width="2.039" d="M19 14V8.719a3.5 3.5 0 0 0-1.75-3.031L11.92 2.61a3.5 3.5 0 0 0-3.5 0L3.09 5.688a3.5 3.5 0 0 0-1.75 3.03v6.155a3.5 3.5 0 0 0 1.75 3.031l7.08 4.088"/><path stroke="currentColor" stroke-linecap="round" stroke-width="2.039" d="M10.2 11.796v10.2m7.3-14.4-7.361 4.25M2.013 6.9l7.947 4.588"/></g><defs><clipPath id="dls-4c467-a"><path fill="currentColor" d="M0 0h22v24H0z"/></clipPath></defs></svg>