<svg xmlns="http://www.w3.org/2000/svg" width="24" height="24" fill="none" viewBox="0 0 24 24"><path fill="currentColor" fill-rule="evenodd" d="M9.764 1.5a5 5 0 0 1 4.472 0l5 2.5A5 5 0 0 1 22 8.472v7.056A5 5 0 0 1 19.236 20l-5 2.5a5 5 0 0 1-4.472 0l-5-2.5A5 5 0 0 1 2 15.528V8.472A5 5 0 0 1 4.764 4l5-2.5zm3.578 1.789a3 3 0 0 0-2.684 0l-5 2.5c-.307.153-.58.355-.81.593L12 10.356l7.153-3.974a2.997 2.997 0 0 0-.811-.593l-5-2.5zM4 8.472c0-.09.004-.178.012-.266L11 12.088v8.768a3.025 3.025 0 0 1-.342-.145l-5-2.5A3 3 0 0 1 4 15.528V8.472zm9 12.384c.116-.04.23-.09.342-.145l5-2.5A3 3 0 0 0 20 15.528V8.472c0-.09-.004-.178-.012-.266L13 12.088v8.768z" clip-rule="evenodd"/></svg>