<svg xmlns="http://www.w3.org/2000/svg" width="20" height="24" fill="none" viewBox="0 0 20 24"><path fill="currentColor" d="M4.75 6.875a5.125 5.125 0 1 1 10.25 0 5.125 5.125 0 0 1-10.25 0z"/><path fill="currentColor" fill-rule="evenodd" d="M14.436 12.995c-3.229-.527-5.643-.527-8.872 0l-1.432.234c-.827.135-1.558.377-2.18.753a3.932 3.932 0 0 0-1.465 1.526c-.214.403-.323.981-.384 1.418-.068.481-.103.99-.103 1.362v.008l.002.131v.011C.085 20.66 2.15 22.2 4.375 22.2h11.25c2.266 0 4.375-1.604 4.375-3.893V18.3l-.003-.194v-.01c-.01-.325-.05-.795-.117-1.245-.06-.402-.164-.96-.367-1.343a3.927 3.927 0 0 0-1.466-1.526c-.621-.377-1.352-.618-2.18-.753l-1.43-.234zm-5.022 1.512a.684.684 0 0 1 1.322 0l.838 3.13a.528.528 0 0 1-.124.497l-.99 1.056a.527.527 0 0 1-.77 0l-.99-1.056a.527.527 0 0 1-.124-.497l.838-3.13z" clip-rule="evenodd"/></svg>