<svg width="24" height="24" xmlns="http://www.w3.org/2000/svg" viewBox="0 0 24 24"><g transform="translate(2 1)" fill="currentColor" fill-rule="evenodd"><path d="M10 0c5.527 0 10 4.55 10 10.154 0 4.528-2.944 8.466-7.144 9.734l-.27.077-.523-1.93c3.472-.942 5.937-4.16 5.937-7.88C18 5.646 14.414 2 10 2 5.667 2 2.133 5.513 2.004 9.905l-.004.25H0C0 4.55 4.473 0 10 0z" fill-rule="nonzero"/><rect fill-rule="nonzero" x="7" y="17.5" width="7" height="4" rx="2"/><path d="M1.875 8.547C2.496 8.547 3 9.05 3 9.672v2.75c0 .621-.504 1.125-1.125 1.125-1.125 0-1.875-1.25-1.875-2.5s.75-2.5 1.875-2.5zm16.25-.047C17.504 8.5 17 9.004 17 9.625v2.75c0 .621.504 1.125 1.125 1.125C19.25 13.5 20 12.25 20 11s-.75-2.5-1.875-2.5z" stroke="currentColor" stroke-width="2"/><path d="M12.242 12.348a1 1 0 111.516 1.304 5.02 5.02 0 01-3.814 1.75c-1.41 0-2.73-.585-3.674-1.595a1 1 0 011.46-1.366c.57.61 1.363.961 2.214.961a3.02 3.02 0 002.298-1.054z" fill-rule="nonzero"/></g></svg>