<svg xmlns="http://www.w3.org/2000/svg" width="22" height="24" fill="none" viewBox="0 0 22 24"><g fill="currentColor" clip-path="url(#dls-a767a-a)"><path d="M9.6 2a4.8 4.8 0 1 0 0 9.6 4.8 4.8 0 0 0 0-9.6zm2.008 19.715H3.5a3.5 3.5 0 0 1-3.49-3.768l.142-1.844a3.694 3.694 0 0 1 2.837-3.313 29.74 29.74 0 0 1 10.002-.618 3.45 3.45 0 0 0-.827.964l-1.34 2.32-.44-1.655a.606.606 0 0 0-1.172 0L8.47 16.59a.49.49 0 0 0 .114.46l.856.917a.49.49 0 0 0 .507.133c.03.543.186 1.082.47 1.57l1.191 2.045zM18.2 18a1.4 1.4 0 1 1-2.8 0 1.4 1.4 0 0 1 2.8 0z"/><path fill-rule="evenodd" d="m21.728 16.682-1.327-2.279a2.632 2.632 0 0 0-2.262-1.306l-2.636-.01a2.584 2.584 0 0 0-2.252 1.289l-1.31 2.268a2.588 2.588 0 0 0 .01 2.595l1.327 2.278a2.631 2.631 0 0 0 2.262 1.306l2.637.01a2.585 2.585 0 0 0 2.251-1.289l1.31-2.268a2.584 2.584 0 0 0-.01-2.594zM20 17.688l-1.327-2.278a.631.631 0 0 0-.541-.313l-2.637-.01a.584.584 0 0 0-.512.289l-1.31 2.268a.584.584 0 0 0 .007.588l1.327 2.278a.63.63 0 0 0 .54.313l2.637.01c.22 0 .412-.114.512-.289l1.31-2.268a.585.585 0 0 0-.006-.588z" clip-rule="evenodd"/></g><defs><clipPath id="dls-a767a-a"><path fill="currentColor" d="M0 0h22v24H0z"/></clipPath></defs></svg>