<svg xmlns="http://www.w3.org/2000/svg" width="20" height="24" fill="none" viewBox="0 0 20 24"><circle cx="9.875" cy="6.875" r="4.125" stroke="currentColor" stroke-width="2"/><path stroke="currentColor" stroke-width="2" d="m14.275 13.982 1.431.234c.736.12 1.337.327 1.823.621a2.93 2.93 0 0 1 1.1 1.14c.226.425.35 1.58.368 2.153l.003.177c0 1.598-1.511 2.893-3.375 2.893H4.375c-1.827 0-3.316-1.245-3.373-2.799L1 18.288c0-.641.125-1.848.37-2.312a2.929 2.929 0 0 1 1.1-1.139c.487-.294 1.088-.501 1.824-.621l1.431-.234c3.122-.51 5.428-.51 8.55 0z"/><path fill="currentColor" d="M9.414 14.507a.684.684 0 0 1 1.322 0l.838 3.13a.528.528 0 0 1-.124.497l-.99 1.056a.527.527 0 0 1-.77 0l-.99-1.056a.527.527 0 0 1-.124-.497l.838-3.13z"/></svg>