<svg xmlns="http://www.w3.org/2000/svg" width="24" height="24" fill="none" viewBox="0 0 24 24"><path fill="currentColor" d="M6 10.672c0-.994-.682-1.828-1.604-2.06C5.446 5.345 8.463 3 12 3c3.52 0 6.527 2.325 7.59 5.568A2.126 2.126 0 0 0 18 10.625v2.75c0 .748.386 1.405.97 1.784a8.082 8.082 0 0 1-4.023 3.579A1.99 1.99 0 0 0 14 18.5h-3a2 2 0 1 0 0 4h3a2 2 0 0 0 2-2v-.037a10.111 10.111 0 0 0 5.138-5.18c.488-.22.88-.584 1.166-.99C22.76 13.64 23 12.81 23 12s-.24-1.64-.696-2.292a3.103 3.103 0 0 0-.5-.56C20.89 4.512 16.86 1 12 1 7.121 1 3.079 4.54 2.184 9.205a3.16 3.16 0 0 0-.488.55C1.24 10.407 1 11.236 1 12.047c0 .81.24 1.64.696 2.292.462.66 1.206 1.208 2.179 1.208A2.125 2.125 0 0 0 6 13.422v-2.75z"/><path fill="currentColor" d="M15.758 14.652a1 1 0 1 0-1.516-1.304 3.021 3.021 0 0 1-2.298 1.054 3.02 3.02 0 0 1-2.214-.96 1 1 0 0 0-1.46 1.365 5.019 5.019 0 0 0 3.674 1.595c1.525 0 2.893-.68 3.814-1.75z"/></svg>