<svg xmlns="http://www.w3.org/2000/svg" width="22" height="24" fill="none" viewBox="0 0 22 24"><g clip-path="url(#dls-5876c-a)"><path stroke="currentColor" stroke-width="2" d="M9.6 3a3.8 3.8 0 1 0 0 7.6 3.8 3.8 0 0 0 0-7.6z"/><path fill="currentColor" d="M9.2 14.609a.637.637 0 0 1 1.23 0l.784 2.941a.49.49 0 0 1-.115.46l-.925.993a.49.49 0 0 1-.716 0l-.926-.993a.49.49 0 0 1-.115-.46l.783-2.941z"/><path stroke="currentColor" stroke-width="2" d="m19.537 14.906 1.327 2.279c.29.497.29 1.103.008 1.59l-1.31 2.27c-.281.487-.806.79-1.381.788l-2.637-.01a1.631 1.631 0 0 1-1.402-.81l-1.327-2.278a1.584 1.584 0 0 1-.008-1.59l1.31-2.27c.282-.487.806-.79 1.382-.788l2.637.01a1.63 1.63 0 0 1 1.4.81z"/><circle cx="16.8" cy="18" r="1.4" fill="currentColor"/><path fill="currentColor" fill-rule="evenodd" d="M12.066 22.5H3.5a3.5 3.5 0 0 1-3.49-3.768l.142-1.844a3.694 3.694 0 0 1 2.837-3.313 29.738 29.738 0 0 1 9.33-.683c-.054.079-.106.16-.155.244l-.972 1.684a27.735 27.735 0 0 0-7.745.702 1.694 1.694 0 0 0-1.301 1.52l-.142 1.843A1.5 1.5 0 0 0 3.5 20.5h7.4l1.166 2z" clip-rule="evenodd"/><path fill="currentColor" d="M9.212 14.586a.606.606 0 0 1 1.172 0l.742 2.788a.49.49 0 0 1-.115.46l-.855.918a.49.49 0 0 1-.716 0l-.855-.918a.49.49 0 0 1-.115-.46l.742-2.788z"/></g><defs><clipPath id="dls-5876c-a"><path fill="currentColor" d="M0 0h22v24H0z"/></clipPath></defs></svg>