<svg width="24" height="24" fill="none" xmlns="http://www.w3.org/2000/svg" viewBox="0 0 24 24"><path fill-rule="evenodd" clip-rule="evenodd" d="M12.11 15.352l2.369 4.32c.107.261.243.508.404.736l.04.073.01-.005a3.75 3.75 0 10-.097-4.314l-1.523-2.774L19.575 3.17 17.87 2.125l-5.665 9.243-5.128-9.349-1.754.962 5.678 10.35-1.833 2.992a3.75 3.75 0 10.139 3.6l2.802-4.571zM7.326 19.33a1.75 1.75 0 11.22-.36l-.222.359.002.001zM17.95 20c-.56 0-1.057-.262-1.378-.671l-.273-.499A1.75 1.75 0 1117.95 20z" fill="currentColor"/></svg>