<svg width="24" height="24" fill="none" xmlns="http://www.w3.org/2000/svg" viewBox="0 0 24 24"><path fill-rule="evenodd" clip-rule="evenodd" d="M6.5 1.5a5 5 0 00-5 5v11a5 5 0 005 5h11a5 5 0 005-5v-11a5 5 0 00-5-5h-11zm-3 5a3 3 0 013-3h11a3 3 0 013 3v6.795l-2.601-2.278a3.222 3.222 0 10-5.687-.643l-1.181 1.18A3.208 3.208 0 009.222 11a3.21 3.21 0 00-2.063.747L3.5 8.087V6.5zm0 4.415V17.5a3 3 0 003 3h11a3 3 0 003-3v-1.546l-4.213-3.69a3.22 3.22 0 01-2.807-.33l-1.217 1.218a3.222 3.222 0 11-6.18.347L3.5 10.915zm12.945-1.693a1.222 1.222 0 10-2.445 0 1.222 1.222 0 002.445 0zM9.222 13a1.222 1.222 0 110 2.445 1.222 1.222 0 010-2.445z" fill="currentColor"/></svg>