<svg width="24" height="24" fill="none" xmlns="http://www.w3.org/2000/svg" viewBox="0 0 24 24"><path fill-rule="evenodd" clip-rule="evenodd" d="M3.064 2.838A2 2 0 014.952 1.5h14.097a2 2 0 011.887 1.338l1.299 3.703c.965 2.753-.852 5.959-3.84 5.959-1.253 0-2.337-.593-3.07-1.503-.731.91-1.811 1.503-3.066 1.503h-.52c-1.255 0-2.335-.593-3.066-1.503-.733.91-1.817 1.503-3.07 1.503C2.616 12.5.8 9.295 1.765 6.544l1.3-3.706zm6.611 5.287c0 1.405 1.013 2.375 2.064 2.375h.52c1.05 0 2.063-.97 2.063-2.375a1 1 0 112 0c0 1.4 1.02 2.375 2.074 2.375 1.351 0 2.55-1.592 1.951-3.297L19.05 3.5H4.951L3.653 7.205c-.598 1.705.6 3.295 1.95 3.295 1.054 0 2.072-.974 2.072-2.375a1 1 0 012 0z" fill="currentColor"/><path d="M5.5 13.5v5a2 2 0 002 2h9a2 2 0 002-2v-5h2v5a4 4 0 01-4 4h-9a4 4 0 01-4-4v-5h2z" fill="currentColor"/><path d="M13.267 18.706l3.57-3.57-1.274-1.272-2.43 2.43-2.5-2-3.57 3.57 1.273 1.272 2.43-2.43 2.5 2z" fill="currentColor"/></svg>