<svg width="21" height="24" xmlns="http://www.w3.org/2000/svg" viewBox="0 0 21 24"><path d="M2.715 10.577v9.045c0 .418.475.832 1.15.885l.148.006h12.975c.703 0 1.224-.386 1.29-.801l.007-.09v-9.045h2.04v9.045c0 1.577-1.428 2.792-3.151 2.874l-.186.004H4.013c-1.744 0-3.23-1.16-3.331-2.71l-.005-.168v-9.045h2.038zM16.061 16.9v1.987H4.94V16.9h11.12zm-.585-6.775l1.17 1.628-5.256 3.585-3.207-2.473-2.61 2.014-1.266-1.558 3.876-2.99 3.28 2.53 4.013-2.736zM1.855 6.468c0 .789.656 1.428 1.466 1.428.81 0 1.465-.64 1.465-1.428h1.855c0 .789.656 1.428 1.466 1.428.81 0 1.466-.64 1.466-1.428h1.854c0 .789.657 1.428 1.466 1.428.81 0 1.466-.64 1.466-1.428h1.855c0 .789.656 1.428 1.465 1.428.81 0 1.466-.64 1.466-1.428H21c0 1.787-1.487 3.236-3.32 3.236-.941 0-1.79-.381-2.394-.993a3.348 3.348 0 01-2.393.993c-.94 0-1.789-.38-2.393-.992a3.354 3.354 0 01-2.393.992c-.94 0-1.79-.381-2.394-.993a3.348 3.348 0 01-2.392.993C1.487 9.704 0 8.255 0 6.468h1.855zM19.675 1.5c.731 0 1.324.448 1.324 1v3.967h-1.855v-3.16H1.863v3.16H.005V2.501C.007 1.948.6 1.5 1.333 1.5h18.343z" fill-rule="evenodd"/></svg>