<svg xmlns="http://www.w3.org/2000/svg" width="20" height="24" fill="none" viewBox="0 0 20 24"><path fill="currentColor" d="M10 2c-2.592 0-4.986.465-6.77 1.258-.89.396-1.674.893-2.247 1.496C.404 5.362 0 6.122 0 7c0 .85.368 1.58.93 2.188.269.149.566.292.89.43C3.744 10.434 6.55 11 10 11c3.452 0 6.127-.566 7.919-1.377.637-.289 1.143-.598 1.532-.911C19.792 8.209 20 7.638 20 7c0-.878-.404-1.638-.983-2.246-.573-.603-1.356-1.1-2.247-1.496C14.986 2.465 12.592 2 10 2z"/><path fill="currentColor" d="M0 12.25c0-.768.279-1.449.728-2.037.222.113.456.222.702.326C3.506 11.42 6.45 12 10 12c3.548 0 6.373-.58 8.331-1.466.3-.136.585-.282.851-.436.501.614.818 1.334.818 2.152a3.1 3.1 0 0 1-.17 1.014c-.295.69-.99 1.455-2.198 2.128C15.974 16.314 13.438 17 10 17c-3.438 0-5.974-.686-7.632-1.608C1.16 14.719.465 13.953.17 13.264A3.101 3.101 0 0 1 0 12.25z"/><path fill="currentColor" d="M.753 15.515C.293 16.08 0 16.742 0 17.5c0 .878.404 1.639.983 2.246.573.603 1.356 1.1 2.247 1.496C5.014 22.035 7.408 22.5 10 22.5c2.592 0 4.986-.465 6.77-1.258.89-.396 1.674-.893 2.247-1.496.579-.607.983-1.368.983-2.246 0-.758-.292-1.42-.753-1.985a8.19 8.19 0 0 1-1.129.75C16.276 17.291 13.562 18 10 18c-3.562 0-6.276-.71-8.118-1.735a8.195 8.195 0 0 1-1.129-.75z"/></svg>