<svg xmlns="http://www.w3.org/2000/svg" width="24" height="24" fill="none" viewBox="0 0 24 24"><path fill="currentColor" fill-rule="evenodd" d="M10.613 21.265a1.85 1.85 0 0 0 2.957 0l8.456-11.244a2.85 2.85 0 0 0 .122-3.25l-1.905-2.973a3.85 3.85 0 0 0-1.961-1.554l-2.48-.875a3.85 3.85 0 0 0-1.281-.219H9.315c-.482 0-.96.09-1.407.266l-2.103.826a3.85 3.85 0 0 0-1.834 1.506L2.034 6.771a2.85 2.85 0 0 0 .122 3.25l8.457 11.244zm-2.796-9.481 2.53 6.299-5.948-7.908 3.418 1.609zm6.907-1.543H9.458l.702-4.21h3.862l.702 4.21zm-.254 1.7-2.379 5.924-2.379-5.924h4.758zm1.94-.27 3.286-1.38-5.86 7.792 2.574-6.411zm-.03-1.83-.677-4.07 3.19-.93 1.824 2.847c.056.088.099.18.129.277L16.38 9.84zm-8.587.052.664-3.987a2.815 2.815 0 0 1-.052-.016l-3.13-1.027-1.81 2.825a1.153 1.153 0 0 0-.073.134l4.4 2.071zM8.529 3l-1.585.622 1.991.653c.116.038.237.058.359.058h5.109c.109 0 .217-.016.322-.046l2.318-.676-1.807-.638a2.15 2.15 0 0 0-.715-.122H9.315c-.27 0-.536.05-.786.149z" clip-rule="evenodd"/></svg>