<svg xmlns="http://www.w3.org/2000/svg" width="22" height="24" fill="none" viewBox="0 0 22 24"><path fill="currentColor" d="M10.415 21.876a1.837 1.837 0 0 1-.803-.611L1.156 10.02a2.846 2.846 0 0 1-.554-1.39l6.272 3.069 3.573 10.078-.032.1zm1.621-.131c.2-.119.382-.279.533-.48l8.457-11.244c.287-.382.467-.82.538-1.272l-6.203 2.819-3.325 10.177zM21.37 7.19a2.848 2.848 0 0 0-.222-.42l-1.604-2.502-4.954 1.434.707 4.247 6.072-2.76zm-2.816-4.197-4.802 1.39a1.25 1.25 0 0 1-.347.049h-5.13a1.25 1.25 0 0 1-.368-.055L3.555 3.039a3.85 3.85 0 0 1 1.25-.797l2.102-.826a3.85 3.85 0 0 1 1.407-.266h5.207c.436 0 .869.074 1.28.22l2.48.874a3.85 3.85 0 0 1 1.273.749zM2.606 4.317 1.034 6.771a2.856 2.856 0 0 0-.175.315l6.013 2.94.698-4.186a2.742 2.742 0 0 1-.103-.03L2.606 4.318zm6.469 1.615h4.032l.735 4.409H8.34l.735-4.41zm-.559 5.909h5.177l-2.482 7.599-2.695-7.599z"/></svg>