<svg xmlns="http://www.w3.org/2000/svg" width="22" height="24" fill="none" viewBox="0 0 22 24"><path fill="currentColor" fill-rule="evenodd" d="M0 12C0 5.925 4.925 1 11 1s11 4.925 11 11-4.925 11-11 11S0 18.075 0 12zm12-5.843c.51.128 1.015.338 1.463.633C14.297 7.34 15 8.246 15 9.5v1h-2v-1c0-.412-.208-.756-.638-1.04-.45-.297-1.061-.46-1.593-.46-.52 0-.977.156-1.284.403C9.203 8.631 9 8.97 9 9.5c0 .284.1.47.46.69.415.255.99.434 1.747.67l.091.03c.725.226 1.63.513 2.341 1.016C14.421 12.458 15 13.29 15 14.5c0 1.403-.65 2.356-1.588 2.897-.446.258-.936.41-1.412.498V19h-2v-1.086a4.053 4.053 0 0 1-1.815-.955C7.523 16.36 7 15.483 7 14.5v-1h2v1c0 .267.158.642.529.978.364.33.825.522 1.24.522.638 0 1.237-.1 1.644-.335.325-.188.587-.485.587-1.165 0-.456-.171-.718-.514-.96-.413-.292-1.009-.5-1.784-.742l-.174-.054c-.668-.207-1.476-.457-2.113-.849C7.649 11.426 7 10.675 7 9.5c0-1.137.478-2.047 1.229-2.653A3.868 3.868 0 0 1 10 6.067V5h2v1.157z" clip-rule="evenodd"/></svg>