<svg width="24" height="24" fill="none" xmlns="http://www.w3.org/2000/svg" viewBox="0 0 24 24"><path d="M13 5v1.157c.51.128 1.015.338 1.463.633C15.297 7.34 16 8.246 16 9.5v1h-2v-1c0-.413-.208-.757-.638-1.04-.45-.297-1.061-.46-1.593-.46-.52 0-.977.156-1.284.403C10.203 8.631 10 8.97 10 9.5c0 .284.1.47.46.69.415.255.99.434 1.747.67l.091.03c.725.226 1.63.513 2.341 1.016.782.552 1.361 1.383 1.361 2.594 0 1.403-.65 2.356-1.588 2.897-.446.258-.936.41-1.412.498V19h-2v-1.086a4.053 4.053 0 01-1.815-.955C8.523 16.36 8 15.483 8 14.5v-1h2v1c0 .267.158.641.529.978.364.33.825.522 1.24.522.638 0 1.237-.1 1.644-.335.325-.188.587-.485.587-1.165 0-.456-.171-.718-.514-.96-.413-.292-1.009-.5-1.784-.742l-.174-.054c-.668-.207-1.476-.457-2.113-.849C8.649 11.425 8 10.675 8 9.5c0-1.137.478-2.047 1.229-2.653A3.868 3.868 0 0111 6.067V5h2z" fill="currentColor"/><path fill-rule="evenodd" clip-rule="evenodd" d="M12 1C5.925 1 1 5.925 1 12s4.925 11 11 11 11-4.925 11-11S18.075 1 12 1zM3 12a9 9 0 1118 0 9 9 0 01-18 0z" fill="currentColor"/></svg>