<svg width="24" height="24" xmlns="http://www.w3.org/2000/svg" viewBox="0 0 24 24"><path d="M16.451 1.5l-1.683 1.896-8.93.001c-1.219 0-2.207.971-2.207 2.169v12.752c0 1.197.988 2.168 2.207 2.168h12.416c1.219 0 2.207-.97 2.207-2.168V9.13l1.93-2.176.001 11.364c0 2.245-1.853 4.066-4.138 4.066H5.838c-2.285 0-4.138-1.82-4.138-4.066V5.566C1.7 3.32 3.553 1.5 5.838 1.5h10.613zm5.34.775c.322.316.363.81.12 1.171l-.105.129L11.79 13.819h-1.33l.002-1.27L20.492 2.29a.919.919 0 011.299-.015z" fill-rule="evenodd"/></svg>