<svg xmlns="http://www.w3.org/2000/svg" width="23" height="24" fill="none" viewBox="0 0 23 24"><path fill="currentColor" d="m6.724 12.628 1.08-3.108 1.044 3.108H6.724zm7.676.276h1.236v.336c0 .384-.076.648-.228.792a.867.867 0 0 1-.432.252 2.723 2.723 0 0 1-.552.048c-.304 0-.532-.064-.684-.192a.693.693 0 0 1-.216-.528c0-.224.076-.396.228-.516.152-.128.368-.192.648-.192z"/><path fill="currentColor" fill-rule="evenodd" d="M21.397 15.53a26.48 26.48 0 0 0 .265-1.105c.158-.721.338-1.69.338-2.425 0-6.075-4.925-11-11-11S0 5.925 0 12s4.925 11 11 11c.933 0 2.142-.287 3.038-.537A28.696 28.696 0 0 0 15.533 22h4.74a2 2 0 0 0 1.96-2.402l-.836-4.068zM9.292 14.032l.504 1.512h1.74L8.416 7H7.108L4 15.544h1.74l.516-1.512h3.036zm6.38.972v.54h1.524v-4.116c0-.736-.224-1.288-.672-1.656-.448-.368-1.112-.552-1.992-.552-.52 0-.952.06-1.296.18-.336.12-.656.348-.96.684l.996.972c.08-.096.16-.176.24-.24.08-.064.164-.116.252-.156.096-.04.2-.068.312-.084a1.91 1.91 0 0 1 .396-.036c.416 0 .712.08.888.24.184.152.276.4.276.744v.312H14.16c-.36 0-.676.048-.948.144a1.863 1.863 0 0 0-.66.396c-.176.16-.308.352-.396.576a1.827 1.827 0 0 0-.132.696c0 .28.044.54.132.78.088.24.216.448.384.624.368.368.9.552 1.596.552.36 0 .652-.048.876-.144.232-.096.452-.248.66-.456z" clip-rule="evenodd"/></svg>