<svg width="24" height="24" fill="none" xmlns="http://www.w3.org/2000/svg" viewBox="0 0 24 24"><path fill-rule="evenodd" clip-rule="evenodd" d="M10.292 14.032l.504 1.512h1.74L9.416 7H8.108L5 15.544h1.74l.516-1.512h3.036zm-2.568-1.404l1.08-3.108 1.044 3.108H7.724zm8.948 2.376v.54h1.524v-4.116c0-.736-.224-1.288-.672-1.656-.448-.368-1.112-.552-1.992-.552-.52 0-.952.06-1.296.18-.336.12-.656.348-.96.684l.996.972c.08-.096.16-.176.24-.24.08-.064.164-.116.252-.156.096-.04.2-.068.312-.084a1.91 1.91 0 01.396-.036c.416 0 .712.08.888.24.184.152.276.4.276.744v.312H15.16c-.36 0-.676.048-.948.144a1.863 1.863 0 00-.66.396c-.176.16-.308.352-.396.576a1.827 1.827 0 00-.132.696c0 .28.044.54.132.78.088.24.216.448.384.624.368.368.9.552 1.596.552.36 0 .652-.048.876-.144.232-.096.452-.248.66-.456zm-1.272-2.1h1.236v.336c0 .384-.076.648-.228.792a.867.867 0 01-.432.252 2.723 2.723 0 01-.552.048c-.304 0-.532-.064-.684-.192a.693.693 0 01-.216-.528c0-.224.076-.396.228-.516.152-.128.368-.192.648-.192z" fill="currentColor"/><path fill-rule="evenodd" clip-rule="evenodd" d="M22.438 15.373l-.04.157.835 4.068A2 2 0 0121.273 22h-4.74a26.935 26.935 0 01-1.495.463c-.896.25-2.105.537-3.038.537-6.075 0-11-4.925-11-11S5.925 1 12 1s11 4.925 11 11c0 .735-.18 1.704-.338 2.425-.081.374-.163.708-.224.948zM3 12a9 9 0 0118 0c0 .497-.134 1.277-.292 1.998a27.087 27.087 0 01-.277 1.144l-.018.07-.005.016-.001.005-.065.232.932 4.535H16.19l-.164.058-.005.002-.02.008-.086.03-.324.108c-.277.09-.662.21-1.092.33-.895.25-1.868.464-2.5.464a9 9 0 01-9-9z" fill="currentColor"/></svg>