<svg xmlns="http://www.w3.org/2000/svg" width="22" height="24" fill="none" viewBox="0 0 22 24"><g clip-path="url(#dls-b943c-a)"><path fill="currentColor" fill-rule="evenodd" d="M9.928 1.281a5 5 0 0 1 2.144 0c.802.176 1.534.616 2.593 1.252l.142.085 5.154 3.092.098.059c.47.28.882.528 1.194.882a3 3 0 0 1 .605 1.069c.143.45.143.93.142 1.478v5.945c0 1.084 0 1.958-.058 2.666-.06.729-.185 1.369-.487 1.961a5 5 0 0 1-2.185 2.185c-.592.302-1.233.428-1.961.487-.708.058-1.582.058-2.666.058H7.357c-1.084 0-1.958 0-2.666-.058-.729-.06-1.369-.185-1.961-.487A5 5 0 0 1 .545 19.77c-.302-.592-.428-1.232-.487-1.961C0 17.1 0 16.227 0 15.143V9.198C0 8.65-.001 8.169.142 7.72a3 3 0 0 1 .605-1.07c.312-.354.725-.601 1.194-.882l.098-.059 5.154-3.092.142-.085c1.059-.636 1.791-1.076 2.593-1.252zm1.01 12.531L2.486 7.237 1.38 8.657l5.732 4.459L1.227 19 2.5 20.273l6.043-6.043 1.29 1.003a1.9 1.9 0 0 0 2.333 0l1.29-1.004 6.044 6.044L20.773 19l-5.884-5.884 5.731-4.458-1.105-1.42-8.454 6.574a.1.1 0 0 1-.122 0z" clip-rule="evenodd"/></g><defs><clipPath id="dls-b943c-a"><path fill="currentColor" d="M0 0h22v24H0z"/></clipPath></defs></svg>