<svg width="16" height="16" xmlns="http://www.w3.org/2000/svg" viewBox="0 0 16 16"><path d="M2.403 2.001L13.436 2c.892 0 1.215.093 1.54.267.327.174.583.43.757.756l.061.123c.135.293.206.638.206 1.418v6.872c0 .892-.093 1.215-.267 1.54a1.81 1.81 0 01-.756.757l-.123.061c-.272.125-.589.196-1.257.205L2.564 14c-.892 0-1.215-.093-1.54-.267a1.817 1.817 0 01-.757-.756l-.061-.123C.08 12.582.01 12.265 0 11.597V4.564c0-.892.093-1.215.267-1.54a1.81 1.81 0 01.756-.757l.123-.061c.272-.125.589-.196 1.257-.205zm12.26 2.243L8.376 8.62a.667.667 0 01-.683.047l-.079-.047-6.277-4.37-.004.313v6.996l.005.21c.01.342.042.46.105.578.05.094.115.16.209.21l.085.038c.135.051.327.07.827.07H13.56l.21-.004c.342-.01.46-.042.578-.105a.485.485 0 00.21-.209l.04-.09c.04-.11.061-.26.067-.587l.002-.235-.002-7.097-.002-.095zm-1.024-.91H2.352l5.2 3.619a.81.81 0 00.329.138l.114.01a.766.766 0 00.334-.084l.078-.044 5.232-3.638z" fill-rule="evenodd"/></svg>