<svg width="16" height="16" xmlns="http://www.w3.org/2000/svg" viewBox="0 0 16 16"><path d="M2.4 2h11.04c.89 0 1.21.1 1.54.27.32.17.58.43.75.75l.06.13c.14.29.21.63.21 1.41v6.88c0 .89-.1 1.21-.27 1.54a1.8 1.8 0 01-.75.75l-.13.06c-.27.13-.58.2-1.25.2L2.56 14c-.89 0-1.21-.1-1.54-.27a1.82 1.82 0 01-.75-.75l-.06-.13a2.7 2.7 0 01-.2-1.25L0 4.56c0-.89.1-1.21.27-1.54.17-.32.43-.58.75-.75l.13-.06c.27-.13.58-.2 1.25-.2zm12.26 2.24L8.38 8.62a.67.67 0 01-.69.05l-.08-.05-6.27-4.37v7.52c0 .34.04.46.1.58.05.1.12.16.21.2l.09.05c.13.05.32.07.82.07h11.21c.34-.02.46-.05.58-.11a.4.4 0 00.2-.21l.05-.1c.04-.1.06-.25.06-.58V4.24zm-1.02-.9H2.35l5.2 3.61c.1.08.22.12.33.14L8 7.1c.1 0 .21-.03.33-.08l.08-.05 5.23-3.64z" fill-rule="evenodd"/></svg>