<svg xmlns="http://www.w3.org/2000/svg" width="24" height="24" fill="none" viewBox="0 0 24 24"><path fill="currentColor" fill-rule="evenodd" d="M8.357 2.5c-1.084 0-1.958 0-2.666.058-.728.06-1.369.185-1.961.487A5 5 0 0 0 1.545 5.23c-.302.592-.428 1.233-.487 1.961C1 7.9 1 8.773 1 9.857v4.286c0 1.084 0 1.958.058 2.666.06.729.185 1.369.487 1.961a5 5 0 0 0 2.185 2.185c.592.302 1.233.428 1.961.487.708.058 1.582.058 2.666.058h7.286c1.084 0 1.958 0 2.666-.058.729-.06 1.369-.185 1.961-.487a5 5 0 0 0 2.185-2.185c.302-.592.428-1.232.487-1.961C23 16.1 23 15.227 23 14.143V9.857c0-1.084 0-1.958-.058-2.666-.06-.728-.185-1.369-.487-1.96a5 5 0 0 0-2.185-2.186c-.592-.302-1.232-.428-1.961-.487C17.6 2.5 16.727 2.5 15.643 2.5H8.357zM4.71 4.792c.255-.115.593-.196 1.144-.24C6.471 4.5 7.264 4.5 8.4 4.5h7.2c1.137 0 1.929 0 2.546.051.552.045.89.126 1.144.241L12 11.172l-7.29-6.38zM3.293 6.208c-.116.255-.197.593-.242 1.146C3.001 7.971 3 8.764 3 9.9v4.2c0 1.137 0 1.929.051 2.546.05.605.142.953.276 1.216a3 3 0 0 0 1.311 1.311c.263.134.611.226 1.216.276.617.05 1.41.051 2.546.051h7.2c1.137 0 1.929 0 2.546-.051.605-.05.953-.142 1.216-.276a3 3 0 0 0 1.311-1.311c.134-.263.226-.611.276-1.216.05-.617.051-1.41.051-2.546V9.9c0-1.137 0-1.929-.051-2.546-.045-.553-.126-.891-.242-1.146l-.049.045-7.341 6.423a2 2 0 0 1-2.634 0L3.342 6.253a1.012 1.012 0 0 1-.049-.045z" clip-rule="evenodd"/></svg>