<svg width="24" height="24" fill="none" xmlns="http://www.w3.org/2000/svg" viewBox="0 0 24 24"><path d="M11 7.9v7h2v-7h-2zm2.25 9.55a1.25 1.25 0 11-2.5 0 1.25 1.25 0 012.5 0z" fill="currentColor"/><path fill-rule="evenodd" clip-rule="evenodd" d="M14.783 3.08c-1.226-2.162-4.34-2.162-5.566 0L1.194 17.22c-1.21 2.134.33 4.78 2.783 4.78h16.046c2.452 0 3.993-2.646 2.783-4.779L14.783 3.08zm-3.827.986a1.2 1.2 0 012.088 0l8.022 14.142A1.2 1.2 0 0120.023 20H3.977a1.2 1.2 0 01-1.043-1.792l8.022-14.142z" fill="currentColor"/></svg>