<svg xmlns="http://www.w3.org/2000/svg" width="24" height="24" fill="none" viewBox="0 0 24 24"><path fill="currentColor" d="M10.353 8.054H9.169l2.456 2.596-1.235 1.169L8.122 9.42v1.04h-1.7V7.42c0-.544.429-1.067 1.055-1.067h2.876v1.7zm5.597 6.637v-.975h1.7v3.04c0 .544-.429 1.067-1.056 1.067H13.72v-1.7h1.246l-2.457-2.597 1.235-1.168 2.207 2.333zm0-6.637h-2.231v-1.7h2.875c.627 0 1.056.523 1.056 1.067v3.04h-1.7V8.054zm-5.674 8.096H8.045v-2.407h-1.7v3.04c0 .544.428 1.067 1.055 1.067h2.876v-1.7z"/><path fill="currentColor" fill-rule="evenodd" d="M1.5 6.5a5 5 0 0 1 5-5h11a5 5 0 0 1 5 5v11a5 5 0 0 1-5 5h-11a5 5 0 0 1-5-5v-11zm5-3a3 3 0 0 0-3 3v11a3 3 0 0 0 3 3h11a3 3 0 0 0 3-3v-11a3 3 0 0 0-3-3h-11z" clip-rule="evenodd"/></svg>