<svg xmlns="http://www.w3.org/2000/svg" width="24" height="24" fill="none" viewBox="0 0 24 24"><path fill="currentColor" fill-rule="evenodd" d="M2.5 14.9v4.8a1.8 1.8 0 0 0 1.8 1.8h4.8v-2H5.924l4.619-4.618-1.415-1.415L4.5 18.096V14.9h-2zM5.924 4.523l4.619 4.619-1.415 1.414L4.5 5.927v3.196h-2v-4.8a1.8 1.8 0 0 1 1.8-1.8h4.8v2H5.924zm15.576 4.6v-4.8a1.8 1.8 0 0 0-1.8-1.8h-4.8v2h3.176l-4.619 4.619 1.415 1.414L19.5 5.927v3.196h2zm0 5.777v4.8a1.8 1.8 0 0 1-1.8 1.8h-4.8v-2h3.176l-4.619-4.618 1.415-1.415 4.628 4.629V14.9h2z" clip-rule="evenodd"/></svg>