<svg width="21" height="24" xmlns="http://www.w3.org/2000/svg" viewBox="0 0 21 24"><path d="M18 1.5a3 3 0 013 3v15a3 3 0 01-3 3H3a3 3 0 01-3-3v-15a3 3 0 013-3h15zm0 2H3a1 1 0 00-.993.883L2 4.5v15a1 1 0 00.883.993L3 20.5h15a1 1 0 00.993-.883L19 19.5v-15a1 1 0 00-.883-.993L18 3.5zm-5.864 9.07l2.799 2.799.001-1.369h1.8v3.394l-.006.124a1.143 1.143 0 01-1.136 1.018H12.2v-1.8h1.556l-2.892-2.893 1.272-1.273zM5.7 14v2.737h2.736v1.8H5.042a1.143 1.143 0 01-1.135-1.019l-.007-.124V14h1.8zm2.736-8.1v1.8l-1.328-.001 2.965 2.965L8.8 11.936l-3.1-3.1v1.6H3.9V7.042l.007-.124A1.143 1.143 0 015.042 5.9h3.394zm7.158 0c.589 0 1.074.446 1.136 1.018l.006.124v3.394h-1.8V7.7H12.2V5.9h3.394z" fill-rule="evenodd"/></svg>