<svg xmlns="http://www.w3.org/2000/svg" width="22" height="24" fill="none" viewBox="0 0 22 24"><path fill="currentColor" fill-rule="evenodd" d="M.5 6.5a5 5 0 0 1 5-5h11a5 5 0 0 1 5 5v11a5 5 0 0 1-5 5h-11a5 5 0 0 1-5-5v-11zm7.669 1.554h1.184v-1.7H6.477c-.627 0-1.055.523-1.055 1.067v3.04h1.7v-1.04l2.268 2.398 1.235-1.169-2.456-2.596zm6.781 5.662v.975l-2.207-2.333-1.235 1.168 2.457 2.597h-1.246v1.7h2.876c.626 0 1.055-.523 1.055-1.067v-3.04h-1.7zm0-5.662h-2.231v-1.7h2.876c.626 0 1.055.523 1.055 1.067v3.04h-1.7V8.054zM7.045 16.15h2.23v1.7H6.4c-.627 0-1.055-.523-1.055-1.067v-3.04h1.7v2.407z" clip-rule="evenodd"/></svg>