<svg width="23" height="24" xmlns="http://www.w3.org/2000/svg" viewBox="0 0 23 24"><path d="M11.5 7C17.278 7 23 11.018 23 14.75s-5.722 7.75-11.5 7.75C5.656 22.5 0 18.584 0 14.75S5.656 7 11.5 7zm0 2c-4.858 0-9.491 3.208-9.491 5.75S6.642 20.5 11.5 20.5c4.788 0 9.491-3.302 9.491-5.75S16.288 9 11.5 9zm.052 2.5a3.508 3.508 0 013.516 3.5c0 1.933-1.574 3.5-3.516 3.5A3.508 3.508 0 018.036 15c0-1.933 1.574-3.5 3.516-3.5zm0 2c-.832 0-1.507.672-1.507 1.5s.675 1.5 1.507 1.5c.832 0 1.507-.672 1.507-1.5s-.675-1.5-1.507-1.5zM5.257 2.352l2.266 3.453-1.68 1.102-2.265-3.452 1.68-1.103zm12.64 0l1.68 1.103-2.266 3.452-1.68-1.102 2.267-3.453zm-5.34-.852v4h-2.01v-4h2.01z" fill-rule="evenodd"/></svg>