<svg xmlns="http://www.w3.org/2000/svg" width="24" height="24" fill="none" viewBox="0 0 24 24"><path fill="currentColor" d="M13 6V2h-2v4h2z"/><path fill="currentColor" fill-rule="evenodd" d="M9 15a3 3 0 1 1 6 0 3 3 0 0 1-6 0zm3-1a1 1 0 1 0 0 2 1 1 0 0 0 0-2z" clip-rule="evenodd"/><path fill="currentColor" fill-rule="evenodd" d="M4.414 9.9C6.404 8.706 9.09 8 12 8c2.912 0 5.596.706 7.586 1.9C21.556 11.082 23 12.854 23 15c0 2.146-1.445 3.918-3.414 5.1C17.596 21.294 14.912 22 12 22s-5.596-.706-7.586-1.9C2.444 18.918 1 17.146 1 15c0-2.146 1.445-3.918 3.414-5.1zm1.03 1.715C3.793 12.605 3 13.832 3 15c0 1.168.794 2.395 2.443 3.385C7.073 19.363 9.39 20 12 20s4.927-.637 6.557-1.615C20.206 17.395 21 16.168 21 15c0-1.168-.794-2.396-2.443-3.385C16.927 10.637 14.61 10 12 10s-4.927.637-6.557 1.615z" clip-rule="evenodd"/><path fill="currentColor" d="M5.143 3.152 7.41 6.604 5.737 7.702 3.471 4.25l1.672-1.098zm11.612 3.214 2.266-3.452 1.672 1.098-2.266 3.452-1.672-1.098z"/></svg>