<svg width="24" height="24" xmlns="http://www.w3.org/2000/svg" viewBox="0 0 24 24"><g fill="currentColor"><path d="M23 20a3 3 0 01-3 3h-4v-2h4a1 1 0 00.993-.883L21 20v-4h2v4zM4 15.999V20a1 1 0 00.883.993L5 21h4v2H5a3 3 0 01-3-3v-4l2-.001zM20 2a3 3 0 013 3v4h-2V5a1 1 0 00-.883-.993L20 4h-4V2h4zM2 5a3 3 0 013-3h4v2H5a1 1 0 00-.993.883L4 5v3.999L2 9V5zm10.5 4.03c-1.952 0-3.545 1.546-3.545 3.47 0 1.924 1.593 3.47 3.545 3.47s3.545-1.546 3.545-3.47c0-1.924-1.593-3.47-3.545-3.47zm0 2c.86 0 1.545.665 1.545 1.47 0 .805-.685 1.47-1.545 1.47-.86 0-1.545-.665-1.545-1.47 0-.805.685-1.47 1.545-1.47z"/><path d="M12.5 5.5c-4.376 0-9 3.974-9 7s4.624 7 9 7 9-3.974 9-7-4.624-7-9-7zm0 2c3.333 0 7 3.151 7 5 0 1.849-3.667 5-7 5s-7-3.151-7-5c0-1.849 3.667-5 7-5z"/></g></svg>