<svg width="24" height="24" xmlns="http://www.w3.org/2000/svg" viewBox="0 0 24 24"><path d="M21 1.586L22.414 3 3 22.414 1.586 21 21 1.586zm-.762 4.679c1.915 1.683 3.159 3.8 3.159 5.809 0 4.289-5.671 9.074-11.449 9.074-1.86 0-3.696-.473-5.335-1.26l1.516-1.515c1.199.486 2.503.775 3.82.775 4.74 0 9.448-3.972 9.448-7.074 0-1.44-1.013-3.066-2.573-4.396l1.414-1.413zM11.948 3c1.83 0 3.65.48 5.281 1.272l-1.512 1.513C14.526 5.294 13.238 5 11.948 5 7.138 5 2.5 8.858 2.5 12.074c0 1.481.984 3.099 2.515 4.413L3.602 17.9C1.714 16.234.5 14.126.5 12.074.5 7.664 6.106 3 11.948 3zm4.036 7.517a4.324 4.324 0 01-5.592 5.592l1.717-1.716a2.325 2.325 0 002.158-2.16l1.717-1.716zM11.948 7.75c.537 0 1.052.098 1.526.277l-1.733 1.732a2.325 2.325 0 00-2.108 2.108L7.901 13.6a4.324 4.324 0 014.048-5.85z" fill-rule="evenodd"/></svg>