<svg xmlns="http://www.w3.org/2000/svg" width="24" height="24" fill="none" viewBox="0 0 24 24"><path fill="currentColor" d="M9.5 11.938a2.5 2.5 0 1 1 5 0 2.5 2.5 0 0 1-5 0z"/><path fill="currentColor" fill-rule="evenodd" d="M6.863 4.394C8.828 3.274 10.663 3 12 3c2.44 0 4.623 1.024 6.435 2.454 1.812 1.43 3.306 3.303 4.404 5.12.53.878.528 1.958.047 2.834-1.459 2.654-2.986 4.569-4.776 5.814C16.298 20.482 14.296 21 12 21c-3.125 0-5.593-1.432-7.39-3.074-1.793-1.638-2.976-3.534-3.565-4.61a2.726 2.726 0 0 1 .022-2.636c1.79-3.23 3.83-5.165 5.796-6.286zM12 7.437a4.5 4.5 0 1 0 0 9 4.5 4.5 0 0 0 0-9z" clip-rule="evenodd"/></svg>