<svg width="24" height="24" fill="none" xmlns="http://www.w3.org/2000/svg" viewBox="0 0 24 24"><path fill-rule="evenodd" clip-rule="evenodd" d="M14.74 4.903l1.767-1.767a3 3 0 114.243 4.242l-1.768 1.768 2.121 2.121-1.414 1.415-1.414-1.415-7.677 7.677a4.467 4.467 0 01-4.048 1.22l-1.003 1.003a2 2 0 01-2.829-2.829l1.004-1.003a4.468 4.468 0 011.219-4.048l7.677-7.677-1.414-1.414 1.414-1.414 2.121 2.121zm3.181-.353a1 1 0 011.415 1.414l-1.768 1.768-1.415-1.414 1.768-1.768zm-3.889 2.475l-4.95 4.95h5.657l2.122-2.122-2.829-2.828z" fill="currentColor"/></svg>