<svg xmlns="http://www.w3.org/2000/svg" width="24" height="24" fill="none" viewBox="0 0 24 24"><path fill="currentColor" fill-rule="evenodd" d="m14.74 4.903 1.767-1.767a3 3 0 1 1 4.243 4.242l-1.768 1.768 2.121 2.121-1.414 1.415-1.414-1.415-7.677 7.677a4.467 4.467 0 0 1-4.048 1.22l-1.003 1.003a2 2 0 0 1-2.829-2.829l1.004-1.003a4.468 4.468 0 0 1 1.219-4.048l7.677-7.677-1.414-1.414 1.414-1.414 2.121 2.121zm3.181-.353a1 1 0 0 1 1.415 1.414l-1.768 1.768-1.415-1.414 1.768-1.768zm-3.889 2.475-4.95 4.95h5.657l2.122-2.122-2.829-2.828z" clip-rule="evenodd"/></svg>