<svg xmlns="http://www.w3.org/2000/svg" width="22" height="24" fill="none" viewBox="0 0 22 24"><path fill="currentColor" fill-rule="evenodd" d="M3.9 6.2a4.9 4.9 0 0 1 4.9-4.9h4.4a4.9 4.9 0 0 1 4.9 4.9v.1h.2a2.9 2.9 0 0 1 2.9 2.9v5.6a2.9 2.9 0 0 1-2.9 2.9h-.2v.1a4.9 4.9 0 0 1-4.9 4.9H8.8a4.9 4.9 0 0 1-4.9-4.9v-.1h-.2a2.9 2.9 0 0 1-2.9-2.9V9.2a2.9 2.9 0 0 1 2.9-2.9h.2v-.1zm12.4 0v.1H5.7v-.1a3.1 3.1 0 0 1 3.1-3.1h4.4a3.1 3.1 0 0 1 3.1 3.1zM5.7 17.8v-.1h10.6v.1a3.1 3.1 0 0 1-3.1 3.1H8.8a3.1 3.1 0 0 1-3.1-3.1zM16 11.35H6v-1.7h10v1.7zm-3.5 3H6v-1.7h6.5v1.7z" clip-rule="evenodd"/></svg>