<svg width="24" height="24" fill="none" xmlns="http://www.w3.org/2000/svg" viewBox="0 0 24 24"><path d="M17 11.35H7v-1.7h10v1.7zm-10 3h6.5v-1.7H7v1.7z" fill="currentColor"/><path fill-rule="evenodd" clip-rule="evenodd" d="M9.8 1.3a4.9 4.9 0 00-4.9 4.9v.1h-.2a2.9 2.9 0 00-2.9 2.9v5.6a2.9 2.9 0 002.9 2.9h.2v.1a4.9 4.9 0 004.9 4.9h4.4a4.9 4.9 0 004.9-4.9v-.1h.2a2.9 2.9 0 002.9-2.9V9.2a2.9 2.9 0 00-2.9-2.9h-.2v-.1a4.9 4.9 0 00-4.9-4.9H9.8zm7.5 5v-.1a3.1 3.1 0 00-3.1-3.1H9.8a3.1 3.1 0 00-3.1 3.1v.1h10.6zm0 11.4H6.7v.1a3.1 3.1 0 003.1 3.1h4.4a3.1 3.1 0 003.1-3.1v-.1zM3.6 9.2a1.1 1.1 0 011.1-1.1h14.6a1.1 1.1 0 011.1 1.1v5.6a1.1 1.1 0 01-1.1 1.1H4.7a1.1 1.1 0 01-1.1-1.1V9.2z" fill="currentColor"/></svg>