<svg xmlns="http://www.w3.org/2000/svg" width="24" height="24" fill="none" viewBox="0 0 24 24"><path fill="currentColor" d="M21.002 19.002a3 3 0 0 1-3 3h-14a3 3 0 0 1-3-3v-2.001h16v2.001c0 .512.387.935.884.993l.116.006a1 1 0 0 0 .993-.883l.007-.116v-8.004l.001.002c.701 0 1.373-.123 1.998-.343v8.345zM13.808 2.001a5.96 5.96 0 0 0-.721 2.001H6a1 1 0 0 0-.993.883l-.006.116v10h-2v-10a3 3 0 0 1 3-3h7.806z"/><path fill="currentColor" d="M14.46 9.801v1.5H7v-1.5h7.46zm5.412-7.741a3.827 3.827 0 0 0 1.973 2.039L23 4.613v.889l-1.191.53a3.826 3.826 0 0 0-1.946 1.973L19.43 9h-.86l-.434-.995a3.824 3.824 0 0 0-1.944-1.973L15 5.502v-.89l1.154-.513a3.828 3.828 0 0 0 1.973-2.04l.44-1.06h.867l.438 1.06zM11.46 7.5H7V6h4.46v1.5z"/></svg>