<svg width="14" height="16" xmlns="http://www.w3.org/2000/svg" viewBox="0 0 14 16"><path d="M12 1a2 2 0 012 2v7.947l-.206.206v.031h-.031L9.947 15H2a2 2 0 01-2-2V3a2 2 0 012-2h10zm0 1.333H2a.667.667 0 00-.662.59L1.333 3v10c0 .342.258.624.59.662l.077.005 6.579-.001a.39.39 0 00.367-.306l.01-.072V9.959h3.33a.39.39 0 00.376-.376l.004-.006V3a.668.668 0 00-.513-.65l-.075-.012L12 2.333zm-.124 8.85l-1.695.001v1.695l1.695-1.696zM9.569 7.58v1.334H4.226V7.58h5.343zm0-2.792v1.333H4.226V4.788h5.343z" fill-rule="evenodd"/></svg>