<svg xmlns="http://www.w3.org/2000/svg" width="24" height="24" fill="none" viewBox="0 0 24 24"><path fill="currentColor" d="M7 13h6v2H7v-2zm0-5h10v2H7V8z"/><path fill="currentColor" fill-rule="evenodd" d="M9.357 2h5.286c1.083 0 1.958 0 2.666.058.729.06 1.369.185 1.961.487a5 5 0 0 1 2.185 2.185c.302.592.428 1.233.487 1.961C22 7.4 22 8.273 22 9.357v4.4c0 .408 0 .767-.083 1.115a3 3 0 0 1-.36.867c-.186.306-.44.56-.728.846l-4.244 4.244c-.287.288-.54.542-.846.729a3 3 0 0 1-.867.36c-.348.083-.707.082-1.114.082h-4.4c-1.085 0-1.959 0-2.667-.058-.728-.06-1.369-.185-1.96-.487a5 5 0 0 1-2.186-2.185c-.302-.592-.428-1.232-.487-1.961C2 16.6 2 15.727 2 14.643V9.357c0-1.084 0-1.958.058-2.666.06-.728.185-1.369.487-1.96A5 5 0 0 1 4.73 2.544c.592-.302 1.233-.428 1.961-.487C7.4 2 8.273 2 9.357 2zM6.854 4.051c-.605.05-.953.142-1.216.276a3 3 0 0 0-1.311 1.311c-.134.263-.226.611-.276 1.216C4.001 7.471 4 8.264 4 9.4v5.2c0 1.137 0 1.929.051 2.546.05.605.142.953.276 1.216a3 3 0 0 0 1.311 1.311c.263.134.611.226 1.216.276.617.05 1.41.051 2.546.051h4.534v-3.142a2.919 2.919 0 0 1 2.92-2.919h3.145l.001-.264V9.4c0-1.137 0-1.929-.051-2.546-.05-.605-.142-.953-.276-1.216a3 3 0 0 0-1.311-1.311c-.263-.134-.611-.226-1.216-.276-.617-.05-1.41-.05-2.546-.05H9.4c-1.137 0-1.929 0-2.546.05zM18.81 15.777l-3.037 3.037v-1.956c0-.597.484-1.082 1.082-1.082h1.955z" clip-rule="evenodd"/></svg>