<svg xmlns="http://www.w3.org/2000/svg" width="16" height="16" fill="none" viewBox="0 0 16 16"><g clip-path="url(#dls-731c4-a)"><path fill="currentColor" d="M11.333.667A2.667 2.667 0 0 1 14 3.334v5.365a4.333 4.333 0 0 0-5.323 6.635H3.334a2.667 2.667 0 0 1-2.667-2.667V3.334A2.667 2.667 0 0 1 3.334.667h7.999zm-1.154 9.669a1.91 1.91 0 0 1 1.01.055l.137.051c.315.134.59.35.793.627l.032.044 1.207 1.482.006-.003.093.115c.103.127.244.22.401.266l.07.016c.14.028.286.018.422-.029l.112-.05a.809.809 0 0 0 .276-.242l.064-.105a.807.807 0 0 0 .087-.357l-.007-.108a.806.806 0 0 0-.104-.304l-.037-.058a.807.807 0 0 0-.317-.265l-.068-.028a.804.804 0 0 0-.481-.02l-.001-.001-.06.018h.001a.809.809 0 0 0-.35.245l-.1.12-.122-.1-.604-.505-.121-.1.1-.121.099-.11c.238-.245.54-.421.872-.51l.142-.034a1.92 1.92 0 0 1 .869.038l.14.046.005.002v.001l.125.05.005.003.115.056c.225.122.424.288.584.489l.077.103.003.005.073.114.003.005.061.113c.133.267.202.563.2.864v.007l-.007.133v.007a1.91 1.91 0 0 1-.35.949l-.003.005-.083.106-.003.005c-.22.262-.508.46-.832.574l-.006.002-.128.04-.006.002c-.283.075-.58.083-.868.025h-.007l-.13-.033-.006-.002a1.918 1.918 0 0 1-.817-.452l-.11-.135-1.451-1.781-.064-.064a.792.792 0 0 0-.223-.143l-.06-.022-.12-.03a.806.806 0 0 0-.365.022v-.001l-.06.02.001.001a.807.807 0 0 0-.343.254l-.036.049-.054.094a.812.812 0 0 0-.08.312l-.002.062.01.107a.81.81 0 0 0 .113.3l.075.1a.79.79 0 0 0 .296.215l.103.035a.808.808 0 0 0 .32.02l.06-.01a.808.808 0 0 0 .423-.244l.105-.116.116.106.582.532.117.105-.107.117c-.265.29-.613.49-.997.575l-.006.003-.133.023h-.005a1.898 1.898 0 0 1-.866-.077l-.005-.002-.126-.047-.006-.003a1.908 1.908 0 0 1-.796-.623l-.004-.006-.076-.111-.003-.005a1.908 1.908 0 0 1-.291-.968v-.006l.002-.135V12.1l.01-.128a1.91 1.91 0 0 1 .309-.832l.003-.005.08-.11.003-.004.083-.098c.2-.223.45-.395.73-.503l.006-.002.128-.043.005-.002.143-.037zM4 8.667h3.333V7.334H4v1.333zm0-3.333h6V4H4v1.334z"/></g><defs><clipPath id="dls-731c4-a"><path fill="currentColor" d="M0 0h16v16H0z"/></clipPath></defs></svg>