<svg width="24" height="24" fill="none" xmlns="http://www.w3.org/2000/svg" viewBox="0 0 24 24"><path fill-rule="evenodd" clip-rule="evenodd" d="M5.734 4.4c-.869 0-1.324 1.032-.738 1.674l4.896 5.363.015.015.29.293v8.241l3.01-2.282a2 2 0 00.79-1.594v-4.552l5.007-5.484c.586-.642.13-1.674-.738-1.674H5.734zM3.52 7.423C1.761 5.497 3.127 2.4 5.734 2.4h12.532c2.607 0 3.973 3.097 2.215 5.023l-4.484 4.91v3.777a4 4 0 01-1.582 3.187l-3.009 2.283c-1.317.999-3.209.06-3.209-1.594v-7.44L3.52 7.424z" fill="currentColor"/></svg>