<svg xmlns="http://www.w3.org/2000/svg" width="24" height="24" fill="none" viewBox="0 0 24 24"><path fill="currentColor" fill-rule="evenodd" d="M6 14h11.838c.528 0 .982 0 1.357-.03.395-.033.789-.104 1.167-.297a3 3 0 0 0 1.311-1.311c.193-.378.264-.772.296-1.167.031-.375.031-.83.031-1.356V6.16c0-.527 0-.981-.03-1.356-.033-.395-.104-.789-.297-1.167a3 3 0 0 0-1.311-1.311c-.378-.193-.772-.264-1.167-.296A17.9 17.9 0 0 0 17.839 2H5a1 1 0 0 0-1 1v17.8H1.5v2h7v-2H6V14zm13.032-9.976C18.75 4 18.377 4 17.8 4H6v8h11.8c.577 0 .949 0 1.232-.024.272-.022.372-.06.422-.085a1 1 0 0 0 .437-.437c.025-.05.063-.15.085-.422C20 10.75 20 10.377 20 9.8V6.2c0-.577 0-.949-.024-1.232-.022-.272-.06-.373-.085-.422a1 1 0 0 0-.437-.437c-.05-.025-.15-.063-.422-.085z" clip-rule="evenodd"/></svg>