<svg xmlns="http://www.w3.org/2000/svg" width="24" height="24" fill="none" viewBox="0 0 24 24"><path fill="currentColor" fill-rule="evenodd" d="M5.6 1.8a4 4 0 0 0-4 4v12.5a4 4 0 0 0 4 4h12.262a4 4 0 0 0 3.942-3.322l1.18-6.854a3.001 3.001 0 0 0-2.333-3.443v-.96a3 3 0 0 0-3-3h-5.868L9.74 2.678A3 3 0 0 0 7.62 1.8H5.6zm13.051 6.816V7.72a1 1 0 0 0-1-1h-6.075a1.5 1.5 0 0 1-1.06-.439l-2.19-2.19a1 1 0 0 0-.708-.292H5.6a2 2 0 0 0-2 2v9.707l1.432-4.756a3 3 0 0 1 2.873-2.135H18.65zM17.862 20.3a2 2 0 0 0 1.971-1.66l1.18-6.855a1 1 0 0 0-.986-1.17H7.905a1 1 0 0 0-.958.713l-1.926 6.396a2 2 0 0 0 1.91 2.576h10.931z" clip-rule="evenodd"/></svg>