<svg xmlns="http://www.w3.org/2000/svg" width="16" height="16" fill="none" viewBox="0 0 16 16"><path fill="currentColor" d="M13.248 10.706c.253.61.724 1.097 1.316 1.36l.769.342v.594l-.794.353a2.55 2.55 0 0 0-1.297 1.316l-.289.662h-.573l-.29-.662a2.549 2.549 0 0 0-1.295-1.316L10 13.002v-.594l.77-.342a2.553 2.553 0 0 0 1.315-1.36l.293-.706h.578l.292.706zM5.485 1a2 2 0 0 1 1.365.537l1.432 1.337c.247.23.572.358.91.358h3.21a2.667 2.667 0 0 1 2.665 2.688l-.028 3.526a4 4 0 0 0-5.835 5.22H3.666A2.667 2.667 0 0 1 .999 12V3.667A2.667 2.667 0 0 1 3.666 1h1.82z"/></svg>