<svg xmlns="http://www.w3.org/2000/svg" width="24" height="24" fill="none" viewBox="0 0 24 24"><path fill="currentColor" d="M19.872 16.06a3.83 3.83 0 0 0 1.973 2.04l1.155.512v.89l-1.191.531a3.825 3.825 0 0 0-1.946 1.973L19.43 23h-.86l-.434-.994a3.824 3.824 0 0 0-1.944-1.973L15 19.503v-.89l1.154-.513a3.83 3.83 0 0 0 1.973-2.04l.44-1.06h.867l.438 1.06z"/><path fill="currentColor" fill-rule="evenodd" d="M8.512 1.513c.657.062 1.278.34 1.764.793l2.149 2.005c.324.302.737.487 1.175.529l.189.009h4.815a4 4 0 0 1 3.998 4.03l-.042 5.29a5.97 5.97 0 0 0-3.063-1.148l-.494-.02a6 6 0 0 0-6 6l.014.407c.063.94.344 1.82.79 2.592H5.5l-.408-.02a4.003 4.003 0 0 1-3.571-3.571L1.5 18V5.5a4.001 4.001 0 0 1 3.592-3.98L5.5 1.5h2.73l.282.013zM5.5 3.5a2.002 2.002 0 0 0-1.99 1.795L3.5 5.5V18c0 1.105.896 2 2 2.001h5.568a8 8 0 0 1 9.516-8.843l.019-2.294-.009-.205a2.001 2.001 0 0 0-1.785-1.8l-.206-.01H13.79a4.002 4.002 0 0 1-2.728-1.075l-.001-.001-2.148-2.004-.15-.116A1.003 1.003 0 0 0 8.23 3.5H5.5z" clip-rule="evenodd"/></svg>