<svg width="24" height="24" xmlns="http://www.w3.org/2000/svg" viewBox="0 0 24 24"><path d="M5 2l.075.003.126.017.089.023.107.039.103.052.097.064.028.022.082.073 3 3-1.414 1.414L6 5.415v13.17l1.293-1.292 1.414 1.414-3 3a1 1 0 01-1.32.083l-.094-.083-3-3 1.414-1.414L4 18.585V5.415L2.707 6.707 1.293 5.293l3-3a.962.962 0 01.12-.103l.109-.069.107-.05.105-.035.117-.025.06-.007L5 2zm10.175.87l1.886.012 5.884 17.039-1.89.653-1.823-5.277h-6.393l-1.898 5.288-1.882-.675 6.116-17.04zm.922 3.35l-2.54 7.077h4.984L16.097 6.22z" fill="currentColor"/></svg>