<svg xmlns="http://www.w3.org/2000/svg" width="22" height="24" fill="none" viewBox="0 0 22 24"><path fill="currentColor" d="M3.593 4.393A9.535 9.535 0 0 0 .8 11.135v-.001a.31.31 0 0 0 .31.31h7.614c1.06 0 1.92-.86 1.92-1.92V1.909a.31.31 0 0 0-.309-.309 9.535 9.535 0 0 0-6.742 2.793zM12.15 1.6a.193.193 0 0 0-.194.193l.001 7.731a1.92 1.92 0 0 0 1.92 1.92h7.73a.195.195 0 0 0 .178-.12.195.195 0 0 0 .014-.074 9.65 9.65 0 0 0-9.65-9.65zM.857 12.813a.193.193 0 0 1 .136-.057v.001h7.731c1.06 0 1.92.859 1.92 1.92v7.73a.193.193 0 0 1-.194.193A9.65 9.65 0 0 1 .8 12.949c0-.051.02-.1.057-.136zm20.795 1.782.002-.012v-.001a9.745 9.745 0 0 0 .146-1.68.146.146 0 0 0-.146-.145h-7.778a1.92 1.92 0 0 0-1.92 1.92v7.73a.193.193 0 0 0 .193.193c4.725 0 8.656-3.432 9.488-7.924l.015-.081z"/></svg>