<svg xmlns="http://www.w3.org/2000/svg" width="22" height="24" fill="none" viewBox="0 0 22 24"><path fill="currentColor" d="M7.3 11.4a1.5 1.5 0 1 0 0-3 1.5 1.5 0 0 0 0 3zm9-1.5a1.5 1.5 0 1 1-3 0 1.5 1.5 0 0 1 3 0zm-8.315 7.58a1 1 0 1 1-1.788-.893C6.815 15.35 8.31 13.7 11 13.7c2.643 0 4.342 1.601 4.985 2.887a1 1 0 1 1-1.79.894C13.838 16.766 12.774 15.7 11 15.7c-1.729 0-2.634 1.018-3.016 1.78z"/><path fill="currentColor" fill-rule="evenodd" d="M11 1C4.925 1 0 5.925 0 12s4.925 11 11 11 11-4.925 11-11S17.075 1 11 1zM2 12a9 9 0 1 1 18 0 9 9 0 0 1-18 0z" clip-rule="evenodd"/></svg>