<svg xmlns="http://www.w3.org/2000/svg" width="24" height="24" fill="none" viewBox="0 0 24 24"><path fill="currentColor" fill-rule="evenodd" d="m14.714 18.797-4.757 1.052a.6.6 0 0 1-.73-.586V4.738a.6.6 0 0 1 .73-.586l4.757 1.052a.4.4 0 0 1 .313.39v12.812a.4.4 0 0 1-.313.391zm-4.325 3.005a2.6 2.6 0 0 1-3.162-2.54V4.739A2.6 2.6 0 0 1 10.389 2.2l4.756 1.052a2.4 2.4 0 0 1 1.882 2.343v12.812a2.4 2.4 0 0 1-1.882 2.344l-4.756 1.052zm-6.49-3.95-.938-.774a.167.167 0 0 1-.061-.128V7.623c0-.043.016-.083.045-.114L3.9 6.494v11.359zm-.453 2.218c.978.807 2.454.11 2.454-1.157V5.233c0-1.358-1.661-2.017-2.592-1.027l-1.82 1.932A2.167 2.167 0 0 0 .9 7.623v9.327c0 .647.29 1.26.789 1.672l1.757 1.448zM21.039 8.863l-.939-.762v8.298l.938-.762a.167.167 0 0 0 .062-.13V8.993a.167.167 0 0 0-.062-.13zM18.1 7.051c0-1.264 1.466-1.961 2.446-1.165L22.3 7.311c.506.412.8 1.03.8 1.682v6.514c0 .653-.294 1.27-.8 1.682l-1.754 1.425c-.98.796-2.446.099-2.446-1.165V7.05z" clip-rule="evenodd"/></svg>