<svg width="24" height="24" fill="none" xmlns="http://www.w3.org/2000/svg" viewBox="0 0 24 24"><path d="M7.1 11.5v2.1H5v1.8h2.1v2.1h1.8v-2.1H11v-1.8H8.9v-2.1H7.1z" fill="currentColor"/><path fill-rule="evenodd" clip-rule="evenodd" d="M16 11.6a2.9 2.9 0 100 5.8 2.9 2.9 0 000-5.8zm-1.1 2.9a1.1 1.1 0 112.2 0 1.1 1.1 0 01-2.2 0z" fill="currentColor"/><path fill-rule="evenodd" clip-rule="evenodd" d="M16.9 1.2v2.857a.9.9 0 01-.9.9h-3.1V7.1h3.06c3.852 0 6.84 3.391 6.84 7.4s-2.988 7.4-6.84 7.4H8.04c-3.852 0-6.84-3.391-6.84-7.4s2.988-7.4 6.84-7.4h3.06V4.057a.9.9 0 01.9-.9h3.1V1.2h1.8zM8.04 8.9C5.331 8.9 3 11.33 3 14.5c0 3.17 2.331 5.6 5.04 5.6h7.92c2.71 0 5.04-2.43 5.04-5.6 0-3.17-2.33-5.6-5.04-5.6H8.04z" fill="currentColor"/></svg>