<svg width="24" height="24" fill="none" xmlns="http://www.w3.org/2000/svg" viewBox="0 0 24 24"><path fill-rule="evenodd" clip-rule="evenodd" d="M8.355 20A3.502 3.502 0 011.5 19 3.502 3.502 0 014 15.645v-7.29A3.502 3.502 0 015 1.5 3.502 3.502 0 018.355 4h7.29A3.502 3.502 0 0122.5 5 3.502 3.502 0 0120 8.355v7.29a3.502 3.502 0 01-1 6.855 3.502 3.502 0 01-3.355-2.5h-7.29zM6.5 5a1.5 1.5 0 11-3 0 1.5 1.5 0 013 0zM6 8.355A3.508 3.508 0 008.355 6h7.29A3.508 3.508 0 0018 8.355v7.29A3.508 3.508 0 0015.645 18h-7.29A3.508 3.508 0 006 15.645v-7.29zM6.5 19a1.5 1.5 0 11-3 0 1.5 1.5 0 013 0zM19 6.5a1.5 1.5 0 100-3 1.5 1.5 0 000 3zM20.5 19a1.5 1.5 0 11-3 0 1.5 1.5 0 013 0z" fill="currentColor"/></svg>