<svg xmlns="http://www.w3.org/2000/svg" width="24" height="24" fill="none" viewBox="0 0 24 24"><path fill="currentColor" fill-rule="evenodd" d="M15.606 6.37h-7.2v4.584h7.2V6.37zm-5.64 3.108V7.846h4.08v1.632h-4.08zm1.644 1.968H6.786v5.772H8.31v-.564h1.788v.564h1.512v-5.772zm-3.3 3.744v-2.268h1.788v2.268H8.31zm8.904-3.744h-4.968v5.772h1.524v-.564h1.896v.564h1.548v-5.772zM13.77 15.19v-2.268h1.896v2.268H13.77z" clip-rule="evenodd"/><path fill="currentColor" fill-rule="evenodd" d="M1 12C1 5.925 5.925 1 12 1s11 4.925 11 11-4.925 11-11 11S1 18.075 1 12zm11-9a9 9 0 0 0-9 9 9 9 0 0 0 9 9 9 9 0 0 0 9-9 9 9 0 0 0-9-9z" clip-rule="evenodd"/></svg>