<svg xmlns="http://www.w3.org/2000/svg" width="22" height="24" fill="none" viewBox="0 0 22 24"><path fill="currentColor" fill-rule="evenodd" d="M11.401 1.5c3.62 0 6.57 2.924 6.901 6.638l.018.237h.93a2.75 2.75 0 0 1 2.745 2.588l.005.162v2.292a2.75 2.75 0 0 1-2.588 2.745l-.162.005h-.917v.458a5.502 5.502 0 0 1-3.836 5.244 1.372 1.372 0 0 1-1.205.714h-2.75a1.375 1.375 0 1 1 0-2.75h2.75c.29 0 .558.09.78.243a3.665 3.665 0 0 0 2.424-3.268l.004-.183V8.833c0-2.979-2.191-5.385-4.904-5.496l-.195-.004h-.802c-2.737 0-4.992 2.337-5.095 5.289l-.004.211v7.334H2.75a2.75 2.75 0 0 1-2.745-2.589L0 13.417v-2.292A2.75 2.75 0 0 1 2.588 8.38l.162-.005h.93c.221-3.751 3.106-6.753 6.698-6.871L10.6 1.5h.802z" clip-rule="evenodd"/></svg>