<svg width="24" height="24" fill="none" xmlns="http://www.w3.org/2000/svg" viewBox="0 0 24 24"><path d="M21.192 4.32c-1.49-1.718-3.186-2.198-4.637-2.11-1.386.084-2.496.68-2.972 1.05-.34.265-.82.752-1.23 1.182a.504.504 0 01-.737.015c-.403-.416-.866-.88-1.214-1.166-.748-.67-2.002-1.095-3.33-1.042-1.388.055-2.922.632-4.19 2.062-1.861 2.098-2.33 6.107-.038 9.014 1.861 2.362 4.664 5.11 6.516 6.852a3.848 3.848 0 005.28.003c1.873-1.754 4.715-4.524 6.578-6.849.717-.895 1.31-2.406 1.45-4.01.142-1.623-.17-3.498-1.476-5.002z" fill="currentColor"/></svg>