<svg xmlns="http://www.w3.org/2000/svg" width="24" height="24" fill="none" viewBox="0 0 24 24"><path fill="currentColor" d="M16.819 4.207c-.96.058-1.721.487-1.939.657-.218.17-.627.576-1.077 1.05a2.502 2.502 0 0 1-3.623.03c-.445-.46-.87-.88-1.131-1.094l-.022-.017-.02-.019c-.3-.273-1.048-.603-2.006-.565-.91.036-1.961.406-2.882 1.444-1.288 1.452-1.696 4.489.037 6.688 1.837 2.33 4.668 5.108 6.572 6.896a1.85 1.85 0 0 0 2.074.325l1.454 1.454a3.852 3.852 0 0 1-4.897-.321c-1.909-1.793-4.837-4.658-6.774-7.116-2.353-2.985-1.871-7.101.038-9.253C3.924 2.898 5.498 2.307 6.92 2.251c1.363-.055 2.647.382 3.412 1.066.366.302.859.797 1.284 1.237a.502.502 0 0 0 .735-.015c.431-.456.942-.975 1.299-1.252.486-.38 1.625-.99 3.047-1.077 1.487-.09 3.225.401 4.756 2.164 1.338 1.542 1.66 3.466 1.514 5.134-.119 1.362-.556 2.658-1.12 3.584l-1.475-1.476a6.892 6.892 0 0 0 .602-2.282c.115-1.31-.153-2.636-1.032-3.649-1.104-1.272-2.23-1.533-3.124-1.478z"/><path fill="currentColor" d="m15.2 12.786 2.3 2.3 2.3-2.3 1.414 1.414-2.3 2.3 2.3 2.3-1.414 1.414-2.3-2.3-2.3 2.3-1.414-1.414 2.3-2.3-2.3-2.3 1.414-1.414z"/></svg>