<svg width="24" height="24" fill="none" xmlns="http://www.w3.org/2000/svg" viewBox="0 0 24 24"><path fill-rule="evenodd" clip-rule="evenodd" d="M16.819 4.207c-.96.058-1.721.487-1.939.657-.218.17-.627.576-1.077 1.05a2.502 2.502 0 01-3.623.03c-.445-.46-.87-.88-1.131-1.094l-.022-.017-.02-.019c-.3-.273-1.048-.603-2.006-.565-.91.036-1.961.406-2.882 1.444-1.288 1.452-1.696 4.489.037 6.688 1.837 2.33 4.668 5.108 6.572 6.896.72.676 1.825.677 2.548 0 1.927-1.803 4.802-4.605 6.642-6.902.444-.554.941-1.71 1.057-3.04.115-1.311-.153-2.637-1.032-3.65-1.104-1.272-2.23-1.533-3.124-1.478zm-.121-1.997c1.487-.09 3.225.401 4.756 2.164 1.338 1.542 1.66 3.466 1.514 5.134-.144 1.648-.755 3.2-1.49 4.117-1.937 2.42-4.906 5.307-6.836 7.113a3.853 3.853 0 01-5.283-.003c-1.909-1.793-4.837-4.658-6.774-7.116-2.353-2.985-1.871-7.101.038-9.253C3.924 2.898 5.498 2.307 6.92 2.251c1.363-.055 2.647.382 3.412 1.066.366.302.859.797 1.284 1.236a.502.502 0 00.735-.014c.431-.456.942-.975 1.299-1.253.486-.379 1.625-.99 3.047-1.076z" fill="currentColor"/></svg>