<svg xmlns="http://www.w3.org/2000/svg" width="20" height="24" fill="none" viewBox="0 0 20 24"><g clip-path="url(#dls-b9aad-a)"><path fill="currentColor" fill-rule="evenodd" d="M8.899 5.249c.6.62 1.584.605 2.178-.023.441-.464.901-.927 1.188-1.15.705-.55 3.799-2.082 6.433.954 1.946 2.242 1.384 5.556.42 7.327a5.5 5.5 0 0 0-7.568 7.97 2.851 2.851 0 0 1-3.507-.321C6.137 18.216 3.257 15.394 1.371 13c-2.044-2.592-1.599-6.168 0-7.97 2.222-2.506 5.248-1.923 6.31-.955.314.257.778.72 1.218 1.174zm4.301 7.537 2.3 2.3 2.3-2.3 1.415 1.414-2.3 2.3 2.3 2.3-1.415 1.414-2.3-2.3-2.3 2.3-1.414-1.414 2.3-2.3-2.3-2.3 1.414-1.414z" clip-rule="evenodd"/></g><defs><clipPath id="dls-b9aad-a"><path fill="currentColor" d="M0 0h20v24H0z"/></clipPath></defs></svg>