<svg width="21" height="24" xmlns="http://www.w3.org/2000/svg" viewBox="0 0 21 24"><path d="M18 1.5a3 3 0 013 3v15a3 3 0 01-3 3H3a3 3 0 01-3-3v-15a3 3 0 013-3h15zm0 2H3a1 1 0 00-.993.883L2 4.5v15a1 1 0 00.883.993L3 20.5h15a1 1 0 00.993-.883L19 19.5v-15a1 1 0 00-.883-.993L18 3.5zm-2.248 8.633v4.628c0 .897-.533 1.352-1.586 1.352H13.1l-.325-1.196 1.001.039c.455 0 .689-.156.689-.468v-3.185h-7.93v4.849H5.248v-6.019h10.504zm-2.561 1.69v2.808H7.835v-2.808h5.356zm-1.196 1.001H9.031v.806h2.964v-.806zm2.314-5.967v2.756H6.704V8.857h7.605zm-1.3 1.014H8.004v.728h5.005v-.728zm-2.067-3.835c.104.312.221.663.325 1.04h5.018v1.248H4.702V7.076h5.083a7.31 7.31 0 00-.364-.78z" fill="currentColor" fill-rule="evenodd"/></svg>