<svg width="16" height="16" xmlns="http://www.w3.org/2000/svg" viewBox="0 0 16 16"><path d="M9.514 1.572l.11.093L15.43 6.84l-.887.996-.545-.485.001 4.982a2.667 2.667 0 01-2.534 2.664l-.133.003h-7a2.667 2.667 0 01-2.663-2.534l-.003-.133V7.49l-.388.346-.887-.996 5.81-5.175a2.572 2.572 0 013.312-.093zm-2.34 1.019l-.084.07L3 6.302v6.03c0 .703.544 1.28 1.234 1.33l.1.004h.913l.005-.005a.425.425 0 00.407-.407l.007-.008V11.03a2.278 2.278 0 014.553-.125l.003.125-.001 2.255a.425.425 0 00.328.366l.077.01.004.005h.703c.703 0 1.28-.544 1.33-1.234l.004-.1v-6.17L8.736 2.66a1.238 1.238 0 00-1.562-.07zm.77 7.495a.945.945 0 00-.94.854L7 11.03v2.637h1.89V11.03a.945.945 0 00-.945-.945z" fill-rule="evenodd"/></svg>