<svg width="16" height="16" xmlns="http://www.w3.org/2000/svg" viewBox="0 0 16 16"><path d="M9.51 1.57l.11.1 5.81 5.17-.89 1-.54-.49v4.98c0 1.43-1.12 2.6-2.53 2.67H4.33a2.67 2.67 0 01-2.66-2.53V7.49l-.4.35-.88-1L6.2 1.66a2.57 2.57 0 013.31-.09zM7.17 2.6l-.08.07-4.1 3.64.01 6.03c0 .7.54 1.28 1.23 1.33h1.02a.43.43 0 00.4-.4l.02-.01v-2.22a2.28 2.28 0 014.55-.12v2.38a.43.43 0 00.33.36l.08.01h.7c.7 0 1.28-.54 1.33-1.23V6.16l-3.92-3.5c-.45-.4-1.1-.42-1.57-.07zm.77 7.5a.94.94 0 00-.94.85v2.73h1.89v-2.64a.94.94 0 00-.95-.94z" fill-rule="evenodd"/></svg>