<svg xmlns="http://www.w3.org/2000/svg" width="18" height="24" fill="none" viewBox="0 0 18 24"><path fill="currentColor" fill-rule="evenodd" d="m7.062 13.37 1.3-1.375-1.3-1.374L2.5 5.803V4.2a1 1 0 0 1 1-1h11a1 1 0 0 1 1 1v1.605l-4.548 4.818-1.29 1.367 1.285 1.373 4.525 4.832.01 1.599a1 1 0 0 1-1 1.006H3.5a1 1 0 0 1-1-1v-1.604l4.562-4.826zM17.5 5.805a2 2 0 0 1-.546 1.373l-4.547 4.818 4.525 4.832a2 2 0 0 1 .54 1.355l.01 1.599a3 3 0 0 1-3 3.018H3.5a3 3 0 0 1-3-3v-1.604a2 2 0 0 1 .547-1.374l4.562-4.826-4.561-4.818A2 2 0 0 1 .5 5.803V4.2a3 3 0 0 1 3-3h11a3 3 0 0 1 3 3v1.605zM13 17.6H5v2h8v-2z" clip-rule="evenodd"/></svg>