<svg xmlns="http://www.w3.org/2000/svg" width="24" height="24" fill="none" viewBox="0 0 24 24"><path fill="currentColor" fill-rule="evenodd" d="M12 1C5.925 1 1 5.925 1 12s4.925 11 11 11 11-4.925 11-11S18.075 1 12 1zM3 12a9 9 0 0 1 9-9 9 9 0 0 1 9 9 9 9 0 0 1-9 9 9 9 0 0 1-9-9zm4.931-4.782h-1.52V16.5h1.52V7.218zm5.211 0H9.749V16.5h3.393c1.508 0 2.639-.416 3.419-1.248.741-.793 1.118-1.924 1.118-3.393 0-1.482-.377-2.613-1.118-3.393-.78-.832-1.911-1.248-3.419-1.248zM11.27 15.2V8.518h1.586c1.157 0 2.002.26 2.535.793.52.52.78 1.378.78 2.548 0 1.144-.26 1.989-.78 2.535-.533.533-1.378.806-2.535.806H11.27z" clip-rule="evenodd"/></svg>