<svg xmlns="http://www.w3.org/2000/svg" width="40" height="40" fill="none" viewBox="0 0 40 40"><path fill="currentColor" fill-rule="evenodd" d="M31.7 16.893a4.69 4.69 0 0 1-2.173 3.96 7.253 7.253 0 0 1 4.673 6.779h-2a5.25 5.25 0 1 0-10.5 0h-2a7.253 7.253 0 0 1 4.745-6.806 4.693 4.693 0 1 1 7.255-3.933zM27.006 14.2a2.693 2.693 0 1 0 0 5.386 2.693 2.693 0 0 0 0-5.386z" clip-rule="evenodd"/><path fill="currentColor" d="M6.7 13.7v2h12.5v-2H6.7zm0 5.8h10v2h-10v-2zm0 5.8v2h7.5v-2H6.7z"/><path fill="currentColor" fill-rule="evenodd" d="M8.5 5.3a7.2 7.2 0 0 0-7.2 7.2v15a7.2 7.2 0 0 0 7.2 7.2h23a7.2 7.2 0 0 0 7.2-7.2v-15a7.2 7.2 0 0 0-7.2-7.2h-23zm-4.8 7.2a4.8 4.8 0 0 1 4.8-4.8h23a4.8 4.8 0 0 1 4.8 4.8v15a4.8 4.8 0 0 1-4.8 4.8h-23a4.8 4.8 0 0 1-4.8-4.8v-15z" clip-rule="evenodd"/></svg>