<svg xmlns="http://www.w3.org/2000/svg" width="24" height="24" fill="none" viewBox="0 0 24 24"><path fill="currentColor" fill-rule="evenodd" d="M4 3a4 4 0 0 0-4 4v10a4 4 0 0 0 4 4h16a4 4 0 0 0 4-4V7a4 4 0 0 0-4-4H4zm15.571 6.45c0-1.353-1.15-2.45-2.57-2.45-1.421 0-2.572 1.097-2.572 2.45 0 1.353 1.15 2.45 2.571 2.45 1.42 0 2.571-1.097 2.571-2.45zm-6.714 6.861h8v-1.089c0-1.503-1.279-2.722-2.857-2.722h-2.286c-1.578 0-2.857 1.219-2.857 2.722v1.09zM12 8H4v2h8V8zm-8 5h6v2H4v-2z" clip-rule="evenodd"/></svg>