<svg width="40" height="40" fill="none" xmlns="http://www.w3.org/2000/svg" viewBox="0 0 40 40"><path d="M33.3 19.4h-11v2h11v-2zm0-3.4v-2h-9v2h9zm0 9h-8.857v2H33.3v-2z" fill="currentColor"/><path fill-rule="evenodd" clip-rule="evenodd" d="M14.004 14.656a2.96 2.96 0 100 5.92 2.96 2.96 0 000-5.92zm-1.36 2.96a1.36 1.36 0 112.72 0 1.36 1.36 0 01-2.72 0z" fill="currentColor"/><path fill-rule="evenodd" clip-rule="evenodd" d="M21.233 25.733l-1.98-3.96a6.62 6.62 0 10-10.52-.17l-2.066 4.13a1.5 1.5 0 001.342 2.171h11.882a1.5 1.5 0 001.342-2.17zm-12.415.171l1.415-2.83a6.59 6.59 0 003.825 1.216 6.589 6.589 0 003.664-1.106l1.36 2.72H8.818zm5.24-12.954a4.72 4.72 0 100 9.44 4.72 4.72 0 000-9.44z" fill="currentColor"/><path fill-rule="evenodd" clip-rule="evenodd" d="M1.3 12.5a7.2 7.2 0 017.2-7.2h23a7.2 7.2 0 017.2 7.2v15a7.2 7.2 0 01-7.2 7.2h-23a7.2 7.2 0 01-7.2-7.2v-15zm7.2-4.8a4.8 4.8 0 00-4.8 4.8v15a4.8 4.8 0 004.8 4.8h23a4.8 4.8 0 004.8-4.8v-15a4.8 4.8 0 00-4.8-4.8h-23z" fill="currentColor"/></svg>