<svg xmlns="http://www.w3.org/2000/svg" width="24" height="24" fill="none" viewBox="0 0 24 24"><path fill="currentColor" fill-rule="evenodd" d="M5.59 2C3.333 2 1.5 3.79 1.5 6v8c0 2.21 1.832 4 4.09 4h12.82c2.258 0 4.09-1.79 4.09-4V6c0-2.21-1.832-4-4.09-4H5.59zm.6 12.391 1.744-2.867a.829.829 0 0 1 1.348-.084L10.527 13a.829.829 0 0 0 1.34-.072l2.17-3.436a.828.828 0 0 1 1.39-.006l4.147 4.888c.343.532-.049 1.226-.692 1.226H6.893c-.635 0-1.028-.676-.703-1.209zM9.546 6c0 .884-.733 1.6-1.637 1.6S6.273 6.884 6.273 6c0-.884.732-1.6 1.636-1.6.904 0 1.637.716 1.637 1.6zm11.356 15.7h-17.8v-1.8h17.8v1.8z" clip-rule="evenodd"/></svg>