<svg width="40" height="40" fill="none" xmlns="http://www.w3.org/2000/svg" viewBox="0 0 40 40"><path d="M31.277 1.845v4.432h-4.432v2.4h4.432V13.2h2.4V8.677H38.2v-2.4h-4.523V1.845h-2.4z" fill="currentColor"/><path d="M4.2 11A4.8 4.8 0 019 6.2h13.5V3.8H9A7.2 7.2 0 001.8 11v18A7.2 7.2 0 009 36.2h22a7.2 7.2 0 007.2-7.2V17h-2.4v12a4.8 4.8 0 01-4.8 4.8H9A4.8 4.8 0 014.2 29V11z" fill="currentColor"/><path d="M14.522 22.99a.567.567 0 01.864-.023l6.13 6.866 1.642-1.466-3.391-3.797 4.618-5.747a.567.567 0 01.864-.023l6.13 6.866L33.02 24.2l-6.13-6.866a2.767 2.767 0 00-4.22.11l-4.389 5.46-1.254-1.404a2.767 2.767 0 00-4.22.11l-5.464 6.8 1.715 1.378 5.464-6.8z" fill="currentColor"/><path fill-rule="evenodd" clip-rule="evenodd" d="M13 9.9a4.1 4.1 0 100 8.2 4.1 4.1 0 000-8.2zM11.1 14a1.9 1.9 0 113.8 0 1.9 1.9 0 01-3.8 0z" fill="currentColor"/></svg>