<svg xmlns="http://www.w3.org/2000/svg" width="24" height="24" fill="none" viewBox="0 0 24 24"><path stroke="currentColor" stroke-linecap="round" stroke-width="2" d="M13.713 3.5h-3.692c-2.217 0-4.512 0-5.359.412-.745.362-1.35.94-1.73 1.65C2.5 6.37 2.5 7.43 2.5 9.544v4.912c0 2.115 0 3.174.433 3.98a3.86 3.86 0 0 0 1.73 1.652c.846.412 3.141.412 5.358.412h5.872c1.535 0 2.303 0 2.92-.2a3.99 3.99 0 0 0 1.527-.907c.43-.41.755-.908.95-1.457.21-.59.21-2.78.21-4.245 0-.922 0-1.384-.143-1.671a1.445 1.445 0 0 0-.622-.632 1.543 1.543 0 0 0-.89-.168c-.333.036-.742.28-1.561.77l-2.831 1.687a3.2 3.2 0 0 1-3.58-.211 3.185 3.185 0 0 0-2.166-.651 3.144 3.144 0 0 0-2.046.94l-1.004 1.038"/><path fill="currentColor" stroke="currentColor" stroke-width="1.373" d="M18.528 3.018c.004-.024.04-.024.044 0a3.22 3.22 0 0 0 2.51 2.51c.024.004.024.04 0 .045a3.22 3.22 0 0 0-2.51 2.509c-.004.024-.04.024-.045 0a3.22 3.22 0 0 0-2.509-2.51c-.024-.004-.024-.04 0-.044a3.22 3.22 0 0 0 2.51-2.51z"/><path fill="currentColor" fill-rule="evenodd" d="M8 6.5a1.5 1.5 0 1 1 0 3 1.5 1.5 0 0 1 0-3z" clip-rule="evenodd"/></svg>