<svg xmlns="http://www.w3.org/2000/svg" width="24" height="24" fill="none" viewBox="0 0 24 24"><path fill="currentColor" fill-rule="evenodd" d="M2 6.324A4.324 4.324 0 0 1 6.324 2h10.352A4.324 4.324 0 0 1 21 6.324v3.835l.019.01v1.896L21 12.053v.007a6.179 6.179 0 0 0-2.92-.853 5.721 5.721 0 0 0-.385.018c-1.453 0-2.886.642-3.949 1.524-.33.291-.63.617-.894.972a4.508 4.508 0 0 0-.011-.031l-.078.106.016.026c-.3.423-.55.886-.738 1.379a6.903 6.903 0 0 0-.383 2.3c0 .626.095 1.23.272 1.797h-.005A6.19 6.19 0 0 0 12.772 21H6.324A4.324 4.324 0 0 1 2 16.676V11.75c1.735-.279 4.645-.273 6.897.778.711.332 1.285.617 1.78 1.027.272-.483.592-.934.954-1.348a9.607 9.607 0 0 0-2.003-1.247C6.978 9.724 3.97 9.67 2 9.985v-3.66zm11.858 1.314c0-1.01.83-1.813 1.834-1.813s1.833.803 1.833 1.813c0 1.01-.83 1.814-1.833 1.814a1.824 1.824 0 0 1-1.834-1.814zm4.548 13.641.436-.999a3.847 3.847 0 0 1 1.958-1.983l1.2-.533v-.894l-1.163-.516a3.849 3.849 0 0 1-1.986-2.05l-.442-1.064h-.873l-.442 1.064a3.85 3.85 0 0 1-1.986 2.05l-1.163.516v.894l1.2.533a3.846 3.846 0 0 1 1.958 1.983l.436 1h.867z" clip-rule="evenodd"/></svg>