<svg xmlns="http://www.w3.org/2000/svg" width="24" height="24" fill="none" viewBox="0 0 24 24"><path fill="currentColor" fill-rule="evenodd" d="M18.185 1.83v-1h2v2.955H23.2v2h-3.015V8.8h-2V5.785H15.23v-2h2.955V1.83zM6 4a3 3 0 0 0-3 3v9.413l2.607-2.867a2 2 0 0 1 2.781-.173l2.022 1.732 3.059-3.398a2 2 0 0 1 3.048.088l4.46 5.576c.015-.122.023-.245.023-.371v-6h2v6a5 5 0 0 1-5 5H6a5 5 0 0 1-5-5V7a5 5 0 0 1 5-5h7v2H6zm0 16c-1 0-1.885-.489-2.43-1.24l3.517-3.869 2.021 1.733a2 2 0 0 0 2.788-.18l3.06-3.4 4.99 6.24A2.988 2.988 0 0 1 18 20H6zM7 8.4a.8.8 0 1 1 1.6 0 .8.8 0 0 1-1.6 0zm.8-2.8a2.8 2.8 0 1 0 0 5.6 2.8 2.8 0 0 0 0-5.6z" clip-rule="evenodd"/></svg>