<svg width="14" height="16" xmlns="http://www.w3.org/2000/svg" viewBox="0 0 14 16"><path d="M11.95 1C13.08 1 14 1.9 14 3.02v9.96c0 1.12-.92 2.02-2.05 2.02h-9.9C.92 15 0 14.1 0 12.98V3.02C0 1.9.92 1 2.05 1h9.9zM1.36 8.01v4.97c0 .35.27.63.6.67h6.2A6.1 6.1 0 005.7 9.32a6 6 0 00-3.2-1.25 8.6 8.6 0 00-1.15-.05zm10.6-5.67H2.04a.68.68 0 00-.68.6v3.42a.4.4 0 00.31.3c.3 0 .63.03.98.07 1.48.16 2.84.64 3.93 1.55a7.48 7.48 0 012.89 5c0 .1.04.19.12.26a.4.4 0 00.27.12h2.08c.35 0 .64-.26.68-.6V3.02a.68.68 0 00-.6-.67h-.08zM9.21 3.56a2 2 0 012.02 1.99 2 2 0 01-2.02 1.99 2 2 0 01-2.02-2 2 2 0 012.02-1.98zm0 1.34a.65.65 0 00-.66.65.66.66 0 001.31 0 .65.65 0 00-.65-.65z" fill-rule="evenodd"/></svg>