<svg xmlns="http://www.w3.org/2000/svg" width="40" height="40" fill="none" viewBox="0 0 40 40"><path fill="currentColor" d="M31.277 1.845v4.432h-4.432v2.4h4.432V13.2h2.4V8.677H38.2v-2.4h-4.523V1.845h-2.4z"/><path fill="currentColor" d="M4.2 11A4.8 4.8 0 0 1 9 6.2h13.5V3.8H9A7.2 7.2 0 0 0 1.8 11v18A7.2 7.2 0 0 0 9 36.2h22a7.2 7.2 0 0 0 7.2-7.2V17h-2.4v12a4.8 4.8 0 0 1-4.8 4.8H9A4.8 4.8 0 0 1 4.2 29V11z"/><path fill="currentColor" d="M14.522 22.99a.567.567 0 0 1 .864-.023l6.13 6.866 1.642-1.466-3.391-3.797 4.618-5.747a.567.567 0 0 1 .864-.023l6.13 6.866L33.02 24.2l-6.13-6.866a2.767 2.767 0 0 0-4.22.11l-4.389 5.46-1.254-1.404a2.767 2.767 0 0 0-4.22.11l-5.464 6.8 1.715 1.378 5.464-6.8z"/><path fill="currentColor" fill-rule="evenodd" d="M13 9.9a4.1 4.1 0 1 0 0 8.2 4.1 4.1 0 0 0 0-8.2zM11.1 14a1.9 1.9 0 1 1 3.8 0 1.9 1.9 0 0 1-3.8 0z" clip-rule="evenodd"/></svg>