<svg width="14" height="16" xmlns="http://www.w3.org/2000/svg" viewBox="0 0 14 16"><path d="M11.953 1C13.083 1 14 1.902 14 3.015v9.97C14 14.098 13.084 15 11.953 15H2.047C.917 15 0 14.098 0 12.985v-9.97C0 1.902.916 1 2.047 1h9.906zM1.363 8.01l.002 4.975c0 .344.263.628.602.667l.08.005h6.096c-.116-1.656-.915-3.095-2.429-4.35-.86-.713-1.971-1.107-3.21-1.246a8.608 8.608 0 00-1.14-.051zm10.59-5.667H2.047a.68.68 0 00-.678.594l-.004.078v3.301l.006.047a.401.401 0 00.311.3c.295.005.624.024.977.063 1.484.166 2.843.649 3.934 1.554 1.704 1.413 2.675 3.087 2.886 4.996l.002.002a.39.39 0 00.117.264c.075.073.17.111.268.115h2.087a.68.68 0 00.678-.594l.004-.078v-9.97a.676.676 0 00-.602-.667l-.08-.005zM9.218 3.56c1.116 0 2.021.891 2.021 1.99 0 1.1-.905 1.99-2.021 1.99-1.117 0-2.022-.89-2.022-1.99 0-1.099.905-1.99 2.022-1.99zm0 1.344a.652.652 0 00-.657.646c0 .358.294.647.657.647.362 0 .657-.29.657-.647a.652.652 0 00-.657-.646z" fill-rule="evenodd"/></svg>