<svg width="24" height="24" fill="none" xmlns="http://www.w3.org/2000/svg" viewBox="0 0 24 24"><path fill-rule="evenodd" clip-rule="evenodd" d="M13.5 8.369c0-1.598 1.312-2.869 2.9-2.869 1.588 0 2.9 1.271 2.9 2.869 0 1.598-1.312 2.869-2.9 2.869-1.588 0-2.9-1.271-2.9-2.869zM16.4 7.3c-.62 0-1.1.492-1.1 1.069s.48 1.069 1.1 1.069c.62 0 1.1-.492 1.1-1.069S17.02 7.3 16.4 7.3z" fill="currentColor"/><path fill-rule="evenodd" clip-rule="evenodd" d="M1 7a5 5 0 015-5h12a5 5 0 015 5v10a5 5 0 01-5 5H6a5 5 0 01-5-5V7zm5-3a3 3 0 00-3 3v3.954a16.982 16.982 0 012.632.052c1.806.179 4.168.72 6.026 2.26a11.921 11.921 0 013.759 5.565c.135.422.237.815.313 1.169H18a3 3 0 003-3V7a3 3 0 00-3-3H6zm7.675 16a9.921 9.921 0 00-3.294-5.194c-1.412-1.171-3.31-1.648-4.946-1.81A14.982 14.982 0 003 12.958V17a3 3 0 003 3h7.675z" fill="currentColor"/></svg>