<svg xmlns="http://www.w3.org/2000/svg" width="24" height="24" fill="none" viewBox="0 0 24 24"><path fill="currentColor" fill-rule="evenodd" d="m17.561 12.539 1.101 3.048L21.5 16.77l-2.838 1.182-1.1 3.048-1.102-3.048-2.838-1.183 2.838-1.182 1.101-3.048zM16.84 3c.443 0 .802.386.802.861a.91.91 0 0 1-.123.46L8.834 19.118c-.294.5-.806.804-1.357.804H5.742c-.443 0-.802-.386-.802-.861a.91.91 0 0 1 .123-.46l8.684-14.797c.293-.5.806-.804 1.357-.804h1.735zm-11.276.803.857 2.37 2.207.92-2.207.92-.856 2.37-.857-2.37-2.207-.92 2.207-.92.856-2.37z" clip-rule="evenodd"/></svg>