<svg xmlns="http://www.w3.org/2000/svg" width="24" height="24" fill="none" viewBox="0 0 24 24"><path fill="currentColor" fill-rule="evenodd" d="M5.447 3.988a1.857 1.857 0 0 1 2.22 1.822v1.857H5.808a1.857 1.857 0 0 1-.362-3.679zm1.838-1.742a3.857 3.857 0 1 0-1.476 7.42h1.857v4.667H5.81a3.857 3.857 0 1 0 3.857 3.857v-1.857h4.667v1.858a3.857 3.857 0 1 0 3.857-3.858h-1.857V9.667h1.857a3.857 3.857 0 1 0-3.857-3.857v1.857H9.666V5.81a3.857 3.857 0 0 0-2.38-3.564zm2.381 12.087h4.667V9.667H9.666v4.666zm8.887 5.679a1.858 1.858 0 0 1-2.22-1.822v-1.857h1.857a1.858 1.858 0 0 1 .363 3.679zM17.48 4.094a1.857 1.857 0 1 1 .71 3.573h-1.857V5.81a1.857 1.857 0 0 1 1.147-1.716zM5.447 20.012a1.857 1.857 0 0 0 2.22-1.822v-1.857H5.808a1.858 1.858 0 0 0-.362 3.679z" clip-rule="evenodd"/></svg>