<svg xmlns="http://www.w3.org/2000/svg" width="22" height="24" fill="none" viewBox="0 0 22 24"><path fill="currentColor" d="M8.68 2.286a5 5 0 0 1 4.64 0l7.52 3.937c1.402.735 1.435 2.73.058 3.512l-7.43 4.215a5 5 0 0 1-4.935 0L1.102 9.735c-1.377-.781-1.344-2.777.059-3.512l7.52-3.937z"/><path fill="currentColor" d="m1.16 13.823 2.215-1.159 5.158 2.926a5 5 0 0 0 4.934 0l5.158-2.926 2.214 1.16c1.403.734 1.436 2.73.06 3.51l-7.432 4.216a5 5 0 0 1-4.934 0l-7.431-4.215c-1.377-.781-1.344-2.777.059-3.512z"/></svg>