<svg width="24" height="24" fill="none" xmlns="http://www.w3.org/2000/svg" viewBox="0 0 24 24"><path fill-rule="evenodd" clip-rule="evenodd" d="M12.637 1.694a1.5 1.5 0 00-1.274 0L2.941 5.642c-1.15.54-1.15 2.177 0 2.716l8.422 3.948c.404.19.87.19 1.274 0l8.422-3.948c1.15-.54 1.15-2.177 0-2.716l-8.422-3.948zM4.757 7L12 3.604 19.244 7 12 10.396 4.756 7z" fill="currentColor"/><path d="M11.95 14.917l9.75-4.05v2.166l-9.175 3.81a1.5 1.5 0 01-1.15 0L2.2 13.034v-2.166l9.75 4.05z" fill="currentColor"/><path d="M11.95 19.917l9.75-4.05v2.166l-9.175 3.81a1.5 1.5 0 01-1.15 0L2.2 18.034v-2.166l9.75 4.05z" fill="currentColor"/></svg>