<svg width="24" height="24" xmlns="http://www.w3.org/2000/svg" viewBox="0 0 24 24"><g fill="currentColor"><path d="M22.851 19.967l-.083.094-3 3-1.414-1.414 1.35-1.35H4.358l1.35 1.35-1.415 1.414-3-3a1 1 0 01-.083-1.32l.083-.094 3-3 1.414 1.414-1.234 1.235H19.59l-1.236-1.235 1.414-1.414 3 3a1 1 0 01.083 1.32zM8.32 2.227l-1.86.013-4.388 11.353 1.865.72 3.474-8.987 3.613 9 1.856-.745z"/><path d="M10.005 9.653a1 1 0 01.117 1.994l-.117.006H4.941a1 1 0 01-.117-1.993l.117-.007h5.064zm7.253 4.284l4.56-10.953-1.846-.769-3.62 8.694-3.476-8.681-1.857.744 4.387 10.953z"/></g></svg>