<svg width="24" height="24" fill="none" xmlns="http://www.w3.org/2000/svg" viewBox="0 0 24 24"><path fill-rule="evenodd" clip-rule="evenodd" d="M2 17V2h2v11.62l1.603-1.572a3.2 3.2 0 115.972-.431l1.03 1.03a3.185 3.185 0 011.994-.698c.456 0 .89.095 1.282.267l.757-.857a3.2 3.2 0 111.794.99l-1.06 1.2a3.2 3.2 0 11-5.875.817l-1.089-1.087a3.184 3.184 0 01-1.9.625 3.185 3.185 0 01-1.54-.394L4 16.42V17a3 3 0 003 3h14.803v2H7a5 5 0 01-5-5zm5.308-6.296a1.2 1.2 0 112.4 0 1.2 1.2 0 01-2.4 0zM14.6 13.95a1.2 1.2 0 100 2.4 1.2 1.2 0 000-2.4zm3.2-4.75a1.2 1.2 0 112.4 0 1.2 1.2 0 01-2.4 0z" fill="currentColor"/></svg>