<svg width="21" height="24" xmlns="http://www.w3.org/2000/svg" viewBox="0 0 21 24"><path d="M1.981 1.5v13.059l2.28-2.238a3.197 3.197 0 01-.44-1.411l-.009-.229a3.2 3.2 0 013.192-3.207 3.2 3.2 0 013.193 3.207c0 .29-.039.571-.11.839l1.247 1.143a3.171 3.171 0 012.07-.766c.373 0 .73.064 1.063.182l.822-.924a3.202 3.202 0 01-.673-1.97 3.2 3.2 0 013.192-3.207A3.2 3.2 0 0121 9.184a3.2 3.2 0 01-4.05 3.09l-.908 1.022c.35.515.555 1.137.555 1.808a3.2 3.2 0 01-3.192 3.206 3.2 3.2 0 01-3.193-3.206c0-.242.027-.477.078-.704l-1.31-1.2a3.17 3.17 0 01-1.976.687 3.17 3.17 0 01-1.245-.253l-3.778 3.708v1.178c0 1.049.808 1.908 1.834 1.984l.148.006h17.015v1.99H3.963a3.97 3.97 0 01-3.958-3.782L0 18.52V1.5h1.981zm11.424 12.387c-.67 0-1.211.545-1.211 1.217s.542 1.216 1.21 1.216c.67 0 1.212-.544 1.212-1.216 0-.672-.543-1.217-1.211-1.217zm-6.4-4.422c-.67 0-1.212.544-1.212 1.216 0 .672.543 1.216 1.211 1.216.67 0 1.211-.544 1.211-1.216 0-.672-.542-1.216-1.21-1.216zm10.803-1.497c-.669 0-1.211.545-1.211 1.216 0 .672.542 1.217 1.21 1.217.67 0 1.212-.545 1.212-1.217 0-.671-.542-1.216-1.211-1.216z" fill="currentColor" fill-rule="evenodd"/></svg>