<svg xmlns="http://www.w3.org/2000/svg" width="24" height="24" fill="none" viewBox="0 0 24 24"><path fill="currentColor" d="M19.316 4.58a4.194 4.194 0 0 0-5.932 0L10.3 7.665 8.885 6.251l3.085-3.085a6.194 6.194 0 1 1 8.76 8.76l-3.085 3.085-1.415-1.414 3.086-3.085a4.194 4.194 0 0 0 0-5.932zM4.466 19.43a4.194 4.194 0 0 0 5.932 0l3.085-3.086 1.414 1.414-3.085 3.085a6.194 6.194 0 1 1-8.76-8.76l3.085-3.085 1.415 1.415-3.086 3.085a4.194 4.194 0 0 0 0 5.931z"/><path fill="currentColor" d="M15.057 7.622 7.149 15.53l1.414 1.414 7.908-7.908-1.414-1.414z"/></svg>