<svg xmlns="http://www.w3.org/2000/svg" width="24" height="24" fill="none" viewBox="0 0 24 24"><path fill="currentColor" d="M2.3 6.1a4 4 0 0 1 4-4h5.6a4 4 0 0 1 4 4v6.6a3 3 0 0 1-3 3h-.8v-2h.8a1 1 0 0 0 1-1V6.1a2 2 0 0 0-2-2H6.3a2 2 0 0 0-2 2v5.6a2 2 0 0 0 1.8 1.99v2.005A4 4 0 0 1 2.3 11.7V6.1z"/><path fill="currentColor" d="M21.7 18a4 4 0 0 1-4 4h-5.6a4 4 0 0 1-4-4v-5.6a4 4 0 0 1 3.8-3.995v2.005a2 2 0 0 0-1.8 1.99V18a2 2 0 0 0 2 2h5.6a2 2 0 0 0 2-2v-5.6a2 2 0 0 0-1.8-1.99V8.405a4 4 0 0 1 3.8 3.995V18z"/></svg>