<svg width="24" height="24" xmlns="http://www.w3.org/2000/svg" viewBox="0 0 24 24"><path d="M12.329 7.667v2H10.57a.905.905 0 00-.892.758l-.012.146v9.524c0 .45.328.823.758.893l.146.012h9.524c.45 0 .823-.328.893-.758l.012-.147v-9.524a.905.905 0 00-.758-.892l-.147-.012H18.3v-2h1.795c1.528 0 2.78 1.18 2.896 2.677l.009.227v9.524c0 1.528-1.18 2.78-2.678 2.896l-.227.009h-9.524a2.905 2.905 0 01-2.896-2.678l-.008-.227v-9.524c0-1.527 1.18-2.78 2.677-2.896l.227-.008h1.758zM13.429 1c1.527 0 2.78 1.18 2.896 2.678l.008.227v9.524c0 1.527-1.18 2.78-2.677 2.896l-.227.008H11.7v-2h1.728c.45 0 .822-.328.892-.758l.012-.146V3.905a.905.905 0 00-.758-.893L13.43 3H3.905a.905.905 0 00-.893.758L3 3.905v9.524c0 .45.328.822.758.892l.147.012H5.66v2H3.905a2.905 2.905 0 01-2.896-2.677L1 13.429V3.905c0-1.528 1.18-2.78 2.678-2.896L3.905 1h9.524z" fill-rule="evenodd"/></svg>