<svg width="24" height="24" fill="none" xmlns="http://www.w3.org/2000/svg" viewBox="0 0 24 24"><g clip-path="url(#clip0_338:12786)" fill-rule="evenodd" clip-rule="evenodd" fill="currentColor"><path d="M19.316 4.58a4.194 4.194 0 00-5.932 0L10.3 7.665 8.885 6.251l3.085-3.085a6.194 6.194 0 118.76 8.76l-3.085 3.085-1.415-1.414 3.086-3.085a4.194 4.194 0 000-5.932zM4.467 19.43a4.194 4.194 0 005.931 0l3.085-3.086 1.415 1.414-3.086 3.085a6.194 6.194 0 11-8.76-8.76l3.086-3.085 1.414 1.415-3.085 3.085a4.194 4.194 0 000 5.931z"/><path d="M7.149 15.53l7.908-7.909 1.414 1.415-7.908 7.908-1.415-1.414z"/></g><defs><clipPath id="clip0_338:12786"><path fill="currentColor" d="M0 0h24v24H0z"/></clipPath></defs></svg>