<svg xmlns="http://www.w3.org/2000/svg" width="22" height="24" fill="none" viewBox="0 0 22 24"><path fill="currentColor" d="M.8 6.1a4.5 4.5 0 0 1 4.5-4.5h5.6a4.5 4.5 0 0 1 4.5 4.5v6.6a3.5 3.5 0 0 1-3.5 3.5h-.8v-3h.8a.5.5 0 0 0 .5-.5V6.1a1.5 1.5 0 0 0-1.5-1.5H5.3a1.5 1.5 0 0 0-1.5 1.5v5.6a1.5 1.5 0 0 0 1.3 1.487v3.009A4.5 4.5 0 0 1 .8 11.7V6.1z"/><path fill="currentColor" d="M21.2 18a4.5 4.5 0 0 1-4.5 4.5h-5.6A4.5 4.5 0 0 1 6.6 18v-5.6a4.5 4.5 0 0 1 4.3-4.496v3.01A1.5 1.5 0 0 0 9.6 12.4V18a1.5 1.5 0 0 0 1.5 1.5h5.6a1.5 1.5 0 0 0 1.5-1.5v-5.6a1.5 1.5 0 0 0-1.3-1.487V7.904a4.5 4.5 0 0 1 4.3 4.496V18z"/></svg>