<svg xmlns="http://www.w3.org/2000/svg" width="24" height="24" fill="none" viewBox="0 0 24 24"><path fill="currentColor" d="M3.075 4.038V7.3H4.26V2.4h-1l-1 .888v1.486l.815-.736zM7 3.5h15v2H7v-2zM7 11v2h15v-2H7zm0 7.5v2h15v-2H7zm-4.922-4.2v-.954l1.711-2.079a.95.95 0 0 0 .13-.203.474.474 0 0 0 .031-.178c0-.133-.036-.212-.085-.267-.038-.043-.102-.081-.239-.081a.47.47 0 0 0-.144.022.27.27 0 0 0-.093.051.304.304 0 0 0-.063.1.483.483 0 0 0-.03.187v.3H2.084v-.3c0-.214.036-.417.112-.605l.002-.003c.078-.186.186-.35.326-.484l.004-.004a1.645 1.645 0 0 1 1.098-.41c.215 0 .418.033.608.102a1.38 1.38 0 0 1 .816.787c.077.19.112.394.112.611 0 .224-.04.434-.134.62l-.001.003c-.08.157-.194.321-.335.491l-.937 1.148h1.407V14.3H2.078zm1.866 3.598c0 .14-.036.222-.081.275-.027.03-.094.073-.267.073h-.402v1.134h.402c.19 0 .272.05.311.094l.007.007c.053.054.096.142.096.301 0 .166-.046.254-.102.308-.07.062-.16.1-.294.1a.635.635 0 0 1-.174-.024.322.322 0 0 1-.103-.053.515.515 0 0 1-.087-.116.429.429 0 0 1-.032-.165l-.01-.29H2l.006.306c.005.24.049.464.143.663l.002.005c.093.186.216.346.37.475l.005.003c.15.12.32.21.505.268l.01.003a2.1 2.1 0 0 0 .573.077c.209 0 .409-.03.598-.093a1.44 1.44 0 0 0 .518-.294c.155-.134.273-.3.358-.492.092-.202.134-.425.134-.663 0-.303-.062-.58-.212-.807a1.294 1.294 0 0 0-.174-.212c.048-.053.092-.11.13-.172.133-.21.19-.46.19-.729a1.47 1.47 0 0 0-.12-.597 1.342 1.342 0 0 0-.326-.477 1.362 1.362 0 0 0-.491-.31 1.646 1.646 0 0 0-.605-.11 1.645 1.645 0 0 0-1.07.388 1.432 1.432 0 0 0-.341.462 1.557 1.557 0 0 0-.143.6l-.014.314h1.202l.023-.275c.011-.137.053-.213.101-.259.045-.043.114-.078.242-.078a.33.33 0 0 1 .24.087l.003.004c.044.04.087.111.087.269z"/></svg>