<svg xmlns="http://www.w3.org/2000/svg" width="20" height="24" fill="none" viewBox="0 0 20 24"><path fill="currentColor" d="M7.802 10.6a2.198 2.198 0 1 1 4.396 0 2.198 2.198 0 0 1-4.396 0z"/><path fill="currentColor" fill-rule="evenodd" d="M.3 10.37C.3 5.159 4.68 1 10 1c5.32 0 9.7 4.159 9.7 9.37 0 2.395-.799 4.457-2.39 6.65-.905 1.246-2.951 3.43-4.492 5.03a3.906 3.906 0 0 1-5.636 0c-1.54-1.6-3.587-3.784-4.491-5.03C1.099 14.828.3 12.766.3 10.37zM10 6.398a4.202 4.202 0 1 0 0 8.404 4.202 4.202 0 0 0 0-8.404z" clip-rule="evenodd"/></svg>