<svg width="21" height="24" xmlns="http://www.w3.org/2000/svg" viewBox="0 0 21 24"><path d="M8.124 1.075c4.484 0 8.123 3.756 8.123 8.396 0 4.396-2.415 8.815-7.16 13.268a.946.946 0 01-1.235.06C2.652 18.774 0 14.324 0 9.471c0-4.638 3.64-8.396 8.124-8.396zM14.382 1C18.16 1 21 4.376 21 8.221c0 3.735-1.792 8.743-4.828 12.539l-.297.363-1.47-1.342c2.906-3.467 4.642-8.202 4.642-11.56 0-2.701-1.921-5.056-4.458-5.178l-.207-.005V1zM8.124 3.113c-3.41 0-6.17 2.85-6.17 6.358 0 3.917 2.087 7.619 6.352 11.125l.07.056.434-.433c3.57-3.628 5.376-7.112 5.48-10.445l.004-.303c0-3.509-2.76-6.358-6.17-6.358zm0 2.933c2.118 0 3.835 1.792 3.835 4.003 0 2.21-1.717 4.002-3.835 4.002-2.119 0-3.836-1.792-3.836-4.002s1.717-4.003 3.836-4.003zm0 2.039c-1.04 0-1.882.879-1.882 1.964 0 1.084.842 1.963 1.882 1.963s1.882-.879 1.882-1.963c0-1.085-.843-1.964-1.882-1.964z" fill-rule="evenodd"/></svg>