<svg width="24" height="24" xmlns="http://www.w3.org/2000/svg" viewBox="0 0 24 24"><path d="M12.038.998a9.54 9.54 0 019.54 9.54c0 2.452-.932 4.759-2.502 6.439l-.284.29-3.765 4.627a3.866 3.866 0 01-5.817.208l-.171-.194-4.074-4.968A9.54 9.54 0 0112.037.998zm0 2.004a7.535 7.535 0 00-5.803 12.342l.248.287 4.106 5.005a1.861 1.861 0 002.747.144l.136-.15 3.84-4.712a7.535 7.535 0 00-5.275-12.916zm0 3.1a4.388 4.388 0 110 8.776 4.388 4.388 0 010-8.777zm0 2.004a2.384 2.384 0 100 4.767 2.384 2.384 0 000-4.767z" fill-rule="evenodd"/></svg>