<svg width="24" height="24" fill="none" xmlns="http://www.w3.org/2000/svg" viewBox="0 0 24 24"><path fill-rule="evenodd" clip-rule="evenodd" d="M2 4a2 2 0 012-2h16a2 2 0 012 2v2a2 2 0 01-2 2H4a2 2 0 01-2-2V4zm18 0H4v2h16V4z" fill="currentColor"/><path d="M4 9v8a3 3 0 003 3h10a3 3 0 003-3V9h2v8a5 5 0 01-5 5H7a5 5 0 01-5-5V9h2z" fill="currentColor"/><path fill-rule="evenodd" clip-rule="evenodd" d="M11.037 10.38A1.3 1.3 0 009 11.45v5.1a1.3 1.3 0 002.037 1.07l3.708-2.549a1.3 1.3 0 000-2.142l-3.708-2.55zM13.479 14L10.6 15.98v-3.96L13.479 14z" fill="currentColor"/></svg>