<svg xmlns="http://www.w3.org/2000/svg" width="22" height="24" fill="none" viewBox="0 0 22 24"><path fill="currentColor" d="M10.539 8.79v1.828h2.16a48.616 48.616 0 0 1-.091-2.19c-.644.124-1.337.248-2.07.363z"/><path fill="currentColor" fill-rule="evenodd" d="M5.5 1.5a5 5 0 0 0-5 5v11a5 5 0 0 0 5 5h11a5 5 0 0 0 5-5v-11a5 5 0 0 0-5-5h-11zm2.159 4.353 1.51.715-.042.126c-.31.945-.698 1.852-1.188 2.722v8.912H6.313v-6.553c-.275.33-.564.653-.859.968l-.176.188-.543-1.757.055-.063c1.26-1.44 2.199-3.137 2.817-5.094l.052-.164zm7.951.227.918 1.336-.19.063c-.613.2-1.319.399-2.119.598.014.964.048 1.811.094 2.541h2.583v1.587H14.44c.037.392.084.723.151 1.012l.002.007c.207 1.13.425 1.917.661 2.377l.003.004a4.035 4.035 0 0 0 .329.586 3.87 3.87 0 0 0 .051-.277c.05-.318.101-.798.153-1.44l.019-.23 1.411.77-.013.103c-.131.972-.299 1.716-.506 2.22-.104.251-.22.453-.356.593-.137.143-.299.229-.483.229-.522 0-1.017-.41-1.5-1.09-.499-.7-.907-1.803-1.246-3.264a16.39 16.39 0 0 1-.272-1.6h-2.305v3.647c.215-.098.428-.198.64-.304l.178-.089.04.213 1.088-.78.088.112c.706.889 1.244 1.688 1.626 2.373l.066.119-1.263.874-.08-.146a24.642 24.642 0 0 0-1.484-2.338l.2 1.06-.116.046c-.743.287-1.604.6-2.594.925l-.146.048-.438-1.445.14-.045a.68.68 0 0 0 .338-.212.52.52 0 0 0 .104-.334V7.506l.128-.02c2.713-.402 4.862-.855 6.45-1.372l.106-.034z" clip-rule="evenodd"/></svg>