<svg width="21" height="24" xmlns="http://www.w3.org/2000/svg" viewBox="0 0 21 24"><path d="M18 1.5a3 3 0 013 3v15a3 3 0 01-3 3H3a3 3 0 01-3-3v-15a3 3 0 013-3h15zm0 2H3a1 1 0 00-.993.883L2 4.5v15a1 1 0 00.883.993L3 20.5h15a1 1 0 00.993-.883L19 19.5v-15a1 1 0 00-.883-.993L18 3.5zM7.25 6.062l1.235.585a14.992 14.992 0 01-1.196 2.73v8.801H5.963v-6.825c-.351.442-.728.871-1.118 1.287l-.442-1.43C5.677 9.754 6.626 8.038 7.25 6.062zm4.706 9.035c.702.884 1.235 1.677 1.612 2.353l-1.014.702c-.39-.715-.897-1.508-1.521-2.392zm3.094-8.84l.741 1.079a31.49 31.49 0 01-2.223.624 52.81 52.81 0 00.104 2.808h2.574v1.287h-2.47c.039.468.091.858.169 1.196.208 1.131.429 1.937.676 2.418.234.494.416.754.52.754.091 0 .195-.65.299-1.937l1.118.611c-.26 1.937-.663 2.912-1.196 2.912-.442 0-.897-.351-1.378-1.027-.481-.676-.884-1.755-1.222-3.211a16.823 16.823 0 01-.286-1.716H9.889v4.03c.286-.13.572-.26.858-.403l.221 1.17c-.741.286-1.599.598-2.587.923l-.351-1.157c.364-.117.546-.351.546-.689V7.635c2.717-.403 4.875-.858 6.474-1.378zm-2.795 1.989c-.728.143-1.521.286-2.366.416v2.106h2.47a48.453 48.453 0 01-.104-2.522z" fill="currentColor" fill-rule="evenodd"/></svg>