<svg xmlns="http://www.w3.org/2000/svg" width="24" height="24" fill="none" viewBox="0 0 24 24"><path fill="currentColor" d="M3.254 5.772c-.576-1.593.967-3.135 2.56-2.56l4.335 1.565 3.634-2.67c1.312-.965 3.165-.041 3.185 1.586l.058 4.709 3.87 2.784c1.355.976.99 3.084-.615 3.546l-4.276 1.231-1.231 4.276c-.462 1.604-2.57 1.97-3.546.615l-2.784-3.87-4.709-.058c-1.628-.02-2.55-1.873-1.587-3.185l2.671-3.634-1.565-4.335z"/><path fill="currentColor" d="m20.5 21.914-4.007-4.007 1.414-1.414 4.007 4.007-1.414 1.414z"/></svg>