<svg width="24" height="24" fill="none" xmlns="http://www.w3.org/2000/svg" viewBox="0 0 24 24"><g clip-path="url(#clip0_544:12627)" fill-rule="evenodd" clip-rule="evenodd" fill="currentColor"><path d="M3.254 5.772c-.575-1.593.967-3.135 2.56-2.56l4.335 1.565 3.635-2.67c1.311-.965 3.164-.041 3.184 1.586l.058 4.709 3.87 2.784c1.355.976.99 3.084-.615 3.546l-4.276 1.231-1.231 4.276c-.462 1.604-2.57 1.97-3.545.615l-2.785-3.87-4.709-.058c-1.627-.02-2.55-1.873-1.587-3.185l2.671-3.634-1.565-4.335zm1.881-.679l1.928 5.338-3.303 4.495 5.718.07 3.374 4.69 1.537-5.339 5.339-1.537-4.69-3.374-.07-5.718-4.494 3.303-5.339-1.928z"/><path d="M16.493 17.907l4.007 4.007 1.414-1.414-4.007-4.007-1.414 1.414z"/></g><defs><clipPath id="clip0_544:12627"><path fill="currentColor" d="M0 0h24v24H0z"/></clipPath></defs></svg>