<svg xmlns="http://www.w3.org/2000/svg" width="24" height="24" fill="none" viewBox="0 0 24 24"><path fill="currentColor" fill-rule="evenodd" d="M5.814 3.212c-1.593-.575-3.136.967-2.56 2.56l1.565 4.335-2.67 3.634c-.965 1.312-.042 3.165 1.586 3.185l4.709.058 2.784 3.87c.975 1.355 3.084.99 3.546-.615l1.231-4.276 4.276-1.231c1.604-.462 1.97-2.57.614-3.546l-3.87-2.784-.057-4.709c-.02-1.627-1.873-2.55-3.185-1.587L10.15 4.777 5.814 3.212zm-.68 1.881 5.34 1.928 4.494-3.303.07 5.718 4.69 3.374-5.339 1.537-1.537 5.339-3.374-4.69-5.718-.07 3.303-4.495-1.928-5.338z" clip-rule="evenodd"/><path fill="currentColor" d="m20.5 21.914-4.007-4.007 1.414-1.414 4.007 4.007-1.414 1.414z"/></svg>