<svg xmlns="http://www.w3.org/2000/svg" width="24" height="24" fill="none" viewBox="0 0 24 24"><path fill="currentColor" fill-rule="evenodd" d="M4.952 1.5a2 2 0 0 0-1.888 1.338L1.765 6.544C.801 9.295 2.616 12.5 5.603 12.5c1.253 0 2.337-.593 3.07-1.503.731.91 1.811 1.503 3.066 1.503h.52c1.255 0 2.335-.593 3.066-1.503.733.91 1.817 1.503 3.07 1.503 2.988 0 4.805-3.206 3.84-5.959l-1.299-3.703A2 2 0 0 0 19.05 1.5H4.951zm6.787 9c-1.05 0-2.064-.97-2.064-2.375a1 1 0 0 0-2 0c0 1.4-1.018 2.375-2.072 2.375-1.35 0-2.548-1.59-1.95-3.295L4.952 3.5h14.097l1.299 3.703c.597 1.705-.6 3.297-1.952 3.297-1.055 0-2.074-.974-2.074-2.375a1 1 0 0 0-2 0c0 1.405-1.012 2.375-2.063 2.375h-.52z" clip-rule="evenodd"/><path fill="currentColor" d="M5.5 18.5v-5h-2v5a4 4 0 0 0 4 4h9a4 4 0 0 0 4-4v-5h-2v5a2 2 0 0 1-2 2h-9a2 2 0 0 1-2-2z"/></svg>