<svg width="40" height="40" xmlns="http://www.w3.org/2000/svg" viewBox="0 0 40 40"><path d="M23.733 4.2v2h-19.1c-1.404 0-2.542 1.058-2.628 2.383L2 8.743v23.914c0 1.345 1.085 2.455 2.465 2.538l.167.005h18.114A9.12 9.12 0 0133.6 22.019V15.5h2v7.49A9.12 9.12 0 1124.305 37.2H4.631c-2.48 0-4.513-1.914-4.627-4.329L0 32.657V8.743C0 6.3 1.962 4.316 4.415 4.205l.217-.005h19.101zm6.919 19.332a7.12 7.12 0 100 14.24 7.12 7.12 0 000-14.24zm-2.252 4.46a.9.9 0 011.354-.777l4.394 2.563a.9.9 0 010 1.555l-4.394 2.563a.9.9 0 01-1.354-.777zm1.8 1.567v1.992l1.707-.996-1.707-.996zM25.557 18.28a3 3 0 01.784.715l.016-.01.807 1.344-1.715 1.03-.633-1.055a1 1 0 00-1.635-.113l-.068.095-5.56 8.83a1 1 0 01-1.54.188l-.085-.093-4.022-4.993a1 1 0 00-1.526-.038l-.077.099-3.979 5.788-1.648-1.134 3.979-5.787a3 3 0 014.665-.347l.143.164 3.143 3.902 4.814-7.645a3 3 0 014.137-.94zM9.5 12a3.5 3.5 0 110 7 3.5 3.5 0 010-7zm0 2a1.5 1.5 0 100 3 1.5 1.5 0 000-3zm26-14v4.299L40 4.3v2l-4.5-.001V12h-2V6.299L28 6.3v-2l5.5-.001V0h2z" fill-rule="evenodd"/></svg>