<svg xmlns="http://www.w3.org/2000/svg" width="24" height="24" fill="none" viewBox="0 0 24 24"><path fill="currentColor" d="M11.016 17.35v-2.675H8.385v-2h2.63V10h1.968v2.675h2.631v2h-2.63v2.675h-1.968z"/><path fill="currentColor" fill-rule="evenodd" d="M18 6h.5a4 4 0 0 1 4 4v8a4 4 0 0 1-4 4h-13a4 4 0 0 1-4-4v-8a4 4 0 0 1 4-4H6V5a3 3 0 0 1 3-3h6a3 3 0 0 1 3 3v1zm-3-2H9a1 1 0 0 0-1 1v1h8V5a1 1 0 0 0-1-1zm3.5 4h-13a2 2 0 0 0-2 2v8a2 2 0 0 0 2 2h13a2 2 0 0 0 2-2v-8a2 2 0 0 0-2-2z" clip-rule="evenodd"/></svg>