<svg width="40" height="40" fill="none" xmlns="http://www.w3.org/2000/svg" viewBox="0 0 40 40"><path d="M31.277 1.845v4.432h-4.432v2.4h4.432V13.2h2.4V8.677H38.2v-2.4h-4.523V1.845h-2.4z" fill="currentColor"/><path fill-rule="evenodd" clip-rule="evenodd" d="M30.693 26.597c-.93-.639-2.193.026-2.193 1.153v4.425c0 1.127 1.264 1.792 2.193 1.153l3.217-2.212a1.4 1.4 0 000-2.307l-3.217-2.212zm1.718 3.365L30.3 31.414v-2.903l2.111 1.451z" fill="currentColor"/><path fill-rule="evenodd" clip-rule="evenodd" d="M4.2 11A4.8 4.8 0 019 6.2h14V3.8H9A7.2 7.2 0 001.8 11v18A7.2 7.2 0 009 36.2h16.944A8 8 0 0037.2 24.944V17h-2.4v5.958A8 8 0 0023.958 33.8H9A4.8 4.8 0 014.2 29V11zM31 36a5.988 5.988 0 01-4.625-2.178V33.8h-.019A6 6 0 1131 36z" fill="currentColor"/><path d="M14.522 22.99a.567.567 0 01.864-.023l4.27 4.782 1.642-1.465-1.531-1.714 4.618-5.747a.567.567 0 01.864-.023l2.41 2.7 1.641-1.466-2.41-2.7a2.767 2.767 0 00-4.22.11l-4.389 5.462-1.254-1.405a2.767 2.767 0 00-4.22.11l-5.464 6.8 1.715 1.378 5.464-6.8z" fill="currentColor"/><path fill-rule="evenodd" clip-rule="evenodd" d="M13 9.9a4.1 4.1 0 100 8.2 4.1 4.1 0 000-8.2zM11.1 14a1.9 1.9 0 113.8 0 1.9 1.9 0 01-3.8 0z" fill="currentColor"/></svg>