<svg width="40" height="40" xmlns="http://www.w3.org/2000/svg" viewBox="0 0 40 40"><path d="M23.733 4.2v2h-19.1c-1.404 0-2.542 1.058-2.628 2.383L2 8.743v23.914c0 1.345 1.085 2.455 2.465 2.538l.167.005h18.114l.013.024a9.12 9.12 0 0110.528-13.306l.313.101V15.5h2v7.49l-.031-.02a9.12 9.12 0 11-11.1 14.387l-.165-.156L4.632 37.2c-2.48 0-4.513-1.914-4.627-4.329L0 32.657V8.743C0 6.3 1.962 4.316 4.415 4.205l.217-.005h19.101zm6.919 19.332a7.12 7.12 0 100 14.24 7.12 7.12 0 000-14.24zm-1 3.631l.102.052 4.394 2.563a.9.9 0 01.104 1.484l-.104.07-4.394 2.564a.9.9 0 01-1.347-.664l-.007-.113v-5.127a.9.9 0 011.252-.829zm.548 2.396v1.992l1.707-.996-1.707-.996zm-5.412-12.398l.102.09.099.094 1.942 1.95-1.417 1.41-1.942-1.949a1 1 0 00-1.39-.027l-.086.092-4.169 4.986 2.396 2.44-1.428 1.402-5.19-5.29a1 1 0 00-1.432.003l-.081.096-6 7.966-1.597-1.203 5.999-7.966a3 3 0 014.43-.401l.108.104 1.387 1.415 4.043-4.835a3 3 0 014.226-.377zM9.5 11a3.5 3.5 0 110 7 3.5 3.5 0 010-7zm0 2a1.5 1.5 0 100 3 1.5 1.5 0 000-3zM35.6-.037l-.001 4.204H40v2h-4.401l.001 5h-2l-.001-5h-4.932v-2h4.932L33.6-.037h2z" fill-rule="evenodd"/></svg>