<svg xmlns="http://www.w3.org/2000/svg" width="40" height="40" fill="none" viewBox="0 0 40 40"><path fill="currentColor" d="M31.277 1.845v4.432h-4.432v2.4h4.432V13.2h2.4V8.677H38.2v-2.4h-4.523V1.845h-2.4z"/><path fill="currentColor" fill-rule="evenodd" d="M30.693 26.597c-.93-.639-2.193.026-2.193 1.153v4.425c0 1.127 1.264 1.792 2.193 1.153l3.217-2.212a1.4 1.4 0 0 0 0-2.307l-3.217-2.212zm1.718 3.365L30.3 31.414v-2.903l2.111 1.451z" clip-rule="evenodd"/><path fill="currentColor" fill-rule="evenodd" d="M4.2 11A4.8 4.8 0 0 1 9 6.2h14V3.8H9A7.2 7.2 0 0 0 1.8 11v18A7.2 7.2 0 0 0 9 36.2h16.944A8 8 0 0 0 37.2 24.944V17h-2.4v5.958A8 8 0 0 0 23.958 33.8H9A4.8 4.8 0 0 1 4.2 29V11zM31 36a5.988 5.988 0 0 1-4.625-2.178V33.8h-.019A6 6 0 1 1 31 36z" clip-rule="evenodd"/><path fill="currentColor" d="M14.522 22.99a.567.567 0 0 1 .864-.023l4.27 4.782 1.642-1.465-1.531-1.714 4.618-5.747a.567.567 0 0 1 .864-.023l2.41 2.7 1.641-1.466-2.41-2.7a2.767 2.767 0 0 0-4.22.11l-4.389 5.462-1.254-1.405a2.767 2.767 0 0 0-4.22.11l-5.464 6.8 1.715 1.378 5.464-6.8z"/><path fill="currentColor" fill-rule="evenodd" d="M13 9.9a4.1 4.1 0 1 0 0 8.2 4.1 4.1 0 0 0 0-8.2zM11.1 14a1.9 1.9 0 1 1 3.8 0 1.9 1.9 0 0 1-3.8 0z" clip-rule="evenodd"/></svg>