<svg width="24" height="24" fill="none" xmlns="http://www.w3.org/2000/svg" viewBox="0 0 24 24"><path fill-rule="evenodd" clip-rule="evenodd" d="M7.5 6.2c-.722 0-1.315.392-1.7.906-.385.513-.6 1.185-.6 1.894 0 .709.215 1.381.6 1.894.385.514.978.906 1.7.906.723 0 1.316-.392 1.7-.906.386-.513.6-1.185.6-1.894 0-.709-.214-1.381-.6-1.894-.384-.514-.977-.906-1.7-.906zM6.8 9c0-.396.122-.724.28-.934.157-.21.314-.266.42-.266.106 0 .263.055.42.266.159.21.28.538.28.934s-.121.724-.28.934c-.157.21-.314.266-.42.266-.106 0-.263-.055-.42-.266-.158-.21-.28-.538-.28-.934z" fill="currentColor"/><path fill-rule="evenodd" clip-rule="evenodd" d="M1 10c0-4.18 2.699-8 6.5-8S14 5.82 14 10s-2.699 8-6.5 8S1 14.18 1 10zm6.5-6C5.226 4 3 6.448 3 10s2.226 6 4.5 6 4.5-2.448 4.5-6-2.226-6-4.5-6z" fill="currentColor"/><path d="M20 6.5c0 .828-.448 1.5-1 1.5s-1-.672-1-1.5.448-1.5 1-1.5 1 .672 1 1.5z" fill="currentColor"/><path fill-rule="evenodd" clip-rule="evenodd" d="M16.047 3.763C16.709 2.77 17.733 2 19 2s2.291.77 2.953 1.763C22.62 4.763 23 6.087 23 7.5c0 1.413-.38 2.737-1.047 3.737C21.291 12.23 20.267 13 19 13s-2.291-.77-2.953-1.763C15.38 10.237 15 8.913 15 7.5c0-1.413.38-2.737 1.047-3.737zm1.664 1.11C17.29 5.5 17 6.427 17 7.5c0 1.073.292 1.999.71 2.627.424.636.9.873 1.29.873s.866-.237 1.29-.873C20.707 9.5 21 8.573 21 7.5c0-1.073-.292-1.999-.71-2.627C19.865 4.237 19.39 4 19 4s-.866.237-1.29.873z" fill="currentColor"/><path d="M17.952 14.252a8.371 8.371 0 00-.023.257c-.018.235-.025.553.076.914.204.73.768 1.345 1.705 2.002.32.243.297.407.281.47-.036.147-.252.543-1.133.977-1.74.857-5.39 1.499-11.762.884l-.192 1.99c6.483.627 10.59.027 12.838-1.08 1.113-.548 1.95-1.314 2.191-2.292.262-1.06-.26-1.98-1.038-2.56l-.012-.008-.012-.01c-.828-.579-.925-.856-.94-.913a.647.647 0 01-.008-.226l.009-.093c.013-.138.036-.37.036-.564h-2c0 .096-.007.158-.016.252z" fill="currentColor"/></svg>