<svg xmlns="http://www.w3.org/2000/svg" width="22" height="24" fill="none" viewBox="0 0 22 24"><path fill="currentColor" d="M5.8 9c0-.396.121-.724.28-.934.157-.21.314-.266.42-.266.106 0 .263.055.42.266.159.21.28.538.28.934s-.121.724-.28.934c-.157.21-.314.266-.42.266-.106 0-.263-.055-.42-.266-.159-.21-.28-.538-.28-.934z"/><path fill="currentColor" fill-rule="evenodd" d="M0 10c0-4.18 2.699-8 6.5-8S13 5.82 13 10s-2.699 8-6.5 8S0 14.18 0 10zm6.5-3.8c-.723 0-1.316.392-1.7.906-.386.513-.6 1.185-.6 1.894 0 .709.214 1.38.6 1.894.384.514.977.906 1.7.906.722 0 1.316-.392 1.7-.906.386-.513.6-1.185.6-1.894 0-.709-.214-1.381-.6-1.894-.384-.514-.978-.906-1.7-.906zm8.547-2.437C15.709 2.77 16.733 2 18 2s2.291.77 2.953 1.763C21.62 4.763 22 6.087 22 7.5c0 1.413-.38 2.737-1.047 3.737C20.291 12.23 19.267 13 18 13s-2.291-.77-2.953-1.763C14.38 10.237 14 8.913 14 7.5c0-1.413.38-2.737 1.047-3.737zM18 8c.552 0 1-.672 1-1.5S18.552 5 18 5s-1 .672-1 1.5.448 1.5 1 1.5z" clip-rule="evenodd"/><path fill="currentColor" d="M16.952 14.252a8.371 8.371 0 0 0-.023.257c-.018.235-.025.553.076.914.204.73.768 1.345 1.705 2.002.32.243.297.407.281.47-.036.147-.252.543-1.133.977-1.74.857-5.39 1.499-11.762.884l-.192 1.99c6.483.627 10.59.027 12.838-1.08 1.113-.548 1.95-1.314 2.191-2.292.262-1.06-.26-1.98-1.038-2.56l-.012-.008-.012-.01c-.828-.579-.925-.856-.94-.913a.647.647 0 0 1-.008-.226l.009-.093c.013-.138.036-.37.036-.564h-2c0 .096-.007.158-.016.252z"/></svg>