<svg width="22" height="24" xmlns="http://www.w3.org/2000/svg" viewBox="0 0 22 24"><path d="M13.595 1.5c.417-.666 1.418-.667 1.836-.001l6.414 10.218c.211.338.206.762-.013 1.094l-6.414 9.71c-.431.653-1.424.635-1.83-.033L7.45 12.385a1.005 1.005 0 01.007-1.059zM7.79 1.14c.475.268.659.834.444 1.309l-.057.108L2.481 12l5.695 9.443a1.013 1.013 0 01-.283 1.35l-.104.066a1.098 1.098 0 01-1.397-.273l-.07-.1L0 12 6.322 1.515A1.094 1.094 0 017.79 1.14zm6.726 2.897l-4.892 7.831 4.928 8.112 5.113-7.74-5.15-8.203z" fill-rule="evenodd"/></svg>