<svg width="24" height="24" fill="none" xmlns="http://www.w3.org/2000/svg" viewBox="0 0 24 24"><path d="M15.8 18.2H8.2v1.6h7.6v-1.6z" fill="currentColor"/><path fill-rule="evenodd" clip-rule="evenodd" d="M6.7 6.446c0-.688.558-1.246 1.246-1.246h2.108c.688 0 1.246.558 1.246 1.246v2.108c0 .688-.558 1.246-1.246 1.246H7.946A1.246 1.246 0 016.7 8.554V6.446zm1.6.354v1.4h1.4V6.8H8.3zm-.354 4.4c-.688 0-1.246.558-1.246 1.246v2.108c0 .688.558 1.246 1.246 1.246h2.108c.688 0 1.246-.558 1.246-1.246v-2.108c0-.688-.558-1.246-1.246-1.246H7.946zm.354 3v-1.4h1.4v1.4H8.3zm4.4-1.754c0-.688.558-1.246 1.246-1.246h2.108c.688 0 1.246.558 1.246 1.246v2.108c0 .688-.558 1.246-1.246 1.246h-2.108a1.246 1.246 0 01-1.246-1.246v-2.108zm1.6.354v1.4h1.4v-1.4h-1.4zm.7-7.6a2.3 2.3 0 100 4.6 2.3 2.3 0 000-4.6zm-.7 2.3a.7.7 0 111.4 0 .7.7 0 01-1.4 0z" fill="currentColor"/><path fill-rule="evenodd" clip-rule="evenodd" d="M8.7 1a5 5 0 00-5 5v12a5 5 0 005 5h6.6a5 5 0 005-5V6a5 5 0 00-5-5H8.7zm-3 5a3 3 0 013-3h6.6a3 3 0 013 3v12a3 3 0 01-3 3H8.7a3 3 0 01-3-3V6z" fill="currentColor"/></svg>