<svg width="18" height="24" xmlns="http://www.w3.org/2000/svg" viewBox="0 0 18 24"><path d="M15.216 0A2.784 2.784 0 0118 2.784v18.432A2.784 2.784 0 0115.216 24H2.784A2.784 2.784 0 010 21.216V2.784A2.784 2.784 0 012.784 0zM16 19.891H2v1.325c0 .397.295.725.677.777l.107.007h12.432c.433 0 .784-.35.784-.784v-1.325zM15.216 2H2.784A.784.784 0 002 2.784v15.324h14V2.784a.784.784 0 00-.677-.777L15.216 2zm-8.094 9.1c.743 0 1.345.603 1.345 1.346v2.676c0 .743-.602 1.345-1.345 1.345H4.446A1.346 1.346 0 013.1 15.122v-2.676c0-.743.603-1.346 1.346-1.346zm6.5 0c.743 0 1.345.603 1.345 1.346v2.676c0 .743-.602 1.345-1.345 1.345h-2.676A1.346 1.346 0 019.6 15.122v-2.676c0-.743.603-1.346 1.346-1.346zm-6.955 1.8H4.9v1.767h1.767V12.9zm6.5 0H11.4v1.767h1.767V12.9zM7.122 4.1c.743 0 1.345.603 1.345 1.346v2.676c0 .743-.602 1.345-1.345 1.345H4.446A1.346 1.346 0 013.1 8.122V5.446c0-.743.603-1.346 1.346-1.346zm5.262 0a2.684 2.684 0 110 5.367 2.684 2.684 0 010-5.367zM6.667 5.9H4.9v1.767h1.767V5.9zm5.717 0a.884.884 0 100 1.767.884.884 0 000-1.767z" fill-rule="evenodd"/></svg>