<svg width="24" height="24" xmlns="http://www.w3.org/2000/svg" viewBox="0 0 24 24"><path d="M13.617 21.87l.32 1.974c-.504.082-1.02.133-1.543.15L12 24l-.294-.004-.293-.01.095-1.998a10.083 10.083 0 002.109-.118zm-5.315-.575a9.908 9.908 0 001.592.483l.411.08-.337 1.97a11.914 11.914 0 01-2.02-.53l-.386-.145.74-1.858zm8.362-.447l.935 1.769a12.02 12.02 0 01-1.918.808l-.403.122-.545-1.924c.67-.19 1.317-.45 1.931-.775zM5.46 19.565c.421.365.872.694 1.348.983l.361.21-.968 1.75a12.022 12.022 0 01-1.73-1.164l-.32-.267 1.309-1.512zm13.874-.767l1.467 1.36c-.473.51-.99.978-1.544 1.4l-.337.247-1.155-1.633a10.066 10.066 0 001.57-1.374zM3.36 17.038c.281.48.602.937.96 1.365l.274.315-1.481 1.344a12.047 12.047 0 01-1.262-1.657l-.217-.358 1.726-1.01zm17.787-.987l1.828.81c-.284.64-.622 1.252-1.009 1.827l-.238.34-1.62-1.172a9.986 9.986 0 001.04-1.805zM12 6.1a5.9 5.9 0 015.896 5.679L17.9 12h-1.8a4.1 4.1 0 10-4.305 4.095L12 16.1v1.8a5.9 5.9 0 010-11.8zm3.5 7.4a2 2 0 110 4 2 2 0 010-4zm-13.3.498c.11.547.266 1.082.466 1.6l.158.384-1.834.798a11.909 11.909 0 01-.66-1.973l-.091-.413 1.96-.396zm19.764-1.148l1.993.167c-.059.706-.18 1.394-.355 2.06l-.112.397-1.915-.578c.2-.663.33-1.347.39-2.046zM.106 10.396l1.983.265c-.06.442-.089.89-.089 1.352l.007.374.021.372-1.994.15a12.14 12.14 0 01-.03-.604L0 12.016V12l.007-.406c.009-.27.027-.537.053-.802l.046-.396zM23.635 9.05c.167.664.28 1.35.332 2.052l.024.423-1.999.078a10.02 10.02 0 00-.203-1.657l-.093-.405 1.939-.49zM1.267 6.628l1.787.897a9.92 9.92 0 00-.618 1.545l-.114.402-1.935-.505c.212-.817.509-1.6.88-2.34zm20.817-1.135c.376.58.702 1.196.975 1.84l.156.39-1.868.712a9.948 9.948 0 00-.723-1.501l-.22-.355 1.68-1.086zM3.594 3.437l1.4 1.427a10.1 10.1 0 00-1.09 1.264l-.238.343-1.665-1.108a12.06 12.06 0 011.592-1.926zm15.775-.909c.55.428 1.06.903 1.528 1.419l.275.314-1.528 1.29c-.36-.425-.755-.82-1.18-1.181l-.324-.264 1.229-1.578zM6.876 1.146l.856 1.808a9.988 9.988 0 00-1.443.836l-.337.246L4.74 2.444c.661-.503 1.376-.94 2.135-1.298zm9.021-.499a11.86 11.86 0 011.907.848l.36.207-1.03 1.715a9.952 9.952 0 00-1.494-.735l-.392-.143.65-1.892zM10.623.078l.227 1.987a9.942 9.942 0 00-1.635.327l-.397.124L8.182.62a11.932 11.932 0 012.441-.542zM12 0l.425.007c.563.02 1.117.078 1.658.173l.404.078-.413 1.957a10.016 10.016 0 00-1.653-.206L12 2V0z" fill-rule="evenodd"/></svg>