<svg xmlns="http://www.w3.org/2000/svg" width="24" height="24" fill="none" viewBox="0 0 24 24"><path fill="currentColor" d="M10.637 1.084a11.1 11.1 0 0 1 2.726 0l-.245 1.985a9.1 9.1 0 0 0-2.236 0l-.245-1.985zm4.281.307c.89.245 1.736.598 2.52 1.045l-.99 1.738a8.939 8.939 0 0 0-2.06-.854l.53-1.929zM6.562 2.436c.784-.447 1.63-.8 2.52-1.045l.53 1.93a8.912 8.912 0 0 0-2.06.853l-.99-1.738zm12.193.882c.72.56 1.367 1.208 1.927 1.927l-1.577 1.23a9.056 9.056 0 0 0-1.58-1.58l1.23-1.577zM3.318 5.245c.56-.72 1.208-1.367 1.927-1.927l1.23 1.577a9.06 9.06 0 0 0-1.58 1.58l-1.577-1.23zm18.246 1.317c.447.784.8 1.63 1.044 2.52l-1.928.53a8.942 8.942 0 0 0-.854-2.06l1.738-.99zM1.391 9.082a10.94 10.94 0 0 1 1.045-2.52l1.738.99a8.939 8.939 0 0 0-.854 2.06l-1.929-.53zm21.525 1.555a11.1 11.1 0 0 1 0 2.726l-1.985-.245a9.11 9.11 0 0 0 0-2.236l1.985-.245zM1 12c0-.461.028-.916.084-1.363l1.985.245a9.1 9.1 0 0 0 0 2.236l-1.985.245A11.1 11.1 0 0 1 1 12zm21.608 2.918c-.244.89-.597 1.736-1.044 2.52l-1.738-.99a8.942 8.942 0 0 0 .854-2.06l1.928.53zm-20.172 2.52a10.94 10.94 0 0 1-1.045-2.52l1.93-.53c.199.728.488 1.419.853 2.06l-1.738.99zm18.246 1.317c-.56.72-1.208 1.367-1.927 1.927l-1.23-1.577c.59-.46 1.12-.99 1.58-1.58l1.577 1.23zM5.245 20.682a11.058 11.058 0 0 1-1.927-1.927l1.577-1.23c.46.59.99 1.12 1.58 1.58l-1.23 1.577zm3.837 1.926a10.938 10.938 0 0 1-2.52-1.044l.99-1.738a8.942 8.942 0 0 0 2.06.854l-.53 1.928zm8.356-1.044c-.784.447-1.63.8-2.52 1.044l-.53-1.928a8.942 8.942 0 0 0 2.06-.854l.99 1.738zM12 23a11.1 11.1 0 0 1-1.363-.084l.245-1.985a9.11 9.11 0 0 0 2.236 0l.245 1.985A11.1 11.1 0 0 1 12 23zM6.1 12a5.9 5.9 0 0 1 11.8 0h-1.8a4.1 4.1 0 1 0-4.1 4.1v1.8A5.9 5.9 0 0 1 6.1 12z"/><path fill="currentColor" d="M15.5 17.5a2 2 0 1 0 0-4 2 2 0 0 0 0 4z"/></svg>