<svg width="23" height="24" xmlns="http://www.w3.org/2000/svg" viewBox="0 0 23 24"><path d="M12.592 13.937v6.027l2.317-2.059 1.319 1.482-4.623 4.11-4.634-4.11 1.318-1.482 2.318 2.056v-6.024h1.985zm6.297-6.689L23 11.872l-4.11 4.633-1.483-1.318L19.4 12.94h-5.82v-1.983h5.951l-2.123-2.39 1.48-1.319zm-14.779 0l1.483 1.318-2.123 2.391h6.15v1.983H3.597l1.995 2.245-1.48 1.32L0 11.88l4.11-4.633zM11.595.502l4.633 4.11-1.318 1.483-2.318-2.056v5.922h-1.984l-.001-5.925-2.316 2.059-1.32-1.482 4.624-4.11z" fill-rule="evenodd"/></svg>