<svg width="24" height="24" fill="none" xmlns="http://www.w3.org/2000/svg" viewBox="0 0 24 24"><path d="M8.016 7.518a5.796 5.796 0 01-1.17.91c-.468.26-.91.442-1.326.546v1.508c.858-.247 1.56-.624 2.119-1.131V16.8H9.16V7.518H8.016zm7.43 1.11a5.796 5.796 0 001.17-.91h1.144V17h-1.52V9.551c-.56.507-1.262.884-2.12 1.131V9.174a5.514 5.514 0 001.326-.546zM12.9 9.9a.9.9 0 11-1.8 0 .9.9 0 011.8 0zm-.9 5.4a.9.9 0 100-1.8.9.9 0 000 1.8z" fill="currentColor"/><path fill-rule="evenodd" clip-rule="evenodd" d="M1.5 6.5a5 5 0 015-5h11a5 5 0 015 5v11a5 5 0 01-5 5h-11a5 5 0 01-5-5v-11zm5-3a3 3 0 00-3 3v11a3 3 0 003 3h11a3 3 0 003-3v-11a3 3 0 00-3-3h-11z" fill="currentColor"/></svg>