<svg width="20" height="24" xmlns="http://www.w3.org/2000/svg" viewBox="0 0 20 24"><path d="M14 0a1 1 0 01.993.883L15 1v1h2a3 3 0 013 3v15a3 3 0 01-3 3H3a3 3 0 01-3-3V5a3 3 0 013-3h2V1A1 1 0 016.993.883L7 1v1h6V1a1 1 0 011-1zm3 4h-2v1a1 1 0 01-1.993.117L13 5V4H7v1a1 1 0 01-1.993.117L5 5V4H3a1 1 0 00-.993.883L2 5v15a1 1 0 00.883.993L3 21h14a1 1 0 00.993-.883L18 20V5a1 1 0 00-.883-.993L17 4zm-2 10.846a1 1 0 01.117 1.993l-.117.007H5a1 1 0 01-.117-1.993L5 14.846h10zM15 9.5a1 1 0 01.117 1.993L15 11.5H5a1 1 0 01-.117-1.993L5 9.5h10z" fill="currentColor" fill-rule="evenodd"/></svg>