<svg xmlns="http://www.w3.org/2000/svg" width="24" height="24" fill="none" viewBox="0 0 24 24"><path fill="currentColor" fill-rule="evenodd" d="M1 12C1 5.925 5.925 1 12 1c.614 0 1.202.062 1.761.153l-.318 1.974A9.014 9.014 0 0 0 12 3a9 9 0 0 0-9 9c0 1.48.357 2.877.99 4.108l2.633-4.278a3 3 0 1 1 1.679 1.088l-3.08 5.004A8.979 8.979 0 0 0 12 21c1.868 0 3.604-.57 5.042-1.544l-1.749-1.748a3 3 0 1 1-.692-5.647l1.08-2.158a3 3 0 1 1 1.718 1.037l-1.08 2.157c.426.518.681 1.18.681 1.903 0 .463-.105.902-.292 1.293l1.86 1.86A8.968 8.968 0 0 0 21 12c0-.48-.049-.956-.127-1.443l1.974-.319c.09.56.153 1.148.153 1.762 0 6.075-4.925 11-11 11S1 18.075 1 12zm17-3a1 1 0 1 0 0-2 1 1 0 0 0 0 2zm-3 6a1 1 0 1 1-2 0 1 1 0 0 1 2 0zm-6-4a1 1 0 1 0 0-2 1 1 0 0 0 0 2z" clip-rule="evenodd"/></svg>