<svg xmlns="http://www.w3.org/2000/svg" width="22" height="24" fill="none" viewBox="0 0 22 24"><path fill="currentColor" d="M11 1C4.925 1 0 5.925 0 12s4.925 11 11 11 11-4.925 11-11c0-.614-.062-1.202-.153-1.761l-1.974.318c.078.487.127.963.127 1.443 0 2.38-.924 4.544-2.432 6.154l-1.86-1.86c.187-.392.292-.83.292-1.294a2.99 2.99 0 0 0-.68-1.903l1.078-2.157a3 3 0 1 0-1.718-1.037l-1.078 2.157a3 3 0 1 0 .692 5.647l1.748 1.75A8.958 8.958 0 0 1 11 21a8.979 8.979 0 0 1-6.778-3.078l3.08-5.004a3 3 0 1 0-1.679-1.088L2.99 16.108A8.962 8.962 0 0 1 2 12a9 9 0 0 1 9-9c.48 0 .956.049 1.443.127l.319-1.974A11.077 11.077 0 0 0 11 1z"/></svg>