<svg width="24" height="24" xmlns="http://www.w3.org/2000/svg" viewBox="0 0 24 24"><path d="M14.53.267l.41.096-.489 1.94a10.005 10.005 0 00-2.8-.297C6.131 2.2 1.813 6.83 2.006 12.35a9.998 9.998 0 00.543 2.928l3.193-3.83a3.345 3.345 0 111.675 1.113l-3.922 4.703a9.996 9.996 0 008.854 4.73 9.958 9.958 0 004.433-1.208l-2.14-1.951a3.405 3.405 0 11-1.167-6.287l2.784-3.58a3.345 3.345 0 111.68 1.1l-2.651 3.406a3.394 3.394 0 011.022 2.432c0 .517-.116 1.008-.323 1.448l2.489 2.268A9.982 9.982 0 0022 11.93l-.006-.28 1.999-.07c.231 6.624-4.95 12.18-11.574 12.412-6.624.231-12.18-4.95-12.412-11.574C-.224 5.795 4.957.239 11.581.007c1-.035 1.989.054 2.95.26zM12.905 14.5a1.405 1.405 0 100 2.81 1.405 1.405 0 000-2.81zM8.345 8a1.345 1.345 0 100 2.69 1.345 1.345 0 000-2.69zm10.5-2.5a1.345 1.345 0 100 2.69 1.345 1.345 0 000-2.69z" fill-rule="evenodd"/></svg>