<svg xmlns="http://www.w3.org/2000/svg" width="24" height="24" fill="none" viewBox="0 0 24 24"><path fill="currentColor" fill-rule="evenodd" d="M3.121 3.464A5 5 0 0 1 6.657 2h10.686a5 5 0 0 1 3.536 1.464l1.242 1.243A3 3 0 0 1 23 6.828V17a5 5 0 0 1-5 5H6a5 5 0 0 1-5-5V6.828a3 3 0 0 1 .879-2.12L3.12 3.463zM6.657 4a3 3 0 0 0-2.121.879L3.414 6h17.172l-1.121-1.121A3 3 0 0 0 17.343 4H6.657zm10.625 9.058-.743-.67-3.192-2.874a2 2 0 0 0-2.73.05l-2.943 2.85-.718.696 1.392 1.436.718-.696L11 11.977V19h2v-7.107l2.2 1.982.744.67 1.338-1.487z" clip-rule="evenodd"/></svg>