<svg width="24" height="24" xmlns="http://www.w3.org/2000/svg" viewBox="0 0 24 24"><path d="M19.698 15.385c1.634 1.55 2.452 2.775 2.452 3.678a2.452 2.452 0 01-4.904 0c0-.903.817-2.129 2.452-3.678zM10.413 1.418l.094.083 1.734 1.734 6.935 6.935a1 1 0 010 1.415L9.64 21.12a1 1 0 01-1.414 0L1.29 14.185a1 1 0 010-1.414l8.829-8.83-1.026-1.026a1 1 0 011.32-1.497zM4.617 12.271L3.41 13.478l5.521 5.521 3.994-3.995-8.31-2.733zm6.916-6.915l-5.332 5.331 8.31 2.732 2.543-2.542-5.521-5.521z" fill="currentColor"/></svg>