<svg width="24" height="24" fill="none" xmlns="http://www.w3.org/2000/svg" viewBox="0 0 24 24"><path fill-rule="evenodd" clip-rule="evenodd" d="M19.814 11.4L9.207.793 7.793 2.207l1.414 1.414-7.071 7.071a5 5 0 000 7.072l2.121 2.12a5 5 0 007.071 0l8.486-8.485zM3.55 16.35a3.001 3.001 0 01-.54-3.508l9.884 2.649-2.98 2.98a3 3 0 01-4.243 0l-2.12-2.122zm7.071-11.314L4.49 11.168l10.038 2.69 2.458-2.459-6.364-6.363z" fill="currentColor"/><path d="M21.799 16.159L19.999 14l-1.798 2.159C16.93 17.684 18.014 20 20 20c1.985 0 3.07-2.316 1.799-3.841z" fill="currentColor"/></svg>