<svg xmlns="http://www.w3.org/2000/svg" width="24" height="24" fill="none" viewBox="0 0 24 24"><path fill="currentColor" fill-rule="evenodd" d="M18.234 3.4h-.539V1.2h.54a4.392 4.392 0 0 1 3.343 1.54l-1.672 1.43a2.193 2.193 0 0 0-1.672-.77zm-9.69.405A2.187 2.187 0 0 1 9.818 3.4h1.278V1.2H9.817c-.924 0-1.808.286-2.547.812l1.275 1.793zm7.501-.405h-3.3V1.2h3.3v2.2zm4.342 1.744c.02.093.033.187.04.282l.007.18-.009 2.65 2.2.007.008-2.715a4.427 4.427 0 0 0-.093-.856l-2.153.451v.001zm.033 4.762-.01 3.3 2.2.007.01-3.3-2.2-.007zm-.096 4.643a2.205 2.205 0 0 1-1.58 1.53l.535 2.134a4.407 4.407 0 0 0 3.162-3.061l-2.117-.603zM7.617 5.6h6.6a4.4 4.4 0 0 1 4.4 4.4v8.8a4.4 4.4 0 0 1-4.4 4.4h-8.8a4.4 4.4 0 0 1-4.4-4.4V10a4.4 4.4 0 0 1 4.4-4.4c0-.62.13-1.233.384-1.799l2.008.901c-.126.28-.192.583-.192.899zm6.076 14.079H6.518a2.2 2.2 0 0 1-2.2-2.2V13.15a8.489 8.489 0 0 1 9.375 6.529zm-.026-6.6a1.65 1.65 0 1 0 0-3.3 1.65 1.65 0 0 0 0 3.3z" clip-rule="evenodd"/></svg>