<svg width="24" height="24" xmlns="http://www.w3.org/2000/svg" viewBox="0 0 24 24"><g fill="currentColor"><path d="M13.6 6.4H6a4 4 0 00-4 4V18a4 4 0 004 4h7.6a4 4 0 004-4v-7.6a4 4 0 00-4-4zM6 8.4h7.6a2 2 0 012 2V18a2 2 0 01-2 2H6a2 2 0 01-2-2v-7.6a2 2 0 012-2z"/><path d="M8 7.946V6.2c0-.287.06-.563.174-.817l-1.825-.819A3.99 3.99 0 006 6.2v1.746h2zm.843-3.378A1.986 1.986 0 0110 4.2h1.162v-2H10c-.84 0-1.644.26-2.316.738l1.16 1.63zm3.819-.368h3v-2h-3v2zm4.5 0h.49c.593 0 1.141.258 1.52.7l1.52-1.3a3.993 3.993 0 00-3.04-1.4h-.49v2zm2.447 1.586c.018.084.03.17.037.256l.006.164-.008 2.409 2 .006.007-2.468a4.027 4.027 0 00-.085-.778l-1.957.41zm.03 4.329l-.009 3 2 .006.01-3-2-.006zm-.087 4.221a2.005 2.005 0 01-1.436 1.391l.486 1.94a4.005 4.005 0 002.874-2.783l-1.924-.548zm-2.662 1.45h-.314v2h.314v-2zM12.7 15.5v2h-6v-2zm0-4v2h-6v-2z"/></g></svg>