<svg xmlns="http://www.w3.org/2000/svg" width="20" height="24" fill="none" viewBox="0 0 20 24"><path fill="currentColor" d="M15.162 4.2h.49c.593 0 1.141.258 1.52.7l1.52-1.3a3.993 3.993 0 0 0-3.04-1.4h-.49v2zM8 4.2a1.989 1.989 0 0 0-1.157.368l-1.159-1.63A3.984 3.984 0 0 1 8 2.2h1.162v2H8zm5.662 0h-3v-2h3v2zm3.984 1.842a1.998 1.998 0 0 0-.037-.256v-.001l1.957-.41c.054.256.082.516.085.778l-.007 2.468-2-.006.008-2.41-.006-.163zm-.006 4.073-.01 3 2 .006.01-3-2-.006zm-.62 5.108c.252-.244.435-.55.532-.887l1.924.548a4.005 4.005 0 0 1-2.874 2.783l-.486-1.94c.34-.086.652-.26.904-.504z"/><path fill="currentColor" fill-rule="evenodd" d="M6 6.2h6a4 4 0 0 1 4 4v8a4 4 0 0 1-4 4H4a4 4 0 0 1-4-4v-8a4 4 0 0 1 4-4c0-.564.118-1.121.349-1.636l1.825.819C6.06 5.637 6 5.913 6 6.2zM5 13h6v-2H5v2zm0 4.4h6v-2H5v2z" clip-rule="evenodd"/></svg>