<svg xmlns="http://www.w3.org/2000/svg" width="22" height="24" fill="none" viewBox="0 0 22 24"><path fill="currentColor" d="M7.502 2C5.05 2 3 3.923 3 6.373V15a.95.95 0 0 0 .01.142A3.501 3.501 0 0 0 4 22a3.5 3.5 0 0 0 .99-6.858A1.01 1.01 0 0 0 5 15V6.373C5 5.097 6.084 4 7.502 4c1.417 0 2.501 1.098 2.501 2.373l-.006 11.513c0 2.38 2.129 4.114 4.501 4.114C16.871 22 19 20.265 19 17.886v-4.542l1.328 1.328 1.344-1.344-3-3a.95.95 0 0 0-1.344 0l-3 3 1.344 1.344L17 13.343v4.543C17 18.946 15.994 20 14.498 20c-1.495 0-2.5-1.054-2.501-2.114l.006-11.513C12.003 3.923 9.953 2 7.502 2z"/><path fill="currentColor" d="M18 9a3.5 3.5 0 1 0 0-7 3.5 3.5 0 0 0 0 7z"/></svg>