<svg xmlns="http://www.w3.org/2000/svg" width="24" height="24" fill="none" viewBox="0 0 24 24"><path fill="currentColor" fill-rule="evenodd" d="m21.784 4.096-1.08-1.08a3.8 3.8 0 0 0-5.374 0L2.911 15.436a1 1 0 0 0-.293.688l-.091 4.982a1 1 0 0 0 .989 1.018l5.13.058a1 1 0 0 0 .719-.293l12.42-12.42a3.8 3.8 0 0 0 0-5.373zM20.37 5.51l.1.109a1.8 1.8 0 0 1-.1 2.437l-.898.898-3.626-3.626.899-.898a1.8 1.8 0 0 1 2.545 0l1.08 1.08zm-5.938 1.233-9.821 9.821-.066 3.57 3.704.043 9.809-9.809-3.626-3.625z" clip-rule="evenodd"/></svg>