<svg xmlns="http://www.w3.org/2000/svg" width="22" height="24" fill="none" viewBox="0 0 22 24"><g clip-path="url(#dls-7d5b9-a)"><path stroke="currentColor" stroke-width="2" d="M3.422 5.244a2.854 2.854 0 0 1 4.15.171l.938 1.082c.781.9.733 2.25-.109 3.092a.547.547 0 0 0-.088.668c.359.598 1.129 1.803 2.006 2.68.877.878 2.082 1.648 2.68 2.006.217.13.49.09.669-.088a2.269 2.269 0 0 1 3.091-.109l1.082.94a2.855 2.855 0 0 1 .171 4.149l-.543.557c-1.312 1.343-3.294 1.799-4.96.932-1.81-.942-4.191-2.406-6.18-4.396-1.99-1.99-3.455-4.37-4.397-6.18-.866-1.666-.411-3.648.933-4.96l.557-.544z" clip-rule="evenodd"/><path stroke="currentColor" stroke-width="1.8" d="M16.5 3.2c1.548 0 2.878.954 3.797 2.033.478.56.488 1.377.047 1.968C19.262 8.648 18.106 9.2 16.5 9.2c-1.913 0-3.216-1.22-3.91-2.104a1.453 1.453 0 0 1 .005-1.791C13.98 3.504 15.566 3.2 16.5 3.2z"/><ellipse cx="16.459" cy="6.247" fill="currentColor" rx="1.459" ry="1.478"/></g><defs><clipPath id="dls-7d5b9-a"><path fill="currentColor" d="M0 0h22v24H0z"/></clipPath></defs></svg>