<svg xmlns="http://www.w3.org/2000/svg" width="21" height="24" fill="none" viewBox="0 0 21 24"><g stroke="currentColor" stroke-width="2" clip-path="url(#dls-a5088-a)"><path d="M3.422 5.244a2.854 2.854 0 0 1 4.15.171l.938 1.082c.781.9.733 2.25-.109 3.092a.547.547 0 0 0-.088.668c.359.598 1.129 1.803 2.006 2.68.877.878 2.082 1.648 2.68 2.006.217.13.49.09.669-.088a2.269 2.269 0 0 1 3.091-.109l1.082.94a2.855 2.855 0 0 1 .171 4.149l-.543.557c-1.312 1.343-3.294 1.799-4.96.932-1.81-.942-4.191-2.406-6.18-4.396-1.99-1.99-3.455-4.37-4.397-6.18-.866-1.666-.411-3.648.933-4.96l.557-.544z" clip-rule="evenodd"/><path d="M16.25 11.6c0-.52-.107-1.035-.314-1.515a3.952 3.952 0 0 0-.894-1.285 4.14 4.14 0 0 0-1.338-.859 4.275 4.275 0 0 0-1.579-.301M20 11.48a7.413 7.413 0 0 0-.609-2.939 7.667 7.667 0 0 0-1.734-2.492 8.03 8.03 0 0 0-2.595-1.664A8.29 8.29 0 0 0 12 3.8"/></g><defs><clipPath id="dls-a5088-a"><path fill="currentColor" d="M0 0h21v24H0z"/></clipPath></defs></svg>