<svg xmlns="http://www.w3.org/2000/svg" width="22" height="24" fill="none" viewBox="0 0 22 24"><path fill="currentColor" fill-rule="evenodd" d="M16.5 2.3c-1.152 0-3.028.39-4.618 2.456a2.353 2.353 0 0 0 0 2.895c.759.968 2.294 2.449 4.618 2.449.91 0 1.748-.157 2.527-.555.778-.397 1.437-1.002 2.038-1.806.681-.912.68-2.195-.082-3.09C19.98 3.475 18.424 2.3 16.5 2.3zm-.04 5.425c.805 0 1.458-.662 1.458-1.478S17.265 4.77 16.46 4.77 15 5.431 15 6.247s.653 1.478 1.46 1.478z" clip-rule="evenodd"/><path fill="currentColor" d="M1.045 11.209C-.054 9.097.554 6.646 2.166 5.072l.557-.544a3.854 3.854 0 0 1 5.603.232l.94 1.081a3.27 3.27 0 0 1 .08 4.189c.386.616 1.009 1.529 1.68 2.2.672.672 1.584 1.294 2.2 1.68a3.27 3.27 0 0 1 4.189.081l1.082.939a3.855 3.855 0 0 1 .231 5.603l-.544.557c-1.574 1.613-4.025 2.22-6.137 1.121-1.858-.966-4.336-2.486-6.426-4.576-2.09-2.09-3.61-4.567-4.576-6.426z"/></svg>