<svg xmlns="http://www.w3.org/2000/svg" width="24" height="24" fill="none" viewBox="0 0 24 24"><path fill="currentColor" fill-rule="evenodd" d="M21.718 7.285a2.01 2.01 0 0 1-.609 3.26l-1.866.826-3.5 3.504-.278 3.855a2.01 2.01 0 0 1-3.427 1.277l-3.4-3.403-5.083 5.107a1.005 1.005 0 0 1-1.425-1.418l5.087-5.11-3.517-3.52a2.01 2.01 0 0 1 1.273-3.426l3.965-.296 3.438-3.443.808-1.863a2.012 2.012 0 0 1 3.268-.621l5.266 5.271zm-7.927 6.699 4.295-4.3 2.21-.979-5.267-5.27-.96 2.213-4.235 4.243-4.712.35 8.338 8.345.331-4.602z" clip-rule="evenodd"/></svg>