<svg xmlns="http://www.w3.org/2000/svg" width="24" height="24" fill="none" viewBox="0 0 24 24"><path fill="currentColor" fill-rule="evenodd" d="M11.582 7.65C10.25 6.793 8.5 7.75 8.5 9.331v5.336c0 1.583 1.75 2.538 3.082 1.683l4.15-2.669a2 2 0 0 0 0-3.364l-4.15-2.669zM10.5 9.331 14.65 12l-4.15 2.668V9.332z" clip-rule="evenodd"/><path fill="currentColor" fill-rule="evenodd" d="M12 1C5.925 1 1 5.925 1 12s4.925 11 11 11 11-4.925 11-11S18.075 1 12 1zM3 12a9 9 0 1 1 18 0 9 9 0 0 1-18 0z" clip-rule="evenodd"/></svg>