<svg width="18" height="24" xmlns="http://www.w3.org/2000/svg" viewBox="0 0 18 24"><path d="M8.833 1c2.292 0 4.157 1.778 4.157 3.963 0 .269-.029.536-.086.799l-.065.26 2.245-.002c1.053-.015 2.799-.074 2.906 2.079l.006.215L18 20.36c-.016 1.463-.273 2.571-2.636 2.637l-.227.003H2.26C.904 23 .07 22.502.004 21.098L0 20.918v-4.275l.008-.08.016-.09.01-.041.034-.097.04-.087.05-.082.025-.036.063-.076.07-.07.076-.062.083-.054.047-.027a.912.912 0 01.087-.04l.09-.033.045-.012.094-.02.097-.01.104-.002.085.006.101.016.093.025.09.033.051.023.087.047.071.048.083.067c.402.367.929.569 1.484.569 1.184 0 2.147-.918 2.147-2.047s-.963-2.047-2.147-2.047a2.2 2.2 0 00-1.345.453l-.215.178-.09.06-.085.046-.04.017-.092.034-.094.024-.096.016-.088.006-.106-.002-.096-.01-.094-.02-.091-.028-.09-.037-.045-.023-.09-.053-.078-.059L.276 13l-.031-.032-.062-.076-.054-.08-.044-.085-.035-.087-.015-.049-.02-.09-.012-.094L0 12.34V8.295c0-1.381.744-2.2 1.748-2.268l.139-.005h2.94c-.1-.345-.151-.7-.151-1.059C4.676 2.778 6.54 1 8.833 1zM2 18.39v2.602l.26.008h12.876c.352 0 .611-.026.784-.066l.052-.014.013-.175c.008-.136.013-.332.014-.605l-.005-.783V8.313c0-.075-.003-.14-.008-.195l-.008-.069-.083-.01a3.489 3.489 0 00-.443-.022l-.564.005h-4.714l.743-2.558c.048-.164.072-.332.072-.5C10.99 3.903 10.04 3 8.833 3c-1.209 0-2.157.904-2.157 1.963 0 .113.01.225.032.336l.04.165.743 2.558H2.02l-.006.033c-.005.039-.01.086-.013.145L2 8.295v2.336l.231-.06c.233-.053.47-.086.711-.1l.242-.007c2.268 0 4.147 1.792 4.147 4.047s-1.88 4.047-4.147 4.047c-.404 0-.802-.057-1.183-.168z" fill-rule="evenodd"/></svg>