<svg xmlns="http://www.w3.org/2000/svg" width="22" height="24" fill="none" viewBox="0 0 22 24"><g clip-path="url(#dls-e407c-a)"><path fill="currentColor" fill-rule="evenodd" d="M9 1a4 4 0 0 1 4 4h3a2 2 0 0 1 2 2v3a4 4 0 0 1 0 8v3a2 2 0 0 1-2 2H2a2 2 0 0 1-2-2v-2a2 2 0 0 1 2-2h2a2 2 0 1 0 0-4H2a2 2 0 0 1-2-2V7a2 2 0 0 1 2-2h3a4 4 0 0 1 4-4zm8.6 14.7a1.8 1.8 0 1 0 0-3.6 1.8 1.8 0 0 0 0 3.6z" clip-rule="evenodd"/></g><defs><clipPath id="dls-e407c-a"><path fill="currentColor" d="M0 0h22v24H0z"/></clipPath></defs></svg>