<svg width="24" height="24" fill="none" xmlns="http://www.w3.org/2000/svg" viewBox="0 0 24 24"><path fill-rule="evenodd" clip-rule="evenodd" d="M7.651 5.05a4.15 4.15 0 118.301.051h2.225a3 3 0 013 2.994L21.2 19.85a3 3 0 01-3 3.006H5.4a3 3 0 01-3-3v-2.378c0-.778.695-1.285 1.371-1.196a2.5 2.5 0 100-4.957c-.676.088-1.371-.42-1.371-1.197V8.101a3 3 0 013-3h2.25v-.05zm4.15-2.15a2.15 2.15 0 00-2.084 2.684c.18.702-.315 1.517-1.17 1.517H5.4a1 1 0 00-1 1v1.21a4.5 4.5 0 010 8.981v1.563a1 1 0 001 1h12.8a1 1 0 001-1.002l-.023-11.754a1 1 0 00-1-.998h-3.121c-.855 0-1.349-.815-1.17-1.517A2.15 2.15 0 0011.801 2.9z" fill="currentColor"/></svg>