<svg xmlns="http://www.w3.org/2000/svg" width="24" height="24" fill="none" viewBox="0 0 24 24"><path fill="currentColor" d="M17 7.85H7v-1.7h10v1.7z"/><path fill="currentColor" fill-rule="evenodd" d="M9.389 9.75H6.75v6.5h1.444v-2.303h1.178c.734 0 1.33-.161 1.745-.527.421-.372.611-.915.611-1.58 0-.661-.19-1.2-.609-1.568-.413-.362-1.005-.522-1.73-.522zm-1.195 2.857V11.09h1.122c.391 0 .626.074.753.179l.005.004c.112.088.202.253.202.567 0 .319-.084.492-.197.587-.131.101-.372.18-.763.18H8.194z" clip-rule="evenodd"/><path fill="currentColor" d="M12.97 9.75h-1.556l2.22 6.5h1.495l2.22-6.5h-1.556l-1.411 4.366L12.97 9.75z"/><path fill="currentColor" fill-rule="evenodd" d="M12.235 1.092a2 2 0 0 0-.996.007l-7.75 2.05A2 2 0 0 0 2 5.083v10.016c0 .831.344 1.635.978 2.201.856.764 2.451 2.15 4.073 3.349.81.598 1.646 1.166 2.413 1.589.72.396 1.545.762 2.279.762.725 0 1.567-.36 2.313-.752.797-.419 1.676-.983 2.534-1.579 1.717-1.194 3.427-2.575 4.349-3.34A2.949 2.949 0 0 0 22 15.054v-9.96a2 2 0 0 0-1.515-1.94l-8.25-2.062zm-.485 1.94L20 5.095v9.96c0 .293-.126.56-.338.735-.907.752-2.566 2.092-4.214 3.238-.826.575-1.63 1.087-2.322 1.451-.744.39-1.197.522-1.383.522-.178 0-.609-.126-1.314-.514-.657-.362-1.413-.872-2.189-1.445-1.548-1.146-3.09-2.483-3.93-3.233A.944.944 0 0 1 4 15.1V5.083l7.75-2.05z" clip-rule="evenodd"/></svg>