<svg xmlns="http://www.w3.org/2000/svg" width="20" height="24" fill="none" viewBox="0 0 20 24"><path fill="currentColor" d="M6.194 11.09v1.517h1.122c.391 0 .632-.079.763-.18.113-.095.197-.268.197-.587 0-.314-.09-.48-.202-.567l-.005-.004c-.127-.105-.362-.179-.753-.179H6.194z"/><path fill="currentColor" fill-rule="evenodd" d="M2.478 2.022c-1.077 0-1.956.87-1.956 1.953v10.646c0 2.99 2.038 4.983 4.015 6.21 1.996 1.24 4.164 1.854 4.94 2.05.407.102.816.057 1.17-.085 4.258-1.711 6.487-3.797 7.643-5.552.575-.873.873-1.648 1.027-2.224.076-.287.117-.524.138-.698a3.356 3.356 0 0 0 .022-.28v-.025l.001-.01v-.005s0-.002-.978-.002h.978V3.978c0-1.08-.876-1.956-1.956-1.956H2.479zM5 7.85h10v-1.7H5v1.7zm-.25 1.9h2.638c.726 0 1.318.16 1.731.522.419.368.61.907.61 1.568 0 .665-.191 1.208-.612 1.58-.414.366-1.011.527-1.745.527H6.194v2.303H4.75v-6.5zm6.22 0H9.413l2.22 6.5h1.496l2.22-6.5h-1.556l-1.411 4.366L10.97 9.75z" clip-rule="evenodd"/></svg>