<svg xmlns="http://www.w3.org/2000/svg" width="24" height="24" fill="none" viewBox="0 0 24 24"><path fill="currentColor" d="M5.7 6.3a.5.5 0 0 1 .5-.5h.825a.5.5 0 0 1 .5.5v.825a.5.5 0 0 1-.5.5H6.2a.5.5 0 0 1-.5-.5V6.3z"/><path fill="currentColor" fill-rule="evenodd" d="M2.1 4.6a2.4 2.4 0 0 1 2.4-2.4h4.3a2.4 2.4 0 0 1 2.4 2.4V9a2.4 2.4 0 0 1-2.4 2.4H4.5A2.4 2.4 0 0 1 2.1 9V4.6zM4.5 4a.6.6 0 0 0-.6.6V9a.6.6 0 0 0 .6.6h4.3a.6.6 0 0 0 .6-.6V4.6a.6.6 0 0 0-.6-.6H4.5z" clip-rule="evenodd"/><path fill="currentColor" d="M5.7 16.76a.5.5 0 0 1 .5-.5h.825a.5.5 0 0 1 .5.5v.824a.5.5 0 0 1-.5.5H6.2a.5.5 0 0 1-.5-.5v-.825z"/><path fill="currentColor" fill-rule="evenodd" d="M4.5 12.622a2.4 2.4 0 0 0-2.4 2.4v4.3a2.4 2.4 0 0 0 2.4 2.4h4.4a2.4 2.4 0 0 0 2.4-2.4v-4.3a2.4 2.4 0 0 0-2.4-2.4H4.5zm-.6 2.4a.6.6 0 0 1 .6-.6h4.4a.6.6 0 0 1 .6.6v4.3a.6.6 0 0 1-.6.6H4.5a.6.6 0 0 1-.6-.6v-4.3z" clip-rule="evenodd"/><path fill="currentColor" d="M16.2 6.3a.5.5 0 0 1 .5-.5h.83a.5.5 0 0 1 .5.5v.83a.5.5 0 0 1-.5.5h-.83a.5.5 0 0 1-.5-.5V6.3z"/><path fill="currentColor" fill-rule="evenodd" d="M15 2.2a2.4 2.4 0 0 0-2.4 2.4V9a2.4 2.4 0 0 0 2.4 2.4h4.4A2.4 2.4 0 0 0 21.8 9V4.6a2.4 2.4 0 0 0-2.4-2.4H15zm-.6 2.4A.6.6 0 0 1 15 4h4.4a.6.6 0 0 1 .6.6V9a.6.6 0 0 1-.6.6H15a.6.6 0 0 1-.6-.6V4.6z" clip-rule="evenodd"/><path fill="currentColor" d="M14.4 14.522a.1.1 0 0 1 .1-.1h1.65a.1.1 0 0 1 .1.1v2.044c0 1.05.85 1.9 1.9 1.9h1.65a1.9 1.9 0 0 0 1.9-1.9v-3.944h-1.8v3.944a.1.1 0 0 1-.1.1h-1.65a.1.1 0 0 1-.1-.1v-2.044a1.9 1.9 0 0 0-1.9-1.9H14.5a1.9 1.9 0 0 0-1.9 1.9v7.2h1.8v-7.2z"/><path fill="currentColor" d="M16.115 20.4a.5.5 0 0 1 .5-.5h.795a.5.5 0 0 1 .5.5v.795a.5.5 0 0 1-.5.5h-.795a.5.5 0 0 1-.5-.5V20.4zm4.09-.5a.5.5 0 0 0-.5.5v.795a.5.5 0 0 0 .5.5H21a.5.5 0 0 0 .5-.5V20.4a.5.5 0 0 0-.5-.5h-.795z"/></svg>