<svg xmlns="http://www.w3.org/2000/svg" width="22" height="24" fill="none" viewBox="0 0 22 24"><path fill="currentColor" d="M11.462 7.75c-1.208.092-2.468.15-3.783.174v.548h3.695l.088-.721z"/><path fill="currentColor" fill-rule="evenodd" d="M0 12C0 5.925 4.925 1 11 1s11 4.925 11 11-4.925 11-11 11S0 18.075 0 12zm15.655-6.354.817 1.49-.208.035a49.923 49.923 0 0 1-3.563.472l.439.055-.015.146c-.02.206-.049.42-.08.628h3.916v1.548h-4.178l-.125.545h3.237v4.876h-1.097a19.3 19.3 0 0 1 2.104 1.113l.13.08-.919 1.442-.128-.087a17.36 17.36 0 0 0-3.776-1.972l-.178-.066.845-1.269.11.038c.445.154.877.32 1.296.495v-3.102H9.863v3.264c.165-.112.316-.23.45-.353.67-.62 1.087-1.519 1.227-2.702l.017-.141 1.61.111-.016.154c-.158 1.555-.634 2.775-1.473 3.614-.844.844-2.12 1.504-3.823 1.976l-.111.03-.888-1.521.196-.048c1.147-.277 2.046-.627 2.714-1.056H8.25v-4.876h2.722l.126-.545h-3.42v.79c-.065 2.94-.627 5.296-1.712 7.068l-.102.166-1.16-1.209.055-.097C5.56 15.325 6 13.352 6.066 10.804V6.498l.148-.002c3.504-.039 6.615-.311 9.334-.83l.107-.02z" clip-rule="evenodd"/></svg>