<svg width="24" height="24" xmlns="http://www.w3.org/2000/svg" viewBox="0 0 24 24"><g fill="currentColor"><path d="M12 24c6.627 0 12-5.373 12-12S18.627 0 12 0 0 5.373 0 12s5.373 12 12 12zm0-1.714C6.32 22.286 1.714 17.68 1.714 12S6.32 1.714 12 1.714 22.286 6.319 22.286 12c0 5.68-4.605 10.286-10.286 10.286z"/><path d="M8.105 5.506h7.79v4.787h-7.79V5.506zm6.487 3.552V6.741H9.408v2.317h5.184zm-3.25 2.263v6.172H10.08v-.659H7.543v.659H6.267V11.32h5.075zm-3.8 4.293h2.538v-3.059H7.543v3.059zm10.19-4.293v6.172H16.43v-.659h-2.647v.659h-1.276V11.32h5.226zm-3.95 4.293h2.648v-3.059h-2.647v3.059z"/></g></svg>