<svg xmlns="http://www.w3.org/2000/svg" width="22" height="24" fill="none" viewBox="0 0 22 24"><path fill="currentColor" fill-rule="evenodd" d="M.2 6.4a5 5 0 0 1 5-5h11.6a5 5 0 0 1 5 5v8.393a5 5 0 0 1-4.901 5l-2.65.051-2.347 2.466a1.5 1.5 0 0 1-2.173 0l-2.34-2.457H5.2a5 5 0 0 1-5-5V6.4zM10.8 5a3.6 3.6 0 0 0-3.6 3.6h2a1.6 1.6 0 1 1 2.578 1.266l-.01.007c-.017.012-.04.03-.07.05l-.011.009a1.58 1.58 0 0 1-.073.046l.003.007a5.555 5.555 0 0 0-.797.76c-.465.542-1.02 1.417-1.02 2.535h2c0-.442.225-.867.54-1.234a3.556 3.556 0 0 1 .514-.49A3.59 3.59 0 0 0 14.4 8.6a3.6 3.6 0 0 0-3.6-3.599zm1.248 10.531a1.196 1.196 0 1 1-2.392 0 1.196 1.196 0 0 1 2.392 0z" clip-rule="evenodd"/></svg>