<svg width="16" height="16" xmlns="http://www.w3.org/2000/svg" viewBox="0 0 16 16"><path d="M8 0a8 8 0 110 16A8 8 0 018 0zm0 1.333a6.667 6.667 0 100 13.334A6.667 6.667 0 008 1.333zm.036 9.104a.828.828 0 110 1.656.828.828 0 010-1.656zM8 3.867a2.467 2.467 0 011.582 4.359l-.158.121-.086.06c-.43.315-.638.66-.668 1.064l-.003.102H7.333c0-.85.38-1.577 1.094-2.148l.15-.114V7.31l.099-.067a1.127 1.127 0 00.457-.91 1.133 1.133 0 00-2.262-.097l-.004.097H5.533A2.467 2.467 0 018 3.867z" fill-rule="evenodd"/></svg>