<svg xmlns="http://www.w3.org/2000/svg" width="24" height="24" fill="none" viewBox="0 0 24 24"><path fill="currentColor" d="M13.604 6.783h-2.913V6H9.214v.783H6.395v1.34h2.819v.797h1.298c-.09.202-.18.405-.28.617H6.617v1.34h2.809c-.82 1.111-1.914 2.112-3.28 3.002l-.045.029.906 1.204.039-.027c.465-.32.92-.663 1.35-1.019V18.2h1.412v-5.5c.51-.566.945-1.182 1.33-1.822h6.698v-1.34h-6.042c.069-.177.138-.362.207-.546l.02-.056-1.33-.252v-.56h2.915v.809h1.476v-.81h2.82v-1.34h-2.82V6h-1.476v.783z"/><path fill="currentColor" d="m17.049 12.512.02-.015v-1.041h-5.803v1.327h3.61c-.47.284-.835.514-1.094.692l-.022.015v.524h-3.39v1.38h3.39v1.137c0 .109-.03.186-.08.236-.049.05-.125.08-.233.08-.361 0-.84-.04-1.451-.092l-.073-.006.421 1.425h1.635c.404 0 .718-.103.93-.318.213-.215.315-.534.315-.946v-1.516h2.663v-1.38h-2.663v-.133c.693-.516 1.297-.968 1.825-1.369z"/><path fill="currentColor" fill-rule="evenodd" d="M6.5 1.5a5 5 0 0 0-5 5v11a5 5 0 0 0 5 5h11a5 5 0 0 0 5-5v-11a5 5 0 0 0-5-5h-11zm-3 5a3 3 0 0 1 3-3h11a3 3 0 0 1 3 3v11a3 3 0 0 1-3 3h-11a3 3 0 0 1-3-3v-11z" clip-rule="evenodd"/></svg>