<svg width="24" height="24" xmlns="http://www.w3.org/2000/svg" viewBox="0 0 24 24"><g fill="currentColor" fill-rule="evenodd"><path d="M19.5 1.5a3 3 0 013 3v15a3 3 0 01-3 3h-15a3 3 0 01-3-3v-15a3 3 0 013-3h15zm0 2h-15a1 1 0 00-.993.883L3.5 4.5v15a1 1 0 00.883.993l.117.007h15a1 1 0 00.993-.883l.007-.117v-15a1 1 0 00-.883-.993L19.5 3.5z"/><path d="M15.038 8.544v-.91h3.08V6.416h-3.08v-.882h-1.344v.882h-3.388v-.882H8.962v.882h-3.08v1.218h3.08v.896h1.344v-.896h3.388v.91h1.344zM9.354 18.47v-5.88a13.35 13.35 0 001.47-2.03h7.224V9.342h-6.622c.13-.317.224-.56.28-.728l-1.288-.224c-.14.336-.28.653-.42.952H6.106v1.218H9.27c-.905 1.297-2.133 2.445-3.682 3.444l.84 1.092a17.56 17.56 0 001.652-1.26v4.634h1.274zm4.606-.042c.83 0 1.246-.415 1.246-1.246v-1.736h2.926v-1.26h-2.926v-.322a79.82 79.82 0 002.03-1.526v-.952h-6.104v1.204h4.2c-.616.373-1.106.681-1.47.924v.672h-3.71v1.26h3.71v1.358c0 .28-.145.42-.434.42-.373 0-.891-.028-1.554-.084l.392 1.288h1.694z" fill-rule="nonzero"/></g></svg>