<svg width="22" height="24" xmlns="http://www.w3.org/2000/svg" viewBox="0 0 22 24"><path d="M12.886 2.219c-.452-.444-1.192-.168-1.279.434l-.008.104-.072 4.109C4.435 8.289.557 13.118.002 21.176c-.058.84 1.066 1.15 1.436.396 1.77-3.603 4.943-5.672 9.607-6.218l.403-.043v4.38c0 .628.692.976 1.18.64l.084-.066 9.035-8.183a.777.777 0 00.095-1.044l-.072-.082-8.884-8.737zm.502 3.064l6.297 6.193-6.403 5.799v-3.983l-2.01.194c-3.457.334-6.279 1.426-8.423 3.271l-.295.264.082-.275c1.359-4.366 4.316-6.996 8.92-8.013l.331-.07 1.447-.29.054-3.09z" fill-rule="evenodd"/></svg>