<svg xmlns="http://www.w3.org/2000/svg" width="21" height="24" fill="none" viewBox="0 0 21 24"><path fill="currentColor" fill-rule="evenodd" d="M5 1a5 5 0 0 0-5 5v12a5 5 0 0 0 5 5h4v-2H5a3 3 0 0 1-3-3V6a3 3 0 0 1 3-3h10a3 3 0 0 1 3 3v5h2V6a5 5 0 0 0-5-5H5z" clip-rule="evenodd"/><path stroke="currentColor" stroke-width="2" d="m18.337 15.107 1.327 2.278c.29.497.29 1.103.008 1.59l-1.31 2.27c-.281.487-.806.79-1.381.788l-2.637-.01a1.631 1.631 0 0 1-1.401-.81l-1.328-2.278a1.584 1.584 0 0 1-.008-1.59l1.31-2.27c.282-.487.806-.79 1.382-.788l2.637.01a1.63 1.63 0 0 1 1.4.81z"/><circle cx="15.6" cy="18.2" r="1.4" fill="currentColor"/><path stroke="currentColor" stroke-linejoin="round" stroke-width="2" d="M4 9.858h2.667L8.698 13l2.667-7 1.968 3.858H16"/></svg>