<svg xmlns="http://www.w3.org/2000/svg" width="21" height="24" fill="none" viewBox="0 0 21 24"><path fill="currentColor" fill-rule="evenodd" d="M0 6a5 5 0 0 1 5-5h10a5 5 0 0 1 5 5v7.856A6.5 6.5 0 0 0 10.856 23H5a5 5 0 0 1-5-5V6zm15 2H5V6h10v2zm-5 5H5v-2h5v2z" clip-rule="evenodd"/><path fill="currentColor" fill-rule="evenodd" d="M11 19a5 5 0 1 1 10 0 5 5 0 0 1-10 0zm5 1.975-1.494.826a.2.2 0 0 1-.294-.207l.288-1.765-1.228-1.259a.2.2 0 0 1 .113-.337l1.688-.258.746-1.59a.2.2 0 0 1 .362 0l.746 1.59 1.688.258a.2.2 0 0 1 .113.337L17.5 19.83l.288 1.764a.2.2 0 0 1-.294.207L16 20.975z" clip-rule="evenodd"/></svg>