<svg width="24" height="24" fill="none" xmlns="http://www.w3.org/2000/svg" viewBox="0 0 24 24"><path d="M18 17H6v-2h12v2z" fill="currentColor"/><path fill-rule="evenodd" clip-rule="evenodd" d="M8 7a2 2 0 00-2 2v2a2 2 0 002 2h8a2 2 0 002-2V9a2 2 0 00-2-2H8zm0 2h8v2H8V9z" fill="currentColor"/><path fill-rule="evenodd" clip-rule="evenodd" d="M1.5 6.5a5 5 0 015-5h11a5 5 0 015 5v11a5 5 0 01-5 5h-11a5 5 0 01-5-5v-11zm5-3a3 3 0 00-3 3v11a3 3 0 003 3h11a3 3 0 003-3v-11a3 3 0 00-3-3h-11z" fill="currentColor"/></svg>