<svg xmlns="http://www.w3.org/2000/svg" width="21" height="24" fill="none" viewBox="0 0 21 24"><path fill="currentColor" fill-rule="evenodd" d="M5 1a5 5 0 0 0-5 5v12a5 5 0 0 0 5 5h4v-2H5a3 3 0 0 1-3-3V6a3 3 0 0 1 3-3h10a3 3 0 0 1 3 3v5h2V6a5 5 0 0 0-5-5H5z" clip-rule="evenodd"/><path stroke="currentColor" stroke-width="2" d="M5 13h5M5 8h10"/><path stroke="currentColor" stroke-linecap="round" stroke-linejoin="round" stroke-width="1.8" d="M18.738 17.37a3.37 3.37 0 1 1-6.738 0 3.37 3.37 0 0 1 6.738 0z" clip-rule="evenodd"/><path stroke="currentColor" stroke-linejoin="round" stroke-width="1.8" d="m17.706 20.02 2.53 2.529"/></svg>