<svg xmlns="http://www.w3.org/2000/svg" width="24" height="24" fill="none" viewBox="0 0 24 24"><path fill="currentColor" d="M18 17H6v-2h12v2z"/><path fill="currentColor" fill-rule="evenodd" d="M8 7a2 2 0 0 0-2 2v2a2 2 0 0 0 2 2h8a2 2 0 0 0 2-2V9a2 2 0 0 0-2-2H8zm0 2h8v2H8V9z" clip-rule="evenodd"/><path fill="currentColor" fill-rule="evenodd" d="M1.5 6.5a5 5 0 0 1 5-5h11a5 5 0 0 1 5 5v11a5 5 0 0 1-5 5h-11a5 5 0 0 1-5-5v-11zm5-3a3 3 0 0 0-3 3v11a3 3 0 0 0 3 3h11a3 3 0 0 0 3-3v-11a3 3 0 0 0-3-3h-11z" clip-rule="evenodd"/></svg>