<svg xmlns="http://www.w3.org/2000/svg" width="22" height="24" fill="none" viewBox="0 0 22 24"><path stroke="currentColor" stroke-linecap="square" stroke-linejoin="round" stroke-width="2" d="M10.5 22H5a4 4 0 0 1-4-4V6a4 4 0 0 1 4-4h10a4 4 0 0 1 4 4v4.5"/><path stroke="currentColor" stroke-width="2" d="M5.5 14.2h5m-5-5h9m4.894 5.648 1.366 2.344c.303.52.303 1.154.008 1.665l-1.347 2.334a1.66 1.66 0 0 1-1.447.825l-2.713-.01a1.707 1.707 0 0 1-1.466-.847l-1.365-2.344a1.659 1.659 0 0 1-.008-1.665l1.347-2.334c.295-.51.844-.828 1.446-.825l2.713.01a1.707 1.707 0 0 1 1.466.847z"/><circle cx="16.6" cy="18" r="1.4" fill="currentColor"/></svg>