<svg xmlns="http://www.w3.org/2000/svg" width="21" height="24" fill="none" viewBox="0 0 21 24"><path fill="currentColor" fill-rule="evenodd" d="M5 1a5 5 0 0 0-5 5v12a5 5 0 0 0 5 5h4v-2H5a3 3 0 0 1-3-3V6a3 3 0 0 1 3-3h10a3 3 0 0 1 3 3v5h2V6a5 5 0 0 0-5-5H5z" clip-rule="evenodd"/><path stroke="currentColor" stroke-width="2" d="M5 13h5M5 8h10"/><path stroke="currentColor" stroke-linecap="round" stroke-linejoin="round" stroke-width="1.8" d="M12.79 14.553a.4.4 0 0 0-.396.379l-.362 6.955a.4.4 0 0 0 .542.394l3.208-1.223a.4.4 0 0 1 .3.006l2.765 1.183a.4.4 0 0 0 .557-.388l-.36-6.976a.4.4 0 0 0-.403-.38l-5.851.05z" clip-rule="evenodd"/></svg>