<svg xmlns="http://www.w3.org/2000/svg" width="21" height="24" fill="none" viewBox="0 0 21 24"><path fill="currentColor" fill-rule="evenodd" d="M0 6a5 5 0 0 1 5-5h10a5 5 0 0 1 5 5v7.666A6.667 6.667 0 0 0 10.666 23H5a5 5 0 0 1-5-5V6zm15 2H5V6h10v2zm-5 5H5v-2h5v2z" clip-rule="evenodd"/><path fill="currentColor" d="M15.16 17.946a.934.934 0 1 1 .988.933h-.108a.934.934 0 0 1-.88-.933z"/><path fill="currentColor" fill-rule="evenodd" d="M11 19a5 5 0 1 1 10 0 5 5 0 0 1-10 0zm3.663.282a1.958 1.958 0 1 1 2.862 0 2.735 2.735 0 0 1 1.306 2.333h-1.024a1.713 1.713 0 1 0-3.426 0h-1.023c0-.987.522-1.852 1.305-2.333z" clip-rule="evenodd"/></svg>