<svg xmlns="http://www.w3.org/2000/svg" width="16" height="16" fill="none" viewBox="0 0 16 16"><path fill="currentColor" d="M10.666 1.333A2.667 2.667 0 0 1 13.333 4v4.542a4.333 4.333 0 0 0-5.176 6.124H4A2.667 2.667 0 0 1 1.333 12V4A2.667 2.667 0 0 1 4 1.333h6.666zM8.207 3.334a.667.667 0 0 0-.587.429L6.31 7.199l-.64-.989a.668.668 0 0 0-.56-.305H3.333v1.333h1.415l1.157 1.79a.667.667 0 0 0 1.183-.125L8.332 5.64l.629 1.235a.668.668 0 0 0 .595.363h1.777V5.905h-1.37L8.838 3.696a.667.667 0 0 0-.63-.362z"/><path fill="currentColor" fill-rule="evenodd" d="M9.507 11.783a.594.594 0 0 1 0-.84l1.61-1.61.84.84-.597.597h3.758v1.187H9.936a.592.592 0 0 1-.43-.174zm5.044 1.008h.016a.592.592 0 0 1 .452 1.013l-1.611 1.61-.84-.838.597-.597h-3.39V12.79h4.776z" clip-rule="evenodd"/></svg>