<svg xmlns="http://www.w3.org/2000/svg" width="20" height="24" fill="none" viewBox="0 0 20 24"><path fill="currentColor" d="M6.104 15.966c1.259 1.279 1.404 2.654.01 4.072-.865.878-2.265 1.406-4.191 1.632-.1.012-.2.011-.3 0a1.311 1.311 0 0 1-1.14-1.372l.007-.09.028-.228c.236-1.836.747-3.18 1.578-4.024 1.395-1.418 2.749-1.27 4.008.01zm11.533-13.44.217.066.213.07a1.83 1.83 0 0 1 1.128 1.14c.848 2.48.578 4.992-.79 7.482a13.866 13.866 0 0 1-2.163 2.914l-.243.248-.23.226-.007.07c-.16 1.491-1.291 3.464-3.376 6.015l-.181.22-.333.398a.768.768 0 0 1-1.3-.206l-.025-.07-1.166-3.72-.106-.074a18.515 18.515 0 0 1-1.867-1.523l-.29-.276-.284-.282a18.696 18.696 0 0 1-2.253-2.782l-.065-.1L.72 11.114a.793.793 0 0 1-.367-1.248l.045-.051.049-.046c3.122-2.727 5.426-4.08 7.076-3.967l.106.009.061.007.14-.14a13.96 13.96 0 0 1 2.352-1.898l.274-.17.252-.147c2.287-1.297 4.608-1.616 6.929-.937zm-6.998 5.238c-.95.95-.947 2.493.007 3.447a2.438 2.438 0 0 0 3.448.007c.95-.95.946-2.493-.008-3.447a2.438 2.438 0 0 0-3.447-.007z"/></svg>