<svg width="16" height="17" xmlns="http://www.w3.org/2000/svg" viewBox="0 0 16 17"><path d="M2.054 5C.92 5 0 6.007 0 7.25v7.5C0 15.99.923 17 2.054 17h8.892C12.08 17 13 15.99 13 14.75v-7.5C13 6.01 12.08 5 10.95 5zm.003 1.499h8.892c.377 0 .684.337.684.75v7.501c0 .414-.307.751-.684.751H2.057c-.377 0-.684-.337-.684-.75V7.25c0-.414.307-.751.684-.751zM6.587.205L5.215 1.517a.67.67 0 000 .98l1.37 1.313a.74.74 0 00.516.202.741.741 0 00.512-.202.67.67 0 000-.98l-.132-.127c2.103.032 5.627.607 7.126 3.881a.73.73 0 00.665.416c.095 0 .197-.02.292-.055a.686.686 0 00.377-.916c-1.35-2.95-4.43-4.661-8.46-4.717l.135-.126a.67.67 0 000-.981.748.748 0 00-1.027 0z" fill="currentColor"/></svg>