<svg width="16" height="17" xmlns="http://www.w3.org/2000/svg" viewBox="0 0 16 17"><path d="M13.946 5C15.08 5 16 6.007 16 7.25v7.5c0 1.24-.923 2.25-2.054 2.25H5.054C3.92 17 3 15.99 3 14.75v-7.5C3 6.01 3.92 5 5.05 5zm-.003 1.499H5.051c-.377 0-.684.337-.684.75v7.501c0 .414.307.751.684.751h8.892c.377 0 .684-.337.684-.75V7.25c0-.414-.307-.751-.684-.751zM9.413.205l1.373 1.312a.67.67 0 010 .98L9.416 3.81a.74.74 0 01-.516.202.741.741 0 01-.512-.202.67.67 0 010-.98l.132-.127c-2.103.032-5.627.607-7.126 3.881A.73.73 0 01.729 7a.843.843 0 01-.292-.055.686.686 0 01-.377-.916c1.35-2.95 4.43-4.661 8.46-4.717l-.135-.126a.67.67 0 010-.981.748.748 0 011.027 0z" fill="currentColor"/></svg>