<svg xmlns="http://www.w3.org/2000/svg" width="24" height="24" fill="none" viewBox="0 0 24 24"><path fill="currentColor" fill-rule="evenodd" d="m13.5 7.073 2.121-2.122a1.4 1.4 0 0 0 0-1.98l-2.12-2.12-1.274 1.272.71.71a17.846 17.846 0 0 0-1.259-.025c-1.683.025-3.916.3-5.812 1.39a11.41 11.41 0 0 0-3.774 3.5 10.3 10.3 0 0 0-.788 1.378 7.411 7.411 0 0 0-.245.587l-.005.012-.001.005v.002S1.051 9.684 2 10c.95.316.949.317.949.317l-.001.003.004-.013a5.425 5.425 0 0 1 .162-.38c.128-.272.333-.662.635-1.109a9.41 9.41 0 0 1 3.114-2.885c1.467-.844 3.302-1.102 4.846-1.126.553-.008 1.054.014 1.467.045l-.949.948L13.5 7.073zM18 8a5 5 0 0 1 5 5v5a5 5 0 0 1-5 5h-8a5 5 0 0 1-5-5v-5a5 5 0 0 1 5-5h8zm3 5a3 3 0 0 0-3-3h-8a3 3 0 0 0-3 3v5a3 3 0 0 0 3 3h8a3 3 0 0 0 3-3v-5z" clip-rule="evenodd"/></svg>