<svg xmlns="http://www.w3.org/2000/svg" width="22" height="24" fill="none" viewBox="0 0 22 24"><path fill="currentColor" fill-rule="evenodd" d="M7.857 1.5h6.286c1.084 0 1.958 0 2.666.058.729.06 1.369.185 1.961.487a5 5 0 0 1 2.185 2.185c.302.592.428 1.233.487 1.961.058.708.058 1.582.058 2.666v6.286c0 1.084 0 1.958-.058 2.666-.06.729-.185 1.369-.487 1.961a5 5 0 0 1-2.185 2.185c-.592.302-1.232.428-1.961.487-.708.058-1.582.058-2.666.058H7.857c-1.084 0-1.958 0-2.666-.058-.728-.06-1.369-.185-1.961-.487a5 5 0 0 1-2.185-2.185c-.302-.592-.428-1.232-.487-1.961C.5 17.1.5 16.227.5 15.143V8.857C.5 7.773.5 6.9.558 6.191c.06-.728.185-1.369.487-1.96A5 5 0 0 1 3.23 2.044c.592-.302 1.233-.428 1.961-.487C5.9 1.5 6.773 1.5 7.857 1.5zM6 7.8V3.5H4v4.339c0 .527 0 .981.03 1.356.033.395.104.789.297 1.167a3 3 0 0 0 1.311 1.311c.378.193.772.264 1.167.296.375.031.83.031 1.356.031h5.678c.527 0 .981 0 1.356-.03.395-.033.789-.104 1.167-.297a3 3 0 0 0 1.311-1.311c.193-.378.264-.772.296-1.167C18 8.82 18 8.365 18 7.839V3.5h-2v4.3c0 .577 0 .949-.024 1.232-.022.272-.06.373-.085.422a1 1 0 0 1-.437.437c-.05.025-.15.063-.422.085C14.75 10 14.377 10 13.8 10H8.2c-.577 0-.949 0-1.232-.024-.272-.022-.373-.06-.422-.085a1 1 0 0 1-.437-.437c-.025-.05-.063-.15-.085-.422C6 8.75 6 8.377 6 7.8zM5.5 17h11v-2h-11v2zm9.3-9.6a1.4 1.4 0 1 1-2.8 0 1.4 1.4 0 0 1 2.8 0z" clip-rule="evenodd"/></svg>