<svg xmlns="http://www.w3.org/2000/svg" width="24" height="24" fill="none" viewBox="0 0 24 24"><path fill="currentColor" d="M6.5 17h11v-2h-11v2zm9.3-9.6a1.4 1.4 0 1 1-2.8 0 1.4 1.4 0 0 1 2.8 0z"/><path fill="currentColor" fill-rule="evenodd" d="M8.857 1.5c-1.084 0-1.958 0-2.666.058-.728.06-1.369.185-1.96.487A5 5 0 0 0 2.044 4.23c-.302.592-.428 1.233-.487 1.961C1.5 6.9 1.5 7.773 1.5 8.857v6.286c0 1.084 0 1.958.058 2.666.06.729.185 1.369.487 1.961a5 5 0 0 0 2.185 2.185c.592.302 1.233.428 1.961.487.708.058 1.582.058 2.666.058h6.286c1.084 0 1.958 0 2.666-.058.729-.06 1.369-.185 1.961-.487a5 5 0 0 0 2.185-2.185c.302-.592.428-1.232.487-1.961.058-.708.058-1.582.058-2.666V8.857c0-1.084 0-1.958-.058-2.666-.06-.728-.185-1.369-.487-1.96a5 5 0 0 0-2.185-2.186c-.592-.302-1.232-.428-1.961-.487C17.1 1.5 16.227 1.5 15.143 1.5H8.857zM5 3.902a3 3 0 0 0-1.173 1.236c-.134.263-.226.611-.276 1.216-.05.617-.051 1.41-.051 2.546v6.2c0 1.137 0 1.929.051 2.546.05.605.142.953.276 1.216a3 3 0 0 0 1.311 1.311c.263.134.611.226 1.216.276.617.05 1.41.051 2.546.051h6.2c1.137 0 1.929 0 2.546-.051.605-.05.953-.142 1.216-.276a3 3 0 0 0 1.311-1.311c.134-.263.226-.611.276-1.216.05-.617.051-1.41.051-2.546V8.9c0-1.137 0-1.929-.051-2.546-.05-.605-.142-.953-.276-1.216A3 3 0 0 0 19 3.902v3.937c0 .527 0 .981-.03 1.356-.033.395-.104.789-.297 1.167a3 3 0 0 1-1.311 1.311c-.378.193-.772.264-1.167.296-.375.031-.83.031-1.357.031H9.162c-.527 0-.981 0-1.356-.03-.395-.033-.789-.104-1.167-.297a3 3 0 0 1-1.311-1.311c-.193-.378-.264-.772-.296-1.167C5 8.82 5 8.365 5 7.839V3.902zm12-.385a63.997 63.997 0 0 0-1.9-.017H8.9c-.776 0-1.391 0-1.9.017V7.8c0 .577 0 .949.024 1.232.022.272.06.373.085.422a1 1 0 0 0 .437.437c.05.025.15.063.422.085C8.25 10 8.623 10 9.2 10h5.6c.577 0 .949 0 1.232-.024.272-.022.372-.06.422-.085a1 1 0 0 0 .437-.437c.025-.05.063-.15.085-.422C17 8.75 17 8.377 17 7.8V3.517z" clip-rule="evenodd"/></svg>