<svg width="24" height="24" fill="none" xmlns="http://www.w3.org/2000/svg" viewBox="0 0 24 24"><path fill-rule="evenodd" clip-rule="evenodd" d="M15.5 5.5a3.8 3.8 0 00-2.954 6.19l-2.103 2.035 1.113 1.15 2.246-2.175A3.8 3.8 0 1015.5 5.5zm-2.2 3.8a2.2 2.2 0 114.4 0 2.2 2.2 0 01-4.4 0z" fill="currentColor"/><path d="M5.1 7.2h5V5.8h-5v1.4zm4 3.5h-4V9.3h4v1.4zm-4 3.5h3v-1.4h-3v1.4z" fill="currentColor"/><path fill-rule="evenodd" clip-rule="evenodd" d="M7.462 2.3h9.076c.808 0 1.468 0 2.006.044.555.045 1.058.142 1.526.381a3.9 3.9 0 011.705 1.704c.239.47.335.971.38 1.527.045.537.045 1.198.045 2.006v4.476c0 .808 0 1.469-.044 2.006-.046.556-.142 1.058-.381 1.526a3.9 3.9 0 01-1.705 1.705c-.468.239-.97.336-1.526.381-.538.044-1.198.044-2.006.044H7.462c-.808 0-1.469 0-2.006-.044-.556-.045-1.058-.142-1.527-.381a3.9 3.9 0 01-1.704-1.705c-.239-.468-.336-.97-.381-1.526-.044-.537-.044-1.198-.044-2.006V7.962c0-.808 0-1.469.044-2.006.045-.556.142-1.058.38-1.527A3.9 3.9 0 013.93 2.725c.47-.239.971-.336 1.527-.381C5.993 2.3 6.654 2.3 7.462 2.3zm-1.86 1.838c-.444.036-.683.103-.856.19a2.1 2.1 0 00-.917.919c-.088.172-.155.411-.191.856C3.6 6.558 3.6 7.145 3.6 8v4.4c0 .855 0 1.442.038 1.897.036.445.103.683.19.856a2.1 2.1 0 00.918.918c.173.088.412.155.857.191.455.037 1.042.038 1.897.038h9c.855 0 1.442 0 1.897-.038.445-.036.683-.103.856-.19a2.1 2.1 0 00.918-.919c.088-.173.155-.411.19-.856.038-.455.039-1.042.039-1.897V8c0-.855 0-1.442-.038-1.897-.036-.445-.103-.684-.191-.856a2.1 2.1 0 00-.918-.918c-.173-.088-.412-.155-.856-.191C17.942 4.1 17.355 4.1 16.5 4.1h-9c-.855 0-1.442 0-1.897.038z" fill="currentColor"/><path d="M20.9 21.7H3.1v-1.8h17.8v1.8z" fill="currentColor"/></svg>