<svg width="21" height="24" xmlns="http://www.w3.org/2000/svg" viewBox="0 0 21 24"><path d="M21 20.674V22.5H0v-1.826h21zM18 1.5c1.657 0 3 1.349 3 3.013v11.048a3.007 3.007 0 01-3 3.013H3c-1.657 0-3-1.35-3-3.013V4.513A3.007 3.007 0 013 1.5h15zm0 1.826H3c-.612 0-1.115.467-1.176 1.066l-.006.121v11.048c0 .614.465 1.12 1.061 1.18l.121.007h15c.612 0 1.115-.467 1.176-1.066l.006-.121V4.513c0-.615-.465-1.12-1.061-1.18L18 3.325zm-4.182 1.415c2.435 0 4.41 1.983 4.41 4.429 0 2.445-1.975 4.428-4.41 4.428a4.37 4.37 0 01-2.083-.525L9.77 14.984l-1.265-1.312 1.834-1.783a4.421 4.421 0 01-.929-2.72c0-2.445 1.974-4.428 4.41-4.428zm-8.318 8.4v1.826h-2v-1.826h2zm8.318-6.574a2.597 2.597 0 00-2.59 2.603 2.597 2.597 0 002.59 2.602 2.597 2.597 0 002.591-2.602 2.597 2.597 0 00-2.59-2.603zM6.5 9.124v1.826h-3V9.124h3zM8 5.107v1.826H3.5V5.107H8z" fill-rule="evenodd"/></svg>