<svg width="24" height="24" fill="none" xmlns="http://www.w3.org/2000/svg" viewBox="0 0 24 24"><path fill-rule="evenodd" clip-rule="evenodd" d="M13.6 4.7a4.7 4.7 0 102.958 8.353l1.461 1.461 1.273-1.273-1.574-1.574A4.7 4.7 0 0013.6 4.7zm-2.9 4.7a2.9 2.9 0 115.8 0 2.9 2.9 0 01-5.8 0z" fill="currentColor"/><path fill-rule="evenodd" clip-rule="evenodd" d="M19.867 18.64A4.446 4.446 0 0115.556 22H7a5 5 0 01-5-5V8.889A4.891 4.891 0 015.311 4.26 5.002 5.002 0 0110 1h8a5 5 0 015 5v8c0 2.102-1.297 3.9-3.133 4.64zM5 6.703c-.612.53-1 1.313-1 2.186V17a3 3 0 003 3h8.556c.81 0 1.527-.394 1.972-1H10a5 5 0 01-5-5V6.703zM7 6a3 3 0 013-3h8a3 3 0 013 3v8a3 3 0 01-3 3h-8a3 3 0 01-3-3V6z" fill="currentColor"/></svg>