<svg xmlns="http://www.w3.org/2000/svg" width="21" height="24" fill="none" viewBox="0 0 21 24"><path fill="currentColor" d="M8.7 9.4a2.9 2.9 0 1 1 5.8 0 2.9 2.9 0 0 1-5.8 0z"/><path fill="currentColor" fill-rule="evenodd" d="M17.703 18.703A5.002 5.002 0 0 1 13 22H5a5 5 0 0 1-5-5V9a5.002 5.002 0 0 1 3.297-4.703A5.002 5.002 0 0 1 8 1h8a5 5 0 0 1 5 5v8a5.002 5.002 0 0 1-3.297 4.703zM3 6.763C2.386 7.314 2 8.112 2 9v8a3 3 0 0 0 3 3h8a2.99 2.99 0 0 0 2.236-1H8a5 5 0 0 1-5-5V6.764zM11.6 4.7a4.7 4.7 0 1 0 2.958 8.353l1.461 1.461 1.273-1.273-1.574-1.574A4.7 4.7 0 0 0 11.6 4.7z" clip-rule="evenodd"/></svg>