<svg width="24" height="24" fill="none" xmlns="http://www.w3.org/2000/svg" viewBox="0 0 24 24"><path fill-rule="evenodd" clip-rule="evenodd" d="M12 7.5a4.5 4.5 0 100 9 4.5 4.5 0 000-9zM9.5 12a2.5 2.5 0 115 0 2.5 2.5 0 01-5 0z" fill="currentColor"/><path fill-rule="evenodd" clip-rule="evenodd" d="M5.422 4.286a1 1 0 00-1.257.138A10.984 10.984 0 001.5 8.9a1 1 0 00.4 1.126 2 2 0 01-.113 3.394l-.024.014a1 1 0 00-.489 1.09 11.047 11.047 0 002.514 4.916 1 1 0 001.331.15 2 2 0 013.137 1.975 1 1 0 00.707 1.137c1.799.52 3.729.582 5.6.135a1 1 0 00.746-1.185 2.001 2.001 0 013.3-1.906 1 1 0 001.4-.052 10.998 10.998 0 002.683-4.918 1 1 0 00-.631-1.181 2 2 0 01-.142-3.704 1 1 0 00.536-1.227 11.053 11.053 0 00-3-4.636 1 1 0 00-1.19-.122l-.024.014a2 2 0 01-2.996-1.599 1 1 0 00-.774-.91 10.984 10.984 0 00-5.211.07 1 1 0 00-.748 1.02 2 2 0 01-3.089 1.784zM4.25 9.689a4.004 4.004 0 00-.624-.818A8.984 8.984 0 015.11 6.355a3.992 3.992 0 003.402-.282 3.992 3.992 0 001.946-2.805 8.985 8.985 0 012.921-.029 4.001 4.001 0 005.187 2.724 9.03 9.03 0 011.709 2.601 4.001 4.001 0 00.253 6.485 9 9 0 01-1.422 2.63 3.996 3.996 0 00-3.844.085 3.996 3.996 0 00-1.996 3.286c-1 .14-2.011.109-2.988-.084a4 4 0 00-5.49-3.461 9.112 9.112 0 01-1.397-2.78 4.001 4.001 0 00.858-5.036z" fill="currentColor"/></svg>