<svg xmlns="http://www.w3.org/2000/svg" width="24" height="24" fill="none" viewBox="0 0 24 24"><path fill="currentColor" fill-rule="evenodd" d="M12 7.5a4.5 4.5 0 1 0 0 9 4.5 4.5 0 0 0 0-9zM9.5 12a2.5 2.5 0 1 1 5 0 2.5 2.5 0 0 1-5 0z" clip-rule="evenodd"/><path fill="currentColor" fill-rule="evenodd" d="M5.422 4.286a1 1 0 0 0-1.257.138A10.984 10.984 0 0 0 1.5 8.9a1 1 0 0 0 .4 1.126 2 2 0 0 1-.113 3.394l-.024.014a1 1 0 0 0-.489 1.09 11.047 11.047 0 0 0 2.514 4.916 1 1 0 0 0 1.331.15 2 2 0 0 1 3.137 1.975 1 1 0 0 0 .707 1.137c1.799.52 3.729.582 5.6.135a1 1 0 0 0 .746-1.185 2.001 2.001 0 0 1 3.3-1.906 1 1 0 0 0 1.4-.052 10.998 10.998 0 0 0 2.683-4.918 1 1 0 0 0-.631-1.181 2 2 0 0 1-.142-3.704 1 1 0 0 0 .536-1.227 11.053 11.053 0 0 0-3-4.636 1 1 0 0 0-1.19-.122l-.024.014a2 2 0 0 1-2.996-1.599 1 1 0 0 0-.774-.91 10.984 10.984 0 0 0-5.211.07 1 1 0 0 0-.748 1.02 2 2 0 0 1-3.089 1.784zM4.25 9.689a4.004 4.004 0 0 0-.624-.818A8.984 8.984 0 0 1 5.11 6.355a3.992 3.992 0 0 0 3.402-.282 3.992 3.992 0 0 0 1.946-2.805 8.985 8.985 0 0 1 2.921-.029 4.001 4.001 0 0 0 5.187 2.724 9.03 9.03 0 0 1 1.709 2.601 4.001 4.001 0 0 0 .253 6.485 9 9 0 0 1-1.422 2.63 3.996 3.996 0 0 0-3.844.085 3.996 3.996 0 0 0-1.996 3.286c-1 .14-2.011.109-2.988-.084a4 4 0 0 0-5.49-3.461 9.112 9.112 0 0 1-1.397-2.78 4.001 4.001 0 0 0 .858-5.036z" clip-rule="evenodd"/></svg>