<svg width="24" height="24" xmlns="http://www.w3.org/2000/svg" viewBox="0 0 24 24"><path d="M23.197 15.024l-1.777-1.497a9.486 9.486 0 000-3.091l1.777-1.498a.849.849 0 00.252-.941l-.025-.07a11.827 11.827 0 00-2.16-3.687l-.05-.056a.879.879 0 00-.952-.254l-2.204.772a9.589 9.589 0 00-2.704-1.54L14.93.89a.863.863 0 00-.7-.687L14.157.19a12.42 12.42 0 00-4.312 0l-.073.013a.863.863 0 00-.7.687l-.428 2.284a9.574 9.574 0 00-2.685 1.535l-2.22-.778a.876.876 0 00-.952.254l-.05.056a11.888 11.888 0 00-2.16 3.687l-.025.07a.851.851 0 00.252.941l1.798 1.514a9.281 9.281 0 00-.124 1.526c0 .514.04 1.027.124 1.527L.803 15.02a.849.849 0 00-.252.941l.025.07a11.858 11.858 0 002.16 3.687l.05.056c.233.27.61.372.952.254l2.22-.778a9.51 9.51 0 002.685 1.535l.428 2.284c.065.35.345.623.7.687l.073.013a12.353 12.353 0 004.312 0l.073-.013a.863.863 0 00.7-.687l.425-2.273a9.524 9.524 0 002.704-1.54l2.204.772a.876.876 0 00.952-.254l.05-.056a11.888 11.888 0 002.16-3.687l.025-.07a.845.845 0 00-.252-.936zm-3.702-4.273a7.465 7.465 0 010 2.466l-.179 1.072 2.026 1.709a9.862 9.862 0 01-1.155 1.968l-2.517-.88-.851.69A7.605 7.605 0 0114.669 19l-1.034.382-.485 2.594a10.38 10.38 0 01-2.305 0l-.486-2.6-1.025-.387A7.612 7.612 0 017.2 17.768l-.851-.693-2.533.888a10.071 10.071 0 01-1.155-1.968l2.047-1.725-.176-1.07c-.065-.398-.1-.81-.1-1.216 0-.41.032-.818.1-1.217l.176-1.07-2.047-1.724a9.862 9.862 0 011.155-1.968l2.533.887L7.2 6.2a7.612 7.612 0 012.134-1.222l1.028-.383.486-2.599a10.38 10.38 0 012.304 0l.486 2.594 1.033.382c.778.29 1.502.701 2.15 1.225l.852.69 2.516-.88c.461.613.846 1.273 1.155 1.968l-2.025 1.71.176 1.066zm-7.492-3.74c-2.636 0-4.773 2.106-4.773 4.705 0 2.6 2.137 4.707 4.773 4.707 2.635 0 4.772-2.107 4.772-4.707 0-2.599-2.137-4.706-4.772-4.706zm2.147 6.823a3.048 3.048 0 01-2.147.877 3.045 3.045 0 01-2.148-.877 2.964 2.964 0 010-4.235 3.037 3.037 0 012.148-.878c.81 0 1.572.31 2.147.878a2.964 2.964 0 010 4.235z" fill-rule="evenodd"/></svg>