<svg xmlns="http://www.w3.org/2000/svg" width="16" height="16" fill="none" viewBox="0 0 16 16"><path fill="currentColor" d="M7.16.744A1.34 1.34 0 0 1 7.823.74l1.454.364a4 4 0 0 0 5.056 5.59v3.354a1.967 1.967 0 0 1-.707 1.517 45.81 45.81 0 0 1-2.9 2.226 16.81 16.81 0 0 1-1.689 1.053c-.497.261-1.059.5-1.542.5-.49 0-1.04-.243-1.52-.507a15.147 15.147 0 0 1-1.608-1.06 40.435 40.435 0 0 1-2.715-2.232A1.962 1.962 0 0 1 1 10.078V3.4a1.334 1.334 0 0 1 .992-1.289L7.16.744zm2.02 5.201a.67.67 0 0 0-1.256-.05L6.592 9.082l-.883-1.325H3.5v1.22h1.557l1.089 1.633a.67.67 0 0 0 1.176-.113L8.48 7.73l.254.785c.09.276.348.462.638.463H11.5v-1.22H9.77l-.59-1.812zM12.837.5l.308.741a2.68 2.68 0 0 0 1.38 1.428l.808.36v.622l-.834.371a2.678 2.678 0 0 0-1.361 1.382l-.303.696h-.603l-.303-.696a2.678 2.678 0 0 0-1.362-1.382l-.834-.37v-.623l.809-.36a2.68 2.68 0 0 0 1.38-1.428L12.23.5h.608z"/></svg>