<svg width="20" height="24" fill="none" xmlns="http://www.w3.org/2000/svg" viewBox="0 0 20 24"><g clip-path="url(#clip0_1015_14196)"><path fill-rule="evenodd" clip-rule="evenodd" d="M10.235 1.092a2 2 0 00-.996.007l-7.75 2.05A2 2 0 000 5.083v10.016c0 .831.344 1.635.978 2.201.856.764 2.451 2.15 4.073 3.349.81.598 1.646 1.166 2.413 1.589.72.396 1.545.762 2.279.762.725 0 1.567-.36 2.313-.752.797-.419 1.676-.983 2.534-1.579 1.717-1.194 3.427-2.575 4.349-3.34A2.95 2.95 0 0020 15.054v-9.96a2 2 0 00-1.515-1.94l-8.25-2.062zm-.516 13.737l1.896-4.54.42 1.287a1.1 1.1 0 001.045.76h2.662v-2h-2.008l-.968-2.973c-.316-.97-1.668-1.025-2.061-.083l-2.184 5.228-1.152-1.727-.297-.446H4.258v2h1.744l1.786 2.68a1.1 1.1 0 001.93-.186z" fill="currentColor"/></g><defs><clipPath id="clip0_1015_14196"><path fill="currentColor" d="M0 0h20v24H0z"/></clipPath></defs></svg>