<svg xmlns="http://www.w3.org/2000/svg" width="20" height="24" fill="none" viewBox="0 0 20 24"><path stroke="currentColor" stroke-linecap="square" stroke-linejoin="round" stroke-width="2" d="M1 11.66V6.367a2 2 0 0 1 1.275-1.864l6.275-2.44a4 4 0 0 1 2.9 0l6.275 2.44A2 2 0 0 1 19 6.368v5.291a10 10 0 0 1-6.376 9.32l-2.262.88a1 1 0 0 1-.724 0l-2.262-.88A10 10 0 0 1 1 11.66z"/><path stroke="currentColor" stroke-width="1.8" d="M14 16.4a4 4 0 0 0-8 0"/><path stroke="currentColor" stroke-width="1.8" d="M12.6 9.8a2.6 2.6 0 1 1-5.2 0 2.6 2.6 0 0 1 5.2 0z"/></svg>