<svg width="22" height="24" xmlns="http://www.w3.org/2000/svg" viewBox="0 0 22 24"><path d="M19.063 1c.826 0 1.512.637 1.572 1.46l1.36 18.855a1.573 1.573 0 01-1.458 1.68l-.113.005H1.576C.706 23 0 22.296 0 21.428l.004-.113L1.365 2.46C1.425 1.637 2.111 1 2.937 1h16.126zm-.4 2H3.336L2.037 20.998h17.925L18.662 3zm-3.739 3.002c.554 0 1.003.448 1.003 1a5.008 5.008 0 01-5.014 5.002A5.008 5.008 0 015.9 7.002a1.002 1.002 0 012.006 0 3.005 3.005 0 003.008 3.001 3.005 3.005 0 003.003-2.824l.006-.177a1 1 0 011.002-1z" fill="currentColor" fill-rule="evenodd"/></svg>