<svg xmlns="http://www.w3.org/2000/svg" width="22" height="24" fill="none" viewBox="0 0 22 24"><path fill="currentColor" d="M2.196 3.5H.5v-2h1.696a3 3 0 0 1 2.995 2.816l.576 9.368A3 3 0 0 0 8.761 16.5H21v2H8.761a5 5 0 0 1-4.99-4.693L3.194 4.44a1 1 0 0 0-.998-.939z"/><path fill="currentColor" d="M8.275 3a1.5 1.5 0 0 0-1.496 1.614l.687 8.979a1.5 1.5 0 0 0 1.564 1.384l7.946-.361a4 4 0 0 0 3.795-3.565l.512-4.728A3 3 0 0 0 18.302 3H8.275zM9 21a1.5 1.5 0 1 1-3 0 1.5 1.5 0 0 1 3 0zm8.5 1.5a1.5 1.5 0 1 0 0-3 1.5 1.5 0 0 0 0 3z"/></svg>