<svg width="24" height="24" fill="none" xmlns="http://www.w3.org/2000/svg" viewBox="0 0 24 24"><path fill-rule="evenodd" clip-rule="evenodd" d="M4 2a2 2 0 00-2 2v2a2 2 0 002 2h7a2 2 0 002-2V4a2 2 0 00-2-2H4zm0 2h7v2H4V4z" fill="currentColor"/><path d="M4 17V9H2v8a5 5 0 005 5h10a5 5 0 005-5V9h-2v8a3 3 0 01-3 3H7a3 3 0 01-3-3z" fill="currentColor"/><path fill-rule="evenodd" clip-rule="evenodd" d="M15 4a2 2 0 012-2h3a2 2 0 012 2v2a2 2 0 01-2 2h-3a2 2 0 01-2-2V4zm5 0h-3v2h3V4zm-8.963 6.38A1.3 1.3 0 009 11.45v5.1a1.3 1.3 0 002.037 1.07l3.708-2.549a1.3 1.3 0 000-2.142l-3.708-2.55zM13.479 14L10.6 15.98v-3.96L13.479 14z" fill="currentColor"/></svg>