<svg xmlns="http://www.w3.org/2000/svg" width="20" height="24" fill="none" viewBox="0 0 20 24"><path fill="currentColor" d="M2 2a2 2 0 0 0-2 2v2a2 2 0 0 0 2 2h7a2 2 0 0 0 2-2V4a2 2 0 0 0-2-2H2z"/><path fill="currentColor" fill-rule="evenodd" d="M2 9.5a2 2 0 0 0-2 2V17a5 5 0 0 0 5 5h10a5 5 0 0 0 5-5v-5.5a2 2 0 0 0-2-2H2zm5.7 4c0-1.071 1.223-1.683 2.08-1.04l2.667 2a1.3 1.3 0 0 1 0 2.08l-2.667 2c-.857.643-2.08.031-2.08-1.04v-4z" clip-rule="evenodd"/><path fill="currentColor" d="M13 4a2 2 0 0 1 2-2h3a2 2 0 0 1 2 2v2a2 2 0 0 1-2 2h-3a2 2 0 0 1-2-2V4z"/></svg>