<svg xmlns="http://www.w3.org/2000/svg" width="24" height="24" fill="none" viewBox="0 0 24 24"><path fill="currentColor" fill-rule="evenodd" d="M12 1c.55 0 1.09.04 1.619.118a6.952 6.952 0 0 0-.557 1.944 9 9 0 1 0 7.876 7.876 6.951 6.951 0 0 0 1.944-.557C22.96 10.91 23 11.45 23 12c0 6.075-4.925 11-11 11S1 18.075 1 12 5.925 1 12 1zM9.25 9.25a1.65 1.65 0 1 1-3.3 0 1.65 1.65 0 0 1 3.3 0zM7.6 14.1a4.4 4.4 0 0 0 8.8 0H7.6zm11.7-5.085-.277.636a.57.57 0 0 1-1.05 0l-.278-.636A4.905 4.905 0 0 0 15.2 6.484l-.854-.38c-.462-.206-.462-.878 0-1.083l.807-.359a4.91 4.91 0 0 0 2.53-2.615l.285-.688a.57.57 0 0 1 1.059 0l.284.688a4.91 4.91 0 0 0 2.531 2.615l.807.359c.462.205.462.877 0 1.083l-.854.38a4.906 4.906 0 0 0-2.495 2.53z" clip-rule="evenodd"/></svg>