<svg width="24" height="24" fill="none" xmlns="http://www.w3.org/2000/svg" viewBox="0 0 24 24"><path d="M8.3 11.4a1.5 1.5 0 100-3 1.5 1.5 0 000 3zm9-1.5a1.5 1.5 0 11-3 0 1.5 1.5 0 013 0zm-8.315 4.353a1 1 0 10-1.789.894c.619 1.237 2.114 2.887 4.804 2.887 2.644 0 4.342-1.601 4.985-2.887a1 1 0 10-1.789-.894c-.357.714-1.422 1.78-3.196 1.78-1.728 0-2.633-1.017-3.015-1.78z" fill="currentColor"/><path fill-rule="evenodd" clip-rule="evenodd" d="M12 1C5.925 1 1 5.925 1 12s4.925 11 11 11 11-4.925 11-11S18.075 1 12 1zM3 12a9 9 0 1118 0 9 9 0 01-18 0z" fill="currentColor"/></svg>