<svg width="24" height="24" xmlns="http://www.w3.org/2000/svg" viewBox="0 0 24 24"><path d="M11.823 0c6.53 0 11.823 5.293 11.823 11.823s-5.293 11.823-11.823 11.823S0 18.353 0 11.823 5.293 0 11.823 0zm0 2C6.398 2 2 6.398 2 11.823c0 5.425 4.398 9.823 9.823 9.823 5.425 0 9.823-4.398 9.823-9.823C21.646 6.398 17.248 2 11.823 2zM7.859 14a.878.878 0 01.797.463c.58.978 1.895 1.608 3.349 1.608 1.454 0 2.77-.632 3.35-1.61a.895.895 0 01.561-.422.837.837 0 01.672.13c.415.288.537.883.272 1.332C15.945 17.043 14.086 18 12.005 18c-2.08 0-3.938-.957-4.853-2.498a1.03 1.03 0 01-.055-.975.891.891 0 01.762-.526zM8.5 8a1.5 1.5 0 110 3 1.5 1.5 0 010-3zm7 0a1.5 1.5 0 110 3 1.5 1.5 0 010-3z" fill="currentColor" fill-rule="evenodd"/></svg>