<svg xmlns="http://www.w3.org/2000/svg" width="24" height="24" fill="none" viewBox="0 0 24 24"><path fill="currentColor" fill-rule="evenodd" d="M1.2 6.4a5 5 0 0 1 5-5h11.6a5 5 0 0 1 5 5v8.393a5 5 0 0 1-4.902 4.999l-2.649.052-2.348 2.465a1.5 1.5 0 0 1-2.172 0l-2.34-2.456h-2.19a5 5 0 0 1-5-5V6.4zm5-3a3 3 0 0 0-3 3v8.453a3 3 0 0 0 3 3h2.617a1 1 0 0 1 .725.31l2.273 2.387 2.274-2.387a1 1 0 0 1 .704-.31l3.066-.06a3 3 0 0 0 2.94-3V6.4a3 3 0 0 0-3-3H6.2zM12 14a5 5 0 0 1-5-5h2a3 3 0 1 0 6 0h2a5 5 0 0 1-5 5z" clip-rule="evenodd"/></svg>