<svg width="24" height="24" fill="none" xmlns="http://www.w3.org/2000/svg" viewBox="0 0 24 24"><path fill-rule="evenodd" clip-rule="evenodd" d="M10.5 8.6a1.9 1.9 0 00-1.9 1.9v3c0 1.05.85 1.9 1.9 1.9h3a1.9 1.9 0 001.9-1.9v-3a1.9 1.9 0 00-1.9-1.9h-3zm-.1 1.9a.1.1 0 01.1-.1h3a.1.1 0 01.1.1v3a.1.1 0 01-.1.1h-3a.1.1 0 01-.1-.1v-3z" fill="currentColor"/><path fill-rule="evenodd" clip-rule="evenodd" d="M12 .3a3.6 3.6 0 013.348 2.275 10.002 10.002 0 016.338 11.92 3.6 3.6 0 01-4.075 5.783A9.958 9.958 0 0112 22a9.958 9.958 0 01-5.343-1.545 3.6 3.6 0 01-4.294-5.775A10.01 10.01 0 012 12c0-4.35 2.777-8.049 6.652-9.425A3.601 3.601 0 0112 .3zm0 2a1.6 1.6 0 100 3.2 1.6 1.6 0 000-3.2zM4 12a8.001 8.001 0 014.513-7.202 3.601 3.601 0 006.974 0 8.001 8.001 0 014.376 8.683 3.6 3.6 0 00-3.82 5.423A7.96 7.96 0 0112.001 20a7.958 7.958 0 01-4.076-1.115 3.6 3.6 0 00-3.692-4.967A8.021 8.021 0 014 12zm15.1 3.4a1.6 1.6 0 100 3.2 1.6 1.6 0 000-3.2zM3 17.5a1.6 1.6 0 113.2 0 1.6 1.6 0 01-3.2 0z" fill="currentColor"/></svg>