<svg width="24" height="24" xmlns="http://www.w3.org/2000/svg" viewBox="0 0 24 24"><path d="M3.5 15a3.5 3.5 0 013.266 4.761A8.698 8.698 0 0012 21.5c.548 0 1.09-.05 1.62-.15l.394-.083.459 1.947c-.805.19-1.633.286-2.473.286a10.71 10.71 0 01-6.46-2.156A3.5 3.5 0 113.5 15zM18.911 4.516a10.727 10.727 0 013.839 8.234c0 .955-.125 1.893-.368 2.798A3.5 3.5 0 1120.5 15l-.042.002a8.764 8.764 0 00.292-2.252 8.725 8.725 0 00-2.893-6.5l-.232-.203 1.286-1.531zM3.5 17a1.5 1.5 0 100 3 1.5 1.5 0 000-3zm17 0a1.5 1.5 0 100 3 1.5 1.5 0 000-3zM14 9a2 2 0 012 2v4a2 2 0 01-2 2h-4a2 2 0 01-2-2v-4a2 2 0 012-2zm0 2h-4v4h4v-4zM12 0a3.5 3.5 0 11-3.356 4.498c-2.533.97-4.49 3.278-5.143 6.142l-.063.295-1.963-.382c.768-3.946 3.565-7.12 7.21-8.178A3.502 3.502 0 0112 0zm0 2a1.5 1.5 0 100 3 1.5 1.5 0 000-3z" fill-rule="evenodd"/></svg>