<svg width="24" height="24" xmlns="http://www.w3.org/2000/svg" viewBox="0 0 24 24"><g fill="none" fill-rule="evenodd"><path d="M0 0h24v24H0z"/><path d="M10.82 1.906l-2.495 5.3-5.56.849a1.295 1.295 0 00-.757.402l-.091.108a1.348 1.348 0 00.114 1.745l4.047 4.137-.957 5.854c-.046.28-.002.569.125.823l.068.12a1.296 1.296 0 001.722.445L12 18.951l4.964 2.738c.26.143.56.193.852.14l.131-.03c.64-.184 1.04-.831.932-1.498l-.958-5.854 4.048-4.137c.2-.205.329-.47.368-.753l.012-.134a1.324 1.324 0 00-1.113-1.368l-5.562-.849-2.494-5.3a1.299 1.299 0 00-2.36 0zM12 3.392l2.33 4.95.058.104a.85.85 0 00.582.374l5.289.805-3.853 3.941-.075.088a.85.85 0 00-.157.644l.901 5.51-4.665-2.571-.112-.052a.85.85 0 00-.708.052l-4.666 2.571.902-5.51.01-.115a.85.85 0 00-.242-.617L3.74 9.625l5.29-.805a.85.85 0 00.64-.479L12 3.392z" fill="currentColor" fill-rule="nonzero"/><rect fill="currentColor" x="9.6" y="14" width="4.5" height="1.7" rx=".85"/></g></svg>