<svg xmlns="http://www.w3.org/2000/svg" width="24" height="24" fill="none" viewBox="0 0 24 24"><path fill="currentColor" d="M14.5 13.5h-5v2h5v-2z"/><path fill="currentColor" fill-rule="evenodd" d="M13.81 2.604c-.72-1.534-2.9-1.534-3.62 0l-2.051 4.37-4.666.712c-1.61.246-2.266 2.209-1.13 3.374l3.439 3.524-.803 4.922c-.269 1.648 1.48 2.88 2.941 2.073L12 19.324l4.08 2.255c1.46.808 3.21-.425 2.941-2.073l-.803-4.922 3.439-3.524c1.137-1.165.48-3.128-1.13-3.374l-4.666-.713-2.05-4.37zM9.496 8.789 12 3.453l2.504 5.336 5.721.874-4.143 4.247.965 5.918L12 17.038l-5.047 2.79.965-5.918-4.143-4.247 5.72-.874z" clip-rule="evenodd"/></svg>