<svg width="24" height="24" fill="none" xmlns="http://www.w3.org/2000/svg" viewBox="0 0 24 24"><path d="M8.553 20.708c1.102.485 2.296.728 3.584.728.971 0 1.84-.13 2.604-.392.766-.28 1.42-.653 1.96-1.12a4.893 4.893 0 001.232-1.68 4.74 4.74 0 00.448-2.044c0-.672-.102-1.26-.308-1.764a4.21 4.21 0 00-.466-.936H22v-2h-6.96c-.144-.07-.29-.136-.438-.2l-2.604-1.12c-.374-.15-.738-.308-1.092-.476a7.283 7.283 0 01-.98-.616 3.304 3.304 0 01-.729-.812c-.168-.317-.252-.7-.252-1.148 0-.84.308-1.493.924-1.96.635-.485 1.466-.728 2.492-.728.86 0 1.624.159 2.296.476a6.282 6.282 0 011.877 1.26l1.26-1.512c-.654-.672-1.447-1.213-2.38-1.624-.934-.43-1.951-.644-3.053-.644-.84 0-1.614.121-2.324.364a5.637 5.637 0 00-1.82 1.036c-.504.43-.905.943-1.204 1.54a4.495 4.495 0 00-.42 1.932c0 .672.112 1.27.336 1.792.224.504.514.943.868 1.316.355.373.756.69 1.204.952.102.06.203.117.304.172H2v2h11.677l.476.236c.374.187.691.401.952.644.28.224.495.504.644.84.168.317.252.71.252 1.176 0 .896-.336 1.624-1.008 2.184-.671.541-1.614.812-2.828.812a6.584 6.584 0 01-2.772-.616 7.925 7.925 0 01-2.296-1.68l-1.4 1.624a8.827 8.827 0 002.856 1.988z" fill="currentColor"/></svg>