<svg width="21" height="24" xmlns="http://www.w3.org/2000/svg" viewBox="0 0 21 24"><path d="M10.87 2c2.376 0 4.401.976 5.751 2.375l-1.188 1.398C14.218 4.64 12.76 3.926 10.87 3.926c-2.295 0-3.834 1.135-3.834 2.955 0 1.98 1.782 2.718 3.294 3.351l1.628.675H21v1.955h-5.35c1 .863 1.646 2.022 1.646 3.729 0 3.034-2.565 5.409-6.642 5.409-2.808 0-5.157-1.108-6.858-2.876l1.35-1.504c1.431 1.504 3.429 2.454 5.535 2.454 2.7 0 4.347-1.346 4.347-3.325 0-2.084-1.485-2.744-3.375-3.562l-.752-.326H0v-1.954h6.854c-1.156-.825-2.086-2.026-2.086-3.867C4.768 4.11 7.36 2 10.87 2z" fill-rule="evenodd"/></svg>