<svg width="24" height="24" fill="none" xmlns="http://www.w3.org/2000/svg" viewBox="0 0 24 24"><path d="M11.973 1C5.953 1 1.092 5.936 1.092 12h2c0-4.982 3.987-9 8.881-9 2.717 0 5.153 1.237 6.785 3.192l-.576.333a.5.5 0 00.048.89l2.803 1.241a.5.5 0 00.698-.391l.413-3.098a.5.5 0 00-.746-.499l-.887.512C18.521 2.638 15.438 1 11.973 1zm11.119 11c0 6.064-4.861 11-10.882 11-3.465 0-6.548-1.637-8.538-4.18l-.887.512a.5.5 0 01-.746-.5l.413-3.097a.5.5 0 01.698-.391l2.804 1.24a.5.5 0 01.047.89l-.576.334C7.057 19.764 9.493 21 12.21 21c4.894 0 8.882-4.018 8.882-9h2z" fill="currentColor"/></svg>