<svg width="16" height="16" xmlns="http://www.w3.org/2000/svg" viewBox="0 0 16 16"><path d="M15.663 7.997c0 4.232-3.393 7.666-7.583 7.666a7.543 7.543 0 01-5.949-2.91l-1.03.596a.133.133 0 01-.2-.133l.387-2.891a.133.133 0 01.186-.105l2.616 1.16a.133.133 0 01.013.237l-.802.463a6.206 6.206 0 004.779 2.25c3.39 0 6.153-2.737 6.248-6.153l.002-.18h1.333zM7.913.33a7.543 7.543 0 015.949 2.91l1.03-.596a.133.133 0 01.2.133l-.386 2.892a.133.133 0 01-.186.104l-2.617-1.158a.133.133 0 01-.012-.238l.802-.463a6.206 6.206 0 00-4.78-2.25c-3.39 0-6.153 2.736-6.247 6.152l-.003.18H.33C.33 3.765 3.724.33 7.914.33z" fill-rule="evenodd"/></svg>