<svg width="16" height="16" xmlns="http://www.w3.org/2000/svg" viewBox="0 0 16 16"><path d="M15.66 8a7.62 7.62 0 01-7.58 7.66 7.54 7.54 0 01-5.95-2.9l-1.03.59a.13.13 0 01-.2-.13l.39-2.9a.13.13 0 01.18-.1l2.62 1.16a.13.13 0 01.01.24l-.8.46a6.2 6.2 0 004.78 2.25 6.3 6.3 0 006.25-6.15V8h1.33zM7.91.33c2.36 0 4.53 1.1 5.95 2.91l1.03-.6a.13.13 0 01.2.14l-.38 2.89a.13.13 0 01-.19.1L11.9 4.61a.13.13 0 010-.23l.8-.47a6.2 6.2 0 00-4.8-2.25 6.29 6.29 0 00-6.24 6.16V8H.32A7.64 7.64 0 017.91.33z" fill-rule="evenodd"/></svg>