<svg xmlns="http://www.w3.org/2000/svg" width="24" height="24" fill="none" viewBox="0 0 24 24"><path fill="currentColor" fill-rule="evenodd" d="m20.838 14.475 1.415-1.415-2.122-2.12-2.807-2.808 3.182-3.182-1.414-1.414-3.182 3.182-2.85-2.85-2.121-2.121L9.525 3.16l1.414 1.414-6.718 6.718a4 4 0 0 0 0 5.657l.729.728-2.828 2.828 1.414 1.415 2.828-2.829.686.686a4 4 0 0 0 5.657 0l6.717-6.718 1.414 1.415zm-2.828-2.829-6.718 6.718a2 2 0 0 1-2.828 0l-2.828-2.829a2 2 0 0 1 0-2.828l6.717-6.718 5.657 5.657zM6.322 14.142l3.536 3.535 1.272-1.272-3.535-3.536-1.273 1.273z" clip-rule="evenodd"/></svg>