<svg width="24" height="24" xmlns="http://www.w3.org/2000/svg" viewBox="0 0 24 24"><path d="M5.995.857l9.442 1.353 6.882 11.92c.808 1.4.395 3.173-.926 4.043l-.15.093-7.795 4.5c-1.387.8-3.15.35-4.026-.984l-.093-.152L2.447 9.71 5.995.857zm1.272 2.202L4.664 9.55l6.397 11.08c.25.433.747.622 1.183.49l.108-.039.096-.048 7.795-4.5c.442-.256.612-.819.396-1.301l-.052-.103-6.396-11.078-6.924-.993zm1.65 2.858a3.321 3.321 0 113.321 5.753 3.321 3.321 0 01-3.321-5.753zm1 1.732a1.321 1.321 0 101.321 2.289 1.321 1.321 0 00-1.321-2.289z" fill-rule="evenodd"/></svg>