<svg width="24" height="24" fill="none" xmlns="http://www.w3.org/2000/svg" viewBox="0 0 24 24"><path fill-rule="evenodd" clip-rule="evenodd" d="M9.028 7.17a3.502 3.502 0 103.502 6.067A3.502 3.502 0 009.028 7.17zm.454 3.783a1.498 1.498 0 112.594-1.498 1.498 1.498 0 01-2.594 1.498z" fill="currentColor"/><path fill-rule="evenodd" clip-rule="evenodd" d="M9.236 1.921a4 4 0 00-4.858 2.805L2.956 9.86a3 3 0 00.293 2.3l4.885 8.462a5 5 0 006.83 1.83l4.33-2.5a5 5 0 001.83-6.83L16.24 4.661a3 3 0 00-1.846-1.404L9.236 1.92zM6.306 5.26a2 2 0 012.428-1.402l5.158 1.336a1 1 0 01.615.468l4.885 8.461a3 3 0 01-1.098 4.098l-4.33 2.5a3 3 0 01-4.098-1.098l-4.885-8.461a1 1 0 01-.098-.767L6.305 5.26z" fill="currentColor"/></svg>