<svg width="22" height="24" fill="none" xmlns="http://www.w3.org/2000/svg" viewBox="0 0 22 24"><path fill-rule="evenodd" clip-rule="evenodd" d="M8.5 9a2.5 2.5 0 100-5 2.5 2.5 0 000 5zm0 2a4.5 4.5 0 100-9 4.5 4.5 0 000 9zm1 3h-2a5 5 0 00-5 5v1h12v-1a5 5 0 00-5-5zm-2-2a7 7 0 00-7 7v3h16v-3a7 7 0 00-7-7h-2zm7.336-7.252c.913.812 1.225 1.676 1.246 2.531.021.9-.28 1.859-.731 2.783l-.41.842.813.464c2.316 1.324 3.3 3.284 3.64 5.24.345 1.991.01 3.956-.324 5.116l1.922.553c.386-1.34.785-3.626.372-6.01-.38-2.197-1.459-4.494-3.852-6.153.345-.878.594-1.863.57-2.883-.035-1.398-.581-2.79-1.918-3.978l-1.328 1.495z" fill="currentColor"/></svg>