<svg xmlns="http://www.w3.org/2000/svg" width="22" height="24" fill="none" viewBox="0 0 22 24"><path fill="currentColor" fill-rule="evenodd" d="M21.904 7.899c.144-2.049-.931-4.09-2.965-4.865C16.956 2.278 14.016 1.4 11 1.4c-3.154 0-6.072.96-7.936 1.744C1.314 3.88.337 5.589.259 7.362l-.028.64a3.63 3.63 0 0 0 .995 2.667l3.282-.213A1.879 1.879 0 0 0 6.265 8.58c0-.633.428-1.208 1.073-1.355.752-.17 2.277-.475 3.662-.475 1.385 0 2.91.305 3.662.476a1.383 1.383 0 0 1 1.072 1.355c0 .99.77 1.81 1.758 1.875l3.322.215a3.775 3.775 0 0 0 1.061-2.374l.029-.398zm-20.098 8.02 1.29-3.868 1.51-.098a3.379 3.379 0 0 0 3.158-3.285C8.514 8.5 9.84 8.25 11 8.25c1.16 0 2.486.25 3.236.418a3.379 3.379 0 0 0 3.159 3.285l1.51.098 1.289 3.868c1.079 3.238-1.33 6.581-4.744 6.581h-8.9c-3.413 0-5.823-3.343-4.744-6.581zM9.5 15.3a1.5 1.5 0 1 1 3 0 1.5 1.5 0 0 1-3 0zm1.5-3.5a3.5 3.5 0 1 0 0 7 3.5 3.5 0 0 0 0-7z" clip-rule="evenodd"/></svg>