<svg xmlns="http://www.w3.org/2000/svg" width="24" height="24" fill="none" viewBox="0 0 24 24"><path fill="currentColor" fill-rule="evenodd" d="M8.5 15.3a3.5 3.5 0 1 1 7 0 3.5 3.5 0 0 1-7 0zm3.5-1.5a1.5 1.5 0 1 0 0 3 1.5 1.5 0 0 0 0-3z" clip-rule="evenodd"/><path fill="currentColor" fill-rule="evenodd" d="M22.904 7.899c.144-2.049-.931-4.09-2.965-4.865-1.983-.756-4.924-1.634-7.94-1.634-3.153 0-6.071.96-7.935 1.744-1.75.736-2.727 2.445-2.805 4.218l-.028.64a3.649 3.649 0 0 0 2.966 3.744l-1.39 4.173C1.726 19.157 4.136 22.5 7.55 22.5h8.9c3.413 0 5.823-3.343 4.744-6.581l-1.389-4.165a3.791 3.791 0 0 0 3.07-3.457l.029-.398zm-3.678-2.996c1.098.418 1.774 1.56 1.683 2.855l-.029.399a1.79 1.79 0 0 1-1.905 1.66l-1.209-.082a1.424 1.424 0 0 1-1.328-1.42c0-.717-.482-1.374-1.218-1.547-.679-.159-2.06-.444-3.329-.444-1.269 0-2.65.285-3.329.444a1.583 1.583 0 0 0-1.218 1.547c0 .749-.58 1.37-1.328 1.42l-1.032.07A1.647 1.647 0 0 1 3.23 8.088l.028-.64c.05-1.128.655-2.072 1.582-2.461C6.584 4.254 9.221 3.4 11.999 3.4c2.666 0 5.345.785 7.227 1.503zm-1.531 6.832-.063-.004a3.424 3.424 0 0 1-3.178-3.085c-.677-.146-1.681-.322-2.563-.322-.881 0-1.886.176-2.562.322a3.424 3.424 0 0 1-3.02 3.07 1.007 1.007 0 0 1-.027.1l-1.578 4.735A3 3 0 0 0 7.55 20.5h8.9a3 3 0 0 0 2.846-3.949l-1.578-4.735a1.01 1.01 0 0 1-.023-.081z" clip-rule="evenodd"/></svg>