<svg xmlns="http://www.w3.org/2000/svg" width="24" height="24" fill="none" viewBox="0 0 24 24"><path fill="currentColor" d="M18 1a5 5 0 0 1 5 5v12a5 5 0 0 1-5 5H6a5 5 0 0 1-5-5V6a5 5 0 0 1 5-5h12zm-6.967 3.964v3.458h1.876c-2.128.793-4.671 1.442-7.63 1.946l.476 1.764c.467-.093.887-.191 1.26-.294v6.356h1.932v-.505h6.748v.477h1.932V10.2h-4.886a60.746 60.746 0 0 0 3.403-1.232l-.63-1.008c.382.233 1.096.681 2.141 1.344l1.023-1.61a83.18 83.18 0 0 0-3.697-2.1l-1.036 1.414c.318.196.635.387.953.574-.56.27-1.186.537-1.877.798V4.964h-1.988zm4.662 10.528v.714H8.947v-.714h6.748zm0-1.89v.686H8.947v-.686h6.748zm0-1.918v.714H8.947v-.714h6.748zM9.144 5.79A31.493 31.493 0 0 1 5.46 8.03c.205.271.574.784 1.106 1.54a58.17 58.17 0 0 0 3.836-2.352L9.143 5.79z"/></svg>