<svg xmlns="http://www.w3.org/2000/svg" width="24" height="24" fill="none" viewBox="0 0 24 24"><rect width="20" height="20" x="2" y="2" stroke="currentColor" stroke-width="2" rx="4"/><path fill="currentColor" d="M11.033 8.422V4.964h1.988V8.38a23.16 23.16 0 0 0 1.876-.798 51.556 51.556 0 0 1-.952-.574l1.036-1.414a83.25 83.25 0 0 1 3.696 2.1l-1.022 1.61a175 175 0 0 0-2.142-1.344l.63 1.008a60.728 60.728 0 0 1-3.402 1.232h4.886v7.966h-1.932v-.476H8.947v.504H7.015v-6.356c-.373.103-.793.2-1.26.294l-.476-1.764c2.959-.504 5.502-1.153 7.63-1.946h-1.876zM6.567 9.57c-.532-.756-.9-1.27-1.106-1.54a31.486 31.486 0 0 0 3.682-2.24l1.26 1.428A58.2 58.2 0 0 1 6.567 9.57zm2.38 2.114v.714h6.748v-.714H8.947zm0 3.808v.714h6.748v-.714H8.947zm0-1.89v.686h6.748v-.686H8.947z"/></svg>