<svg xmlns="http://www.w3.org/2000/svg" width="24" height="24" fill="none" viewBox="0 0 24 24"><path fill="currentColor" d="M9.166 10.5c.646 0 1.25-.323 1.608-.86l.207-.311a10.52 10.52 0 0 0 1.604-3.993l.248-1.398c.11-.617.344-1.24.888-1.552.628-.36 1.62-.546 2.78.614.391.392 1.2 1.662 1.2 3.5s-.5 3.965-.5 3.965l2.791.017a2.5 2.5 0 0 1 2.44 2.97l-1.11 5.8a4 4 0 0 1-3.929 3.248H10.2a2 2 0 0 1-2-2v-9.034c0-.534.433-.966.966-.966zm-4.966.174a2 2 0 0 0-2 2V20.5a2 2 0 0 0 2 2h1.5a1 1 0 0 0 1-1v-9.826a1 1 0 0 0-1-1H4.2z"/></svg>