<svg xmlns="http://www.w3.org/2000/svg" width="24" height="24" fill="none" viewBox="0 0 24 24"><path fill="currentColor" d="M9.166 13.5c.646 0 1.25.323 1.607.86l.207.31a10.518 10.518 0 0 1 1.605 3.994l.248 1.398c.11.617.344 1.24.887 1.552.629.36 1.62.546 2.78-.614.392-.392 1.2-1.662 1.2-3.5s-.5-3.965-.5-3.965l2.792-.017a2.5 2.5 0 0 0 2.44-2.97l-1.11-5.8A4 4 0 0 0 17.393 1.5H10.2a2 2 0 0 0-2 2v9.034c0 .534.432.966.966.966zM4.2 13.326a2 2 0 0 1-2-2V3.5a2 2 0 0 1 2-2h1.5a1 1 0 0 1 1 1v9.826a1 1 0 0 1-1 1H4.2z"/></svg>