<svg xmlns="http://www.w3.org/2000/svg" width="24" height="24" fill="none" viewBox="0 0 24 24"><path fill="currentColor" fill-rule="evenodd" d="M16.207 3.182c-.732-.733-1.501-1.11-2.273-1.173a2.967 2.967 0 0 0-1.819.463c-.867.54-1.133 1.486-1.22 2.14l-.19 1.43A7.042 7.042 0 0 1 9.222 9.51a1.01 1.01 0 0 1-.79.379H5a3 3 0 0 0-3 3v6.5a3 3 0 0 0 3 3h12.286a4 4 0 0 0 3.907-3.144l1.255-5.73a3 3 0 0 0-2.911-3.642l-1.879-.011c.124-.663.242-1.537.242-2.473 0-2.201-1.197-3.71-1.693-4.207zm-.76 7.369-.003.009-.395 1.285 4.475.028a1 1 0 0 1 .97 1.214l-1.254 5.73a2 2 0 0 1-1.954 1.572H9v-8.554a3.011 3.011 0 0 0 1.784-1.076 9.042 9.042 0 0 0 1.903-4.454l.19-1.428c.029-.213.076-.384.136-.507a.453.453 0 0 1 .16-.201.972.972 0 0 1 .598-.166c.2.016.547.118 1.022.593.287.287 1.107 1.318 1.107 2.793 0 .834-.114 1.632-.231 2.229a12.224 12.224 0 0 1-.222.933zM7 11.889H5a1 1 0 0 0-1 1v6.5a1 1 0 0 0 1 1h2v-8.5z" clip-rule="evenodd"/></svg>