<svg width="24" height="24" xmlns="http://www.w3.org/2000/svg" viewBox="0 0 24 24"><path d="M11.721 2.208A2.47 2.47 0 0114.824 1.2l.158.072.157.088c1.369.82 2.361 2.87 2.361 4.989 0 .78-.054 1.609-.16 2.489l-.071.533-.074.478h2.324l.213.007.213.023.21.038a3 3 0 012.328 3.396l-.033.173-1.288 5.925a5 5 0 01-4.66 3.933l-.226.005H4.5a2 2 0 01-1.995-1.851l-.005-.15v-9.5a2 2 0 011.85-1.994l.15-.005h2.66a3 3 0 002.142-.9l.136-.148.303-.353a6.286 6.286 0 001.449-3.193l.035-.296.167-1.736c.023-.242.082-.478.174-.701l.075-.166.08-.148zm-3.72 9.57c-.184.03-.37.052-.558.063l-.283.008-2.66-.001v9.5H8v-9.57zm6.052-8.735a.464.464 0 00-.623.208l-.031.08-.016.083-.167 1.736a8.286 8.286 0 01-1.74 4.336l-.217.264-.302.353a5.02 5.02 0 01-.956.86L10 21.349h6.276a3 3 0 002.887-2.184l.045-.178 1.288-5.925a1 1 0 00-.765-1.19l-.106-.017-.106-.005H14.78l.24-1.196c.32-1.606.48-3.041.48-4.304 0-1.382-.601-2.697-1.249-3.182l-.108-.073-.09-.05z" fill-rule="evenodd"/></svg>