<svg width="24" height="24" xmlns="http://www.w3.org/2000/svg" viewBox="0 0 24 24"><path d="M21.56 4.233v2.1h-.861v.001a.625.625 0 00-.518.537l.001 11.75a4.05 4.05 0 01-3.794 4.041l-.256.008H8.106a4.05 4.05 0 01-4.042-3.794l-.008-.256-.001-11.616a.637.637 0 00-.067-.335l-.065-.101a.625.625 0 00-.28-.204l-.113-.032h-.955v-2.1H21.56zm-3.478 2.1H6.155V18.62c0 1.01.768 1.84 1.751 1.94l.2.01h8.026a1.95 1.95 0 001.94-1.75l.01-.2V6.332zm-7.262 2.42v9.036h-2.1V8.752h2.1zm4.594 0v9.036h-2.1V8.752h2.1zM15.752.46v2.1H8.54V.46h7.212z" fill-rule="evenodd"/></svg>