<svg width="13" height="16" xmlns="http://www.w3.org/2000/svg" viewBox="0 0 13 16"><path d="M13 3.047v1.419h-.59a.43.43 0 00-.354.364v7.935c0 1.452-1.147 2.64-2.597 2.73l-.176.005H3.787c-1.472 0-2.677-1.132-2.767-2.562l-.006-.173V4.919a.425.425 0 00-.046-.226l-.045-.069a.427.427 0 00-.192-.137l-.077-.022H0V3.048h13zm-2.382 1.418H2.452v8.3c0 .682.526 1.242 1.199 1.31l.136.007h5.496a1.33 1.33 0 001.329-1.183l.007-.134v-8.3zM5.646 6.1v6.103H4.208V6.1h1.438zm3.146 0v6.103H7.354V6.1h1.438zM9.023.5v1.418H4.085V.5h4.938z" fill-rule="evenodd"/></svg>