<svg xmlns="http://www.w3.org/2000/svg" width="24" height="24" fill="none" viewBox="0 0 24 24"><path fill="currentColor" d="M20.677 12.923a.191.191 0 0 1-.185-.136l-1.09-3.558-1.302 1.106.015 1.924c0 .051-.019.1-.055.137l-.322.33a.193.193 0 0 1-.318-.067l-.698-1.808-1.872-.807a.193.193 0 0 1-.062-.312l.321-.33a.193.193 0 0 1 .148-.059l1.964.097 1.106-1.361-3.573-1.138a.193.193 0 0 1-.08-.32l.614-.628a.193.193 0 0 1 .157-.057l4.406.445L21.1 5.126c.497-.505.974-.584 1.214-.584h.003c.223 0 .42.066.527.174.26.26.247 1.004-.453 1.72l-.001.002L21.13 7.7l.353 4.387a.194.194 0 0 1-.055.151l-.614.628a.193.193 0 0 1-.137.058zm-6.922 9.606c-.404.047-.815.071-1.231.071a10.46 10.46 0 0 1-8.381-4.19h.001c.622-.366 1.067-.021 1.59.382.422.327.895.693 1.552.752 1.3.118 2.24-.193 3.143-1.134.197-.205.361-.443.526-.682.457-.663.92-1.334 2.094-1.327.915.006 1.478.472 2.094 1.048.168.157.244.288.3.385.101.177.138.24.543.139.887-.222 1.047-2.095 1.047-2.095s.867-2.008 1.778-2.096c.33-.032.323.378.313.843-.012.597-.026 1.285.67 1.252.991-.046 1.635-1.22 1.635-1.22s.78-2.19 1.44-1.647a.77.77 0 0 1 .087.082c-.388 4.238-3.3 7.745-7.22 9.007-.633.181-1.294.32-1.981.43z"/><path fill="currentColor" d="M19.736 4.277a10.44 10.44 0 0 0-7.212-2.878C6.738 1.4 2.048 6.09 2.048 11.876c0 1.036.15 2.037.43 2.982.075.015.153.027.234.034.98.084 1.997-.006 2.479-.438.524-.47.597-.964.663-1.414.078-.525.146-.991.91-1.292.762-.3 1.442.097 2.15.51.557.326 1.131.661 1.777.674 1.31.025 1.15-.901.952-2.058-.175-1.019-.38-2.216.358-3.102.533-.638 1.073-.848 1.59-1.048.556-.216 1.085-.42 1.552-1.134.59-.9 1.393-.846 2.25-.787.64.044 1.31.09 1.94-.26.159-.088.292-.177.403-.266z"/><path fill="currentColor" d="M12.103 15.348s-2.713 1.44-5.798 1.978C3.22 17.863.986 17.046 1 16.282c.012-.144.05-.313.117-.484.106-.272.286-.55.557-.742.353-.25.582-.153.582-.153s-.08.128-.122.293c-.127.497.1 1.324 3.957-.057 5.137-1.84 7.409-3.95 7.409-3.95s.924-.515 1.48-.315c.923.334 1.44 1.441.387 2.484-1.054 1.043-3.264 1.99-3.264 1.99zm-6.294.996c.104-.015.21-.032.316-.05 1.446-.252 2.821-.72 3.846-1.131a21.96 21.96 0 0 0 1.538-.688l.081-.041.019-.01.004-.002.038-.02.04-.017.003-.002.015-.006a9.905 9.905 0 0 0 .31-.142c.212-.099.504-.241.826-.414.67-.36 1.372-.798 1.785-1.207.167-.166.232-.294.257-.368a.239.239 0 0 0 .012-.14c-.014-.055-.077-.16-.234-.23a1.378 1.378 0 0 0-.292.07 2.73 2.73 0 0 0-.28.116l-.022.02c-.084.07-.206.17-.366.294-.319.247-.792.588-1.427.986-1.271.796-3.191 1.817-5.834 2.763-.221.08-.433.152-.635.22zm-3.53-.435a.17.17 0 0 0 .01-.005l-.01.007v-.002zm12.41-4.033h-.002z"/></svg>