<svg xmlns="http://www.w3.org/2000/svg" width="20" height="24" fill="none" viewBox="0 0 20 24"><path fill="currentColor" d="M5 1.5a5 5 0 0 0-5 5V9h6.54A4.097 4.097 0 0 1 10 7.1c1.455 0 2.733.758 3.46 1.9H20V6.5a5 5 0 0 0-5-5H5zM0 13v-2h5.905a4.159 4.159 0 0 0-.005.2V13H0zm0 4.5V15h5.902c.05.947.832 1.7 1.792 1.7h4.612c.96 0 1.743-.753 1.792-1.7H20v2.5a5 5 0 0 1-5 5H5a5 5 0 0 1-5-5zM20 13v-2h-5.905c.003.066.005.133.005.2V13H20z"/><path fill="currentColor" fill-rule="evenodd" d="M7.7 11.2a2.3 2.3 0 1 1 4.6 0v3.7H7.7v-3.7zm3.05 2.55v-2.7h-1.5v2.7h1.5z" clip-rule="evenodd"/></svg>