<svg width="23" height="24" xmlns="http://www.w3.org/2000/svg" viewBox="0 0 23 24"><path d="M19.544 1l.161.006c1.278.092 2.215 1.279 2.288 2.68l.005.176v5.56h-.048c.575.22.988.768 1.043 1.41l.007.15v2.62l-.006.142a1.662 1.662 0 01-.996 1.4v4.93c0 1.506-.954 2.821-2.292 2.92l-.162.006H3.552c-1.368 0-2.374-1.258-2.45-2.747l-.004-.18-.001-4.893a1.656 1.656 0 01-1.09-1.424L0 13.602v-2.62l.006-.14a1.657 1.657 0 011.091-1.437V3.862l.005-.176c.073-1.401 1.01-2.588 2.288-2.68L3.552 1h15.992zM7.447 15.266l-4.35-.001v4.809c0 .506.228.848.407.902l.048.007h15.992c.168 0 .41-.3.448-.775l.006-.134-.001-4.809-4.482.001a1.525 1.525 0 01-1.365 1.302l-.138.007H8.95a1.523 1.523 0 01-1.502-1.309zm4.034-6.634a2.258 2.258 0 00-2.245 2.114l-.005.155-.001 3.858h4.5V10.9a2.263 2.263 0 00-1.937-2.247l-.158-.017-.154-.005zm.019 1.899c.38 0 .693.284.743.653l.007.103v1.223a.753.753 0 01-.75.757.752.752 0 01-.743-.654l-.007-.103v-1.223c0-.418.336-.756.75-.756zm-4.07.805l-5.431.001v1.912l5.431-.001v-1.912zm8.1 0v1.912l5.47.001v-1.912l-5.47-.001zm4.014-8.319H3.552l-.054.008c-.166.049-.357.31-.394.702l-.006.135-.001 5.457h4.649a4.054 4.054 0 013.532-2.497l.203-.005a4.05 4.05 0 013.734 2.501h4.782V3.863l-.006-.135c-.036-.391-.228-.653-.393-.702l-.054-.008z" fill="currentColor" fill-rule="evenodd"/></svg>