<svg width="24" height="24" fill="none" xmlns="http://www.w3.org/2000/svg" viewBox="0 0 24 24"><path d="M12.75 11.05h-1.5v2.7h1.5v-2.7z" fill="currentColor"/><path fill-rule="evenodd" clip-rule="evenodd" d="M7 1.5a5 5 0 00-5 5v2.51c-.661.272-1 .993-1 1.59v2.8c0 .597.339 1.318 1 1.59v2.51a5 5 0 005 5h10a5 5 0 005-5v-2.51c.662-.272 1-.993 1-1.59v-2.8c0-.597-.338-1.318-1-1.59V6.5a5 5 0 00-5-5H7zM4 15.1v2.4a3 3 0 003 3h10a3 3 0 003-3v-2.4h-3.91c-.097.9-.858 1.6-1.784 1.6H9.694c-.926 0-1.687-.7-1.784-1.6H4zm17-2h-4.9v-1.9c0-.1-.004-.2-.01-.3H21v2.2zm-1-4.2h-4.605A4.096 4.096 0 0012 7.1a4.096 4.096 0 00-3.395 1.8H4V6.5a3 3 0 013-3h10a3 3 0 013 3v2.4zm-17 2h4.91c-.006.1-.01.2-.01.3v1.9H3v-2.2zm9-2a2.3 2.3 0 00-2.3 2.3v3.7h4.6v-3.7A2.3 2.3 0 0012 8.9z" fill="currentColor"/></svg>