<svg xmlns="http://www.w3.org/2000/svg" width="22" height="24" fill="none" viewBox="0 0 22 24"><path fill="currentColor" d="M14.1 8a1.1 1.1 0 1 0-2.2 0 1.1 1.1 0 0 0 2.2 0z"/><path fill="currentColor" fill-rule="evenodd" d="M14.143 2H7.857C6.773 2 5.9 2 5.191 2.058c-.728.06-1.369.185-1.961.487A5 5 0 0 0 1.045 4.73C.743 5.322.617 5.963.558 6.691.5 7.4.5 8.273.5 9.357v1.286c0 1.084 0 1.958.058 2.666.06.729.185 1.369.487 1.961a5 5 0 0 0 2.185 2.185c.592.302 1.233.428 1.961.487C5.9 18 6.773 18 7.857 18h6.286c1.084 0 1.958 0 2.666-.058.729-.06 1.369-.185 1.961-.487a5 5 0 0 0 2.185-2.185c.302-.592.428-1.232.487-1.961.058-.708.058-1.582.058-2.666V9.357c0-1.084 0-1.958-.058-2.666-.06-.728-.185-1.369-.487-1.96a5 5 0 0 0-2.185-2.186c-.592-.302-1.232-.428-1.961-.487C16.1 2 15.227 2 14.143 2zM13 5.1a2.9 2.9 0 1 1-.386 5.774l-1.232 1.8a1.667 1.667 0 0 1-2.224.495l-1.081-.64-1.225 1.994-1.704-1.046 1.396-2.274a1.667 1.667 0 0 1 2.268-.562l1.095.647.929-1.357A2.9 2.9 0 0 1 13 5.1z" clip-rule="evenodd"/><path fill="currentColor" d="M2 21.8h18v-2H2v2z"/></svg>