<svg width="21" height="24" xmlns="http://www.w3.org/2000/svg" viewBox="0 0 21 24"><path d="M19 1.5a2 2 0 012 2v14a2 2 0 01-2 2h-1v.222a2.778 2.778 0 01-2.609 2.773l-.169.005H2.778a2.778 2.778 0 01-2.773-2.609L0 19.722V7.278a2.778 2.778 0 012.609-2.773l.169-.005H3v-1a2 2 0 012-2h14zm-16 5h-.222a.778.778 0 00-.77.672L2 7.278v12.444c0 .394.293.72.672.77l.106.008h12.444c.394 0 .72-.293.77-.672l.008-.106V19.5H5a2 2 0 01-2-2v-11zm16-3H5v14h14v-14zm-3.5 1.6a2.9 2.9 0 11-.777 5.695l-1.539 2.292a1.667 1.667 0 01-2.108.573l-.136-.074-2.013-1.214-1.891 3.144-1.714-1.032 2.064-3.427a1.666 1.666 0 012.154-.643l.134.074 2.026 1.221 1.398-2.084A2.9 2.9 0 0115.5 5.1zm0 1.8a1.1 1.1 0 100 2.2 1.1 1.1 0 000-2.2z" fill-rule="evenodd"/></svg>