<svg width="24" height="24" xmlns="http://www.w3.org/2000/svg" viewBox="0 0 24 24"><path d="M21 4.364a3 3 0 013 3v12a3 3 0 01-3 3H3a3 3 0 01-3-3v-12a3 3 0 013-3h18zm0 2H3a1 1 0 00-.993.883L2 7.364v12a1 1 0 00.883.993l.117.007h18a1 1 0 00.993-.884l.007-.116v-12a1 1 0 00-.883-.994L21 6.364zM14.115 9.03l.064.111L16.116 13H18.5v2h-3a1 1 0 01-.83-.443l-.064-.108-1.187-2.365-2.197 5.858a1 1 0 01-1.705.29l-.075-.104L7.451 15H5v-2h3a1 1 0 01.769.36l.075.103 1.209 1.9 2.296-6.123c.291-.776 1.328-.87 1.766-.209zM17.41 1v2H6.5V1h10.91z" fill-rule="evenodd"/></svg>