<svg xmlns="http://www.w3.org/2000/svg" width="24" height="24" fill="none" viewBox="0 0 24 24"><path fill="currentColor" fill-rule="evenodd" d="m15.613 10.874-1.231 1.8a1.667 1.667 0 0 1-2.224.494l-1.081-.639-1.225 1.994-1.704-1.046 1.396-2.274a1.667 1.667 0 0 1 2.268-.562l1.095.647.929-1.357a2.9 2.9 0 1 1 1.777.944zM17.1 8a1.1 1.1 0 1 0-2.2 0 1.1 1.1 0 0 0 2.2 0z" clip-rule="evenodd"/><path fill="currentColor" fill-rule="evenodd" d="M19.867 18.64A4.446 4.446 0 0 1 15.556 22H7a5 5 0 0 1-5-5V8.889A4.891 4.891 0 0 1 5.311 4.26 5.002 5.002 0 0 1 10 1h8a5 5 0 0 1 5 5v8c0 2.102-1.297 3.9-3.133 4.64zM5 6.703c-.612.53-1 1.313-1 2.186V17a3 3 0 0 0 3 3h8.556c.81 0 1.527-.394 1.972-1H10a5 5 0 0 1-5-5V6.703zM7 6a3 3 0 0 1 3-3h8a3 3 0 0 1 3 3v8a3 3 0 0 1-3 3h-8a3 3 0 0 1-3-3V6z" clip-rule="evenodd"/></svg>