<svg width="24" height="24" fill="none" xmlns="http://www.w3.org/2000/svg" viewBox="0 0 24 24"><path d="M6 3.5h12v-2H6v2zm7.311 5.501a1 1 0 01.945.545l1.69 3.312H18v2h-2.667a1 1 0 01-.89-.546l-.945-1.851-1.865 4.895a1 1 0 01-1.774.187l-1.737-2.685H6v-2h2.667a1 1 0 01.84.457l.96 1.485 1.964-5.156a1 1 0 01.88-.643z" fill="currentColor"/><path fill-rule="evenodd" clip-rule="evenodd" d="M1.5 10a5 5 0 015-5h11a5 5 0 015 5v7.5a5 5 0 01-5 5h-11a5 5 0 01-5-5V10zm5-3a3 3 0 00-3 3v7.5a3 3 0 003 3h11a3 3 0 003-3V10a3 3 0 00-3-3h-11z" fill="currentColor"/></svg>