<svg width="21" height="24" xmlns="http://www.w3.org/2000/svg" viewBox="0 0 21 24"><path d="M21 20.5v2H0v-2h21zm-3-19a3 3 0 013 3v12a3 3 0 01-3 3H3a3 3 0 01-3-3v-12a3 3 0 013-3h15zm0 2H3a1 1 0 00-.993.883L2 4.5v12a1 1 0 00.883.993L3 17.5h15a1 1 0 00.993-.883L19 16.5v-12a1 1 0 00-.883-.993L18 3.5zM14.5 5a3 3 0 11-.707 5.916l-1.688 2.702a1.5 1.5 0 01-1.896.57l-.133-.07-2.309-1.351-1.946 2.803-1.642-1.14 2.21-3.183a1.5 1.5 0 011.86-.506l.13.067 2.287 1.338 1.452-2.322A3 3 0 0114.5 5zm0 2a1 1 0 100 2 1 1 0 000-2z" fill-rule="evenodd"/></svg>