<svg width="24" height="24" fill="none" xmlns="http://www.w3.org/2000/svg" viewBox="0 0 24 24"><path fill-rule="evenodd" clip-rule="evenodd" d="M15.613 10.874l-1.231 1.8a1.667 1.667 0 01-2.224.494l-1.081-.639-1.225 1.994-1.704-1.046 1.396-2.274a1.667 1.667 0 012.268-.562l1.095.647.929-1.357a2.9 2.9 0 111.777.944zM17.1 8a1.1 1.1 0 10-2.2 0 1.1 1.1 0 002.2 0z" fill="currentColor"/><path fill-rule="evenodd" clip-rule="evenodd" d="M19.867 18.64A4.446 4.446 0 0115.556 22H7a5 5 0 01-5-5V8.889A4.891 4.891 0 015.311 4.26 5.002 5.002 0 0110 1h8a5 5 0 015 5v8c0 2.102-1.297 3.9-3.133 4.64zM5 6.703c-.612.53-1 1.313-1 2.186V17a3 3 0 003 3h8.556c.81 0 1.527-.394 1.972-1H10a5 5 0 01-5-5V6.703zM7 6a3 3 0 013-3h8a3 3 0 013 3v8a3 3 0 01-3 3h-8a3 3 0 01-3-3V6z" fill="currentColor"/></svg>