<svg xmlns="http://www.w3.org/2000/svg" width="22" height="24" fill="none" viewBox="0 0 22 24"><path fill="currentColor" d="M5 3.5h12v-2H5v2z"/><path fill="currentColor" fill-rule="evenodd" d="M5.5 5a5 5 0 0 0-5 5v7.5a5 5 0 0 0 5 5h11a5 5 0 0 0 5-5V10a5 5 0 0 0-5-5h-11zm6.811 4.001a1 1 0 0 1 .945.545l1.69 3.312H17v2h-2.667a1 1 0 0 1-.89-.546l-.945-1.851-1.865 4.895a1 1 0 0 1-1.774.187l-1.737-2.685H5v-2h2.667a1 1 0 0 1 .84.457l.96 1.485 1.964-5.156a1 1 0 0 1 .88-.643z" clip-rule="evenodd"/></svg>