<svg width="24" height="24" fill="none" xmlns="http://www.w3.org/2000/svg" viewBox="0 0 24 24"><path fill-rule="evenodd" clip-rule="evenodd" d="M13.613 10.874l-1.231 1.8a1.667 1.667 0 01-2.224.494l-1.081-.639-1.225 1.994-1.704-1.046 1.396-2.274a1.667 1.667 0 012.268-.562l1.095.647.929-1.357a2.9 2.9 0 111.777.944zM15.1 8a1.1 1.1 0 10-2.2 0 1.1 1.1 0 002.2 0z" fill="currentColor"/><path fill-rule="evenodd" clip-rule="evenodd" d="M15.143 2H8.857C7.773 2 6.9 2 6.191 2.058c-.728.06-1.369.185-1.96.487A5 5 0 002.044 4.73c-.302.592-.428 1.233-.487 1.961C1.5 7.4 1.5 8.273 1.5 9.357v1.286c0 1.084 0 1.958.058 2.666.06.729.185 1.369.487 1.961a5 5 0 002.185 2.185c.592.302 1.233.428 1.961.487C6.9 18 7.773 18 8.857 18h6.286c1.084 0 1.958 0 2.666-.058.729-.06 1.369-.185 1.961-.487a5 5 0 002.185-2.185c.302-.592.428-1.232.487-1.961.058-.708.058-1.582.058-2.666V9.357c0-1.084 0-1.958-.058-2.666-.06-.728-.185-1.369-.487-1.96a5 5 0 00-2.185-2.186c-.592-.302-1.232-.428-1.961-.487C17.1 2 16.227 2 15.143 2zM5.138 4.327c.263-.134.611-.226 1.216-.276C6.971 4.001 7.764 4 8.9 4h6.2c1.137 0 1.929 0 2.546.051.605.05.953.142 1.216.276a3 3 0 011.311 1.311c.134.263.226.611.276 1.216.05.617.051 1.41.051 2.546v1.2c0 1.137 0 1.929-.051 2.546-.05.605-.142.953-.276 1.216a3 3 0 01-1.311 1.311c-.263.134-.611.226-1.216.276-.617.05-1.41.051-2.546.051H8.9c-1.137 0-1.929 0-2.546-.051-.605-.05-.953-.142-1.216-.276a3 3 0 01-1.311-1.311c-.134-.263-.226-.611-.276-1.216-.05-.617-.051-1.41-.051-2.546V9.4c0-1.137 0-1.929.051-2.546.05-.605.142-.953.276-1.216a3 3 0 011.311-1.311z" fill="currentColor"/><path d="M3 21.8h18v-2H3v2z" fill="currentColor"/></svg>