<svg width="24" height="24" fill="none" xmlns="http://www.w3.org/2000/svg" viewBox="0 0 24 24"><path fill-rule="evenodd" clip-rule="evenodd" d="M1 6a3 3 0 013-3h9a3 3 0 013 3v1.5h2.586A2 2 0 0120 8.086l2.414 2.414A2 2 0 0123 11.914V17a2 2 0 01-1.63 1.966 3.251 3.251 0 01-6.23.034H9.559a3.251 3.251 0 01-6.24-.078A3.001 3.001 0 011 16V6zm20 7.3v3.017a3.248 3.248 0 00-5-.612V13.3h5zm-.314-1.7l-2.1-2.1H16v2.1h4.686zM3.438 16.827A3.251 3.251 0 019.527 17H14V6a1 1 0 00-1-1H4a1 1 0 00-1 1v10a1 1 0 00.438.827zM5.2 18.05a1.25 1.25 0 112.5 0 1.25 1.25 0 01-2.5 0zm13.05-1.25a1.25 1.25 0 100 2.5 1.25 1.25 0 000-2.5z" fill="currentColor"/></svg>