<svg width="24" height="24" fill="none" xmlns="http://www.w3.org/2000/svg" viewBox="0 0 24 24"><path d="M6.894 2.664A6.571 6.571 0 00.73 9.574v.001c.222 4.042 2.9 6.133 5.303 8.008l.093.073.016.011a22.437 22.437 0 014.143 3.872 1 1 0 101.54-1.277 24.44 24.44 0 00-4.498-4.206c-2.497-1.95-4.432-3.529-4.6-6.59a4.571 4.571 0 014.267-4.805 4.389 4.389 0 012.972 1.11 1.6 1.6 0 002.24-.121 4.441 4.441 0 012.848-1.44l.072-.004a4.592 4.592 0 014.814 4.288 1 1 0 101.996-.13 6.592 6.592 0 00-6.917-6.155l-.123.008-.018.001a6.442 6.442 0 00-3.883 1.808 6.387 6.387 0 00-4.056-1.364h-.022l-.022.002z" fill="currentColor"/><path fill-rule="evenodd" clip-rule="evenodd" d="M16.498 7.933a4.392 4.392 0 00-5.878 1.94v.001c-1.196 2.359-.358 4.427.33 6.126l.043.108.008.017c.46 1.022.787 2.097.976 3.2a1.7 1.7 0 00.927 1.263l.01.005c.227.109.474.166.724.17h.026c.283-.004.559-.077.804-.21a12.575 12.575 0 013.179-1.163l.021-.004.155-.041c1.747-.462 3.87-1.023 5.038-3.288l.004-.008.004-.008a4.405 4.405 0 00-1.946-5.873l-.076-.038-.017-.007a4.314 4.314 0 00-2.532-.322 4.283 4.283 0 00-1.762-1.848l-.019-.01-.02-.01zm-3.665 7.39c-.729-1.803-1.182-3.06-.43-4.545a2.392 2.392 0 013.182-1.065 2.282 2.282 0 01.98 1.107 1.682 1.682 0 001.934.98 2.315 2.315 0 011.488.136l.03.015a2.405 2.405 0 011.063 3.197c-.733 1.415-1.998 1.794-3.883 2.293-1.15.254-2.264.646-3.319 1.168a15.27 15.27 0 00-1.045-3.286z" fill="currentColor"/></svg>