<svg xmlns="http://www.w3.org/2000/svg" width="24" height="24" fill="none" viewBox="0 0 24 24"><path fill="currentColor" fill-rule="evenodd" d="M15.018 2.21a6.592 6.592 0 0 1 6.917 6.155c.016.233.026.456.03.667a5.981 5.981 0 0 0-.36-.2l-.01-.004-.102-.052-.042-.019a5.814 5.814 0 0 0-2.361-.521 5.782 5.782 0 0 0-1.826-1.594l-.047-.026-.049-.025a5.892 5.892 0 0 0-7.886 2.603v.002c-1.509 2.976-.431 5.624.243 7.281l.07.176.019.044.02.043c.405.903.695 1.854.863 2.83a3.2 3.2 0 0 0 1.378 2.151l-.05.02a3.391 3.391 0 0 1-.38.125 1.528 1.528 0 0 1-.248.043 1.114 1.114 0 0 1-.425-.044 1.01 1.01 0 0 1-.483-.32l-.005-.006a22.44 22.44 0 0 0-4.143-3.872l-.015-.011-.094-.073C3.63 15.708.951 13.617.73 9.575v-.001a6.571 6.571 0 0 1 6.165-6.91l.021-.002h.022a6.389 6.389 0 0 1 4.056 1.364 6.44 6.44 0 0 1 3.883-1.808l.019-.001.122-.008zm-4.939 18.82a.06.06 0 0 1 0-.002v.002z" clip-rule="evenodd"/><path fill="currentColor" d="M10.603 9.873a4.392 4.392 0 0 1 5.878-1.94l.02.01.019.01a4.281 4.281 0 0 1 1.761 1.848 4.312 4.312 0 0 1 2.532.322l.017.007.076.038a4.405 4.405 0 0 1 1.947 5.873l-.004.008-.004.008c-1.168 2.265-3.291 2.826-5.039 3.288l-.155.04-.02.005a12.575 12.575 0 0 0-3.18 1.163 1.733 1.733 0 0 1-.804.21h-.026a1.727 1.727 0 0 1-.723-.17l-.01-.005a1.7 1.7 0 0 1-.928-1.262 13.275 13.275 0 0 0-.975-3.2l-.008-.018-.044-.108c-.688-1.699-1.525-3.767-.33-6.126v-.001z"/></svg>