<svg width="22" height="24" xmlns="http://www.w3.org/2000/svg" viewBox="0 0 22 24"><path d="M9.114 2.219c.452-.444 1.192-.168 1.279.434l.008.104.072 4.109c7.092 1.423 10.97 6.252 11.525 14.31.058.84-1.066 1.15-1.436.396-1.77-3.603-4.943-5.672-9.607-6.218l-.403-.043v4.38c0 .628-.692.976-1.18.64l-.084-.066-9.035-8.183a.777.777 0 01-.095-1.044l.072-.082L9.114 2.22zm-.502 3.064l-6.297 6.193 6.403 5.799v-3.983l2.01.194c3.457.334 6.279 1.426 8.423 3.271l.295.264-.082-.275c-1.359-4.366-4.316-6.996-8.92-8.013l-.331-.07-1.447-.29-.054-3.09z" fill-rule="evenodd"/></svg>