<svg width="24" height="24" fill="none" xmlns="http://www.w3.org/2000/svg" viewBox="0 0 24 24"><g clip-path="url(#clip0_338:12792)" fill-rule="evenodd" clip-rule="evenodd" fill="currentColor"><path d="M19.104 4.818a3.4 3.4 0 00-4.808 0L11.185 7.93 9.77 6.515l3.112-3.11a5.4 5.4 0 117.636 7.636l-3.11 3.111-1.415-1.414 3.111-3.111a3.4 3.4 0 000-4.809zM4.962 18.96a3.4 3.4 0 004.808 0l3.112-3.11 1.414 1.414-3.111 3.11a5.4 5.4 0 11-7.637-7.636l3.111-3.111 1.414 1.414-3.111 3.111a3.4 3.4 0 000 4.809zM9 2v3.692H7V2h2zM2 7h3.692v2H2V7zm13 15v-3.692h2V22h-2zm7-5h-3.692v-2H22v2z"/></g><defs><clipPath id="clip0_338:12792"><path fill="currentColor" d="M0 0h24v24H0z"/></clipPath></defs></svg>