<svg width="21" height="24" xmlns="http://www.w3.org/2000/svg" viewBox="0 0 21 24"><path d="M21 20.5v2H0v-2h21zm-3-19a3 3 0 013 3v12a3 3 0 01-3 3H3a3 3 0 01-3-3v-12a3 3 0 013-3h15zm0 2H3a1 1 0 00-.993.883L2 4.5v12a1 1 0 00.883.993L3 17.5h15a1 1 0 00.993-.883L19 16.5v-12a1 1 0 00-.883-.993L18 3.5zm-7.5 1.227l5.62 5.62.138.256c.208.402.162.486-.139 1.03l-.17.128a.587.587 0 01-.262.108l-.211.031H14.4v3.6h-1.8v-5.4h.727L10.5 7.273 7.672 10.1H8.4v3.5H10v1.8H6.6v-3.5H5.524l-.233-.069c-.408-.125-.483-.2-.608-.607l-.069-.234c.036-.268.045-.335.14-.472l.127-.171 5.619-5.62z" fill-rule="evenodd"/></svg>