<svg xmlns="http://www.w3.org/2000/svg" width="20" height="24" fill="none" viewBox="0 0 20 24"><path fill="currentColor" d="M10 7.7a1.7 1.7 0 0 0-.011 3.4h.022A1.7 1.7 0 0 0 10 7.7z"/><path fill="currentColor" fill-rule="evenodd" d="M15.836 1.949a3 3 0 0 1 3.02 2.845l.729 14.154c.109 2.113-1.945 3.672-3.951 2.998l-5.32-1.786a1 1 0 0 0-.633-.001l-5.453 1.805C2.225 22.627.181 21.067.29 18.96l.729-14.072A3 3 0 0 1 3.99 2.043l11.845-.094zM6.5 9.4c0 .933.365 1.781.96 2.409A4.897 4.897 0 0 0 5.1 16h1.8a3.1 3.1 0 0 1 3.087-3.1h.025A3.1 3.1 0 0 1 13.1 16h1.8a4.897 4.897 0 0 0-2.36-4.191A3.5 3.5 0 1 0 6.5 9.4z" clip-rule="evenodd"/></svg>