<svg xmlns="http://www.w3.org/2000/svg" width="24" height="24" fill="none" viewBox="0 0 24 24"><path fill="currentColor" d="m20.309 14.977.44 1.062a3.84 3.84 0 0 0 1.979 2.046l1.158.517v.891l-1.196.531a3.839 3.839 0 0 0-1.95 1.98l-.434.997h-.865l-.434-.996a3.839 3.839 0 0 0-1.951-1.98l-1.196-.532v-.891l1.16-.517a3.841 3.841 0 0 0 1.978-2.046l.44-1.062h.87zM8.768 6.363a1.273 1.273 0 1 1 0 2.546 1.273 1.273 0 0 1 0-2.546z"/><path fill="currentColor" fill-rule="evenodd" d="M16.917 1a4.192 4.192 0 0 1 4.191 4.191v8.311a5.733 5.733 0 0 0-5.922 8.517H6.192A4.192 4.192 0 0 1 2 17.828V5.191A4.192 4.192 0 0 1 6.191 1h10.726zM5 15.802h7.58v-1.8H5v1.8zm3.788-10.88a2.786 2.786 0 0 0-2.786 2.786c0 .708.266 1.352.701 1.844A3.866 3.866 0 0 0 4.92 12.81a.08.08 0 0 0 .08.08h1.39a.08.08 0 0 0 .08-.08 2.317 2.317 0 0 1 2.308-2.316h.019a2.317 2.317 0 0 1 2.307 2.316c0 .045.036.08.08.08h1.392a.08.08 0 0 0 .08-.08c0-1.369-.712-2.57-1.785-3.258a2.772 2.772 0 0 0 .702-1.844 2.786 2.786 0 0 0-2.785-2.786z" clip-rule="evenodd"/></svg>