<svg xmlns="http://www.w3.org/2000/svg" width="24" height="24" fill="none" viewBox="0 0 24 24"><path fill="currentColor" fill-rule="evenodd" d="M10.825 2a5.875 5.875 0 0 0-3.62 10.503A9.253 9.253 0 0 0 1.5 21.05h2a7.25 7.25 0 0 1 10.316-6.572 5.526 5.526 0 0 1 1.595-1.42 9.235 9.235 0 0 0-1.02-.514A5.875 5.875 0 0 0 10.825 2zM6.95 7.875a3.875 3.875 0 1 1 7.75 0 3.875 3.875 0 0 1-7.75 0z" clip-rule="evenodd"/><path fill="currentColor" d="m23.7 15.913-1.4-1.426-4.95 4.862-2.401-2.712-1.498 1.326 3.799 4.288 6.45-6.338z"/></svg>