<svg xmlns="http://www.w3.org/2000/svg" width="24" height="24" fill="none" viewBox="0 0 24 24"><path fill="currentColor" fill-rule="evenodd" d="M11.875 1.75a5.125 5.125 0 1 0 0 10.25 5.125 5.125 0 0 0 0-10.25zM8.75 6.875a3.125 3.125 0 1 1 6.25 0 3.125 3.125 0 0 1-6.25 0z" clip-rule="evenodd"/><path fill="currentColor" d="M7.886 14.97c2.12-.347 3.835-.45 5.715-.31l1.603-.335.84-1.392c-3.036-.464-5.384-.443-8.48.062l-1.432.234c-.827.135-1.558.377-2.18.753a3.93 3.93 0 0 0-1.465 1.526c-.214.403-.323.981-.384 1.418-.068.481-.103.99-.103 1.362v.008l.002.131v.011C2.085 20.66 4.15 22.2 6.375 22.2h6.815l.21-2H6.375c-1.425 0-2.335-.943-2.374-1.827L4 18.281c0-.27.028-.68.083-1.076.028-.197.061-.377.097-.523a2.096 2.096 0 0 1 .074-.237c.155-.292.39-.544.735-.752.35-.213.822-.385 1.466-.49l1.431-.234z"/><path fill="currentColor" fill-rule="evenodd" d="M19.21 13.289a1.4 1.4 0 0 0-2.42 0l-.984 1.69-1.913.415a1.4 1.4 0 0 0-.747 2.3l1.303 1.46-.197 1.946a1.4 1.4 0 0 0 1.958 1.422l1.79-.788 1.79.788a1.4 1.4 0 0 0 1.958-1.422l-.197-1.946 1.303-1.46a1.4 1.4 0 0 0-.747-2.3l-1.912-.415-.985-1.69zm-1.938 2.749.728-1.25.728 1.25c.198.34.53.58.913.663l1.414.306-.964 1.079a1.4 1.4 0 0 0-.349 1.074l.146 1.438-1.324-.583a1.4 1.4 0 0 0-1.128 0l-1.324.583.146-1.438a1.4 1.4 0 0 0-.35-1.074l-.963-1.078 1.414-.307a1.4 1.4 0 0 0 .913-.663z" clip-rule="evenodd"/></svg>