<svg xmlns="http://www.w3.org/2000/svg" width="24" height="24" fill="none" viewBox="0 0 24 24"><path fill="currentColor" d="M15.8 19.8v-1.6H8.2v1.6h7.6z"/><path fill="currentColor" fill-rule="evenodd" d="M14.54 11.508a3.5 3.5 0 1 0-5.079 0A4.897 4.897 0 0 0 7.1 15.7h1.8a3.1 3.1 0 0 1 3.096-3.1h.006a3.1 3.1 0 0 1 3.097 3.1h1.8a4.897 4.897 0 0 0-2.36-4.191zm-2.537-.708a1.7 1.7 0 1 0-.003 0h.003z" clip-rule="evenodd"/><path fill="currentColor" fill-rule="evenodd" d="M8.7 1.1A4.9 4.9 0 0 0 3.8 6v12a4.9 4.9 0 0 0 4.9 4.9h6.6a4.9 4.9 0 0 0 4.9-4.9V6a4.9 4.9 0 0 0-4.9-4.9H8.7zM5.6 6a3.1 3.1 0 0 1 3.1-3.1h6.6A3.1 3.1 0 0 1 18.4 6v12a3.1 3.1 0 0 1-3.1 3.1H8.7A3.1 3.1 0 0 1 5.6 18V6z" clip-rule="evenodd"/></svg>