<svg xmlns="http://www.w3.org/2000/svg" width="22" height="24" fill="none" viewBox="0 0 22 24"><g fill="currentColor" clip-path="url(#dls-ed97b-a)"><path d="M.092 12c0-6.064 4.861-11 10.881-11 3.467 0 6.548 1.638 8.538 4.18l.887-.512a.5.5 0 0 1 .746.499l-.413 3.098a.5.5 0 0 1-.698.391L17.23 7.415a.5.5 0 0 1-.048-.89l.576-.333A8.813 8.813 0 0 0 10.973 3c-4.894 0-8.881 4.018-8.881 9h-2zM11.21 23c6.022 0 10.882-4.936 10.882-11h-2c0 4.982-3.988 9-8.882 9-2.717 0-5.153-1.237-6.785-3.192l.576-.334a.5.5 0 0 0-.047-.89l-2.804-1.24a.5.5 0 0 0-.698.391l-.413 3.097a.5.5 0 0 0 .746.5l.887-.512C4.662 21.362 7.745 23 11.21 23z"/><path d="M7.555 10.515a3.5 3.5 0 0 0 .906 1.794H8.46A4.895 4.895 0 0 0 6.1 16.5h9.8a4.895 4.895 0 0 0-2.36-4.191 3.5 3.5 0 1 0-5.985-1.794z"/></g><defs><clipPath id="dls-ed97b-a"><path fill="currentColor" d="M0 0h22v24H0z"/></clipPath></defs></svg>