<svg xmlns="http://www.w3.org/2000/svg" width="24" height="24" fill="none" viewBox="0 0 24 24"><path fill="currentColor" d="M1.7 6.4v2h1.8v-2a3.1 3.1 0 0 1 3.1-3.1h2V1.5h-2a4.9 4.9 0 0 0-4.9 4.9zm20.6 0v2h-1.8v-2a3.1 3.1 0 0 0-3.1-3.1h-2V1.5h2a4.9 4.9 0 0 1 4.9 4.9zM1.7 15.6v2a4.9 4.9 0 0 0 4.9 4.9h2v-1.8h-2a3.1 3.1 0 0 1-3.1-3.1v-2H1.7z"/><path fill="currentColor" fill-rule="evenodd" d="M14.258 12.42a2.9 2.9 0 1 0-4.516 0A3.895 3.895 0 0 0 8.1 15.6h1.8a2.1 2.1 0 1 1 4.2 0h1.8a3.895 3.895 0 0 0-1.642-3.18zM10.9 10.6a1.1 1.1 0 1 1 2.2 0 1.1 1.1 0 0 1-2.2 0z" clip-rule="evenodd"/><path fill="currentColor" fill-rule="evenodd" d="M4 12a8 8 0 1 1 14.32 4.906l3.308 3.308-1.415 1.414-3.307-3.308A8 8 0 0 1 4 12zm8-6a6 6 0 1 0 0 12 6 6 0 0 0 0-12z" clip-rule="evenodd"/></svg>