<svg xmlns="http://www.w3.org/2000/svg" width="22" height="24" fill="none" viewBox="0 0 22 24"><path fill="currentColor" d="M.7 6.4v2h1.8v-2a3.1 3.1 0 0 1 3.1-3.1h2V1.5h-2A4.9 4.9 0 0 0 .7 6.4zm20.6 0v2h-1.8v-2a3.1 3.1 0 0 0-3.1-3.1h-2V1.5h2a4.9 4.9 0 0 1 4.9 4.9zM.7 17.6v-2h1.8v2a3.1 3.1 0 0 0 3.1 3.1h2v1.8h-2a4.9 4.9 0 0 1-4.9-4.9zm9.2-7a1.1 1.1 0 1 1 2.2 0 1.1 1.1 0 0 1-2.2 0z"/><path fill="currentColor" fill-rule="evenodd" d="M3 12a8 8 0 1 1 14.32 4.906l3.308 3.307-1.415 1.415-3.307-3.308A8 8 0 0 1 3 12zm8-4.3a2.9 2.9 0 0 0-2.258 4.72A3.895 3.895 0 0 0 7.1 15.6h1.8a2.1 2.1 0 1 1 4.2 0h1.8a3.895 3.895 0 0 0-1.642-3.18A2.9 2.9 0 0 0 11 7.7z" clip-rule="evenodd"/></svg>