<svg xmlns="http://www.w3.org/2000/svg" width="20" height="24" fill="none" viewBox="0 0 20 24"><path fill="currentColor" d="M5 1.6A4.9 4.9 0 0 0 .1 6.5v11A4.9 4.9 0 0 0 5 22.4h7v-1.8H5a3.1 3.1 0 0 1-3.1-3.1v-11A3.1 3.1 0 0 1 5 3.4h10a3.1 3.1 0 0 1 3.1 3.1V12h1.8V6.5A4.9 4.9 0 0 0 15 1.6H5z"/><path fill="currentColor" fill-rule="evenodd" d="M7.1 6.07a2.945 2.945 0 0 0-2.318 4.763A4.025 4.025 0 0 0 3.07 14.13h1.86a2.17 2.17 0 1 1 4.34 0h1.86a4.025 4.025 0 0 0-1.713-3.298A2.945 2.945 0 0 0 7.099 6.07zM6.015 9.015a1.085 1.085 0 1 1 2.17 0 1.085 1.085 0 0 1-2.17 0z" clip-rule="evenodd"/><path fill="currentColor" d="M3.2 16.2h7.6v1.6H3.2v-1.6z"/><path fill="currentColor" fill-rule="evenodd" d="M14.1 13.1a1 1 0 0 0-1 1v6.712a1 1 0 0 0 1.56.829l2.027-1.369 1.685 1.048a1 1 0 0 0 1.528-.85V14.1a1 1 0 0 0-1-1h-4.8zm.8 6.207V14.9h3.2v4.131l-.903-.561a1 1 0 0 0-1.087.02l-1.21.817z" clip-rule="evenodd"/></svg>