<svg width="18" height="24" xmlns="http://www.w3.org/2000/svg" viewBox="0 0 18 24"><path d="M15 0a3 3 0 013 3v18a3 3 0 01-3 3H3a3 3 0 01-3-3V3a3 3 0 013-3h12zM1.818 20.983V21c0 .612.465 1.115 1.061 1.176l.121.006h12c.612 0 1.115-.465 1.176-1.061l.006-.121H2a.994.994 0 01-.182-.017zM15 1.818H3c-.612 0-1.115.465-1.176 1.061L1.818 3v16.017a.998.998 0 01.065-.01L2 19h14.181V3c0-.612-.464-1.115-1.06-1.176L15 1.818zM9 6.5a3.25 3.25 0 011.791 5.962 4.935 4.935 0 013.142 4.386l.005.215h-2a2.937 2.937 0 00-5.87-.173l-.005.172h-2a4.94 4.94 0 013.145-4.602A3.25 3.25 0 019 6.5zm0 2A1.25 1.25 0 109 11a1.25 1.25 0 000-2.5zM10 3a1 1 0 01.117 1.993L10 5H8a1 1 0 01-.117-1.993L8 3h2z" fill-rule="evenodd"/></svg>