<svg xmlns="http://www.w3.org/2000/svg" width="18" height="24" fill="none" viewBox="0 0 18 24"><path fill="currentColor" d="M9 7.4a1.7 1.7 0 0 0-.011 3.4h.022A1.7 1.7 0 0 0 9 7.4z"/><path fill="currentColor" fill-rule="evenodd" d="M.1 6A4.9 4.9 0 0 1 5 1.1h8A4.9 4.9 0 0 1 17.9 6v12a4.9 4.9 0 0 1-4.9 4.9H5A4.9 4.9 0 0 1 .1 18V6zm5.4 3.1c0 .933.365 1.781.96 2.409a4.897 4.897 0 0 0-2.36 4.19h1.8A3.1 3.1 0 0 1 8.987 12.6h.026a3.1 3.1 0 0 1 3.087 3.1h1.8a4.897 4.897 0 0 0-2.36-4.191A3.5 3.5 0 1 0 5.5 9.1zm7.4 9.1H5.3v1.6h7.6v-1.6z" clip-rule="evenodd"/></svg>