<svg width="22" height="24" xmlns="http://www.w3.org/2000/svg" viewBox="0 0 22 24"><path d="M12.133 21.183V23H8.097v-1.817h4.036zm-5.046 0V23H3.051v-1.817h4.036zm10.042-.002l.12 1.813-.09.004-4.017.002v-1.817h3.918c.024 0 .047 0 .07-.002zm-15.312-2.94v1.832c0 .434.25.822.635 1.004l-.778 1.642A2.926 2.926 0 010 20.073v-1.832h1.817zM19.073 1A2.927 2.927 0 0122 3.927v13.119c0 1.3-.847 2.4-2.018 2.783v.244c0 1.02-.527 1.95-1.374 2.481l-.965-1.539c.323-.202.522-.554.522-.942v-.101H5.955a2.927 2.927 0 01-2.923-2.754l-.004-.172V3.926A2.927 2.927 0 015.954 1zm0 1.817H5.954a1.11 1.11 0 00-1.11 1.11v13.119c0 .613.497 1.11 1.11 1.11h13.12a1.11 1.11 0 001.11-1.11V3.926a1.11 1.11 0 00-1.11-1.11zM1.817 13.195v4.037H0v-4.037h1.817zm10.697-9.167a3.683 3.683 0 011.37 7.103 5.764 5.764 0 014.39 5.378l.005.222h-1.817a3.948 3.948 0 00-7.891-.204l-.006.204H6.75a5.767 5.767 0 014.395-5.602 3.683 3.683 0 011.37-7.102zM1.817 8.149v4.037H0V8.15h1.817zm10.697-2.305a1.867 1.867 0 100 3.734 1.867 1.867 0 000-3.734zm-9.972-2.8l.237 1.8a1.11 1.11 0 00-.962 1.101V7.14H0V5.945a2.927 2.927 0 012.542-2.901z" fill-rule="evenodd"/></svg>