<svg xmlns="http://www.w3.org/2000/svg" width="20" height="24" fill="none" viewBox="0 0 20 24"><path fill="currentColor" fill-rule="evenodd" d="M15.836 1.949a3 3 0 0 1 3.02 2.845l.729 14.154c.109 2.113-1.945 3.672-3.951 2.998l-5.32-1.786a1 1 0 0 0-.633-.001l-5.453 1.805C2.225 22.627.181 21.067.29 18.96l.729-14.072A3 3 0 0 1 3.99 2.043l11.845-.094zM6.138 16.5v-5.691c-.313.378-.648.745-.993 1.112L4.8 10.81C5.879 9.589 6.688 8.152 7.206 6.5l1.024.486c-.248.756-.571 1.49-.97 2.181V16.5H6.138zm1.672-6.393v-1.08h2.114c0-.081.003-.162.006-.243.002-.081.005-.162.005-.243V6.543h1.09v1.998c0 .09-.004.176-.006.26a5.851 5.851 0 0 0-.005.226h3.495v1.08h-2.136v4.968c0 .15.075.226.226.226h.799c.086 0 .162-.065.248-.172.064-.12.118-.627.15-1.523l1.004.335c-.108 1.166-.227 1.857-.378 2.051-.183.206-.431.314-.744.335h-1.38c-.67 0-.993-.356-.993-1.047v-5.173h-.356c-.259 2.83-1.144 4.957-2.654 6.382l-.841-.734c1.359-1.253 2.168-3.132 2.405-5.648H7.81zm3.862-2.765.722-.69c.68.453 1.252.917 1.716 1.392l-.766.767c-.4-.454-.96-.95-1.672-1.469z" clip-rule="evenodd"/></svg>