<svg width="24" height="24" fill="none" xmlns="http://www.w3.org/2000/svg" viewBox="0 0 24 24"><path fill-rule="evenodd" clip-rule="evenodd" d="M8.5 5.6a3.5 3.5 0 116.04 2.408A4.897 4.897 0 0116.9 12.2h-1.8a3.1 3.1 0 10-6.2 0H7.1c0-1.776.945-3.332 2.36-4.191a3.488 3.488 0 01-.96-2.41zM12 3.9a1.7 1.7 0 100 3.4 1.7 1.7 0 000-3.4z" fill="currentColor"/><path d="M4 18.9v-1.8h16v1.8H4zm3 3v-1.8h10v1.8H7zM4 10a1 1 0 011-1h1.7V7H5a3 3 0 00-3 3v2a4 4 0 004 4h12a4 4 0 004-4v-2a3 3 0 00-3-3h-1.7v2H19a1 1 0 011 1v2a2 2 0 01-2 2H6a2 2 0 01-2-2v-2z" fill="currentColor"/></svg>