<svg xmlns="http://www.w3.org/2000/svg" width="24" height="24" fill="none" viewBox="0 0 24 24"><path fill="currentColor" fill-rule="evenodd" d="M14.54 11.809a3.5 3.5 0 1 0-5.079 0A4.897 4.897 0 0 0 7.1 16h1.8a3.1 3.1 0 1 1 6.2 0h1.8a4.897 4.897 0 0 0-2.361-4.191zM10.3 9.4a1.7 1.7 0 1 1 3.4 0 1.7 1.7 0 0 1-3.4 0z" clip-rule="evenodd"/><path fill="currentColor" fill-rule="evenodd" d="M17.837 1.949a3 3 0 0 1 3.02 2.845l.728 14.154c.109 2.113-1.945 3.672-3.951 2.998l-5.32-1.786a1 1 0 0 0-.633-.001l-5.453 1.805c-2.003.663-4.047-.896-3.938-3.004l.729-14.072A3 3 0 0 1 5.99 2.043l11.846-.094zm1.022 2.948a1 1 0 0 0-1.007-.949l-11.845.095a1 1 0 0 0-.99.948l-.73 14.073a1 1 0 0 0 1.313 1l5.453-1.804a3 3 0 0 1 1.897.004l5.32 1.786a1 1 0 0 0 1.317-1L18.86 4.898z" clip-rule="evenodd"/></svg>