<svg xmlns="http://www.w3.org/2000/svg" width="24" height="24" fill="none" viewBox="0 0 24 24"><path fill="currentColor" fill-rule="evenodd" d="M2.422 6.4a4.378 4.378 0 1 1 6.99 3.513c1.403.83 2.36 2.306 2.36 4.037v.002l.028 7.644-2 .008-.028-7.649v-.003c0-1.464-1.28-2.752-2.986-2.752-1.707 0-2.986 1.288-2.986 2.752V21.6h-2v-7.648c0-1.739.963-3.22 2.376-4.048A4.371 4.371 0 0 1 2.422 6.4zM6.8 3.978a2.422 2.422 0 1 0 0 4.844 2.422 2.422 0 0 0 0-4.844zM16.5 2.5V10h-.7a3 3 0 0 0-3 3v5.7a3 3 0 0 0 3 3h3.6a3 3 0 0 0 3-3V13a3 3 0 0 0-3-3h-.9V7.5H22v-2h-3.5v-3h-2zm-.7 9.5a1 1 0 0 0-1 1v5.7a1 1 0 0 0 1 1h3.6a1 1 0 0 0 1-1V13a1 1 0 0 0-1-1h-3.6z" clip-rule="evenodd"/></svg>