<svg width="21" height="24" xmlns="http://www.w3.org/2000/svg" viewBox="0 0 21 24"><path d="M17 1.5v3.477h4v1.988l-4-.001v3.613h2.136c.98 0 1.784.752 1.858 1.707l.006.145v8.22a1.858 1.858 0 01-1.864 1.851h-6.272A1.858 1.858 0 0111 20.648V12.43c0-1.023.834-1.852 1.864-1.852H15V1.5h2zm-11.886 0C7.812 1.5 10 3.674 10 6.355v.226a4.85 4.85 0 01-2.573 4.277 4.836 4.836 0 012.341 3.926l.005.216.027 7.36-2 .008-.027-7.365a2.877 2.877 0 00-2.887-2.868 2.879 2.879 0 00-2.881 2.7L2 15.003v7.362H0v-7.362c0-1.801.987-3.373 2.454-4.211A4.847 4.847 0 010 6.58l.005-.329C.118 3.61 2.31 1.5 5 1.5zM19 12.564h-6v7.949h6v-7.949zM5.114 3.487H5a2.99 2.99 0 00-3 2.98v.114a2.877 2.877 0 002.886 2.867h.228A2.877 2.877 0 008 6.581v-.226a2.877 2.877 0 00-2.886-2.868z" fill-rule="evenodd"/></svg>