<svg width="24" height="24" xmlns="http://www.w3.org/2000/svg" viewBox="0 0 24 24"><path d="M18.6 21.022v1.956H5.4v-1.956h13.2zm2.933-3v1.956H2.467v-1.956h19.066zM5 8.022v1.956l-3.023-.001v5.045h20.045V9.977H19V8.023h3.511c.741 0 1.386.539 1.46 1.275l.007.14v6.126c0 .76-.602 1.343-1.33 1.409l-.137.006H1.49c-.741 0-1.386-.539-1.46-1.275l-.007-.14V9.436c0-.76.602-1.343 1.33-1.409l.137-.006H5zM12 1a3.75 3.75 0 011.655 7.116 5.812 5.812 0 014.153 5.349l.005.223h-2a3.813 3.813 0 00-7.62-.197l-.005.197h-2a5.815 5.815 0 014.156-5.574A3.75 3.75 0 0112 1zm0 2a1.75 1.75 0 100 3.5A1.75 1.75 0 0012 3z" fill-rule="evenodd"/></svg>