<svg width="24" height="24" fill="none" xmlns="http://www.w3.org/2000/svg" viewBox="0 0 24 24"><path d="M1.7 6.4v2h1.8v-2a3.1 3.1 0 013.1-3.1h2V1.5h-2a4.9 4.9 0 00-4.9 4.9zm20.6 0v2h-1.8v-2a3.1 3.1 0 00-3.1-3.1h-2V1.5h2a4.9 4.9 0 014.9 4.9zM1.7 15.6v2a4.9 4.9 0 004.9 4.9h2v-1.8h-2a3.1 3.1 0 01-3.1-3.1v-2H1.7z" fill="currentColor"/><path fill-rule="evenodd" clip-rule="evenodd" d="M14.258 12.42a2.9 2.9 0 10-4.516 0A3.895 3.895 0 008.1 15.6h1.8a2.1 2.1 0 114.2 0h1.8a3.895 3.895 0 00-1.642-3.18zM10.9 10.6a1.1 1.1 0 112.2 0 1.1 1.1 0 01-2.2 0z" fill="currentColor"/><path fill-rule="evenodd" clip-rule="evenodd" d="M4 12a8 8 0 1114.32 4.906l3.308 3.308-1.415 1.414-3.307-3.308A8 8 0 014 12zm8-6a6 6 0 100 12 6 6 0 000-12z" fill="currentColor"/></svg>