<svg xmlns="http://www.w3.org/2000/svg" width="24" height="24" fill="none" viewBox="0 0 24 24"><path fill="currentColor" fill-rule="evenodd" d="M10.514 6.143A1 1 0 0 0 9 7v6a1 1 0 0 0 1.514.857l5-3a1 1 0 0 0 0-1.714l-5-3zM13.056 10 11 11.234V8.766L13.056 10z" clip-rule="evenodd"/><path fill="currentColor" d="M9.5 18H6v-2h3.5v2zm1.5 0h7v-2h-7v2z"/><path fill="currentColor" fill-rule="evenodd" d="M7 1a5 5 0 0 0-5 5v12a5 5 0 0 0 5 5h10a5 5 0 0 0 5-5V6a5 5 0 0 0-5-5H7zM4 6a3 3 0 0 1 3-3h10a3 3 0 0 1 3 3v12a3 3 0 0 1-3 3H7a3 3 0 0 1-3-3V6z" clip-rule="evenodd"/></svg>