<svg width="24" height="24" fill="none" xmlns="http://www.w3.org/2000/svg" viewBox="0 0 24 24"><path d="M6.5 10a1.5 1.5 0 100-3 1.5 1.5 0 000 3z" fill="currentColor"/><path fill-rule="evenodd" clip-rule="evenodd" d="M1 8a5 5 0 015-5h8a5.002 5.002 0 014.902 4.008l1.184-.795c1.33-.89 3.114.062 3.114 1.662v8.215c0 1.614-1.813 2.563-3.14 1.644l-1.148-.796A5.002 5.002 0 0114 21H6a5 5 0 01-5-5V8zm18 6.565V9.35l2.2-1.475v8.215L19 14.565zM6 5a3 3 0 00-3 3v8a3 3 0 003 3h8a3 3 0 003-3V8a3 3 0 00-3-3H6z" fill="currentColor"/></svg>