<svg width="23" height="24" xmlns="http://www.w3.org/2000/svg" viewBox="0 0 23 24"><path d="M4.66 0l-.001 2.658H17.34a3 3 0 012.996 2.825l.005.177v12.68H23v2.001h-2.659V23h-2l-.001-2.659H5.66a3 3 0 01-2.996-2.824l-.005-.177-.001-12.68H0v-2l2.658-.001V0H4.66zm12.68 4.66L5.545 4.658c-.21.07-.385.17-.525.308l-.099.11c-.141.181-.227.42-.258.716l-.004-.001V17.34a1 1 0 00.884.994l.117.007h11.8c.26-.08.467-.217.619-.411.141-.181.227-.42.258-.716h.003V5.66a1 1 0 00-.883-.994l-.117-.007zM8.502 8.501a1 1 0 011.504-.864l5.001 2.917a1 1 0 010 1.728l-5 2.918a1 1 0 01-1.505-.864zm2 1.74v2.353l2.016-1.176-2.016-1.177z" fill="currentColor" fill-rule="evenodd"/></svg>