<svg width="22" height="24" xmlns="http://www.w3.org/2000/svg" viewBox="0 0 22 24"><path d="M19 1a3 3 0 013 3v16a3 3 0 01-3 3H3a3 3 0 01-3-3V4a3 3 0 013-3h16zM4 18H2v2a1 1 0 00.883.993L3 21h1v-3zM16 3H6v18h10V3zm4 15h-2v3h1a1 1 0 00.993-.883L20 20v-2zm0-5h-2v3h2v-3zM4 13H2v3h2v-3zm3.7-4a1 1 0 011.504-.864l5 2.917a1 1 0 010 1.727l-5 2.917a1 1 0 01-1.504-.864zm2 1.74v2.352l2.015-1.176L9.7 10.74zM20 8h-2v3h2V8zM4 8H2v3h2V8zm15-5h-1v3h2V4a1 1 0 00-.883-.993L19 3zM4 3H3a1 1 0 00-.993.883L2 4v2h2V3z" fill="currentColor" fill-rule="evenodd"/></svg>