<svg xmlns="http://www.w3.org/2000/svg" width="24" height="24" fill="none" viewBox="0 0 24 24"><path fill="currentColor" fill-rule="evenodd" d="M11.036 8.38A1.3 1.3 0 0 0 9 9.45v5.1a1.3 1.3 0 0 0 2.036 1.07l3.709-2.549a1.3 1.3 0 0 0 0-2.142l-3.709-2.55zm-.436 5.6v-3.96L13.479 12l-2.88 1.98z" clip-rule="evenodd"/><path fill="currentColor" fill-rule="evenodd" d="M1.5 17.5a5 5 0 0 0 5 5h11a5 5 0 0 0 5-5v-11a5 5 0 0 0-5-5h-11a5 5 0 0 0-5 5v11zm4.2 2.892A3.001 3.001 0 0 1 3.5 17.5v-1.2h2.2v4.092zM5.7 8.2V3.608A3.001 3.001 0 0 0 3.5 6.5v1.7h2.2zm0 1.6H3.5v4.9h2.2V9.8zm1.6 10.7h9.4v-17H7.3v17zm13.2-3a3 3 0 0 1-2.2 2.892V16.3h2.2v1.2zm-2.2-2.8V9.8h2.2v4.9h-2.2zm0-11.092V8.2h2.2V6.5a3 3 0 0 0-2.2-2.892z" clip-rule="evenodd"/></svg>