<svg xmlns="http://www.w3.org/2000/svg" width="24" height="24" fill="none" viewBox="0 0 24 24"><path fill="currentColor" d="M18.185.83h2v2.955H23.2v2h-3.015V8.8h-2V5.785H15.23v-2h2.955V.83z"/><path fill="currentColor" d="M1 7a5 5 0 0 1 5-5h7v2H6a3 3 0 0 0-3 3v10a3 3 0 0 0 3 3h12a3 3 0 0 0 3-3v-5.934h2V17a5 5 0 0 1-5 5H6a5 5 0 0 1-5-5V7z"/><path fill="currentColor" fill-rule="evenodd" d="M10.954 8.1C9.69 7.26 8 8.165 8 9.683v5.443c0 1.542 1.74 2.442 2.998 1.55l3.96-2.804a1.9 1.9 0 0 0-.045-3.13l-3.96-2.64zM10 14.933V9.869l3.682 2.454L10 14.932z" clip-rule="evenodd"/></svg>