<svg width="40" height="40" xmlns="http://www.w3.org/2000/svg" viewBox="0 0 40 40"><path d="M23.733 4.2v2h-19.1c-1.404 0-2.542 1.058-2.628 2.383L2 8.743v23.914c0 1.345 1.085 2.455 2.465 2.538l.167.005h26.336c1.403 0 2.541-1.058 2.627-2.383l.005-.16V15.5h2v17.157c0 2.443-1.962 4.427-4.415 4.538l-.217.005H4.632c-2.48 0-4.513-1.914-4.627-4.329L0 32.657V8.743C0 6.3 1.962 4.316 4.415 4.205l.217-.005h19.101zm-8.992 9.417a1.5 1.5 0 01.621.135l.143.074 9.517 5.624a1.5 1.5 0 01.126 2.5l-.126.083-9.517 5.623a1.5 1.5 0 01-2.255-1.13l-.009-.161V15.117a1.5 1.5 0 011.5-1.5zm.5 2.376v9.495l8.035-4.748-8.035-4.747zM35.5 0v4.2H40v2h-4.5V11h-2V6.2H29v-2h4.5V0h2z" fill-rule="evenodd"/></svg>