<svg xmlns="http://www.w3.org/2000/svg" width="24" height="24" fill="none" viewBox="0 0 24 24"><path fill="currentColor" fill-rule="evenodd" d="M10.412 3.263c1.604-1.468 4.188-.33 4.188 1.844v13.786c0 2.174-2.584 3.312-4.188 1.844l-2.7-2.473H4.6a3 3 0 0 1-3-3V8.735a3 3 0 0 1 3-3h3.111l2.7-2.472zM12.6 5.107a.5.5 0 0 0-.838-.369L8.49 7.735H4.6a1 1 0 0 0-1 1v6.53a1 1 0 0 0 1 1h3.89l3.273 2.997a.5.5 0 0 0 .838-.37V5.108z" clip-rule="evenodd"/><path fill="currentColor" d="M17.472 12.322c0-.76-.474-1.7-1.866-2.814l1.187-1.483c1.572 1.257 2.58 2.686 2.58 4.297 0 1.611-1.008 3.04-2.58 4.298l-1.186-1.484c1.39-1.113 1.865-2.054 1.865-2.814z"/><path fill="currentColor" d="M18.028 6.772c1.97 1.97 2.833 3.817 2.833 5.55 0 1.733-.862 3.58-2.833 5.55l1.344 1.344c2.177-2.178 3.389-4.479 3.389-6.894s-1.212-4.716-3.39-6.894l-1.343 1.344z"/></svg>