<svg xmlns="http://www.w3.org/2000/svg" width="24" height="24" fill="none" viewBox="0 0 24 24"><path fill="currentColor" d="M8 12.001V12H3l5 .001z"/><path fill="currentColor" fill-rule="evenodd" d="M10 12.002a2 2 0 0 0 4 0l2 .001a4 4 0 0 1-8-.002h2zm0 0V12h4v.003l-4-.001z" clip-rule="evenodd"/><path fill="currentColor" fill-rule="evenodd" d="M12 1C5.925 1 1 5.925 1 12s4.925 11 11 11 11-4.925 11-11S18.075 1 12 1zM3 12a9 9 0 0 0 9 9 9 9 0 0 0 9-9 9 9 0 0 0-9-9 8.97 8.97 0 0 0-6.189 2.466A7.953 7.953 0 0 1 8.5 5c4.065 0 7.5 3.06 7.5 7h-2v-.003A2 2 0 0 0 10 12H8a4 4 0 0 1 3.809-3.996A5.812 5.812 0 0 0 8.5 7C5.385 7 3 9.312 3 12z" clip-rule="evenodd"/></svg>