<svg width="24" height="24" fill="none" xmlns="http://www.w3.org/2000/svg" viewBox="0 0 24 24"><path d="M8 12.001V12H3l5 .001z" fill="currentColor"/><path fill-rule="evenodd" clip-rule="evenodd" d="M10 12.002a2 2 0 004 0l2 .001a4 4 0 01-8-.002h2zm0 0V12h4v.003l-4-.001z" fill="currentColor"/><path fill-rule="evenodd" clip-rule="evenodd" d="M12 1C5.925 1 1 5.925 1 12s4.925 11 11 11 11-4.925 11-11S18.075 1 12 1zM3 12a9 9 0 009 9 9 9 0 009-9 9 9 0 00-9-9 8.97 8.97 0 00-6.189 2.466A7.953 7.953 0 018.5 5c4.065 0 7.5 3.06 7.5 7h-2v-.003A2 2 0 0010 12H8a4 4 0 013.809-3.996A5.812 5.812 0 008.5 7C5.385 7 3 9.312 3 12z" fill="currentColor"/></svg>