<svg xmlns="http://www.w3.org/2000/svg" width="24" height="24" fill="none" viewBox="0 0 24 24"><path stroke="currentColor" stroke-width="2" d="M14.555 5.754a11.41 11.41 0 0 0-.566-1.957c-.742-1.949-3.236-1.949-3.978 0-.24.63-.443 1.295-.566 1.957C9.163 7.28 9 9.576 9 11.5m9.246 3.055a11.41 11.41 0 0 0 1.957-.566c1.949-.742 1.949-3.236 0-3.978-.63-.24-1.295-.443-1.957-.566C16.72 9.163 14.424 9 12.5 9m-6.746.445c-.662.123-1.326.326-1.957.566-1.949.742-1.949 3.236 0 3.978.63.24 1.295.443 1.957.566C7.28 14.837 9.576 15 11.5 15m-2.055 3.246c.123.662.326 1.326.566 1.957.742 1.949 3.236 1.949 3.978 0 .24-.63.443-1.295.566-1.957.282-1.525.445-3.822.445-5.746"/></svg>