<svg xmlns="http://www.w3.org/2000/svg" width="24" height="24" fill="none" viewBox="0 0 24 24"><path fill="currentColor" d="M3.148 9.82a8.82 8.82 0 0 1 17.638 0v3.574c0 .64.263 1.492.527 2.162.343.872.05 1.944-.837 2.45l-2.554 1.46-.946-1.656 2.554-1.459.003-.003a.06.06 0 0 0 .009-.017.114.114 0 0 0-.004-.076c-.275-.7-.659-1.837-.659-2.86V9.818a6.912 6.912 0 1 0-13.824 0v3.575c0 1.054-.412 2.428-.687 3.244a.068.068 0 0 0 .002.048l.007.01c0 .001 0 .002.002.002l2.482 1.064-.752 1.752-2.481-1.063c-.957-.41-1.382-1.485-1.067-2.421.28-.833.587-1.933.587-2.636V9.82z"/><path fill="currentColor" fill-rule="evenodd" d="M11.205 4.813h1.525v.014l.002.064a8.437 8.437 0 0 0 .148 1.205c.154.775.455 1.737 1.035 2.574.494.714 1.36 1.084 2.22 1.26.41.083.788.116 1.066.127h.773v1.43a6.006 6.006 0 1 1-12.013 0v-1.43h.699c.232-.01.553-.043.914-.124.745-.168 1.607-.535 2.243-1.312.683-.835 1.034-1.788 1.213-2.551a7.106 7.106 0 0 0 .172-1.184c.002-.028.002-.05.002-.061v-.012zm-3.719 6.69a4.481 4.481 0 0 0 8.962.022 8.036 8.036 0 0 1-.618-.1c-1.01-.207-2.344-.695-3.17-1.887a7.447 7.447 0 0 1-.75-1.39c-.232.48-.53.97-.912 1.439-.925 1.13-2.143 1.62-3.088 1.834-.147.033-.289.06-.424.082z" clip-rule="evenodd"/><path fill="currentColor" d="M12.068 20.547c2.43.024 4.775.89 6.636 2.45l.003.003 1.227-1.462-.003-.003a12.39 12.39 0 0 0-14.17-1.232c-.55.318-1.077.68-1.576 1.083l1.198 1.485.002-.001a10.486 10.486 0 0 1 6.683-2.323z"/></svg>