<svg xmlns="http://www.w3.org/2000/svg" width="24" height="24" fill="none" viewBox="0 0 24 24"><path fill="currentColor" fill-rule="evenodd" d="M6.5 1.5a5 5 0 0 0-5 5v11a5 5 0 0 0 5 5h11a5 5 0 0 0 5-5v-11a5 5 0 0 0-5-5h-11zm-3 5a3 3 0 0 1 3-3h11a3 3 0 0 1 3 3v11a3 3 0 0 1-3 3h-11a3 3 0 0 1-3-3v-11zm9.306-.604-1.85-.646-.076.155c-.844 1.746-1.583 3.07-2.218 3.978-.317.455-.604.799-.862 1.039-.26.242-.473.362-.642.396l-.187.038.338 1.796.173-.014a53.16 53.16 0 0 0 3.392-.37 45.167 45.167 0 0 1-2.59 2.72c-.475.421-.91.687-1.308.811l-.176.055.48 1.853.16-.011c3.133-.212 5.756-.54 7.866-.974.169.44.336.9.493 1.358l.058.17 1.743-.45-.068-.198c-.694-2.016-1.483-3.816-2.37-5.388l-.078-.138-1.684.556.11.204c.38.697.736 1.417 1.07 2.16a69.21 69.21 0 0 1-4.276.613c1.535-1.493 3.393-3.746 5.55-6.752l.134-.186-1.723-.853-.094.139a51.18 51.18 0 0 1-1.67 2.32c-.88.178-1.77.31-2.67.41.98-1.305 1.937-2.836 2.87-4.591l.105-.2z" clip-rule="evenodd"/></svg>