<svg width="24" height="24" xmlns="http://www.w3.org/2000/svg" viewBox="0 0 24 24"><path d="M11.201.56c5.877 0 10.642 4.764 10.642 10.641 0 2.098-.608 4.055-1.656 5.703a2.547 2.547 0 00-.307.836c-.063.408.117.828.54 1.26h-.004l3.45 3.396-1.404 1.425-3.41-3.358-.004.004c-.315-.286-.635-.457-.959-.514a1.742 1.742 0 00-1.059.159 10.64 10.64 0 01-5.829 1.73c-5.877 0-10.64-4.764-10.64-10.64C.56 5.323 5.323.56 11.2.56zm0 2a8.641 8.641 0 100 17.283 8.641 8.641 0 000-17.283zm5.299 7.515v2h-10v-2h10z" fill-rule="evenodd"/></svg>