<svg width="24" height="24" viewBox="0 0 24 24" xmlns="http://www.w3.org/2000/svg"><path d="M22.3176886,18.8189568 L22.3333758,20.8188953 L1.78076721,20.9801068 L1.76508,18.9801683 L22.3176886,18.8189568 Z M12.0492279,2 C15.9643048,2 19.1381017,5.17379692 19.1381017,9.08887382 C19.1381017,13.0039507 15.9643048,16.1777476 12.0492279,16.1777476 C8.13415101,16.1777476 4.96035409,13.0039507 4.96035409,9.08887382 C4.96035409,5.17379692 8.13415101,2 12.0492279,2 Z M12.0492279,4 C9.23872051,4 6.96035409,6.27836642 6.96035409,9.08887382 C6.96035409,11.8993812 9.23872051,14.1777476 12.0492279,14.1777476 C14.8597353,14.1777476 17.1381017,11.8993812 17.1381017,9.08887382 C17.1381017,6.27836642 14.8597353,4 12.0492279,4 Z" fill="#000" fill-rule="evenodd"/></svg>