<svg width="24" height="24" viewBox="0 0 24 24" fill="none" xmlns="http://www.w3.org/2000/svg"><path fill-rule="evenodd" clip-rule="evenodd" d="M22.197 9.443c.865-.633.806-2.005-.195-2.532L13.34 2.346a3 3 0 0 0-2.787-.005L1.806 6.908c-1.087.568-1.07 2.13.028 2.674l8.776 4.347a3 3 0 0 0 2.673-.005l7.114-3.557v1.72h1.8V9.444zm-1.989-1.217-7.8-4.11a1 1 0 0 0-.93-.002L3.604 8.226l7.895 3.911a1 1 0 0 0 .89-.002l7.82-3.909z" fill="currentColor"/><path d="M5.897 13.009v3.437c0 .545.139.962.385 1.233.806.89 2.569 2.33 5.615 2.33 2.602 0 4.462-1.331 5.452-2.275.351-.335.548-.862.548-1.507v-3.218h2v3.218c0 1.022-.313 2.14-1.168 2.955-1.185 1.13-3.514 2.827-6.832 2.827-3.762 0-6.027-1.806-7.097-2.987-.69-.76-.903-1.727-.903-2.576V13.01h2z" fill="currentColor"/></svg>