<svg width="24" height="24" viewBox="0 0 24 24" fill="none" xmlns="http://www.w3.org/2000/svg"><path fill-rule="evenodd" clip-rule="evenodd" d="M11 2.2c0-.11.09-.2.2-.2h1.6c.11 0 .2.09.2.2V4h8.55c.11 0 .2.09.2.2v1.6a.2.2 0 0 1-.2.2H13v1.8a.2.2 0 0 1-.2.2h-1.6a.2.2 0 0 1-.2-.2V2.2zM2.2 4a.2.2 0 0 0-.2.2v1.6c0 .11.09.2.2.2h6.6a.2.2 0 0 0 .2-.2V4.2a.2.2 0 0 0-.2-.2H2.2zm12 12a.2.2 0 0 0-.2.2v5.6c0 .11.09.2.2.2h1.6a.2.2 0 0 0 .2-.2V20h5.55a.2.2 0 0 0 .2-.2v-1.6a.2.2 0 0 0-.2-.2H16v-1.8a.2.2 0 0 0-.2-.2h-1.6zm-12 2a.2.2 0 0 0-.2.2v1.6c0 .11.09.2.2.2h9.6a.2.2 0 0 0 .2-.2v-1.6a.2.2 0 0 0-.2-.2H2.2zm5-9a.2.2 0 0 0-.2.2V11H2.2a.2.2 0 0 0-.2.2v1.6c0 .11.09.2.2.2H7v1.8c0 .11.09.2.2.2h1.6a.2.2 0 0 0 .2-.2V9.2a.2.2 0 0 0-.2-.2H7.2zm3.5 2a.2.2 0 0 0-.2.2v1.6c0 .11.09.2.2.2h10.6a.2.2 0 0 0 .2-.2v-1.6a.2.2 0 0 0-.2-.2H10.7z" fill="currentColor"/></svg>