<svg width="24" height="24" viewBox="0 0 24 24" fill="none" xmlns="http://www.w3.org/2000/svg"><path d="M11.08 7.471a.4.4 0 0 1 .327-.17H13.8c.22 0 .4.179.4.4v8.2a.4.4 0 0 1-.4.4h-1.2a.4.4 0 0 1-.4-.4V9.474a.1.1 0 0 0-.182-.058L8.71 14.143a.1.1 0 0 0 .082.157h2.099a.5.5 0 0 1 .447.724l-.5 1a.5.5 0 0 1-.447.276H6.819a1 1 0 0 1-.82-1.573l5.08-7.256zM15.498 7.8a.5.5 0 0 1 .5-.5h1a.5.5 0 0 1 .5.5v8a.5.5 0 0 1-.5.5h-1a.5.5 0 0 1-.5-.5v-8z" fill="currentColor"/><path fill-rule="evenodd" clip-rule="evenodd" d="M22.998 21.999h-16a6 6 0 0 1-6-6v-8a6 6 0 0 1 6-6h10a6 6 0 0 1 6 6v14zm-2-2h-14a4 4 0 0 1-4-4v-8a4 4 0 0 1 4-4h10a4 4 0 0 1 4 4v12z" fill="currentColor"/></svg>