<svg width="18" height="24" viewBox="0 0 18 24" fill="none" xmlns="http://www.w3.org/2000/svg"><g clip-path="url(#clip0_1804_79923)" fill="currentColor"><path d="M7 7.3a1 1 0 1 1-2 0 1 1 0 0 1 2 0zM12 8.3a1 1 0 1 0 0-2 1 1 0 0 0 0 2z"/><path fill-rule="evenodd" clip-rule="evenodd" d="M0 10.5a8.96 8.96 0 0 1 1.715-5.285L0 3.5l1.414-1.414 1.65 1.65A8.966 8.966 0 0 1 9 1.5c2.275 0 4.352.844 5.937 2.235l1.65-1.65L18 3.5l-1.714 1.715A8.96 8.96 0 0 1 18 10.5V19a3 3 0 0 1-3 3H3a3 3 0 0 1-3-3v-8.5zm15.983-.5a7 7 0 0 0-13.965 0h13.965zM2 12v7a1 1 0 0 0 1 1h12a1 1 0 0 0 1-1v-7H2z"/></g><defs><clipPath id="clip0_1804_79923"><path fill="currentColor" d="M0 0H18V24H0z"/></clipPath></defs></svg>