<svg width="24" height="24" viewBox="0 0 24 24" xmlns="http://www.w3.org/2000/svg"><path d="M12.2030523,0.5 C18.4882613,0.5 23.5785639,5.65137756 23.5785639,12 C23.5785639,18.3486224 18.4882613,23.5 12.2030523,23.5 C7.57468023,23.5 3.47012656,20.6800848 1.71360299,16.4568735 L1.6,16.1732627 L3.46621875,15.4540773 L3.57459244,15.723118 C5.03287687,19.1911753 8.40605234,21.5 12.2030523,21.5 C17.378317,21.5 21.5785639,17.2493573 21.5785639,12 C21.5785639,6.7506427 17.378317,2.5 12.2030523,2.5 C9.39355665,2.5 6.7972548,3.76152891 5.04042767,5.86894017 L6.25721719,6.57115414 C6.29392451,6.59234713 6.32294968,6.62465412 6.34010452,6.66341341 C6.3773588,6.74758498 6.35187287,6.84364282 6.28389024,6.89919504 L6.23816301,6.92724655 L2.31352805,8.66428753 C2.29618297,8.67196445 2.277834,8.67713488 2.25903258,8.67964344 C2.16779365,8.69181687 2.08272692,8.64043307 2.04845199,8.55960662 L2.034339,8.50785055 L1.45567767,4.17083025 C1.44983928,4.12707196 1.45864279,4.08261151 1.48071582,4.0443799 C1.5248986,3.96785308 1.61201873,3.9315717 1.69407664,3.9483972 L1.7539209,3.97117482 L3.28700873,4.85693664 C5.41642305,2.14111554 8.67070846,0.5 12.2030523,0.5 Z" fill="#000" fill-rule="evenodd"/></svg>