<svg width="22" height="24" viewBox="0 0 22 24" xmlns="http://www.w3.org/2000/svg"><path d="M7.6744186,12.9437304 C8.80467577,12.9437304 9.72093023,13.8350391 9.72093023,14.934524 L9.72093023,20.4092064 C9.72093023,21.5086913 8.80467577,22.4 7.6744186,22.4 L2.04651163,22.4 C0.916254465,22.4 0,21.5086913 0,20.4092064 L0,14.934524 C0,13.8350391 0.916254465,12.9437304 2.04651163,12.9437304 L7.6744186,12.9437304 Z M19.4418605,12.9437304 C20.5721176,12.9437304 21.4883721,13.8350391 21.4883721,14.934524 L21.4883721,20.4092064 C21.4883721,21.5086913 20.5721176,22.4 19.4418605,22.4 L13.8139535,22.4 C12.6836963,22.4 11.7674419,21.5086913 11.7674419,20.4092064 L11.7674419,14.934524 C11.7674419,13.8350391 12.6836963,12.9437304 13.8139535,12.9437304 L19.4418605,12.9437304 Z M7.6744186,14.934524 L2.04651163,14.934524 L2.04651163,20.4092064 L7.6744186,20.4092064 L7.6744186,14.934524 Z M19.4418605,14.934524 L13.8139535,14.934524 L13.8139535,20.4092064 L19.4418605,20.4092064 L19.4418605,14.934524 Z M18.6744186,1.4 C18.9993734,1.4 19.3023866,1.54990345 19.4940883,1.79951731 L19.5605841,1.8976984 L21.8629097,5.7768735 C22.0228484,6.04635324 22.0428407,6.37054934 21.9228867,6.65370817 L21.8629097,6.7722703 L19.5605841,10.6514454 C19.3981068,10.9252026 19.1131465,11.1055235 18.7950736,11.1422151 L18.6744186,11.1491438 L14.0697674,11.1491438 C13.7448127,11.1491438 13.4417994,10.9992404 13.2500978,10.7496265 L13.1836019,10.6514454 L10.8812763,6.7722703 C10.7213377,6.50279056 10.7013453,6.17859446 10.8212993,5.89543564 L10.8812763,5.7768735 L13.1836019,1.8976984 C13.3460793,1.62394121 13.6310395,1.44362029 13.9491125,1.40692869 L14.0697674,1.4 L18.6744186,1.4 Z M7.6744186,1.49666728 C8.80467577,1.49666728 9.72093023,2.38797593 9.72093023,3.48746087 L9.72093023,8.96214325 C9.72093023,10.0616282 8.80467577,10.9529368 7.6744186,10.9529368 L2.04651163,10.9529368 C0.916254465,10.9529368 0,10.0616282 0,8.96214325 L0,3.48746087 C0,2.38797593 0.916254465,1.49666728 2.04651163,1.49666728 L7.6744186,1.49666728 Z M18.084,3.38991199 L14.6612093,3.38991199 L12.9503256,6.2745719 L14.6612093,9.15823642 L18.084,9.15823642 L19.7948837,6.2745719 L18.084,3.38991199 Z M7.6744186,3.48746087 L2.04651163,3.48746087 L2.04651163,8.96214325 L7.6744186,8.96214325 L7.6744186,3.48746087 Z M16.4744186,5.17963543 C17.0395472,5.17963543 17.4976744,5.62528975 17.4976744,6.17503222 C17.4976744,6.72477469 17.0395472,7.17042902 16.4744186,7.17042902 C15.90929,7.17042902 15.4511628,6.72477469 15.4511628,6.17503222 C15.4511628,5.62528975 15.90929,5.17963543 16.4744186,5.17963543 Z" fill="currentColor" fill-rule="evenodd"/></svg>