<svg width="24" height="24" viewBox="0 0 24 24" fill="none" xmlns="http://www.w3.org/2000/svg"><path d="M17.5 7.6a1 1 0 1 0 0-2 1 1 0 0 0 0 2z" fill="currentColor"/><path fill-rule="evenodd" clip-rule="evenodd" d="m22.353 7.625-1.553 2.6a2 2 0 0 1-1.717.975h-3.165a2 2 0 0 1-1.717-.974l-1.553-2.6a2 2 0 0 1 0-2.051l1.553-2.6A2 2 0 0 1 15.918 2h3.165a2 2 0 0 1 1.717.975l1.553 2.6a2 2 0 0 1 0 2.05zM19.083 9.2l1.553-2.6L19.083 4h-3.165l-1.553 2.6 1.553 2.6h3.165zM2.1 4.5a2.4 2.4 0 0 1 2.4-2.4h4.4a2.4 2.4 0 0 1 2.4 2.4v4.4a2.4 2.4 0 0 1-2.4 2.4H4.5a2.4 2.4 0 0 1-2.4-2.4V4.5zm2.4-.6a.6.6 0 0 0-.6.6v4.4a.6.6 0 0 0 .6.6h4.4a.6.6 0 0 0 .6-.6V4.5a.6.6 0 0 0-.6-.6H4.5zM2.1 15.1a2.4 2.4 0 0 1 2.4-2.4h4.4a2.4 2.4 0 0 1 2.4 2.4v4.4a2.4 2.4 0 0 1-2.4 2.4H4.5a2.4 2.4 0 0 1-2.4-2.4v-4.4zm2.4-.6a.6.6 0 0 0-.6.6v4.4a.6.6 0 0 0 .6.6h4.4a.6.6 0 0 0 .6-.6v-4.4a.6.6 0 0 0-.6-.6H4.5zM15.1 12.7a2.4 2.4 0 0 0-2.4 2.4v4.4a2.4 2.4 0 0 0 2.4 2.4h4.4a2.4 2.4 0 0 0 2.4-2.4v-4.4a2.4 2.4 0 0 0-2.4-2.4h-4.4zm-.6 2.4a.6.6 0 0 1 .6-.6h4.4a.6.6 0 0 1 .6.6v4.4a.6.6 0 0 1-.6.6h-4.4a.6.6 0 0 1-.6-.6v-4.4z" fill="currentColor"/></svg>