<svg width="20" height="24" viewBox="0 0 20 24" fill="none" xmlns="http://www.w3.org/2000/svg"><path fill-rule="evenodd" clip-rule="evenodd" d="M2.7 2.3A2.4 2.4 0 0 0 .3 4.7v4.18a2.4 2.4 0 0 0 2.4 2.4h4.18a2.4 2.4 0 0 0 2.4-2.4V4.7a2.4 2.4 0 0 0-2.4-2.4H2.7zm0 10.322a2.4 2.4 0 0 0-2.4 2.4v4.18a2.4 2.4 0 0 0 2.4 2.4h4.18a2.4 2.4 0 0 0 2.4-2.4v-4.18a2.4 2.4 0 0 0-2.4-2.4H2.7zm10.32 0a2.4 2.4 0 0 0-2.4 2.4v4.18a2.4 2.4 0 0 0 2.4 2.4h4.18a2.4 2.4 0 0 0 2.4-2.4v-4.18a2.4 2.4 0 0 0-2.4-2.4h-4.18zM13.022 2.3a2.4 2.4 0 0 0-2.4 2.4v4.18a2.4 2.4 0 0 0 2.4 2.4h4.18a2.4 2.4 0 0 0 2.4-2.4V4.7a2.4 2.4 0 0 0-2.4-2.4h-4.18z" fill="currentColor"/></svg>