<svg width="21" height="24" viewBox="0 0 21 24" fill="none" xmlns="http://www.w3.org/2000/svg"><path fill-rule="evenodd" clip-rule="evenodd" d="m18.8 10.226 1.552-2.6a2 2 0 0 0 0-2.051l-1.552-2.6A2 2 0 0 0 17.083 2h-3.165a2 2 0 0 0-1.717.975l-1.553 2.6a2 2 0 0 0 0 2.05l1.553 2.6a2 2 0 0 0 1.717.975h3.165a2 2 0 0 0 1.717-.974zM17 6.5a1.5 1.5 0 1 1-3 0 1.5 1.5 0 0 1 3 0z" fill="currentColor"/><path d="M.1 4.5a2.4 2.4 0 0 1 2.4-2.4h4.4a2.4 2.4 0 0 1 2.4 2.4v4.4a2.4 2.4 0 0 1-2.4 2.4H2.5A2.4 2.4 0 0 1 .1 8.9V4.5zM.1 15.1a2.4 2.4 0 0 1 2.4-2.4h4.4a2.4 2.4 0 0 1 2.4 2.4v4.4a2.4 2.4 0 0 1-2.4 2.4H2.5a2.4 2.4 0 0 1-2.4-2.4v-4.4zM10.7 15.1a2.4 2.4 0 0 1 2.4-2.4h4.4a2.4 2.4 0 0 1 2.4 2.4v4.4a2.4 2.4 0 0 1-2.4 2.4h-4.4a2.4 2.4 0 0 1-2.4-2.4v-4.4z" fill="currentColor"/></svg>