<svg width="21" height="24" viewBox="0 0 21 24" xmlns="http://www.w3.org/2000/svg"><path d="M17.9721789,1.5 C19.6273479,1.5 20.9699629,2.83985294 20.9729458,4.49459354 L21,19.4945935 C21.0028651,21.0922718 19.7559801,22.4005004 18.1809347,22.4945848 L17.9992182,22.5 L3.00077182,22.5 C1.3434913,22.5 0,21.1568542 0,19.5 L0,4.5 C0,2.84314575 1.3434913,1.5 3.00077182,1.5 L17.9721789,1.5 Z M17.9721789,3.5 L3.00077182,3.5 C2.48780404,3.5 2.06502398,3.88604019 2.00724401,4.38337887 L2.00051454,4.5 L2.00051454,19.5 C2.00051454,20.0128358 2.38665405,20.4355072 2.88412069,20.4932723 L3.00077182,20.5 L18.0010208,20.5 C18.5139877,20.4990742 18.9360712,20.1122729 18.9929546,19.6148309 L18.9994738,19.4981978 L18.9724345,4.49819785 C18.9715112,3.98601623 18.5855576,3.56433804 18.0886858,3.50671147 L17.9721789,3.5 Z M8.21639902,14 L8.21639902,16 L5.21562721,16 L5.21562721,14 L8.21639902,14 Z M15.9326694,14 L15.9326694,16 L9.93112578,16 L9.93112578,14 L15.9326694,14 Z M8.21639902,8 L8.21639902,10 L5.21562721,10 L5.21562721,8 L8.21639902,8 Z M15.9326694,8 L15.9326694,10 L9.93112578,10 L9.93112578,8 L15.9326694,8 Z" fill="#000" fill-rule="evenodd"/></svg>