<svg width="24" height="24" viewBox="0 0 24 24" xmlns="http://www.w3.org/2000/svg"><path d="M5,10.7790694 C5,14.6272444 8.13952442,17.7491012 12.0151369,17.7491012 C15.8100075,17.7491012 18.8991408,14.7559668 19.0262076,11.018613 L19.0302738,10.7790694 L21.0302738,10.7790694 C21.0302738,15.45713 17.4319093,19.2969545 12.841179,19.7119441 L12.8401211,23.6596269 L10.8401211,23.6596269 L10.8394764,19.6735066 C6.50282301,19.1114732 3.13303212,15.4825708 3.00384474,11.0436136 L3,10.7790694 L5,10.7790694 Z M12.0151369,1.70530257e-13 C14.5452744,1.70530257e-13 16.6901252,1.68878242 16.97074,3.97198082 L16.9941725,4.22806008 L17.0001528,4.44102133 L17.0001528,11.8146385 C17.0001528,11.9196188 16.9839735,12.0208294 16.9539697,12.1159086 L16.89889,12.2536337 L16.882,12.281 L16.8580877,12.3818881 C16.3595864,14.2097319 14.6179362,15.5440624 12.5429246,15.7393629 L12.2443248,15.7594448 L12.0151369,15.7640853 C9.81286412,15.7640853 7.88694626,14.4820043 7.25083826,12.6369136 L7.17218613,12.3818881 L7.148,12.283 L7.13138384,12.2536337 C7.09895412,12.1873656 7.07363842,12.1169845 7.05643015,12.0434865 L7.0368225,11.9310265 L7.03012105,11.8146385 L7.03057754,4.41080912 L7.03747593,4.19778365 C7.18179933,1.81619399 9.39129062,1.70530257e-13 12.0151369,1.70530257e-13 Z M12.0151369,2 C10.4801637,2 9.24648826,2.94766937 9.05697782,4.09546107 L9.03518833,4.2884845 L9.03012105,4.44102133 L9.03025268,11.5337048 L9.057046,11.651292 C9.25185465,12.8270139 10.4932929,13.7640853 12.0151369,13.7640853 C13.4474607,13.7640853 14.6313974,12.9340151 14.9281411,11.8561529 L14.9849319,11.5917834 L15.0000212,11.5337048 L15.0006093,4.47123354 L14.9964601,4.31876093 C14.9199307,3.05589087 13.6353864,2 12.0151369,2 Z" fill="#000" fill-rule="evenodd"/></svg>