<svg width="24" height="24" viewBox="0 0 24 24" fill="none" xmlns="http://www.w3.org/2000/svg"><path d="m10.84 9.636 2.755 2.755 1.273-1.273-2.755-2.755-1.272 1.273zM8.239 12.238l2.754 2.755 1.273-1.273-2.755-2.755-1.272 1.273zM8.391 17.595 5.637 14.84l1.272-1.272 2.755 2.754-1.273 1.273z" fill="currentColor"/><path fill-rule="evenodd" clip-rule="evenodd" d="M21.803 2.592a2.28 2.28 0 0 0-3.224 0l-.67.67a2.51 2.51 0 0 0-4.048 1.275A4.9 4.9 0 0 0 8.92 5.746l-5.657 5.657a4.9 4.9 0 0 0 0 6.93L6.09 21.16a4.9 4.9 0 0 0 6.93 0l5.657-5.657a4.9 4.9 0 0 0 1.198-4.974 2.51 2.51 0 0 0 1.257-4.042l.67-.672a2.28 2.28 0 0 0 0-3.224zm-1.951 1.273a.48.48 0 1 1 .678.679l-.664.664-.679-.678.665-.665zm-3.062.813a.71.71 0 0 0-1.004 1.004l2.927 2.928a.71.71 0 0 0 1.004-1.005L16.79 4.678zm-6.597 2.34a3.1 3.1 0 0 1 4.383 0l2.829 2.829a3.1 3.1 0 0 1 0 4.384l-5.657 5.657a3.1 3.1 0 0 1-4.384 0l-2.828-2.829a3.1 3.1 0 0 1 0-4.384l5.657-5.656z" fill="currentColor"/></svg>