<svg width="24" height="24" viewBox="0 0 24 24" fill="none" xmlns="http://www.w3.org/2000/svg"><path fill-rule="evenodd" clip-rule="evenodd" d="M1.5 6.5a5 5 0 0 1 5-5h11a5 5 0 0 1 5 5v11a5 5 0 0 1-5 5h-11a5 5 0 0 1-5-5v-11zm5-3a3 3 0 0 0-3 3v11a3 3 0 0 0 3 3h11a3 3 0 0 0 3-3v-11a3 3 0 0 0-3-3h-11z" fill="currentColor"/><mask id="mask0_0_1533" style="mask-type:alpha" maskUnits="userSpaceOnUse" x="4" y="4" width="16" height="16"><path d="M4.5 4.5h15v15h-15v-15z" fill="currentColor"/></mask><g mask="url(#mask0_0_1533)" fill="currentColor"><path d="M18.91 3.16a1.071 1.071 0 0 0-1.515-1.515L2.66 16.38a1.071 1.071 0 1 0 1.516 1.515L18.91 3.16zM11.865 2.175a1.071 1.071 0 0 1 0 1.515L.88 14.675A1.071 1.071 0 1 1-.635 13.16L10.349 2.175a1.071 1.071 0 0 1 1.516 0zM22.168 6.418a1.071 1.071 0 0 0-1.515-1.515L5.918 19.638a1.071 1.071 0 1 0 1.516 1.515L22.168 6.418zM21.638 13.464a1.071 1.071 0 1 0-1.515-1.515L9.138 22.933a1.071 1.071 0 1 0 1.515 1.516l10.985-10.985z"/></g></svg>