<svg width="24" height="24" viewBox="0 0 24 24" xmlns="http://www.w3.org/2000/svg"><path d="M19.5,1.5 C21.1568542,1.5 22.5,2.84314575 22.5,4.5 L22.5,19.5 C22.5,21.1568542 21.1568542,22.5 19.5,22.5 L4.5,22.5 C2.84314575,22.5 1.5,21.1568542 1.5,19.5 L1.5,4.5 C1.5,2.84314575 2.84314575,1.5 4.5,1.5 L19.5,1.5 Z M19.5,3.5 L4.5,3.5 C3.98716416,3.5 3.56449284,3.88604019 3.50672773,4.38337887 L3.5,4.5 L3.5,19.5 C3.5,20.0128358 3.88604019,20.4355072 4.38337887,20.4932723 L4.5,20.5 L19.5,20.5 C20.0128358,20.5 20.4355072,20.1139598 20.4932723,19.6166211 L20.5,19.5 L20.5,4.5 C20.5,3.98716416 20.1139598,3.56449284 19.6166211,3.50672773 L19.5,3.5 Z M18.9997864,6.586 L18.9997864,9.415 L9.415,19 L6.586,19 L18.9997864,6.586 Z M18.9997864,13.585 L18.9997864,16.414 L16.413,19 L13.584,19 L18.9997864,13.585 Z M16.4147864,5 L5,16.415 L5,13.586 L13.5857864,5 L16.4147864,5 Z M9.41478644,5 L5,9.414 L5,6.585 L6.58578644,5 L9.41478644,5 Z" fill="#000" fill-rule="evenodd"/></svg>