<svg width="24" height="24" viewBox="0 0 24 24" fill="none" xmlns="http://www.w3.org/2000/svg"><path fill-rule="evenodd" clip-rule="evenodd" d="M18.405 2.1a2.3 2.3 0 0 0-2.3 2.308l.045 12.2a2.3 2.3 0 0 0 2.3 2.292h1.145a2.3 2.3 0 0 0 2.3-2.308l-.045-12.2a2.3 2.3 0 0 0-2.3-2.292h-1.145zm-.5 2.302a.5.5 0 0 1 .5-.502h1.145a.5.5 0 0 1 .5.498l.045 12.2a.5.5 0 0 1-.5.502H18.45a.5.5 0 0 1-.5-.498l-.045-12.2zM4.4 8.1a2.3 2.3 0 0 0-2.3 2.3v6.2a2.3 2.3 0 0 0 2.3 2.3h1.2a2.3 2.3 0 0 0 2.3-2.3v-6.2a2.3 2.3 0 0 0-2.3-2.3H4.4zm-.5 2.3a.5.5 0 0 1 .5-.5h1.2a.5.5 0 0 1 .5.5v6.2a.5.5 0 0 1-.5.5H4.4a.5.5 0 0 1-.5-.5v-6.2zM9.1 6.4a2.3 2.3 0 0 1 2.3-2.3h1.2a2.3 2.3 0 0 1 2.3 2.3v10.2a2.3 2.3 0 0 1-2.3 2.3h-1.2a2.3 2.3 0 0 1-2.3-2.3V6.4zm2.3-.5a.5.5 0 0 0-.5.5v10.2a.5.5 0 0 0 .5.5h1.2a.5.5 0 0 0 .5-.5V6.4a.5.5 0 0 0-.5-.5h-1.2z" fill="currentColor"/><path d="M2 21.9h20v-1.8H2v1.8z" fill="currentColor"/></svg>