<svg width="24" height="24" viewBox="0 0 24 24" xmlns="http://www.w3.org/2000/svg"><path d="M3.5,1.5 L3.5,18.4908943 C3.5,19.5442265 4.31428506,20.4073722 5.34770647,20.4851827 L5.3,20.4915331 C5.53193486,20.4676877 5.71880643,20.4003285 5.86061471,20.2894555 C6.0096898,20.1729009 6.11599452,20.0150466 6.17952885,19.8158926 L6.1778122,13.7039471 C6.1778122,12.0725607 7.50031216,10.7500608 9.13169852,10.7500608 C10.7630849,10.7500608 12.0855848,12.0725607 12.0855848,13.7039471 L12.0845836,19.8777287 C12.1494887,20.0479925 12.2485913,20.1852347 12.3818913,20.2894555 C12.4882475,20.3726102 12.6199518,20.4312885 12.7770042,20.4654902 L12.933,20.49 L13.179,20.49 L13.3355018,20.4654902 C13.4925542,20.4312885 13.6242585,20.3726102 13.7306147,20.2894555 C13.8836336,20.1698175 13.9915892,20.0066656 14.0544815,19.8 L14.0548424,9.92596347 C14.0548424,8.2945771 15.3773423,6.97207715 17.0087287,6.97207715 C18.6401151,6.97207715 19.962615,8.2945771 19.962615,9.92596347 L19.9620407,19.804786 C20.0251382,20.009186 20.1326048,20.1707425 20.2844405,20.2894555 C20.3907967,20.3726102 20.5225011,20.4312885 20.6795535,20.4654902 L20.835,20.49 L22.6711697,20.4908943 L22.6711697,22.4908943 L5.5,22.4908943 C3.35780461,22.4908943 1.60892112,20.8069259 1.50489531,18.6905347 L1.5,18.4908943 L1.5,1.5 L3.5,1.5 Z M17.0087287,8.97207715 C16.5195416,8.97207715 16.1163612,9.34031561 16.0612599,9.81472017 L16.0548424,9.92596347 L16.054,20.391 L17.962,20.391 L17.962615,9.92596347 C17.962615,9.43677638 17.5943766,9.03359599 17.119972,8.97849464 L17.0087287,8.97207715 Z M9.13169852,12.7500608 C8.64251143,12.7500608 8.23933104,13.1182992 8.18422969,13.5927038 L8.1778122,13.7039471 L8.177,20.154 L10.085,20.154 L10.0855848,13.7039471 C10.0855848,13.21476 9.71734639,12.8115796 9.24294182,12.7564783 L9.13169852,12.7500608 Z" fill="#000" fill-rule="evenodd"/></svg>