<svg width="21" height="24" viewBox="0 0 21 24" xmlns="http://www.w3.org/2000/svg"><path d="M20.9481372,20.712766 L20.9481372,22.5 L0,22.5 L0,20.712766 L20.9481372,20.712766 Z M18.9566455,1.5 C20.0556956,1.5 20.9477542,2.39580729 20.9516934,3.50343176 L20.9516934,3.50343176 L20.9999871,17.0752403 C21.0039102,18.185678 20.1138983,19.0890921 19.0120638,19.0930851 L19.0120638,19.0930851 L17.0098652,19.0930851 C15.9108151,19.0930851 15.0187566,18.1972778 15.0148174,17.0896534 L15.0148174,17.0896534 L14.9665237,3.51784484 C14.9626005,2.4074071 15.8526124,1.50399298 16.9580191,1.5 L16.9580191,1.5 Z M11.471599,4.01329787 C12.5734406,4.01329787 13.4666596,4.9134913 13.4666596,6.02393617 L13.4666596,6.02393617 L13.4666596,17.0824468 C13.4666596,18.1928917 12.5734406,19.0930851 11.471599,19.0930851 L11.471599,19.0930851 L9.47653827,19.0930851 C8.37469668,19.0930851 7.48147758,18.1928917 7.48147758,17.0824468 L7.48147758,17.0824468 L7.48147758,6.02393617 C7.48147758,4.9134913 8.37469668,4.01329787 9.47653827,4.01329787 L9.47653827,4.01329787 Z M3.99012138,8.1462766 C5.03074955,8.1462766 5.87434536,8.99645928 5.87434536,10.0452128 L5.87434536,10.0452128 L5.87434536,17.0824468 C5.87434536,18.1312003 5.03074955,18.981383 3.99012138,18.981383 L3.99012138,18.981383 L1.99506069,18.981383 C0.954432517,18.981383 0.110836705,18.1312003 0.110836705,17.0824468 L0.110836705,17.0824468 L0.110836705,10.0452128 C0.110836705,8.99645928 0.954432517,8.1462766 1.99506069,8.1462766 L1.99506069,8.1462766 Z M3.99012138,9.93351064 L1.99506069,9.93351064 C1.93384727,9.93351064 1.88422398,9.98352138 1.88422398,10.0452128 L1.88422398,10.0452128 L1.88422398,17.0824468 C1.88422398,17.1441382 1.93384727,17.1941489 1.99506069,17.1941489 L1.99506069,17.1941489 L3.99012138,17.1941489 C4.0513348,17.1941489 4.10095808,17.1441382 4.10095808,17.0824468 L4.10095808,17.0824468 L4.10095808,10.0452128 C4.10095808,9.98352138 4.0513348,9.93351064 3.99012138,9.93351064 L3.99012138,9.93351064 Z M18.9566455,3.5106383 L16.9615976,3.5106383 L17.0098652,17.0824468 L19.0049131,17.0824468 L18.9566455,3.5106383 Z M11.471599,6.02393617 L9.47653827,6.02393617 L9.47653827,17.0824468 L11.471599,17.0824468 L11.471599,6.02393617 Z" fill="#000" fill-rule="evenodd"/></svg>