<svg width="22" height="24" viewBox="0 0 22 24" fill="none" xmlns="http://www.w3.org/2000/svg"><path fill-rule="evenodd" clip-rule="evenodd" d="M7.357 1h7.286c1.084 0 1.958 0 2.666.058.729.06 1.369.185 1.961.487a5 5 0 0 1 2.185 2.185c.302.592.428 1.233.487 1.961C22 6.4 22 7.273 22 8.357v7.286c0 1.084 0 1.958-.058 2.666-.06.729-.185 1.369-.487 1.961a5 5 0 0 1-2.185 2.185c-.592.302-1.232.428-1.961.487C16.6 23 15.727 23 14.643 23H7.357c-1.084 0-1.958 0-2.666-.058-.728-.06-1.369-.185-1.961-.487A5 5 0 0 1 .545 20.27c-.302-.592-.428-1.232-.487-1.961C0 17.6 0 16.727 0 15.643V8.357C0 7.273 0 6.4.058 5.691c.06-.728.185-1.369.487-1.961A5 5 0 0 1 2.73 1.545c.592-.302 1.233-.428 1.961-.487C5.4 1 6.273 1 7.357 1zM9.9 17.5v-11h2.2v11H9.9zm5.2 0V12h2.2v5.5h-2.2zm-10.4 0V10h2.2v7.5H4.7z" fill="currentColor"/></svg>