<svg width="20" height="24" viewBox="0 0 20 24" fill="none" xmlns="http://www.w3.org/2000/svg"><g clip-path="url(#clip0_1582_80205)" fill="currentColor"><path d="M15.153 4.206a2.05 2.05 0 0 1 2.05-2.056h.756a2.05 2.05 0 0 1 2.05 2.044l.037 12.6a2.05 2.05 0 0 1-2.05 2.056h-.756a2.05 2.05 0 0 1-2.05-2.044l-.037-12.6zM.35 10.2A2.05 2.05 0 0 1 2.4 8.15h.8a2.05 2.05 0 0 1 2.05 2.05v6.6a2.05 2.05 0 0 1-2.05 2.05h-.8A2.05 2.05 0 0 1 .35 16.8v-6.6zM7.75 6.2A2.05 2.05 0 0 1 9.8 4.15h.8a2.05 2.05 0 0 1 2.05 2.05v10.6a2.05 2.05 0 0 1-2.05 2.05h-.8a2.05 2.05 0 0 1-2.05-2.05V6.2zM0 21.9h20v-1.8H0v1.8z"/></g><defs><clipPath id="clip0_1582_80205"><path fill="currentColor" d="M0 0H20V24H0z"/></clipPath></defs></svg>