<svg width="20" height="24" viewBox="0 0 20 24" xmlns="http://www.w3.org/2000/svg"><path d="M10,0.78 C10.5127745,0.78 10.9353954,1.17074572 10.9931536,1.67414658 L10.9998805,1.79218922 L10.9998318,3.09276293 C14.9456953,3.59083742 17.9990439,6.99827267 17.9990439,11.1276347 L17.9988486,18.212935 L19.9976096,18.2117494 L20,20.2361278 L13.4993864,20.2433866 L13.4944034,20.4317137 C13.3947207,22.297874 11.8683401,23.78 10,23.78 C8.13165992,23.78 6.60527933,22.297874 6.50559656,20.4317137 L6.50022302,20.2514841 L0.00239178325,20.2603387 L0,18.2359617 L2.00076085,18.2331788 L2.00095614,11.1276347 C2.00095614,6.99827267 5.05430473,3.59083742 9.00016823,3.09276293 L9.00011952,1.79218922 C9.00011952,1.23317255 9.44778126,0.78 10,0.78 Z M11.4996254,20.245411 L8.50098386,20.2494597 L8.50704503,20.3835586 C8.57972109,21.1534822 9.22039707,21.7556216 10,21.7556216 C10.7796029,21.7556216 11.4202789,21.1534822 11.492955,20.3835586 L11.4996254,20.245411 Z M10,5.05449934 C6.7619901,5.05449934 4.12313071,7.6513466 4.00485508,10.8999546 L4.00071711,11.1276347 L4.00071711,18.2129593 L15.9992829,18.2129593 L15.9992829,11.1276347 C15.9992829,7.8497642 13.4340146,5.17841989 10.2249114,5.05868826 L10,5.05449934 Z" fill="currentColor" fill-rule="evenodd"/></svg>