<svg width="24" height="24" viewBox="0 0 24 24" xmlns="http://www.w3.org/2000/svg"><path d="M5.5,21.3 L5.4,2.7 L13.5,2.7 C16.4271092,2.7 18.8,5.07289083 18.8,8 C18.8,9.37673419 18.2750716,10.6308648 17.4144438,11.5731626 C18.8514081,12.5201238 19.8,14.1492842 19.8,16 C19.8,18.8539314 17.5442707,21.1810091 14.7184656,21.2955792 L14.5,21.3 L5.5,21.3 Z M8.085,18.7 L14.5,18.7 C15.9911688,18.7 17.2,17.4911688 17.2,16 C17.2,14.5661838 16.0823676,13.3934047 14.6707523,13.3053119 L14.5,13.3 L8.056,13.3 L8.085,18.7 Z M13.5,5.3 L8.013,5.299 L8.042,10.7 L13.5,10.7 C14.9911688,10.7 16.2,9.49116882 16.2,8 C16.2,6.56618382 15.0823676,5.39340467 13.6707523,5.30531192 L13.5,5.3 Z" fill="currentColor" fill-rule="nonzero"/></svg>