<svg width="22" height="24" viewBox="0 0 22 24" xmlns="http://www.w3.org/2000/svg"><path d="M21.0168601,2 C21.5597144,2 21.9997847,2.44771525 21.9997847,3 C21.9997847,3.1552451 21.9642568,3.30835816 21.8960146,3.4472136 L20.6414163,6 L21.8960146,8.5527864 C22.1387864,9.0467649 21.9419809,9.64743794 21.4564373,9.89442719 C21.3199529,9.96385491 21.1694543,10 21.0168601,10 L19.658,10 L18.6755671,12 L19.659,14 L21.0168601,14 C21.5597144,14 21.9997847,14.4477153 21.9997847,15 C21.9997847,15.1552451 21.9642568,15.3083582 21.8960146,15.4472136 L20.6414163,18 L21.8960146,20.5527864 C22.1387864,21.0467649 21.9419809,21.6474379 21.4564373,21.8944272 C21.3199529,21.9638549 21.1694543,22 21.0168601,22 L5.89754752,22 C3.72613048,22 1.96584917,20.209139 1.96584917,18 C1.96584917,17.1766806 2.21034571,16.4114584 2.6295003,15.7753852 C1.09837377,15.2290981 3.01980663e-14,13.7450468 3.01980663e-14,12 C3.01980663e-14,10.2549532 1.09837377,8.77090193 2.63013773,8.22438193 C2.21034571,7.58854157 1.96584917,6.82331941 1.96584917,6 C1.96584917,3.790861 3.72613048,2 5.89754752,2 L21.0168601,2 Z M19.4255386,16 L5.89754752,16 C4.86118939,16 4.01213586,16.8158778 3.93709041,17.8507377 L3.93169835,18 C3.93169835,19.0543618 4.73364469,19.9181651 5.75083389,19.9945143 L5.89754752,20 L19.4265215,20 L18.4435301,18 L19.4255386,16 Z M11.9011513,11.8453053 C11.9011513,12.442445 11.4086645,12.9265223 10.8011513,12.9265223 C10.6548722,12.9265223 10.5100622,12.8978448 10.3751955,12.842168 L10.3751955,12.842168 L8.85915128,12.2153016 L7.34139273,12.842168 C6.81861749,13.0579845 6.22209874,12.8468763 5.95362032,12.3701501 L5.95362032,12.3701501 L5.90125668,12.2639876 C5.84461267,12.1314239 5.81543699,11.9890866 5.81543699,11.8453053 L5.81543699,11.8453053 L5.815,10 L3.93169835,10 C2.89534021,10 2.04628669,10.8158778 1.97124124,11.8507377 L1.96584917,12 C1.96584917,13.0543618 2.76779551,13.9181651 3.78498472,13.9945143 L3.93169835,14 L17.4606724,14 L16.4776809,12 L17.4596894,10 L11.901,10 Z M10.1011513,7.12768398 L7.61615128,7.12768398 L7.61615128,10.8097195 L8.85829414,10.2969692 L10.1011513,10.8097195 L10.1011513,7.12768398 Z M19.4255386,4 L5.89754752,4 C4.86118939,4 4.01213586,4.81587779 3.93709041,5.85073766 L3.93169835,6 C3.93169835,7.0543618 4.73364469,7.91816512 5.75083389,7.99451426 L5.815,7.997 L5.81543699,5.35891118 L11.9011513,5.35891118 L11.901,8 L19.4265215,8 L18.4435301,6 L19.4255386,4 Z" fill="#000" fill-rule="evenodd"/></svg>