<svg width="22" height="24" viewBox="0 0 22 24" fill="none" xmlns="http://www.w3.org/2000/svg"><path fill-rule="evenodd" clip-rule="evenodd" d="M5 2.15a3.85 3.85 0 0 0-2.83 6.461 3.85 3.85 0 0 0 0 6.778A3.85 3.85 0 0 0 5 21.85h15.35a1.217 1.217 0 0 0 1.043-1.846L20.183 18l1.21-2.004a1.217 1.217 0 0 0-1.043-1.846h-.862a1.267 1.267 0 0 0-.048-.092L18.265 12l1.045-1.83c.06-.104.104-.212.134-.32h.67a1.35 1.35 0 0 0 1.156-2.047L20.183 6l1.21-2.004A1.217 1.217 0 0 0 20.35 2.15H5zM9.4 5.2A1.8 1.8 0 0 1 11.2 7v5.699a1 1 0 0 1-1.387.922L7.9 12.818l-1.913.803a1 1 0 0 1-1.387-.922V7a1.8 1.8 0 0 1 1.8-1.8h3z" fill="currentColor"/></svg>