<svg width="24" height="24" viewBox="0 0 24 24" fill="none" xmlns="http://www.w3.org/2000/svg"><path fill-rule="evenodd" clip-rule="evenodd" d="M7 1a5 5 0 0 0-5 5v12a5 5 0 0 0 5 5h6.81A6.5 6.5 0 0 1 22 13.022V6a5 5 0 0 0-5-5H7zm6 6.436V3h-2v5.687a1.2 1.2 0 0 0 1.704 1.09l1.795-.831 1.798.83A1.2 1.2 0 0 0 18 8.688V3h-2v4.436l-.998-.461a1.2 1.2 0 0 0-1.007 0l-.995.46z" fill="currentColor"/><path fill-rule="evenodd" clip-rule="evenodd" d="M18.5 23.375a4.875 4.875 0 1 0 0-9.75 4.875 4.875 0 0 0 0 9.75zm3.78-6.345-1.06-1.06L18 19.19l-1.72-1.72-1.06 1.06L18 21.31l4.28-4.28z" fill="currentColor"/></svg>