<svg width="18" height="24" viewBox="0 0 18 24" xmlns="http://www.w3.org/2000/svg"><path d="M14.7209909,0 C15.610542,0 16.1014214,0.106642322 16.6060686,0.41026665 C17.067206,0.687713022 17.4277877,1.09336738 17.6656921,1.59381529 C17.8919596,2.06978421 17.9831192,2.52429085 17.9978237,3.31592315 L18,3.5638852 L18,16 C18,16.5128358 17.6139598,16.9355072 17.1166211,16.9932723 L17,17 L3,17 C2.48716416,17 2.06449284,17.3860402 2.00672773,17.8833789 L2,18 L2.00083807,19.9403135 L2.00883966,20.3201567 C2.02755679,20.8300749 2.07761729,21.0892232 2.17423697,21.3478999 C2.26645492,21.594792 2.38516558,21.7647641 2.51744092,21.8660533 C2.62666004,21.9496872 2.71656519,21.9852328 3.01373208,21.9961056 L3.27900907,22 L18,22 L18,24 L3.27900907,24 C2.35270015,24 1.82347245,23.8536702 1.30150005,23.4539726 C0.854351525,23.111571 0.518326936,22.6304448 0.300665613,22.0477073 C0.0971331707,21.5027966 0.0153734253,20.9856073 0.00201080724,20.0394152 L0,20 L0,3.5638852 C0,2.61497755 0.0854136066,2.1173811 0.334307883,1.59381529 C0.572212303,1.09336738 0.932793952,0.687713022 1.39393138,0.41026665 C1.85270159,0.134244533 2.30009339,0.0210174635 3.04597877,0.00271189805 L3.27900907,0 L14.7209909,0 Z M18,18.5 L18,20.5 L4,20.5 L4,18.5 L18,18.5 Z M14.8757249,2.00097273 L3.12427514,2.00097273 L2.87866646,2.00928908 C2.63591239,2.02436236 2.53270394,2.05920374 2.42500959,2.12399876 C2.30672315,2.19516657 2.21256956,2.30108936 2.1405947,2.4524933 L2.09063238,2.57376675 C2.03227798,2.74284746 2.00605397,2.95617687 2.00094683,3.39036638 L2.00008893,15.1706743 C2.26005727,15.0787979 2.5364707,15.0217367 2.82372721,15.0050927 L3,15 L16,15 L16,3.5638852 C16,2.88715959 15.9626787,2.66973583 15.8594053,2.4524933 C15.7874304,2.30108936 15.6932768,2.19516657 15.5749904,2.12399876 L15.4804202,2.07555819 C15.3635316,2.02704807 15.2099769,2.00558142 14.8757249,2.00097273 Z M11,9.5 L11,11.5 L4,11.5 L4,9.5 L11,9.5 Z M13,5.5 L13,7.5 L4,7.5 L4,5.5 L13,5.5 Z" fill="#000" fill-rule="evenodd"/></svg>