<svg width="16" height="16" viewBox="0 0 16 16" fill="none" xmlns="http://www.w3.org/2000/svg"><path fill-rule="evenodd" clip-rule="evenodd" d="M4 .667a2.667 2.667 0 0 0-2.667 2.667v9.333A2.667 2.667 0 0 0 4 15.334h5.206a4.333 4.333 0 0 1 5.46-6.652V3.333A2.667 2.667 0 0 0 12 .667H4zm5 2.957V.667H7.665v3.791a.8.8 0 0 0 1.136.726l1.197-.553 1.198.554a.8.8 0 0 0 1.136-.726V.667h-1.334v2.958l-.665-.308a.8.8 0 0 0-.671 0l-.664.307z" fill="currentColor"/><path fill-rule="evenodd" clip-rule="evenodd" d="M12.333 15.584a3.25 3.25 0 1 0 0-6.5 3.25 3.25 0 0 0 0 6.5zm2.52-4.23-.707-.707-2.147 2.146-1.146-1.146-.707.707 1.853 1.853 2.854-2.853z" fill="currentColor"/></svg>