<svg width="20" height="24" viewBox="0 0 20 24" xmlns="http://www.w3.org/2000/svg"><path d="M18.9927108,1.00002678 C19.5478296,0.996007603 20,1.44487695 20,1.99998942 L20,1.99998942 L20,21.9992307 C20,22.6863728 19.3228968,23.168775 18.673409,22.9443606 L18.673409,22.9443606 L10.061,19.9683077 L1.32244856,22.9457818 C0.711891796,23.153756 0.0791760294,22.7388258 0.00685153357,22.1179555 L0.00685153357,22.1179555 L0,21.9992307 L0,2.13119341 C0,1.58177399 0.443285142,1.13526274 0.992710807,1.13125791 L0.992710807,1.13125791 Z M18,3.00595126 L2,3.12394678 L2,20.6012837 L9.74175428,17.9651363 C9.91014405,17.9077777 10.0899859,17.896626 10.2627948,17.9316408 L10.2627948,17.9316408 L10.3907938,17.9665575 L18,20.595284 L18,3.00595126 Z M9.07605988,4.91957441 C9.35316555,4.41018694 9.99075988,4.22187681 10.5001667,4.49897196 C10.680337,4.59697679 10.8278584,4.74560107 10.9245154,4.92649322 L10.9245154,4.92649322 L12.476,7.83076822 L15.7755332,8.22078377 C16.313035,8.28427512 16.7075107,8.74321363 16.7024574,9.27232933 L16.7024574,9.27232933 L16.6951056,9.38666687 C16.6671727,9.62312217 16.5596983,9.84306255 16.3903153,10.0104032 L16.3903153,10.0104032 L13.978,12.3925952 L14.683834,15.5483003 C14.8019,16.0764849 14.4994535,16.6006574 13.9984777,16.7710443 L13.9984777,16.7710443 L13.8881679,16.8020132 C13.6537968,16.8543986 13.4085499,16.8248622 13.1933197,16.7183289 L13.1933197,16.7183289 L10.012,15.1434908 L6.96336005,16.7159829 C6.4847882,16.9628077 5.9045508,16.8060028 5.61126988,16.3697123 L5.61126988,16.3697123 L5.54886045,16.2641252 C5.44588652,16.0644828 5.40965754,15.8370793 5.44549611,15.6153237 L5.44549611,15.6153237 L5.99,12.2466007 L3.80125119,10.1987306 C3.41043904,9.83295391 3.36165284,9.23867165 3.66813928,8.8164209 L3.66813928,8.8164209 L3.75217007,8.71467399 C3.90839421,8.54776979 4.11482508,8.4364113 4.34010699,8.39751327 L4.34010699,8.39751327 L7.479,7.85476731 Z M9.993,6.78980771 L8.77563339,9.02928602 C8.65145383,9.2575582 8.42966957,9.41648493 8.1735885,9.46070087 L8.1735885,9.46070087 L5.916,9.84969162 L7.48201649,11.3153213 C7.65909181,11.4810531 7.75552272,11.7129971 7.75103254,11.9517869 L7.75103254,11.9517869 L7.74028348,12.0714775 L7.329,14.6145109 L9.61446394,13.4359412 C9.82021829,13.3298228 10.0587064,13.3129325 10.275083,13.3857244 L10.275083,13.3857244 L10.3811747,13.4295959 L12.727,14.5905118 L12.21682,12.3046289 C12.1609294,12.0545944 12.2210949,11.7947932 12.3765545,11.5958872 L12.3765545,11.5958872 L12.4489539,11.514576 L14.234,9.74969542 L11.8363154,9.46722639 C11.5995948,9.43926423 11.3874307,9.31356697 11.249113,9.12376968 L11.249113,9.12376968 L11.1863362,9.02368508 L9.993,6.78980771 Z" fill="#000" fill-rule="evenodd"/></svg>