<svg width="24" height="24" viewBox="0 0 24 24" fill="none" xmlns="http://www.w3.org/2000/svg"><path fill-rule="evenodd" clip-rule="evenodd" d="M12.86 5.954a1 1 0 0 0-1.763-.007L9.699 8.53l-2.741.476a1 1 0 0 0-.515 1.713l1.911 1.798-.477 2.964a1 1 0 0 0 1.448 1.046l2.664-1.38 2.78 1.382a1 1 0 0 0 1.422-1.112l-.616-2.77 2.11-2.096a1 1 0 0 0-.587-1.702l-2.881-.342-1.357-2.553zm-1.938 3.679 1.05-1.94L13 9.626a.8.8 0 0 0 .612.42l2.064.244-1.542 1.53a.8.8 0 0 0-.217.742l.439 1.974-2.018-1.004a.8.8 0 0 0-.724.006l-1.968 1.02.355-2.207a.8.8 0 0 0-.242-.71l-1.345-1.265 1.941-.337a.8.8 0 0 0 .567-.407z" fill="currentColor"/><path fill-rule="evenodd" clip-rule="evenodd" d="M20.915 4.37a3 3 0 0 0-3.022-2.854l-11.836.1a3 3 0 0 0-2.97 2.852l-.74 15.02c-.105 2.125 1.974 3.68 3.983 2.98l5.4-1.88a1 1 0 0 1 .661.001l5.266 1.861c2.011.71 4.1-.845 3.996-2.975L20.915 4.37zm-3.005-.854a1 1 0 0 1 1.007.951l.739 15.106a1 1 0 0 1-1.332.991l-5.266-1.86a3 3 0 0 0-1.987-.005l-5.399 1.88a1 1 0 0 1-1.327-.993l.739-15.02a1 1 0 0 1 .99-.95l11.836-.1z" fill="currentColor"/></svg>