<svg width="24" height="24" viewBox="0 0 24 24" xmlns="http://www.w3.org/2000/svg"><path d="M17.548 2c1.15 0 2.204.619 2.766 1.609l.094.178 2.164 4.438c.086.175.154.357.206.544a.998.998 0 0 1 .118.945l-.002 9.723a3.182 3.182 0 0 1-3.001 3.177l-.18.005H4.181a3.182 3.182 0 0 1-3.177-3.001L1 19.438V9.653c0-.441.092-.877.269-1.28l.095-.198L3.71 3.704a3.182 3.182 0 0 1 2.61-1.697L6.528 2h11.02zm3.346 8.351-8.874.005-.073.003-.071-.004L3 10.359v9.078c0 .612.465 1.116 1.061 1.176l.12.006h15.531c.612 0 1.115-.465 1.176-1.06l.006-.122v-9.086zm-2.477 5.777v2h-5.702v-2h5.702zM10.984 4H6.528c-.396 0-.762.197-.98.52l-.067.113-1.955 3.726 7.421-.004V4.27a1 1 0 0 1 .037-.27zm6.564 0H12.91c.014.05.024.1.03.153l.007.117v4.084l7.461-.003-1.797-3.687a1.182 1.182 0 0 0-.928-.656L17.548 4z" fill="currentColor" fill-rule="nonzero" stroke="none" stroke-width="1"/></svg>