<svg width="24" height="24" viewBox="0 0 24 24" fill="none" xmlns="http://www.w3.org/2000/svg"><path d="M12.5 17.5h6v-2h-6v2z" fill="currentColor"/><path fill-rule="evenodd" clip-rule="evenodd" d="M7.765 2a5 5 0 0 0-4.288 2.428L1.642 7.486a.995.995 0 0 0-.142.53V17a5 5 0 0 0 5 5h11a5 5 0 0 0 5-5V8.016a.996.996 0 0 0-.143-.53l-1.834-3.058A5 5 0 0 0 16.235 2h-8.47zm12.569 6-1.526-2.543A3 3 0 0 0 16.235 4H13v4h7.334zM11 8V4H7.765a3 3 0 0 0-2.573 1.457L3.666 8H11zm-7.5 9v-7h17v7a3 3 0 0 1-3 3h-11a3 3 0 0 1-3-3z" fill="currentColor"/></svg>