<svg width="24" height="24" viewBox="0 0 24 24" xmlns="http://www.w3.org/2000/svg"><path d="M13 0a3 3 0 0 1 3 3v4h3.25c1.476 0 2.66 1.198 2.745 2.684l.005.173v9.286c0 1.507-1.129 2.76-2.581 2.852L19.25 22H3a3 3 0 0 1-3-3V3a3 3 0 0 1 3-3h10zm6.25 9H16v11h3.25c.37 0 .696-.316.744-.747l.006-.11V9.857c0-.449-.298-.8-.659-.85L19.25 9zM13 2H3a1 1 0 0 0-.993.883L2 3v16a1 1 0 0 0 .883.993L3 20h11V3a1 1 0 0 0-.77-.974l-.113-.02L13 2zm-2.5 11.107a1 1 0 0 1 0 2h-5a1 1 0 1 1 0-2h5zm0-6a1 1 0 0 1 0 2h-5a1 1 0 1 1 0-2h5z" transform="translate(1 1)" fill="currentColor" fill-rule="nonzero" stroke="none" stroke-width="1"/></svg>