<svg width="20" height="24" viewBox="0 0 20 24" xmlns="http://www.w3.org/2000/svg"><path d="M15,22 L15,24 L5,24 L5,22 L15,22 Z M10,0 C15.5104715,0 20,4.24011023 20,9.5 C20,12.7484483 18.1160353,15.8143156 15.2531244,17.5693496 L15.2531244,17.5693496 L15.235,17.58 L15.2352941,19 C15.2352941,20.0543618 14.4194163,20.9181651 13.3845565,20.9945143 L13.3845565,20.9945143 L13.2352941,21 L6.77262066,21 L6.60763929,20.9932756 C5.57341348,20.9087705 4.76437079,20.0385621 4.77268281,18.9842331 L4.77268281,18.9842331 L4.783,17.606 L4.53017381,17.4546956 C1.83217822,15.7793802 0.110087141,12.9468474 0.00509120976,9.80498808 L0.00509120976,9.80498808 L0,9.5 C0,4.24011023 4.48952848,0 10,0 Z M10,2 C5.56934602,2 2,5.37104902 2,9.5 C2,12.2929112 3.64470642,14.8212697 6.2361969,16.1196772 L6.2361969,16.1196772 L6.79312841,16.398715 L6.77262066,19 L13.2352941,19 L13.2352941,16.3993797 L13.7655107,16.1172183 C16.3057482,14.7653989 18,12.1801038 18,9.5 C18,5.37104902 14.430654,2 10,2 Z" fill="currentColor" fill-rule="evenodd"/></svg>