<?xml version="1.0" encoding="UTF-8"?>
<svg width="16px" height="16px" viewBox="0 0 16 16" version="1.1" xmlns="http://www.w3.org/2000/svg" xmlns:xlink="http://www.w3.org/1999/xlink">
    <!-- Generator: Sketch 64 (93537) - https://sketch.com -->
    <title>bullseye</title>
    <desc>Created with Sketch.</desc>
    <g id="bullseye" stroke="none" stroke-width="1" fill="none" fill-rule="evenodd">
        <path d="M7.88199242,1 C12.2350966,1 15.7639848,4.52888821 15.7639848,8.88199242 C15.7639848,11.4519982 14.5339768,13.7347202 12.6305305,15.1735884 L11.8306369,14.1067341 C13.4101693,12.9111213 14.4306515,11.0157301 14.4306515,8.88199242 C14.4306515,5.26526788 11.498717,2.33333333 7.88199242,2.33333333 C4.26526788,2.33333333 1.33333333,5.26526788 1.33333333,8.88199242 C1.33333333,11.0837731 2.41993784,13.0317636 4.08614814,14.2189654 L3.28594623,15.2860174 C1.29595788,13.8553145 -1.18423789e-15,11.5199971 -1.18423789e-15,8.88199242 C-1.18423789e-15,4.52888821 3.52888821,1 7.88199242,1 Z M7.88199242,3.54865909 C10.8275111,3.54865909 13.2153258,5.93647376 13.2153258,8.88199242 C13.2153258,10.6182887 12.3856188,12.1607966 11.10106,13.1346608 L10.3013928,12.0676211 C11.2619076,11.3370101 11.8819924,10.1819155 11.8819924,8.88199242 C11.8819924,6.67285342 10.0911314,4.88199242 7.88199242,4.88199242 C5.67285342,4.88199242 3.88199242,6.67285342 3.88199242,8.88199242 C3.88199242,10.2500081 4.56874127,11.457625 5.61629518,12.1788993 L4.8159807,13.2464852 C3.44465413,12.2813675 2.54865909,10.6863154 2.54865909,8.88199242 C2.54865909,5.93647376 4.93647376,3.54865909 7.88199242,3.54865909 Z M7.88199242,6.21532575 C9.35475175,6.21532575 10.5486591,7.40923309 10.5486591,8.88199242 C10.5486591,9.7459268 10.137823,10.5139053 9.50086253,11.0012162 L8.70069314,9.93445113 C9.01388632,9.69047072 9.21532575,9.30975592 9.21532575,8.88199242 C9.21532575,8.14561275 8.61837209,7.54865909 7.88199242,7.54865909 C7.14561275,7.54865909 6.54865909,8.14561275 6.54865909,8.88199242 C6.54865909,9.37770706 6.81917981,9.81023819 7.22064638,10.040011 L6.41777903,11.1110697 C5.69344187,10.6343106 5.21532575,9.81398652 5.21532575,8.88199242 C5.21532575,7.40923309 6.40923309,6.21532575 7.88199242,6.21532575 Z" id="形状" fill="#000000"></path>
    </g>
</svg>