<svg width="24" height="24" viewBox="0 0 24 24" xmlns="http://www.w3.org/2000/svg"><path d="M11.9997854,0 C12.4947896,0 12.9936945,0.0366360063 13.5206405,0.107384222 L13.9214849,0.166801989 L13.6024859,2.14119801 C13.0236464,2.04767615 12.5032326,2 11.9997854,2 C6.47677012,2 1.99978537,6.47698475 1.99978537,12 C1.99978537,17.5230153 6.47677012,22 11.9997854,22 C17.5228006,22 21.9997854,17.5230153 21.9997854,12 C21.9997854,11.5972422 21.9692726,11.1836258 21.9091843,10.7379238 L21.8585874,10.3972995 L23.8329834,10.0783005 C23.9425416,10.7563946 23.9997854,11.3812447 23.9997854,12 C23.9997854,18.6275847 18.6273701,24 11.9997854,24 C5.37220062,24 -0.000214634146,18.6275847 -0.000214634146,12 C-0.000214634146,5.37241525 5.37220062,0 11.9997854,0 Z M9.88143675,5.6168776 L10.4164462,7.5439907 C8.31307355,8.12793369 6.82942927,10.0519964 6.82942927,12.268239 C6.82942927,14.9757104 9.02439694,17.170678 11.7318683,17.170678 C13.858866,17.170678 15.7174214,15.8040851 16.3800178,13.8317389 L16.4463917,13.6181329 L18.3693449,14.1679062 C17.5289553,17.1073543 14.8335896,19.170678 11.7318683,19.170678 C7.91982745,19.170678 4.82942927,16.0802799 4.82942927,12.268239 C4.82942927,9.23447822 6.80325042,6.59045892 9.6365074,5.68977786 L9.88143675,5.6168776 Z M17.2791802,1.42802642 C17.7087297,0.998422406 18.4052111,0.998378154 18.8348151,1.42792758 C18.9932363,1.58632858 19.0995158,1.78932462 19.1394392,2.00976566 L19.1394392,2.00976566 L19.576,4.423 L21.9903802,4.86056449 C22.5483045,4.96167591 22.9311314,5.46705371 22.8916161,6.02000206 L22.8916161,6.02000206 L22.876594,6.13908912 C22.8366526,6.35948228 22.7303829,6.56243059 22.5719928,6.72080054 L22.5719928,6.72080054 L18.6299485,10.662344 L14.4447854,10.969 L12.4388141,12.9753995 L11.0246005,11.5611859 L13.0287854,9.556 L13.3377058,5.37000176 Z M17.478,4.057 L15.278,6.257 L15.082,8.917 L17.742,8.721 L19.942,6.521 L17.8556079,6.14380674 L17.478,4.057 Z" fill="#000" fill-rule="evenodd"/></svg>