<svg width="24" height="24" viewBox="0 0 24 24" xmlns="http://www.w3.org/2000/svg"><path d="M11.8229886,1.5 C18.3526449,1.5 23.6459773,6.79333231 23.6459773,13.3229886 C23.6459773,17.1779973 21.8009651,20.6020802 18.9457958,22.7603826 L17.7459554,21.1601011 C20.115254,19.3666819 21.6459773,16.5235951 21.6459773,13.3229886 C21.6459773,7.89790181 17.2480754,3.5 11.8229886,3.5 C6.39790181,3.5 2,7.89790181 2,13.3229886 C2,16.6256596 3.62990676,19.5476454 6.12922221,21.3284481 L4.92891934,22.9290261 C1.94393682,20.7829718 -1.77635684e-15,17.2799956 -1.77635684e-15,13.3229886 C-1.77635684e-15,6.79333231 5.29333231,1.5 11.8229886,1.5 Z M11.8229886,5.32298863 C16.2412666,5.32298863 19.8229886,8.90471063 19.8229886,13.3229886 C19.8229886,15.9274331 18.5784282,18.2411949 16.6515901,19.7019912 L15.4520892,18.1014316 C16.8928613,17.0055151 17.8229886,15.2728733 17.8229886,13.3229886 C17.8229886,10.0092801 15.1366971,7.32298863 11.8229886,7.32298863 C8.50928013,7.32298863 5.82298863,10.0092801 5.82298863,13.3229886 C5.82298863,15.3750121 6.8531119,17.1864375 8.42444277,18.2683489 L7.22397104,19.8697278 C5.16698119,18.4220512 3.82298863,16.0294731 3.82298863,13.3229886 C3.82298863,8.90471063 7.40471063,5.32298863 11.8229886,5.32298863 Z M11.8229886,9.32298863 C14.0321276,9.32298863 15.8229886,11.1138496 15.8229886,13.3229886 C15.8229886,14.6188902 15.2067345,15.7708579 14.2512938,16.5018243 L13.0510397,14.9016767 C13.5208295,14.5357061 13.8229886,13.9646339 13.8229886,13.3229886 C13.8229886,12.2184191 12.9275581,11.3229886 11.8229886,11.3229886 C10.7184191,11.3229886 9.82298863,12.2184191 9.82298863,13.3229886 C9.82298863,14.0665606 10.2287697,14.7153573 10.8309696,15.0600164 L9.62666854,16.6666045 C8.5401628,15.9514659 7.82298863,14.7209798 7.82298863,13.3229886 C7.82298863,11.1138496 9.61384963,9.32298863 11.8229886,9.32298863 Z" fill="#000" fill-rule="evenodd"/></svg>