<svg width="24" height="24" viewBox="0 0 24 24" fill="none" xmlns="http://www.w3.org/2000/svg"><path fill-rule="evenodd" clip-rule="evenodd" d="M15.648 12.316c-.631-.728-1.378-.951-2.031-.912a2.49 2.49 0 0 0-1.316.471 3.716 3.716 0 0 0-.31.284c-.101-.099-.2-.191-.281-.26-.372-.327-.94-.503-1.506-.48-.613.024-1.282.28-1.823.89-.808.911-.993 2.595-.03 3.816.712.903 1.781 1.945 2.45 2.571a1.752 1.752 0 0 0 2.397.002c.675-.63 1.76-1.68 2.47-2.568.323-.402.562-1.035.619-1.683.058-.664-.067-1.472-.639-2.131zm-2.983 1.461c.207-.23.513-.556.62-.64-.001 0 0 0 0 0a.957.957 0 0 1 .428-.135c.18-.011.436.028.727.363.204.235.286.565.253.943-.035.394-.183.71-.273.822-.633.79-1.64 1.77-2.313 2.399a.152.152 0 0 1-.212 0c-.665-.623-1.657-1.594-2.287-2.394-.468-.593-.341-1.413-.03-1.764.237-.266.487-.346.69-.354a.818.818 0 0 1 .28.036c.063.02.094.04.101.045l.002.001.014.013.017.014c.124.101.368.358.57.57l.095.1a.898.898 0 0 0 1.318-.019z" fill="currentColor"/><path fill-rule="evenodd" clip-rule="evenodd" d="M8.9 1.1v1.5h6.2V1.1h1.8v1.5h.6a4.9 4.9 0 0 1 4.9 4.9v10a4.9 4.9 0 0 1-4.9 4.9h-11a4.9 4.9 0 0 1-4.9-4.9v-10a4.9 4.9 0 0 1 4.9-4.9h.6V1.1h1.8zm6.2 3.3v1.5h1.8V4.4h.6a3.1 3.1 0 0 1 3.1 3.1v.4H3.4v-.4a3.1 3.1 0 0 1 3.1-3.1h.6v1.5h1.8V4.4h6.2zM3.4 9.7h17.2v7.8a3.1 3.1 0 0 1-3.1 3.1h-11a3.1 3.1 0 0 1-3.1-3.1V9.7z" fill="currentColor"/></svg>