<?xml version="1.0" encoding="UTF-8"?>
<svg width="14px" height="16px" viewBox="0 0 14 16" version="1.1" xmlns="http://www.w3.org/2000/svg" xmlns:xlink="http://www.w3.org/1999/xlink">
    <!-- Generator: Sketch 64 (93537) - https://sketch.com -->
    <title>calendar</title>
    <desc>Created with Sketch.</desc>
    <g id="calendar" stroke="none" stroke-width="1" fill="none" fill-rule="evenodd">
        <path d="M4.66666667,1 L4.666,2 L9.333,2 L9.33333333,1 L10.6666667,1 L10.666,2 L12,2 C13.1045695,2 14,2.8954305 14,4 L14,13 C14,14.1045695 13.1045695,15 12,15 L2,15 C0.8954305,15 0,14.1045695 0,13 L0,4 C0,2.8954305 0.8954305,2 2,2 L3.333,2 L3.33333333,1 L4.66666667,1 Z M11.835,6.666 L2.202,6.666 L2.09200807,6.68292476 C1.91454592,6.71714705 1.76699185,6.78024904 1.64934586,6.87223072 C1.50485396,6.98520192 1.39910872,7.13558749 1.33211016,7.32338743 L1.33333333,13 C1.33333333,13.3418906 1.59069346,13.6236714 1.92225258,13.6621815 L2,13.6666667 L12,13.6666667 C12.3418906,13.6666667 12.6236714,13.4093065 12.6621815,13.0777474 L12.6666667,13 L12.6675492,7.32316939 C12.6006805,7.13236049 12.4941752,6.97982538 12.3480333,6.86556405 C12.2303873,6.77358237 12.0828332,6.71048038 11.905371,6.67625809 L11.835,6.666 Z M3.333,3.333 L2,3.33333333 C1.65810944,3.33333333 1.37632856,3.59069346 1.33781849,3.92225258 L1.33333333,4 L1.333,5.333 L12.666,5.333 L12.6666667,4 C12.6666667,3.65810944 12.4093065,3.37632856 12.0777474,3.33781849 L12,3.33333333 L10.666,3.333 L10.6666667,4.20277466 L9.33333333,4.20277466 L9.333,3.333 L4.666,3.333 L4.66666667,4.20277466 L3.33333333,4.20277466 L3.333,3.333 Z" id="形状" fill="#000000"></path>
    </g>
</svg>