<svg width="24" height="24" viewBox="0 0 24 24" xmlns="http://www.w3.org/2000/svg"><path d="M8.5,1.5 L8.499,3 L15.4995,3 L15.5,1.5 L17.5,1.5 L17.499,3 L19.5,3 C21.1568542,3 22.5,4.34314575 22.5,6 L22.5,19.5 C22.5,21.1568542 21.1568542,22.5 19.5,22.5 L4.5,22.5 C2.84314575,22.5 1.5,21.1568542 1.5,19.5 L1.5,6 C1.5,4.34314575 2.84314575,3 4.5,3 L6.4995,3 L6.5,1.5 L8.5,1.5 Z M19.2525,9.999 L4.803,9.999 L4.63801211,10.0243871 C4.37181889,10.0757206 4.15048778,10.1703736 3.9740188,10.3083461 C3.75728094,10.4778029 3.59866309,10.7033812 3.49816523,10.9850812 L3.5,19.5 C3.5,20.0128358 3.88604019,20.4355072 4.38337887,20.4932723 L4.5,20.5 L19.5,20.5 C20.0128358,20.5 20.4355072,20.1139598 20.4932723,19.6166211 L20.5,19.5 L20.5013237,10.9847541 C20.4010208,10.6985407 20.2412629,10.4697381 20.0220499,10.2983461 C19.8455809,10.1603736 19.6242498,10.0657206 19.3580566,10.0143871 L19.2525,9.999 Z M6.4995,4.9995 L4.5,5 C3.98716416,5 3.56449284,5.38604019 3.50672773,5.88337887 L3.5,6 L3.4995,7.9995 L20.499,7.9995 L20.5,6 C20.5,5.48716416 20.1139598,5.06449284 19.6166211,5.00672773 L19.5,5 L17.499,4.9995 L17.5,6.30416199 L15.5,6.30416199 L15.4995,4.9995 L8.499,4.9995 L8.5,6.30416199 L6.5,6.30416199 L6.4995,4.9995 Z" fill="#000" fill-rule="evenodd"/></svg>