<svg width="22" height="24" viewBox="0 0 22 24" fill="none" xmlns="http://www.w3.org/2000/svg"><path d="M7.842 3.753a1 1 0 0 1 .894-.553h4.528a1 1 0 0 1 .894.553l.671 1.341A2 2 0 0 0 16.618 6.2H18a2 2 0 0 1 2 2v5.4a5.524 5.524 0 0 1 2 1.737V8.2a4 4 0 0 0-4-4h-1.382l-.67-1.342A3 3 0 0 0 13.263 1.2H8.736a3 3 0 0 0-2.683 1.658L5.382 4.2H4a4 4 0 0 0-4 4v9a4 4 0 0 0 4 4h8.707a5.466 5.466 0 0 1-.663-2H4a2 2 0 0 1-2-2v-9a2 2 0 0 1 2-2h1.382a2 2 0 0 0 1.789-1.106l.67-1.341z" fill="currentColor"/><path d="M16.585 17.585V14.63h1.8v2.955H21.4v1.8h-3.015V22.4h-1.8v-3.015H13.63v-1.8h2.955z" fill="currentColor"/><path fill-rule="evenodd" clip-rule="evenodd" d="M11 8a4 4 0 1 0 0 8 4 4 0 0 0 0-8zm-2 4a2 2 0 1 1 4 0 2 2 0 0 1-4 0z" fill="currentColor"/></svg>