<svg width="24" height="24" viewBox="0 0 24 24" xmlns="http://www.w3.org/2000/svg"><path d="M21,3 C22.6568542,3 24,4.34314575 24,6 L24,18 C24,19.6568542 22.6568542,21 21,21 L3,21 C1.34314575,21 0,19.6568542 0,18 L0,6 C0,4.34314575 1.34314575,3 3,3 L21,3 Z M21,5 L3,5 C2.48716416,5 2.06449284,5.38604019 2.00672773,5.88337887 L2,6 L2,18 C2,18.5128358 2.38604019,18.9355072 2.88337887,18.9932723 L3,19 L21,19 C21.5128358,19 21.9355072,18.6139598 21.9932723,18.1166211 L22,18 L22,6 C22,5.48716416 21.6139598,5.06449284 21.1166211,5.00672773 L21,5 Z M11.8490548,7 C14.5271138,7 16.6981095,9.17099577 16.6981095,11.8490548 C16.6981095,14.5271138 14.5271138,16.6981095 11.8490548,16.6981095 C9.17099577,16.6981095 7,14.5271138 7,11.8490548 C7,9.17099577 9.17099577,7 11.8490548,7 Z M11.8490548,9 C10.2755653,9 9,10.2755653 9,11.8490548 C9,13.4225443 10.2755653,14.6981095 11.8490548,14.6981095 C13.4225443,14.6981095 14.6981095,13.4225443 14.6981095,11.8490548 C14.6981095,10.2755653 13.4225443,9 11.8490548,9 Z M19.2223422,6.81559432 C19.774627,6.81559432 20.2223422,7.26330957 20.2223422,7.81559432 C20.2223422,8.36787907 19.774627,8.81559432 19.2223422,8.81559432 C18.6700575,8.81559432 18.2223422,8.36787907 18.2223422,7.81559432 C18.2223422,7.26330957 18.6700575,6.81559432 19.2223422,6.81559432 Z" fill="#000" fill-rule="evenodd"/></svg>