<svg width="24" height="24" viewBox="0 0 24 24" xmlns="http://www.w3.org/2000/svg"><path d="M20.137 15.16v2.859h2.86v2h-2.86v2.86h-2v-2.86h-2.86v-2h2.86v-2.86h2zM15.027 1.5c.835 0 1.595.47 1.97 1.207l.07.15.419 1h2.457a2.819 2.819 0 0 1 2.813 2.648l.005.172v6.952h-2V6.677a.819.819 0 0 0-.716-.813l-.102-.006h-3.787l-.934-2.228a.212.212 0 0 0-.145-.124l-.05-.006H8.734a.212.212 0 0 0-.171.086l-.025.044-.933 2.228H3.819a.819.819 0 0 0-.813.716L3 6.677v12.53c0 .418.312.762.716.813l.103.006h9.663v2H3.819a2.819 2.819 0 0 1-2.814-2.647L1 19.208V6.677a2.819 2.819 0 0 1 2.647-2.814l.172-.005 2.456-.001.42-1a2.213 2.213 0 0 1 1.874-1.35l.166-.007h6.291zm-3.029 7.126c2.179 0 3.941 1.779 3.941 3.968 0 2.19-1.762 3.97-3.94 3.97-2.18 0-3.941-1.78-3.941-3.97 0-2.19 1.762-3.968 3.94-3.968zm0 2c-1.07 0-1.94.879-1.94 1.968 0 1.09.87 1.97 1.94 1.97 1.07 0 1.941-.88 1.941-1.97 0-1.09-.871-1.968-1.94-1.968z" fill="currentColor" fill-rule="nonzero" stroke="none" stroke-width="1"/></svg>