<svg width="24" height="24" viewBox="0 0 24 24" xmlns="http://www.w3.org/2000/svg"><path d="M18,0 C19.5976809,0 20.9036609,1.24891996 20.9949073,2.82372721 L21,3 L21,21 C21,22.5976809 19.75108,23.9036609 18.1762728,23.9949073 L18,24 L6,24 C4.40231912,24 3.09633912,22.75108 3.00509269,21.1762728 L3,21 L3,3 C3,1.40231912 4.24891996,0.0963391206 5.82372721,0.00509269341 L6,0 L18,0 Z M19,17 L5,17 L5,21 C5,21.5128358 5.38604019,21.9355072 5.88337887,21.9932723 L6,22 L18,22 C18.5128358,22 18.9355072,21.6139598 18.9932723,21.1166211 L19,21 L19,17 Z M12.05,18.2 C12.7403559,18.2 13.3,18.7596441 13.3,19.45 C13.3,20.1403559 12.7403559,20.7 12.05,20.7 C11.3596441,20.7 10.8,20.1403559 10.8,19.45 C10.8,18.7596441 11.3596441,18.2 12.05,18.2 Z M18,2 L6,2 C5.48716416,2 5.06449284,2.38604019 5.00672773,2.88337887 L5,3 L5,15 L19,15 L19,3 C19,2.48716416 18.6139598,2.06449284 18.1166211,2.00672773 L18,2 Z" fill="#000" fill-rule="evenodd"/></svg>