<svg width="16" height="16" viewBox="0 0 16 16" fill="none" xmlns="http://www.w3.org/2000/svg"><path d="M9.563 2a4 4 0 0 0 5.105 5.104V12a2 2 0 0 1-2 2h-10a2 2 0 0 1-2-2V4a2 2 0 0 1 2-2h6.894zM6.989 5.5a2.695 2.695 0 0 0 .538 5.333c1.303 0 2.39-.925 2.64-2.154H6.989V5.5zm1.077 2.1h2.101a2.697 2.697 0 0 0-2.1-2.1v2.1zM13.304.534l.307.741a2.68 2.68 0 0 0 1.381 1.428l.808.36v.623l-.834.37a2.678 2.678 0 0 0-1.361 1.383l-.303.695h-.603l-.303-.696a2.678 2.678 0 0 0-1.362-1.381l-.834-.371v-.623l.809-.36a2.68 2.68 0 0 0 1.38-1.428l.307-.74h.608z" fill="currentColor"/></svg>