<svg width="22" height="24" viewBox="0 0 22 24" fill="none" xmlns="http://www.w3.org/2000/svg"><g clip-path="url(#clip0_1541_80625)"><path fill-rule="evenodd" clip-rule="evenodd" d="M7.357 1.3h7.286c1.084 0 1.958 0 2.666.058.729.06 1.369.185 1.961.487a5 5 0 0 1 2.185 2.185c.302.592.428 1.233.487 1.961C22 6.7 22 7.573 22 8.657v3.286c0 1.084 0 1.958-.058 2.666-.06.729-.185 1.369-.487 1.961a5 5 0 0 1-2.185 2.185c-.592.302-1.232.428-1.961.487-.708.058-1.583.058-2.666.058h-1.76L8.09 22.382c-1.33.856-3.081-.1-3.081-1.682v-1.436c-.88-.049-1.62-.173-2.278-.509A5 5 0 0 1 .545 16.57c-.302-.592-.428-1.232-.487-1.961C0 13.9 0 13.027 0 11.943V8.657C0 7.573 0 6.7.058 5.991c.06-.728.185-1.369.487-1.96A5 5 0 0 1 2.73 1.844c.592-.302 1.233-.428 1.961-.487C5.4 1.3 6.273 1.3 7.357 1.3zM5.5 7.2h11v2h-11v-2zm0 4.8h6v2h-6v-2z" fill="currentColor"/></g><defs><clipPath id="clip0_1541_80625"><path fill="currentColor" d="M0 0H22V24H0z"/></clipPath></defs></svg>