<svg width="24" height="24" viewBox="0 0 24 24" xmlns="http://www.w3.org/2000/svg"><path d="M19,2.1 C20.6016258,2.1 21.9,3.39837423 21.9,5 L21.9,5 L21.9,16.2164449 C21.9,17.8180707 20.6016258,19.1164449 19,19.1164449 L19,19.1164449 L14.585,19.116 L12.0036755,21.7701129 L9.255,19.116 L5,19.1164449 C3.45557515,19.1164449 2.19312782,17.9091556 2.10492294,16.3868419 L2.10492294,16.3868419 L2.1,16.2164449 L2.1,5 C2.1,3.39837423 3.39837423,2.1 5,2.1 L5,2.1 Z M19,3.9 L5,3.9 C4.39248678,3.9 3.9,4.39248678 3.9,5 L3.9,5 L3.9,16.2164449 C3.9,16.8239581 4.39248678,17.3164449 5,17.3164449 L5,17.3164449 L9.98178965,17.3164449 L11.963,19.229 L13.8258155,17.3164449 L19,17.3164449 C19.6075132,17.3164449 20.1,16.8239581 20.1,16.2164449 L20.1,16.2164449 L20.1,5 C20.1,4.39248678 19.6075132,3.9 19,3.9 L19,3.9 Z M11.8635269,12.016956 L11.8635269,13.816956 L7.25369679,13.816956 L7.25369679,12.016956 L11.8635269,12.016956 Z M16.4733571,7.51054786 L16.4733571,9.31054786 L7.25369679,9.31054786 L7.25369679,7.51054786 L16.4733571,7.51054786 Z" fill="currentColor" fill-rule="nonzero"/></svg>