<svg width="24" height="24" viewBox="0 0 24 24" xmlns="http://www.w3.org/2000/svg"><path d="M21,1.5 C22.5976809,1.5 23.9036609,2.74891996 23.9949073,4.32372721 L24,4.5 L24,16 C24,17.5976809 22.75108,18.9036609 21.1762728,18.9949073 L21,19 L9.753,19 L3,22.6845422 L3,19 C1.40231912,19 0.0963391206,17.75108 0.00509269341,16.1762728 L0,16 L0,4.5 C0,2.90231912 1.24891996,1.59633912 2.82372721,1.50509269 L3,1.5 L21,1.5 Z M21,3.5 L3,3.5 C2.48716416,3.5 2.06449284,3.88604019 2.00672773,4.38337887 L2,4.5 L2,16 C2,16.5128358 2.38604019,16.9355072 2.88337887,16.9932723 L3,17 L5,17 L5,19.315 L9.24500599,17 L21,17 C21.5128358,17 21.9355072,16.6139598 21.9932723,16.1166211 L22,16 L22,4.5 C22,3.98716416 21.6139598,3.56449284 21.1166211,3.50672773 L21,3.5 Z M6,8.5 C6.82842712,8.5 7.5,9.17157288 7.5,10 C7.5,10.8284271 6.82842712,11.5 6,11.5 C5.17157288,11.5 4.5,10.8284271 4.5,10 C4.5,9.17157288 5.17157288,8.5 6,8.5 Z M12,8.5 C12.8284271,8.5 13.5,9.17157288 13.5,10 C13.5,10.8284271 12.8284271,11.5 12,11.5 C11.1715729,11.5 10.5,10.8284271 10.5,10 C10.5,9.17157288 11.1715729,8.5 12,8.5 Z M18,8.5 C18.8284271,8.5 19.5,9.17157288 19.5,10 C19.5,10.8284271 18.8284271,11.5 18,11.5 C17.1715729,11.5 16.5,10.8284271 16.5,10 C16.5,9.17157288 17.1715729,8.5 18,8.5 Z" fill="#000" fill-rule="evenodd"/></svg>