<svg width="24" height="24" viewBox="0 0 24 24" xmlns="http://www.w3.org/2000/svg"><path d="M11.8229886,-8.8817842e-15 C18.3526449,-8.8817842e-15 23.6459773,5.29333231 23.6459773,11.8229886 C23.6459773,18.3526449 18.3526449,23.6459773 11.8229886,23.6459773 C5.29333231,23.6459773 -8.8817842e-15,18.3526449 -8.8817842e-15,11.8229886 C-8.8817842e-15,5.29333231 5.29333231,-8.8817842e-15 11.8229886,-8.8817842e-15 Z M11.8229886,2 C6.39790181,2 2,6.39790181 2,11.8229886 C2,17.2480754 6.39790181,21.6459773 11.8229886,21.6459773 C17.2480754,21.6459773 21.6459773,17.2480754 21.6459773,11.8229886 C21.6459773,6.39790181 17.2480754,2 11.8229886,2 Z M16.2890049,7.79680305 L17.7109951,9.20319695 L10.5713726,16.4219949 L6.26299057,11.7239618 L7.73700943,10.3721968 L10.626,13.522 L16.2890049,7.79680305 Z" fill="#000" fill-rule="evenodd"/></svg>