<svg width="21" height="24" viewBox="0 0 21 24" xmlns="http://www.w3.org/2000/svg"><path d="M21,20.5 L21,22.5 L0,22.5 L0,20.5 L21,20.5 Z M18,1.5 C19.6568542,1.5 21,2.84314575 21,4.5 L21,16.5 C21,18.1568542 19.6568542,19.5 18,19.5 L3,19.5 C1.34314575,19.5 0,18.1568542 0,16.5 L0,4.5 C0,2.84314575 1.34314575,1.5 3,1.5 L18,1.5 Z M18,3.5 L3,3.5 C2.48716416,3.5 2.06449284,3.88604019 2.00672773,4.38337887 L2,4.5 L2,16.5 C2,17.0128358 2.38604019,17.4355072 2.88337887,17.4932723 L3,17.5 L18,17.5 C18.5128358,17.5 18.9355072,17.1139598 18.9932723,16.6166211 L19,16.5 L19,4.5 C19,3.98716416 18.6139598,3.56449284 18.1166211,3.50672773 L18,3.5 Z M8.89083304,10.3374929 L10.109167,11.6625071 L6.19642637,15.2602231 L3.84917071,12.8027035 L5.15082929,11.5594477 L6.278,12.739 L8.89083304,10.3374929 Z M17,12.1 L17,13.9 L11.5,13.9 L11.5,12.1 L17,12.1 Z M9.5,6.1 L9.5,7.9 L4,7.9 L4,6.1 L9.5,6.1 Z M17,6.1 L17,7.9 L11.5,7.9 L11.5,6.1 L17,6.1 Z" fill="#000" fill-rule="evenodd"/></svg>