<svg width="24" height="24" viewBox="0 0 24 24" xmlns="http://www.w3.org/2000/svg"><path d="M19.6,1.5 C21.2568542,1.5 22.6,2.84314575 22.6,4.5 L22.6,19.5 C22.6,21.1568542 21.2568542,22.5 19.6,22.5 L4.6,22.5 C2.94314575,22.5 1.6,21.1568542 1.6,19.5 L1.6,4.5 C1.6,2.84314575 2.94314575,1.5 4.6,1.5 L19.6,1.5 Z M19.6,3.5 L4.6,3.5 C4.08716416,3.5 3.66449284,3.88604019 3.60672773,4.38337887 L3.6,4.5 L3.6,19.5 C3.6,20.0128358 3.98604019,20.4355072 4.48337887,20.4932723 L4.6,20.5 L19.6,20.5 C20.1128358,20.5 20.5355072,20.1139598 20.5932723,19.6166211 L20.6,19.5 L20.6,4.5 C20.6,3.98716416 20.2139598,3.56449284 19.7166211,3.50672773 L19.6,3.5 Z M16.2890049,7.79680305 L17.7109951,9.20319695 L10.5713726,16.4219949 L6.26299057,11.7239618 L7.73700943,10.3721968 L10.626,13.522 L16.2890049,7.79680305 Z" fill="#000" fill-rule="evenodd"/></svg>