<?xml version="1.0" encoding="UTF-8"?>
<svg width="16px" height="16px" viewBox="0 0 16 16" version="1.1" xmlns="http://www.w3.org/2000/svg" xmlns:xlink="http://www.w3.org/1999/xlink">
    <!-- Generator: Sketch 64 (93537) - https://sketch.com -->
    <title>check-circle</title>
    <desc>Created with Sketch.</desc>
    <g id="check-circle" stroke="none" stroke-width="1" fill="none" fill-rule="evenodd">
        <path d="M7.88199242,-6.51330841e-15 C12.2350966,-6.51330841e-15 15.7639848,3.52888821 15.7639848,7.88199242 C15.7639848,12.2350966 12.2350966,15.7639848 7.88199242,15.7639848 C3.52888821,15.7639848 -6.51330841e-15,12.2350966 -6.51330841e-15,7.88199242 C-6.51330841e-15,3.52888821 3.52888821,-6.51330841e-15 7.88199242,-6.51330841e-15 Z M7.88199242,1.33333333 C4.26526788,1.33333333 1.33333333,4.26526788 1.33333333,7.88199242 C1.33333333,11.498717 4.26526788,14.4306515 7.88199242,14.4306515 C11.498717,14.4306515 14.4306515,11.498717 14.4306515,7.88199242 C14.4306515,4.26526788 11.498717,1.33333333 7.88199242,1.33333333 Z M10.8593366,5.1978687 L11.8073301,6.13546463 L7.04758173,10.9479966 L4.17532704,7.81597451 L5.15800629,6.9147979 L7.084,9.01466667 L10.8593366,5.1978687 Z" id="形状结合" fill="#000000"></path>
    </g>
</svg>