<svg width="24" height="24" viewBox="0 0 24 24" xmlns="http://www.w3.org/2000/svg"><path d="M11.8229886,-1.0658141e-14 C18.3526449,-1.0658141e-14 23.6459773,5.29333231 23.6459773,11.8229886 C23.6459773,18.3526449 18.3526449,23.6459773 11.8229886,23.6459773 C5.29333231,23.6459773 -1.0658141e-14,18.3526449 -1.0658141e-14,11.8229886 C-1.0658141e-14,5.29333231 5.29333231,-1.0658141e-14 11.8229886,-1.0658141e-14 Z M11.8229886,2 C6.39790181,2 2,6.39790181 2,11.8229886 C2,17.2480754 6.39790181,21.6459773 11.8229886,21.6459773 C17.2480754,21.6459773 21.6459773,17.2480754 21.6459773,11.8229886 C21.6459773,6.39790181 17.2480754,2 11.8229886,2 Z M10.2078687,6.293656 L15.9142144,12.0123196 L10.2063423,17.7078704 L8.79365765,16.2921296 L13.085,12.009 L8.79213126,7.706344 L10.2078687,6.293656 Z" fill="#000" fill-rule="evenodd"/></svg>