<svg width="21" height="24" viewBox="0 0 21 24" xmlns="http://www.w3.org/2000/svg"><g fill="none" fill-rule="evenodd"><path d="M3.46956522,15.5608696 C5.38575318,15.5608696 6.93913043,17.1142468 6.93913043,19.0304348 C6.93913043,20.9466227 5.38575318,22.5 3.46956522,22.5 C1.55337726,22.5 4.08562073e-14,20.9466227 4.08562073e-14,19.0304348 C4.08562073e-14,17.1142468 1.55337726,15.5608696 3.46956522,15.5608696 Z M17.5304348,1.5 C19.4466227,1.5 21,3.05337726 21,4.96956522 C21,6.88575318 19.4466227,8.43913043 17.5304348,8.43913043 C17.0721657,8.43913043 16.634648,8.35028364 16.234167,8.18887553 L14.9594311,9.46298065 C15.4038889,10.2209207 15.6586957,11.1035298 15.6586957,12.0456522 C15.6586957,13.0942544 15.3430369,14.0691305 14.801558,14.880442 L15.8922889,15.9711751 C16.3801937,15.7093681 16.9379724,15.5608696 17.5304348,15.5608696 C19.4466227,15.5608696 21,17.1142468 21,19.0304348 C21,20.9466227 19.4466227,22.5 17.5304348,22.5 C15.6142468,22.5 14.0608696,20.9466227 14.0608696,19.0304348 C14.0608696,18.4379724 14.2093681,17.8801937 14.4711751,17.3922889 L13.380442,16.301558 C12.5691305,16.8430369 11.5942544,17.1586957 10.5456522,17.1586957 C7.72179624,17.1586957 5.4326087,14.8695081 5.4326087,12.0456522 C5.4326087,10.996619 5.74852697,10.0213725 6.29041413,9.20986203 L5.10771108,8.02882489 C4.61980629,8.29063186 4.06202761,8.43913043 3.46956522,8.43913043 C1.55337726,8.43913043 4.08562073e-14,6.88575318 4.08562073e-14,4.96956522 C4.08562073e-14,3.05337726 1.55337726,1.5 3.46956522,1.5 C5.38575318,1.5 6.93913043,3.05337726 6.93913043,4.96956522 C6.93913043,5.56202761 6.79063186,6.11980629 6.52882489,6.60771108 L7.70986203,7.79041413 C8.52137249,7.24852697 9.496619,6.9326087 10.5456522,6.9326087 C11.7001836,6.9326087 12.7653412,7.3152641 13.6212168,7.960667 L14.6612976,6.92104656 C14.2823828,6.36503117 14.0608696,5.69316679 14.0608696,4.96956522 C14.0608696,3.05337726 15.6142468,1.5 17.5304348,1.5 Z M3.46956522,17.5695652 C2.66274924,17.5695652 2.00869565,18.2236188 2.00869565,19.0304348 C2.00869565,19.8372508 2.66274924,20.4913043 3.46956522,20.4913043 C4.2763812,20.4913043 4.93043478,19.8372508 4.93043478,19.0304348 C4.93043478,18.2236188 4.2763812,17.5695652 3.46956522,17.5695652 Z M17.5304348,17.5695652 C16.7236188,17.5695652 16.0695652,18.2236188 16.0695652,19.0304348 C16.0695652,19.8372508 16.7236188,20.4913043 17.5304348,20.4913043 C18.3372508,20.4913043 18.9913043,19.8372508 18.9913043,19.0304348 C18.9913043,18.2236188 18.3372508,17.5695652 17.5304348,17.5695652 Z M10.5456522,8.94130435 C8.83116821,8.94130435 7.44130435,10.3311682 7.44130435,12.0456522 C7.44130435,13.7601361 8.83116821,15.15 10.5456522,15.15 C12.2601361,15.15 13.65,13.7601361 13.65,12.0456522 C13.65,10.3311682 12.2601361,8.94130435 10.5456522,8.94130435 Z M3.46956522,3.50869565 C2.66274924,3.50869565 2.00869565,4.16274924 2.00869565,4.96956522 C2.00869565,5.7763812 2.66274924,6.43043478 3.46956522,6.43043478 C4.2763812,6.43043478 4.93043478,5.7763812 4.93043478,4.96956522 C4.93043478,4.16274924 4.2763812,3.50869565 3.46956522,3.50869565 Z M17.5304348,3.50869565 C16.7236188,3.50869565 16.0695652,4.16274924 16.0695652,4.96956522 C16.0695652,5.7763812 16.7236188,6.43043478 17.5304348,6.43043478 C18.3372508,6.43043478 18.9913043,5.7763812 18.9913043,4.96956522 C18.9913043,4.16274924 18.3372508,3.50869565 17.5304348,3.50869565 Z" fill="#000"/><path stroke="#000" stroke-width="2" d="M6 17L8 15"/></g></svg>