<svg width="24" height="24" viewBox="0 0 24 24" fill="none" xmlns="http://www.w3.org/2000/svg"><path fill-rule="evenodd" clip-rule="evenodd" d="M1.7 5a3.4 3.4 0 1 1 6.37 1.656l1.173 1.172A4.977 4.977 0 0 1 12 7c1.02 0 1.967.305 2.757.828l1.304-1.303a3.4 3.4 0 1 1 1.383 1.445l-1.272 1.273c.523.79.828 1.738.828 2.757 0 1.02-.305 1.967-.828 2.757l1.303 1.304a3.4 3.4 0 1 1-1.445 1.383l-1.273-1.272A4.977 4.977 0 0 1 12 17a4.977 4.977 0 0 1-2.757-.828L7.97 17.444a3.4 3.4 0 1 1-1.445-1.383l1.303-1.304A4.976 4.976 0 0 1 7 12c0-1.02.305-1.967.828-2.757L6.625 8.039A3.4 3.4 0 0 1 1.7 5zm3.4-1.4a1.4 1.4 0 1 0 0 2.8 1.4 1.4 0 0 0 0-2.8zM12 9a3 3 0 1 0 0 6 3 3 0 0 0 0-6zM3.6 19.1a1.4 1.4 0 1 1 2.8 0 1.4 1.4 0 0 1-2.8 0zM19.1 3.6a1.4 1.4 0 1 0 0 2.8 1.4 1.4 0 0 0 0-2.8zm-1.5 15.5a1.4 1.4 0 1 1 2.8 0 1.4 1.4 0 0 1-2.8 0z" fill="currentColor"/></svg>