<svg width="24" height="24" viewBox="0 0 24 24" xmlns="http://www.w3.org/2000/svg"><path d="M12.0772028,0.113276426 C18.7046198,0.113276426 24.0772028,5.48585943 24.0772028,12.1132764 C24.0772028,18.7406934 18.7046198,24.1132764 12.0772028,24.1132764 C5.4497858,24.1132764 0.0772027972,18.7406934 0.0772027972,12.1132764 C0.0772027972,5.48585943 5.4497858,0.113276426 12.0772028,0.113276426 Z M12.0772028,2.11327643 C6.5543553,2.11327643 2.0772028,6.59042893 2.0772028,12.1132764 C2.0772028,17.6361239 6.5543553,22.1132764 12.0772028,22.1132764 C17.6000503,22.1132764 22.0772028,17.6361239 22.0772028,12.1132764 C22.0772028,6.59042893 17.6000503,2.11327643 12.0772028,2.11327643 Z M12.9664336,6.90712258 L12.9662028,11.9852764 L17.6253964,15.7196928 L16.3746036,17.2803072 L11.5709075,13.4302664 C11.2312567,13.1580449 11.0178205,12.7618171 10.9745835,12.3332036 L10.9664336,12.1711344 L10.9664336,6.90712258 L12.9664336,6.90712258 Z" fill="#000" fill-rule="evenodd"/></svg>