<svg width="24" height="24" viewBox="0 0 24 24" xmlns="http://www.w3.org/2000/svg"><path d="M11.8755116,0.5 C15.4113194,0.5 18.6685231,2.14433578 20.7978165,4.86492941 L22.3441553,3.97117482 C22.4398138,3.91594635 22.5621319,3.94872138 22.6173604,4.0443799 C22.6394334,4.08261151 22.6482369,4.12707196 22.6423985,4.17083025 L22.0637372,8.50785055 C22.0491291,8.61733726 21.9485303,8.69425156 21.8390436,8.67964344 C21.8202422,8.67713488 21.8018932,8.67196445 21.7845482,8.66428753 L17.8599132,6.92724655 C17.7589073,6.88254141 17.7132666,6.76441929 17.7579717,6.66341341 C17.7751265,6.62465412 17.8041517,6.59234713 17.840859,6.57115414 L19.0440323,5.87601972 C17.2871209,3.76435451 14.6881519,2.5 11.8755116,2.5 C6.70024693,2.5 2.5,6.7506427 2.5,12 C2.5,17.2493573 6.70024693,21.5 11.8755116,21.5 C15.6725116,21.5 19.0456871,19.1911753 20.5039715,15.723118 L20.6123452,15.4540773 L22.4785639,16.1732627 C20.7906033,20.5533627 16.6067364,23.5 11.8755116,23.5 C5.59030265,23.5 0.5,18.3486224 0.5,12 C0.5,5.65137756 5.59030265,0.5 11.8755116,0.5 Z" fill="#000" fill-rule="evenodd"/></svg>