<?xml version="1.0" encoding="UTF-8"?>
<svg width="16px" height="16px" viewBox="0 0 16 16" version="1.1" xmlns="http://www.w3.org/2000/svg" xmlns:xlink="http://www.w3.org/1999/xlink">
    <!-- Generator: Sketch 64 (93537) - https://sketch.com -->
    <title>clock</title>
    <desc>Created with Sketch.</desc>
    <g id="clock" stroke="none" stroke-width="1" fill="none" fill-rule="evenodd">
        <path d="M8.05146853,0.0755176175 C12.4697465,0.0755176175 16.0514685,3.65723962 16.0514685,8.07551762 C16.0514685,12.4937956 12.4697465,16.0755176 8.05146853,16.0755176 C3.63319053,16.0755176 0.0514685315,12.4937956 0.0514685315,8.07551762 C0.0514685315,3.65723962 3.63319053,0.0755176175 8.05146853,0.0755176175 Z M8.05146853,1.40885095 C4.3695702,1.40885095 1.38480186,4.39361929 1.38480186,8.07551762 C1.38480186,11.7574159 4.3695702,14.7421843 8.05146853,14.7421843 C11.7333669,14.7421843 14.7181352,11.7574159 14.7181352,8.07551762 C14.7181352,4.39361929 11.7333669,1.40885095 8.05146853,1.40885095 Z M8.64428904,4.60474839 L8.6441352,7.99018428 L11.7502643,10.4797952 L10.9164024,11.5202048 L7.71393833,8.95351096 C7.48750447,8.77202995 7.34521367,8.50787804 7.31638898,8.22213572 L7.31095571,8.1140896 L7.31095571,4.60474839 L8.64428904,4.60474839 Z" id="形状" fill="#000000"></path>
    </g>
</svg>