<svg width="24" height="24" viewBox="0 0 24 24" fill="none" xmlns="http://www.w3.org/2000/svg"><path fill-rule="evenodd" clip-rule="evenodd" d="M6.4 2a4 4 0 0 0-4 4v13a4 4 0 0 0 4 4h11.5a4 4 0 0 0 4-4V9.5a4 4 0 0 0-2.176-3.561A5.302 5.302 0 0 0 14.6 2H6.4zm10.966 3.5A3.297 3.297 0 0 0 14.6 4H6.4a2 2 0 0 0-2 2v13a2 2 0 0 0 2 2h11.5a2 2 0 0 0 2-2V9.5a2 2 0 0 0-2-2H8.364v-2h9.002zm-5.091 6.526L10.03 9.462l-1.229 1.076 1.673 1.912H8.6v1.633h2.859v1.224H8.6v1.633h2.859v1.96h1.633v-1.96h2.857v-1.633h-2.857v-1.224h2.857V12.45h-1.875l1.673-1.912-1.23-1.076-2.242 2.564z" fill="currentColor"/></svg>