<svg width="20" height="24" viewBox="0 0 20 24" fill="none" xmlns="http://www.w3.org/2000/svg"><path fill-rule="evenodd" clip-rule="evenodd" d="M.4 6a4 4 0 0 1 4-4h8.2a5.302 5.302 0 0 1 5.124 3.939A4 4 0 0 1 19.9 9.5V19a4 4 0 0 1-4 4H4.4a4 4 0 0 1-4-4V6zM2 6a2.5 2.5 0 0 1 2.5-2.5h9A2.5 2.5 0 0 1 16 6H2zm6.031 3.462 2.243 2.564 2.244-2.564 1.229 1.076-1.673 1.912h1.875v1.633H11.09v1.224h2.858v1.633H11.09v1.96H9.458v-1.96H6.6v-1.633h2.858v-1.224H6.6V12.45h1.875l-1.673-1.912 1.229-1.076z" fill="currentColor"/></svg>