<svg width="24" height="24" viewBox="0 0 24 24" xmlns="http://www.w3.org/2000/svg"><path d="M12,0 C18.627417,0 24,5.372583 24,12 C24,18.627417 18.627417,24 12,24 C5.372583,24 0,18.627417 0,12 C0,5.372583 5.372583,0 12,0 Z M12,2 C6.4771525,2 2,6.4771525 2,12 C2,17.5228475 6.4771525,22 12,22 C17.5228475,22 22,17.5228475 22,12 C22,6.4771525 17.5228475,2 12,2 Z M11.3416254,6.49289322 C11.7321497,6.10236893 12.3653147,6.10236893 12.755839,6.49289322 L12.755839,6.49289322 L17.6045712,11.3416254 C17.9950955,11.7321497 17.9950955,12.3653147 17.6045712,12.755839 L17.6045712,12.755839 L12.755839,17.6045712 C12.3653147,17.9950955 11.7321497,17.9950955 11.3416254,17.6045712 L11.3416254,17.6045712 L6.49289322,12.755839 C6.10236893,12.3653147 6.10236893,11.7321497 6.49289322,11.3416254 L6.49289322,11.3416254 Z M12.0484038,8.61431458 L8.61398618,12.0487322 L12.0484038,15.4831499 L15.4828215,12.0487322 L12.0484038,8.61431458 Z" fill="currentColor" fill-rule="evenodd"/></svg>