<svg width="23" height="24" viewBox="0 0 23 24" fill="none" xmlns="http://www.w3.org/2000/svg"><path fill-rule="evenodd" clip-rule="evenodd" d="M11.655 2.5c1.926-.003 3.917.384 5.547 1.209 3.22 1.63 5.018 4.531 5.505 6.257a7.907 7.907 0 0 1-.132 4.688c-.451 1.322-1.24 2.467-2.172 3.06-.13.084-.31.191-.504.254-.174.057-.72.185-1.158-.262a1.127 1.127 0 0 1-.278-.489 1.437 1.437 0 0 1-.047-.289c-.007-.1-.006-.222-.005-.298v-.036c.003-.333-.012-.682-.345-1.069-.748-.87-1.771-.73-2.234-.417-.642.434-.785.873-.798 1.2-.017.388.147.765.311.975.291.373.56.633.814.879.082.079.162.156.24.236.123.122.359.36.488.656.078.177.143.43.089.724a1.24 1.24 0 0 1-.361.663c-.24.233-.586.384-.84.479-.3.113-.671.22-1.09.31-.84.18-1.928.303-3.137.262-2.415-.082-5.403-.831-7.832-3.221C-.862 13.765.584 6.73 6.235 3.719c1.545-.824 3.497-1.216 5.42-1.219zm-.955 6a1.1 1.1 0 1 0 0-2.2 1.1 1.1 0 0 0 0 2.2zm-3.6 2.2a1.1 1.1 0 1 0 0-2.2 1.1 1.1 0 0 0 0 2.2zm.6 2.9a1.1 1.1 0 1 1-2.2 0 1.1 1.1 0 0 1 2.2 0z" fill="currentColor"/></svg>