<svg width="23" height="24" viewBox="0 0 23 24" xmlns="http://www.w3.org/2000/svg"><path d="M5.47137181,3.28345188 C8.64768386,1.57758009 13.6036021,1.57009672 16.9445096,3.27358392 C19.8590838,4.75968911 22.0452237,7.52015928 22.7015201,9.86165221 C23.5989749,13.0635351 22.3781005,16.6698463 20.3023813,18.0036184 C20.1197838,18.120948 19.9699762,18.2017992 19.8127894,18.2568002 C19.4548353,18.3820515 19.0705067,18.3747493 18.7170752,18.0896302 C18.4249465,17.8539652 18.3288623,17.5854692 18.2969921,17.2713352 L18.2969921,17.2713352 L18.2915846,17.2105518 C18.2887282,17.1718864 18.2872872,17.1350665 18.2867724,17.0888834 L18.2867724,17.0888834 L18.2866424,16.7338018 C18.2757941,16.2857152 18.1917555,16.0235161 17.91315,15.6971063 C17.215274,14.8794857 16.1595161,14.7977592 15.5005731,15.2467212 C14.4673233,15.9507121 14.4271571,16.9109348 14.977528,17.6207426 C15.1545826,17.8490881 15.3407722,18.0583332 15.5583485,18.2799457 L15.5583485,18.2799457 L15.6109336,18.3328112 C15.7143622,18.4359459 15.8877852,18.6056221 15.9971098,18.7130633 L15.9971098,18.7130633 L16.1900082,18.9090308 C16.8094478,19.5726789 17.028299,20.1943891 16.3158334,20.8938076 C15.6292014,21.5678655 13.3007454,22.0701188 11.030145,21.991981 C7.95574891,21.8861822 5.08220148,20.8235191 2.83760612,18.5984525 C-1.87146966,13.9303473 -0.532841842,6.50807797 5.47137181,3.28345188 Z M15.7496007,4.93067688 C12.9831562,3.66353505 8.91832001,3.71594517 6.41268163,5.06162461 C1.56903326,7.66295691 0.520902956,13.4745091 4.24096635,17.1622067 C6.09733975,19.002429 8.49293411,19.8883408 11.0984591,19.9780044 C12.2061734,20.016124 13.3471513,19.8739085 14.0937764,19.7160769 L14.0937764,19.7160769 L14.1434531,19.7041133 L13.961045,19.5150844 C13.847349,19.3940832 13.7388887,19.2729485 13.6335204,19.1484156 L13.6335204,19.1484156 L13.4007546,18.861105 C12.1934003,17.3039926 12.2897136,15.0015063 14.3796134,13.577581 C15.8427411,12.5806985 18.0365052,12.7505185 19.4302357,14.3833911 C19.7293526,14.7338317 19.9316984,15.0678226 20.0643991,15.4141624 L20.0643991,15.4141624 L20.0694376,15.4299766 L20.1642593,15.2806759 C20.8716261,14.1119092 21.2304269,12.3211057 20.8374132,10.6473915 L20.8374132,10.6473915 L20.7761104,10.4091658 C20.2689224,8.59965221 18.4459969,6.29781804 16.040907,5.07149258 L16.040907,5.07149258 Z M5.72663461,12.5291658 C6.30672785,12.5291658 6.77698634,13.0028282 6.77698634,13.5871204 C6.77698634,14.1714126 6.30672785,14.645075 5.72663461,14.645075 C5.14654137,14.645075 4.67628288,14.1714126 4.67628288,13.5871204 C4.67628288,13.0028282 5.14654137,12.5291658 5.72663461,12.5291658 Z M6.25181048,8.29734723 C6.83190372,8.29734723 7.3021622,8.77100966 7.3021622,9.35530187 C7.3021622,9.93959408 6.83190372,10.4132565 6.25181048,10.4132565 C5.67171723,10.4132565 5.20145875,9.93959408 5.20145875,9.35530187 C5.20145875,8.77100966 5.67171723,8.29734723 6.25181048,8.29734723 Z M9.92804153,5.65246064 C10.5081348,5.65246064 10.9783933,6.12612307 10.9783933,6.71041528 C10.9783933,7.29470749 10.5081348,7.76836991 9.92804153,7.76836991 C9.34794829,7.76836991 8.8776898,7.29470749 8.8776898,6.71041528 C8.8776898,6.12612307 9.34794829,5.65246064 9.92804153,5.65246064 Z" fill="#000" fill-rule="evenodd"/></svg>