<svg width="24" height="24" viewBox="0 0 24 24" xmlns="http://www.w3.org/2000/svg"><path d="M12,0 C18.627417,0 24,5.372583 24,12 C24,18.627417 18.627417,24 12,24 C5.372583,24 0,18.627417 0,12 C0,5.372583 5.372583,0 12,0 Z M12,2 C6.4771525,2 2,6.4771525 2,12 C2,17.5228475 6.4771525,22 12,22 C17.5228475,22 22,17.5228475 22,12 C22,6.4771525 17.5228475,2 12,2 Z M16.6837722,6.0513167 C17.4655303,5.79073069 18.2092693,6.53446974 17.9486833,7.31622777 L17.9486833,7.31622777 L15.4486833,14.8162278 C15.3491483,15.1148328 15.1148328,15.3491483 14.8162278,15.4486833 L14.8162278,15.4486833 L7.31622777,17.9486833 C6.53446974,18.2092693 5.79073069,17.4655303 6.0513167,16.6837722 L6.0513167,16.6837722 L8.5513167,9.18377223 C8.6508517,8.88516724 8.88516724,8.6508517 9.18377223,8.5513167 L9.18377223,8.5513167 Z M15.418,8.581 L10.29,10.29 L8.581,15.419 L13.709,13.709 L15.418,8.581 Z M12,11 C12.5522847,11 13,11.4477153 13,12 C13,12.5522847 12.5522847,13 12,13 C11.4477153,13 11,12.5522847 11,12 C11,11.4477153 11.4477153,11 12,11 Z" fill="currentColor" fill-rule="nonzero"/></svg>