<svg width="22" height="24" viewBox="0 0 22 24" xmlns="http://www.w3.org/2000/svg"><path d="M19.5,11 C20.8807119,11 22,12.1192881 22,13.5 L22,13.5 L22,19.5 C22,20.8807119 20.8807119,22 19.5,22 L19.5,22 L12,22 L12.0180216,11 Z M9.98197843,15 L10,22 L2.5,22 C1.11928813,22 0,20.8807119 0,19.5 L0,17.5 C0,16.1192881 1.11928813,15 2.5,15 L9.98197843,15 Z M19.5,13 L14.016,13 L14.003,20 L19.5,20 L19.5898756,19.9919443 C19.8231248,19.9496084 20,19.7454599 20,19.5 L20,19.5 L20,13.5 L19.9919443,13.4101244 C19.9496084,13.1768752 19.7454599,13 19.5,13 L19.5,13 Z M7.986,17 L2.5,17 C2.25454011,17 2.05039163,17.1768752 2.00805567,17.4101244 L2,17.5 L2,19.5 C2,19.7454599 2.17687516,19.9496084 2.41012437,19.9919443 L2.5,20 L7.995,20 L7.986,17 Z M9.98197843,2 L10,13 L2.5,13 C1.11928813,13 0,11.8807119 0,10.5 L0,4.5 C0,3.11928813 1.11928813,2 2.5,2 L9.98197843,2 Z M7.984,4 L2.5,4 C2.25454011,4 2.05039163,4.17687516 2.00805567,4.41012437 L2,4.5 L2,10.5 C2,10.7454599 2.17687516,10.9496084 2.41012437,10.9919443 L2.5,11 L7.997,11 L7.984,4 Z M19.5,2 C20.8807119,2 22,3.11928813 22,4.5 L22,4.5 L22,6.5 C22,7.88071187 20.8807119,9 19.5,9 L19.5,9 L12,9 L12.0180216,2 Z M19.5,4 L14.014,4 L14.005,7 L19.5,7 L19.5898756,6.99194433 C19.8231248,6.94960837 20,6.74545989 20,6.5 L20,6.5 L20,4.5 L19.9919443,4.41012437 C19.9496084,4.17687516 19.7454599,4 19.5,4 L19.5,4 Z" fill="#000" fill-rule="evenodd"/></svg>