<svg width="22" height="24" viewBox="0 0 22 24" xmlns="http://www.w3.org/2000/svg"><path d="M11,1 C17.0751322,1 22,5.92486775 22,12 C22,18.0751322 17.0751322,23 11,23 L11,23 L0,23 L0,12 C0,5.92486775 4.92486775,1 11,1 Z M11,3 C6.02943725,3 2,7.02943725 2,12 L2,12 L2,21 L11,21 C15.8818027,21 19.8557914,17.1131863 19.9961629,12.2653623 L19.9961629,12.2653623 L20,12 C20,7.02943725 15.9705627,3 11,3 Z M15.1059338,6.76957959 C15.7128233,6.50328696 16.4206772,6.77939523 16.6869698,7.38628467 C16.8218091,7.69358771 16.8218091,8.04331256 16.6869698,8.35061559 L16.6869698,8.35061559 L13.4237797,15.7875306 L5.98686462,19.0507208 C5.37997518,19.3170134 4.67212125,19.0409052 4.40582862,18.4340157 C4.27098934,18.1267127 4.27098934,17.7769878 4.40582862,17.4696848 L4.40582862,17.4696848 L7.66901878,10.0327698 Z M8.823,12.38 L7.06154943,16.394751 L11.076,14.633 L8.823,12.38 Z M14.0315494,9.42475097 L10.322,11.051 L12.404,13.133 L14.0315494,9.42475097 Z" fill="#000" fill-rule="evenodd"/></svg>