<svg width="24" height="24" viewBox="0 0 24 24" fill="none" xmlns="http://www.w3.org/2000/svg"><path fill-rule="evenodd" clip-rule="evenodd" d="M9.176 8.52a1 1 0 0 0-.656.656l-2.25 7.202a1 1 0 0 0 1.252 1.253l7.202-2.251a1 1 0 0 0 .656-.656l2.25-7.202a1 1 0 0 0-1.252-1.253L9.176 8.52zm1.097 1.753-1.525 4.88 4.88-1.526 1.524-4.88-4.88 1.526z" fill="currentColor"/><path fill-rule="evenodd" clip-rule="evenodd" d="M12 1C5.925 1 1 5.925 1 12s4.925 11 11 11 11-4.925 11-11S18.075 1 12 1zM3 12a9 9 0 1 1 18 0 9 9 0 0 1-18 0z" fill="currentColor"/></svg>