<svg width="24" height="24" viewBox="0 0 24 24" xmlns="http://www.w3.org/2000/svg"><path d="M19.625,1.5 C21.1561108,1.5 22.407675,2.69688163 22.4951195,4.20607191 L22.5,4.375 L22.5,15.625 C22.5,17.1561108 21.3031184,18.407675 19.7939281,18.4951195 L19.625,18.5 L18.5,18.5 L18.5,19.5 C18.5,21.0976809 17.25108,22.4036609 15.6762728,22.4949073 L15.5,22.5 L4.5,22.5 C2.90231912,22.5 1.59633912,21.25108 1.50509269,19.6762728 L1.5,19.5 L1.5,8.5 C1.5,6.90231912 2.74891996,5.59633912 4.32372721,5.50509269 L4.5,5.5 L5.5,5.5 L5.5,4.375 C5.5,2.84388915 6.69688163,1.59232499 8.20607191,1.5048805 L8.375,1.5 L19.625,1.5 Z M15.5,7.5 L4.5,7.5 C3.98716416,7.5 3.56449284,7.88604019 3.50672773,8.38337887 L3.5,8.5 L3.5,19.5 C3.5,20.0128358 3.88604019,20.4355072 4.38337887,20.4932723 L4.5,20.5 L15.5,20.5 C16.0128358,20.5 16.4355072,20.1139598 16.4932723,19.6166211 L16.5,19.5 L16.5,8.5 C16.5,7.98716416 16.1139598,7.56449284 15.6166211,7.50672773 L15.5,7.5 Z M19.625,3.5 L8.375,3.5 C7.92892386,3.5 7.56081077,3.83379954 7.50681749,4.26524186 L7.5,4.375 L7.5,5.5 L15.5,5.5 C17.0976809,5.5 18.4036609,6.74891996 18.4949073,8.32372721 L18.5,8.5 L18.5,16.5 L19.625,16.5 C20.0710761,16.5 20.4391892,16.1662005 20.4931825,15.7347581 L20.5,15.625 L20.5,4.375 C20.5,3.92892386 20.1662005,3.56081077 19.7347581,3.50681749 L19.625,3.5 Z" fill="#000" fill-rule="evenodd"/></svg>