<svg width="22" height="24" viewBox="0 0 22 24" fill="none" xmlns="http://www.w3.org/2000/svg"><path d="m21 9.207.07.998a1 1 0 0 0 .93-.998h-1zm0 5.586h1a1 1 0 0 0-.93-.998l-.07.998zM1 17H0h1zm0-2.207.07-.998a1 1 0 0 0-1.07.998h1zm0-5.586H0a1 1 0 0 0 1.07.998L1 9.207zm21 0V7h-2v2.207h2zM19.4 12a1.8 1.8 0 0 1 1.67-1.795l-.14-1.995A3.8 3.8 0 0 0 17.4 12h2zm1.67 1.795A1.8 1.8 0 0 1 19.4 12h-2a3.8 3.8 0 0 0 3.53 3.79l.14-1.995zM22 17v-2.207h-2V17h2zm-5 5a5 5 0 0 0 5-5h-2a3 3 0 0 1-3 3v2zM5 22h12v-2H5v2zm-5-5a5 5 0 0 0 5 5v-2a3 3 0 0 1-3-3H0zm0-2.207V17h2v-2.207H0zm1.2-.993c-.044 0-.087-.002-.13-.005L.93 15.79c.09.007.18.01.27.01v-2zM3 12a1.8 1.8 0 0 1-1.8 1.8v2A3.8 3.8 0 0 0 5 12H3zm-1.8-1.8A1.8 1.8 0 0 1 3 12h2a3.8 3.8 0 0 0-3.8-3.8v2zm-.13.005c.043-.004.086-.005.13-.005v-2c-.09 0-.18.003-.27.01l.14 1.995zM0 7v2.207h2V7H0zm5-5a5 5 0 0 0-5 5h2a3 3 0 0 1 3-3V2zm12 0H5v2h12V2zm5 5a5 5 0 0 0-5-5v2a3 3 0 0 1 3 3h2z" fill="currentColor"/><path transform="scale(1 -1) rotate(60 17.816 -1.667)" stroke="currentColor" stroke-width="2" d="M0-1 11-1"/><circle cx="9.049" cy="8.518" r="1.5" transform="rotate(30 9.049 8.518)" fill="currentColor"/><circle cx="13.111" cy="15.482" r="1.5" transform="rotate(30 13.111 15.482)" fill="currentColor"/></svg>