<svg width="24" height="24" viewBox="0 0 24 24" xmlns="http://www.w3.org/2000/svg"><path d="M5.84011913,1.5 L5.8395,3.84 L17.1549154,3.84011913 C18.7525963,3.84011913 20.0585763,5.08903909 20.1498227,6.66384634 L20.1549154,6.84011913 L20.154,18.1545 L22.4950345,18.1549154 L22.4950345,20.1549154 L20.154,20.154 L20.1549154,22.4950345 L18.1549154,22.4950345 L18.1545,20.154 L6.84011913,20.1549154 C5.24243824,20.1549154 3.93645825,18.9059954 3.84521182,17.3311882 L3.84011913,17.1549154 L3.84,5.8395 L1.5,5.84011913 L1.5,3.84011913 L3.84,3.84 L3.84011913,1.5 L5.84011913,1.5 Z M17.1549154,5.84011913 L6.6675,5.8395 C6.48935874,5.90140863 6.33729061,5.9858964 6.21373935,6.09991649 L6.0996937,6.22378069 C6.00281258,6.34769314 5.93444832,6.5011379 5.89460092,6.68411499 L5.86425914,6.87693619 L5.8395,6.876 L5.84011913,17.1549154 C5.84011913,17.6677512 6.22615932,18.0904225 6.723498,18.1481877 L6.84011913,18.1549154 L17.3822369,18.156915 C17.6031121,18.0821305 17.7791165,17.9608773 17.91025,17.7931555 C18.0071311,17.669243 18.0754954,17.5157983 18.1153428,17.3328212 L18.1456846,17.14 L18.1545,17.139 L18.1549154,6.84011913 C18.1549154,6.32728329 17.7688752,5.90461197 17.2715365,5.84684686 L17.1549154,5.84011913 Z" fill="#000" fill-rule="evenodd"/></svg>