<svg width="23" height="24" viewBox="0 0 23 24" xmlns="http://www.w3.org/2000/svg"><path d="M4.65932742,0.5 L4.659,3.158 L17.3404361,3.1588544 C18.9384948,3.1588544 20.2447837,4.40806975 20.3360517,5.98324945 L20.3411456,6.15956392 L20.341,18.84 L23,18.8406726 L23,20.8411456 L20.341,20.841 L20.3411456,23.5 L18.3406726,23.5 L18.34,20.841 L5.65956392,20.8411456 C4.06150518,20.8411456 2.75521631,19.5919303 2.6639483,18.0167506 L2.6588544,17.8404361 L2.658,5.159 L-1.42108547e-14,5.15932742 L-1.42108547e-14,3.1588544 L2.658,3.158 L2.6588544,0.5 L4.65932742,0.5 Z M17.3404361,5.15932742 L5.545,5.159 C5.33499261,5.22810195 5.15951793,5.32912909 5.01958757,5.46696627 L4.92130437,5.57724604 C4.77979372,5.75824035 4.69382109,5.99675034 4.66338649,6.29277601 L4.66338649,6.29277601 L4.659,6.292 L4.65932742,17.8404361 C4.65932742,18.3533932 5.04545891,18.7761645 5.54291522,18.8339433 L5.65956392,18.8406726 L17.4593603,18.8413591 C17.7206565,18.7608626 17.9271478,18.6236096 18.0788343,18.4296003 C18.220345,18.248606 18.3063176,18.010096 18.3367522,17.7140703 L18.3367522,17.7140703 L18.34,17.714 L18.3406726,6.15956392 C18.3406726,5.6466068 17.9545411,5.22383551 17.4570848,5.16605674 L17.3404361,5.15932742 Z" fill="#000" fill-rule="evenodd"/></svg>