<svg width="22" height="24" viewBox="0 0 22 24" fill="none" xmlns="http://www.w3.org/2000/svg"><g clip-path="url(#clip0_1365_89691)"><path d="M17 16c1.548 0 2.878.954 3.797 2.033.478.56.488 1.377.047 1.967-1.082 1.448-2.238 2-3.844 2-1.913 0-3.216-1.22-3.91-2.104a1.453 1.453 0 0 1 .005-1.791C14.48 16.304 16.066 16 17 16z" stroke="currentColor" stroke-width="1.8"/><ellipse cx="16.959" cy="19.047" rx="1.459" ry="1.478" fill="currentColor"/><path d="M19 14V8.719a3.5 3.5 0 0 0-1.75-3.031L11.92 2.61a3.5 3.5 0 0 0-3.5 0L3.09 5.688a3.5 3.5 0 0 0-1.75 3.03v6.155a3.5 3.5 0 0 0 1.75 3.031l7.08 4.088" stroke="currentColor" stroke-width="2.039"/><path d="M10.2 11.796v10.2M17.5 7.596l-7.361 4.25M2.013 6.9l7.947 4.588" stroke="currentColor" stroke-width="2.039" stroke-linecap="round"/></g><defs><clipPath id="clip0_1365_89691"><path fill="currentColor" d="M0 0H22V24H0z"/></clipPath></defs></svg>