<svg width="24" height="24" viewBox="0 0 24 24" fill="none" xmlns="http://www.w3.org/2000/svg"><path fill-rule="evenodd" clip-rule="evenodd" d="M8.91 1.727a4.52 4.52 0 0 1 4.52 0l5.33 3.078a4.52 4.52 0 0 1 2.26 3.914V14h-2.04V8.719c0-.073-.003-.146-.009-.218L12.22 12.4v9.597a1.02 1.02 0 0 1-1.554.869l-.006.01-7.08-4.087a4.52 4.52 0 0 1-2.26-3.915V8.72a4.52 4.52 0 0 1 2.26-3.914l5.33-3.078zm1.27 18.517v-8.029L3.396 8.298a2.481 2.481 0 0 0-.035.42v6.155a2.48 2.48 0 0 0 1.24 2.149l5.58 3.222zM4.6 6.57c-.02.01-.04.022-.058.034l6.817 3.936 6.614-3.818a2.492 2.492 0 0 0-.233-.152l-5.33-3.078a2.48 2.48 0 0 0-2.48 0L4.6 6.571z" fill="currentColor"/><path fill-rule="evenodd" clip-rule="evenodd" d="M18 15.1c-1.152 0-3.028.39-4.618 2.456a2.353 2.353 0 0 0 0 2.895c.759.968 2.294 2.449 4.618 2.449.91 0 1.747-.157 2.527-.555.778-.397 1.437-1.002 2.038-1.806.681-.912.68-2.195-.083-3.09-1-1.174-2.558-2.349-4.482-2.349zm1.418 3.947c0 .816-.653 1.478-1.459 1.478s-1.459-.662-1.459-1.478.653-1.478 1.46-1.478c.805 0 1.458.662 1.458 1.478z" fill="currentColor"/></svg>