<svg width="24" height="24" viewBox="0 0 24 24" fill="none" xmlns="http://www.w3.org/2000/svg"><path fill-rule="evenodd" clip-rule="evenodd" d="M13.43 1.727a4.52 4.52 0 0 0-4.52 0L3.58 4.805a4.52 4.52 0 0 0-2.26 3.914v6.154a4.52 4.52 0 0 0 2.26 3.915l7.08 4.087.006-.01a1.02 1.02 0 0 0 1.554-.869V12.4l6.751-3.897c.006.071.01.144.01.217V14h2.039V8.719a4.52 4.52 0 0 0-2.26-3.914l-5.33-3.078zm-3.25 10.488v8.029L4.6 17.02a2.48 2.48 0 0 1-1.24-2.148V8.72c0-.143.012-.283.035-.421l6.786 3.917zm-5.638-5.61.058-.034 5.33-3.078a2.48 2.48 0 0 1 2.48 0l5.33 3.078c.081.046.159.097.233.152l-6.613 3.818-6.818-3.936zm8.84 10.95C14.972 15.49 16.848 15.1 18 15.1c1.925 0 3.481 1.175 4.483 2.35.762.894.764 2.177.082 3.09-.6.803-1.26 1.408-2.037 1.805-.78.398-1.618.555-2.528.555-2.324 0-3.859-1.481-4.617-2.449a2.353 2.353 0 0 1 0-2.895zM18 16.9c-.716 0-2.01.219-3.191 1.753a.553.553 0 0 0-.01.688c.628.8 1.7 1.759 3.201 1.759.697 0 1.24-.119 1.71-.359.472-.24.932-.635 1.413-1.28a.676.676 0 0 0-.01-.844c-.84-.984-1.94-1.717-3.113-1.717zm-.04 3.625c.805 0 1.458-.662 1.458-1.478s-.653-1.478-1.459-1.478-1.459.662-1.459 1.478.653 1.478 1.46 1.478z" fill="currentColor"/></svg>