<svg width="24" height="24" viewBox="0 0 24 24" xmlns="http://www.w3.org/2000/svg"><path d="M12.11 0c4.733 0 8.686 3.302 9.59 7.694 1.272.398 2.193 1.566 2.193 2.945 0 1.636-1.297 2.975-2.938 3.083-1.27 2.63-3.722 4.603-6.68 5.26-.383.37-.906.599-1.482.599h-1.706a2.132 2.132 0 1 1 0-4.264h1.706c1.035 0 1.898.738 2.091 1.716 3.097-1.107 5.304-4.015 5.304-7.424 0-4.361-3.613-7.903-8.078-7.903S4.032 5.248 4.032 9.609c0 1.1.23 2.166.668 3.152a.853.853 0 0 1-1.217 1.078c-.109.011-.22.017-.33.017C1.41 13.856 0 12.473 0 10.766 0 9.274 1.078 8.03 2.511 7.739 3.397 3.325 7.361 0 12.111 0zm3.912 9.788a.853.853 0 0 1 1.468.87c-.219.369-.642.873-1.299 1.366-1.074.808-2.432 1.291-4.071 1.291-1.64 0-2.997-.483-4.072-1.29-.657-.494-1.08-.998-1.298-1.368a.853.853 0 1 1 1.468-.869c.113.19.394.527.855.873.788.592 1.79.949 3.047.949 1.257 0 2.259-.357 3.047-.95.46-.345.742-.681.855-.872z" transform="translate(.005 2.01)" fill="currentColor" stroke="none" stroke-width="1" fill-rule="evenodd"/></svg>