<svg width="24" height="24" viewBox="0 0 24 24" fill="none" xmlns="http://www.w3.org/2000/svg"><path fill-rule="evenodd" clip-rule="evenodd" d="M5.8 6.8a4.8 4.8 0 1 1 9.6 0 4.8 4.8 0 0 1-9.6 0zM10.6 4a2.8 2.8 0 1 0 0 5.6 2.8 2.8 0 0 0 0-5.6zm9.073 11.41L21 17.688c.11.19.107.413.006.588l-1.31 2.268a.584.584 0 0 1-.512.289l-2.636-.01a.631.631 0 0 1-.541-.313l-1.328-2.278a.584.584 0 0 1-.006-.588l1.31-2.268c.1-.175.292-.29.512-.289l2.637.01c.222.001.43.121.54.313zm1.728-1.007 1.327 2.279c.469.804.472 1.793.01 2.594l-1.31 2.268a2.584 2.584 0 0 1-2.251 1.289l-2.637-.01a2.631 2.631 0 0 1-2.262-1.306l-1.327-2.279a2.584 2.584 0 0 1-.01-2.594l1.31-2.268a2.584 2.584 0 0 1 2.252-1.289l2.636.01c.931.004 1.793.502 2.262 1.306zM17.8 19.4a1.4 1.4 0 1 0 0-2.8 1.4 1.4 0 0 0 0 2.8zm-4.735 3.1H4.5a3.5 3.5 0 0 1-3.49-3.768l.142-1.844a3.694 3.694 0 0 1 2.837-3.313 29.738 29.738 0 0 1 9.33-.683c-.054.079-.106.16-.155.244l-.972 1.684a27.37 27.37 0 0 0-.779-.028l.644 2.404a.528.528 0 0 1-.125.497l-.756.806a.527.527 0 0 1-.77 0l-.755-.806a.527.527 0 0 1-.125-.497l.644-2.404a27.74 27.74 0 0 0-5.723.73 1.694 1.694 0 0 0-1.301 1.52l-.142 1.843A1.5 1.5 0 0 0 4.5 20.5h7.4l1.166 2z" fill="currentColor"/></svg>