<svg width="22" height="24" viewBox="0 0 22 24" fill="none" xmlns="http://www.w3.org/2000/svg"><g clip-path="url(#clip0_1576_81916)" fill="currentColor"><path d="M9.6 2a4.8 4.8 0 1 0 0 9.6 4.8 4.8 0 0 0 0-9.6zM11.608 21.715H3.5a3.5 3.5 0 0 1-3.49-3.768l.142-1.844a3.694 3.694 0 0 1 2.837-3.313 29.74 29.74 0 0 1 10.002-.618c-.328.263-.61.589-.827.964l-1.34 2.32-.44-1.655a.606.606 0 0 0-1.172 0L8.47 16.59a.49.49 0 0 0 .114.46l.856.917a.49.49 0 0 0 .507.133c.03.543.186 1.082.47 1.57l1.191 2.045zM18.2 18a1.4 1.4 0 1 1-2.8 0 1.4 1.4 0 0 1 2.8 0z"/><path fill-rule="evenodd" clip-rule="evenodd" d="m21.728 16.682-1.327-2.279a2.632 2.632 0 0 0-2.262-1.306l-2.636-.01a2.584 2.584 0 0 0-2.252 1.289l-1.31 2.268c-.462.801-.458 1.79.01 2.595l1.327 2.278a2.631 2.631 0 0 0 2.262 1.306l2.637.01c.93.003 1.789-.488 2.251-1.289l1.31-2.268c.462-.801.459-1.79-.01-2.594zM20 17.688l-1.327-2.278a.631.631 0 0 0-.541-.313l-2.637-.01a.584.584 0 0 0-.512.289l-1.31 2.268a.584.584 0 0 0 .007.588l1.327 2.278c.111.192.319.312.54.313l2.637.01c.22 0 .412-.114.512-.289l1.31-2.268a.585.585 0 0 0-.006-.588z"/></g><defs><clipPath id="clip0_1576_81916"><path fill="currentColor" d="M0 0H22V24H0z"/></clipPath></defs></svg>