<svg width="24" height="24" viewBox="0 0 24 24" xmlns="http://www.w3.org/2000/svg"><path d="M7.37674426,2.01904315 L12.504,11.3670431 L18.1699608,2.12483669 L19.8751633,3.16996081 L13.613,13.3870431 L15.1344787,16.1621919 C15.8075992,15.1597149 16.9517573,14.5 18.25,14.5 C20.3210678,14.5 22,16.1789322 22,18.25 C22,20.3210678 20.3210678,22 18.25,22 C17.0124708,22 15.9149515,21.4005466 15.2319742,20.4761721 L15.2232557,20.4809569 L15.1851349,20.4113471 C15.024504,20.1839829 14.888535,19.9379539 14.7811215,19.6771537 L12.409,15.3510431 L9.60083165,19.9353866 C8.98367011,21.1600005 7.71493125,22 6.25,22 C4.17893219,22 2.5,20.3210678 2.5,18.25 C2.5,16.1789322 4.17893219,14.5 6.25,14.5 C7.6164649,14.5 8.81222543,15.2308723 9.46768977,16.3230249 L11.301,13.3300431 L5.62325574,2.98095685 L7.37674426,2.01904315 Z M6.25,16.5 C5.28350169,16.5 4.5,17.2835017 4.5,18.25 C4.5,19.2164983 5.28350169,20 6.25,20 C6.80872807,20 7.30629975,19.7381584 7.62669985,19.3304903 L7.62483669,19.3300392 L7.8437825,18.9737794 C7.94411433,18.7531987 8,18.5081258 8,18.25 C8,17.2835017 7.21649831,16.5 6.25,16.5 Z M18.25,16.5 C17.2835017,16.5 16.5,17.2835017 16.5,18.25 C16.5,19.2164983 17.2835017,20 18.25,20 C19.2164983,20 20,19.2164983 20,18.25 C20,17.2835017 19.2164983,16.5 18.25,16.5 Z" fill="#000" fill-rule="evenodd"/></svg>