<svg width="21" height="24" viewBox="0 0 21 24" xmlns="http://www.w3.org/2000/svg"><path d="M2.71544721,10.5774194 L2.71544721,19.6221357 C2.71544721,20.0404219 3.189524,20.4538647 3.86516456,20.5071313 L4.01293052,20.5129032 L16.9877636,20.5129032 C17.6908086,20.5129032 18.2117551,20.1273462 18.27809,19.7115648 L18.2852469,19.6221357 L18.2852469,10.5774194 L20.3241493,10.5774194 L20.3241493,19.6221357 C20.3241493,21.1990128 18.8974436,22.4136987 17.173552,22.4955951 L16.9877636,22.5 L4.01293052,22.5 C2.2692521,22.5 0.782419582,21.3396892 0.681952748,19.7896658 L0.676544869,19.6221357 L0.676544869,10.5774194 L2.71544721,10.5774194 Z M16.0609898,16.9 L16.0609898,18.8870968 L4.93970432,18.8870968 L4.93970432,16.9 L16.0609898,16.9 Z M15.476373,10.1247631 L16.6456067,11.7526562 L11.3898652,15.3381967 L8.18313456,12.8652 L5.57225561,14.8791611 L4.30715302,13.3208389 L8.18341259,10.3318346 L11.4637284,12.8612258 L15.476373,10.1247631 Z M1.85496114,6.46774194 C1.85496114,7.25663058 2.51115468,7.89615119 3.32061043,7.89615119 C4.13006618,7.89615119 4.78625971,7.25663058 4.78625971,6.46774194 L6.64122086,6.46774194 C6.64122086,7.25663058 7.29741439,7.89615119 8.10687014,7.89615119 C8.91632589,7.89615119 9.57251943,7.25663058 9.57251943,6.46774194 L11.4274806,6.46774194 C11.4274806,7.25663058 12.0836741,7.89615119 12.8931299,7.89615119 C13.7025856,7.89615119 14.3587791,7.25663058 14.3587791,6.46774194 L16.2137403,6.46774194 C16.2137403,7.25663058 16.8699338,7.89615119 17.6793896,7.89615119 C18.4888453,7.89615119 19.1450389,7.25663058 19.1450389,6.46774194 L21,6.46774194 C21,8.25506711 19.5133121,9.70398044 17.6793896,9.70398044 C16.7389688,9.70398044 15.8898553,9.32298053 15.2856948,8.71072243 C14.6826641,9.32298053 13.8335506,9.70398044 12.8931299,9.70398044 C11.9531497,9.70398044 11.1043913,9.32333747 10.5002844,8.71158289 C9.89652228,9.32292763 9.04735619,9.70398044 8.10687014,9.70398044 C7.16644937,9.70398044 6.31733589,9.32298053 5.71317533,8.71072243 C5.11014468,9.32298053 4.2610312,9.70398044 3.32061043,9.70398044 C1.48668793,9.70398044 -5.23137089e-13,8.25506711 -5.23137089e-13,6.46774194 L1.85496114,6.46774194 Z M19.674525,1.5 C20.406287,1.5 20.9994972,1.94794423 20.9994972,2.50051145 L20.9991167,6.467 L19.1441167,6.467 L19.1445361,3.30782925 L1.8618482,3.30782925 L1.86111671,6.467 L0.00611670703,6.467 L0.00688705931,2.50051145 C0.00688705931,1.94794423 0.600097339,1.5 1.3318593,1.5 L19.674525,1.5 Z" fill="#000" fill-rule="evenodd"/></svg>