<svg width="24" height="24" viewBox="0 0 24 24" xmlns="http://www.w3.org/2000/svg"><path d="M19.2343799,2.25 C20.82496,2.25 22.1143799,3.53941992 22.1143799,5.13 L22.1143799,19.3899191 C22.1143799,20.9804992 20.82496,22.2699191 19.2343799,22.2699191 L5.13,22.2699191 C3.53941992,22.2699191 2.25,20.9804992 2.25,19.3899191 L2.25,5.13 C2.25,3.53941992 3.53941992,2.25 5.13,2.25 L19.2343799,2.25 Z M4.1685,12.1425 L4.17,19.3899191 C4.17,19.8822415 4.54059858,20.2880059 5.01804372,20.3434604 L5.13,20.3499191 L19.2343799,20.3499191 C19.7267023,20.3499191 20.1324668,19.9793205 20.1879213,19.5018754 L20.1943799,19.3899191 L20.193,15.48 L17.0069559,13.1185713 C16.5769882,13.345014 16.0872063,13.4731756 15.5674905,13.4731756 C14.8889644,13.4731756 14.2614608,13.2547219 13.751475,12.8843097 L11.9215618,14.1795877 L11.9216432,14.2022611 C11.9216432,15.9107518 10.5366378,17.2957572 8.82814708,17.2957572 C7.11965635,17.2957572 5.73465096,15.9107518 5.73465096,14.2022611 C5.73465096,13.9078053 5.77579117,13.6229583 5.85263718,13.3531545 L4.1685,12.1425 Z M8.82814708,13.0287649 C8.18004307,13.0287649 7.65465096,13.554157 7.65465096,14.2022611 C7.65465096,14.8503651 8.18004307,15.3757572 8.82814708,15.3757572 C9.47625109,15.3757572 10.0016432,14.8503651 10.0016432,14.2022611 C10.0016432,13.554157 9.47625109,13.0287649 8.82814708,13.0287649 Z M19.2343799,4.17 L5.13,4.17 C4.63767759,4.17 4.23191313,4.54059858 4.17645862,5.01804372 L4.17,5.13 L4.1685,9.7785 L6.92814453,11.7608312 C7.45247766,11.352193 8.11188453,11.1087649 8.82814708,11.1087649 C9.81621497,11.1087649 10.6960889,11.5719982 11.2624398,12.2931357 L12.6224991,11.329365 C12.5260762,11.030128 12.4739944,10.7109859 12.4739944,10.3796795 C12.4739944,8.67118878 13.8589998,7.28618339 15.5674905,7.28618339 C17.2759813,7.28618339 18.6609867,8.67118878 18.6609867,10.3796795 C18.6609867,10.8618857 18.5506571,11.318323 18.3538646,11.725125 L20.193,13.0905 L20.1943799,5.13 C20.1943799,4.63767759 19.8237813,4.23191313 19.3463362,4.17645862 L19.2343799,4.17 Z M15.5674905,9.20618339 C14.9193865,9.20618339 14.3939944,9.7315755 14.3939944,10.3796795 C14.3939944,11.0277835 14.9193865,11.5531756 15.5674905,11.5531756 C16.2155946,11.5531756 16.7409867,11.0277835 16.7409867,10.3796795 C16.7409867,9.7315755 16.2155946,9.20618339 15.5674905,9.20618339 Z" fill="#000" fill-rule="evenodd"/></svg>