<svg width="20" height="24" viewBox="0 0 20 24" xmlns="http://www.w3.org/2000/svg"><path d="M10,1.5 C15.4558222,1.5 20,3.64586172 20,6.75 C20,7.6811566 19.5910986,8.52608403 18.8713472,9.25272627 C19.5950648,9.98404813 20,10.8321305 20,11.75 C20,12.7895935 19.4903168,13.7217049 18.6074016,14.5017244 C19.4955707,15.286276 20,16.2198112 20,17.25 C20,20.3541383 15.4558222,22.5 10,22.5 C4.54417776,22.5 0,20.3541383 0,17.25 C0,16.2198232 0.504335661,15.2864026 1.39291854,14.5017351 C0.509683164,13.7217049 0,12.7895935 0,11.75 C0,10.8302549 0.404951408,9.98340455 1.12822893,9.25214138 C0.408901446,8.52608403 0,7.6811566 0,6.75 C0,3.64586172 4.54417776,1.5 10,1.5 Z M16.8240955,15.6477754 L16.7307398,15.692283 C14.944162,16.5225477 12.5735011,17 10,17 C7.38182685,17 4.9735969,16.5058281 3.17675331,15.6487283 C2.38632181,16.1801915 2,16.7450277 2,17.25 C2,18.8402821 5.51469674,20.5 10,20.5 C14.4853033,20.5 18,18.8402821 18,17.25 C18,16.7450575 17.6137921,16.1802482 16.8240955,15.6477754 Z M17.2223198,10.4484349 L17.1481089,10.4863092 C15.3221696,11.4430996 12.7793811,12 10,12 C7.18356045,12 4.61006476,11.4281499 2.77923703,10.4478247 C2.25141943,10.8929032 2,11.3407682 2,11.75 C2,13.3402821 5.51469674,15 10,15 C14.4853033,15 18,13.3402821 18,11.75 C18,11.3417339 17.7512408,10.8962572 17.2223198,10.4484349 Z M10,3.5 C5.51469674,3.5 2,5.15971791 2,6.75 C2,8.34028209 5.51469674,10 10,10 C14.4853033,10 18,8.34028209 18,6.75 C18,5.15971791 14.4853033,3.5 10,3.5 Z" fill="#000" fill-rule="evenodd"/></svg>