<svg width="24" height="24" viewBox="0 0 24 24" fill="none" xmlns="http://www.w3.org/2000/svg"><path fill-rule="evenodd" clip-rule="evenodd" d="M6.5 1.5a5 5 0 0 0-5 5v11a5 5 0 0 0 5 5h11a5 5 0 0 0 5-5v-11a5 5 0 0 0-5-5h-11zm-3 5a3 3 0 0 1 3-3h11a3 3 0 0 1 3 3v6.795l-2.601-2.278a3.222 3.222 0 1 0-5.687-.643l-1.181 1.18A3.208 3.208 0 0 0 9.222 11a3.21 3.21 0 0 0-2.063.747L3.5 8.087V6.5zm0 4.415V17.5a3 3 0 0 0 3 3h11a3 3 0 0 0 3-3v-1.546l-4.213-3.69a3.22 3.22 0 0 1-2.807-.33l-1.217 1.218a3.222 3.222 0 1 1-6.18.347l-2.583-2.584zm12.945-1.693a1.222 1.222 0 1 0-2.445 0 1.222 1.222 0 0 0 2.445 0zM9.222 13a1.222 1.222 0 1 1 0 2.445 1.222 1.222 0 0 1 0-2.445z" fill="currentColor"/></svg>