<svg width="24" height="24" viewBox="0 0 24 24" fill="none" xmlns="http://www.w3.org/2000/svg"><path fill-rule="evenodd" clip-rule="evenodd" d="M12 2c-2.592 0-4.986.465-6.77 1.258-.89.396-1.674.893-2.247 1.496C2.404 5.362 2 6.122 2 7c0 .878.404 1.639.983 2.246.106.111.218.219.338.323C2.538 10.285 2 11.184 2 12.25c0 1.064.53 1.96 1.321 2.682C2.547 15.607 2 16.465 2 17.5c0 .878.404 1.639.983 2.246.573.603 1.356 1.1 2.247 1.496C7.014 22.035 9.408 22.5 12 22.5c2.592 0 4.986-.465 6.77-1.258.89-.396 1.674-.893 2.247-1.496.579-.607.983-1.368.983-2.246 0-1.035-.547-1.893-1.322-2.568C21.47 14.21 22 13.314 22 12.25c0-1.069-.547-1.973-1.32-2.682.119-.103.232-.21.337-.322C21.596 8.64 22 7.878 22 7c0-.878-.404-1.638-.983-2.246-.573-.603-1.356-1.1-2.247-1.496C16.986 2.465 14.592 2 12 2zM4 7c0-.227.1-.518.432-.868.337-.354.872-.719 1.61-1.047C7.516 4.431 9.622 4 12 4c2.379 0 4.484.43 5.958 1.085.738.328 1.273.693 1.61 1.047.333.35.432.641.432.868 0 .227-.1.518-.432.868-.337.354-.872.719-1.61 1.047C16.484 9.569 14.378 10 12 10c-2.379 0-4.484-.43-5.958-1.085-.738-.328-1.273-.693-1.61-1.047C4.099 7.518 4 7.227 4 7zm14.904 3.681-.134.061C16.986 11.535 14.592 12 12 12c-2.592 0-4.986-.465-6.77-1.258a8.562 8.562 0 0 1-.116-.052C4.282 11.269 4 11.83 4 12.25c0 .56.518 1.371 2.063 2.1 1.468.694 3.566 1.15 5.937 1.15 2.371 0 4.47-.456 5.937-1.15 1.545-.729 2.063-1.54 2.063-2.1 0-.39-.235-.9-.966-1.452a1.012 1.012 0 0 1-.13-.117zm-.113 5.478.124-.06C19.751 16.649 20 17.16 20 17.5c0 .227-.1.518-.432.868-.337.354-.872.719-1.61 1.047-1.474.655-3.58 1.085-5.958 1.085-2.379 0-4.484-.43-5.958-1.085-.738-.328-1.273-.693-1.61-1.047-.333-.35-.432-.641-.432-.868 0-.34.249-.852 1.085-1.4l.124.06c1.79.845 4.192 1.34 6.791 1.34 2.6 0 5.001-.495 6.791-1.34z" fill="currentColor"/></svg>