<svg width="22" height="24" viewBox="0 0 22 24" fill="none" xmlns="http://www.w3.org/2000/svg"><path d="M7.857 2h6.286c1.084 0 1.958 0 2.666.058.729.06 1.369.185 1.961.487a5 5 0 0 1 2.185 2.185c.302.592.428 1.233.487 1.961.058.708.058 1.582.058 2.666v1.286c0 1.084 0 1.958-.058 2.666-.06.729-.185 1.369-.487 1.961a5 5 0 0 1-2.185 2.185c-.592.302-1.232.428-1.961.487C16.1 18 15.227 18 14.143 18H7.857c-1.084 0-1.958 0-2.666-.058-.728-.06-1.369-.185-1.961-.487a5 5 0 0 1-2.185-2.185c-.302-.592-.428-1.232-.487-1.961C.5 12.6.5 11.727.5 10.643V9.357C.5 8.273.5 7.4.558 6.691c.06-.728.185-1.369.487-1.96A5 5 0 0 1 3.23 2.544c.592-.302 1.233-.428 1.961-.487C5.9 2 6.773 2 7.857 2zM21 21.8v-2H1v2h20z" fill="currentColor"/></svg>