<svg width="24" height="24" viewBox="0 0 24 24" xmlns="http://www.w3.org/2000/svg"><path d="M22.4301123,19.3722474 L22.44293,21.3722064 L1.5064294,21.5063883 L1.49361167,19.5064294 L22.4301123,19.3722474 Z M19.5,2.5 C21.1568542,2.5 22.5,3.84314575 22.5,5.5 L22.5,14.5 C22.5,16.1568542 21.1568542,17.5 19.5,17.5 L4.5,17.5 C2.84314575,17.5 1.5,16.1568542 1.5,14.5 L1.5,5.5 C1.5,3.84314575 2.84314575,2.5 4.5,2.5 L19.5,2.5 Z M19.5,4.5 L4.5,4.5 C3.98716416,4.5 3.56449284,4.88604019 3.50672773,5.38337887 L3.5,5.5 L3.5,14.5 C3.5,15.0128358 3.88604019,15.4355072 4.38337887,15.4932723 L4.5,15.5 L19.5,15.5 C20.0128358,15.5 20.4355072,15.1139598 20.4932723,14.6166211 L20.5,14.5 L20.5,5.5 C20.5,4.98716416 20.1139598,4.56449284 19.6166211,4.50672773 L19.5,4.5 Z" fill="#000" fill-rule="evenodd"/></svg>