<svg width="24" height="24" viewBox="0 0 24 24" xmlns="http://www.w3.org/2000/svg"><path d="M7.02380952,1.5 L7.02380952,3.5 L5.21428571,3.5 C4.31734206,3.5 3.58128729,4.18884721 3.50629245,5.06637058 L3.5,5.21428571 L3.5,18.7857143 C3.5,19.6826579 4.18884721,20.4187127 5.06637058,20.4937075 L5.21428571,20.5 L18.7857143,20.5 C19.6826579,20.5 20.4187127,19.8111528 20.4937075,18.9336294 L20.5,18.7857143 L20.5,5.21428571 C20.5,4.31734206 19.8111528,3.58128729 18.9336294,3.50629245 L18.7857143,3.5 L16.9761905,3.5 L16.9761905,1.5 L18.7857143,1.5 C20.7708853,1.5 22.3923092,3.05738618 22.4948515,5.01702389 L22.5,5.21428571 L22.5,18.7857143 C22.5,20.7708853 20.9426138,22.3923092 18.9829761,22.4948515 L18.7857143,22.5 L5.21428571,22.5 C3.22911472,22.5 1.60769077,20.9426138 1.5051485,18.9829761 L1.5,18.7857143 L1.5,5.21428571 C1.5,3.22911472 3.05738618,1.60769077 5.01702389,1.5051485 L5.21428571,1.5 L7.02380952,1.5 Z M13,1 L13,9.135 L15.3015264,6.83972163 L16.7142144,8.25545912 L11.9977094,12.9618048 L7.3,8.25393272 L8.71574078,6.84124803 L11,9.129 L11,1 L13,1 Z" fill="#000" fill-rule="evenodd"/></svg>