<svg width="24" height="24" viewBox="0 0 24 24" xmlns="http://www.w3.org/2000/svg"><path d="M16.451,1.5 L14.768,3.396 L5.83841248,3.39743757 C4.61943536,3.39743757 3.63125916,4.36830812 3.63125916,5.56593765 L3.63125916,18.3177607 C3.63125916,19.5153902 4.61943536,20.4862607 5.83841248,20.4862607 L18.2536499,20.4862607 C19.472627,20.4862607 20.4608032,19.5153902 20.4608032,18.3177607 L20.4605,9.1305 L22.391,6.954 L22.3920624,18.3177607 C22.3920624,20.563316 20.539232,22.3836983 18.2536499,22.3836983 L5.83841248,22.3836983 C3.55283038,22.3836983 1.7,20.563316 1.7,18.3177607 L1.7,5.56593765 C1.7,3.32038229 3.55283038,1.5 5.83841248,1.5 L16.451,1.5 Z M21.7908537,2.2753641 C22.1133774,2.5906557 22.1544248,3.08528943 21.9104454,3.44614912 L21.8055855,3.57458929 L11.7906374,13.8185922 L10.4616374,13.8185922 L10.4634654,12.5482843 L20.4916285,2.2900959 C20.8463316,1.9272567 21.4280145,1.92066104 21.7908537,2.2753641 Z" fill="#000" fill-rule="evenodd"/></svg>