<?xml version="1.0" encoding="UTF-8"?>
<svg width="14px" height="16px" viewBox="0 0 14 16" version="1.1" xmlns="http://www.w3.org/2000/svg" xmlns:xlink="http://www.w3.org/1999/xlink">
    <!-- Generator: Sketch 64 (93537) - https://sketch.com -->
    <title>edit</title>
    <desc>Created with Sketch.</desc>
    <g id="edit" stroke="none" stroke-width="1" fill="none" fill-rule="evenodd">
        <path d="M9.9803488,1 L8.84165129,2.27103924 L2.8,2.27200296 C1.97525477,2.27200296 1.30666667,2.92285452 1.30666667,3.72572062 L1.30666667,12.2742794 C1.30666667,13.0771455 1.97525477,13.727997 2.8,13.727997 L11.2,13.727997 C12.0247452,13.727997 12.6933333,13.0771455 12.6933333,12.2742794 L12.6931282,6.11532959 L13.9992812,4.65624895 L14,12.2742794 C14,13.7796533 12.7463973,15 11.2,15 L2.8,15 C1.2536027,15 0,13.7796533 0,12.2742794 L0,3.72572062 C0,2.22034669 1.2536027,1 2.8,1 L9.9803488,1 Z M13.5932295,1.51978807 C13.8114451,1.73115305 13.8392173,2.06274529 13.6741437,2.30465817 L13.6031968,2.39076181 L6.82720366,9.25812979 L5.92801828,9.25812979 L5.92925504,8.40654159 L12.7141894,1.52966397 C12.9541772,1.28642406 13.3477368,1.28200247 13.5932295,1.51978807 Z" id="形状" fill="#000000"></path>
    </g>
</svg>