<svg width="24" height="24" viewBox="0 0 24 24" xmlns="http://www.w3.org/2000/svg"><path d="M10,1.63529352 L13.8419136,9.8668365 C14.5171751,9.62923671 15.2434951,9.5 16,9.5 C19.5898509,9.5 22.5,12.4101491 22.5,16 C22.5,19.5898509 19.5898509,22.5 16,22.5 C13.918927,22.5 12.0662772,21.5220041 10.8765856,20.0005471 L1.42980364,20 L10,1.63529352 Z M16,11.5 C13.5147186,11.5 11.5,13.5147186 11.5,16 C11.5,18.4852814 13.5147186,20.5 16,20.5 C18.4852814,20.5 20.5,18.4852814 20.5,16 C20.5,13.5147186 18.4852814,11.5 16,11.5 Z M12.0775162,10.8164882 L9.999,6.365 L4.57,18 L9.81331478,17.9994285 C9.60989407,17.3695311 9.5,16.6975991 9.5,16 C9.5,13.8835488 10.5115304,12.0033532 12.0775162,10.8164882 Z" fill="#000" fill-rule="evenodd"/></svg>