<svg width="24" height="24" viewBox="0 0 24 24" xmlns="http://www.w3.org/2000/svg"><path d="M12.0229886,0 C18.5526449,0 23.8459773,5.29333231 23.8459773,11.8229886 C23.8459773,18.3526449 18.5526449,23.6459773 12.0229886,23.6459773 C5.49333231,23.6459773 0.2,18.3526449 0.2,11.8229886 C0.2,5.29333231 5.49333231,0 12.0229886,0 Z M12.0229886,2 C6.59790181,2 2.2,6.39790181 2.2,11.8229886 C2.2,17.2480754 6.59790181,21.6459773 12.0229886,21.6459773 C17.4480754,21.6459773 21.8459773,17.2480754 21.8459773,11.8229886 C21.8459773,6.39790181 17.4480754,2 12.0229886,2 Z M17.0503835,10.3229886 C17.8788106,10.3229886 18.5503835,10.9945615 18.5503835,11.8229886 C18.5503835,12.6514158 17.8788106,13.3229886 17.0503835,13.3229886 C16.2219564,13.3229886 15.5503835,12.6514158 15.5503835,11.8229886 C15.5503835,10.9945615 16.2219564,10.3229886 17.0503835,10.3229886 Z M6.93827242,10.2988736 C7.76669954,10.2988736 8.43827242,10.9704465 8.43827242,11.7988736 C8.43827242,12.6273008 7.76669954,13.2988736 6.93827242,13.2988736 C6.10984529,13.2988736 5.43827242,12.6273008 5.43827242,11.7988736 C5.43827242,10.9704465 6.10984529,10.2988736 6.93827242,10.2988736 Z M12.0229886,10.2988736 C12.8514158,10.2988736 13.5229886,10.9704465 13.5229886,11.7988736 C13.5229886,12.6273008 12.8514158,13.2988736 12.0229886,13.2988736 C11.1945615,13.2988736 10.5229886,12.6273008 10.5229886,11.7988736 C10.5229886,10.9704465 11.1945615,10.2988736 12.0229886,10.2988736 Z" fill="#000" fill-rule="evenodd"/></svg>