<svg width="4" height="24" viewBox="0 0 4 24" xmlns="http://www.w3.org/2000/svg"><path d="M9.5,11.0239227 C10.3284271,11.0239227 11,11.6901403 11,12.5119613 C11,13.3337824 10.3284271,14 9.5,14 C8.67157288,14 8,13.3337824 8,12.5119613 C8,11.6901403 8.67157288,11.0239227 9.5,11.0239227 Z M-5.5,11 C-4.67157288,11 -4,11.6662176 -4,12.4880387 C-4,13.3098597 -4.67157288,13.9760773 -5.5,13.9760773 C-6.32842712,13.9760773 -7,13.3098597 -7,12.4880387 C-7,11.6662176 -6.32842712,11 -5.5,11 Z M2.02298863,11 C2.85141576,11 3.52298863,11.6662176 3.52298863,12.4880387 C3.52298863,13.3098597 2.85141576,13.9760773 2.02298863,13.9760773 C1.19456151,13.9760773 0.522988631,13.3098597 0.522988631,12.4880387 C0.522988631,11.6662176 1.19456151,11 2.02298863,11 Z" fill="#000" transform="rotate(90 2 12.5)" fill-rule="evenodd"/></svg>