<svg width="24" height="24" viewBox="0 0 24 24" xmlns="http://www.w3.org/2000/svg"><path d="M19.5,10.3229886 C20.3284271,10.3229886 21,10.9945615 21,11.8229886 C21,12.6514158 20.3284271,13.3229886 19.5,13.3229886 C18.6715729,13.3229886 18,12.6514158 18,11.8229886 C18,10.9945615 18.6715729,10.3229886 19.5,10.3229886 Z M4.5,10.2988736 C5.32842712,10.2988736 6,10.9704465 6,11.7988736 C6,12.6273008 5.32842712,13.2988736 4.5,13.2988736 C3.67157288,13.2988736 3,12.6273008 3,11.7988736 C3,10.9704465 3.67157288,10.2988736 4.5,10.2988736 Z M12.0229886,10.2988736 C12.8514158,10.2988736 13.5229886,10.9704465 13.5229886,11.7988736 C13.5229886,12.6273008 12.8514158,13.2988736 12.0229886,13.2988736 C11.1945615,13.2988736 10.5229886,12.6273008 10.5229886,11.7988736 C10.5229886,10.9704465 11.1945615,10.2988736 12.0229886,10.2988736 Z" fill="#000" fill-rule="evenodd"/></svg>