<?xml version="1.0" encoding="UTF-8"?>
<svg width="12px" height="16px" viewBox="0 0 12 16" version="1.1" xmlns="http://www.w3.org/2000/svg" xmlns:xlink="http://www.w3.org/1999/xlink">
    <!-- Generator: Sketch 64 (93537) - https://sketch.com -->
    <title>ellipsis</title>
    <desc>Created with Sketch.</desc>
    <g id="ellipsis" stroke="none" stroke-width="1" fill="none" fill-rule="evenodd">
        <path d="M11,7.01594846 C11.5522847,7.01594846 12,7.46009352 12,8.00797423 C12,8.55585493 11.5522847,9 11,9 C10.4477153,9 10,8.55585493 10,8.00797423 C10,7.46009352 10.4477153,7.01594846 11,7.01594846 Z M1,7 C1.55228475,7 2,7.44414507 2,7.99202577 C2,8.53990648 1.55228475,8.98405154 1,8.98405154 C0.44771525,8.98405154 0,8.53990648 0,7.99202577 C0,7.44414507 0.44771525,7 1,7 Z M6.01532575,7 C6.5676105,7 7.01532575,7.44414507 7.01532575,7.99202577 C7.01532575,8.53990648 6.5676105,8.98405154 6.01532575,8.98405154 C5.463041,8.98405154 5.01532575,8.53990648 5.01532575,7.99202577 C5.01532575,7.44414507 5.463041,7 6.01532575,7 Z" id="形状" fill="#000000"></path>
    </g>
</svg>