<svg width="24" height="24" viewBox="0 0 24 24" fill="none" xmlns="http://www.w3.org/2000/svg"><path fill-rule="evenodd" clip-rule="evenodd" d="M13.072 1.281a5 5 0 0 0-2.144 0c-.802.176-1.534.616-2.593 1.252L2.94 5.769c-.47.28-.882.528-1.194.882a3 3 0 0 0-.605 1.069C1 8.17 1 8.65 1 9.198v5.945c0 1.084 0 1.958.058 2.666.06.729.185 1.369.487 1.961a5 5 0 0 0 2.185 2.185c.592.302 1.232.428 1.961.487.708.058 1.582.058 2.666.058h7.286c1.083 0 1.958 0 2.666-.058.728-.06 1.369-.185 1.96-.487a5 5 0 0 0 2.186-2.185c.302-.592.428-1.232.487-1.961C23 17.1 23 16.227 23 15.143V9.198c0-.547.001-1.029-.142-1.478a3 3 0 0 0-.605-1.069c-.312-.354-.725-.601-1.194-.882l-5.394-3.236c-1.06-.636-1.791-1.076-2.593-1.252zm-1.715 1.954a3 3 0 0 1 1.286 0c.442.096.878.344 2.135 1.098l5.154 3.092.192.116-8.063 6.271a.1.1 0 0 1-.123 0l-8.062-6.27.192-.117 5.154-3.092c1.257-.754 1.693-1.002 2.135-1.098zM3 9.14v5.96c0 1.137 0 1.929.051 2.546.015.18.033.336.055.475l5.005-5.005-5.11-3.976zm1.638 11.033a2.997 2.997 0 0 1-.619-.42l5.524-5.524 1.29 1.004a1.9 1.9 0 0 0 2.333 0l1.29-1.004 5.524 5.524a2.998 2.998 0 0 1-.618.42c-.263.134-.611.226-1.216.276-.617.05-1.41.051-2.546.051H8.4c-1.137 0-1.929 0-2.546-.051-.605-.05-.953-.142-1.216-.276zm16.256-2.052c.022-.139.04-.296.055-.475.05-.617.05-1.41.05-2.546V9.14l-5.11 3.976 5.005 5.005z" fill="currentColor"/></svg>