<svg width="24" height="24" viewBox="0 0 24 24" xmlns="http://www.w3.org/2000/svg"><path d="M3.60486756,3.00162755 L20.1541722,3 C21.4914503,3 21.9763797,3.13923842 22.4652686,3.40069906 C22.9541574,3.66215969 23.3378403,4.04584256 23.5993009,4.53473144 L23.6915863,4.71955165 C23.8933956,5.15817062 24,5.67570945 24,6.8458278 L24,17.1541722 C24,18.4914503 23.8607616,18.9763797 23.5993009,19.4652686 C23.3378403,19.9541574 22.9541574,20.3378403 22.4652686,20.5993009 L22.2804483,20.6915863 C21.8731593,20.8789806 21.397822,20.9842851 20.3951324,20.9983725 L3.8458278,21 C2.50854969,21 2.02362033,20.8607616 1.53473144,20.5993009 C1.04584256,20.3378403 0.662159695,19.9541574 0.400699056,19.4652686 L0.308413717,19.2804483 C0.121019363,18.8731593 0.0157149411,18.397822 0.00162754585,17.3951324 L0,6.8458278 C0,5.50854969 0.139238417,5.02362033 0.400699056,4.53473144 C0.662159695,4.04584256 1.04584256,3.66215969 1.53473144,3.40069906 L1.71955165,3.30841372 C2.1268407,3.12101936 2.60217799,3.01571494 3.60486756,3.00162755 Z M21.9943131,6.36553108 L12.563713,12.9297708 C12.2585515,13.1421092 11.8645818,13.1657024 11.5396851,13.0005503 L11.421395,12.9297708 L2.00537741,6.37650481 L2,6.8458278 L2.00067564,17.3403824 L2.00630613,17.6552425 C2.02213425,18.1677051 2.06925288,18.3443006 2.16432545,18.5220708 C2.23938649,18.6624228 2.33757722,18.7606135 2.47792916,18.8356745 L2.60532759,18.8941783 C2.80867134,18.970998 3.09531328,19 3.8458278,19 L20.3403824,18.9993244 L20.6552425,18.9936939 C21.1677051,18.9778658 21.3443006,18.9307471 21.5220708,18.8356745 C21.6624228,18.7606135 21.7606135,18.6624228 21.8356745,18.5220708 L21.896601,18.3881886 C21.9583719,18.2210299 21.9885278,17.9958939 21.9972474,17.5068994 L22,17.1541722 L21.9975155,6.50862697 C21.996673,6.45823964 21.9956091,6.41061359 21.9943131,6.36553108 Z M20.4580176,5.00196483 L3.5278289,5.00217615 L11.328,10.4295 C11.4880858,10.5394065 11.6518455,10.6087289 11.8214473,10.6364945 L11.9929965,10.6504078 C12.1537821,10.6504078 12.3204099,10.6089638 12.4928796,10.5259064 L12.6105,10.4595 L20.4580176,5.00196483 Z" fill="#000" fill-rule="evenodd"/></svg>