<?xml version="1.0" encoding="UTF-8"?>
<svg width="16px" height="16px" viewBox="0 0 16 16" version="1.1" xmlns="http://www.w3.org/2000/svg" xmlns:xlink="http://www.w3.org/1999/xlink">
    <!-- Generator: Sketch 64 (93537) - https://sketch.com -->
    <title>envelope</title>
    <desc>Created with Sketch.</desc>
    <g id="envelope" stroke="none" stroke-width="1" fill="none" fill-rule="evenodd">
        <path d="M2.40324504,2.00108503 L13.4361148,2 C14.3276335,2 14.6509198,2.09282561 14.9768457,2.2671327 C15.3027716,2.4414398 15.5585602,2.69722837 15.7328673,3.0231543 L15.7943909,3.14636777 C15.9289304,3.43878041 16,3.7838063 16,4.5638852 L16,11.4361148 C16,12.3276335 15.9071744,12.6509198 15.7328673,12.9768457 C15.5585602,13.3027716 15.3027716,13.5585602 14.9768457,13.7328673 L14.8536322,13.7943909 C14.5821062,13.9193204 14.2652147,13.9895234 13.596755,13.998915 L2.5638852,14 C1.67236646,14 1.34908022,13.9071744 1.0231543,13.7328673 C0.697228371,13.5585602 0.441439796,13.3027716 0.267132704,12.9768457 L0.205609145,12.8536322 C0.0806795754,12.5821062 0.0104766274,12.2652147 0.00108503057,11.596755 L0,4.5638852 C0,3.67236646 0.0928256111,3.34908022 0.267132704,3.0231543 C0.441439796,2.69722837 0.697228371,2.4414398 1.0231543,2.2671327 L1.14636777,2.20560914 C1.4178938,2.08067958 1.73478532,2.01047663 2.40324504,2.00108503 Z M14.6628754,4.24368739 L8.37580867,8.61984721 C8.17236764,8.76140615 7.9097212,8.77713492 7.69312342,8.66703352 L7.61426336,8.61984721 L1.33691827,4.25100321 L1.33333333,4.5638852 L1.33378376,11.560255 L1.33753742,11.7701616 C1.3480895,12.1118034 1.37950192,12.2295337 1.44288363,12.3480472 C1.49292433,12.4416152 1.55838481,12.5070757 1.65195278,12.5571164 L1.73688506,12.5961188 C1.87244756,12.647332 2.06354219,12.6666667 2.5638852,12.6666667 L13.560255,12.6662162 L13.7701616,12.6624626 C14.1118034,12.6519105 14.2295337,12.6204981 14.3480472,12.5571164 C14.4416152,12.5070757 14.5070757,12.4416152 14.5571164,12.3480472 L14.597734,12.2587924 C14.6389146,12.1473533 14.6590185,11.9972626 14.6648316,11.6712663 L14.6666667,11.4361148 L14.6650104,4.33908464 C14.6644487,4.3054931 14.6637394,4.27374239 14.6628754,4.24368739 Z M13.6386784,3.33464322 L2.35188593,3.3347841 L7.552,6.953 C7.65872385,7.02627099 7.76789702,7.07248596 7.88096489,7.09099633 L7.99533099,7.10027186 C8.10252143,7.10027186 8.21360657,7.07264251 8.32858641,7.01727094 L8.407,6.973 L13.6386784,3.33464322 Z" id="形状" fill="#000000"></path>
    </g>
</svg>