<svg width="24" height="24" viewBox="0 0 24 24" xmlns="http://www.w3.org/2000/svg"><g stroke="none" stroke-width="1" fill="none" fill-rule="evenodd"><path d="M0 0 24 0 24 24 0 24z"/><g fill="currentColor" fill-rule="nonzero"><path d="M10.491-.86a1 1 0 0 1 .897-.062l.12.061 11 6.5a1 1 0 0 1 .11 1.648l-.11.074-11 6.5a1 1 0 0 1-.896.06l-.12-.06L-.55 7.336l-.09-.067-.082-.076-.047-.054-.067-.09-.055-.095-.044-.1-.033-.105-.014-.06-.015-.11L-1 6.467l.003-.046.015-.11.014-.061.033-.105.044-.1.055-.096.067-.09.076-.082.054-.047.09-.067L10.49-.86zM11 1.16 1.964 6.5 11 11.839 20.035 6.5 11 1.16z" transform="translate(1 2)"/><path d="M22 6a1 1 0 0 1 .993.883L23 7v10.833c0 1.717-1.461 3.07-3.251 3.162l-.193.005H2.444C.632 21-.892 19.705-.994 18.016L-1 17.833V7a1 1 0 0 1 1.993-.117L1 7v10.537l6.56-6.26a1 1 0 0 1 1.466 1.354l-.086.092-6.572 6.274.076.003h17.112l.075-.003-6.571-6.274a1 1 0 0 1 1.284-1.527l.096.08L21 17.539V7a1 1 0 0 1 1-1z" transform="translate(1 2)"/></g></g></svg>