<svg width="24" height="24" viewBox="0 0 24 24" xmlns="http://www.w3.org/2000/svg"><path d="M12,0 C18.627417,0 24,5.372583 24,12 C24,18.627417 18.627417,24 12,24 C5.372583,24 0,18.627417 0,12 C0,5.372583 5.372583,0 12,0 Z M12,2 C6.4771525,2 2,6.4771525 2,12 C2,17.5228475 6.4771525,22 12,22 C17.5228475,22 22,17.5228475 22,12 C22,6.4771525 17.5228475,2 12,2 Z M12.25,15 C12.9403559,15 13.5,15.5596441 13.5,16.25 C13.5,16.9403559 12.9403559,17.5 12.25,17.5 C11.5596441,17.5 11,16.9403559 11,16.25 C11,15.5596441 11.5596441,15 12.25,15 Z M13.25,6.6 L13.25,13.6 L11.25,13.6 L11.25,6.6 L13.25,6.6 Z" fill="#000" fill-rule="evenodd"/></svg>