<?xml version="1.0" encoding="utf-8"?><svg width="24" height="24" viewBox="0 0 24 24" xmlns="http://www.w3.org/2000/svg"><path d="M12,1.5 C17.7989899,1.5 22.5,6.20101013 22.5,12 C22.5,17.7989899 17.7989899,22.5 12,22.5 C6.20101013,22.5 1.5,17.7989899 1.5,12 C1.5,6.20101013 6.20101013,1.5 12,1.5 Z M12,15.2 C11.3372583,15.2 10.8,15.7372583 10.8,16.4 C10.8,17.0627417 11.3372583,17.6 12,17.6 C12.6627417,17.6 13.2,17.0627417 13.2,16.4 C13.2,15.7372583 12.6627417,15.2 12,15.2 Z M13,6.8 L11,6.8 L11,13.8 L13,13.8 L13,6.8 Z" fill="#000" fill-rule="evenodd"/></svg>