<?xml version="1.0" encoding="UTF-8"?>
<svg width="16px" height="16px" viewBox="0 0 16 16" version="1.1" xmlns="http://www.w3.org/2000/svg" xmlns:xlink="http://www.w3.org/1999/xlink">
    <!-- Generator: Sketch 64 (93537) - https://sketch.com -->
    <title>exclamation-circle</title>
    <desc>Created with Sketch.</desc>
    <g id="exclamation-circle" stroke="none" stroke-width="1" fill="none" fill-rule="evenodd">
        <path d="M8,0 C12.418278,0 16,3.581722 16,8 C16,12.418278 12.418278,16 8,16 C3.581722,16 0,12.418278 0,8 C0,3.581722 3.581722,0 8,0 Z M8,1.33333333 C4.31810167,1.33333333 1.33333333,4.31810167 1.33333333,8 C1.33333333,11.6818983 4.31810167,14.6666667 8,14.6666667 C11.6818983,14.6666667 14.6666667,11.6818983 14.6666667,8 C14.6666667,4.31810167 11.6818983,1.33333333 8,1.33333333 Z M8.16666667,10 C8.62690396,10 9,10.373096 9,10.8333333 C9,11.2935706 8.62690396,11.6666667 8.16666667,11.6666667 C7.70642938,11.6666667 7.33333333,11.2935706 7.33333333,10.8333333 C7.33333333,10.373096 7.70642938,10 8.16666667,10 Z M8.83333333,4.4 L8.83333333,9.06666667 L7.5,9.06666667 L7.5,4.4 L8.83333333,4.4 Z" id="形状" fill="#000000"></path>
    </g>
</svg>