<svg width="21" height="24" viewBox="0 0 21 24" xmlns="http://www.w3.org/2000/svg"><path d="M18,1.5 C19.6568542,1.5 21,2.84314575 21,4.5 L21,19.5 C21,21.1568542 19.6568542,22.5 18,22.5 L3,22.5 C1.34314575,22.5 0,21.1568542 0,19.5 L0,4.5 C0,2.84314575 1.34314575,1.5 3,1.5 L18,1.5 Z M18,3.5 L3,3.5 C2.48716416,3.5 2.06449284,3.88604019 2.00672773,4.38337887 L2,4.5 L2,19.5 C2,20.0128358 2.38604019,20.4355072 2.88337887,20.4932723 L3,20.5 L18,20.5 C18.5128358,20.5 18.9355072,20.1139598 18.9932723,19.6166211 L19,19.5 L19,4.5 C19,3.98716416 18.6139598,3.56449284 18.1166211,3.50672773 L18,3.5 Z M12.1363961,12.5702292 L14.935,15.369 L14.9363636,14 L16.7363636,14 L16.7363636,17.3939394 L16.72966,17.5184191 C16.6676353,18.0908071 16.18282,18.5363636 15.5939394,18.5363636 L15.5939394,18.5363636 L12.2,18.5363636 L12.2,16.7363636 L13.756,16.736 L10.8636039,13.8430215 L12.1363961,12.5702292 Z M5.7,14 L5.70036364,16.7373636 L8.43636364,16.7363636 L8.43636364,18.5363636 L5.04242424,18.5363636 C4.45354365,18.5363636 3.96872838,18.0908071 3.90670359,17.5184191 L3.9,17.3939394 L3.9,14 L5.7,14 Z M8.43636364,5.9 L8.43636364,7.7 L7.108,7.699 L10.0727922,10.6636039 L8.8,11.9363961 L5.7,8.836 L5.7,10.4363636 L3.9,10.4363636 L3.9,7.04242424 L3.90670359,6.91794453 C3.96872838,6.34555657 4.45354365,5.9 5.04242424,5.9 L5.04242424,5.9 L8.43636364,5.9 Z M15.5939394,5.9 C16.18282,5.9 16.6676353,6.34555657 16.72966,6.91794453 L16.7363636,7.04242424 L16.7363636,10.4363636 L14.9363636,10.4363636 L14.936,7.699 L12.2,7.7 L12.2,5.9 L15.5939394,5.9 Z" fill="#000" fill-rule="evenodd"/></svg>