<svg width="24" height="24" viewBox="0 0 24 24" xmlns="http://www.w3.org/2000/svg"><path d="M10,1.5 L10,3.5 L5.21428571,3.5 C4.31734206,3.5 3.58128729,4.18884721 3.50629245,5.06637058 L3.5,5.21428571 L3.5,18.7857143 C3.5,19.6826579 4.18884721,20.4187127 5.06637058,20.4937075 L5.21428571,20.5 L18.7857143,20.5 C19.6826579,20.5 20.4187127,19.8111528 20.4937075,18.9336294 L20.5,18.7857143 L20.5,14 L22.5,14 L22.5,18.7857143 C22.5,20.7708853 20.9426138,22.3923092 18.9829761,22.4948515 L18.7857143,22.5 L5.21428571,22.5 C3.22911472,22.5 1.60769077,20.9426138 1.5051485,18.9829761 L1.5,18.7857143 L1.5,5.21428571 C1.5,3.22911472 3.05738618,1.60769077 5.01702389,1.5051485 L5.21428571,1.5 L10,1.5 Z M14.3968736,1.58218806 L22.4755752,1.59089818 L22.4668627,9.65433578 L20.4668639,9.6521748 L20.471,4.639 L15,10.1104076 L13.5857864,8.69619408 L18.694,3.587 L14.3947173,3.58218806 L14.3968736,1.58218806 Z" fill="#000" fill-rule="evenodd"/></svg>