<svg width="24" height="24" viewBox="0 0 24 24" fill="none" xmlns="http://www.w3.org/2000/svg"><path d="M21.414 4 20 2.586 2.586 20 4 21.414 21.414 4zM6.892 19.608C8.334 20.435 10.037 21 12 21c2.296 0 4.298-.518 6.11-1.778 1.79-1.245 3.317-3.16 4.776-5.814a2.838 2.838 0 0 0-.047-2.834c-.805-1.332-1.823-2.695-3.023-3.89l-1.414 1.414c1.063 1.059 1.985 2.286 2.724 3.51a.839.839 0 0 1 .007.837c-1.381 2.513-2.726 4.134-4.165 5.135C15.552 18.565 13.97 19 12 19a8.066 8.066 0 0 1-3.631-.869l-1.477 1.477zM15.531 5.93C14.414 5.34 13.23 5 12.001 5c-1.06 0-2.54.215-4.148 1.132-1.606.915-3.399 2.563-5.037 5.518a.727.727 0 0 0-.016.706c.47.86 1.347 2.27 2.62 3.573l-1.422 1.406c-1.453-1.484-2.434-3.07-2.953-4.019a2.726 2.726 0 0 1 .022-2.636c1.79-3.23 3.83-5.165 5.796-6.286C8.828 3.274 10.663 3 12 3c1.831 0 3.517.576 5.01 1.468L15.53 5.93z" fill="currentColor"/><path d="M10.368 16.132a4.5 4.5 0 0 0 5.827-5.827l-1.696 1.696a2.5 2.5 0 0 1-2.436 2.436l-1.695 1.695zM11.985 9.438A2.5 2.5 0 0 0 9.5 11.894L7.805 13.57a4.5 4.5 0 0 1 5.874-5.809l-1.694 1.677z" fill="currentColor"/></svg>