<svg width="24" height="24" viewBox="0 0 24 24" fill="none" xmlns="http://www.w3.org/2000/svg"><path d="M1.6 8V5.5a4 4 0 0 1 4-4h2.9v2H5.6a2 2 0 0 0-2 2V8h-2zM22.5 8V5.5a4 4 0 0 0-4-4h-2.9v2h2.9a2 2 0 0 1 2 2V8h2zM1.6 18.5V16h2v2.5a2 2 0 0 0 2 2h2.9v2H5.6a4 4 0 0 1-4-4zM22.5 16v2.5a4 4 0 0 1-4 4h-2.9v-2h2.9a2 2 0 0 0 2-2V16h2z" fill="currentColor"/><path fill-rule="evenodd" clip-rule="evenodd" d="M8.5 12.17a3.5 3.5 0 1 1 7 0 3.5 3.5 0 0 1-7 0zm3.5-1.5a1.5 1.5 0 1 0 0 3 1.5 1.5 0 0 0 0-3z" fill="currentColor"/><path fill-rule="evenodd" clip-rule="evenodd" d="M12 5.5c-.977 0-2.308.197-3.733.99-1.428.794-2.895 2.154-4.186 4.396a2.658 2.658 0 0 0-.014 2.66c.487.845 1.37 2.169 2.663 3.291C8.03 17.966 9.79 18.93 12 18.93c1.645 0 3.105-.363 4.432-1.256 1.307-.88 2.408-2.221 3.441-4.042.498-.877.501-1.975-.055-2.855C18.253 8.296 15.506 5.5 12 5.5zm-6.186 6.384c1.134-1.968 2.353-3.05 3.425-3.646A5.646 5.646 0 0 1 12 7.5c2.43 0 4.655 2.013 6.128 4.344.144.23.155.537.006.8-.95 1.673-1.863 2.727-2.819 3.37-.935.629-1.986.915-3.315.915-1.589 0-2.904-.686-3.96-1.602-1.061-.922-1.813-2.039-2.24-2.78a.659.659 0 0 1 .014-.663z" fill="currentColor"/></svg>