<svg width="24" height="24" viewBox="0 0 24 24" xmlns="http://www.w3.org/2000/svg"><path d="M21,1.58578644 L22.4142136,3 L3,22.4142136 L1.58578644,21 L21,1.58578644 Z M20.2376392,6.26453582 C22.153326,7.9481693 23.3968414,10.0653263 23.3968414,12.0737796 C23.3968414,16.3628082 17.7260254,21.1475592 11.9484207,21.1475592 C10.0883025,21.1475592 8.25222824,20.6748722 6.6134166,19.8881714 L8.12880665,18.3728987 C9.32798169,18.858588 10.6316824,19.1475592 11.9484207,19.1475592 C16.6895964,19.1475592 21.3968414,15.1758213 21.3968414,12.0737796 C21.3968414,10.6346098 20.3836403,9.00824399 18.8239172,7.67814977 L20.2376392,6.26453582 Z M11.9484207,3 C13.7783716,3 15.5976097,3.48000151 17.2293421,4.2722216 L15.7167691,5.78457084 C14.5259202,5.29403006 13.2384264,5 11.9484207,5 C7.13717718,5 2.5,8.85807172 2.5,12.0737796 C2.5,13.5550077 3.4838851,15.1725282 5.0154673,16.4865054 L3.60151652,17.9003918 C1.71424305,16.2337246 0.5,14.1262654 0.5,12.0737796 C0.5,7.66378337 6.10559558,3 11.9484207,3 Z M15.9842925,10.5171519 C16.1707101,11.0001568 16.2729182,11.5250323 16.2729182,12.0737796 C16.2729182,14.4621336 14.3367747,16.3982771 11.9484207,16.3982771 C11.3996733,16.3982771 10.8747979,16.2960691 10.3917929,16.1096515 L12.1085813,14.3928458 C13.2647369,14.3141689 14.18881,13.3900959 14.2674869,12.2339403 L15.9842925,10.5171519 Z M11.9484207,7.74928213 C12.4854604,7.74928213 12.999636,7.84717544 13.4740765,8.02609119 L11.7408653,9.75842227 C10.6226923,9.85736439 9.73200545,10.7480513 9.63306334,11.8662242 L7.90073225,13.5994354 C7.72181651,13.1249949 7.6239232,12.6108194 7.6239232,12.0737796 C7.6239232,9.68542561 9.56006667,7.74928213 11.9484207,7.74928213 Z" fill="#000" fill-rule="evenodd"/></svg>