<svg width="23" height="24" viewBox="0 0 23 24" xmlns="http://www.w3.org/2000/svg"><path d="M11.5,7 C17.2778593,7 23,11.0183424 23,14.75 C23,18.4816576 17.2778593,22.5 11.5,22.5 C5.65569372,22.5 -3.55271368e-15,18.5836896 -3.55271368e-15,14.75 C-3.55271368e-15,10.9163104 5.65569372,7 11.5,7 Z M11.5,9 C6.6422372,9 2.00901073,12.2082984 2.00901073,14.75 C2.00901073,17.2917016 6.6422372,20.5 11.5,20.5 C16.2883121,20.5 20.9909893,17.1975703 20.9909893,14.75 C20.9909893,12.3024297 16.2883121,9 11.5,9 Z M11.5518117,11.5 C13.4935172,11.5 15.0675805,13.0670034 15.0675805,15 C15.0675805,16.9329966 13.4935172,18.5 11.5518117,18.5 C9.61010622,18.5 8.03604292,16.9329966 8.03604292,15 C8.03604292,13.0670034 9.61010622,11.5 11.5518117,11.5 Z M11.5518117,13.5 C10.7196522,13.5 10.0450536,14.1715729 10.0450536,15 C10.0450536,15.8284271 10.7196522,16.5 11.5518117,16.5 C12.3839712,16.5 13.0585697,15.8284271 13.0585697,15 C13.0585697,14.1715729 12.3839712,13.5 11.5518117,13.5 Z M5.25732841,2.35218052 L7.52330036,5.80454069 L5.84377851,6.90696084 L3.57780655,3.45460067 L5.25732841,2.35218052 Z M17.8978429,2.35218052 L19.5773647,3.45460067 L17.3113928,6.90696084 L15.6318709,5.80454069 L17.8978429,2.35218052 Z M12.5563171,1.5 L12.5563171,5.5 L10.5473063,5.5 L10.5473063,1.5 L12.5563171,1.5 Z" fill="#000" fill-rule="evenodd"/></svg>