<svg width="22" height="24" viewBox="0 0 22 24" fill="none" xmlns="http://www.w3.org/2000/svg"><path d="M3 21.414 20.414 4 19 2.586 1.586 20 3 21.414zM11 20c-1.653 0-3.11-.446-4.373-1.127l2.74-2.74a4.5 4.5 0 0 0 5.827-5.827L18.11 7.39c1.132 1.127 2.102 2.422 2.873 3.7.34.561.343 1.261.027 1.836C18.17 18.093 15.265 20 11 20z" fill="currentColor"/><path d="M11.063 14.437A2.5 2.5 0 0 0 13.5 12l-2.436 2.436zM11 4c1.527 0 2.963.454 4.273 1.196L12.68 7.761a4.5 4.5 0 0 0-5.874 5.809l-3.097 3.062C2.346 15.238 1.417 13.74.922 12.836a1.726 1.726 0 0 1 .02-1.67C4.37 4.98 8.604 4 11 4z" fill="currentColor"/><path d="M10.985 9.438A2.5 2.5 0 0 0 8.5 11.894l2.485-2.456z" fill="currentColor"/></svg>