<svg width="22" height="24" viewBox="0 0 22 24" fill="none" xmlns="http://www.w3.org/2000/svg"><path d="M.6 6.4v1.5h2V6.4a3 3 0 0 1 3-3h1.9v-2H5.6a5 5 0 0 0-5 5zM21.5 6.4v1.5h-2V6.4a3 3 0 0 0-3-3h-1.9v-2h1.9a5 5 0 0 1 5 5zM.6 17.8v-1.5h2v1.5a3 3 0 0 0 3 3h1.9v2H5.6a5 5 0 0 1-5-5zM21.5 17.8v-1.5h-2v1.5a3 3 0 0 1-3 3h-1.9v2h1.9a5 5 0 0 0 5-5z" fill="currentColor"/><path fill-rule="evenodd" clip-rule="evenodd" d="M11 5.5c-.977 0-2.308.197-3.733.99-1.428.794-2.895 2.154-4.186 4.396a2.658 2.658 0 0 0-.014 2.66c.487.845 1.37 2.169 2.663 3.291 1.3 1.129 3.062 2.092 5.27 2.092 1.645 0 3.105-.363 4.432-1.256 1.307-.88 2.408-2.221 3.441-4.042.498-.877.501-1.975-.054-2.855C17.252 8.296 14.505 5.5 11 5.5zm0 3.67a3 3 0 1 0 0 6 3 3 0 0 0 0-6z" fill="currentColor"/></svg>