<svg width="22" height="24" viewBox="0 0 22 24" fill="none" xmlns="http://www.w3.org/2000/svg"><path d="M12 6V2h-2v4h2zM6.41 6.604 4.142 3.152 2.471 4.25l2.266 3.452L6.41 6.604zM18.02 2.914l-2.265 3.453 1.672 1.097 2.266-3.452-1.672-1.098z" fill="currentColor"/><path fill-rule="evenodd" clip-rule="evenodd" d="M11 8c-2.912 0-5.596.706-7.586 1.9C1.444 11.082 0 12.854 0 15c0 2.146 1.445 3.918 3.414 5.1C5.404 21.294 8.09 22 11 22c2.912 0 5.596-.706 7.586-1.9C20.556 18.918 22 17.146 22 15c0-2.146-1.445-3.918-3.414-5.1C16.596 8.706 13.912 8 11 8zm0 4a3 3 0 1 0 0 6 3 3 0 0 0 0-6z" fill="currentColor"/></svg>