<svg width="24" height="24" viewBox="0 0 24 24" fill="none" xmlns="http://www.w3.org/2000/svg"><path fill-rule="evenodd" clip-rule="evenodd" d="M12 7.438a4.5 4.5 0 1 0 0 9 4.5 4.5 0 0 0 0-9zm-2.5 4.5a2.5 2.5 0 1 1 5 0 2.5 2.5 0 0 1-5 0z" fill="currentColor"/><path fill-rule="evenodd" clip-rule="evenodd" d="M12 3c-1.337 0-3.172.275-5.137 1.394C4.896 5.515 2.858 7.45 1.067 10.68a2.726 2.726 0 0 0-.022 2.636c.59 1.076 1.772 2.972 3.564 4.61C6.407 19.568 8.875 21 12 21c2.296 0 4.298-.518 6.11-1.778 1.79-1.245 3.317-3.16 4.776-5.814a2.839 2.839 0 0 0-.047-2.834c-1.098-1.817-2.592-3.69-4.404-5.12C16.623 4.024 14.441 3 12 3zm-9.184 8.65c1.638-2.955 3.431-4.603 5.037-5.518C9.462 5.215 10.941 5 12 5c1.861 0 3.62.78 5.197 2.024 1.578 1.246 2.923 2.918 3.93 4.584a.839.839 0 0 1 .006.837c-1.381 2.513-2.726 4.134-4.165 5.135C15.552 18.565 13.97 19 12 19c-2.471 0-4.48-1.124-6.042-2.551-1.567-1.431-2.625-3.118-3.158-4.093a.727.727 0 0 1 .016-.706z" fill="currentColor"/></svg>