<?xml version="1.0" encoding="UTF-8"?>
<svg width="16px" height="16px" viewBox="0 0 16 16" version="1.1" xmlns="http://www.w3.org/2000/svg" xmlns:xlink="http://www.w3.org/1999/xlink">
    <!-- Generator: Sketch 64 (93537) - https://sketch.com -->
    <title>eye</title>
    <desc>Created with Sketch.</desc>
    <g id="eye" stroke="none" stroke-width="1" fill="none" fill-rule="evenodd">
        <path d="M7.96561379,2 C11.8173502,2 15.5978943,5.18983401 15.5978943,8.04918642 C15.5978943,10.9085388 11.8173502,14.0983728 7.96561379,14.0983728 C4.07039705,14.0983728 0.333333333,10.9891839 0.333333333,8.04918642 C0.333333333,5.10918891 4.07039705,2 7.96561379,2 Z M7.96561379,3.33333333 C4.75811812,3.33333333 1.66666667,5.90538115 1.66666667,8.04918642 C1.66666667,10.1929917 4.75811812,12.7650395 7.96561379,12.7650395 C11.1263976,12.7650395 14.2645609,10.1172142 14.2645609,8.04918642 C14.2645609,5.98115861 11.1263976,3.33333333 7.96561379,3.33333333 Z M7.96561379,5.16618809 C9.5578498,5.16618809 10.8486121,6.45695041 10.8486121,8.04918642 C10.8486121,9.64142243 9.5578498,10.9321847 7.96561379,10.9321847 C6.37337778,10.9321847 5.08261546,9.64142243 5.08261546,8.04918642 C5.08261546,6.45695041 6.37337778,5.16618809 7.96561379,5.16618809 Z M7.96561379,6.49952142 C7.10975745,6.49952142 6.4159488,7.19333007 6.4159488,8.04918642 C6.4159488,8.90504276 7.10975745,9.59885141 7.96561379,9.59885141 C8.82147014,9.59885141 9.51527879,8.90504276 9.51527879,8.04918642 C9.51527879,7.19333007 8.82147014,6.49952142 7.96561379,6.49952142 Z" id="形状" fill="#000000"></path>
    </g>
</svg>