<svg width="24" height="24" viewBox="0 0 24 24" xmlns="http://www.w3.org/2000/svg"><path d="M11.9484207,3 C17.7260254,3 23.3968414,7.78475101 23.3968414,12.0737796 C23.3968414,16.3628082 17.7260254,21.1475592 11.9484207,21.1475592 C6.10559558,21.1475592 0.5,16.4837759 0.5,12.0737796 C0.5,7.66378337 6.10559558,3 11.9484207,3 Z M11.9484207,5 C7.13717718,5 2.5,8.85807172 2.5,12.0737796 C2.5,15.2894875 7.13717718,19.1475592 11.9484207,19.1475592 C16.6895964,19.1475592 21.3968414,15.1758213 21.3968414,12.0737796 C21.3968414,8.97173792 16.6895964,5 11.9484207,5 Z M11.9484207,7.74928213 C14.3367747,7.74928213 16.2729182,9.68542561 16.2729182,12.0737796 C16.2729182,14.4621336 14.3367747,16.3982771 11.9484207,16.3982771 C9.56006667,16.3982771 7.6239232,14.4621336 7.6239232,12.0737796 C7.6239232,9.68542561 9.56006667,7.74928213 11.9484207,7.74928213 Z M11.9484207,9.74928213 C10.6646362,9.74928213 9.6239232,10.7899951 9.6239232,12.0737796 C9.6239232,13.3575641 10.6646362,14.3982771 11.9484207,14.3982771 C13.2322052,14.3982771 14.2729182,13.3575641 14.2729182,12.0737796 C14.2729182,10.7899951 13.2322052,9.74928213 11.9484207,9.74928213 Z" fill="#000" fill-rule="evenodd"/></svg>