<svg width="22" height="24" viewBox="0 0 22 24" xmlns="http://www.w3.org/2000/svg"><path d="M17.05,0 C18.7206614,0 20.075,1.34314575 20.075,3 L20.075,6.09090909 C21.1381481,6.09090909 22,6.9456382 22,8 L22,8 L22,16.4545455 C22,17.5089072 21.1381481,18.3636364 20.075,18.3636364 L20.075,18.3636364 L20.075,21 C20.075,22.6568542 18.7206614,24 17.05,24 L4.95,24 C3.27933863,24 1.925,22.6568542 1.925,21 L1.925,18.3636364 C0.861851857,18.3636364 8.17124146e-14,17.5089072 8.17124146e-14,16.4545455 L8.17124146e-14,16.4545455 L8.17124146e-14,8 C8.17124146e-14,6.9456382 0.861851857,6.09090909 1.925,6.09090909 L1.925,6.09090909 L1.925,3 C1.925,1.34314575 3.27933863,0 4.95,0 L17.05,0 Z M18.241,18.363 L3.758,18.363 L3.75833333,21 C3.75833333,21.6119064 4.22725385,22.1151957 4.82815901,22.1757166 L4.95,22.1818182 L17.05,22.1818182 C17.6670056,22.1818182 18.174489,21.716773 18.2355142,21.120834 L18.2416667,21 L18.241,18.363 Z M20.075,7.90909091 L1.925,7.90909091 C1.8743739,7.90909091 1.83333333,7.9497923 1.83333333,8 L1.83333333,8 L1.83333333,16.4545455 C1.83333333,16.5047532 1.8743739,16.5454545 1.925,16.5454545 L1.925,16.5454545 L20.075,16.5454545 C20.1256261,16.5454545 20.1666667,16.5047532 20.1666667,16.4545455 L20.1666667,16.4545455 L20.1666667,8 C20.1666667,7.9497923 20.1256261,7.90909091 20.075,7.90909091 L20.075,7.90909091 Z M10.0833333,12.9090909 L10.0833333,14.7272727 L4.58333333,14.7272727 L4.58333333,12.9090909 L10.0833333,12.9090909 Z M16.9583333,9.72727273 L16.9583333,11.5454545 L4.58333333,11.5454545 L4.58333333,9.72727273 L16.9583333,9.72727273 Z M17.05,1.81818182 L4.95,1.81818182 C4.33299438,1.81818182 3.82551102,2.28322696 3.76448577,2.87916596 L3.75833333,3 L3.758,6.09 L18.241,6.09 L18.2416667,3 C18.2416667,2.3880936 17.7727462,1.88480431 17.171841,1.82428341 L17.05,1.81818182 Z" fill="#000" fill-rule="evenodd"/></svg>