<svg width="24" height="24" viewBox="0 0 24 24" xmlns="http://www.w3.org/2000/svg"><path d="m12.455 6.452-9.714 9.869L2 21.057l4.662-.753 9.715-9.869-3.922-3.984v.001zm7.017.84a1.07 1.07 0 0 0 0-1.498L17.025 3.31a1.034 1.034 0 0 0-1.474 0L13.5 5.39l3.922 3.982 2.049-2.082v.001zM12.374 18.96h8.537a1.089 1.089 0 1 1 0 2.177h-8.537a1.089 1.089 0 0 1 0-2.177zm4.286-3.628h4.252a1.088 1.088 0 0 1 0 2.177H16.66a1.088 1.088 0 0 1 0-2.177z" fill="currentColor" stroke="none" stroke-width="1" fill-rule="evenodd"/></svg>