<svg width="24" height="24" viewBox="0 0 24 24" xmlns="http://www.w3.org/2000/svg"><g stroke="none" stroke-width="1" fill="currentColor" fill-rule="evenodd"><path d="M2.89 15.84a.5.5 0 0 0-.139.274l-.644 4.122a.5.5 0 0 0 .573.571l4.042-.653A.5.5 0 0 0 7 20.011L17.062 9.79l-4.11-4.174L2.89 15.841zM20.304 6.496a1.121 1.121 0 0 0 0-1.569l-2.563-2.602a1.083 1.083 0 0 0-1.545 0l-2.148 2.179 4.108 4.171 2.147-2.18.001.001zM12.657 17h8.355a1 1 0 1 0 0-2h-6.355l-2 2zM8.657 21h12.355a1 1 0 1 0 0-2H10.657l-2 2z"/></g></svg>