<svg width="24" height="24" viewBox="0 0 24 24" xmlns="http://www.w3.org/2000/svg"><path d="M19.5,1.5 C21.1568542,1.5 22.5,2.84314575 22.5,4.5 L22.5,16.4210526 L22.191,16.7295 L22.1920624,16.7764337 L22.1445,16.776 L16.4210526,22.5 L4.5,22.5 C2.84314575,22.5 1.5,21.1568542 1.5,19.5 L1.5,4.5 C1.5,2.84314575 2.84314575,1.5 4.5,1.5 L19.5,1.5 Z M19.5,3.5 L4.5,3.5 C3.98716416,3.5 3.56449284,3.88604019 3.50672773,4.38337887 L3.5,4.5 L3.5,19.5 C3.5,20.0128358 3.88604019,20.4355072 4.38337887,20.4932723 L4.5,20.5 L14.3683808,20.4985564 C14.5110459,20.4929226 14.6520513,20.4356463 14.7609702,20.3267275 C14.8426593,20.2450383 14.8952995,20.1453005 14.9188908,20.0403503 L14.934,19.932 L14.9350225,14.9389337 L19.9283808,14.9384814 C20.0710459,14.9328476 20.2120513,14.8755713 20.3209702,14.7666525 C20.4298891,14.6577336 20.4871653,14.5167282 20.4927991,14.3740631 L20.499,14.3655 L20.5,4.5 C20.5,4.02661307 20.1710663,3.63005271 19.7292908,3.52641071 L19.6166211,3.50672773 L19.5,3.5 Z M19.314,16.7745 L16.772,16.776 L16.7715,19.3185 L19.314,16.7745 Z M15.8537725,11.3706815 L15.8537725,13.3706815 L7.83828989,13.3706815 L7.83828989,11.3706815 L15.8537725,11.3706815 Z M15.8537725,7.1821401 L15.8537725,9.1821401 L7.83828989,9.1821401 L7.83828989,7.1821401 L15.8537725,7.1821401 Z" fill="#000" fill-rule="evenodd"/></svg>