<svg width="20" height="24" viewBox="0 0 20 24" fill="none" xmlns="http://www.w3.org/2000/svg"><g clip-path="url(#clip0_1575_80466)" fill="currentColor"><path d="m20.114 3.3-7 7H11.8V8.786l6.9-6.9L20.114 3.3z"/><path fill-rule="evenodd" clip-rule="evenodd" d="m10.308 8.246 6.057-6.057A5.004 5.004 0 0 0 15 2H5a5 5 0 0 0-5 5v10a5 5 0 0 0 5 5h10a5 5 0 0 0 5-5V7c0-.422-.052-.833-.151-1.224l-6.006 6.005-3.535-.106v-3.43zM9.3 11H5V9h4.3v2zm5.7 5H5v-2h10v2z"/></g><defs><clipPath id="clip0_1575_80466"><path fill="currentColor" d="M0 0H20V24H0z"/></clipPath></defs></svg>