<svg width="40" height="40" viewBox="0 0 40 40" fill="none" xmlns="http://www.w3.org/2000/svg"><path d="m27 3.47 3.667 3.666 3.666-3.666 1.697 1.697-3.666 3.666L36.03 12.5l-1.697 1.697-3.667-3.667L27 14.197 25.303 12.5l3.667-3.667-3.667-3.666L27 3.47z" fill="currentColor"/><path d="M11 6.2A4.8 4.8 0 0 0 6.2 11v18a4.8 4.8 0 0 0 4.8 4.8h18a4.8 4.8 0 0 0 4.8-4.8V18.333h2.4V29a7.2 7.2 0 0 1-7.2 7.2H11A7.2 7.2 0 0 1 3.8 29V11A7.2 7.2 0 0 1 11 3.8h10.875v2.4H11z" fill="currentColor"/><path d="M28.333 23.8H11.666v2.4h16.667v-2.4zM11.666 15h11.667v2.4H11.667V15z" fill="currentColor"/></svg>