<?xml version="1.0" encoding="UTF-8"?>
<svg width="14px" height="16px" viewBox="0 0 14 16" version="1.1" xmlns="http://www.w3.org/2000/svg" xmlns:xlink="http://www.w3.org/1999/xlink">
    <!-- Generator: Sketch 64 (93537) - https://sketch.com -->
    <title>file</title>
    <desc>Created with Sketch.</desc>
    <g id="file" stroke="none" stroke-width="1" fill="none" fill-rule="evenodd">
        <path d="M12,1 C13.1045695,1 14,1.8954305 14,3 L14,10.9473684 L13.794,11.153 L13.7947083,11.1842891 L13.763,11.184 L9.94736842,15 L2,15 C0.8954305,15 0,14.1045695 0,13 L0,3 C0,1.8954305 0.8954305,1 2,1 L12,1 Z M12,2.33333333 L2,2.33333333 C1.65810944,2.33333333 1.37632856,2.59069346 1.33781849,2.92225258 L1.33333333,3 L1.33333333,13 C1.33333333,13.3418906 1.59069346,13.6236714 1.92225258,13.6621815 L2,13.6666667 L8.57892054,13.6657042 C8.6740306,13.6619484 8.76803422,13.6237642 8.84064679,13.5511517 C8.89510622,13.4966922 8.93019969,13.4302003 8.9459272,13.3602335 L8.956,13.288 L8.95668166,9.9592891 L12.2855872,9.95898757 C12.3806973,9.95523175 12.4747009,9.91704755 12.5473135,9.84443498 C12.619926,9.7718224 12.6581102,9.67781878 12.6618661,9.58270872 L12.666,9.577 L12.6666667,3 C12.6666667,2.68440871 12.4473776,2.42003514 12.1528606,2.35094048 L12.0777474,2.33781849 L12,2.33333333 Z M11.876,11.183 L10.1813333,11.184 L10.181,12.879 L11.876,11.183 Z M9.56918166,7.58045432 L9.56918166,8.91378765 L4.22552659,8.91378765 L4.22552659,7.58045432 L9.56918166,7.58045432 Z M9.56918166,4.7880934 L9.56918166,6.12142674 L4.22552659,6.12142674 L4.22552659,4.7880934 L9.56918166,4.7880934 Z" id="形状" fill="#000000"></path>
    </g>
</svg>