<svg width="20" height="24" viewBox="0 0 20 24" fill="none" xmlns="http://www.w3.org/2000/svg"><g clip-path="url(#clip0_1575_80655)" fill="currentColor"><path d="m20.114 3.3-7 7H11.8V8.786l6.9-6.9L20.114 3.3z"/><path d="m16.553 2-2 2H5a3 3 0 0 0-3 3v10a3 3 0 0 0 3 3h10a3 3 0 0 0 3-3V7.625l2-2V17a5 5 0 0 1-5 5H5a5 5 0 0 1-5-5V7a5 5 0 0 1 5-5h11.553z"/><path d="M5 11h4.3V9H5v2zM5 16v-2h10v2H5z"/></g><defs><clipPath id="clip0_1575_80655"><path fill="currentColor" d="M0 0H20V24H0z"/></clipPath></defs></svg>