<svg width="24" height="24" viewBox="0 0 24 24" xmlns="http://www.w3.org/2000/svg"><path d="M16.074,1.5 L14.391,3.408 L5.7,3.40800443 C4.46288216,3.40800443 3.46,4.38428178 3.46,5.58858093 L3.46,18.4114191 C3.46,19.6157182 4.46288216,20.5919956 5.7,20.5919956 L18.3,20.5919956 C19.5371178,20.5919956 20.54,19.6157182 20.54,18.4114191 L20.54,8.656 L22.5,6.434 L22.5,18.4114191 C22.5,20.66948 20.6195959,22.5 18.3,22.5 L5.7,22.5 C3.38040405,22.5 1.5,20.66948 1.5,18.4114191 L1.5,5.58858093 C1.5,3.33052003 3.38040405,1.5 5.7,1.5 L16.074,1.5 Z M17,15 L17,17 L7,17 L7,15 L17,15 Z M17,10 L17,12 L7,12 L7,10 L17,10 Z M22.1277163,1.26177187 C22.4603189,1.58691634 22.4935779,2.10278695 22.2235997,2.46598602 L22.1424481,2.56099706 L16.63,8.199 L15.3,8.2 L15.3,6.931 L20.8284911,1.27650368 C21.1831941,0.913664472 21.7648771,0.907068818 22.1277163,1.26177187 Z" fill="#000" fill-rule="evenodd"/></svg>