<svg width="40" height="40" viewBox="0 0 40 40" xmlns="http://www.w3.org/2000/svg"><path d="M23.7333918,4 L23.7333918,6 L4.63243243,6 C3.22919842,6 2.09065959,7.05782298 2.00515547,8.38264724 L2,8.54285714 L2,32.4571429 C2,33.8020619 3.08456829,34.9116125 4.46536534,34.9949731 L4.63243243,35 L30.9675676,35 C32.3708016,35 33.5093404,33.942177 33.5948445,32.6173528 L33.6,32.4571429 L33.6,15.3 L35.6,15.3 L35.6,32.4571429 C35.6,34.8999128 33.6376105,36.8837035 31.1851917,36.9950688 L30.9675676,37 L4.63243243,37 C2.15246204,37 0.119216253,35.0860028 0.00505524546,32.6714543 L0,32.4571429 L0,8.54285714 C0,6.10008718 1.96238949,4.11629653 4.4148083,4.00493116 L4.63243243,4 L23.7333918,4 Z M27.5681818,27.5 L27.5681818,29.5 L7.43181818,29.5 L7.43181818,27.5 L27.5681818,27.5 Z M27.5681818,19.5 L27.5681818,21.5 L7.43181818,21.5 L7.43181818,19.5 L27.5681818,19.5 Z M27.5681818,12.5 L27.5681818,14.5 L7.43181818,14.5 L7.43181818,12.5 L27.5681818,12.5 Z M38.2022006,0.216919198 L39.6164141,1.63113276 L36.081,5.1669192 L39.6164141,8.70220057 L38.2022006,10.1164141 L34.666,6.5809192 L31.1311328,10.1164141 L29.7169192,8.70220057 L33.252,5.1669192 L29.7169192,1.63113276 L31.1311328,0.216919198 L34.666,3.7519192 L38.2022006,0.216919198 Z" fill="#000" fill-rule="evenodd"/></svg>