<svg width="24" height="24" viewBox="0 0 24 24" xmlns="http://www.w3.org/2000/svg"><path d="M18.7857143,1.5 C20.7708853,1.5 22.3923092,3.05738618 22.4948515,5.01702389 L22.5,5.21428571 L22.5,13 L20.5,13 L20.5,5.21428571 C20.5,4.31734206 19.8111528,3.58128729 18.9336294,3.50629245 L18.7857143,3.5 L5.21428571,3.5 C4.31734206,3.5 3.58128729,4.18884721 3.50629245,5.06637058 L3.5,5.21428571 L3.5,18.7857143 C3.5,19.6826579 4.18884721,20.4187127 5.06637058,20.4937075 L5.21428571,20.5 L13,20.5 L13,22.5 L5.21428571,22.5 C3.22911472,22.5 1.60769077,20.9426138 1.5051485,18.9829761 L1.5,18.7857143 L1.5,5.21428571 C1.5,3.22911472 3.05738618,1.60769077 5.01702389,1.5051485 L5.21428571,1.5 L18.7857143,1.5 Z M19.5,14.5 L19.5,17.5 L22.5,17.5 L22.5,19.5 L19.5,19.5 L19.5,22.5 L17.5,22.5 L17.5,19.5 L14.5,19.5 L14.5,17.5 L17.5,17.5 L17.5,14.5 L19.5,14.5 Z M17,11.5 L17,13.5 L7,13.5 L7,11.5 L17,11.5 Z M17,6.5 L17,8.5 L7,8.5 L7,6.5 L17,6.5 Z" fill="#000" fill-rule="evenodd"/></svg>