<svg width="16" height="16" viewBox="0 0 16 16" fill="none" xmlns="http://www.w3.org/2000/svg"><g clip-path="url(#clip0_8501_7989)"><path d="M9.204 1.333a4 4 0 0 0 4.797 5.771v6.229a2 2 0 0 1-2 2H2.668a2 2 0 0 1-2-2V12h10.667v1.333a.667.667 0 1 0 1.333 0v-2.667H2.001V3.533a2.2 2.2 0 0 1 2.2-2.2h5.003zM3.5 7.334h4.974v-1H3.5v1zm9.748-5.96c.253.609.724 1.096 1.316 1.36l.769.341v.594l-.794.353a2.55 2.55 0 0 0-1.297 1.316L12.953 6h-.573l-.29-.662a2.549 2.549 0 0 0-1.295-1.316L10 3.67v-.594l.77-.342a2.553 2.553 0 0 0 1.315-1.36l.293-.706h.578l.292.706zM3.5 4.8h2.974v-1H3.5v1z" fill="currentColor"/></g><defs><clipPath id="clip0_8501_7989"><path fill="currentColor" d="M0 0H16V16H0z"/></clipPath></defs></svg>