<svg width="22" height="24" viewBox="0 0 22 24" fill="none" xmlns="http://www.w3.org/2000/svg"><path fill-rule="evenodd" clip-rule="evenodd" d="M18.72 9.697A5 5 0 1 1 15.28.304a5 5 0 0 1 3.438 9.393zm-2.92-7.04 1.3 1.3 1.3-1.3L19.744 4l-1.3 1.3 1.3 1.3L18.4 7.944l-1.3-1.3-1.3 1.3L14.457 6.6l1.3-1.3-1.3-1.3L15.8 2.656z" fill="currentColor"/><path fill-rule="evenodd" clip-rule="evenodd" d="M17 11.667A6.667 6.667 0 0 1 11.666 1H5a5 5 0 0 0-5 5v12a5 5 0 0 0 5 5h10a5 5 0 0 0 5-5v-7.045a6.639 6.639 0 0 1-3 .712zM5 13h5v-2H5v2zm0 3v2h10v-2H5z" fill="currentColor"/></svg>