<svg width="22" height="24" viewBox="0 0 22 24" xmlns="http://www.w3.org/2000/svg"><path d="M19,1.5 C20.6568542,1.5 22,2.84314575 22,4.5 L22,19.5 C22,21.1568542 20.6568542,22.5 19,22.5 L3,22.5 C1.34314575,22.5 0,21.1568542 0,19.5 L0,4.5 C0,2.84314575 1.34314575,1.5 3,1.5 L19,1.5 Z M5,16.5 L2,16.5 L2,19.5 C2,20.0128358 2.38604019,20.4355072 2.88337887,20.4932723 L3,20.5 L5,20.5 L5,16.5 Z M10,16.5 L7,16.5 L7,20.5 L10,20.5 L10,16.5 Z M15,16.5 L12,16.5 L12,20.5 L15,20.5 L15,16.5 Z M20,16.5 L17,16.5 L17,20.5 L19,20.5 C19.5128358,20.5 19.9355072,20.1139598 19.9932723,19.6166211 L20,19.5 L20,16.5 Z M20,9 L2,9 L2,14.5 L20,14.5 L20,9 Z M5,3.5 L3,3.5 C2.48716416,3.5 2.06449284,3.88604019 2.00672773,4.38337887 L2,4.5 L2,7 L5,7 L5,3.5 Z M10,3.5 L7,3.5 L7,7 L10,7 L10,3.5 Z M15,3.5 L12,3.5 L12,7 L15,7 L15,3.5 Z M19,3.5 L17,3.5 L17,7 L20,7 L20,4.5 C20,3.98716416 19.6139598,3.56449284 19.1166211,3.50672773 L19,3.5 Z" fill="currentColor" fill-rule="evenodd"/></svg>