<svg width="24" height="24" viewBox="0 0 24 24" fill="none" xmlns="http://www.w3.org/2000/svg"><path fill-rule="evenodd" clip-rule="evenodd" d="M4.057 3.5a.374.374 0 0 0-.284.617L9.7 11.045v9.203c0 .162.19.247.311.14l4.175-3.71a.936.936 0 0 0 .314-.7v-5.062l5.816-6.799a.374.374 0 0 0-.284-.617H4.057z" fill="currentColor"/><path d="m3.773 4.117.76-.65-.76.65zM9.7 11.045h1v-.369l-.24-.28-.76.65zm.311 9.343.665.748-.665-.748zm4.175-3.71-.664-.747.664.747zm.314-5.762-.76-.65-.24.28v.37h1zm5.816-6.799-.76-.65.76.65zm-15.783-.65A.626.626 0 0 1 4.057 4.5v-2c-1.173 0-1.807 1.376-1.044 2.268l1.52-1.3zm5.927 6.928L4.533 3.467l-1.52 1.3 5.927 6.928 1.52-1.3zm.24 9.853v-9.203h-2v9.203h2zm-1.353-.607a.813.813 0 0 1 1.353.607h-2c0 1.024 1.21 1.568 1.976.888L9.347 19.64zm4.175-3.71-4.175 3.71 1.329 1.495 4.174-3.71-1.328-1.495zm-.022.048c0-.019.008-.036.022-.048l1.328 1.495c.413-.368.65-.894.65-1.447h-2zm0-5.063v5.063h2v-5.063h-2zm6.056-7.449-5.816 6.799 1.52 1.3 5.816-6.798-1.52-1.3zm.476 1.033a.626.626 0 0 1-.476-1.033l1.52 1.3c.763-.891.13-2.267-1.044-2.267v2zm-15.975 0h15.975v-2H4.057v2z" fill="currentColor"/></svg>