<svg width="24" height="24" viewBox="0 0 24 24" xmlns="http://www.w3.org/2000/svg"><path d="M20.1858652,2 L3.81415059,2 C3.32970429,2 2.86172436,2.1758365 2.49714137,2.49484661 L2.34086636,2.64718131 C1.65824388,3.38875963 1.63012403,4.54115417 2.3089972,5.31700922 L8.691,12.609 L8.69120223,20.2106347 C8.69120223,20.7410677 8.90191591,21.2497755 9.27698867,21.6248483 C10.0580373,22.4058968 11.3243672,22.4058968 12.1054158,21.6248483 L14.1372407,19.5930233 L14.3336062,19.3819798 C14.9605265,18.6575341 15.3088136,17.7290198 15.3088136,16.7645962 L15.3075,12.609 L21.6910186,5.31700922 C22.0100287,4.95242623 22.1858652,4.48444629 22.1858652,4 C22.1858652,2.8954305 21.2904347,2 20.1858652,2 Z M3.81415059,4 L20.1858652,4 L13.3088136,11.8594876 L13.3088136,16.7645962 C13.3088136,17.2950292 13.0980999,17.803737 12.7230271,18.1788098 L10.6912022,20.2106347 L10.6912022,11.8594876 L3.81415059,4 Z" fill="#000" fill-rule="evenodd"/></svg>