<?xml version="1.0" encoding="UTF-8"?>
<svg width="14px" height="16px" viewBox="0 0 14 16" version="1.1" xmlns="http://www.w3.org/2000/svg" xmlns:xlink="http://www.w3.org/1999/xlink">
    <!-- Generator: Sketch 64 (93537) - https://sketch.com -->
    <title>filter</title>
    <desc>Created with Sketch.</desc>
    <g id="filter" stroke="none" stroke-width="1" fill="none" fill-rule="evenodd">
        <path d="M12.6255471,1.5 L1.37447174,1.5 C1.04154743,1.5 0.71993924,1.61310256 0.469388166,1.81829807 L0.361991843,1.91628366 C-0.107124381,2.39328591 -0.126449083,3.13453571 0.340090513,3.63358563 L4.72597165,8.32398163 L4.72611063,13.2135486 C4.72611063,13.5547367 4.87091865,13.8819507 5.12867857,14.1232071 C5.66543581,14.6255976 6.53569126,14.6255976 7.0724485,14.1232071 L8.46877233,12.8162851 L8.60371986,12.6805364 C9.03455611,12.2145543 9.2739082,11.6173101 9.2739082,10.996968 L9.27300547,8.32398163 L13.6599283,3.63358563 C13.8791605,3.39907648 14,3.09805975 14,2.78645143 C14,2.07596393 13.3846365,1.5 12.6255471,1.5 Z M1.37447174,2.78645143 L12.6255471,2.78645143 L7.8994553,7.84187598 L7.8994553,10.996968 C7.8994553,11.3381561 7.75464728,11.6653701 7.49688736,11.9066265 L6.10056353,13.2135486 L6.10056353,7.84187598 L1.37447174,2.78645143 Z" id="形状结合" fill="#000000"></path>
    </g>
</svg>