<?xml version="1.0" encoding="UTF-8"?>
<svg width="14px" height="16px" viewBox="0 0 14 16" version="1.1" xmlns="http://www.w3.org/2000/svg" xmlns:xlink="http://www.w3.org/1999/xlink">
    <!-- Generator: Sketch 64 (93537) - https://sketch.com -->
    <title>flag</title>
    <desc>Created with Sketch.</desc>
    <g id="flag" stroke="none" stroke-width="1" fill="none" fill-rule="evenodd">
        <path d="M1.28115002,1 L1.965,1.004 L1.96522146,1.00370813 L12.2961152,1.00370813 C13.1633637,1.00370813 13.8754939,1.65282047 13.9410406,2.47911468 L13.9458829,2.58785821 L13.9999252,7.98501415 C14.0081639,8.83303019 13.3344168,9.53327079 12.4685355,9.59559135 L12.3593351,9.60002347 L3.12,9.6 C3.00380861,9.636022 2.90590077,9.68876353 2.82635327,9.75994064 L2.75292589,9.83726294 C2.66975772,9.94039949 2.61923016,10.0763104 2.60134324,10.2449956 L2.60134324,10.2449956 L2.595,10.244 L2.576,13.673 L3.6935383,13.6734676 L3.6935383,15 L2.04281037e-14,15 L2.04281037e-14,13.6734676 L1.207,13.673 L1.28115002,1 Z M12.2961152,2.33024058 L2.641,2.33 L2.607,8.273 L12.3526566,8.27352263 C12.488819,8.27223371 12.6015084,8.1775048 12.6265628,8.0528297 L12.6317479,7.99774919 L12.5777829,2.60070709 C12.5764745,2.46963552 12.4800965,2.36086328 12.3525165,2.33571821 L12.2961152,2.33024058 Z" id="形状结合" fill="#000000"></path>
    </g>
</svg>