<svg width="24" height="24" viewBox="0 0 24 24" xmlns="http://www.w3.org/2000/svg"><path d="M4.00001563,1.49440929 L5,1.5 L20.1018327,1.5 C21.3695876,1.5 22.4105887,2.47866033 22.5064056,3.72445602 L22.5134843,3.88840758 L22.592484,12.0256468 C22.6045274,13.3041923 21.6196352,14.3599382 20.3538788,14.4538983 L20.1942483,14.4605806 L6.68721413,14.4604093 C6.50688917,14.5183034 6.35613328,14.605099 6.23591465,14.7235193 L6.15147642,14.8182642 C6.02990012,14.9737622 5.95603829,15.1786737 5.92989095,15.4329988 L5.92989095,15.4329988 L5.92121413,15.4324093 L5.89221413,20.6014093 L7.52647567,20.6020724 L7.52647567,22.6020724 L2.12721413,22.6020724 L2.12721413,20.6020724 L3.89221413,20.6014093 L4.00001563,1.49440929 Z M20.1018327,3.5 L5.98821413,3.49940929 L5.93821413,12.4604093 L20.1844856,12.4606282 C20.3835295,12.4586849 20.5482603,12.3158631 20.5848852,12.1278916 L20.5924649,12.0448473 L20.5135781,3.90777971 C20.5116655,3.71016439 20.3707788,3.54616954 20.1842808,3.50825857 L20.1018327,3.5 Z" fill="#000" fill-rule="evenodd"/></svg>