<svg width="24" height="24" viewBox="0 0 24 24" xmlns="http://www.w3.org/2000/svg"><path d="M3.39473684,3 L8.76289987,3 L11.894,6.5 L18.6052632,6.5 C19.6292545,6.5 20.4247561,7.33706902 20.4949587,8.35362737 L20.5,8.5 L20.5,9.5 L22.7626029,9.5 L20.494,19.138 C20.428099,20.1145234 19.7033719,20.9198721 18.7499396,20.9943767 L18.6052632,21 L3.39473684,21 C2.37074548,21 1.57524393,20.162931 1.5050413,19.1463726 L1.5,19 L1.5,5 C1.5,3.96783854 2.24895649,3.08385309 3.25006036,3.00562334 L3.39473684,3 Z M20.237,11.5 L6.811,11.5 L5.232,19 L18.5,19 L18.5,18.8839377 L20.237,11.5 Z M18.5,8.5 L11.000258,8.5 L7.869,5 L3.5,5 L3.5,17.518 L5.1886059,9.5 L18.5,9.5 L18.5,8.5 Z" fill="#000" fill-rule="evenodd"/></svg>