<svg width="24" height="24" viewBox="0 0 24 24" fill="none" xmlns="http://www.w3.org/2000/svg"><path fill-rule="evenodd" clip-rule="evenodd" d="M5.336 4A1.836 1.836 0 0 0 3.5 5.836V17.5a3 3 0 0 0 3 3h11a3 3 0 0 0 3-3V9.982a2.152 2.152 0 0 0-2.152-2.152h-4.983a1.8 1.8 0 0 1-1.359-.62L9.514 4.345A1 1 0 0 0 8.76 4H5.336zM1.5 5.836A3.836 3.836 0 0 1 5.336 2H8.76a3 3 0 0 1 2.264 1.032l2.432 2.798h4.892A4.152 4.152 0 0 1 22.5 9.982V17.5a5 5 0 0 1-5 5h-11a5 5 0 0 1-5-5V5.836z" fill="currentColor"/></svg>