<?xml version="1.0" encoding="UTF-8"?>
<svg width="14px" height="16px" viewBox="0 0 14 16" version="1.1" xmlns="http://www.w3.org/2000/svg" xmlns:xlink="http://www.w3.org/1999/xlink">
    <!-- Generator: Sketch 64 (93537) - https://sketch.com -->
    <title>folder-open</title>
    <desc>Created with Sketch.</desc>
    <g id="folder-open" stroke="none" stroke-width="1" fill="none" fill-rule="evenodd">
        <path d="M1.24755732,2 L4.78213315,2 L6.84375289,4.33333333 L11.2626702,4.33333333 C11.9368999,4.33333333 12.4606844,4.89137934 12.5069082,5.56908491 L12.5102275,5.66666667 L12.5102275,6.33333333 L14,6.33333333 L12.5062769,12.7586667 C12.4628856,13.4096823 11.9857013,13.9465814 11.35793,13.9962511 L11.2626702,14 L1.24755732,14 C0.573327586,14 0.0495430918,13.441954 0.00331935631,12.7642484 L0,12.6666667 L0,3.33333333 C0,2.64522569 0.493137688,2.05590206 1.15229754,2.00374889 L1.24755732,2 Z M12.3370596,7.66666667 L3.49693781,7.66666667 L2.45727206,12.6666667 L11.1933615,12.6666667 L11.1933615,12.5892918 L12.3370596,7.66666667 Z M11.1933615,5.66666667 L6.25528365,5.66666667 L4.19355995,3.33333333 L1.31686606,3.33333333 L1.31686606,11.6786667 L2.42869995,6.33333333 L11.1933615,6.33333333 L11.1933615,5.66666667 Z" id="路径" fill="#000000"></path>
    </g>
</svg>