<svg width="24" height="24" viewBox="0 0 24 24" fill="none" xmlns="http://www.w3.org/2000/svg"><path d="M1.127 5 2.4 6.273l1.6-1.6v14.454l-1.6-1.6L1.127 18.8l2.783 2.783a1.4 1.4 0 0 0 1.98 0L8.673 18.8 7.4 17.527l-1.6 1.6V4.673l1.6 1.6L8.673 5 5.89 2.217a1.4 1.4 0 0 0-1.98 0L1.127 5z" fill="currentColor"/><path fill-rule="evenodd" clip-rule="evenodd" d="m8.6 21.2 5.875-18.4h2.65L23 21.2h-2.5l-1.431-4.742h-6.56L11.08 21.2h-2.48zm7.157-15.385-2.542 8.324h5.149l-2.521-8.324h-.086z" fill="currentColor"/></svg>