<svg width="24" height="24" viewBox="0 0 24 24" fill="none" xmlns="http://www.w3.org/2000/svg"><path fill-rule="evenodd" clip-rule="evenodd" d="M1.8 11.135A9.535 9.535 0 0 1 11.335 1.6c.17 0 .309.138.309.309v7.615c0 1.06-.86 1.92-1.92 1.92H2.109a.309.309 0 0 1-.31-.31zm2.09-1.611A7.625 7.625 0 0 1 9.725 3.69v5.833H3.89zM12.956 1.793c0-.107.087-.193.193-.193 5.33 0 9.65 4.32 9.65 9.65a.193.193 0 0 1-.192.194h-7.73a1.92 1.92 0 0 1-1.92-1.92V1.793zm1.92 1.92a7.742 7.742 0 0 1 5.81 5.81h-5.81v-5.81zM1.993 12.756a.193.193 0 0 0-.193.193 9.65 9.65 0 0 0 9.65 9.651.193.193 0 0 0 .194-.193v-7.73c0-1.061-.86-1.92-1.92-1.92H1.993zm1.92 1.92a7.742 7.742 0 0 0 5.81 5.81v-5.81h-5.81zM22.654 14.583c-.005.03-.01.062-.017.093-.832 4.492-4.763 7.924-9.488 7.924a.193.193 0 0 1-.193-.193v-7.73c0-1.061.86-1.92 1.92-1.92h7.778c.08 0 .146.065.146.145a9.74 9.74 0 0 1-.146 1.68zm-7.778.093h5.8c-.671 2.875-2.937 5.146-5.8 5.808v-5.808z" fill="currentColor"/></svg>