<svg width="22" height="24" viewBox="0 0 22 24" fill="none" xmlns="http://www.w3.org/2000/svg"><path fill-rule="evenodd" clip-rule="evenodd" d="M0 12C0 5.925 4.925 1 11 1s11 4.925 11 11-4.925 11-11 11S0 18.075 0 12zm8.8-2.1a1.5 1.5 0 1 1-3 0 1.5 1.5 0 0 1 3 0zm7.5 0a1.5 1.5 0 1 1-3 0 1.5 1.5 0 0 1 3 0zm-9.656 8.028a1 1 0 0 0 1.341-.447c.382-.763 1.287-1.781 3.016-1.781 1.774 0 2.838 1.067 3.196 1.78a1 1 0 0 0 1.789-.893C15.342 15.3 13.643 13.7 11 13.7c-2.69 0-4.185 1.65-4.803 2.887a1 1 0 0 0 .447 1.341z" fill="currentColor"/></svg>