<svg width="22" height="24" viewBox="0 0 22 24" fill="none" xmlns="http://www.w3.org/2000/svg"><path d="M7.3 11.4a1.5 1.5 0 1 0 0-3 1.5 1.5 0 0 0 0 3zM16.3 9.9a1.5 1.5 0 1 1-3 0 1.5 1.5 0 0 1 3 0zM7.985 17.48a1 1 0 1 1-1.788-.893C6.815 15.35 8.31 13.7 11 13.7c2.643 0 4.342 1.601 4.985 2.887a1 1 0 1 1-1.79.894c-.357-.715-1.421-1.781-3.195-1.781-1.729 0-2.634 1.018-3.016 1.78z" fill="currentColor"/><path fill-rule="evenodd" clip-rule="evenodd" d="M11 1C4.925 1 0 5.925 0 12s4.925 11 11 11 11-4.925 11-11S17.075 1 11 1zM2 12a9 9 0 1 1 18 0 9 9 0 0 1-18 0z" fill="currentColor"/></svg>