<svg width="24" height="24" viewBox="0 0 24 24" xmlns="http://www.w3.org/2000/svg"><g fill="currentColor" fill-rule="nonzero"><path d="M12,1 C18.0751322,1 23,5.92486775 23,12 C23,18.0751322 18.0751322,23 12,23 C5.92486775,23 1,18.0751322 1,12 C1,5.92486775 5.92486775,1 12,1 Z M12,3 C7.02943725,3 3,7.02943725 3,12 C3,16.9705627 7.02943725,21 12,21 C16.9705627,21 21,16.9705627 21,12 C21,7.02943725 16.9705627,3 12,3 Z"/><path d="M12.376,8.852 L12.376,8.124 L14.157,8.124 L14.157,8.839 L15.47,8.839 L15.47,8.124 L17.394,8.124 L17.394,6.85 L15.47,6.85 L15.47,5.966 L14.157,5.966 L14.157,6.85 L12.376,6.85 L12.376,5.966 L11.05,5.966 L11.05,6.85 L9.256,6.85 L9.256,8.124 L11.05,8.124 L11.05,8.852 L12.376,8.852 Z M7.93,8.878 L8.892,7.903 C8.346,7.266 7.683,6.629 6.89,5.992 L5.928,6.928 C6.786,7.63 7.462,8.28 7.93,8.878 Z M7.787,12.037 L8.749,11.075 C8.151,10.438 7.423,9.801 6.552,9.164 L5.59,10.1 C6.552,10.789 7.28,11.439 7.787,12.037 Z M13.988,11.478 L12.649,11.478 L12.649,10.451 L13.988,10.451 L13.988,11.478 Z M10.569,15.326 L10.569,12.648 L11.492,12.648 C11.401,13.61 11.089,14.507 10.569,15.326 Z M7.085,17.822 C7.787,16.366 8.411,14.806 8.97,13.142 L7.774,12.674 C7.228,14.234 6.578,15.755 5.824,17.263 L7.085,17.822 Z M14.898,14.222 C15.054,14.559 15.236,14.962 15.444,15.456 L16.042,14.559 C15.717,14.065 15.392,13.623 15.067,13.207 L15.106,12.648 L16.081,12.648 L16.081,16.21 C16.081,16.522 15.938,16.691 15.678,16.691 L14.69,16.626 L15.028,17.809 L16.055,17.809 C16.887,17.809 17.303,17.367 17.303,16.483 L17.303,11.478 L15.106,11.478 L15.106,10.451 L17.589,10.451 L17.589,9.203 L8.944,9.203 L8.944,10.451 L11.531,10.451 L11.531,11.478 L9.347,11.478 L9.347,17.887 L10.569,17.887 L10.569,15.638 L11.323,16.288 C11.817,15.586 12.168,14.832 12.389,14.013 C12.545,14.299 12.727,14.676 12.935,15.118 L13.533,14.221 C13.208,13.779 12.896,13.376 12.584,13.012 L12.623,12.648 L13.975,12.648 C13.923,13.987 13.494,15.183 12.675,16.236 L13.559,17.003 C14.1252222,16.2518889 14.5373704,15.4391481 14.8045748,14.5556475 L14.898,14.222 Z"/></g></svg>