<svg width="22" height="24" viewBox="0 0 22 24" fill="none" xmlns="http://www.w3.org/2000/svg"><path d="M14.987 12.832v1.328a21.107 21.107 0 0 0-.71-.966l.025-.362h.685zM12.873 12.832c-.027.44-.097.864-.21 1.272a20.85 20.85 0 0 0-.867-1.106l.018-.166h1.06zM11.855 11.362v-.727h1.039v.727h-1.039zM9.775 14.798v-1.966h.606a5.806 5.806 0 0 1-.606 1.966z" fill="currentColor"/><path fill-rule="evenodd" clip-rule="evenodd" d="M0 12C0 5.925 4.925 1 11 1s11 4.925 11 11-4.925 11-11 11S0 18.075 0 12zm5.994-6.091-.103-.083-1.178 1.146.13.106c.854.699 1.52 1.34 1.979 1.926l.105.135 1.179-1.195-.09-.105a15.117 15.117 0 0 0-2.022-1.93zm5.588-.059H9.956v.884H8.162v1.574h1.794v.728h1.626v-.728h1.481v.715h1.613v-.715H16.6V6.734h-1.924V5.85h-1.613v.884h-1.481V5.85zM5.548 9.002l.103.075a15.915 15.915 0 0 1 2.217 1.93l.1.105-1.18 1.18-.105-.124c-.497-.586-1.215-1.228-2.17-1.912l-.146-.104 1.181-1.15zm11.247.085H7.85v1.548h2.587v.727H8.253v6.709h1.522v-2.072l.631.545.096-.136a7.276 7.276 0 0 0 .981-1.963c.113.223.237.482.372.77l.113.241.483-.724a6.02 6.02 0 0 1-.838 1.446l-.088.112 1.113.966.097-.129c.565-.749.98-1.56 1.252-2.438.114.252.239.536.375.86l.108.256.517-.775v1.214c0 .136-.031.216-.069.261-.033.04-.087.069-.18.07l-1.195-.079.428 1.497h1.14c.441 0 .8-.118 1.045-.379.244-.259.353-.634.353-1.097v-5.155h-2.197v-.727h2.483V9.087zM6.694 12.512l1.474.576-.046.136A40.508 40.508 0 0 1 6.23 17.92l-.063.131-1.537-.682.07-.14a39.02 39.02 0 0 0 1.942-4.572l.052-.146z" fill="currentColor"/></svg>