<svg width="24" height="24" viewBox="0 0 24 24" fill="none" xmlns="http://www.w3.org/2000/svg"><path d="M7.227 19.278a2.6 2.6 0 0 0 3.15 2.541l4.98-1.076a2.4 2.4 0 0 0 1.893-2.346V5.604a2.4 2.4 0 0 0-1.893-2.346l-4.98-1.077a2.6 2.6 0 0 0-3.15 2.541v14.556zM1.5 17.017c0 .33.14.646.386.867L3.65 19.47c.644.579 1.67.122 1.67-.744V4.891c0-.866-1.026-1.323-1.67-.744L1.886 5.734a1.167 1.167 0 0 0-.386.867v10.416zM22.5 8.131c0-.38-.185-.736-.496-.954l-1.747-1.229a1 1 0 0 0-1.575.818v10.467a1 1 0 0 0 1.575.818l1.747-1.228c.311-.219.496-.575.496-.955V8.131z" fill="currentColor"/></svg>