<svg width="24" height="24" viewBox="0 0 24 24" fill="none" xmlns="http://www.w3.org/2000/svg"><path fill-rule="evenodd" clip-rule="evenodd" d="M8.355 20A3.502 3.502 0 0 1 1.5 19 3.502 3.502 0 0 1 4 15.645v-7.29A3.502 3.502 0 0 1 5 1.5 3.502 3.502 0 0 1 8.355 4h7.29A3.502 3.502 0 0 1 22.5 5 3.502 3.502 0 0 1 20 8.355v7.29a3.502 3.502 0 0 1-1 6.855 3.502 3.502 0 0 1-3.355-2.5h-7.29zM6.5 5a1.5 1.5 0 1 1-3 0 1.5 1.5 0 0 1 3 0zM6 8.355A3.508 3.508 0 0 0 8.355 6h7.29A3.508 3.508 0 0 0 18 8.355v7.29A3.508 3.508 0 0 0 15.645 18h-7.29A3.508 3.508 0 0 0 6 15.645v-7.29zM6.5 19a1.5 1.5 0 1 1-3 0 1.5 1.5 0 0 1 3 0zM19 6.5a1.5 1.5 0 1 0 0-3 1.5 1.5 0 0 0 0 3zM20.5 19a1.5 1.5 0 1 1-3 0 1.5 1.5 0 0 1 3 0z" fill="currentColor"/></svg>