<svg width="24" height="24" viewBox="0 0 24 24" xmlns="http://www.w3.org/2000/svg"><path d="M19,1.5 C20.9329966,1.5 22.5,3.06700338 22.5,5 C22.5,6.58520367 21.4461522,7.92426801 20.0008388,8.35481091 L20.0008388,15.6451891 C21.4461522,16.075732 22.5,17.4147963 22.5,19 C22.5,20.9329966 20.9329966,22.5 19,22.5 C17.4147963,22.5 16.075732,21.4461522 15.6451891,20.0008388 L8.35481091,20.0008388 C7.92426801,21.4461522 6.58520367,22.5 5,22.5 C3.06700338,22.5 1.5,20.9329966 1.5,19 C1.5,17.4144302 2.55433459,16.0751135 4.00016263,15.6448909 L4.00016263,8.35510906 C2.55433459,7.9248865 1.5,6.58556977 1.5,5 C1.5,3.06700338 3.06700338,1.5 5,1.5 C6.58556977,1.5 7.9248865,2.55433459 8.35510906,4.00016263 L15.6448909,4.00016263 C16.0751135,2.55433459 17.4144302,1.5 19,1.5 Z M5,17.3 C4.06111593,17.3 3.3,18.0611159 3.3,19 C3.3,19.9388841 4.06111593,20.7 5,20.7 C5.93888407,20.7 6.7,19.9388841 6.7,19 C6.7,18.0611159 5.93888407,17.3 5,17.3 Z M19,17.3 C18.0611159,17.3 17.3,18.0611159 17.3,19 C17.3,19.9388841 18.0611159,20.7 19,20.7 C19.9388841,20.7 20.7,19.9388841 20.7,19 C20.7,18.0611159 19.9388841,17.3 19,17.3 Z M15.6451891,6.0008388 L8.35481091,6.0008388 C8.01872892,7.12905113 7.12905113,8.01872892 6.0008388,8.35481091 L6.0008388,15.6451891 C7.12938492,15.9813705 8.01925534,16.8714754 8.35510906,18.0001626 L15.6448909,18.0001626 C15.980844,16.8711415 16.8711415,15.980844 18.0001626,15.6448909 L18.0001626,8.35510906 C16.8714754,8.01925534 15.9813705,7.12938492 15.6451891,6.0008388 Z M5,3.3 C4.06111593,3.3 3.3,4.06111593 3.3,5 C3.3,5.93888407 4.06111593,6.7 5,6.7 C5.93888407,6.7 6.7,5.93888407 6.7,5 C6.7,4.06111593 5.93888407,3.3 5,3.3 Z M19,3.3 C18.0611159,3.3 17.3,4.06111593 17.3,5 C17.3,5.93888407 18.0611159,6.7 19,6.7 C19.9388841,6.7 20.7,5.93888407 20.7,5 C20.7,4.06111593 19.9388841,3.3 19,3.3 Z" fill="#000" fill-rule="evenodd"/></svg>