<svg width="22" height="24" viewBox="0 0 22 24" fill="none" xmlns="http://www.w3.org/2000/svg"><path fill-rule="evenodd" clip-rule="evenodd" d="M7.355 4A3.502 3.502 0 0 0 .5 5 3.502 3.502 0 0 0 3 8.355v7.29A3.502 3.502 0 0 0 4 22.5 3.502 3.502 0 0 0 7.355 20h7.29a3.502 3.502 0 0 0 6.855-1 3.502 3.502 0 0 0-2.5-3.355v-7.29A3.502 3.502 0 0 0 18 1.5 3.502 3.502 0 0 0 14.645 4h-7.29zM5 8.355v7.29A3.508 3.508 0 0 1 7.355 18h7.29A3.508 3.508 0 0 1 17 15.645v-7.29A3.508 3.508 0 0 1 14.645 6h-7.29A3.508 3.508 0 0 1 5 8.355z" fill="currentColor"/></svg>