<svg width="22" height="24" viewBox="0 0 22 24" xmlns="http://www.w3.org/2000/svg"><path d="M15.3061725,0.824520519 C15.6519934,1.20242458 15.6570796,1.77535982 15.3366526,2.15855173 L15.2497732,2.25017405 L13.557,3.826 L20.2857143,3.82660821 C21.1826579,3.82660821 21.9187127,4.52158057 21.9937075,5.40690678 L22,5.55613716 L22,10.1682144 C22,11.1234068 21.2324881,11.8977433 20.2857143,11.8977433 L20.2857143,11.8977433 L20,11.897 L20,21.8745631 C20,22.7086285 19.3863304,23.4170866 18.5739171,23.4932299 L18.4285714,23.5 L3.57142857,23.5 C2.73706936,23.5 2.07704651,22.8378789 2.00628582,22.0203441 L2,21.8745631 L2,11.897 L1.71428571,11.8977433 C0.81734206,11.8977433 0.0812872925,11.2027709 0.00629245167,10.3174447 L0,10.1682144 L0,5.55613716 C0,4.6009447 0.767511857,3.82660821 1.71428571,3.82660821 L1.71428571,3.82660821 L8.442,3.826 L6.75022681,2.25017405 C6.34443897,1.87220341 6.31918815,1.23391658 6.69382754,0.824520519 C7.03964852,0.446616461 7.60532246,0.395840119 8.00946607,0.687548637 L8.10691605,0.767619755 L11,3.46239824 L13.893084,0.767619755 C14.2988718,0.389649116 14.9315331,0.415124456 15.3061725,0.824520519 Z M10,11.8977433 L4,11.897 L4,21.4822162 L10.003,21.482 L10,21.4286687 L10,11.8977433 Z M18,11.897 L12,11.8977433 L12,21.4286687 L11.997,21.482 L18,21.4822162 L18,11.897 Z M20,5.84439199 L2,5.84439199 L2,9.87995953 L20,9.87995953 L20,5.84439199 Z" fill="currentColor" fill-rule="evenodd"/></svg>