<svg width="22" height="24" viewBox="0 0 22 24" fill="none" xmlns="http://www.w3.org/2000/svg"><path d="M11 1C5.477 1 1 5.477 1 11v11.5h2V11a8 8 0 0 1 16 0v11.5h2V11c0-5.523-4.477-10-10-10z" fill="currentColor"/><path d="M10.41 6.5a4.005 4.005 0 0 0-4.01 4H4.6a5.805 5.805 0 0 1 6.375-5.773l-.173 1.792a4.082 4.082 0 0 0-.392-.02zM7.5 11c-1.62 0-3.087 1.341-2.88 3.112.247 2.116.88 4.048 1.923 5.48C7.603 21.045 9.112 22 11 22c1.889 0 3.397-.954 4.457-2.409 1.044-1.43 1.677-3.363 1.923-5.479.207-1.77-1.26-3.112-2.88-3.112h-7z" fill="currentColor"/></svg>