<svg width="22" height="24" viewBox="0 0 22 24" fill="none" xmlns="http://www.w3.org/2000/svg"><path d="M8.966 9.478V7.846h4.08v1.632h-4.08zM7.31 15.19v-2.268h1.788v2.268H7.31zM12.77 12.922v2.268h1.896v-2.268H12.77z" fill="currentColor"/><path fill-rule="evenodd" clip-rule="evenodd" d="M0 12C0 5.925 4.925 1 11 1s11 4.925 11 11-4.925 11-11 11S0 18.075 0 12zm14.606-5.63h-7.2v4.584h7.2V6.37zm-3.996 5.076H5.786v5.772H7.31v-.564h1.788v.564h1.512v-5.772zm.636 0h4.968v5.772h-1.548v-.564H12.77v.564h-1.524v-5.772z" fill="currentColor"/></svg>