<svg width="24" height="24" viewBox="0 0 24 24" fill="none" xmlns="http://www.w3.org/2000/svg"><path fill-rule="evenodd" clip-rule="evenodd" d="m20.908 14.709-9.072-4.404 1.597-3.166.002.001a.626.626 0 0 0 .84-.277l.017-.031a.628.628 0 0 0-.278-.841L8.04 2.979a.628.628 0 0 0-.842.277l-.017.032a.625.625 0 0 0 .278.841h.001l-4.208 8.349-.002-.001a.628.628 0 0 0-.841.277l-.014.03a.628.628 0 0 0 .277.842l5.976 3.013a.628.628 0 0 0 .841-.277l.016-.033a.626.626 0 0 0-.277-.84h-.002l1.544-3.067 8.987 4.573a1.278 1.278 0 0 0 1.76-.547 1.279 1.279 0 0 0-.608-1.74zM3 19.5a1 1 0 0 0 0 2h18a1 1 0 1 0 0-2H3z" fill="currentColor"/></svg>