<svg width="24" height="24" viewBox="0 0 24 24" xmlns="http://www.w3.org/2000/svg"><path d="M12.4375,0.2 C16.3856269,0.2 19.6056346,3.39006045 19.9663811,7.4412517 L19.985,7.7 L21,7.7 C22.5976809,7.7 23.9036609,8.94891996 23.9949073,10.5237272 L24,10.7 L24,13.2 C24,14.7976809 22.75108,16.1036609 21.1762728,16.1949073 L21,16.2 L20,16.2 L20,16.7 C20,19.3810914 18.2414781,21.651458 15.8149247,22.4206095 C15.5612662,22.8849317 15.0674272,23.2 14.5,23.2 L11.5,23.2 C10.6715729,23.2 10,22.5284271 10,21.7 C10,20.8715729 10.6715729,20.2 11.5,20.2 L14.5,20.2 C14.8158814,20.2 15.1089574,20.2976411 15.3506931,20.4643881 C16.8352085,19.9341253 17.9140815,18.548047 17.9951047,16.8996403 L18,16.7 L18,8.2 C18,4.94976765 15.6098159,2.32465117 12.6498692,2.20431056 L12.4375,2.2 L11.5625,2.2 C8.57645369,2.2 6.11682667,4.74952968 6.00404037,7.96892904 L6,8.2 L6,16.2 L3,16.2 C1.40231912,16.2 0.0963391206,14.95108 0.00509269341,13.3762728 L0,13.2 L0,10.7 C0,9.10231912 1.24891996,7.79633912 2.82372721,7.70509269 L3,7.7 L4.014,7.7 C4.25560045,3.60778796 7.40246661,0.333313298 11.3216059,0.203969417 L11.5625,0.2 L12.4375,0.2 Z M21,9.7 L20,9.7 L20,14.2 L21,14.2 C21.5128358,14.2 21.9355072,13.8139598 21.9932723,13.3166211 L22,13.2 L22,10.7 C22,10.1871642 21.6139598,9.76449284 21.1166211,9.70672773 L21,9.7 Z M4,9.7 L3,9.7 C2.48716416,9.7 2.06449284,10.0860402 2.00672773,10.5833789 L2,10.7 L2,13.2 C2,13.7128358 2.38604019,14.1355072 2.88337887,14.1932723 L3,14.2 L4,14.2 L4,9.7 Z" fill="#000" fill-rule="evenodd"/></svg>