<svg width="24" height="24" viewBox="0 0 24 24" fill="none" xmlns="http://www.w3.org/2000/svg"><path fill-rule="evenodd" clip-rule="evenodd" d="M12.401 1.5c3.62 0 6.57 2.924 6.901 6.638l.018.237h.93a2.75 2.75 0 0 1 2.745 2.588l.005.162v2.292a2.75 2.75 0 0 1-2.588 2.745l-.162.005h-.917v.458a5.502 5.502 0 0 1-3.836 5.244 1.372 1.372 0 0 1-1.205.714h-2.75a1.375 1.375 0 1 1 0-2.75h2.75c.29 0 .558.09.78.243a3.665 3.665 0 0 0 2.424-3.268l.004-.183V8.833c0-2.979-2.191-5.385-4.904-5.496l-.195-.004h-.802c-2.737 0-4.992 2.337-5.095 5.289l-.004.211v7.334H3.75a2.75 2.75 0 0 1-2.745-2.589L1 13.417v-2.292A2.75 2.75 0 0 1 3.588 8.38l.162-.005h.93c.221-3.751 3.106-6.753 6.698-6.871L11.6 1.5h.802zm7.849 8.708h-.917v4.125h.917c.47 0 .858-.354.91-.81l.007-.106v-2.292a.917.917 0 0 0-.81-.91l-.107-.007zm-15.583 0H3.75a.917.917 0 0 0-.91.81l-.007.107v2.292c0 .47.354.857.81.91l.107.006h.917v-4.125z" fill="currentColor"/></svg>