<svg width="24" height="24" viewBox="0 0 24 24" xmlns="http://www.w3.org/2000/svg"><path d="M21.8739676,4.1667159 C23.712437,6.19378379 23.9186133,9.13656428 22.9014109,11.7295896 L22.8174303,11.9354215 L22.7289903,12.1361912 L20.9101896,11.3043475 C20.955232,11.2058636 20.9984504,11.1039664 21.039545,10.9992093 C21.8037953,9.05100269 21.6531093,6.90024146 20.3925172,5.51033214 C19.3646839,4.37705914 18.2424147,3.93782466 17.0539133,4.00674928 C16.2166674,4.05530357 15.3861977,4.37554303 14.9767296,4.68099269 C14.5673617,4.98636767 14.163462,5.34105855 13.7652965,5.74554616 C12.8237407,6.702052 11.2921574,6.73612695 10.3090395,5.82244497 C9.97498174,5.51200357 9.61808512,5.20353934 9.21672827,4.87929832 L8.9070365,4.632882 C7.80682191,3.67273502 5.29459799,3.76832591 3.67255244,5.51831271 C2.1628849,7.14705752 2.0406406,10.1836646 3.71105896,12.2119278 C5.31950098,14.1649377 7.46833917,16.530055 10.1557756,19.3043687 L10.6735389,19.8360585 C11.4094364,20.55096 12.5623691,20.5724602 13.3233175,19.9122648 L13.4564115,19.7855899 L14.8909414,21.179191 L14.8809085,21.1895186 C13.407444,22.7062777 11.0150735,22.7907509 9.43990045,21.417816 L9.27993778,21.2705884 L9.2033434,21.1941176 C6.25487864,18.1688545 3.91021886,15.5997606 2.16722987,13.4833804 C-0.145603447,10.6750812 0.0218743382,6.51485273 2.20573638,4.15873533 C4.57190363,1.60593313 8.31696231,1.4634325 10.1798973,3.09118358 C10.713214,3.50750843 11.2101053,3.92952973 11.6705447,4.35741814 C11.860963,4.53438752 12.1576114,4.52778763 12.3399881,4.34251515 C12.8078697,3.8672046 13.2880755,3.44550416 13.7808715,3.07789466 C15.8729329,1.51728597 19.2912469,1.31904811 21.8739676,4.1667159 Z M20.2,12.7857864 L21.6142136,14.2 L19.6137864,16.1997864 L21.6142136,18.2 L20.2,19.6142136 L18.1997864,17.6137864 L16.2,19.6142136 L14.7857864,18.2 L16.7857864,16.1997864 L14.7857864,14.2 L16.2,12.7857864 L18.1997864,14.7857864 L20.2,12.7857864 Z" fill="#000" fill-rule="evenodd"/></svg>