<svg width="24" height="24" viewBox="0 0 24 24" xmlns="http://www.w3.org/2000/svg"><path d="M13.7808715,3.12578403 C13.2880755,3.49339353 12.8078697,3.91509396 12.3399881,4.39040452 C12.1576083,4.57568023 11.8609405,4.58228262 11.6704986,4.40530411 L11.3260878,4.09241589 C10.9588852,3.76635124 10.5796276,3.45111579 10.1798973,3.13907294 C8.31696231,1.51132186 4.57190363,1.6538225 2.20573638,4.2066247 C0.0218743382,6.5627421 -0.145603447,10.7229706 2.16722987,13.5312697 C3.9102238,15.6476559 6.25489194,18.2167585 9.20336851,21.2420327 L9.29382673,21.3319063 C10.8702752,22.8485285 13.3777044,22.8000297 14.8943266,21.2235813 L16.2892924,19.7627374 C18.5785971,17.3462505 20.448269,15.2719342 21.9000806,13.5373839 C23.8413066,11.2181063 24.2414464,6.82495069 21.8739676,4.21460526 C19.2912469,1.36693747 15.8729329,1.56517533 13.7808715,3.12578403 Z M17.0539133,4.05463864 C18.2424147,3.98571403 19.3646839,4.4249485 20.3925172,5.5582215 C22.0175351,7.34994103 21.7179659,10.6389261 20.3664042,12.253703 C18.7531887,14.1810904 16.5996157,16.5519145 13.907443,19.363533 L13.4522175,19.8378251 C12.7416793,20.5763911 11.5901748,20.6368121 10.8073461,20.0027234 L10.6578569,19.8685422 L10.6356446,19.8461155 C7.72302671,16.8576338 5.41412007,14.3277159 3.71105896,12.2598171 C2.0406406,10.231554 2.1628849,7.19494688 3.67255244,5.56620207 C5.2405298,3.87454817 7.6403294,3.72883533 8.79239361,4.58829797 L8.9070365,4.68077137 C9.31621747,5.00208919 9.6631025,5.29041682 9.98988734,5.58051523 L10.3174404,5.87809157 C11.2921867,6.78401681 12.8237503,6.74993161 13.7652965,5.79343553 C14.163462,5.38894791 14.5673617,5.03425703 14.9767296,4.72888205 C15.3861977,4.4234324 16.2166674,4.10319293 17.0539133,4.05463864 Z" fill="#000" fill-rule="evenodd"/></svg>