<svg width="24" height="24" viewBox="0 0 24 24" xmlns="http://www.w3.org/2000/svg"><path d="M13.7808715,3.12578403 C13.2880755,3.49339353 12.8078697,3.91509396 12.3399881,4.39040452 C12.1576083,4.57568023 11.8609405,4.58228262 11.6704986,4.40530411 L11.3260878,4.09241589 C10.9588852,3.76635124 10.5796276,3.45111579 10.1798973,3.13907294 C8.31696231,1.51132186 4.57190363,1.6538225 2.20573638,4.2066247 C0.0218743382,6.5627421 -0.145603447,10.7229706 2.16722987,13.5312697 C3.9102238,15.6476559 6.25489194,18.2167585 9.20336851,21.2420327 L9.29382673,21.3319063 C10.8702752,22.8485285 13.3777044,22.8000297 14.8943266,21.2235813 L16.2892924,19.7627374 C18.5785971,17.3462505 20.448269,15.2719342 21.9000806,13.5373839 C23.8413066,11.2181063 24.2414464,6.82495069 21.8739676,4.21460526 C19.2912469,1.36693747 15.8729329,1.56517533 13.7808715,3.12578403 Z" fill="#000" fill-rule="evenodd"/></svg>