<svg width="24" height="24" viewBox="0 0 24 24" fill="none" xmlns="http://www.w3.org/2000/svg"><path fill-rule="evenodd" clip-rule="evenodd" d="M6.5 1.5a5 5 0 0 0-5 5v11a5 5 0 0 0 5 5h11a5 5 0 0 0 5-5v-11a5 5 0 0 0-5-5h-11zm-3 5a3 3 0 0 1 3-3h11a3 3 0 0 1 3 3v11a3 3 0 0 1-3 3h-11a3 3 0 0 1-3-3v-11zm13.89 6.397v.732c-.033 1.173-.603 1.792-1.71 1.857-1.073-.033-1.627-.733-1.66-2.1.066-1.434.636-2.183 1.71-2.248 1.073.033 1.627.619 1.66 1.759zM19 9.624h-1.61v.781c-.457-.52-1.059-.781-1.807-.781-2.018.163-3.092 1.433-3.222 3.81.098 2.247 1.107 3.436 3.027 3.566.878 0 1.545-.277 2.001-.83v.683H19v-7.23zM13.093 6.4l1.855 2.442h1.465L18.268 6.4H16.51l-.83 1.514-.83-1.514h-1.757zm-6.482 7.278v-.83c.065-1.107.586-1.677 1.562-1.71 1.074.033 1.61.782 1.61 2.247 0 1.433-.536 2.15-1.61 2.15-1.041 0-1.562-.62-1.562-1.857zM5 16.853h1.61v-.635c.456.521 1.075.782 1.856.782 1.952-.065 2.945-1.27 2.978-3.615-.066-2.41-1.058-3.663-2.978-3.761-.684-.033-1.302.244-1.855.83V7.328H5v9.525z" fill="currentColor"/></svg>