<svg width="24" height="24" viewBox="0 0 24 24" xmlns="http://www.w3.org/2000/svg"><path d="M11.9527644,1 C13.50446,1 14.7623579,2.25789787 14.7623579,3.80959353 C14.7623579,5.00875927 14.0110971,6.03245866 12.9535552,6.43571206 L12.952,10.9525 L18.0959353,10.9527644 C19.6936161,10.9527644 20.9995961,12.2016844 21.0908426,13.7764916 L21.0959353,13.9527644 L21.0970652,17.9836043 C22.1544286,18.3869473 22.9055288,19.410556 22.9055288,20.6095935 C22.9055288,22.1612892 21.6476309,23.4191871 20.0959353,23.4191871 C18.5442396,23.4191871 17.2863417,22.1612892 17.2863417,20.6095935 C17.2863417,19.410556 18.0374419,18.3869473 19.0948053,17.9836043 L19.0959353,13.9527644 C19.0959353,13.4399286 18.7098951,13.0172572 18.2125564,12.9594921 L18.0959353,12.9527644 L12.952,12.952 L12.9535552,17.983475 C13.9459334,18.3618807 14.6686126,19.2866267 14.7539049,20.3900254 L14.7623579,20.6095935 C14.7623579,22.1612892 13.50446,23.4191871 11.9527644,23.4191871 C10.4010687,23.4191871 9.14317086,22.1612892 9.14317086,20.6095935 C9.14317086,19.4099962 9.89497251,18.3859916 10.9531155,17.9830398 L10.9525,12.952 L5.80959353,12.9527644 C5.29675769,12.9527644 4.87408636,13.3388046 4.81632126,13.8361433 L4.80959353,13.9527644 L4.81038432,17.983475 C5.86792626,18.3867284 6.61918705,19.4104278 6.61918705,20.6095935 C6.61918705,22.1612892 5.36128918,23.4191871 3.80959353,23.4191871 C2.25789787,23.4191871 1,22.1612892 1,20.6095935 C1,19.4104278 1.75126079,18.3867284 2.80880273,17.983475 L2.80959353,13.9527644 C2.80959353,12.3550835 4.05851349,11.0491035 5.63332074,10.9578571 L5.80959353,10.9527644 L10.9525,10.9525 L10.9531155,6.43614721 C9.96014977,6.05801567 9.23694893,5.13298351 9.15162389,4.02916161 L9.14317086,3.80959353 C9.14317086,2.25789787 10.4010687,1 11.9527644,1 Z M3.80959353,19.8 C3.36246737,19.8 3,20.1624674 3,20.6095935 C3,21.0567197 3.36246737,21.4191871 3.80959353,21.4191871 C4.25671968,21.4191871 4.61918705,21.0567197 4.61918705,20.6095935 C4.61918705,20.1624674 4.25671968,19.8 3.80959353,19.8 Z M11.9527644,19.8 C11.5056382,19.8 11.1431709,20.1624674 11.1431709,20.6095935 C11.1431709,21.0567197 11.5056382,21.4191871 11.9527644,21.4191871 C12.3998905,21.4191871 12.7623579,21.0567197 12.7623579,20.6095935 C12.7623579,20.1624674 12.3998905,19.8 11.9527644,19.8 Z M20.0959353,19.8 C19.6488091,19.8 19.2863417,20.1624674 19.2863417,20.6095935 C19.2863417,21.0567197 19.6488091,21.4191871 20.0959353,21.4191871 C20.5430614,21.4191871 20.9055288,21.0567197 20.9055288,20.6095935 C20.9055288,20.1624674 20.5430614,19.8 20.0959353,19.8 Z M11.9527644,3 C11.5056382,3 11.1431709,3.36246737 11.1431709,3.80959353 C11.1431709,4.25671968 11.5056382,4.61918705 11.9527644,4.61918705 C12.3998905,4.61918705 12.7623579,4.25671968 12.7623579,3.80959353 C12.7623579,3.36246737 12.3998905,3 11.9527644,3 Z" fill="#000" fill-rule="evenodd"/></svg>