<svg width="24" height="24" viewBox="0 0 24 24" fill="none" xmlns="http://www.w3.org/2000/svg"><path d="m10.921 6.096 1.521-.26c.104.312.221.663.325 1.04h5.018v1.248H6.202V6.876h5.083a7.31 7.31 0 0 0-.364-.78zM17.252 16.561c0 .897-.533 1.352-1.586 1.352H14.6l-.325-1.196 1.001.039c.455 0 .689-.156.689-.468v-3.185h-7.93v4.849H6.748v-6.019h10.504v4.628z" fill="currentColor"/><path fill-rule="evenodd" clip-rule="evenodd" d="M8.204 11.413V8.657h7.605v2.756H8.204zm1.3-1.014h5.005v-.728H9.504v.728zM9.335 16.431v-2.808h5.356v2.808H9.335zm1.196-1.001h2.964v-.806h-2.964v.806z" fill="currentColor"/><path fill-rule="evenodd" clip-rule="evenodd" d="M6.5 1.5a5 5 0 0 0-5 5v11a5 5 0 0 0 5 5h11a5 5 0 0 0 5-5v-11a5 5 0 0 0-5-5h-11zm-3 5a3 3 0 0 1 3-3h11a3 3 0 0 1 3 3v11a3 3 0 0 1-3 3h-11a3 3 0 0 1-3-3v-11z" fill="currentColor"/></svg>