<svg width="21" height="24" viewBox="0 0 21 24" xmlns="http://www.w3.org/2000/svg"><path d="M18,1.5 C19.6568542,1.5 21,2.84314575 21,4.5 L21,19.5 C21,21.1568542 19.6568542,22.5 18,22.5 L3,22.5 C1.34314575,22.5 0,21.1568542 0,19.5 L0,4.5 C0,2.84314575 1.34314575,1.5 3,1.5 L18,1.5 Z M18,3.5 L3,3.5 C2.48716416,3.5 2.06449284,3.88604019 2.00672773,4.38337887 L2,4.5 L2,19.5 C2,20.0128358 2.38604019,20.4355072 2.88337887,20.4932723 L3,20.5 L18,20.5 C18.5128358,20.5 18.9355072,20.1139598 18.9932723,19.6166211 L19,19.5 L19,4.5 C19,3.98716416 18.6139598,3.56449284 18.1166211,3.50672773 L18,3.5 Z M15.752,12.133 L15.752,16.761 C15.752,17.658 15.219,18.113 14.166,18.113 L14.166,18.113 L13.1,18.113 L12.775,16.917 L13.776,16.956 C14.231,16.956 14.465,16.8 14.465,16.488 L14.465,16.488 L14.465,13.303 L6.535,13.303 L6.535,18.152 L5.248,18.152 L5.248,12.133 L15.752,12.133 Z M13.191,13.823 L13.191,16.631 L7.835,16.631 L7.835,13.823 L13.191,13.823 Z M11.995,14.824 L9.031,14.824 L9.031,15.63 L11.995,15.63 L11.995,14.824 Z M14.309,8.857 L14.309,11.613 L6.704,11.613 L6.704,8.857 L14.309,8.857 Z M13.009,9.871 L8.004,9.871 L8.004,10.599 L13.009,10.599 L13.009,9.871 Z M10.942,6.036 C11.046,6.348 11.163,6.699 11.267,7.076 L11.267,7.076 L16.285,7.076 L16.285,8.324 L4.702,8.324 L4.702,7.076 L9.785,7.076 C9.668,6.79 9.551,6.53 9.421,6.296 L9.421,6.296 Z" fill="currentColor" fill-rule="evenodd"/></svg>