<svg width="22" height="24" viewBox="0 0 22 24" fill="none" xmlns="http://www.w3.org/2000/svg"><path d="M8.654 10.249V9.82h4.705v.428H8.654zM9.681 14.774v.506h2.664v-.506H9.681z" fill="currentColor"/><path fill-rule="evenodd" clip-rule="evenodd" d="M.5 6.5a5 5 0 0 1 5-5h11a5 5 0 0 1 5 5v11a5 5 0 0 1-5 5h-11a5 5 0 0 1-5-5v-11zm11.085-.71-.041-.124-1.857.318.103.185c.094.17.182.355.27.557H5.051v1.548h11.883V6.726h-5.054c-.097-.34-.203-.655-.296-.936zm3.374 2.717H7.054v3.056h7.905V8.507zm-9.361 3.276h10.804v4.778c0 .479-.143.864-.45 1.126-.304.259-.741.376-1.286.376h-1.18l-.403-1.482H8.185v-3.108h5.656v3.108h-.204l.642.025c.213 0 .35-.038.428-.091.07-.047.108-.114.108-.227v-3.035h-7.63v4.849H5.598v-6.32z" fill="currentColor"/></svg>