<svg width="24" height="24" viewBox="0 0 24 24" xmlns="http://www.w3.org/2000/svg"><path d="M14.2702811,2.35856196 L14.4357411,2.4979945 L23.1460784,10.2606018 L21.8154286,11.7537096 L20.9986454,11.0259167 L21,18.5 C21,20.6421954 19.3160315,22.3910789 17.1996403,22.4951047 L17,22.5 L6.5,22.5 C4.35780461,22.5 2.60892112,20.8160315 2.50489531,18.6996403 L2.5,18.5 L2.49914541,11.2344167 L1.91835065,11.7537096 L0.58814541,10.2601814 L9.30409188,2.49723051 C10.7125536,1.24276903 12.811052,1.19661215 14.2702811,2.35856196 Z M10.7621465,3.88655933 L10.6342971,3.99073444 L4.49864541,9.45391667 L4.5,18.5 C4.5,19.5543618 5.31587779,20.4181651 6.35073766,20.4945143 L6.5,20.5 L7.87064541,20.5 L7.87850231,20.4931115 C8.03259281,20.4861901 8.18465959,20.4238976 8.30232319,20.306234 C8.41986107,20.1886961 8.4821461,20.0368285 8.48917828,19.882907 L8.49914541,19.8699167 L8.49986833,16.5457749 C8.49986833,14.6586674 10.0296712,13.1288645 11.9167787,13.1288645 C13.7409826,13.1288645 15.2313052,14.5583803 15.3286332,16.3582985 L15.3336891,16.5457749 L15.3315408,19.929288 C15.347868,20.0670515 15.4088855,20.2005262 15.5145933,20.306234 C15.602841,20.3944817 15.7104405,20.4515831 15.8237317,20.4775383 L15.9384142,20.4931115 L15.9451454,20.5 L17,20.5 C18.0543618,20.5 18.9181651,19.6841222 18.9945143,18.6492623 L19,18.5 L18.9991454,9.24391667 L13.1050912,3.99110229 C12.4424615,3.40057015 11.4622898,3.36569284 10.7621465,3.88655933 Z M11.9167787,15.1288645 C11.1802724,15.1288645 10.5750131,15.6907999 10.5063545,16.4093169 L10.4998683,16.5457749 L10.4986454,20.4999167 L13.3336454,20.4999167 L13.3336891,16.5457749 C13.3336891,15.7632369 12.6993167,15.1288645 11.9167787,15.1288645 Z" fill="#000" fill-rule="evenodd"/></svg>