<?xml version="1.0" encoding="UTF-8"?>
<svg width="16px" height="16px" viewBox="0 0 16 16" version="1.1" xmlns="http://www.w3.org/2000/svg" xmlns:xlink="http://www.w3.org/1999/xlink">
    <!-- Generator: Sketch 64 (93537) - https://sketch.com -->
    <title>home</title>
    <desc>Created with Sketch.</desc>
    <g id="home" stroke="none" stroke-width="1" fill="none" fill-rule="evenodd">
        <path d="M9.51352073,1.57237464 L9.62382737,1.66532966 L15.430719,6.84040118 L14.543619,7.83580638 L13.9990969,7.35061111 L14,12.3333333 C14,13.7614636 12.8773544,14.9273859 11.4664269,14.9967365 L11.3333333,15 L4.33333333,15 C2.90520307,15 1.73928075,13.8773544 1.6699302,12.4664269 L1.66666667,12.3333333 L1.66609694,7.48961111 L1.27890044,7.83580638 L0.39209694,6.84012092 L6.20272792,1.66482034 C7.14170239,0.828512689 8.54070132,0.797741434 9.51352073,1.57237464 Z M7.17476435,2.59103956 L7.08953142,2.66048963 L2.99909694,6.30261111 L3,12.3333333 C3,13.0362412 3.54391853,13.6121101 4.2338251,13.6630095 L4.33333333,13.6666667 L5.24709694,13.6666667 L5.25233487,13.6620743 C5.35506187,13.65746 5.45643973,13.6159317 5.53488212,13.5374893 C5.61324071,13.4591307 5.65476407,13.3578857 5.65945219,13.2552713 L5.66609694,13.2466111 L5.66657888,11.0305166 C5.66657888,9.7724449 6.68644748,8.75257631 7.94451914,8.75257631 C9.16065509,8.75257631 10.1542035,9.70558685 10.2190888,10.9055324 L10.2224594,11.0305166 L10.2210272,13.286192 C10.231912,13.3780343 10.2725904,13.4670175 10.3430622,13.5374893 C10.401894,13.5963211 10.473627,13.6343888 10.5491545,13.6516922 L10.6256095,13.6620743 L10.6300969,13.6666667 L11.3333333,13.6666667 C12.0362412,13.6666667 12.6121101,13.1227481 12.6630095,12.4328416 L12.6666667,12.3333333 L12.6660969,6.16261111 L8.73672745,2.66073486 C8.29497431,2.26704677 7.64152655,2.24379523 7.17476435,2.59103956 Z M7.94451914,10.0859096 C7.45351491,10.0859096 7.0500087,10.4605332 7.00423636,10.9395446 L6.99991222,11.0305166 L6.99909694,13.6666111 L8.88909694,13.6666111 L8.88912607,11.0305166 C8.88912607,10.5088246 8.46621114,10.0859096 7.94451914,10.0859096 Z" id="形状" fill="#000000"></path>
    </g>
</svg>