<svg width="22" height="24" viewBox="0 0 22 24" xmlns="http://www.w3.org/2000/svg"><path d="M13,1 C14.6568542,1 16,2.34314575 16,4 L16,8 L19.25,8 C20.7257461,8 21.9093831,9.19810096 21.9950356,10.6844175 L22,10.8571429 L22,20.1428571 C22,21.6499981 20.8710202,22.9039191 19.4189362,22.9947348 L19.25,23 L3,23 C1.34314575,23 0,21.6568542 0,20 L0,4 C0,2.34314575 1.34314575,1 3,1 L13,1 Z M19.25,10 L16,10 L16,21 L19.25,21 C19.6196841,21 19.9459277,20.6839605 19.9939316,20.2529017 L20,20.1428571 L20,10.8571429 C20,10.4083102 19.7021936,10.0577451 19.3413801,10.0064678 L19.25,10 Z M13,3 L3,3 C2.48716416,3 2.06449284,3.38604019 2.00672773,3.88337887 L2,4 L2,20 C2,20.5128358 2.38604019,20.9355072 2.88337887,20.9932723 L3,21 L14,21 L14,4 C14,3.52661307 13.6710663,3.13005271 13.2292908,3.02641071 L13.1166211,3.00672773 L13,3 Z M8.81818182,7.90909091 L8.818,11.079 L12.0909091,11.0795455 L12.0909091,12.7159091 L8.818,12.715 L8.81818182,16.0909091 L7.18181818,16.0909091 L7.181,12.715 L3.90909091,12.7159091 L3.90909091,11.0795455 L7.181,11.079 L7.18181818,7.90909091 L8.81818182,7.90909091 Z" fill="currentColor" fill-rule="evenodd"/></svg>