<svg width="24" height="24" viewBox="0 0 24 24" fill="none" xmlns="http://www.w3.org/2000/svg"><mask id="path-1-inside-1_2611_5926" fill="currentColor"><path fill-rule="evenodd" clip-rule="evenodd" d="M17.5 1.2h-11a3 3 0 0 0-3 3v1.603a2 2 0 0 0 .548 1.375l4.56 4.818-4.561 4.826a2 2 0 0 0-.547 1.374V19.8a3 3 0 0 0 3 3h10.982a3 3 0 0 0 3-3.018l-.01-1.599a2 2 0 0 0-.54-1.355l-4.525-4.832 4.547-4.818a2 2 0 0 0 .546-1.373V4.2a3 3 0 0 0-3-3zM16 17.6H8v2h8v-2z"/></mask><path fill-rule="evenodd" clip-rule="evenodd" d="M17.5 1.2h-11a3 3 0 0 0-3 3v1.603a2 2 0 0 0 .548 1.375l4.56 4.818-4.561 4.826a2 2 0 0 0-.547 1.374V19.8a3 3 0 0 0 3 3h10.982a3 3 0 0 0 3-3.018l-.01-1.599a2 2 0 0 0-.54-1.355l-4.525-4.832 4.547-4.818a2 2 0 0 0 .546-1.373V4.2a3 3 0 0 0-3-3zM16 17.6H8v2h8v-2z" fill="currentColor"/><path d="M6.5 1.2v2-2zm11 0v-2 2zm-14 3h-2 2zm0 1.603h-2 2zm.548 1.375L2.595 8.553l1.453-1.375zm4.56 4.818 1.454 1.374 1.3-1.375-1.3-1.374-1.453 1.375zm-4.561 4.826-1.454-1.374 1.454 1.374zM3.5 18.196h-2 2zm0 1.604h2-2zm16.982-.018 2-.012-2 .012zm-.01-1.599 2-.012-2 .012zm-.54-1.355-1.46 1.367 1.46-1.367zm-4.525-4.832-1.455-1.373-1.29 1.367 1.285 1.373 1.46-1.367zm4.547-4.818L21.41 8.55l-1.455-1.373zM8 17.6v-2H6v2h2zm8 0h2v-2h-2v2zm-8 2H6v2h2v-2zm8 0v2h2v-2h-2zM6.5 3.2h11v-4h-11v4zm-1 1a1 1 0 0 1 1-1v-4a5 5 0 0 0-5 5h4zm0 1.603V4.2h-4v1.603h4zm0 0h-4a4 4 0 0 0 1.095 2.75L5.5 5.803zm4.561 4.818L5.5 5.803l-2.905 2.75 4.562 4.818 2.904-2.75zM5.5 18.196l4.562-4.826-2.906-2.748-4.563 4.826L5.5 18.196zm0 0-2.907-2.748A4 4 0 0 0 1.5 18.196h4zm0 1.604v-1.604h-4V19.8h4zm1 1a1 1 0 0 1-1-1h-4a5 5 0 0 0 5 5v-4zm10.982 0H6.5v4h10.982v-4zm1-1.006a1 1 0 0 1-1 1.006v4a5 5 0 0 0 5-5.03l-4 .024zm-.01-1.599.01 1.599 4-.024-.01-1.6-4 .025zm0 0 4-.024a4 4 0 0 0-1.08-2.71l-2.92 2.734zm-4.525-4.832 4.525 4.832 2.92-2.734-4.525-4.832-2.92 2.734zM18.5 5.805l-4.548 4.818 2.91 2.745 4.547-4.817L18.5 5.805zm0 0 2.909 2.746A4 4 0 0 0 22.5 5.805h-4zm0-1.605v1.605h4V4.2h-4zm-1-1a1 1 0 0 1 1 1h4a5 5 0 0 0-5-5v4zM8 19.6h8v-4H8v4zm2 0v-2H6v2h4zm6-2H8v4h8v-4zm-2 0v2h4v-2h-4z" fill="currentColor" mask="url(#path-1-inside-1_2611_5926)"/></svg>