<svg width="40" height="40" viewBox="0 0 40 40" xmlns="http://www.w3.org/2000/svg"><path d="M35,5 C37.7614237,5 40,7.23857625 40,10 L40,10 L40,30 C40,32.7614237 37.7614237,35 35,35 L35,35 L5,35 C2.23857625,35 0,32.7614237 0,30 L0,30 L0,10 C0,7.23857625 2.23857625,5 5,5 L5,5 Z M35,7 L5,7 C3.34314575,7 2,8.34314575 2,10 L2,10 L2,30 C2,31.6568542 3.34314575,33 5,33 L5,33 L35,33 C36.6568542,33 38,31.6568542 38,30 L38,30 L38,10 C38,8.34314575 36.6568542,7 35,7 L35,7 Z M12.5,11.5 C16.0898509,11.5 19,14.4101491 19,18 C19,18.7027355 18.8884817,19.3794246 18.6821767,20.0133354 C19.2971379,20.0888185 19.8125143,20.5246855 19.9880221,21.1227886 L20.0211527,21.2573949 L21.2058675,27.1809687 C21.3752836,28.0280493 20.825928,28.8520828 19.9788473,29.0214989 L19.8262199,29.0442614 L19.6720923,29.0518736 L5.06414989,29.0518736 C4.20029376,29.0518736 3.5,28.3515799 3.5,27.4877237 L3.50761221,27.3335961 L3.53037473,27.1809687 L4.7150895,21.2573949 C4.85217479,20.5719684 5.42495674,20.0665844 6.11037493,20.0060888 L6.24886466,20 L6.31331478,19.9994285 C6.10989407,19.3695311 6,18.6975991 6,18 C6,14.4101491 8.91014913,11.5 12.5,11.5 Z M7.37606075,21.9998759 L6.606,22 L5.595,27.051 L19.14,27.051 L18.129,22 L17.6239392,21.9998759 C16.4342676,23.5217164 14.581379,24.5 12.5,24.5 C10.418621,24.5 8.56573235,23.5217164 7.37606075,21.9998759 Z M35,25 L35,27 L26,27 L26,25 L35,25 Z M12.5,13.5 C10.0147186,13.5 8,15.5147186 8,18 C8,20.4852814 10.0147186,22.5 12.5,22.5 C14.9852814,22.5 17,20.4852814 17,18 C17,15.5147186 14.9852814,13.5 12.5,13.5 Z M12.5,15 C14.1568542,15 15.5,16.3431458 15.5,18 C15.5,19.6568542 14.1568542,21 12.5,21 C10.8431458,21 9.5,19.6568542 9.5,18 C9.5,16.3431458 10.8431458,15 12.5,15 Z M35,19 L35,21 L24,21 L24,19 L35,19 Z M12.5,17 C11.9477153,17 11.5,17.4477153 11.5,18 C11.5,18.5522847 11.9477153,19 12.5,19 C13.0522847,19 13.5,18.5522847 13.5,18 C13.5,17.4477153 13.0522847,17 12.5,17 Z M35,13.5 L35,15.5 L22,15.5 L22,13.5 L35,13.5 Z" fill="#000" fill-rule="evenodd"/></svg>