<svg width="24" height="24" viewBox="0 0 24 24" fill="none" xmlns="http://www.w3.org/2000/svg"><path fill-rule="evenodd" clip-rule="evenodd" d="M4 3a4 4 0 0 0-4 4v10a4 4 0 0 0 4 4h16a4 4 0 0 0 4-4V7a4 4 0 0 0-4-4H4zm5.73 10.923a4 4 0 1 0-5.461 0l-.238.953a.181.181 0 0 0 .074.198c.304.197 1.27.726 2.895.726 1.626 0 2.59-.529 2.895-.726a.181.181 0 0 0 .074-.198l-.238-.953zm-4.91-.55L5 13.2l.18-.174.004.005.022.02a2.751 2.751 0 0 0 .459.332c.32.185.776.367 1.335.367a2.67 2.67 0 0 0 1.335-.367 2.75 2.75 0 0 0 .48-.352l.005-.005.18.174.18.174-.002.001-.003.003-.009.01a1.717 1.717 0 0 1-.147.13c-.1.083-.247.19-.434.299A3.171 3.171 0 0 1 7 14.25c-.669 0-1.212-.218-1.585-.433a3.261 3.261 0 0 1-.581-.43l-.01-.009-.002-.003H4.82v-.001zM21 8h-8v2h8V8zm-6 5h6v2h-6v-2z" fill="currentColor"/></svg>