<svg width="38" height="40" viewBox="0 0 38 40" fill="none" xmlns="http://www.w3.org/2000/svg"><path fill-rule="evenodd" clip-rule="evenodd" d="M.3 12.5a7.2 7.2 0 0 1 7.2-7.2h23a7.2 7.2 0 0 1 7.2 7.2v15a7.2 7.2 0 0 1-7.2 7.2h-23a7.2 7.2 0 0 1-7.2-7.2v-15zm7.2-4.8a4.8 4.8 0 0 0-4.8 4.8v15a4.8 4.8 0 0 0 4.8 4.8h23a4.8 4.8 0 0 0 4.8-4.8v-15a4.8 4.8 0 0 0-4.8-4.8h-23z" fill="currentColor"/><path fill-rule="evenodd" clip-rule="evenodd" d="M12.667 13.667a5.667 5.667 0 0 0-3.869 9.807l.43.402-.412 1.65c.661.332 1.943.807 3.85.807 1.908 0 3.19-.475 3.851-.806l-.412-1.65.43-.403a5.667 5.667 0 0 0-3.868-9.808zm3.978 12.368zM5 19.333a7.667 7.667 0 1 1 13.324 5.174l.26 1.043c.126.5-.047 1.085-.547 1.411-.638.415-2.433 1.372-5.37 1.372-2.938 0-4.733-.957-5.37-1.372-.501-.325-.674-.91-.549-1.411l.26-1.043A7.642 7.642 0 0 1 5 19.333z" fill="currentColor"/><path fill-rule="evenodd" clip-rule="evenodd" d="M16.523 22.232c-3.236 2.312-6.394.964-7.6-.04l1.153-1.383c.795.662 3.037 1.647 5.4-.041l1.047 1.464zM23 14h10v2H23v-2zm0 10h10v2H23v-2zm10-5h-7v2h7v-2z" fill="currentColor"/></svg>