<svg width="40" height="40" viewBox="0 0 40 40" fill="none" xmlns="http://www.w3.org/2000/svg"><path d="M33.3 19.4h-11v2h11v-2zM33.3 16v-2h-9v2h9zM33.3 25h-8.857v2H33.3v-2z" fill="currentColor"/><path fill-rule="evenodd" clip-rule="evenodd" d="M14.004 14.656a2.96 2.96 0 1 0 0 5.92 2.96 2.96 0 0 0 0-5.92zm-1.36 2.96a1.36 1.36 0 1 1 2.72 0 1.36 1.36 0 0 1-2.72 0z" fill="currentColor"/><path fill-rule="evenodd" clip-rule="evenodd" d="m21.233 25.733-1.98-3.96a6.62 6.62 0 1 0-10.52-.17l-2.066 4.13a1.5 1.5 0 0 0 1.342 2.171h11.882a1.5 1.5 0 0 0 1.342-2.17zm-12.415.171 1.415-2.83a6.59 6.59 0 0 0 3.825 1.216 6.589 6.589 0 0 0 3.664-1.106l1.36 2.72H8.818zm5.24-12.954a4.72 4.72 0 1 0 0 9.44 4.72 4.72 0 0 0 0-9.44z" fill="currentColor"/><path fill-rule="evenodd" clip-rule="evenodd" d="M1.3 12.5a7.2 7.2 0 0 1 7.2-7.2h23a7.2 7.2 0 0 1 7.2 7.2v15a7.2 7.2 0 0 1-7.2 7.2h-23a7.2 7.2 0 0 1-7.2-7.2v-15zm7.2-4.8a4.8 4.8 0 0 0-4.8 4.8v15a4.8 4.8 0 0 0 4.8 4.8h23a4.8 4.8 0 0 0 4.8-4.8v-15a4.8 4.8 0 0 0-4.8-4.8h-23z" fill="currentColor"/></svg>