<svg width="40" height="40" viewBox="0 0 40 40" xmlns="http://www.w3.org/2000/svg"><path d="M35,5 C37.7614237,5 40,7.23857625 40,10 L40,10 L40,30 C40,32.7614237 37.7614237,35 35,35 L35,35 L5,35 C2.23857625,35 0,32.7614237 0,30 L0,30 L0,10 C0,7.23857625 2.23857625,5 5,5 L5,5 Z M35,7 L5,7 C3.34314575,7 2,8.34314575 2,10 L2,10 L2,30 C2,31.6568542 3.34314575,33 5,33 L5,33 L35,33 C36.6568542,33 38,31.6568542 38,30 L38,30 L38,10 C38,8.34314575 36.6568542,7 35,7 L35,7 Z M27.5590909,12 C30.2326512,12 32.4,14.1673488 32.4,16.8409091 C32.4,18.5867381 31.4758291,20.1167155 30.0900182,20.9683103 C32.8836237,21.9960886 34.896734,24.6397313 34.9961464,27.7663599 L35,28.0090909 L33,28.0090909 C33,24.9715248 30.5375661,22.5090909 27.5,22.5090909 C24.5365209,22.5090909 22.1204609,24.8528709 22.0043672,27.7878838 L22,28.0090909 L20,28.0090909 C20,24.7491803 22.0798208,21.9750378 24.9849238,20.9412021 C23.6233508,20.0850711 22.7181818,18.5686969 22.7181818,16.8409091 C22.7181818,14.1673488 24.8855306,12 27.5590909,12 Z M14,25 L14,27 L5,27 L5,25 L14,25 Z M16,19 L16,21 L5,21 L5,19 L16,19 Z M27.5590909,14 C25.9901001,14 24.7181818,15.2719183 24.7181818,16.8409091 C24.7181818,18.4098999 25.9901001,19.6818182 27.5590909,19.6818182 C29.1280817,19.6818182 30.4,18.4098999 30.4,16.8409091 C30.4,15.2719183 29.1280817,14 27.5590909,14 Z M18,13.5 L18,15.5 L5,15.5 L5,13.5 L18,13.5 Z" fill="#000" fill-rule="evenodd"/></svg>