<svg width="24" height="24" viewBox="0 0 24 24" fill="none" xmlns="http://www.w3.org/2000/svg"><path fill-rule="evenodd" clip-rule="evenodd" d="M2 7a5 5 0 0 1 5-5h10a5 5 0 0 1 5 5v10a5 5 0 0 1-5 5H7a5 5 0 0 1-5-5V7zm5-3a3 3 0 0 0-3 3v10a3 3 0 0 0 3 3h10a3 3 0 0 0 3-3V7a3 3 0 0 0-3-3H7z" fill="currentColor"/><path d="M8.916 16H6.9V7.6h2.016V16zM13.888 14.392c.672 0 1.132-.156 1.38-.468.296-.368.444-1.076.444-2.124 0-1.032-.152-1.736-.456-2.112-.264-.32-.72-.48-1.368-.48h-1.152v5.184h1.152zm.096-6.792c1.416 0 2.416.344 3 1.032.544.64.816 1.692.816 3.156.016 1.544-.272 2.64-.864 3.288-.584.64-1.568.948-2.952.924H10.72V7.6h3.264z" fill="currentColor"/></svg>