<?xml version="1.0" encoding="UTF-8"?>
<svg width="16px" height="16px" viewBox="0 0 16 16" version="1.1" xmlns="http://www.w3.org/2000/svg" xmlns:xlink="http://www.w3.org/1999/xlink">
    <!-- Generator: Sketch 64 (93537) - https://sketch.com -->
    <title>image-add</title>
    <desc>Created with Sketch.</desc>
    <g id="image-add" stroke="none" stroke-width="1" fill="none" fill-rule="evenodd">
        <circle id="椭圆形" stroke="#000000" stroke-width="0.8" cx="3.8" cy="6.2" r="1"></circle>
        <g id="编组备份" transform="translate(11.600000, 0.000000)" stroke="#000000" stroke-linecap="square" stroke-width="0.8">
            <line x1="2.26666667" y1="0.0666666667" x2="2.26666667" y2="4.06666667" id="直线备份-5"></line>
            <line x1="0.266666667" y1="2.06666667" x2="4.26666667" y2="2.06666667" id="直线备份-4"></line>
        </g>
        <path d="M13.84,6.2 L13.84,13.0628571 C13.84,13.8455235 13.1894818,14.48 12.387027,14.48 L1.85297297,14.48 C1.05051816,14.48 0.4,13.8455235 0.4,13.0628571 L0.4,3.49714286 C0.4,2.71447647 1.05051816,2.08 1.85297297,2.08 C4.60868869,2.08 6.67547548,2.08 8.05333333,2.08 C8.23892148,2.08 8.97815208,2.08 9.4933567,2.08" id="路径" stroke="#000000" stroke-width="0.8"></path>
        <path d="M2.2,11.8 L3.79158022,9.48497422 C4.0418884,9.12088959 4.53995219,9.02865556 4.90403682,9.27896374 C4.96794409,9.32289999 5.02512307,9.37589545 5.07377916,9.43628682 L6.68275862,11.4333333 L6.68275862,11.4333333 L8.90659251,7.90131032 C9.14200176,7.52741958 9.635937,7.41515815 10.0098277,7.65056741 C10.1160283,7.71743342 10.205008,7.80834669 10.2695759,7.91595988 L12.6,11.8 L12.6,11.8" id="路径-11" stroke="#000000" stroke-width="0.8" stroke-linejoin="round"></path>
    </g>
</svg>