<?xml version="1.0" encoding="UTF-8"?>
<svg width="14px" height="16px" viewBox="0 0 14 16" version="1.1" xmlns="http://www.w3.org/2000/svg" xmlns:xlink="http://www.w3.org/1999/xlink">
    <!-- Generator: Sketch 64 (93537) - https://sketch.com -->
    <title>image</title>
    <desc>Created with Sketch.</desc>
    <g id="image" stroke="none" stroke-width="1" fill="none" fill-rule="evenodd">
        <path d="M11.9530946,1 C13.0835693,1 14,1.90223113 14,3.01518964 L14,12.9848104 C14,14.0977689 13.0835693,15 11.9530946,15 L2.04690536,15 C0.916430743,15 0,14.0977689 0,12.9848104 L0,3.01518964 C0,1.90223113 0.916430743,1 2.04690536,1 L11.9530946,1 Z M1.3633721,8.00990808 L1.36460357,12.9848104 C1.36460357,13.3292975 1.62799948,13.6132185 1.96733455,13.652021 L2.04690536,13.6565402 L8.14335731,13.6561833 C8.02720595,12.0014361 7.22768136,10.5624937 5.71434431,9.30745157 C4.85408385,8.59401957 3.74300033,8.19977081 2.50454854,8.06124598 C2.1067202,8.0167476 1.72204965,8.00204436 1.3633721,8.00990808 Z M11.9530946,2.34345976 L2.04690536,2.34345976 C1.69699655,2.34345976 1.40860715,2.60277449 1.36919391,2.93685174 L1.36460357,3.01518964 L1.36426242,6.31607026 L1.37113011,6.3634897 C1.38722647,6.43398787 1.42314297,6.50098476 1.47887962,6.5558578 C1.53670967,6.6127918 1.60779679,6.64871946 1.68235834,6.66364079 C1.97748215,6.66753424 2.30618664,6.68695588 2.65859505,6.7263739 C4.14278894,6.89238577 5.50183244,7.37461885 6.59349776,8.27995974 C8.29711888,9.6928084 9.267676,11.3673656 9.47882504,13.2760191 L9.4810317,13.2781345 C9.48487561,13.3739669 9.52395533,13.4686845 9.59827086,13.5418485 C9.6725864,13.6150126 9.76879466,13.6534868 9.8661353,13.6572711 L11.9530946,13.6565402 C12.3030035,13.6565402 12.5913929,13.3972255 12.6308061,13.0631483 L12.6353964,12.9848104 L12.6353964,3.01518964 C12.6353964,2.67070248 12.3720005,2.38678152 12.0326654,2.34797898 L11.9530946,2.34345976 Z M9.21775814,3.55945411 C10.3341238,3.55945411 11.2391169,4.45042488 11.2391169,5.54949302 C11.2391169,6.64856116 10.3341238,7.53953192 9.21775814,7.53953192 C8.1013925,7.53953192 7.19639935,6.64856116 7.19639935,5.54949302 C7.19639935,4.45042488 8.1013925,3.55945411 9.21775814,3.55945411 Z M9.21775814,4.90291387 C8.85504225,4.90291387 8.56100292,5.19239722 8.56100292,5.54949302 C8.56100292,5.90658882 8.85504225,6.19607216 9.21775814,6.19607216 C9.58047403,6.19607216 9.87451336,5.90658882 9.87451336,5.54949302 C9.87451336,5.19239722 9.58047403,4.90291387 9.21775814,4.90291387 Z" id="形状" fill="#000000"></path>
    </g>
</svg>