<svg width="24" height="24" viewBox="0 0 24 24" xmlns="http://www.w3.org/2000/svg"><path d="M19.0187797,1.5 C20.6756339,1.5 22.0187797,2.84314575 22.0187797,4.5 L22.0187797,19.341711 C22.0187797,20.9985652 20.6756339,22.341711 19.0187797,22.341711 L4.5,22.341711 C2.84314575,22.341711 1.5,20.9985652 1.5,19.341711 L1.5,4.5 C1.5,2.84314575 2.84314575,1.5 4.5,1.5 L19.0187797,1.5 Z M3.49819513,11.9356056 L3.5,19.341711 C3.5,19.8545468 3.88604019,20.2772182 4.38337887,20.3349833 L4.5,20.341711 L13.4351253,20.3411797 C13.2648907,17.8777679 12.0930858,15.7356235 9.87509799,13.8672503 C8.61427694,12.8051687 6.98584279,12.218253 5.17073426,12.012032 C4.58766625,11.9457875 4.02388267,11.9238989 3.49819513,11.9356056 Z M19.0187797,3.5 L4.5,3.5 C3.98716416,3.5 3.56449284,3.88604019 3.50672773,4.38337887 L3.5,4.5 L3.4995,9.414 L3.50956547,9.48459302 C3.53315673,9.5895432 3.58579694,9.68928105 3.66748608,9.77097019 C3.75224336,9.85572747 3.85643058,9.90921276 3.96571,9.93142604 C4.39825147,9.9372222 4.88000968,9.96613507 5.396509,10.0248164 C7.57178382,10.2719572 9.56363483,10.9898545 11.1636091,12.3376298 C13.6604825,14.4409286 15.0829573,16.9338312 15.392423,19.7752315 L15.3956572,19.7783808 C15.4012909,19.9210459 15.4585672,20.0620513 15.5674861,20.1709702 C15.6764049,20.2798891 15.8174104,20.3371653 15.9600755,20.3427991 L19.0187797,20.341711 C19.5316155,20.341711 19.9542868,19.9556708 20.0120519,19.4583321 L20.0187797,19.341711 L20.0187797,4.5 C20.0187797,3.98716416 19.6327395,3.56449284 19.1354008,3.50672773 L19.0187797,3.5 Z M15.0097963,5.31024307 C16.6459721,5.31024307 17.9723546,6.63662558 17.9723546,8.27280133 C17.9723546,9.90897708 16.6459721,11.2353596 15.0097963,11.2353596 C13.3736206,11.2353596 12.047238,9.90897708 12.047238,8.27280133 C12.047238,6.63662558 13.3736206,5.31024307 15.0097963,5.31024307 Z M15.0097963,7.31024307 C14.4781901,7.31024307 14.047238,7.74119508 14.047238,8.27280133 C14.047238,8.80440758 14.4781901,9.2353596 15.0097963,9.2353596 C15.5414026,9.2353596 15.9723546,8.80440758 15.9723546,8.27280133 C15.9723546,7.74119508 15.5414026,7.31024307 15.0097963,7.31024307 Z" fill="#000" fill-rule="evenodd"/></svg>