<svg width="22" height="24" viewBox="0 0 22 24" fill="none" xmlns="http://www.w3.org/2000/svg"><path fill-rule="evenodd" clip-rule="evenodd" d="M6.85 5.6a2.75 2.75 0 1 0 0 5.5 2.75 2.75 0 0 0 0-5.5zM5.9 8.35a.95.95 0 1 1 1.9 0 .95.95 0 0 1-1.9 0z" fill="currentColor"/><path fill-rule="evenodd" clip-rule="evenodd" d="M5 2a5 5 0 0 0-5 5v10a5 5 0 0 0 5 5h12a5 5 0 0 0 5-5V7a5 5 0 0 0-5-5H5zm12 2H5a3 3 0 0 0-3 3v10c0 .095.004.19.013.282l2.49-3.424a2 2 0 0 1 3.032-.238l1.427 1.428 3.007-3.341a2 2 0 0 1 3.048.088l4.856 6.07A3 3 0 0 0 20 17V7a3 3 0 0 0-3-3zM5 20c-.75 0-1.435-.275-1.96-.73l3.08-4.235 1.428 1.427a2 2 0 0 0 2.9-.076l3.007-3.341 5.178 6.472c-.47.306-1.03.483-1.633.483H5z" fill="currentColor"/></svg>