<svg width="40" height="40" viewBox="0 0 40 40" xmlns="http://www.w3.org/2000/svg"><path d="M23.7333918,4.2 L23.7333918,6.2 L4.63243243,6.2 C3.22919842,6.2 2.09065959,7.25782298 2.00515547,8.58264724 L2,8.74285714 L2,32.6571429 C2,34.0020619 3.08456829,35.1116125 4.46536534,35.1949731 L4.63243243,35.2 L30.9675676,35.2 C32.3708016,35.2 33.5093404,34.142177 33.5948445,32.8173528 L33.6,32.6571429 L33.6,15.5 L35.6,15.5 L35.6,32.6571429 C35.6,35.0999128 33.6376105,37.0837035 31.1851917,37.1950688 L30.9675676,37.2 L4.63243243,37.2 C2.15246204,37.2 0.119216253,35.2860028 0.00505524546,32.8714543 L-9.23705556e-14,32.6571429 L-9.23705556e-14,8.74285714 C-9.23705556e-14,6.30008718 1.96238949,4.31629653 4.4148083,4.20493116 L4.63243243,4.2 L23.7333918,4.2 Z M24.996544,17.5949949 L25.1761577,17.7579039 L31.3737873,24.2192524 L29.9302127,25.6034822 L23.7619473,19.1723955 C23.3920552,18.8215719 22.8242892,18.8088544 22.4402026,19.124148 L22.3482284,19.2097992 L17.85,23.9506701 L22.6984753,29.1400418 L21.2370643,30.5054274 L13.6859888,22.4232968 C13.6463799,22.3809023 13.6031568,22.3420353 13.5568084,22.3071357 C13.1495517,22.0004774 12.5840004,22.0521663 12.2381077,22.4089447 L12.1564294,22.5044644 L6.19294062,30.4242597 L4.5952329,29.2212094 L10.5587217,21.3014141 C11.5553612,19.9778297 13.4362743,19.7127885 14.7598587,20.709428 C14.8525554,20.7792272 14.9410852,20.8543163 15.0250133,20.9343041 L15.1473998,21.0579112 L16.482,22.4866701 L20.897106,17.8334839 C21.9934299,16.6775712 23.7911717,16.5866647 24.996544,17.5949949 Z M9.5,11 C11.4329966,11 13,12.5670034 13,14.5 C13,16.4329966 11.4329966,18 9.5,18 C7.56700338,18 6,16.4329966 6,14.5 C6,12.5670034 7.56700338,11 9.5,11 Z M9.5,13 C8.67157288,13 8,13.6715729 8,14.5 C8,15.3284271 8.67157288,16 9.5,16 C10.3284271,16 11,15.3284271 11,14.5 C11,13.6715729 10.3284271,13 9.5,13 Z M35.5,-0.0373299066 L35.5,4.16567009 L40.0533643,4.16666667 L40.0533643,6.16666667 L35.5,6.16567009 L35.5,11.1666667 L33.5,11.1666667 L33.5,6.16567009 L28.6666667,6.16666667 L28.6666667,4.16666667 L33.5,4.16567009 L33.5,-0.0373299066 L35.5,-0.0373299066 Z" fill="#000" fill-rule="evenodd"/></svg>