<svg width="40" height="40" viewBox="0 0 40 40" xmlns="http://www.w3.org/2000/svg"><g fill="none" fill-rule="evenodd" stroke="#000" stroke-width="2"><circle cx="9.5" cy="15.5" r="2.5"/><g stroke-linecap="square"><path d="M5.667.167L5.667 10.167M.667 5.167L10.667 5.167" transform="translate(29)"/></g><path d="M34.6,15.5 L34.6,32.6571429 C34.6,34.6138088 32.9737046,36.2 30.9675676,36.2 L4.63243243,36.2 C2.6262954,36.2 1,34.6138088 1,32.6571429 L1,8.74285714 C1,6.78619117 2.6262954,5.2 4.63243243,5.2 C11.5217217,5.2 16.6886887,5.2 20.1333333,5.2 C20.5973037,5.2 22.4453802,5.2 23.7333918,5.2"/><path d="M5.5,29.5 L9.47895055,23.7124356 C10.104721,22.802224 11.3498805,22.5716389 12.260092,23.1974094 C12.4198602,23.30725 12.5628077,23.4397386 12.6844479,23.5907171 L16.7068966,28.5833333 L16.7068966,28.5833333 L22.2664813,19.7532758 C22.8550044,18.8185489 24.0898425,18.5378954 25.0245694,19.1264185 C25.2900706,19.2935835 25.51252,19.5208667 25.6739398,19.7898997 L31.5,29.5 L31.5,29.5" stroke-linejoin="round"/></g></svg>