<svg width="24" height="24" viewBox="0 0 24 24" fill="none" xmlns="http://www.w3.org/2000/svg"><path d="M16.837 13.273c.683 0 1.268.039 1.747.091 1.111.123 1.876.342 2.275.481.003.003.008.006.01.006.094.028.375.128.364.42-.008.26-.393 1.32-.497 1.496-.244.413-.493.336-.716.256-.348-.13-2.277-.76-5.662-.342-.791.12-1.54.717-1.96 1.098 0 0-4.954 4.123-5.069 4.214a.857.857 0 0 1-.529.182h-.013c-.472-.005-.934-.376-.724-1.123l.75-2.444c.136-.421.045-.763-.435-.836-2.116-.074-3.446-.555-3.998-.805-.302-.14-.377-.32-.38-.47v-.011c0-.098.032-.182.053-.234.172-.434.41-1.086.447-1.16.194-.391.404-.457.862-.258.074.033 2.762 1.431 8.072.135 2.189-.533 4.004-.696 5.403-.696zm.45-4.819c.68 0 1.265.04 1.745.092 1.11.123 1.875.341 2.274.48.002.004.008.004.01.007.094.028.375.128.364.42-.008.26-.392 1.32-.497 1.496-.244.413-.493.34-.715.255-.43-.16-3.26-1.08-8.264.14-1.69.41-3.315.62-4.82.62-2.442 0-3.957-.545-4.557-.816-.506-.236-.38-.58-.327-.715l.127-.325.086-.226c.114-.298.213-.563.235-.608.194-.391.404-.457.862-.258.073.032 2.762 1.43 8.072.135 2.188-.534 4.004-.697 5.406-.697h-.001zm.319-4.779c.681 0 1.266.04 1.745.092 1.11.124 1.876.341 2.275.481.002.003.006.003.01.005.094.03.375.13.364.421-.008.26-.393 1.32-.498 1.496-.244.412-.492.337-.715.255-.43-.16-3.26-1.08-8.264.14-1.69.41-3.311.62-4.82.62-2.442 0-3.956-.544-4.556-.815-.506-.237-.38-.582-.328-.715.106-.267.238-.617.331-.863l.063-.163c.016-.045.034-.09.054-.133.194-.392.403-.459.862-.259.074.032 2.761 1.43 8.072.135 2.187-.534 4.003-.697 5.405-.697z" fill="currentColor"/></svg>