<?xml version="1.0" encoding="UTF-8"?>
<svg width="16px" height="16px" viewBox="0 0 16 16" version="1.1" xmlns="http://www.w3.org/2000/svg" xmlns:xlink="http://www.w3.org/1999/xlink">
    <!-- Generator: Sketch 64 (93537) - https://sketch.com -->
    <title>info-circle</title>
    <desc>Created with Sketch.</desc>
    <g id="info-circle" stroke="none" stroke-width="1" fill="none" fill-rule="evenodd">
        <path d="M8,0 C12.418278,0 16,3.581722 16,8 C16,12.418278 12.418278,16 8,16 C3.581722,16 0,12.418278 0,8 C0,3.581722 3.581722,0 8,0 Z M8,1.33333333 C4.31810167,1.33333333 1.33333333,4.31810167 1.33333333,8 C1.33333333,11.6818983 4.31810167,14.6666667 8,14.6666667 C11.6818983,14.6666667 14.6666667,11.6818983 14.6666667,8 C14.6666667,4.31810167 11.6818983,1.33333333 8,1.33333333 Z M8.83333333,6.93333333 L8.83333333,11.6 L7.5,11.6 L7.5,6.93333333 L8.83333333,6.93333333 Z M8.16666667,4.33333333 C8.62690396,4.33333333 9,4.70642938 9,5.16666667 C9,5.62690396 8.62690396,6 8.16666667,6 C7.70642938,6 7.33333333,5.62690396 7.33333333,5.16666667 C7.33333333,4.70642938 7.70642938,4.33333333 8.16666667,4.33333333 Z" id="形状" fill="#000000"></path>
    </g>
</svg>