<svg width="24" height="24" viewBox="0 0 24 24" xmlns="http://www.w3.org/2000/svg"><path d="M12,0 C18.627417,0 24,5.372583 24,12 C24,18.627417 18.627417,24 12,24 C5.372583,24 0,18.627417 0,12 C0,5.372583 5.372583,0 12,0 Z M12,2 C6.4771525,2 2,6.4771525 2,12 C2,17.5228475 6.4771525,22 12,22 C17.5228475,22 22,17.5228475 22,12 C22,6.4771525 17.5228475,2 12,2 Z M13.25,10.4 L13.25,17.4 L11.25,17.4 L11.25,10.4 L13.25,10.4 Z M12.25,6.5 C12.9403559,6.5 13.5,7.05964406 13.5,7.75 C13.5,8.44035594 12.9403559,9 12.25,9 C11.5596441,9 11,8.44035594 11,7.75 C11,7.05964406 11.5596441,6.5 12.25,6.5 Z" fill="#000" fill-rule="evenodd"/></svg>