<?xml version="1.0" encoding="utf-8"?><svg width="24" height="24" viewBox="0 0 24 24" xmlns="http://www.w3.org/2000/svg"><g fill="none" fill-rule="evenodd"><path d="M12,1.5 C17.7989899,1.5 22.5,6.20101013 22.5,12 C22.5,17.7989899 17.7989899,22.5 12,22.5 C6.20101013,22.5 1.5,17.7989899 1.5,12 C1.5,6.20101013 6.20101013,1.5 12,1.5 Z M13.2,10.4 L11.2,10.4 L11.2,17.4 L13.2,17.4 L13.2,10.4 Z M12.2,6.6 C11.5372583,6.6 11,7.1372583 11,7.8 C11,8.4627417 11.5372583,9 12.2,9 C12.8627417,9 13.4,8.4627417 13.4,7.8 C13.4,7.1372583 12.8627417,6.6 12.2,6.6 Z" fill="#000"/></g></svg>