<svg width="24" height="24" viewBox="0 0 24 24" xmlns="http://www.w3.org/2000/svg"><path d="M18,20.5 L18,22.5 L6,22.5 L6,20.5 L18,20.5 Z M18.5,1.5 C20.709139,1.5 22.5,3.290861 22.5,5.5 L22.499,8 L24,8 L24,13 L22.499,13 L22.5,14.5 C22.5,16.709139 20.709139,18.5 18.5,18.5 L5.48122032,18.5 C3.27208132,18.5 1.48122032,16.709139 1.48122032,14.5 L1.481,13 L0,13 L0,8 L1.481,8 L1.48122032,5.5 C1.48122032,3.290861 3.27208132,1.5 5.48122032,1.5 L18.5,1.5 Z M18.5,3.5 L5.48122032,3.5 C4.42685853,3.5 3.5630552,4.31587779 3.48670606,5.35073766 L3.48122032,5.5 L3.48122032,14.5 C3.48122032,15.5543618 4.29709811,16.4181651 5.33195798,16.4945143 L5.48122032,16.5 L18.5,16.5 C19.5543618,16.5 20.4181651,15.6841222 20.4945143,14.6492623 L20.5,14.5 L20.5,5.5 C20.5,4.4456382 19.6841222,3.58183488 18.6492623,3.50548574 L18.5,3.5 Z M9,8 L9,13 L7,13 L7,8 L9,8 Z M17,8 L17,13 L15,13 L15,8 L17,8 Z" fill="#000" fill-rule="evenodd"/></svg>