<svg width="24" height="24" viewBox="0 0 24 24" fill="none" xmlns="http://www.w3.org/2000/svg"><path d="M17.748 12.336 15.67 9.997l2.076-2.332-1.494-1.33L13.882 9a1.5 1.5 0 0 0-.001 1.993l2.371 2.67 1.496-1.327zM9 7v6H7V7h2z" fill="currentColor"/><path fill-rule="evenodd" clip-rule="evenodd" d="M6.5 1.5a5 5 0 0 0-5 5v7a5 5 0 0 0 5 5h11a5 5 0 0 0 5-5v-7a5 5 0 0 0-5-5h-11zm-3 5a3 3 0 0 1 3-3h11a3 3 0 0 1 3 3v7a3 3 0 0 1-3 3h-11a3 3 0 0 1-3-3v-7z" fill="currentColor"/><path d="M6 22.5h12v-2H6v2z" fill="currentColor"/></svg>