<svg width="20" height="24" viewBox="0 0 20 24" fill="none" xmlns="http://www.w3.org/2000/svg"><path clip-rule="evenodd" d="M5 2a4 4 0 0 0-4 4v14.45a1.5 1.5 0 0 0 2.228 1.312l1.4-.778a2 2 0 0 1 1.784-.079l2.776 1.234a2 2 0 0 0 1.624 0l2.776-1.234a2 2 0 0 1 1.784.08l1.4.777A1.5 1.5 0 0 0 19 20.451V6a4 4 0 0 0-4-4H5z" stroke="currentColor" stroke-width="2" stroke-linecap="round" stroke-linejoin="round"/><path d="M5.5 14.6h6" stroke="currentColor" stroke-width="2"/><path transform="matrix(1 0 0 -1 5.5 8.6)" stroke="currentColor" stroke-width="2" d="M0-1 9-1"/></svg>