<svg width="24" height="24" viewBox="0 0 24 24" fill="none" xmlns="http://www.w3.org/2000/svg"><path fill-rule="evenodd" clip-rule="evenodd" d="M8.534 5H20a1 1 0 0 1 1 1v12a1 1 0 0 1-1 1H8.534a1 1 0 0 1-.81-.415L2.966 12l4.756-6.585A1 1 0 0 1 8.534 5zm-2.432-.756A3 3 0 0 1 8.534 3H20a3 3 0 0 1 3 3v12a3 3 0 0 1-3 3H8.534a3 3 0 0 1-2.432-1.244l-4.756-6.585a2 2 0 0 1 0-2.342l4.756-6.585zm10.269 3.513-2.828 2.829-2.829-2.829L9.3 9.172 12.128 12 9.3 14.828l1.414 1.415 2.829-2.829 2.828 2.829 1.414-1.415L14.957 12l2.828-2.828-1.414-1.415z" fill="currentColor"/></svg>