<svg width="24" height="24" viewBox="0 0 24 24" xmlns="http://www.w3.org/2000/svg"><g stroke="none" stroke-width="1" fill="currentColor" fill-rule="nonzero"><path d="m12.643 8.533.094.083 3 3-1.414 1.414-1.35-1.35v15.346l1.35-1.35 1.414 1.415-3 3a1 1 0 0 1-1.32.083l-.094-.083-3-3 1.414-1.414 1.235 1.234V11.794L9.737 13.03l-1.414-1.414 3-3a1 1 0 0 1 1.32-.083z" transform="rotate(90 12.03 19.354)"/><path transform="matrix(-1 0 0 1 14.952 0)" d="M6.63209653 2.2272889 8.49281882 2.23954048 12.8801433 13.5927874 11.0145936 14.3137064 7.541 5.326 3.92794743 14.325958 2.07205257 13.5805358z"/><path d="M10.005 9.653a1 1 0 0 1 .117 1.994l-.117.006H4.941a1 1 0 0 1-.117-1.993l.117-.007h5.064z"/><path transform="matrix(1 0 0 -1 0 16.153)" d="M17.2578837 2.21565817 21.8179277 13.1689051 19.971546 13.9375887 16.352 5.24424689 12.8756689 13.9250778 11.0190679 13.181416 15.4063924 2.22816912z"/></g></svg>