<svg width="24" height="24" viewBox="0 0 24 24" fill="none" xmlns="http://www.w3.org/2000/svg"><path d="M4.2 21.873 5.473 20.6l-1.6-1.6h16.254l-1.6 1.6 1.273 1.273 2.783-2.783a1.4 1.4 0 0 0 0-1.98L19.8 14.327 18.527 15.6l1.6 1.6H3.873l1.6-1.6L4.2 14.327 1.417 17.11a1.4 1.4 0 0 0 0 1.98L4.2 21.873z" fill="currentColor"/><path fill-rule="evenodd" clip-rule="evenodd" d="M8.98 2.2H6.865L2.4 13.8h2.066l1.069-2.938h4.759l1.07 2.938h2.081L8.98 2.2zM6.135 9.225l1.787-4.854 1.773 4.854h-3.56z" fill="currentColor"/><path d="M13.336 2.2h-2.095l4.156 11.6h2.247L21.8 2.2h-2.096l-3.176 9.314L13.336 2.2z" fill="currentColor"/></svg>