<svg width="24" height="24" viewBox="0 0 24 24" fill="none" xmlns="http://www.w3.org/2000/svg"><path fill-rule="evenodd" clip-rule="evenodd" d="M9.543 3.026c-.432 0-.817.27-.965.676l-3.113 8.56h4.973L8.67 21.019 18.64 9.626h-6.004l2.4-6.6H9.543zM6.649 3A3.079 3.079 0 0 1 9.543.974h5.492a2.052 2.052 0 0 1 1.929 2.754l-1.399 3.846h3.074c1.763 0 2.706 2.077 1.544 3.404L10.215 22.37c-1.386 1.584-3.973.305-3.557-1.757l1.272-6.299H5.465a2.052 2.052 0 0 1-1.929-2.754L6.65 3z" fill="currentColor"/></svg>