<svg width="24" height="24" viewBox="0 0 24 24" xmlns="http://www.w3.org/2000/svg"><path d="M3.5,1.5 L3.5,18.2908943 C3.5,19.3452561 4.31587779,20.2090595 5.35073766,20.2854086 L5.5,20.2908943 L22.6711697,20.2908943 L22.6711697,22.2908943 L5.5,22.2908943 C3.35780461,22.2908943 1.60892112,20.6069259 1.50489531,18.4905347 L1.5,18.2908943 L1.5,1.5 L3.5,1.5 Z M19.6162454,5.55004811 L21.152014,6.8312252 L14.5977864,14.6870953 C14.0265681,15.338429 13.0601912,15.4378687 12.3715164,14.9413211 L12.2458085,14.8412234 L9.70467369,12.6104255 C9.65893792,12.599217 9.6111349,12.5932732 9.56194364,12.5932732 C9.48488514,12.5932732 9.41123331,12.6078589 9.34359834,12.6344201 L5.93575573,16.531757 L4.43054222,15.2148165 L8.22681467,10.8758197 C8.79726655,10.2238147 9.76352577,10.1232384 10.4527841,10.6189758 L10.5800842,10.7202171 L13.1040804,12.9373086 C13.1522687,12.9498422 13.2028223,12.9565126 13.2549338,12.9565126 C13.3314535,12.9565126 13.4046141,12.9421302 13.4718596,12.9159211 L19.6162454,5.55004811 Z" fill="#000" fill-rule="evenodd"/></svg>