<svg width="24" height="24" viewBox="0 0 24 24" fill="none" xmlns="http://www.w3.org/2000/svg"><path fill-rule="evenodd" clip-rule="evenodd" d="M2 17V2h2v11.62l1.603-1.572a3.2 3.2 0 1 1 5.972-.431l1.03 1.03a3.185 3.185 0 0 1 1.994-.698c.456 0 .89.095 1.282.267l.757-.857a3.2 3.2 0 1 1 1.794.99l-1.06 1.2a3.2 3.2 0 1 1-5.875.817l-1.089-1.087a3.184 3.184 0 0 1-1.9.625 3.185 3.185 0 0 1-1.54-.394L4 16.42V17a3 3 0 0 0 3 3h14.803v2H7a5 5 0 0 1-5-5zm5.308-6.296a1.2 1.2 0 1 1 2.4 0 1.2 1.2 0 0 1-2.4 0zM14.6 13.95a1.2 1.2 0 1 0 0 2.4 1.2 1.2 0 0 0 0-2.4zM17.8 9.2a1.2 1.2 0 1 1 2.4 0 1.2 1.2 0 0 1-2.4 0z" fill="currentColor"/></svg>