<svg width="24" height="24" viewBox="0 0 24 24" xmlns="http://www.w3.org/2000/svg"><path d="m4.851 2.011.06-.007L5 2l.075.003.126.017.089.023.107.039.103.052.097.064.028.022.082.073 3 3-1.414 1.414L6 5.415v13.17l1.293-1.292 1.414 1.414-3 3a1 1 0 0 1-1.32.083l-.094-.083-3-3 1.414-1.414L4 18.585V5.415L2.707 6.707 1.293 5.293l3-3c.038-.038.078-.073.12-.103l.109-.069.107-.05.105-.035.117-.025zm13.566 17.197v2H10v-2h8.417zm3.666-5.333v2H10v-2h12.083zm-3.666-5.333v2H10v-2h8.417zm3.666-5.334v2H10v-2h12.083z" fill="currentColor" fill-rule="nonzero" stroke="none" stroke-width="1"/></svg>