<svg width="21" height="24" viewBox="0 0 21 24" xmlns="http://www.w3.org/2000/svg"><path d="M1.98126057,1.5 L1.98076526,14.5587875 L4.26076321,12.3211096 C4.01243473,11.9028848 3.85619317,11.4230921 3.82014735,10.9099665 L3.8121323,10.6809712 C3.8121323,8.91006899 5.24132843,7.47446912 7.00433119,7.47446912 C8.76733396,7.47446912 10.1965301,8.91006899 10.1965301,10.6809712 C10.1965301,10.9711859 10.1581469,11.2523956 10.0862014,11.5197576 L11.3344171,12.6630097 C11.8917915,12.1855529 12.6147194,11.8973353 13.4046639,11.8973353 C13.776975,11.8973353 14.1343994,11.9613588 14.4666206,12.0790432 L15.2893491,11.1548502 C14.867145,10.611181 14.6156022,9.9272538 14.6156022,9.18431238 C14.6156022,7.4134102 16.0447983,5.97781033 17.8078011,5.97781033 C19.5708039,5.97781033 21,7.4134102 21,9.18431238 C21,10.9552146 19.5708039,12.3908144 17.8078011,12.3908144 C17.5103044,12.3908144 17.2223128,12.3499362 16.9490894,12.2734667 L16.0416686,13.2962474 C16.3919796,13.8108955 16.5968628,14.4333327 16.5968628,15.1038374 C16.5968628,16.8747395 15.1676666,18.3103394 13.4046639,18.3103394 C11.6416611,18.3103394 10.212465,16.8747395 10.212465,15.1038374 C10.212465,14.8621563 10.2390838,14.6267202 10.289537,14.4003258 L8.97933613,13.2002635 C8.43597272,13.6306519 7.75001009,13.8874732 7.00433119,13.8874732 C6.56258686,13.8874732 6.14179962,13.7973432 5.75920094,13.6343919 L1.98076526,17.3424929 L1.98126057,18.5197242 C1.98126057,19.5688868 2.78949382,20.4284307 3.81465734,20.5044034 L3.96252114,20.5098621 L20.9775473,20.5098621 L20.9775473,22.5 L3.96252114,22.5 C1.84039751,22.5 0.107900564,20.8243352 0.0048494396,18.7183801 L-1.13686838e-13,18.5197242 L-1.13686838e-13,1.5 L1.98126057,1.5 Z M13.4046639,13.8874732 C12.7358811,13.8874732 12.1937256,14.432058 12.1937256,15.1038374 C12.1937256,15.7756167 12.7358811,16.3202015 13.4046639,16.3202015 C14.0734467,16.3202015 14.6156022,15.7756167 14.6156022,15.1038374 C14.6156022,14.432058 14.0734467,13.8874732 13.4046639,13.8874732 Z M7.00433119,9.46460705 C6.33554842,9.46460705 5.79339287,10.0091918 5.79339287,10.6809712 C5.79339287,11.3527505 6.33554842,11.8973353 7.00433119,11.8973353 C7.67311396,11.8973353 8.21526952,11.3527505 8.21526952,10.6809712 C8.21526952,10.0091918 7.67311396,9.46460705 7.00433119,9.46460705 Z M17.8078011,7.96794825 C17.1390183,7.96794825 16.5968628,8.51253302 16.5968628,9.18431238 C16.5968628,9.85609174 17.1390183,10.4006765 17.8078011,10.4006765 C18.4765839,10.4006765 19.0187394,9.85609174 19.0187394,9.18431238 C19.0187394,8.51253302 18.4765839,7.96794825 17.8078011,7.96794825 Z" fill="currentColor" fill-rule="evenodd"/></svg>