<svg width="24" height="24" viewBox="0 0 24 24" fill="none" xmlns="http://www.w3.org/2000/svg"><g clip-path="url(#clip0_338:12786)" fill-rule="evenodd" clip-rule="evenodd" fill="currentColor"><path d="M19.316 4.58a4.194 4.194 0 0 0-5.932 0L10.3 7.665 8.885 6.251l3.085-3.085a6.194 6.194 0 1 1 8.76 8.76l-3.085 3.085-1.415-1.414 3.086-3.085a4.194 4.194 0 0 0 0-5.932zM4.467 19.43a4.194 4.194 0 0 0 5.931 0l3.085-3.086 1.415 1.414-3.086 3.085a6.194 6.194 0 1 1-8.76-8.76l3.086-3.085 1.414 1.415-3.085 3.085a4.194 4.194 0 0 0 0 5.931z"/><path d="m7.149 15.53 7.908-7.909 1.414 1.415-7.908 7.908-1.415-1.414z"/></g><defs><clipPath id="clip0_338:12786"><path fill="currentColor" d="M0 0H24V24H0z"/></clipPath></defs></svg>