<svg width="24" height="24" viewBox="0 0 24 24" xmlns="http://www.w3.org/2000/svg"><path d="M8,15 L8,18 C8,20.1421954 9.68396847,21.8910789 11.8003597,21.9951047 L12,22 C14.1421954,22 15.8910789,20.3160315 15.9951047,18.1996403 L16,18 L16,15 L18,15 L18,18 C18,21.3137085 15.3137085,24 12,24 C8.76160306,24 6.12242824,21.4344251 6.00413847,18.2249383 L6,18 L6,15 L8,15 Z M13,8 L13,17 L11,17 L11,8 L13,8 Z M12,0 C15.2383969,0 17.8775718,2.56557489 17.9958615,5.77506174 L18,6 L18,10 L16,10 L16,6 C16,3.85780461 14.3160315,2.10892112 12.1996403,2.00489531 L12,2 C9.85780461,2 8.10892112,3.68396847 8.00489531,5.80035966 L8,6 L8,10 L6,10 L6,6 C6,2.76160306 8.56557489,0.122428238 11.7750617,0.00413847206 L12,0 Z" fill="#000" transform="rotate(45 12 12)" fill-rule="evenodd"/></svg>