<svg width="24" height="24" viewBox="0 0 24 24" xmlns="http://www.w3.org/2000/svg"><path d="M12.3285624,7.66666667 L12.3285624,9.66666667 L10.5714286,9.66666667 C10.121711,9.66666667 9.74862791,9.99477799 9.67850847,10.4246715 L9.66666667,10.5714286 L9.66666667,20.0952381 C9.66666667,20.5449557 9.99477799,20.9180388 10.4246715,20.9881582 L10.5714286,21 L20.0952381,21 C20.5449557,21 20.9180388,20.6718887 20.9881582,20.2419952 L21,20.0952381 L21,10.5714286 C21,10.121711 20.6718887,9.74862791 20.2419952,9.67850847 L20.0952381,9.66666667 L18.3,9.66666667 L18.3,7.66666667 L20.0952381,7.66666667 C21.6231007,7.66666667 22.8754535,8.84626413 22.9912606,10.3444231 L23,10.5714286 L23,20.0952381 C23,21.6231007 21.8204025,22.8754535 20.3222435,22.9912606 L20.0952381,23 L10.5714286,23 C9.043566,23 7.79121317,21.8204025 7.67540602,20.3222435 L7.66666667,20.0952381 L7.66666667,10.5714286 C7.66666667,9.043566 8.84626413,7.79121317 10.3444231,7.67540602 L10.5714286,7.66666667 L12.3285624,7.66666667 Z M13.4285714,1 C14.956434,1 16.2087868,2.17959746 16.324594,3.67775647 L16.3333333,3.9047619 L16.3333333,13.4285714 C16.3333333,14.956434 15.1537359,16.2087868 13.6555769,16.324594 L13.4285714,16.3333333 L11.701113,16.3333333 L11.701113,14.3333333 L13.4285714,14.3333333 C13.878289,14.3333333 14.2513721,14.005222 14.3214915,13.5753285 L14.3333333,13.4285714 L14.3333333,3.9047619 C14.3333333,3.45504432 14.005222,3.08196125 13.5753285,3.01184181 L13.4285714,3 L3.9047619,3 C3.45504432,3 3.08196125,3.32811132 3.01184181,3.75800482 L3,3.9047619 L3,13.4285714 C3,13.878289 3.32811132,14.2513721 3.75800482,14.3214915 L3.9047619,14.3333333 L5.66071912,14.3333333 L5.66071912,16.3333333 L3.9047619,16.3333333 C2.37689933,16.3333333 1.12454651,15.1537359 1.00873935,13.6555769 L1,13.4285714 L1,3.9047619 C1,2.37689933 2.17959746,1.12454651 3.67775647,1.00873935 L3.9047619,1 L13.4285714,1 Z" fill="#000" fill-rule="evenodd"/></svg>