<svg width="24" height="24" viewBox="0 0 24 24" xmlns="http://www.w3.org/2000/svg"><path d="M4.34649412,17.25 C5.31299613,17.25 6.09649412,18.0334899 6.09649412,19 C6.09649412,19.9665101 5.31299613,20.75 4.34649412,20.75 C3.37999212,20.75 2.59649412,19.9665101 2.59649412,19 C2.59649412,18.0334899 3.37999212,17.25 4.34649412,17.25 Z M21.3464941,18 L21.3464941,20 L8.34649412,20 L8.34649412,18 L21.3464941,18 Z M4.34649412,10.25 C5.31299613,10.25 6.09649412,11.0334899 6.09649412,12 C6.09649412,12.9665101 5.31299613,13.75 4.34649412,13.75 C3.37999212,13.75 2.59649412,12.9665101 2.59649412,12 C2.59649412,11.0334899 3.37999212,10.25 4.34649412,10.25 Z M21.3464941,11 L21.3464941,13 L8.34649412,13 L8.34649412,11 L21.3464941,11 Z M4.34649412,3.25 C5.31299269,3.25 6.09649412,4.03350144 6.09649412,5 C6.09649412,5.96651012 5.31299613,6.75 4.34649412,6.75 C3.37999212,6.75 2.59649412,5.96651012 2.59649412,5 C2.59649412,4.03350144 3.37999556,3.25 4.34649412,3.25 Z M21.3464941,4 L21.3464941,6 L8.34649412,6 L8.34649412,4 L21.3464941,4 Z" fill="currentColor" fill-rule="nonzero"/></svg>