<svg width="24" height="24" viewBox="0 0 24 24" xmlns="http://www.w3.org/2000/svg"><path d="M6.32998945,16.1259623 C6.65749767,16.3443011 6.90797284,16.5947763 7.07791733,16.8780171 C7.50281646,17.5861823 7.37503077,18.30988 6.94417234,18.9524681 L6.91,18.999 L6.94417234,19.0475319 C7.34425517,19.6442209 7.48301508,20.3108461 7.16059865,20.9700307 L7.07791733,21.1219829 C6.90797284,21.4052237 6.65749767,21.6556989 6.32998945,21.8740377 C5.23538508,22.603774 4.16880408,22.4427806 3.33129633,21.7496707 C3.07684994,21.5390944 2.89755446,21.327467 2.78992658,21.1660251 C2.56016223,20.8213786 2.65329263,20.3557266 2.99793915,20.1259623 C3.34258567,19.8961979 3.80823767,19.9893283 4.03800202,20.3339749 C4.07099914,20.3834705 4.15977006,20.4882493 4.2876479,20.5940793 C4.65375343,20.8970631 5.01051226,20.9509135 5.49793915,20.6259623 C5.64959759,20.5248567 5.74287242,20.4315818 5.79167794,20.3502393 C5.86767886,20.2235711 5.82813941,20.0522335 5.64729763,19.8111111 L5.59788458,19.7499686 L4.9139643,19.75 C4.49975074,19.75 4.1639643,19.4142136 4.1639643,19 C4.1639643,18.6203042 4.44611818,18.306509 4.81219374,18.2568466 L4.9139643,18.25 L5.59788307,18.2518175 C5.61415193,18.2320098 5.63072979,18.2109793 5.64729763,18.1888889 C5.82813941,17.9477665 5.86767886,17.7764289 5.79167794,17.6497607 C5.74287242,17.5684182 5.64959759,17.4751433 5.49793915,17.3740377 C5.01052149,17.0490926 4.65376949,17.1029474 4.28766397,17.4059416 C4.15978211,17.5117785 4.07100779,17.6165648 4.03800842,17.6660655 C3.80824938,18.0107156 3.3425988,18.1038532 2.99794875,17.8740941 C2.6532987,17.6443351 2.56016114,17.1786845 2.78992018,16.8340345 C2.89754815,16.6725871 3.07684459,16.4609514 3.33129299,16.2503662 C4.16879901,15.5572341 5.2353823,15.3962242 6.32998945,16.1259623 Z M21.4139643,18 L21.4139643,20 L8.4139643,20 L8.4139643,18 L21.4139643,18 Z M5.28338314,8.639556 C5.77730648,8.76304918 6.20417217,9.08321339 6.53800202,9.58397485 C6.85758902,10.0633553 6.92004189,10.609818 6.75633401,11.1555109 C6.59052279,11.708215 6.21097559,12.2333985 5.66963185,12.7504177 L6.4139643,12.75 C6.82817786,12.75 7.1639643,13.0857864 7.1639643,13.5 C7.1639643,13.8796958 6.88181042,14.193491 6.51573486,14.2431534 L6.4139643,14.25 L3.40660117,14.250085 C3.39419423,14.2499515 3.38180643,14.2495101 3.36944938,14.2487639 L3.4139643,14.25 C3.26294894,14.25 3.12235819,14.2053669 3.00466389,14.1285726 C2.97616277,14.1101468 2.94861579,14.0894544 2.92246376,14.0667749 C2.8608668,14.0130671 2.80794489,13.949527 2.76636128,13.8785394 L2.76278194,13.8721042 C2.73970742,13.8317238 2.72079893,13.7901015 2.70592091,13.7477345 C2.67879293,13.6706263 2.6639643,13.5870449 2.6639643,13.5 C2.6639643,13.4167071 2.67754215,13.3365854 2.70260522,13.2617276 C2.70830192,13.2452796 2.71458876,13.2284646 2.72147455,13.2118815 L2.76636128,13.1214606 C2.77246323,13.111044 2.77880931,13.1007877 2.78539168,13.0906996 C2.80116704,13.0662795 2.81866665,13.0425089 2.83763529,13.0197395 C2.89332668,12.9532706 2.96019346,12.8964666 3.03542494,12.852397 L3.04186009,12.8488176 L3.23228902,12.7335525 L3.4205216,12.6124516 C3.71282729,12.420191 4.00493657,12.2078901 4.27468397,11.9839034 C4.84043382,11.514129 5.21838464,11.0618556 5.31959458,10.7244891 C5.35988671,10.590182 5.35033958,10.5066447 5.28992018,10.4160155 C5.15500642,10.2136382 5.03499712,10.123627 4.91954546,10.0947612 C4.75620104,10.053921 4.51362739,10.1251086 4.24544886,10.2975085 C4.18792822,10.334486 4.13598247,10.3713818 4.09125776,10.4054422 L3.98039292,10.496363 C3.96607469,10.5091808 3.95397325,10.5206012 3.94429438,10.5302801 C3.65140117,10.8231733 3.17652743,10.8231733 2.88363421,10.5302801 C2.59074099,10.2373869 2.59074099,9.76251313 2.88363421,9.46961991 C3.00190283,9.35135129 3.18923444,9.19329047 3.4343143,9.03573963 C4.01683508,8.66126318 4.63942987,8.47855158 5.28338314,8.639556 Z M21.4139643,11 L21.4139643,13 L8.4139643,13 L8.4139643,11 L21.4139643,11 Z M4.9139643,1.25 C5.05419285,1.25 5.18543283,1.28848464 5.29769859,1.35546827 C5.307741,1.36137071 5.31757644,1.36753182 5.32728127,1.37393263 C5.34603805,1.38647736 5.36419534,1.39970148 5.38171175,1.4136942 C5.39186534,1.42157741 5.40170302,1.42985418 5.41135064,1.43841024 C5.42892881,1.45422888 5.44581427,1.47067321 5.46189912,1.48787558 C5.46832302,1.49457854 5.47530641,1.50236453 5.48214869,1.51032399 C5.49761627,1.52837522 5.51203909,1.54677442 5.52559328,1.56583438 C5.5293755,1.57124439 5.53372954,1.57756614 5.53800202,1.58397485 L5.54968183,1.60186394 C5.56140044,1.62053604 5.57231921,1.63976108 5.5823901,1.65949102 L5.53800202,1.58397485 C5.56095777,1.61840848 5.58069039,1.65404999 5.59727105,1.69054345 C5.60802737,1.71400503 5.61785555,1.73907807 5.62633315,1.76476527 C5.62890666,1.77261624 5.63111824,1.77968036 5.63322071,1.7867637 C5.6402872,1.8105757 5.64632092,1.8354828 5.65107854,1.86083981 C5.65315368,1.87160338 5.65482176,1.88164808 5.65628222,1.89170773 C5.65646158,1.89347875 5.6567952,1.89585233 5.65711768,1.89822944 L5.66247029,1.95072981 C5.66333689,1.96408523 5.66384438,1.97744495 5.66399573,1.99079415 L5.66388458,5.74996856 L6.4139643,5.75 C6.82817786,5.75 7.1639643,6.08578644 7.1639643,6.5 C7.1639643,6.87969577 6.88181042,7.19349096 6.51573486,7.24315338 L6.4139643,7.25 L3.4139643,7.25 C2.99975074,7.25 2.6639643,6.91421356 2.6639643,6.5 C2.6639643,6.12030423 2.94611818,5.80650904 3.31219374,5.75684662 L3.4139643,5.75 L4.16388458,5.74996856 L4.16388458,3.40096856 L3.82998945,3.62403772 C3.48534293,3.85380207 3.01969092,3.76067166 2.78992658,3.41602515 C2.5810499,3.10271013 2.63902839,2.68939058 2.91023421,2.4442056 L2.99793915,2.37596228 L4.49793915,1.37596228 L4.51582824,1.36428246 C4.53450034,1.35256386 4.55372538,1.34164509 4.57345532,1.3315742 L4.49793915,1.37596228 C4.53237278,1.35300653 4.56801429,1.33327391 4.60450774,1.31669324 C4.62796932,1.30593693 4.65304237,1.29610874 4.67872957,1.28763115 C4.68658054,1.28505764 4.69364466,1.28284606 4.700728,1.28074359 C4.72454,1.2736771 4.7494471,1.26764338 4.77480411,1.26288575 C4.78523612,1.26087271 4.79494787,1.25925313 4.8046738,1.25782769 C4.8256237,1.25482896 4.84748822,1.25257996 4.8696102,1.25128979 C4.88205721,1.25048318 4.89341163,1.25009721 4.90475844,1.24996856 L4.9139643,1.25 L4.9139643,1.25 Z M21.4139643,4 L21.4139643,6 L8.4139643,6 L8.4139643,4 L21.4139643,4 Z" fill="currentColor" fill-rule="nonzero"/></svg>