<svg width="21" height="24" viewBox="0 0 21 24" xmlns="http://www.w3.org/2000/svg"><path d="M8.12365286,1.07457626 C12.6078729,1.07457626 16.2473057,4.83140108 16.2473057,9.47122134 C16.2473057,13.866781 13.8322656,18.2860813 9.08752083,22.7386169 C8.74205044,23.0628112 8.22553724,23.088193 7.85239801,22.7993118 C2.65281404,18.7738371 5.5067062e-14,14.3239663 5.5067062e-14,9.47122134 C5.5067062e-14,4.83297947 3.64016643,1.07457626 8.12365286,1.07457626 Z M14.381859,1 C18.1603041,1 21,4.37604939 21,8.22146761 C21,11.9564201 19.2080172,16.9636204 16.1722574,20.7596356 L15.8746098,21.1231276 L14.40446,19.7808201 C17.3114031,16.3141635 19.0465116,11.5788954 19.0465116,8.22146761 C19.0465116,5.51997718 17.1258349,3.16543673 14.5888826,3.04338439 L14.381859,3.03841771 L14.381859,1 Z M8.12365286,3.11299396 C4.71444349,3.11299396 1.95348837,5.96362807 1.95348837,9.47122134 C1.95348837,13.3879861 4.0406945,17.0899573 8.30565873,20.5955128 L8.30565873,20.5955128 L8.3755814,20.6517388 L8.81022121,20.2189768 C12.3796995,16.5910919 14.1858738,13.1072256 14.2891208,9.77409547 L14.2891208,9.77409547 L14.2938174,9.47122134 C14.2938174,5.96215056 11.5336902,3.11299396 8.12365286,3.11299396 Z M8.12365286,6.04632676 C10.2419453,6.04632676 11.9591605,7.83819922 11.9591605,10.0485859 C11.9591605,12.2589726 10.2419453,14.0508451 8.12365286,14.0508451 C6.00536048,14.0508451 4.28814521,12.2589726 4.28814521,10.0485859 C4.28814521,7.83819922 6.00536048,6.04632676 8.12365286,6.04632676 Z M8.12365286,8.08474447 C7.08424231,8.08474447 6.24163358,8.96398624 6.24163358,10.0485859 C6.24163358,11.1331856 7.08424231,12.0124274 8.12365286,12.0124274 C9.16306341,12.0124274 10.0056721,11.1331856 10.0056721,10.0485859 C10.0056721,8.96398624 9.16306341,8.08474447 8.12365286,8.08474447 Z" fill="#000" fill-rule="evenodd"/></svg>