<svg width="22" height="24" viewBox="0 0 22 24" fill="none" xmlns="http://www.w3.org/2000/svg"><path d="M8.624 8.046c.934 0 1.835.816 1.835 2.003 0 1.187-.901 2.002-1.835 2.002-.935 0-1.836-.816-1.836-2.002 0-1.187.901-2.003 1.836-2.003z" fill="currentColor"/><path fill-rule="evenodd" clip-rule="evenodd" d="M16.747 9.471c0-4.64-3.64-8.396-8.123-8.396C4.14 1.075.5 4.833.5 9.47c0 4.853 2.653 9.303 7.852 13.328a.946.946 0 0 0 1.236-.06c4.744-4.453 7.16-8.872 7.16-13.268zm-4.288.578c0-2.21-1.717-4.003-3.835-4.003-2.119 0-3.836 1.792-3.836 4.003 0 2.21 1.717 4.002 3.836 4.002 2.118 0 3.835-1.792 3.835-4.002z" fill="currentColor"/><path d="M21.5 8.221C21.5 4.376 18.66 1 14.882 1v2.038l.207.005c2.537.122 4.458 2.477 4.458 5.178 0 3.358-1.736 8.093-4.643 11.56l1.47 1.342.298-.363C19.708 16.964 21.5 11.956 21.5 8.22z" fill="currentColor"/></svg>