<svg width="24" height="24" viewBox="0 0 24 24" fill="none" xmlns="http://www.w3.org/2000/svg"><path fill-rule="evenodd" clip-rule="evenodd" d="M12.25 1A4.25 4.25 0 0 0 11 9.313V12.5h2V9.434A4.251 4.251 0 0 0 12.25 1zM10 5.25a2.25 2.25 0 1 1 4.5 0 2.25 2.25 0 0 1-4.5 0z" fill="currentColor"/><path d="M5.1 10.898a1.432 1.432 0 0 1 1.23-.698h2.82v2H6.652l-2.39 4h15.54l-2.216-4H14.85v-2h3.07c.521 0 1 .282 1.253.738l2.38 4.292c.738 1.334-.226 2.97-1.75 2.97H4.263c-1.553 0-2.514-1.693-1.718-3.026L5.1 10.898zM2.2 22h19.6v-2H2.2v2z" fill="currentColor"/></svg>