<svg width="20" height="24" viewBox="0 0 20 24" xmlns="http://www.w3.org/2000/svg"><path d="M10,-1.77635684e-14 C15.5228475,-1.77635684e-14 20,4.4553645 20,9.95133514 L19.9986831,10.3859242 C19.9901235,11.3265567 19.9259259,12.2839956 19.4444444,13.7098165 L19.3855305,13.8644108 C19.0539846,14.6587269 17.9211586,16.4702802 15.6222222,19.1718074 L15.454701,19.3634737 C14.7778747,20.1207564 13.412651,21.4776059 11.3590296,23.4340221 C10.6250333,24.1332758 9.49021455,24.1863227 8.69529552,23.583549 L8.55869483,23.4703674 L7.92393079,22.8860747 C6.66689583,21.707564 5.48484483,20.4694749 4.37777778,19.1718074 L3.90354849,18.6091892 C1.7007086,15.9628031 0.778869362,14.3711202 0.555555556,13.7098165 C-1.58095759e-13,12.0646385 -1.58095759e-13,11.0745435 -1.58095759e-13,9.95133514 C-1.58095759e-13,4.4553645 4.4771525,-1.77635684e-14 10,-1.77635684e-14 Z M10,2.01808499 C5.69441423,2.01808499 2.18188575,5.43112301 2.04838081,9.69929894 L2.04691409,10.4841426 C2.06048005,11.426527 2.16117066,12.0828121 2.49508585,13.071642 C2.70798786,13.702113 3.90811072,15.4883019 5.94158392,17.8718723 C6.82334474,18.9054433 7.75502835,19.8996304 8.72890678,20.8472278 L9.3182354,21.4101379 L9.93927566,21.9819133 L10.9661349,20.9982527 C12.4862033,19.5330837 13.5018221,18.5085708 13.9849335,17.9569502 L14.4690274,17.3835132 C16.2076986,15.2904327 17.3184919,13.6236979 17.5049141,13.071642 C17.8229496,12.1298372 17.9284661,11.4995 17.9505579,10.586238 L17.9550091,10.2705234 L17.9555556,9.95133514 C17.9555556,5.56627984 14.390009,2.01808499 10,2.01808499 Z M9.98582404,6.15630666 C12.463332,6.15630666 14.4717491,8.13882877 14.4717491,10.5843937 C14.4717491,13.0299587 12.463332,15.0124808 9.98582404,15.0124808 C7.50831605,15.0124808 5.49989899,13.0299587 5.49989899,10.5843937 C5.49989899,8.13882877 7.50831605,6.15630666 9.98582404,6.15630666 Z M9.98582404,8.1789782 C8.63999771,8.1789782 7.5489899,9.25591942 7.5489899,10.5843937 C7.5489899,11.912868 8.63999771,12.9898092 9.98582404,12.9898092 C11.3316504,12.9898092 12.4226582,11.912868 12.4226582,10.5843937 C12.4226582,9.25591942 11.3316504,8.1789782 9.98582404,8.1789782 Z" fill="#000" fill-rule="evenodd"/></svg>