<svg width="24" height="24" viewBox="0 0 24 24" xmlns="http://www.w3.org/2000/svg"><path d="M12.0375244,0.997727273 C17.3062088,0.997727273 21.5773215,5.26883991 21.5773215,10.5375244 C21.5773215,12.989993 20.6462699,15.296788 19.0755702,16.9766751 L18.7918073,17.2665201 L15.0272356,21.894471 C13.6803014,23.5510778 11.2454504,23.8021171 9.58884352,22.4551829 C9.45466272,22.3460848 9.32802952,22.2281678 9.2097736,22.1022589 L9.03877638,21.907505 L4.96518177,16.9399414 C3.38749125,15.1981229 2.49772727,12.9358495 2.49772727,10.5375244 C2.49772727,5.26883991 6.76883991,0.997727273 12.0375244,0.997727273 Z M12.0375244,3.00227273 C7.8759198,3.00227273 4.50227273,6.3759198 4.50227273,10.5375244 C4.50227273,12.3071558 5.11350183,13.9792145 6.23485898,15.3437827 L6.48292104,15.6314072 L10.5885735,20.6361548 C10.6677871,20.7327197 10.7565189,20.8210665 10.8534273,20.8998596 C11.5978777,21.5051486 12.6687424,21.4402093 13.3356055,20.780219 L13.4720548,20.629712 L17.3125948,15.9183875 C18.7494608,14.5095741 19.572776,12.5901914 19.572776,10.5375244 C19.572776,6.3759198 16.1991289,3.00227273 12.0375244,3.00227273 Z M12.0375244,6.10113717 C14.4611735,6.10113717 16.4259293,8.06589298 16.4259293,10.4895421 C16.4259293,12.9131912 14.4611735,14.8779471 12.0375244,14.8779471 C9.61387524,14.8779471 7.64911942,12.9131912 7.64911942,10.4895421 C7.64911942,8.06589298 9.61387524,6.10113717 12.0375244,6.10113717 Z M12.0375244,8.10568262 C10.7209551,8.10568262 9.65366488,9.17297287 9.65366488,10.4895421 C9.65366488,11.8061114 10.7209551,12.8734016 12.0375244,12.8734016 C13.3540936,12.8734016 14.4213839,11.8061114 14.4213839,10.4895421 C14.4213839,9.17297287 13.3540936,8.10568262 12.0375244,8.10568262 Z" fill="#000" fill-rule="evenodd"/></svg>