<svg width="24" height="24" viewBox="0 0 24 24" xmlns="http://www.w3.org/2000/svg"><path d="M12.2,0.5 C16.0659932,0.5 19.2,3.63400675 19.2,7.5 L19.2,8.454 L21.4261905,8.45466374 L21.4261905,20.4313812 C21.4261905,22.0882354 20.0830447,23.4313812 18.4261905,23.4313812 L5.7,23.4313812 C4.04314575,23.4313812 2.7,22.0882354 2.7,20.4313812 L2.7,8.45466374 L5.2,8.454 L5.2,7.5 C5.2,3.63400675 8.33400675,0.5 12.2,0.5 Z M19.409,10.471 L4.716,10.471 L4.71666667,20.4313812 C4.71666667,20.9356697 5.09627285,21.3512965 5.58532256,21.4080989 L5.7,21.4147145 L18.4261905,21.4147145 C18.9304791,21.4147145 19.3461059,21.0351083 19.4029082,20.5460586 L19.4095238,20.4313812 L19.409,10.471 Z M13.0253521,13.5000171 L13.0713926,18.9476089 L11.0547979,18.9646522 L11.0087575,13.5170604 L13.0253521,13.5000171 Z M12.2,2.5 C9.5112453,2.5 7.31818189,4.62230671 7.20461951,7.28311038 L7.2,7.5 L7.2,8.454 L17.2,8.454 L17.2,7.5 C17.2,4.73857625 14.9614237,2.5 12.2,2.5 Z" fill="#000" fill-rule="evenodd"/></svg>