<svg width="24" height="24" viewBox="0 0 24 24" fill="none" xmlns="http://www.w3.org/2000/svg"><path fill-rule="evenodd" clip-rule="evenodd" d="M2 4a2 2 0 0 1 2-2h16a2 2 0 0 1 2 2v2a2 2 0 0 1-2 2H4a2 2 0 0 1-2-2V4zm18 0H4v2h16V4z" fill="currentColor"/><path d="M4 9v8a3 3 0 0 0 3 3h10a3 3 0 0 0 3-3V9h2v8a5 5 0 0 1-5 5H7a5 5 0 0 1-5-5V9h2z" fill="currentColor"/><path fill-rule="evenodd" clip-rule="evenodd" d="M11.037 10.38A1.3 1.3 0 0 0 9 11.45v5.1a1.3 1.3 0 0 0 2.037 1.07l3.708-2.549a1.3 1.3 0 0 0 0-2.142l-3.708-2.55zM13.479 14 10.6 15.98v-3.96L13.479 14z" fill="currentColor"/></svg>