<svg width="20" height="24" viewBox="0 0 20 24" fill="none" xmlns="http://www.w3.org/2000/svg"><path d="M.2 3.6a1.4 1.4 0 0 1 1.4-1.4h16.8a1.4 1.4 0 0 1 1.4 1.4v1.8a1.4 1.4 0 0 1-1.4 1.4H1.6A1.4 1.4 0 0 1 .2 5.4V3.6zM8.6 16.68l2.879-1.98L8.6 12.72v3.96z" fill="currentColor"/><path fill-rule="evenodd" clip-rule="evenodd" d="M2 8a2 2 0 0 0-2 2v7a5 5 0 0 0 5 5h10a5 5 0 0 0 5-5v-7a2 2 0 0 0-2-2H2zm5 4.15a1.3 1.3 0 0 1 2.036-1.07l3.709 2.549a1.3 1.3 0 0 1 0 2.142l-3.709 2.55A1.3 1.3 0 0 1 7 17.249v-5.098z" fill="currentColor"/></svg>