<svg width="21" height="24" viewBox="0 0 21 24" xmlns="http://www.w3.org/2000/svg"><path d="M2,9.569869 L2,19.6572052 C2,20.0853427 2.28351664,20.4220659 2.63106435,20.4752132 L2.72727273,20.4825328 L18.2727273,20.4825328 C18.6301031,20.4825328 18.943401,20.1814877 18.9931356,19.7715592 L19,19.6572052 L19,9.569869 L21,9.569869 L21,19.6572052 C21,21.1582613 19.8786704,22.4045115 18.4400806,22.4947673 L18.2727273,22.5 L2.72727273,22.5 C1.26546771,22.5 0.0899972344,21.3093444 0.00493056645,19.8292219 L0,19.6572052 L0,9.569869 L2,9.569869 Z M7.72115977,10.5786026 C7.72115977,9.80007126 8.55837416,9.3150004 9.22503079,9.7072798 L9.22503079,9.7072798 L15.0068808,13.1094819 C15.6683861,13.4987301 15.6683861,14.4628794 15.0068808,14.8521276 L15.0068808,14.8521276 L9.22503079,18.2543297 C8.55837416,18.6466091 7.72115977,18.1615383 7.72115977,17.3830069 L7.72115977,17.3830069 Z M9.721,12.3337991 L9.721,15.6263057 L12.518,13.9800524 L9.721,12.3337991 Z M19,1.5 C20.1045695,1.5 21,2.40325085 21,3.51746725 L21,3.51746725 L21,5.5349345 C21,6.64915089 20.1045695,7.55240175 19,7.55240175 L19,7.55240175 L2,7.55240175 C0.8954305,7.55240175 0,6.64915089 0,5.5349345 L0,5.5349345 L0,3.51746725 C0,2.40325085 0.8954305,1.5 2,1.5 L2,1.5 Z M19,3.51746725 L2,3.51746725 L2,5.5349345 L19,5.5349345 L19,3.51746725 Z" fill="#000" fill-rule="evenodd"/></svg>