<svg width="21" height="24" viewBox="0 0 21 24" xmlns="http://www.w3.org/2000/svg"><path d="M18,1.5 C19.6568542,1.5 21,2.84314575 21,4.5 L21,19.5 C21,21.1568542 19.6568542,22.5 18,22.5 L3,22.5 C1.34314575,22.5 0,21.1568542 0,19.5 L0,4.5 C0,2.84314575 1.34314575,1.5 3,1.5 L18,1.5 Z M18,3.5 L3,3.5 C2.48716416,3.5 2.06449284,3.88604019 2.00672773,4.38337887 L2,4.5 L2,19.5 C2,20.0128358 2.38604019,20.4355072 2.88337887,20.4932723 L3,20.5 L18,20.5 C18.5128358,20.5 18.9355072,20.1139598 18.9932723,19.6166211 L19,19.5 L19,4.5 C19,3.98716416 18.6139598,3.56449284 18.1166211,3.50672773 L18,3.5 Z M7.25,6.062 L8.485,6.647 C8.173,7.596 7.783,8.506 7.289,9.377 L7.289,9.377 L7.289,18.178 L5.963,18.178 L5.963,11.353 C5.612,11.795 5.235,12.224 4.845,12.64 L4.845,12.64 L4.403,11.21 C5.677,9.754 6.626,8.038 7.25,6.062 L7.25,6.062 Z M11.956,15.097 C12.658,15.981 13.191,16.774 13.568,17.45 L13.568,17.45 L12.554,18.152 C12.164,17.437 11.657,16.644 11.033,15.76 L11.033,15.76 Z M15.05,6.257 L15.791,7.336 C15.154,7.544 14.413,7.752 13.568,7.96 C13.581,9.039 13.62,9.975 13.672,10.768 L13.672,10.768 L16.246,10.768 L16.246,12.055 L13.776,12.055 C13.815,12.523 13.867,12.913 13.945,13.251 C14.153,14.382 14.374,15.188 14.621,15.669 C14.855,16.163 15.037,16.423 15.141,16.423 C15.232,16.423 15.336,15.773 15.44,14.486 L15.44,14.486 L16.558,15.097 C16.298,17.034 15.895,18.009 15.362,18.009 C14.92,18.009 14.465,17.658 13.984,16.982 C13.503,16.306 13.1,15.227 12.762,13.771 C12.645,13.264 12.554,12.692 12.476,12.055 L12.476,12.055 L9.889,12.055 L9.889,16.085 C10.175,15.955 10.461,15.825 10.747,15.682 L10.747,15.682 L10.968,16.852 C10.227,17.138 9.369,17.45 8.381,17.775 L8.381,17.775 L8.03,16.618 C8.394,16.501 8.576,16.267 8.576,15.929 L8.576,15.929 L8.576,7.635 C11.293,7.232 13.451,6.777 15.05,6.257 L15.05,6.257 Z M12.255,8.246 C11.527,8.389 10.734,8.532 9.889,8.662 L9.889,8.662 L9.889,10.768 L12.359,10.768 C12.307,9.988 12.268,9.143 12.255,8.246 Z" fill="currentColor" fill-rule="evenodd"/></svg>