<svg width="24" height="24" viewBox="0 0 24 24" fill="none" xmlns="http://www.w3.org/2000/svg"><path fill-rule="evenodd" clip-rule="evenodd" d="M13.976 12.055h-2.587v4.03c.286-.13.572-.26.858-.403l.221 1.17c-.741.286-1.599.598-2.587.923l-.351-1.157c.364-.117.546-.351.546-.689V7.635c2.717-.403 4.875-.858 6.474-1.378l.741 1.079a31.49 31.49 0 0 1-2.223.624c.013 1.079.052 2.015.104 2.808h2.574v1.287h-2.47c.039.468.091.858.169 1.196.208 1.131.429 1.937.676 2.418.234.494.416.754.52.754.091 0 .195-.65.299-1.937l1.118.611c-.26 1.937-.663 2.912-1.196 2.912-.442 0-.897-.351-1.378-1.027-.481-.676-.884-1.755-1.222-3.211a16.823 16.823 0 0 1-.286-1.716zm-.117-1.287a48.454 48.454 0 0 1-.104-2.522c-.728.143-1.521.286-2.366.416v2.106h2.47z" fill="currentColor"/><path d="m12.533 15.76.923-.663c.702.884 1.235 1.677 1.612 2.353l-1.014.702c-.39-.715-.897-1.508-1.521-2.392zM5.903 11.21C7.177 9.754 8.126 8.038 8.75 6.062l1.235.585a14.992 14.992 0 0 1-1.196 2.73v8.801H7.463v-6.825c-.351.442-.728.871-1.118 1.287l-.442-1.43z" fill="currentColor"/><path fill-rule="evenodd" clip-rule="evenodd" d="M6.5 1.5a5 5 0 0 0-5 5v11a5 5 0 0 0 5 5h11a5 5 0 0 0 5-5v-11a5 5 0 0 0-5-5h-11zm-3 5a3 3 0 0 1 3-3h11a3 3 0 0 1 3 3v11a3 3 0 0 1-3 3h-11a3 3 0 0 1-3-3v-11z" fill="currentColor"/></svg>