<svg width="24" height="24" viewBox="0 0 24 24" fill="none" xmlns="http://www.w3.org/2000/svg"><path fill-rule="evenodd" clip-rule="evenodd" d="M13 1h-2v4h2V1zM5 7h14a4 4 0 0 1 4 4v2a4 4 0 0 1-4 4H5a4 4 0 0 1-4-4v-2a4 4 0 0 1 4-4zm8 2h-2v6h2V9zm5.809-7L20.2 3.437 17.686 5.87l-1.391-1.436L18.809 2zM3.799 3.44l1.392-1.437 2.514 2.435-1.391 1.437L3.8 3.44zM13 23h-2v-4h2v4zm-9.2-2.436L5.19 22l2.514-2.435-1.391-1.436L3.8 20.563zm15.009 1.433L20.2 20.56l-2.514-2.435-1.391 1.437 2.514 2.435z" fill="currentColor"/></svg>