<svg width="40" height="40" viewBox="0 0 40 40" xmlns="http://www.w3.org/2000/svg"><path d="M23.7333918,4.2 L23.7333918,6.2 L4.63243243,6.2 C3.22919842,6.2 2.09065959,7.25782298 2.00515547,8.58264724 L2,8.74285714 L2,32.6571429 C2,34.0020619 3.08456829,35.1116125 4.46536534,35.1949731 L4.63243243,35.2 L22.7455091,35.2005984 C21.9736061,33.8617477 21.532,32.3084451 21.532,30.652 C21.532,25.6151631 25.6151631,21.532 30.652,21.532 C31.6834266,21.532 32.6748623,21.7032212 33.5994342,22.0187907 L33.6,15.5 L35.6,15.5 L35.5997522,22.9894924 C38.1104686,24.614026 39.772,27.4389773 39.772,30.652 C39.772,35.6888369 35.6888369,39.772 30.652,39.772 C28.1847144,39.772 25.9462641,38.7922398 24.3044883,37.2005587 L4.63243243,37.2 C2.15246204,37.2 0.119216253,35.2860028 0.00505524546,32.8714543 L-4.26325641e-14,32.6571429 L-4.26325641e-14,8.74285714 C-4.26325641e-14,6.30008718 1.96238949,4.31629653 4.4148083,4.20493116 L4.63243243,4.2 L23.7333918,4.2 Z M30.652,23.532 C26.7197326,23.532 23.532,26.7197326 23.532,30.652 C23.532,34.5842674 26.7197326,37.772 30.652,37.772 C34.5842674,37.772 37.772,34.5842674 37.772,30.652 C37.772,26.7197326 34.5842674,23.532 30.652,23.532 Z M28.4000814,27.992 C28.4000814,27.2973882 29.1535744,26.8646043 29.7535653,27.214599 L29.7535653,27.214599 L34.1477714,29.7778858 C34.7431261,30.1251761 34.7431261,30.9853976 34.1477714,31.3326879 L34.1477714,31.3326879 L29.7535653,33.8959747 C29.1535744,34.2459694 28.4000814,33.8131854 28.4000814,33.1185737 L28.4000814,33.1185737 Z M30.2,29.559 L30.2,31.551 L31.907,30.555 L30.2,29.559 Z M25.5573771,18.2801822 C25.8595114,18.4704121 26.1244778,18.7125437 26.3405016,18.9945464 L26.3574929,18.9855042 L27.1637052,20.3291913 L25.4487193,21.3581828 L24.8164469,20.3043955 C24.735737,20.169879 24.6245123,20.0562374 24.4917617,19.9726549 C24.0578133,19.6994321 23.4944199,19.80093 23.1805478,20.1909872 L23.1127176,20.2860835 L17.5531329,29.116141 C17.2103104,29.6606318 16.4605556,29.7370551 16.0133802,29.3041135 L15.9281898,29.2107214 L11.9057412,24.2181051 C11.844921,24.1426159 11.7734473,24.0763716 11.6935632,24.0214513 C11.2734656,23.7326341 10.7106682,23.8086549 10.3804771,24.1800124 L10.3029925,24.2789644 L6.32404192,30.0665288 L4.67595808,28.9334712 L8.65490863,23.1459067 C9.59356431,21.7805894 11.4613035,21.4347117 12.8266209,22.3733674 C13.0063601,22.4969381 13.1719068,22.6396181 13.3204219,22.798776 L13.4631547,22.963329 L16.606,26.865 L21.4202657,19.2204351 C22.3030718,17.8185194 24.1553176,17.3974168 25.5573771,18.2801822 Z M9.5,12 C11.4329966,12 13,13.5670034 13,15.5 C13,17.4329966 11.4329966,19 9.5,19 C7.56700338,19 6,17.4329966 6,15.5 C6,13.5670034 7.56700338,12 9.5,12 Z M9.5,14 C8.67157288,14 8,14.6715729 8,15.5 C8,16.3284271 8.67157288,17 9.5,17 C10.3284271,17 11,16.3284271 11,15.5 C11,14.6715729 10.3284271,14 9.5,14 Z M35.5,0 L35.5,4.299 L40,4.3 L40,6.3 L35.5,6.299 L35.5,12 L33.5,12 L33.5,6.299 L28,6.3 L28,4.3 L33.5,4.299 L33.5,0 L35.5,0 Z" fill="#000" fill-rule="evenodd"/></svg>