<svg width="21" height="24" viewBox="0 0 21 24" xmlns="http://www.w3.org/2000/svg"><path d="M18,1.5 C19.6568542,1.5 21,2.84314575 21,4.5 L21,19.5 C21,21.1568542 19.6568542,22.5 18,22.5 L3,22.5 C1.34314575,22.5 0,21.1568542 0,19.5 L0,4.5 C0,2.84314575 1.34314575,1.5 3,1.5 L18,1.5 Z M18,3.5 L3,3.5 C2.48716416,3.5 2.06449284,3.88604019 2.00672773,4.38337887 L2,4.5 L2,19.5 C2,20.0128358 2.38604019,20.4355072 2.88337887,20.4932723 L3,20.5 L18,20.5 C18.5128358,20.5 18.9355072,20.1139598 18.9932723,19.6166211 L19,19.5 L19,4.5 C19,3.98716416 18.6139598,3.56449284 18.1166211,3.50672773 L18,3.5 Z M11.202,6.062 L11.202,8.285 L15.817,8.285 L15.817,14.629 L14.452,14.629 L14.452,13.914 L11.202,13.914 L11.202,18.256 L9.798,18.256 L9.798,13.914 L6.561,13.914 L6.561,14.629 L5.196,14.629 L5.196,8.285 L9.798,8.285 L9.798,6.062 L11.202,6.062 Z M9.798,9.611 L6.561,9.611 L6.561,12.588 L9.798,12.588 L9.798,9.611 Z M14.452,9.611 L11.202,9.611 L11.202,12.588 L14.452,12.588 L14.452,9.611 Z" fill="currentColor" fill-rule="evenodd"/></svg>