<svg width="40" height="40" viewBox="0 0 40 40" xmlns="http://www.w3.org/2000/svg"><path d="M23.7333918,4.2 L23.7333918,6.2 L4.63243243,6.2 C3.22919842,6.2 2.09065959,7.25782298 2.00515547,8.58264724 L2,8.74285714 L2,32.6571429 C2,34.0020619 3.08456829,35.1116125 4.46536534,35.1949731 L4.63243243,35.2 L22.7455091,35.2005984 L22.7591871,35.2242407 C21.9788251,33.8800475 21.532,32.3182046 21.532,30.652 C21.532,25.6151631 25.6151631,21.532 30.652,21.532 C31.5681429,21.532 32.4527351,21.6670851 33.2869447,21.9184236 L33.6004327,22.0191316 L33.6,15.5 L35.6,15.5 L35.600748,22.9901369 L35.5688359,22.9695765 C38.0968198,24.5908741 39.772,27.4258074 39.772,30.652 C39.772,35.6888369 35.6888369,39.772 30.652,39.772 C28.2661299,39.772 26.094242,38.8558332 24.46895,37.3561134 L24.3044883,37.2005587 L4.63243243,37.2 C2.15246204,37.2 0.119216253,35.2860028 0.00505524545,32.8714543 L-1.79056769e-12,32.6571429 L-1.79056769e-12,8.74285714 C-1.79056769e-12,6.30008718 1.96238949,4.31629653 4.4148083,4.20493116 L4.63243243,4.2 L23.7333918,4.2 Z M30.652,23.532 C26.7197326,23.532 23.532,26.7197326 23.532,30.652 C23.532,34.5842674 26.7197326,37.772 30.652,37.772 C34.5842674,37.772 37.772,34.5842674 37.772,30.652 C37.772,26.7197326 34.5842674,23.532 30.652,23.532 Z M29.6523011,27.1634252 L29.7535653,27.214599 L34.1477714,29.7778858 C34.7059165,30.1034705 34.7408005,30.8798735 34.2524236,31.2618105 L34.1477714,31.3326879 L29.7535653,33.8959747 C29.1869072,34.2265253 28.4833291,33.8588566 28.4069027,33.2318286 L28.4000814,33.1185737 L28.4000814,27.992 C28.4000814,27.3359778 29.0721785,26.9134995 29.6523011,27.1634252 Z M30.2,29.559 L30.2,31.551 L31.907,30.555 L30.2,29.559 Z M24.7879283,17.1607594 L24.8903331,17.250414 L24.988566,17.3446211 L26.9312042,19.2941454 L25.5144908,20.7058546 L23.5718526,18.7563304 C23.5504981,18.7349001 23.528182,18.71445 23.5049734,18.6950431 C23.1138834,18.3680171 22.5464322,18.3908003 22.1827967,18.7294769 L22.096354,18.8207075 L17.927,23.8065985 L20.3229372,26.2478482 L18.8954816,27.6486946 L13.7042126,22.358817 C13.669316,22.3232575 13.6318107,22.2903557 13.59201,22.2603864 C13.1847533,21.9537281 12.619202,22.0054169 12.2733092,22.3621953 L12.191631,22.4577151 L6.19294062,30.4242597 L4.5952329,29.2212094 L10.5939233,21.2546648 C11.5905628,19.9310804 13.4714759,19.6660391 14.7950603,20.6626786 C14.8746617,20.7226173 14.9512025,20.786466 15.0244044,20.8539803 L15.1316682,20.9579707 L16.519,22.3725985 L20.5620703,17.5377526 C21.6249049,16.2667103 23.516886,16.0979247 24.7879283,17.1607594 Z M9.5,11 C11.4329966,11 13,12.5670034 13,14.5 C13,16.4329966 11.4329966,18 9.5,18 C7.56700338,18 6,16.4329966 6,14.5 C6,12.5670034 7.56700338,11 9.5,11 Z M9.5,13 C8.67157288,13 8,13.6715729 8,14.5 C8,15.3284271 8.67157288,16 9.5,16 C10.3284271,16 11,15.3284271 11,14.5 C11,13.6715729 10.3284271,13 9.5,13 Z M35.6,-0.0374015071 L35.599,4.16659849 L40,4.16666667 L40,6.16666667 L35.599,6.16659849 L35.6,11.1666667 L33.6,11.1666667 L33.599,6.16659849 L28.6666667,6.16666667 L28.6666667,4.16666667 L33.599,4.16659849 L33.6,-0.0374015071 L35.6,-0.0374015071 Z" fill="#000" fill-rule="evenodd"/></svg>