<svg width="24" height="24" viewBox="0 0 24 24" fill="none" xmlns="http://www.w3.org/2000/svg"><path fill-rule="evenodd" clip-rule="evenodd" d="M11.298 8.285V6.062h1.404v2.223h4.615v6.344h-1.365v-.715h-3.25v4.342h-1.404v-4.342H8.061v.715H6.696V8.285h4.602zM8.061 9.611v2.977h3.237V9.611H8.061zm4.641 0v2.977h3.25V9.611h-3.25z" fill="currentColor"/><path fill-rule="evenodd" clip-rule="evenodd" d="M6.5 1.5a5 5 0 0 0-5 5v11a5 5 0 0 0 5 5h11a5 5 0 0 0 5-5v-11a5 5 0 0 0-5-5h-11zm-3 5a3 3 0 0 1 3-3h11a3 3 0 0 1 3 3v11a3 3 0 0 1-3 3h-11a3 3 0 0 1-3-3v-11z" fill="currentColor"/></svg>