<svg width="24" height="24" viewBox="0 0 24 24" xmlns="http://www.w3.org/2000/svg"><path d="M9,13 C10.1045695,13 11,13.8954305 11,15 L11,20.5 C11,21.6045695 10.1045695,22.5 9,22.5 L3.5,22.5 C2.3954305,22.5 1.5,21.6045695 1.5,20.5 L1.5,15 C1.5,13.8954305 2.3954305,13 3.5,13 L9,13 Z M20.5,13 C21.6045695,13 22.5,13.8954305 22.5,15 L22.5,20.5 C22.5,21.6045695 21.6045695,22.5 20.5,22.5 L15,22.5 C13.8954305,22.5 13,21.6045695 13,20.5 L13,15 C13,13.8954305 13.8954305,13 15,13 L20.5,13 Z M9,15 L3.5,15 L3.5,20.5 L9,20.5 L9,15 Z M20.5,15 L15,15 L15,20.5 L20.5,20.5 L20.5,15 Z M9,1.5 C10.1045695,1.5 11,2.3954305 11,3.5 L11,9 C11,10.1045695 10.1045695,11 9,11 L3.5,11 C2.3954305,11 1.5,10.1045695 1.5,9 L1.5,3.5 C1.5,2.3954305 2.3954305,1.5 3.5,1.5 L9,1.5 Z M20.5,1.5 C21.6045695,1.5 22.5,2.3954305 22.5,3.5 L22.5,9 C22.5,10.1045695 21.6045695,11 20.5,11 L15,11 C13.8954305,11 13,10.1045695 13,9 L13,3.5 C13,2.3954305 13.8954305,1.5 15,1.5 L20.5,1.5 Z M9,3.5 L3.5,3.5 L3.5,9 L9,9 L9,3.5 Z M20.5,3.5 L15,3.5 L15,9 L20.5,9 L20.5,3.5 Z" fill="#000" fill-rule="evenodd"/></svg>