<svg width="22" height="24" viewBox="0 0 22 24" fill="none" xmlns="http://www.w3.org/2000/svg"><path fill-rule="evenodd" clip-rule="evenodd" d="M2 12a9 9 0 1 1 18 0 9 9 0 0 1-18 0zm9-11C4.925 1 0 5.925 0 12s4.925 11 11 11 11-4.925 11-11S17.075 1 11 1zm3.505 10.035-.771.464.929 1.542.77-.465A3.65 3.65 0 1 0 9.9 9.491l.01.867v3.248l-.01.865a1.85 1.85 0 1 1-2.682-1.674l.804-.404-.81-1.608-.803.405a3.65 3.65 0 1 0 5.29 3.302l.01-.792v-.083l.001-.025V9.7h-.007l-.003-.23a1.85 1.85 0 1 1 2.805 1.565z" fill="currentColor"/></svg>