<svg width="22" height="24" viewBox="0 0 22 24" xmlns="http://www.w3.org/2000/svg"><path d="M13.5951476,1.50086254 C14.0117358,0.834072528 15.0128468,0.833079361 15.4308533,1.4990414 L15.4308533,1.4990414 L21.8446925,11.7174794 C22.0563482,12.0546863 22.0513231,12.4786856 21.831731,12.8111276 L21.831731,12.8111276 L15.4178918,22.5210853 C14.9869066,23.1735569 13.9940118,23.155736 13.5884389,22.4882495 L13.5884389,22.4882495 L7.44979442,12.3853508 C7.25080482,12.0578564 7.25337921,11.6514791 7.45650312,11.3263596 L7.45650312,11.3263596 Z M7.78901408,1.14080487 C8.26438003,1.40802879 8.44783653,1.9737755 8.23298437,2.44899199 L8.17628411,2.5568732 L2.48124996,11.9995753 L8.17628411,21.4431268 C8.45304411,21.9021135 8.32331088,22.4815575 7.89348366,22.7924059 L7.78901408,22.8591951 C7.31364813,23.126419 6.7135262,23.0011559 6.39158494,22.5861389 L6.32241232,22.4852689 L5.15143483e-14,12 L6.32241232,1.51473107 C6.62046155,1.02043773 7.27708152,0.85302527 7.78901408,1.14080487 Z M14.5146887,4.0370391 L9.6226566,11.8683952 L14.5514632,19.9798653 L19.6641424,12.2402367 L14.5146887,4.0370391 Z" fill="#000" fill-rule="evenodd"/></svg>