<svg width="18" height="24" viewBox="0 0 18 24" xmlns="http://www.w3.org/2000/svg"><path d="M15.2162765,0 C16.7536845,0 18,1.24631547 18,2.78372352 L18,2.78372352 L18,21.2162765 C18,22.7536845 16.7536845,24 15.2162765,24 L15.2162765,24 L2.78372352,24 C1.24631547,24 0,22.7536845 0,21.2162765 L0,21.2162765 L0,2.78372352 C0,1.24631547 1.24631547,0 2.78372352,0 L2.78372352,0 Z M16,19.891 L2,19.891 L2,21.2162765 C2,21.6130451 2.29484085,21.94095 2.67737688,21.9928455 L2.78372352,22 L15.2162765,22 C15.649115,22 16,21.649115 16,21.2162765 L16,21.2162765 L16,19.891 Z M15.2162765,2 L2.78372352,2 C2.35088497,2 2,2.35088497 2,2.78372352 L2,2.78372352 L2,18.108 L16,18.108 L16,2.78372352 C16,2.38695485 15.7051592,2.05904995 15.3226231,2.00715447 L15.2162765,2 Z M7.12151616,11.1 C7.86485326,11.1 8.46744705,11.7025938 8.46744705,12.4459309 L8.46744705,12.4459309 L8.46744705,15.1215162 C8.46744705,15.8648533 7.86485326,16.467447 7.12151616,16.467447 L7.12151616,16.467447 L4.44593088,16.467447 C3.70259378,16.467447 3.1,15.8648533 3.1,15.1215162 L3.1,15.1215162 L3.1,12.4459309 C3.1,11.7025938 3.70259378,11.1 4.44593088,11.1 L4.44593088,11.1 Z M13.6215162,11.1 C14.3648533,11.1 14.967447,11.7025938 14.967447,12.4459309 L14.967447,12.4459309 L14.967447,15.1215162 C14.967447,15.8648533 14.3648533,16.467447 13.6215162,16.467447 L13.6215162,16.467447 L10.9459309,16.467447 C10.2025938,16.467447 9.6,15.8648533 9.6,15.1215162 L9.6,15.1215162 L9.6,12.4459309 C9.6,11.7025938 10.2025938,11.1 10.9459309,11.1 L10.9459309,11.1 Z M6.667,12.9 L4.9,12.9 L4.9,14.667 L6.667,14.667 L6.667,12.9 Z M13.167,12.9 L11.4,12.9 L11.4,14.667 L13.167,14.667 L13.167,12.9 Z M7.12151616,4.1 C7.86485326,4.1 8.46744705,4.70259378 8.46744705,5.44593088 L8.46744705,5.44593088 L8.46744705,8.12151616 C8.46744705,8.86485326 7.86485326,9.46744705 7.12151616,9.46744705 L7.12151616,9.46744705 L4.44593088,9.46744705 C3.70259378,9.46744705 3.1,8.86485326 3.1,8.12151616 L3.1,8.12151616 L3.1,5.44593088 C3.1,4.70259378 3.70259378,4.1 4.44593088,4.1 L4.44593088,4.1 Z M12.3837235,4.1 C13.8659031,4.1 15.067447,5.30154395 15.067447,6.78372352 C15.067447,8.2659031 13.8659031,9.46744705 12.3837235,9.46744705 C10.9015439,9.46744705 9.7,8.2659031 9.7,6.78372352 C9.7,5.30154395 10.9015439,4.1 12.3837235,4.1 Z M6.667,5.9 L4.9,5.9 L4.9,7.667 L6.667,7.667 L6.667,5.9 Z M12.3837235,5.9 C11.8956565,5.9 11.5,6.2956565 11.5,6.78372352 C11.5,7.27179055 11.8956565,7.66744705 12.3837235,7.66744705 C12.8717905,7.66744705 13.267447,7.27179055 13.267447,6.78372352 C13.267447,6.2956565 12.8717905,5.9 12.3837235,5.9 Z" fill="#000" fill-rule="evenodd"/></svg>