<svg width="24" height="24" viewBox="0 0 24 24" xmlns="http://www.w3.org/2000/svg"><path d="M13.6168656,21.8702675 L13.9369806,23.8444829 C13.4325547,23.9263436 12.9175816,23.9767581 12.3941382,23.9936495 L12,24 L11.7055282,23.9964576 L11.4127984,23.9858844 L11.508264,21.988164 C11.6746605,21.9961946 11.8388633,21.9999935 12.0265214,21.9999657 C12.5638218,21.9985768 13.0949485,21.9549811 13.6168656,21.8702675 Z M8.30208863,21.2945912 C8.81723295,21.4997592 9.34933601,21.661642 9.89409067,21.7782879 L10.3049615,21.8572599 L9.96831471,23.8287236 C9.27286925,23.7101282 8.59782638,23.5316927 7.94867205,23.2989031 L7.56232996,23.1527508 L8.30208863,21.2945912 Z M16.6640488,20.848442 L17.5985059,22.6167151 C16.9885495,22.9390294 16.3474656,23.2103183 15.6809373,23.4248988 L15.2780124,23.5467966 L14.7326034,21.6226009 C15.4029567,21.432682 16.0498018,21.1730191 16.6640488,20.848442 Z M5.45983519,19.5650585 C5.88139087,19.9298885 6.3323443,20.2589223 6.80782318,20.5484622 L7.16895472,20.7581544 L6.2010379,22.5083364 C5.58951677,22.1701516 5.01064987,21.7801381 4.47036371,21.3442222 L4.15086911,21.0772118 L5.45983519,19.5650585 Z M19.3343586,18.7976655 L20.8008391,20.1576048 C20.3280387,20.6674463 19.8114798,21.1361345 19.2571341,21.5576975 L18.92004,21.8049326 L17.7653591,20.1719256 C18.3342844,19.769664 18.8603333,19.308828 19.3343586,18.7976655 Z M3.35921707,17.0374472 C3.64033643,17.5184068 3.96128995,17.9751658 4.31825906,18.4028763 L4.59267915,18.7181368 L3.11153868,20.0620947 C2.64516951,19.5482315 2.22274673,18.9937552 1.85020486,18.4046003 L1.63271293,18.0469934 L3.35921707,17.0374472 Z M21.1460716,16.0508528 L22.974266,16.8618429 C22.6902822,17.501908 22.3519451,18.1125014 21.9651122,18.687766 L21.7272398,19.0286383 L20.1070969,17.855976 C20.5153565,17.2919563 20.8637852,16.6870694 21.1460716,16.0508528 Z M12,6.1 C15.1844237,6.1 17.7796122,8.62281531 17.8959305,11.7788107 L17.9,12 L16.1,12 C16.1,9.73563253 14.2643675,7.9 12,7.9 C9.73563253,7.9 7.9,9.73563253 7.9,12 C7.9,14.1957503 9.62606768,15.9883558 11.7953686,16.0949823 L12,16.1 L12,17.9 C8.74151998,17.9 6.1,15.25848 6.1,12 C6.1,8.74151998 8.74151998,6.1 12,6.1 Z M15.5,13.5 C16.6045695,13.5 17.5,14.3954305 17.5,15.5 C17.5,16.6045695 16.6045695,17.5 15.5,17.5 C14.3954305,17.5 13.5,16.6045695 13.5,15.5 C13.5,14.3954305 14.3954305,13.5 15.5,13.5 Z M2.19918717,13.9977815 C2.30999965,14.5449394 2.46628005,15.0795536 2.66593369,15.5972039 L2.82377367,15.9821919 L0.989829733,16.7800954 C0.715288407,16.1486072 0.493483891,15.4888946 0.329975985,14.8065173 L0.238911313,14.3944157 L2.19918717,13.9977815 Z M21.9644605,12.8504241 L23.9574704,13.017492 C23.8982228,13.7231395 23.777915,14.4114172 23.6018483,15.0770241 L23.4895595,15.4736252 L21.5748386,14.8958329 C21.7748744,14.2333578 21.9057899,13.5489756 21.9644605,12.8504241 Z M0.106236684,10.3962547 L2.08865677,10.6608499 C2.02954379,11.1033982 2.00001055,11.5504586 2.00001055,12.0134616 L2.00733761,12.3873751 L2.02828912,12.7591266 L0.0338541684,12.9082213 C0.0188975373,12.7083518 0.00883678391,12.5071175 0.00379146291,12.3046381 L-9.9475983e-14,12.016 L-2.11386464e-13,12 L0.0067464173,11.5937785 C0.015717946,11.3240676 0.0335899204,11.0566108 0.0600780083,10.7916926 L0.106236684,10.3962547 Z M23.6345159,9.04926696 C23.8022934,9.71284895 23.914791,10.3984433 23.9668222,11.1008638 L23.9907436,11.5242938 L21.9922657,11.6023083 C21.970375,11.0406238 21.9021234,10.4867722 21.7889495,9.94451413 L21.6956685,9.54005309 L23.6345159,9.04926696 Z M1.26684308,6.62763985 L3.05436763,7.52472196 C2.80538298,8.02125407 2.59832962,8.53785135 2.43556992,9.0699206 L2.32184213,9.47180177 L0.386607475,8.96695761 C0.599359589,8.15006214 0.896023407,7.3670376 1.26684308,6.62763985 Z M22.0842835,5.49294843 C22.4597674,6.07365617 22.7864567,6.68886376 23.0585493,7.33276934 L23.215207,7.72251002 L21.3465869,8.43543307 C21.1480146,7.91512567 20.9061292,7.41294859 20.6238744,6.93373405 L20.4046601,6.57870412 L22.0842835,5.49294843 Z M3.59325224,3.43690077 L4.99493932,4.86353102 C4.59696024,5.25423616 4.23216203,5.6772565 3.90464158,6.12784118 L3.66605483,6.47087378 L2.00079237,5.36321817 C2.46416455,4.66648049 2.99841603,4.02094316 3.59325224,3.43690077 Z M19.3687078,2.52818432 C19.9182736,2.95633851 20.4296028,3.43127334 20.8967124,3.947006 L21.171624,4.26129347 L19.6435745,5.55166737 C19.2837745,5.12569665 18.8891446,4.73029905 18.4642315,4.36988283 L18.1399395,4.10619856 L19.3687078,2.52818432 Z M6.87623763,1.14574603 L7.73162735,2.95359245 C7.22824017,3.19160746 6.74578949,3.47146101 6.28916712,3.78979175 L5.95161959,4.03570176 L4.74052354,2.44408422 C5.40197949,1.94081199 6.11726784,1.50464894 6.87623763,1.14574603 Z M15.897137,0.646994365 C16.5610442,0.87484188 17.198655,1.15928617 17.8042094,1.49456726 L18.1636493,1.70179024 L17.1347767,3.41684744 C16.6577456,3.13073142 16.1578262,2.88502058 15.6397929,2.68247392 L15.2479463,2.53870032 L15.897137,0.646994365 Z M10.6234536,0.0780944071 L10.8500025,2.06522193 C10.2936467,2.12878259 9.74721612,2.23843297 9.21479927,2.39245633 L8.8181781,2.51626695 L8.18198265,0.620151065 C8.96304822,0.358207585 9.77996909,0.174424819 10.6234536,0.0780944071 Z M12,5.32907052e-15 L12.4245433,0.00736967386 C12.9881852,0.0269680131 13.5419468,0.0854382847 14.0832302,0.180182519 L14.4868126,0.25800147 L14.0740836,2.21495188 C13.5332377,2.10099454 12.9811051,2.03179974 12.4212672,2.00868012 L12,2 L12,5.32907052e-15 Z" fill="#000" fill-rule="evenodd"/></svg>