<svg width="24" height="24" viewBox="0 0 24 24" fill="none" xmlns="http://www.w3.org/2000/svg"><path d="M7.326 4.83 8.74 6.244 11 3.984V9.5h2V3.999l2.245 2.245L16.66 4.83l-3.395-3.394a1.8 1.8 0 0 0-2.545 0L7.326 4.83zM7.326 19.17l3.394 3.394a1.8 1.8 0 0 0 2.545 0l3.395-3.394-1.415-1.414L13 20V14.5h-2v5.516l-2.26-2.26-1.414 1.414zM19.166 7.33l3.394 3.393a1.8 1.8 0 0 1 0 2.546l-3.394 3.394-1.414-1.414 2.246-2.246-5.499-.004.001-2 5.51.004-2.258-2.26 1.414-1.414zM4.826 7.33l-3.394 3.393a1.8 1.8 0 0 0 0 2.546l3.394 3.394L6.24 15.25l-2.245-2.245H9.5v-2H3.98l2.26-2.26-1.414-1.415z" fill="currentColor"/></svg>