<svg width="23" height="24" viewBox="0 0 23 24" xmlns="http://www.w3.org/2000/svg"><path d="M12.5924031,13.9365223 L12.592,19.964 L14.9087223,17.9053366 L16.2280118,19.3866525 L11.6045582,23.4977374 L6.97142464,19.3873957 L8.28904056,17.9045934 L10.607,19.961 L10.6078695,13.9365223 L12.5924031,13.9365223 Z M18.8889151,7.24813633 L23,11.87159 L18.8896583,16.5047235 L17.406856,15.1871076 L19.4,12.94 L13.5798569,12.9401946 L13.5798569,10.9572653 L19.531,10.957 L17.4075992,8.5674258 L18.8889151,7.24813633 Z M4.11034168,7.24813633 L5.59314399,8.56575225 L3.47,10.957 L9.62041565,10.9572653 L9.62041565,12.9401946 L3.597,12.94 L5.59240079,15.185434 L4.11108488,16.5047235 L0,11.8812698 L4.11034168,7.24813633 Z M11.5948783,0.502262633 L16.2280118,4.61260431 L14.9103959,6.09540662 L12.592,4.039 L12.5924031,9.9610879 L10.6078695,9.9610879 L10.607,4.036 L8.29071411,6.09466342 L6.97142464,4.61334751 L11.5948783,0.502262633 Z" fill="#000" fill-rule="evenodd"/></svg>