<svg width="24" height="24" viewBox="0 0 24 24" xmlns="http://www.w3.org/2000/svg"><path d="M22.479899,2.87016697 L22.4949684,3.01123165 L22.5,3.15300969 L22.5,17.5 C22.5,19.4329966 20.9329966,21 19,21 C17.0670034,21 15.5,19.4329966 15.5,17.5 C15.5,15.5670034 17.0670034,14 19,14 C19.537207,14 20.0461461,14.1210295 20.5010375,14.3373087 L20.5,8.58775496 L8.5,10.433755 L8.5,19.5 L8.46441956,19.5009499 C8.22139608,21.1966339 6.76290678,22.5 5,22.5 C3.06700338,22.5 1.5,20.9329966 1.5,19 C1.5,17.0670034 3.06700338,15.5 5,15.5 C5.53720704,15.5 6.04614613,15.6210295 6.50103753,15.8373087 L6.5,4.8672954 C6.5,3.9243789 7.15684925,3.11739817 8.06375988,2.91538355 L8.21715729,2.88739641 L20.2171573,1.1731107 C21.3106253,1.01690098 22.3236893,1.77669896 22.479899,2.87016697 Z M5,17.5 C4.17157288,17.5 3.5,18.1715729 3.5,19 C3.5,19.8284271 4.17157288,20.5 5,20.5 C5.82842712,20.5 6.5,19.8284271 6.5,19 C6.5,18.1715729 5.82842712,17.5 5,17.5 Z M19,16 C18.1715729,16 17.5,16.6715729 17.5,17.5 C17.5,18.3284271 18.1715729,19 19,19 C19.8284271,19 20.5,18.3284271 20.5,17.5 C20.5,16.6715729 19.8284271,16 19,16 Z M20.5,3.15300969 L8.5,4.8672954 L8.5,8.41075496 L20.5,6.56475496 L20.5,3.15300969 Z" fill="#000" fill-rule="evenodd"/></svg>