<svg width="24" height="24" viewBox="0 0 24 24" fill="none" xmlns="http://www.w3.org/2000/svg"><path fill-rule="evenodd" clip-rule="evenodd" d="M10.612 3.263c1.604-1.468 4.188-.33 4.188 1.844v13.786c0 2.174-2.584 3.312-4.188 1.844l-2.7-2.473H4.8a3 3 0 0 1-3-3V8.735a3 3 0 0 1 3-3h3.111l2.7-2.472zM12.8 5.107a.5.5 0 0 0-.838-.369L8.69 7.735H4.8a1 1 0 0 0-1 1v6.53a1 1 0 0 0 1 1H8.69l3.273 2.997a.5.5 0 0 0 .838-.37V5.108z" fill="currentColor"/><path d="m17 8.756 2.2 2.2 2.2-2.2 1.344 1.344-2.2 2.2 2.2 2.2-1.344 1.343-2.2-2.2-2.2 2.2-1.344-1.343 2.2-2.2-2.2-2.2L17 8.756z" fill="currentColor"/></svg>