<svg width="24" height="24" viewBox="0 0 24 24" fill="none" xmlns="http://www.w3.org/2000/svg"><path d="M8.016 7.518a5.796 5.796 0 0 1-1.17.91c-.468.26-.91.442-1.326.546v1.508c.858-.247 1.56-.624 2.119-1.131V16.8H9.16V7.518H8.016zM15.446 8.628a5.796 5.796 0 0 0 1.17-.91h1.144V17h-1.52V9.551c-.56.507-1.262.884-2.12 1.131V9.174a5.514 5.514 0 0 0 1.326-.546zM12.9 9.9a.9.9 0 1 1-1.8 0 .9.9 0 0 1 1.8 0zM12 15.3a.9.9 0 1 0 0-1.8.9.9 0 0 0 0 1.8z" fill="currentColor"/><path fill-rule="evenodd" clip-rule="evenodd" d="M1.5 6.5a5 5 0 0 1 5-5h11a5 5 0 0 1 5 5v11a5 5 0 0 1-5 5h-11a5 5 0 0 1-5-5v-11zm5-3a3 3 0 0 0-3 3v11a3 3 0 0 0 3 3h11a3 3 0 0 0 3-3v-11a3 3 0 0 0-3-3h-11z" fill="currentColor"/></svg>