<svg width="22" height="24" viewBox="0 0 22 24" fill="none" xmlns="http://www.w3.org/2000/svg"><path fill-rule="evenodd" clip-rule="evenodd" d="M.5 6.5a5 5 0 0 1 5-5h11a5 5 0 0 1 5 5v11a5 5 0 0 1-5 5h-11a5 5 0 0 1-5-5v-11zm6.516 1.018a5.796 5.796 0 0 1-1.17.91c-.468.26-.91.442-1.326.546v1.508c.858-.247 1.56-.624 2.119-1.13V16.8H8.16V7.518H7.016zm8.6.2a5.796 5.796 0 0 1-1.17.91c-.468.26-.91.442-1.326.546v1.508c.858-.247 1.56-.624 2.12-1.131V17h1.52V7.718h-1.144zM11.9 9.9a.9.9 0 1 1-1.8 0 .9.9 0 0 1 1.8 0zm0 4.5a.9.9 0 1 1-1.8 0 .9.9 0 0 1 1.8 0z" fill="currentColor"/></svg>