<svg width="21" height="24" viewBox="0 0 21 24" xmlns="http://www.w3.org/2000/svg"><path d="M18,1.5 C19.6568542,1.5 21,2.84314575 21,4.5 L21,19.5 C21,21.1568542 19.6568542,22.5 18,22.5 L3,22.5 C1.34314575,22.5 0,21.1568542 0,19.5 L0,4.5 C0,2.84314575 1.34314575,1.5 3,1.5 L18,1.5 Z M18,3.5 L3,3.5 C2.48716416,3.5 2.06449284,3.88604019 2.00672773,4.38337887 L2,4.5 L2,19.5 C2,20.0128358 2.38604019,20.4355072 2.88337887,20.4932723 L3,20.5 L18,20.5 C18.5128358,20.5 18.9355072,20.1139598 18.9932723,19.6166211 L19,19.5 L19,4.5 C19,3.98716416 18.6139598,3.56449284 18.1166211,3.50672773 L18,3.5 Z M7.66,7.518 L7.66,16.8 L6.139,16.8 L6.139,9.351 C5.58,9.858 4.878,10.235 4.02,10.482 L4.02,10.482 L4.02,8.974 C4.436,8.87 4.878,8.688 5.346,8.428 C5.814,8.142 6.204,7.843 6.516,7.518 L6.516,7.518 L7.66,7.518 Z M16.66,7.518 L16.66,16.8 L15.139,16.8 L15.139,9.351 C14.58,9.858 13.878,10.235 13.02,10.482 L13.02,10.482 L13.02,8.974 C13.436,8.87 13.878,8.688 14.346,8.428 C14.814,8.142 15.204,7.843 15.516,7.518 L15.516,7.518 L16.66,7.518 Z M10.8,13 C11.2418278,13 11.6,13.3581722 11.6,13.8 C11.6,14.2418278 11.2418278,14.6 10.8,14.6 C10.3581722,14.6 10,14.2418278 10,13.8 C10,13.3581722 10.3581722,13 10.8,13 Z M10.8,9.7 C11.2418278,9.7 11.6,10.0581722 11.6,10.5 C11.6,10.9418278 11.2418278,11.3 10.8,11.3 C10.3581722,11.3 10,10.9418278 10,10.5 C10,10.0581722 10.3581722,9.7 10.8,9.7 Z" fill="#000" fill-rule="evenodd"/></svg>