<svg width="20" height="24" viewBox="0 0 20 24" xmlns="http://www.w3.org/2000/svg"><path d="M14,0 C14.5128358,0 14.9355072,0.38604019 14.9932723,0.883378875 L15,1 L15,2 L17,2 C18.6568542,2 20,3.34314575 20,5 L20,20 C20,21.6568542 18.6568542,23 17,23 L3,23 C1.34314575,23 0,21.6568542 0,20 L0,5 C0,3.34314575 1.34314575,2 3,2 L5,2 L5,1 C5,0.44771525 5.44771525,0 6,0 C6.51283584,0 6.93550716,0.38604019 6.99327227,0.883378875 L7,1 L7,2 L13,2 L13,1 C13,0.44771525 13.4477153,0 14,0 Z M17,4 L15,4 L15,5 C15,5.55228475 14.5522847,6 14,6 C13.4871642,6 13.0644928,5.61395981 13.0067277,5.11662113 L13,5 L13,4 L7,4 L7,5 C7,5.55228475 6.55228475,6 6,6 C5.48716416,6 5.06449284,5.61395981 5.00672773,5.11662113 L5,5 L5,4 L3,4 C2.48716416,4 2.06449284,4.38604019 2.00672773,4.88337887 L2,5 L2,20 C2,20.5128358 2.38604019,20.9355072 2.88337887,20.9932723 L3,21 L17,21 C17.5128358,21 17.9355072,20.6139598 17.9932723,20.1166211 L18,20 L18,5 C18,4.48716416 17.6139598,4.06449284 17.1166211,4.00672773 L17,4 Z M15,14.8461538 C15.5522847,14.8461538 16,15.2938691 16,15.8461538 C16,16.3589897 15.6139598,16.781661 15.1166211,16.8394261 L15,16.8461538 L5,16.8461538 C4.44771525,16.8461538 4,16.3984386 4,15.8461538 C4,15.333318 4.38604019,14.9106467 4.88337887,14.8528816 L5,14.8461538 L15,14.8461538 Z M15,9.5 C15.5522847,9.5 16,9.94771525 16,10.5 C16,11.0128358 15.6139598,11.4355072 15.1166211,11.4932723 L15,11.5 L5,11.5 C4.44771525,11.5 4,11.0522847 4,10.5 C4,9.98716416 4.38604019,9.56449284 4.88337887,9.50672773 L5,9.5 L15,9.5 Z" fill="currentColor" fill-rule="evenodd"/></svg>