<svg width="24" height="24" viewBox="0 0 24 24" xmlns="http://www.w3.org/2000/svg"><path d="M14.5303941,0.267139467 L14.9404069,0.362883551 L14.4512838,2.30215111 C13.5448255,2.07352374 12.6050183,1.97277685 11.651005,2.00609173 C6.1315219,2.19883633 1.81334713,6.82951184 2.00609173,12.348995 C2.04185996,13.3732631 2.23045905,14.3561613 2.54920776,15.276539 L5.74230692,11.4466958 C5.27804157,10.8723619 5,10.14127 5,9.3452381 C5,7.49771411 6.49771411,6 8.3452381,6 C10.1927621,6 11.6904762,7.49771411 11.6904762,9.3452381 C11.6904762,11.1927621 10.1927621,12.6904762 8.3452381,12.6904762 C8.02338769,12.6904762 7.71215326,12.6450238 7.41760353,12.5601877 L3.49530029,17.2634777 C5.32305432,20.2106304 8.63478484,22.1236113 12.348995,21.9939083 C13.9556242,21.9378035 15.4604672,21.5056753 16.7818979,20.7850567 L14.6414547,18.8339103 C14.1329838,19.1360331 13.5391333,19.3095238 12.9047619,19.3095238 C11.0243638,19.3095238 9.5,17.78516 9.5,15.9047619 C9.5,14.0243638 11.0243638,12.5 12.9047619,12.5 C13.098788,12.5 13.2890235,12.5162297 13.4741848,12.5474055 L16.2586533,8.96675916 C15.7845755,8.38943385 15.5,7.65056906 15.5,6.8452381 C15.5,4.99771411 16.9977141,3.5 18.8452381,3.5 C20.6927621,3.5 22.1904762,4.99771411 22.1904762,6.8452381 C22.1904762,8.69276208 20.6927621,10.1904762 18.8452381,10.1904762 C18.5307191,10.1904762 18.226338,10.1470709 17.9377581,10.0659238 L15.2877191,13.4729054 C15.9182844,14.0908697 16.3095238,14.9521264 16.3095238,15.9047619 C16.3095238,16.4224664 16.1939783,16.9131839 15.9872689,17.3525326 L18.4755428,19.6207188 C20.6556188,17.7657745 22.0226164,14.9963484 21.9998374,11.9308734 L21.9939083,11.651005 L23.9926899,11.581206 C24.2239834,18.2045858 19.0421737,23.7613964 12.418794,23.9926899 C5.79541421,24.2239834 0.238603593,19.0421737 0.00731007577,12.418794 C-0.223983442,5.79541421 4.95782629,0.238603593 11.581206,0.00731007577 C12.581046,-0.0276051048 13.5696153,0.0606068573 14.5303941,0.267139467 Z M12.9047619,14.5 C12.1289333,14.5 11.5,15.1289333 11.5,15.9047619 C11.5,16.6805905 12.1289333,17.3095238 12.9047619,17.3095238 C13.6805905,17.3095238 14.3095238,16.6805905 14.3095238,15.9047619 C14.3095238,15.1289333 13.6805905,14.5 12.9047619,14.5 Z M8.3452381,8 C7.60228361,8 7,8.60228361 7,9.3452381 C7,10.0881926 7.60228361,10.6904762 8.3452381,10.6904762 C9.08819258,10.6904762 9.69047619,10.0881926 9.69047619,9.3452381 C9.69047619,8.60228361 9.08819258,8 8.3452381,8 Z M18.8452381,5.5 C18.1022836,5.5 17.5,6.10228361 17.5,6.8452381 C17.5,7.58819258 18.1022836,8.19047619 18.8452381,8.19047619 C19.5881926,8.19047619 20.1904762,7.58819258 20.1904762,6.8452381 C20.1904762,6.10228361 19.5881926,5.5 18.8452381,5.5 Z" fill="#000" fill-rule="evenodd"/></svg>