<svg width="24" height="24" viewBox="0 0 24 24" xmlns="http://www.w3.org/2000/svg"><path d="M19.6977548,15.3852343 C21.3324501,16.9344157 22.1497671,18.1604219 22.1497671,19.0632529 C22.1497671,20.417438 21.0519399,21.5152652 19.6977548,21.5152652 C18.3435696,21.5152652 17.2457424,20.417438 17.2457424,19.0632529 C17.2457424,18.1604219 18.0630594,16.9344157 19.6977548,15.3852343 Z M10.4128042,1.41806688 L10.5070111,1.50125602 L12.2407634,3.23508192 L19.1760965,10.1704089 C19.5666202,10.5609323 19.5666214,11.1940957 19.1760991,11.5846205 L19.1760991,11.5846205 L9.64003905,21.1207419 C9.24951525,21.5112682 8.61634876,21.5112694 8.22582353,21.1207445 L8.22582353,21.1207445 L1.29048427,14.1854113 C0.899960394,13.7948878 0.89995944,13.161724 1.29048214,12.7711993 L1.29048214,12.7711993 L10.1185907,3.9413588 L9.09278949,2.91546158 C8.70226741,2.52493508 8.70227099,1.8917701 9.09279749,1.50124802 C9.45328349,1.1407661 10.0205147,1.11303977 10.4128042,1.41806688 Z M4.61659074,12.2713588 L3.411,13.478 L8.932,18.999 L12.9255907,15.0043588 L4.61659074,12.2713588 Z M11.533,5.356 L6.20059074,10.6873588 L14.5105907,13.4193588 L17.054,10.877 L11.533,5.356 Z" fill="currentColor" fill-rule="nonzero"/></svg>