<svg width="22" height="24" viewBox="0 0 22 24" xmlns="http://www.w3.org/2000/svg"><path d="M22,1 L22,17.3493342 C22,17.9447917 21.5027842,18.4275053 20.8894373,18.4275053 L20.7620902,18.4202244 L20.7169105,18.4142457 L20.592202,18.3881714 L16.34,17.241 L10.2342023,22.7140727 C10.0290567,22.8979148 9.76011413,23 9.48092975,23 C8.90847271,23 8.43717865,22.5795028 8.3768837,22.0393075 L8.37036707,21.9218289 L8.37036707,16.2647615 L10.3895719,16.2647615 L10.3895719,19.9060395 L14.052,16.624 L12.08,16.092 L13.72,14.5 L19.9807951,16.1883094 L19.9807951,5.22330909 L9.35071984,14.5577157 L0.873765719,12.7597934 C0.274551846,12.6327029 -0.105084549,12.0580849 0.0258240969,11.4763482 C0.0903542172,11.1895869 0.271967096,10.9426363 0.525922151,10.7899199 L0.639058706,10.7303981 L22,1 Z M16.4199273,5.70652578 L3.92205872,11.3992693 L8.76613122,12.4264723 L16.4199273,5.70652578 Z" fill="#000" fill-rule="evenodd"/></svg>