<svg width="24" height="24" viewBox="0 0 24 24" xmlns="http://www.w3.org/2000/svg"><path d="M12.25,0.5 C15.6250735,0.5 18.3753119,3.1752368 18.495878,6.52087313 L18.5,6.75 L18.5,19 C18.5,21.4852814 16.4852814,23.5 14,23.5 C11.5857267,23.5 9.61551091,21.5987635 9.50489799,19.2118357 L9.5,19 L9.5,8.75 C9.5,7.23121694 10.7312169,6 12.25,6 C13.7125318,6 14.9084043,7.1417046 14.9949812,8.58247767 L15,8.75 L15,17 L13,17 L13,8.75 C13,8.33578644 12.6642136,8 12.25,8 C11.8703042,8 11.556509,8.28215388 11.5068466,8.64822944 L11.5,8.75 L11.5,19 C11.5,20.3807119 12.6192881,21.5 14,21.5 C15.3254834,21.5 16.4100387,20.4684641 16.4946823,19.1643757 L16.5,19 L16.5,6.75 C16.5,4.40278981 14.5972102,2.5 12.25,2.5 C9.97182541,2.5 8.11231326,4.29250701 8.00490093,6.54408366 L8,6.75 L8,17 L6,17 L6,6.75 C6,3.29822031 8.79822031,0.5 12.25,0.5 Z" fill="#000" fill-rule="evenodd"/></svg>