<svg width="24" height="24" viewBox="0 0 24 24" xmlns="http://www.w3.org/2000/svg"><g id="规范备份-3" stroke="none" stroke-width="1" fill="currentColor" fill-rule="nonzero"><path d="M13.6 6.4H6a4 4 0 0 0-4 4V18a4 4 0 0 0 4 4h7.6a4 4 0 0 0 4-4v-7.6a4 4 0 0 0-4-4zM6 8.4h7.6a2 2 0 0 1 2 2V18a2 2 0 0 1-2 2H6a2 2 0 0 1-2-2v-7.6a2 2 0 0 1 2-2z" id="矩形"/><path d="M8 7.946V6.2c0-.287.06-.563.174-.817l-1.825-.819A3.99 3.99 0 0 0 6 6.2v1.746h2zm.843-3.378A1.986 1.986 0 0 1 10 4.2h1.162v-2H10c-.84 0-1.644.26-2.316.738l1.16 1.63zm3.819-.368h3v-2h-3v2zm4.5 0h.49c.593 0 1.141.258 1.52.7l1.52-1.3a3.993 3.993 0 0 0-3.04-1.4h-.49v2zm2.447 1.586c.018.084.03.17.037.256l.006.164-.008 2.409 2 .006.007-2.468a4.027 4.027 0 0 0-.085-.778l-1.957.41zm.03 4.329-.009 3 2 .006.01-3-2-.006zm-.087 4.221a2.005 2.005 0 0 1-1.436 1.391l.486 1.94a4.005 4.005 0 0 0 2.874-2.783l-1.924-.548zm-2.662 1.45h-.314v2h.314v-2z" id="路径-2"/><path id="直线备份" d="M12.7 15.5 12.7 17.5 6.7 17.5 6.7 15.5z"/><path id="直线" d="M12.7 11.5 12.7 13.5 6.7 13.5 6.7 11.5z"/></g></svg>