<svg width="24" height="24" viewBox="0 0 24 24" fill="none" xmlns="http://www.w3.org/2000/svg"><path fill-rule="evenodd" clip-rule="evenodd" d="M8.502 2C6.05 2 4 3.923 4 6.373V15c0 .048.003.096.01.142A3.501 3.501 0 0 0 5 22a3.5 3.5 0 0 0 .99-6.858A1.01 1.01 0 0 0 6 15V6.373C6 5.097 7.084 4 8.502 4c1.417 0 2.501 1.098 2.501 2.373l-.006 11.513c0 2.38 2.129 4.114 4.501 4.114C17.871 22 20 20.265 20 17.886v-4.542l1.328 1.328 1.344-1.344-3-3a.95.95 0 0 0-1.344 0l-3 3 1.344 1.344L18 13.343v4.543C18 18.946 16.994 20 15.498 20c-1.495 0-2.5-1.054-2.501-2.114l.006-11.513c0-2.45-2.05-4.373-4.501-4.373zM5 20a1.5 1.5 0 1 0 0-3 1.5 1.5 0 0 0 0 3z" fill="currentColor"/><path fill-rule="evenodd" clip-rule="evenodd" d="M19 9a3.5 3.5 0 1 0 0-7 3.5 3.5 0 0 0 0 7zm1.5-3.5a1.5 1.5 0 1 1-3 0 1.5 1.5 0 0 1 3 0z" fill="currentColor"/></svg>