<svg width="24" height="24" viewBox="0 0 24 24" xmlns="http://www.w3.org/2000/svg"><g fill="none" fill-rule="evenodd"><path d="M12,4.26325641e-14 C18.627417,4.26325641e-14 24,5.372583 24,12 C24,18.627417 18.627417,24 12,24 C5.372583,24 0,18.627417 0,12 C0,5.372583 5.372583,4.26325641e-14 12,4.26325641e-14 Z M12,2 C6.4771525,2 2,6.4771525 2,12 C2,17.5228475 6.4771525,22 12,22 C17.5228475,22 22,17.5228475 22,12 C22,6.4771525 17.5228475,2 12,2 Z M10.5,8 L10.5,16 L8.5,16 L8.5,8 L10.5,8 Z M16,8 L16,16 L14,16 L14,8 L16,8 Z" fill="#000"/></g></svg>