<svg width="21" height="24" viewBox="0 0 21 24" fill="none" xmlns="http://www.w3.org/2000/svg"><g clip-path="url(#clip0_1581_80307)" fill="currentColor"><path d="M12 2.8a9.29 9.29 0 0 1 3.43.655 9.03 9.03 0 0 1 2.92 1.873 8.667 8.667 0 0 1 1.96 2.817c.455 1.056.69 2.19.69 3.335h-2c0-.871-.179-1.735-.527-2.543a6.668 6.668 0 0 0-1.509-2.166 7.031 7.031 0 0 0-2.272-1.457A7.29 7.29 0 0 0 12 4.8v-2z"/><path d="M12.125 6.64c.667 0 1.33.126 1.948.372a5.14 5.14 0 0 1 1.661 1.066 4.953 4.953 0 0 1 1.12 1.61c.261.605.396 1.255.396 1.912h-2c0-.383-.079-.763-.232-1.12a2.954 2.954 0 0 0-.669-.959 3.142 3.142 0 0 0-1.015-.65 3.275 3.275 0 0 0-1.21-.231v-2z"/><path d="M2.166 5.072C.554 6.646-.054 9.097 1.045 11.21c.967 1.859 2.487 4.337 4.576 6.426 2.09 2.09 4.568 3.61 6.426 4.576 2.112 1.099 4.563.492 6.137-1.12l.544-.558a3.855 3.855 0 0 0-.231-5.603l-1.082-.939a3.27 3.27 0 0 0-4.189-.082c-.616-.385-1.528-1.007-2.2-1.679-.671-.671-1.294-1.584-1.68-2.2a3.27 3.27 0 0 0-.08-4.189l-.94-1.081a3.854 3.854 0 0 0-5.603-.232l-.557.544z"/></g><defs><clipPath id="clip0_1581_80307"><path fill="currentColor" d="M0 0H21V24H0z"/></clipPath></defs></svg>