<svg width="24" height="24" viewBox="0 0 24 24" xmlns="http://www.w3.org/2000/svg"><g fill="currentColor" fill-rule="evenodd"><path opacity=".02" d="M0 0.544H20.352V20.896H0z" transform="translate(1.8 1)"/><path d="M11.4480744,1.07873813 C16.4677467,1.70471993 20.352,5.98675198 20.352,11.176 C20.352,16.7960496 15.7960496,21.352 10.176,21.352 C4.98675198,21.352 0.704719933,17.4677467 0.0787381337,12.4480744 L8.904,12.448 C10.2528119,12.448 11.3564554,11.398309 11.4425887,10.0712687 L11.448,9.904 L11.4480744,1.07873813 Z M13.356,3.541 L13.3550024,9.96569299 L13.3465823,10.19485 C13.1996038,12.4593197 11.3700799,14.2448708 9.11649375,14.3510066 L8.90401608,14.356 L2.541,14.356 L2.56121435,14.4056582 C3.79216882,17.3067752 6.62843886,19.3377112 9.91557369,19.4399544 L10.176,19.444 C14.7422903,19.444 18.444,15.7422903 18.444,11.176 C18.444,7.87589 16.4992026,4.99373909 13.6585979,3.67361324 L13.356,3.541 Z" fill-rule="nonzero" transform="translate(1.8 1)"/><path d="M9.934,2.646 L9.934,4.554 C5.62617895,4.554 2.11861053,7.98028878 1.98778303,12.256378 L1.984,12.504 L0.076,12.504 C0.076,7.15185529 4.34123206,2.79590891 9.6580698,2.64978724 L9.934,2.646 Z" fill-rule="nonzero" transform="translate(1.8 1)"/></g></svg>