<svg width="24" height="24" viewBox="0 0 24 24" xmlns="http://www.w3.org/2000/svg"><path d="M12,0 C18.627417,0 24,5.372583 24,12 C24,18.627417 18.627417,24 12,24 C5.372583,24 0,18.627417 0,12 C0,5.372583 5.372583,0 12,0 Z M12,2 C6.4771525,2 2,6.4771525 2,12 C2,17.5228475 6.4771525,22 12,22 C17.5228475,22 22,17.5228475 22,12 C22,6.4771525 17.5228475,2 12,2 Z M9.22115977,8.5 C9.22115977,7.76679871 9.97674575,7.29615247 10.6238791,7.58433945 L10.7250308,7.6362211 L16.5068808,11.0089669 C17.129474,11.3721463 17.1660972,12.2401715 16.6167502,12.6627445 L16.5068808,12.7365247 L10.7250308,16.1092706 C10.091707,16.4787095 9.30445481,16.0631952 9.22731291,15.3590061 L9.22115977,15.2454917 L9.22115977,8.5 Z M11.221,10.24 L11.221,13.504 L14.018,11.872 L11.221,10.24 Z" fill="#000" fill-rule="evenodd"/></svg>