<svg width="22" height="24" viewBox="0 0 22 24" xmlns="http://www.w3.org/2000/svg"><path d="M18.3333333,1 C20.3583774,1 22,2.64162258 22,4.66666667 L22,4.66666667 L22,19.3333333 C22,21.3583774 20.3583774,23 18.3333333,23 L18.3333333,23 L3.66666667,23 C1.64162258,23 0,21.3583774 0,19.3333333 L0,19.3333333 L0,4.66666667 C0,2.64162258 1.64162258,1 3.66666667,1 L3.66666667,1 Z M18.2,3 L3.8,3 C2.80588745,3 2,3.80588745 2,4.8 L2,4.8 L2,19.2 C2,20.1941125 2.80588745,21 3.8,21 L3.8,21 L18.2,21 C19.1941125,21 20,20.1941125 20,19.2 L20,19.2 L20,4.8 C20,3.80588745 19.1941125,3 18.2,3 L18.2,3 Z M12,6 L12,11 L17,11 L17,13 L12,13 L12,18 L10,18 L10,13 L5,13 L5,11 L10,11 L10,6 L12,6 Z" fill="#000" fill-rule="evenodd"/></svg>