<svg width="24" height="24" viewBox="0 0 24 24" xmlns="http://www.w3.org/2000/svg"><path d="M20,0 C22.209139,0 24,1.790861 24,4 L24,4 L24,20 C24,22.209139 22.209139,24 20,24 L20,24 L4,24 C1.790861,24 0,22.209139 0,20 L0,20 L0,4 C0,1.790861 1.790861,0 4,0 L4,0 Z M20,2 L4,2 C2.8954305,2 2,2.8954305 2,4 L2,4 L2,20 C2,21.1045695 2.8954305,22 4,22 L4,22 L20,22 C21.1045695,22 22,21.1045695 22,20 L22,20 L22,4 C22,2.8954305 21.1045695,2 20,2 L20,2 Z M13,6 L13,11 L18,11 L18,13 L13,13 L13,18 L11,18 L11,13 L6,13 L6,11 L11,11 L11,6 L13,6 Z" fill="#000" fill-rule="evenodd"/></svg>