<svg width="24" height="24" viewBox="0 0 24 24" xmlns="http://www.w3.org/2000/svg"><path d="M8.00008007,0.682794531 L8.00059079,2.83182926 C4.46846569,4.37480761 2,7.89913328 2,12 C2,17.5228475 6.4771525,22 12,22 C17.5228475,22 22,17.5228475 22,12 C22,7.89952169 19.5320019,4.37547523 16.0004128,2.83226775 L16.0009157,0.683146541 C20.6612069,2.3307507 24,6.77546689 24,12 C24,18.627417 18.627417,24 12,24 C5.372583,24 0,18.627417 0,12 C0,6.77509477 3.33926875,2.33011756 8.00008007,0.682794531 Z M13,5.31070082e-14 L13,12 L11,12 L11,5.31070082e-14 L13,5.31070082e-14 Z" fill="#000" fill-rule="evenodd"/></svg>