<svg width="24" height="24" viewBox="0 0 24 24" fill="none" xmlns="http://www.w3.org/2000/svg"><path d="M5.5 5.5A3.5 3.5 0 0 1 9 2h6a3.5 3.5 0 0 1 3.5 3.5v1h-13v-1zM1.5 10.4a2.9 2.9 0 0 1 2.9-2.9h15.2a2.9 2.9 0 0 1 2.9 2.9V16a2 2 0 0 1-2 2 .5.5 0 0 1-.5-.5V17a2 2 0 0 0-2-2H6a2 2 0 0 0-2 2v.5a.5.5 0 0 1-.5.5 2 2 0 0 1-2-2v-5.6z" fill="currentColor"/><path fill-rule="evenodd" clip-rule="evenodd" d="M5.5 18a2 2 0 0 1 2-2h9a2 2 0 0 1 2 2v2a2 2 0 0 1-2 2h-9a2 2 0 0 1-2-2v-2zm7 1.5h-5v1h5v-1zm4-2h-9v1h9v-1z" fill="currentColor"/></svg>