<svg width="22" height="24" viewBox="0 0 22 24" fill="none" xmlns="http://www.w3.org/2000/svg"><path d="M17.3 15.2a1.5 1.5 0 1 0 0-3 1.5 1.5 0 0 0 0 3z" fill="currentColor"/><path fill-rule="evenodd" clip-rule="evenodd" d="M9.36 1a4.584 4.584 0 0 0-4.473 3.582H3.09A2.79 2.79 0 0 0 .3 7.372v3.403a2.97 2.97 0 0 0 2.97 2.97h1.612a.79.79 0 0 1 0 1.582H3.27a2.97 2.97 0 0 0-2.97 2.97v1.612A2.79 2.79 0 0 0 3.091 22.7h12.536a2.79 2.79 0 0 0 2.791-2.79v-1.797a4.583 4.583 0 0 0 0-8.944V7.373a2.79 2.79 0 0 0-2.79-2.791h-1.796A4.584 4.584 0 0 0 9.358 1zM6.776 5.582a2.582 2.582 0 1 1 5.164 0v1h3.686a.79.79 0 0 1 .791.79V9.86c0 .677.54 1.17 1.145 1.204a2.582 2.582 0 0 1 0 5.156 1.209 1.209 0 0 0-1.145 1.204v2.486a.79.79 0 0 1-.79.791H3.09a.79.79 0 0 1-.791-.79v-1.613a.97.97 0 0 1 .97-.97h1.612a2.791 2.791 0 0 0 0-5.582H3.27a.97.97 0 0 1-.97-.97V7.373a.79.79 0 0 1 .791-.791h3.686v-1z" fill="currentColor"/></svg>