<svg width="22" height="24" viewBox="0 0 22 24" fill="none" xmlns="http://www.w3.org/2000/svg"><g clip-path="url(#clip0_1338_89714)"><path fill-rule="evenodd" clip-rule="evenodd" d="M9 1a4 4 0 0 1 4 4h3a2 2 0 0 1 2 2v3a4 4 0 0 1 0 8v3a2 2 0 0 1-2 2H2a2 2 0 0 1-2-2v-2a2 2 0 0 1 2-2h2a2 2 0 1 0 0-4H2a2 2 0 0 1-2-2V7a2 2 0 0 1 2-2h3a4 4 0 0 1 4-4zm8.6 14.7a1.8 1.8 0 1 0 0-3.6 1.8 1.8 0 0 0 0 3.6z" fill="currentColor"/></g><defs><clipPath id="clip0_1338_89714"><path fill="currentColor" d="M0 0H22V24H0z"/></clipPath></defs></svg>