<svg width="18" height="24" viewBox="0 0 18 24" xmlns="http://www.w3.org/2000/svg"><path d="M8.83273104,1 C11.1248734,1 12.9896645,2.77797039 12.9896645,4.96342079 C12.989628,5.23175844 12.9610354,5.49916751 12.9044701,5.7615606 L12.8386022,6.02213031 L15.0837142,6.02034145 C16.1371406,6.00524836 17.8830189,5.94596538 17.990351,8.09872186 L17.9955446,8.31403429 L18,20.3602386 C17.9838394,21.8230002 17.726816,22.9310907 15.3644789,22.9969045 L15.136785,23 L2.26129655,23 C0.904487946,23 0.0687409612,22.5024372 0.00405209618,21.0980798 L0,20.9177826 L0.000916779829,16.6426132 L0.00781800709,16.5632824 L0.0241863316,16.4724702 L0.0346156923,16.4317623 L0.0680377401,16.3347228 L0.108674706,16.2480776 L0.158197693,16.1655548 L0.183487772,16.1298079 L0.245871719,16.0539137 L0.315194988,15.9848342 L0.392185635,15.922098 L0.474621635,15.8675068 L0.521755301,15.8410782 C0.54790938,15.827396 0.574859222,15.8148519 0.608785253,15.8005628 L0.699316562,15.7684439 L0.744244017,15.7559093 L0.838329734,15.7365432 L0.934855494,15.7257693 L1.03930136,15.7238029 L1.12377114,15.7300521 L1.22513763,15.7464789 L1.31756198,15.7705877 L1.40894921,15.8038791 L1.45948247,15.8267385 L1.54603496,15.8740063 L1.61749449,15.9218559 L1.70009469,15.989255 C2.10184892,16.3559921 2.62888279,16.557987 3.18392751,16.557987 C4.36775766,16.557987 5.33084315,15.6397155 5.33084315,14.5110019 C5.33084315,13.382339 4.36775766,12.4640927 3.18392751,12.4640927 C2.69053084,12.4640927 2.21930813,12.6236737 1.83851845,12.9167073 L1.62426547,13.09516 L1.53492081,13.1548765 L1.44858052,13.200627 L1.40915377,13.21809 L1.31667285,13.2516947 L1.22296758,13.2760443 L1.1273196,13.2915685 L1.03922343,13.2982482 L0.933028852,13.2962186 L0.836575739,13.2852141 L0.742987374,13.2657436 L0.651709848,13.2377849 L0.562441952,13.2009525 L0.517053668,13.1783176 L0.427722635,13.1247303 L0.348995145,13.0661829 L0.275519691,12.9993401 L0.245009808,12.9672027 L0.182640881,12.8910527 L0.129131542,12.8102764 L0.084841603,12.7258364 L0.0499175525,12.6386981 L0.034774845,12.5902921 L0.0140850059,12.4992212 L0.00273211978,12.4058993 L0,12.3406752 L0,8.29460261 C0,6.91387567 0.744146234,6.09537759 1.74828003,6.02681392 L1.88677339,6.02213031 L4.82678031,6.02213031 C4.72658358,5.67733668 4.67576869,5.32120419 4.67571796,4.96342079 C4.67571796,2.77799568 6.5405356,1 8.83273104,1 Z M2.00057188,18.3900467 L2.00110035,20.992 L2.26129655,21 L15.136785,21 C15.4888167,21 15.748369,20.9735447 15.9209759,20.9343645 L15.972801,20.92 L15.9862784,20.7454501 C15.9936347,20.6086 15.9989482,20.4125409 15.999606,20.1396157 L15.9954443,19.3565842 L15.9954444,8.31333264 C15.995471,8.23760575 15.9924726,8.17275354 15.9874249,8.1181785 L15.9788013,8.049 L15.896066,8.03882139 C15.775471,8.02371206 15.6507892,8.01735394 15.45293,8.01697113 L14.8891225,8.02210502 L10.1745465,8.02216317 L10.9179512,5.46403549 C10.9655222,5.30033933 10.9895412,5.13200325 10.9895643,4.96342079 C10.9895643,3.90440887 10.040996,3 8.83273104,3 C7.62441972,3 6.67581826,3.90442863 6.67581824,4.96313724 C6.6758342,5.07571209 6.68651512,5.18805622 6.70772937,5.29894864 L6.7474343,5.46404589 L7.49081143,8.02213031 L2.02110135,8.022 L2.01533202,8.05509424 C2.00959187,8.09353879 2.0047356,8.14139343 2.00213588,8.19954402 L2.0001003,8.29460261 L2.0001003,10.631 L2.23125266,10.5719057 C2.46357292,10.5184953 2.70133724,10.4845557 2.94216575,10.470924 L3.18392751,10.4640927 C5.45162187,10.4640927 7.33094345,12.2558865 7.33094345,14.5110019 C7.33094345,16.7661489 5.45163947,18.557987 3.18392751,18.557987 C2.7795905,18.557987 2.3815548,18.5007965 2.00057188,18.3900467 Z" fill="#000" fill-rule="evenodd"/></svg>