<svg width="21" height="24" viewBox="0 0 21 24" xmlns="http://www.w3.org/2000/svg"><path d="M19.0402969,0.5 C20.122611,0.5 21,1.37576678 21,2.45607984 L21,2.45607984 L21,13.6391942 C21,17.6091864 17.5354108,20.8278836 10.8520743,23.3963933 L10.8520743,23.3963933 L10.5824866,23.5 L10.2391054,23.4280045 L9.84861066,23.3340069 C9.50569356,23.2466455 9.12522265,23.138871 8.71629093,23.0094342 C7.5473475,22.6394352 6.37758321,22.1680257 5.27858017,21.5825848 C2.01813622,19.8457406 -1.77635684e-14,17.4618493 -1.77635684e-14,14.325208 L-1.77635684e-14,14.325208 L-1.77635684e-14,2.45607984 C-1.77635684e-14,1.37576678 0.877388953,0.5 1.95970308,0.5 L1.95970308,0.5 Z M19.0402969,2.45607984 L1.95970308,2.45607984 L1.95970308,14.325208 C1.95970308,16.5909257 3.51162253,18.4241059 6.20127137,19.8568866 C7.1848008,20.3808144 8.24632131,20.8086022 9.30866267,21.144859 C9.68068064,21.2626118 10.0253773,21.3602527 10.3332516,21.4386865 L10.3332516,21.4386865 L10.4268452,21.461396 L10.9141451,21.2675896 C16.2785427,19.0786996 18.91896,16.5722526 19.0362081,13.830836 L19.0362081,13.830836 L19.0402969,13.6391942 L19.0402969,2.45607984 Z M7.33329799,8.57994344 C8.97677625,8.57994344 10.2394486,9.15009625 10.2394486,10.9005654 C10.2394486,12.5910185 8.96675504,13.3512223 7.37338282,13.3512223 L7.37338282,13.3512223 L6.38128314,13.3512223 L6.38128314,15.9819274 L4.89814422,15.9819274 L4.89814422,8.57994344 Z M12.1735419,8.57994344 L13.1556204,12.1809086 C13.3861082,13.0011284 13.5364263,13.7413268 13.7769353,14.5715494 L13.7769353,14.5715494 L13.8270414,14.5715494 C14.0575292,13.7413268 14.2278897,13.0011284 14.4583775,12.1809086 L14.4583775,12.1809086 L15.4204136,8.57994344 L16.9235949,8.57994344 L14.6487805,15.9819274 L12.8850477,15.9819274 L10.6202545,8.57994344 L12.1735419,8.57994344 Z M7.22306469,9.75025711 L6.38128314,9.75025711 L6.38128314,12.1809086 L7.27317073,12.1809086 C8.29533404,12.1809086 8.78637328,11.7507933 8.78637328,10.9005654 C8.78637328,10.0403349 8.245228,9.75025711 7.22306469,9.75025711 L7.22306469,9.75025711 Z M16.5127253,4.57887103 L16.5127253,6.37935361 L4.9883351,6.37935361 L4.9883351,4.57887103 L16.5127253,4.57887103 Z" fill="#000" fill-rule="evenodd"/></svg>