<svg width="24" height="24" viewBox="0 0 24 24" fill="none" xmlns="http://www.w3.org/2000/svg"><path fill-rule="evenodd" clip-rule="evenodd" d="M22.5 12c0 5.799-4.701 10.5-10.5 10.5-1.764 0-3.427-.435-4.886-1.204l-3.09.66a1 1 0 0 1-1.198-1.131l.462-2.962A10.451 10.451 0 0 1 1.5 12C1.5 6.201 6.201 1.5 12 1.5S22.5 6.201 22.5 12zm-8.587 1.585C13.97 13.4 14 13.203 14 13v-2a2 2 0 1 0-4 0v2a2 2 0 0 0 2.45 1.95l-.604-.604 1.414-1.414.653.653zM12 17c.72 0 1.394-.19 1.978-.522l.892.892 1.414-1.414-.87-.87A3.981 3.981 0 0 0 16 13v-2a4 4 0 0 0-8 0v2a4 4 0 0 0 4 4z" fill="currentColor"/></svg>