<svg width="22" height="24" viewBox="0 0 22 24" xmlns="http://www.w3.org/2000/svg"><path d="M16.8700696,12.7401392 C17.4067029,12.7401392 17.8489878,13.1440931 17.9094334,13.6645101 L17.9164733,13.7865429 L17.915478,16.8226705 L19.9067842,16.8226705 L19.9071926,13.7865429 C19.9071926,13.2499096 20.3111465,12.8076248 20.8315635,12.7471791 L20.9535963,12.7401392 C21.4902296,12.7401392 21.9325145,13.1440931 21.9929601,13.6645101 L22,13.7865429 L22,17.8700696 C22,18.4067029 21.5960461,18.8489878 21.0756291,18.9094334 L20.9535963,18.9164733 L16.8700696,18.9164733 C16.3334363,18.9164733 15.8911514,18.5125194 15.8307058,17.9921024 L15.8236659,17.8700696 L15.8226705,14.8324107 L13.8324107,14.8324107 L13.8329466,21.9535963 C13.8329466,22.4902296 13.4289927,22.9325145 12.9085757,22.9929601 L12.7865429,23 C12.2499096,23 11.8076248,22.5960461 11.7471791,22.0756291 L11.7401392,21.9535963 L11.7401392,13.7865429 C11.7401392,13.2499096 12.1440931,12.8076248 12.6645101,12.7471791 L12.7865429,12.7401392 L16.8700696,12.7401392 Z M8.16705336,12.7401392 C9.2726257,12.7401392 10.1779704,13.5974156 10.2546061,14.6834869 L10.2598608,14.8329466 L10.2598608,20.9071926 C10.2598608,22.0127649 9.40258444,22.9181096 8.31651312,22.9947453 L8.16705336,23 L2.09280742,23 C0.987235088,23 0.0818903717,22.1427236 0.00525467298,21.0566523 L2.68229883e-13,20.9071926 L2.68229883e-13,14.8329466 C2.68229883e-13,13.7273743 0.857276354,12.8220296 1.94334766,12.7453939 L2.09280742,12.7401392 L8.16705336,12.7401392 Z M21.474478,20.9327146 C21.7506203,20.9327146 21.974478,21.1565722 21.974478,21.4327146 L21.974478,22.474478 C21.974478,22.7506203 21.7506203,22.974478 21.474478,22.974478 L20.4327146,22.974478 C20.1565722,22.974478 19.9327146,22.7506203 19.9327146,22.474478 L19.9327146,21.4327146 C19.9327146,21.1565722 20.1565722,20.9327146 20.4327146,20.9327146 L21.474478,20.9327146 Z M17.3909513,20.9327146 C17.6670937,20.9327146 17.8909513,21.1565722 17.8909513,21.4327146 L17.8909513,22.474478 C17.8909513,22.7506203 17.6670937,22.974478 17.3909513,22.974478 L16.3491879,22.974478 C16.0730456,22.974478 15.8491879,22.7506203 15.8491879,22.474478 L15.8491879,21.4327146 C15.8491879,21.1565722 16.0730456,20.9327146 16.3491879,20.9327146 L17.3909513,20.9327146 Z M8.16705336,14.8329466 L2.09280742,14.8329466 L2.09280742,20.9071926 L8.16705336,20.9071926 L8.16705336,14.8329466 Z M5.65081206,16.8491879 C5.92695444,16.8491879 6.15081206,17.0730456 6.15081206,17.3491879 L6.15081206,18.3909513 C6.15081206,18.6670937 5.92695444,18.8909513 5.65081206,18.8909513 L4.60904872,18.8909513 C4.33290635,18.8909513 4.10904872,18.6670937 4.10904872,18.3909513 L4.10904872,17.3491879 C4.10904872,17.0730456 4.33290635,16.8491879 4.60904872,16.8491879 L5.65081206,16.8491879 Z M8.16705336,1 C9.2726257,1 10.1779704,1.85727635 10.2546061,2.94334766 L10.2598608,3.09280742 L10.2598608,9.16705336 C10.2598608,10.2726257 9.40258444,11.1779704 8.31651312,11.2546061 L8.16705336,11.2598608 L2.09280742,11.2598608 C0.987235088,11.2598608 0.0818903717,10.4025844 0.00525467298,9.31651312 L3.58824082e-13,9.16705336 L3.58824082e-13,3.09280742 C3.58824082e-13,1.98723509 0.857276354,1.08189037 1.94334766,1.00525467 L2.09280742,1 L8.16705336,1 Z M19.9071926,1 C21.0127649,1 21.9181096,1.85727635 21.9947453,2.94334766 L22,3.09280742 L22,9.16705336 C22,10.2726257 21.1427236,11.1779704 20.0566523,11.2546061 L19.9071926,11.2598608 L13.8329466,11.2598608 C12.7273743,11.2598608 11.8220296,10.4025844 11.7453939,9.31651312 L11.7401392,9.16705336 L11.7401392,3.09280742 C11.7401392,1.98723509 12.5974156,1.08189037 13.6834869,1.00525467 L13.8329466,1 L19.9071926,1 Z M8.16705336,3.09280742 L2.09280742,3.09280742 L2.09280742,9.16705336 L8.16705336,9.16705336 L8.16705336,3.09280742 Z M19.9071926,3.09280742 L13.8329466,3.09280742 L13.8329466,9.16705336 L19.9071926,9.16705336 L19.9071926,3.09280742 Z M5.65081206,5.10904872 C5.92695444,5.10904872 6.15081206,5.33290635 6.15081206,5.60904872 L6.15081206,6.65081206 C6.15081206,6.92695444 5.92695444,7.15081206 5.65081206,7.15081206 L4.60904872,7.15081206 C4.33290635,7.15081206 4.10904872,6.92695444 4.10904872,6.65081206 L4.10904872,5.60904872 C4.10904872,5.33290635 4.33290635,5.10904872 4.60904872,5.10904872 L5.65081206,5.10904872 Z M17.3909513,5.10904872 C17.6670937,5.10904872 17.8909513,5.33290635 17.8909513,5.60904872 L17.8909513,6.65081206 C17.8909513,6.92695444 17.6670937,7.15081206 17.3909513,7.15081206 L16.3491879,7.15081206 C16.0730456,7.15081206 15.8491879,6.92695444 15.8491879,6.65081206 L15.8491879,5.60904872 C15.8491879,5.33290635 16.0730456,5.10904872 16.3491879,5.10904872 L17.3909513,5.10904872 Z" fill="#000" fill-rule="evenodd"/></svg>