<svg width="24" height="24" viewBox="0 0 24 24" xmlns="http://www.w3.org/2000/svg"><g id="质检icon（轮廓化）" stroke="none" stroke-width="1" fill="none" fill-rule="evenodd"><g id="规范-(5)" transform="translate(1 1)" fill="currentColor" fill-rule="nonzero"><path d="M7.736 8.832h3.588c-.06.288-.12.576-.192.876H8.66v4.2h1.092v-3.144h4.476v3.132h1.092V9.708h-3.036c.072-.288.132-.576.204-.876h3.852V7.776h-3.672c.036-.264.072-.528.096-.804l-1.14-.144c-.036.312-.072.624-.12.948H7.736v-.888c2.976-.048 5.676-.288 8.076-.696l-.564-1.02c-2.52.468-5.388.72-8.604.756v3.816c-.072 2.376-.492 4.248-1.26 5.592l.792.84c.984-1.608 1.5-3.744 1.56-6.432v-.912zm5.028 4.704-.576.852a16.93 16.93 0 0 1 3.54 1.848l.624-.984a18.378 18.378 0 0 0-3.588-1.716zm-1.08-2.388c-.132 1.14-.528 2.016-1.188 2.64-.66.612-1.692 1.08-3.084 1.416l.612 1.056c1.548-.432 2.7-1.032 3.444-1.788.744-.744 1.176-1.836 1.32-3.252l-1.104-.072z" id="形状"/><path d="M11 0C4.925 0 0 4.925 0 11s4.925 11 11 11 11-4.925 11-11S17.075 0 11 0zm0 2a9 9 0 1 1 0 18 9 9 0 0 1 0-18z" id="椭圆形"/></g></g></svg>