<?xml version="1.0" encoding="UTF-8"?>
<svg width="16px" height="16px" viewBox="0 0 16 16" version="1.1" xmlns="http://www.w3.org/2000/svg" xmlns:xlink="http://www.w3.org/1999/xlink">
    <!-- Generator: Sketch 64 (93537) - https://sketch.com -->
    <title>question-circle</title>
    <desc>Created with Sketch.</desc>
    <g id="question-circle" stroke="none" stroke-width="1" fill="none" fill-rule="evenodd">
        <path d="M8,2.27373675e-13 C12.418278,2.27373675e-13 16,3.581722 16,8 C16,12.418278 12.418278,16 8,16 C3.581722,16 0,12.418278 0,8 C0,3.581722 3.581722,2.27373675e-13 8,2.27373675e-13 Z M8,1.33333333 C4.31810167,1.33333333 1.33333333,4.31810167 1.33333333,8 C1.33333333,11.6818983 4.31810167,14.6666667 8,14.6666667 C11.6818983,14.6666667 14.6666667,11.6818983 14.6666667,8 C14.6666667,4.31810167 11.6818983,1.33333333 8,1.33333333 Z M8.036,10.4373333 C8.49329177,10.4373333 8.864,10.8080416 8.864,11.2653333 C8.864,11.7226251 8.49329177,12.0933333 8.036,12.0933333 C7.57870823,12.0933333 7.208,11.7226251 7.208,11.2653333 C7.208,10.8080416 7.57870823,10.4373333 8.036,10.4373333 Z M8,3.86666667 C9.36230238,3.86666667 10.4666667,4.97103095 10.4666667,6.33333333 C10.4666667,6.95548578 10.2345516,7.54317808 9.82394951,7.99396968 C9.74861923,8.07667324 9.66783661,8.15411165 9.58221215,8.22575608 L9.42419783,8.34749029 L9.33792617,8.40628273 C8.90887009,8.72165978 8.69995678,9.06644195 8.67035507,9.47094566 L8.66666667,9.57333333 L7.33333333,9.57333333 C7.33333333,8.72335923 7.71304163,7.99607051 8.42692014,7.42527837 L8.57733333,7.31133333 L8.57634201,7.30950723 L8.67600691,7.24311962 C8.73455136,7.1995062 8.78890985,7.15026714 8.83822468,7.0961254 C9.02730384,6.88853927 9.13333333,6.62008315 9.13333333,6.33333333 C9.13333333,5.70741062 8.62592272,5.2 8,5.2 C7.40702058,5.2 6.9204066,5.65540454 6.87082668,6.23554499 L6.86666667,6.33333333 L5.53333333,6.33333333 C5.53333333,4.97103095 6.63769762,3.86666667 8,3.86666667 Z" id="形状" fill="#000000"></path>
    </g>
</svg>