<svg width="24" height="24" viewBox="0 0 24 24" xmlns="http://www.w3.org/2000/svg"><path d="M12,3.41060513e-13 C18.627417,3.41060513e-13 24,5.372583 24,12 C24,18.627417 18.627417,24 12,24 C5.372583,24 0,18.627417 0,12 C0,5.372583 5.372583,3.41060513e-13 12,3.41060513e-13 Z M12,2 C6.4771525,2 2,6.4771525 2,12 C2,17.5228475 6.4771525,22 12,22 C17.5228475,22 22,17.5228475 22,12 C22,6.4771525 17.5228475,2 12,2 Z M12.054,15.656 C12.7399377,15.656 13.296,16.2120623 13.296,16.898 C13.296,17.5839377 12.7399377,18.14 12.054,18.14 C11.3680623,18.14 10.812,17.5839377 10.812,16.898 C10.812,16.2120623 11.3680623,15.656 12.054,15.656 Z M12,5.8 C14.0434536,5.8 15.7,7.45654643 15.7,9.5 C15.7,10.4332287 15.3518274,11.3147671 14.7359243,11.9909545 C14.6229288,12.1150099 14.5017549,12.2311675 14.3733182,12.3386341 L14.1362967,12.5212354 L14.0068893,12.6094241 C13.3633051,13.0824897 13.0499352,13.5996629 13.0055326,14.2064185 L13,14.36 L11,14.36 C11,13.0850388 11.5695624,11.9941058 12.6403802,11.1379176 L12.866,10.967 L12.864513,10.9642608 L13.0140104,10.8646794 C13.101827,10.7992593 13.1833648,10.7254007 13.257337,10.6441881 C13.5409558,10.3328089 13.7,9.93012472 13.7,9.5 C13.7,8.56111593 12.9388841,7.8 12,7.8 C11.1105309,7.8 10.3806099,8.48310681 10.30624,9.35331749 L10.3,9.5 L8.3,9.5 C8.3,7.45654643 9.95654643,5.8 12,5.8 Z" fill="#000" fill-rule="evenodd"/></svg>