<?xml version="1.0" encoding="utf-8"?><svg width="24" height="24" viewBox="0 0 24 24" xmlns="http://www.w3.org/2000/svg"><path d="M12,6.62581101e-13 C18.627417,6.62581101e-13 24,5.372583 24,12 C24,18.627417 18.627417,24 12,24 C5.372583,24 0,18.627417 0,12 C0,5.372583 5.372583,6.62581101e-13 12,6.62581101e-13 Z M12.054,15.656 C11.3680623,15.656 10.812,16.2120623 10.812,16.898 C10.812,17.5839377 11.3680623,18.14 12.054,18.14 C12.7399377,18.14 13.296,17.5839377 13.296,16.898 C13.296,16.2120623 12.7399377,15.656 12.054,15.656 Z M12,5.8 C10.0224643,5.8 8.40727657,7.35139624 8.3051287,9.30349687 L8.3,9.5 L10.3,9.5 L10.30624,9.35331749 C10.3806099,8.48310681 11.1105309,7.8 12,7.8 C12.9388841,7.8 13.7,8.56111593 13.7,9.5 C13.7,9.93012472 13.5409558,10.3328089 13.257337,10.6441881 L13.1408654,10.7603559 L13.1408654,10.7603559 L13.0140104,10.8646794 L12.864513,10.9642608 L12.866,10.967 L12.847016,10.9801456 C11.7138081,11.8067926 11.0775864,12.8713542 11.0066579,14.1231137 L11,14.36 L13,14.36 L13.0055326,14.2064185 C13.0458986,13.6548225 13.3085517,13.1772615 13.8395074,12.7395697 L14.0068893,12.6094241 L14.1362967,12.5212354 L14.1747002,12.4920503 C14.3785363,12.3453506 14.5664311,12.1770375 14.7359243,11.9909545 C15.3518274,11.3147671 15.7,10.4332287 15.7,9.5 C15.7,7.45654643 14.0434536,5.8 12,5.8 Z" fill="#000" fill-rule="evenodd"/></svg>