<svg width="24" height="24" viewBox="0 0 24 24" fill="none" xmlns="http://www.w3.org/2000/svg"><path d="M11.852 16.727a1.196 1.196 0 1 0 0-2.392 1.196 1.196 0 0 0 0 2.392zM8.2 8.6a3.6 3.6 0 1 1 5.654 2.957c-.026.02-.06.046-.098.078a3.556 3.556 0 0 0-.417.41c-.314.368-.54.793-.54 1.235h-2c0-1.118.556-1.993 1.021-2.536a5.555 5.555 0 0 1 .797-.76l-.003-.006.073-.046.012-.009.07-.05.01-.007A1.59 1.59 0 0 0 13.4 8.6a1.6 1.6 0 0 0-3.201 0h-2z" fill="currentColor"/><path fill-rule="evenodd" clip-rule="evenodd" d="M6.2 1.4a5 5 0 0 0-5 5v8.453a5 5 0 0 0 5 5h2.19l2.34 2.457a1.5 1.5 0 0 0 2.171 0l2.348-2.466 2.65-.052a5 5 0 0 0 4.901-4.999V6.4a5 5 0 0 0-5-5H6.2zm-3 5a3 3 0 0 1 3-3h11.6a3 3 0 0 1 3 3v8.393a3 3 0 0 1-2.94 3l-3.067.06a1 1 0 0 0-.704.31l-2.274 2.387-2.273-2.387a1 1 0 0 0-.724-.31H6.2a3 3 0 0 1-3-3V6.4z" fill="currentColor"/></svg>