<svg width="21" height="24" viewBox="0 0 21 24" xmlns="http://www.w3.org/2000/svg"><path d="M20.0011093,1 C20.5527814,1 21,1.45355645 21,2.01304667 L21,2.01304667 L21,18.6391433 C21,19.1905611 20.5651316,19.6407039 20.0215327,19.6519782 L20.0215327,19.6519782 L13.6733112,19.7825638 L11.0564793,22.6724247 C10.6889835,23.0779941 10.076874,23.1069634 9.67443343,22.7593324 L9.67443343,22.7593324 L9.58549122,22.6724247 L6.97574896,19.7916812 L0.998890718,19.7926821 C0.486623759,19.7926821 0.0644212986,19.4016054 0.00672026838,18.8977781 L0.00672026838,18.8977781 L-2.4158453e-13,18.7796354 L-2.4158453e-13,2.01304667 C-2.4158453e-13,1.45355645 0.447218608,1 0.998890718,1 L0.998890718,1 Z M19.0013943,3.02575872 L1.99727762,3.02575872 L1.99727762,17.7655878 L7.41476041,17.7665888 C7.65438486,17.7665888 7.88461011,17.8538804 8.06462195,18.010286 L8.06462195,18.010286 L8.15025447,18.094164 L10.321034,20.4896703 L12.4917161,18.094164 C12.6497381,17.9197705 12.8620896,17.8079762 13.0910796,17.7760361 L13.0910796,17.7760361 L13.2067867,17.7668005 L19.0013943,17.6460483 L19.0013943,3.02575872 Z M10.5877378,14.7497479 C11.2729146,14.7497479 11.8283601,15.313065 11.8283601,16.0079519 C11.8283601,16.7028387 11.2729146,17.2661558 10.5877378,17.2661558 C9.90256103,17.2661558 9.34711552,16.7028387 9.34711552,16.0079519 C9.34711552,15.313065 9.90256103,14.7497479 10.5877378,14.7497479 Z M10.5337977,4.76515986 C12.5749845,4.76515986 14.2296934,6.44331871 14.2296934,8.51343256 C14.2296934,9.45883676 13.8819069,10.3518764 13.266687,11.0368857 C13.0976586,11.2250885 12.9103089,11.3953483 12.7077101,11.5449663 L12.7060855,11.5445192 L12.6717407,11.5711972 C12.6486596,11.5878178 12.6253863,11.604173 12.6019253,11.6202592 L12.577,11.635 L12.5384607,11.6634243 C11.8955905,12.1426618 11.5825682,12.6665825 11.5382149,13.2812542 L11.5326884,13.4368394 L9.53490698,13.4368394 C9.53490698,12.0645195 10.1771763,10.9026606 11.3798741,10.0128891 L11.398,9.998 L11.3973517,9.99679713 L11.48,9.941 L11.5570745,9.88800321 C11.6408411,9.82370538 11.7187758,9.75156276 11.78974,9.67254851 C12.0730441,9.35710685 12.2319119,8.94916898 12.2319119,8.51343256 C12.2319119,7.56229917 11.4716403,6.79125321 10.5337977,6.79125321 C9.64531524,6.79125321 8.91620395,7.4832723 8.84191657,8.36483633 L8.83568347,8.51343256 L6.83790204,8.51343256 C6.83790204,6.44331871 8.49261089,4.76515986 10.5337977,4.76515986 Z" fill="#000" fill-rule="evenodd"/></svg>