<svg width="24" height="24" viewBox="0 0 24 24" xmlns="http://www.w3.org/2000/svg"><g fill="currentColor" fill-rule="evenodd"><path d="M19.5,1.5 C21.1568542,1.5 22.5,2.84314575 22.5,4.5 L22.5,19.5 C22.5,21.1568542 21.1568542,22.5 19.5,22.5 L4.5,22.5 C2.84314575,22.5 1.5,21.1568542 1.5,19.5 L1.5,4.5 C1.5,2.84314575 2.84314575,1.5 4.5,1.5 L19.5,1.5 Z M19.5,3.5 L4.5,3.5 C3.98716416,3.5 3.56449284,3.88604019 3.50672773,4.38337887 L3.5,4.5 L3.5,19.5 C3.5,20.0128358 3.88604019,20.4355072 4.38337887,20.4932723 L4.5,20.5 L19.5,20.5 C20.0128358,20.5 20.4355072,20.1139598 20.4932723,19.6166211 L20.5,19.5 L20.5,4.5 C20.5,3.98716416 20.1139598,3.56449284 19.6166211,3.50672773 L19.5,3.5 Z"/><path d="M15.038,8.544 L15.038,7.634 L18.118,7.634 L18.118,6.416 L15.038,6.416 L15.038,5.534 L13.694,5.534 L13.694,6.416 L10.306,6.416 L10.306,5.534 L8.962,5.534 L8.962,6.416 L5.882,6.416 L5.882,7.634 L8.962,7.634 L8.962,8.53 L10.306,8.53 L10.306,7.634 L13.694,7.634 L13.694,8.544 L15.038,8.544 Z M9.354,18.47 L9.354,12.59 C9.92333333,11.9366667 10.4133333,11.26 10.824,10.56 L10.824,10.56 L18.048,10.56 L18.048,9.342 L11.426,9.342 C11.5566667,9.02466667 11.65,8.782 11.706,8.614 L11.706,8.614 L10.418,8.39 C10.278,8.726 10.138,9.04333333 9.998,9.342 L9.998,9.342 L6.106,9.342 L6.106,10.56 L9.27,10.56 C8.36466667,11.8573333 7.13733333,13.0053333 5.588,14.004 L5.588,14.004 L6.428,15.096 C6.99733333,14.7133333 7.548,14.2933333 8.08,13.836 L8.08,13.836 L8.08,18.47 L9.354,18.47 Z M13.96,18.428 C14.7906667,18.428 15.206,18.0126667 15.206,17.182 L15.206,17.182 L15.206,15.446 L18.132,15.446 L18.132,14.186 L15.206,14.186 L15.206,13.864 C16.2326667,13.108 16.9093333,12.5993333 17.236,12.338 L17.236,12.338 L17.236,11.386 L11.132,11.386 L11.132,12.59 L15.332,12.59 C14.716,12.9633333 14.226,13.2713333 13.862,13.514 L13.862,13.514 L13.862,14.186 L10.152,14.186 L10.152,15.446 L13.862,15.446 L13.862,16.804 C13.862,17.084 13.7173333,17.224 13.428,17.224 C13.0546667,17.224 12.5366667,17.196 11.874,17.14 L11.874,17.14 L12.266,18.428 L13.96,18.428 Z" fill-rule="nonzero"/></g></svg>