<svg width="22" height="24" viewBox="0 0 22 24" fill="none" xmlns="http://www.w3.org/2000/svg"><path fill-rule="evenodd" clip-rule="evenodd" d="M.5 6.5a5 5 0 0 1 5-5h11a5 5 0 0 1 5 5v11a5 5 0 0 1-5 5h-11a5 5 0 0 1-5-5v-11zm7.564-.65H9.84v.783h2.613V5.85h1.777v.783h2.819v1.64H14.23v.81h-1.777v-.81H9.841v.287l1.382.261-.083.223-.129.343h5.974v1.64H10.22a11.785 11.785 0 0 1-1.264 1.73v5.593H7.245v-3.969c-.36.287-.734.565-1.115.827l-.158.109-1.088-1.447.18-.117c1.253-.817 2.272-1.726 3.058-2.725H5.466v-1.64h3.67l.145-.318H8.064v-.796H5.245v-1.64h2.819V5.85zm2.052 5.456h6.103v1.265l-.08.06c-.48.366-1.025.774-1.641 1.233h2.539v1.68h-2.663v1.366c0 .435-.108.798-.358 1.05-.25.254-.609.364-1.037.364h-1.747l-.515-1.743.292.025c.613.052 1.084.09 1.437.09.08 0 .114-.021.128-.035.014-.014.036-.048.036-.13v-.987H9.22v-1.68h3.39v-.453l.087-.06c.171-.117.387-.257.646-.418h-3.227v-1.627z" fill="currentColor"/></svg>