<svg width="24" height="24" viewBox="0 0 24 24" xmlns="http://www.w3.org/2000/svg"><path d="M12.22,7.90478794e-14 C14.2455855,7.90478794e-14 15.9440476,1.40058189 16.3997894,3.28614874 L16.4143385,3.35403842 C20.3452329,4.93222701 23,8.76193798 23,13.1 C23,14.2331821 22.8200637,15.3425587 22.4719257,16.3962077 C23.1721396,17.160812 23.6,18.1804399 23.6,19.3 C23.6,21.6748244 21.6748244,23.6 19.3,23.6 C18.322576,23.6 17.4213207,23.2738831 16.6991071,22.7245223 C15.3894149,23.2987561 13.9657639,23.6 12.5,23.6 C10.6879089,23.6 8.94226043,23.1393167 7.39816189,22.2792451 C6.61744341,23.0937186 5.51784589,23.6 4.3,23.6 C1.92517558,23.6 -9.14823772e-14,21.6748244 -9.14823772e-14,19.3 C-9.14823772e-14,17.6565468 0.921981112,16.2284338 2.27692561,15.5046787 C2.093827,14.7241666 2,13.918286 2,13.1 C2,8.9987456 4.37326935,5.34295681 7.97364292,3.62296953 C8.29736738,1.57011229 10.075324,7.90478794e-14 12.22,7.90478794e-14 Z M16.3460366,5.51691617 L16.2880663,5.69674809 C15.7082211,7.38594032 14.10589,8.6 12.22,8.6 C10.3641521,8.6 8.7829008,7.42431195 8.18041975,5.77710943 C5.63724475,7.2772843 4,10.0350051 4,13.1 C4,13.7473905 4.07222685,14.3841874 4.21335956,15.0019648 L4.3,15 C6.67482442,15 8.6,16.9251756 8.6,19.3 C8.6,19.7368258 8.53486358,20.1584381 8.4137736,20.5556542 C9.65235101,21.2361209 11.0482095,21.6 12.5,21.6 C13.500995,21.6 14.4758695,21.4271636 15.3921139,21.0956718 C15.1400242,20.5482328 15,19.9404686 15,19.3 C15,16.9251756 16.9251756,15 19.3,15 C19.8005757,15 20.2811736,15.0855356 20.7279749,15.2427883 C20.9076955,14.5501732 21,13.8318581 21,13.1 C21,9.84339002 19.1517059,6.94036348 16.3460366,5.51691617 Z M4.3,17 C3.02974508,17 2,18.0297451 2,19.3 C2,20.5702549 3.02974508,21.6 4.3,21.6 C5.57025492,21.6 6.6,20.5702549 6.6,19.3 C6.6,18.0297451 5.57025492,17 4.3,17 Z M19.3,17 C18.0297451,17 17,18.0297451 17,19.3 C17,20.5702549 18.0297451,21.6 19.3,21.6 C20.5702549,21.6 21.6,20.5702549 21.6,19.3 C21.6,18.0297451 20.5702549,17 19.3,17 Z M12.3,10.3 C13.9568542,10.3 15.3,11.6431458 15.3,13.3 C15.3,14.9568542 13.9568542,16.3 12.3,16.3 C10.6431458,16.3 9.3,14.9568542 9.3,13.3 C9.3,11.6431458 10.6431458,10.3 12.3,10.3 Z M12.3,12.3 C11.7477153,12.3 11.3,12.7477153 11.3,13.3 C11.3,13.8522847 11.7477153,14.3 12.3,14.3 C12.8522847,14.3 13.3,13.8522847 13.3,13.3 C13.3,12.7477153 12.8522847,12.3 12.3,12.3 Z M12.22,2 C10.9497451,2 9.92,3.02974508 9.92,4.3 C9.92,5.57025492 10.9497451,6.6 12.22,6.6 C13.4902549,6.6 14.52,5.57025492 14.52,4.3 C14.52,3.02974508 13.4902549,2 12.22,2 Z" fill="#000" fill-rule="evenodd"/></svg>