<svg width="22" height="24" viewBox="0 0 22 24" xmlns="http://www.w3.org/2000/svg"><path d="M9.11438528,2.21851719 C9.56578097,1.77454687 10.3061066,2.05096476 10.3928523,2.65346066 L10.4010967,2.75682827 L10.4733928,6.86579599 C17.5646078,8.28889147 21.4436381,13.1183716 21.9978529,21.175717 C22.0556089,22.0153906 20.9321055,22.3255274 20.5620147,21.5720721 C18.7921436,17.9688519 15.6190389,15.9001752 10.9550646,15.3541885 L10.5516422,15.3111183 L10.5516422,19.6909988 C10.5516422,20.3186115 9.86018407,20.6672417 9.37157021,20.331082 L9.28763191,20.2645685 L0.253210864,12.0819716 C-0.0477771497,11.8093627 -0.0816740984,11.3518971 0.158181647,11.0381351 L0.230389112,10.9563734 L9.11438528,2.21851719 Z M8.612,5.283 L2.315,11.476 L8.718,17.275 L8.7183089,13.2920625 L10.7280013,13.4862872 C14.1852376,13.8204085 17.0065622,14.9123798 19.1505113,16.7573904 L19.446,17.021 L19.364361,16.7455037 C18.0050318,12.3799605 15.0479936,9.74956627 10.4443003,8.73314836 L10.1126639,8.6632903 L8.66629501,8.37302678 L8.612,5.283 Z" fill="#000" transform="matrix(-1 0 0 1 22 0)" fill-rule="evenodd"/></svg>