<svg width="24" height="24" viewBox="0 0 24 24" fill="none" xmlns="http://www.w3.org/2000/svg"><path fill-rule="evenodd" clip-rule="evenodd" d="M12.19 2.802c0-1.637 2.008-2.424 3.12-1.224l7.61 8.21a1.8 1.8 0 0 1 0 2.447l-7.61 8.21c-1.112 1.2-3.12.413-3.12-1.224v-2.94c-4.23.888-6.938 3.537-8.381 5.416-.524.682-1.349.6-1.767.44-.411-.157-1.137-.674-.984-1.59.7-4.18 1.782-7.55 3.682-9.973 1.78-2.267 4.207-3.617 7.45-4.104V2.802zm2 .51v4.95l-.902.087c-3.256.318-5.427 1.488-6.974 3.46-1.354 1.725-2.29 4.137-2.959 7.337 1.956-2.088 5.123-4.46 9.71-5.039l1.126-.141v4.746l7.136-7.7-7.136-7.7z" fill="currentColor"/></svg>