<?xml version="1.0" encoding="UTF-8"?>
<svg width="16px" height="16px" viewBox="0 0 16 16" version="1.1" xmlns="http://www.w3.org/2000/svg" xmlns:xlink="http://www.w3.org/1999/xlink">
    <!-- Generator: Sketch 64 (93537) - https://sketch.com -->
    <title>refresh</title>
    <desc>Created with Sketch.</desc>
    <g id="refresh" stroke="none" stroke-width="1" fill="none" fill-rule="evenodd">
        <path d="M7.91700776,0.333333333 C10.2742129,0.333333333 12.4456821,1.42955719 13.865211,3.24328627 L14.8961035,2.64744988 C14.9598759,2.6106309 15.0414213,2.63248092 15.0782403,2.69625327 C15.0929556,2.72174101 15.0988246,2.75138131 15.0949324,2.7805535 L14.7091581,5.67190037 C14.6994194,5.74489151 14.6323536,5.79616771 14.5593624,5.78642896 C14.5468281,5.78475659 14.5345955,5.78130963 14.5230321,5.77619169 L11.9066088,4.61816437 C11.8392715,4.58836094 11.8088444,4.50961286 11.8386478,4.4422756 C11.8500844,4.41643608 11.8694345,4.39489809 11.893906,4.38076943 L12.6960215,3.91734648 C11.5247472,2.50956967 9.79210127,1.66666667 7.91700776,1.66666667 C4.46683129,1.66666667 1.66666667,4.50042847 1.66666667,8 C1.66666667,11.4995715 4.46683129,14.3333333 7.91700776,14.3333333 C10.4483411,14.3333333 12.6971247,12.7941169 13.6693143,10.4820787 L13.7415634,10.3027182 L14.9857093,10.7821751 C13.8604022,13.7022418 11.0711576,15.6666667 7.91700776,15.6666667 C3.72686843,15.6666667 0.333333333,12.232415 0.333333333,8 C0.333333333,3.76758504 3.72686843,0.333333333 7.91700776,0.333333333 Z" id="路径" fill="#000000"></path>
    </g>
</svg>