<svg width="20" height="24" viewBox="0 0 20 24" fill="none" xmlns="http://www.w3.org/2000/svg"><path fill-rule="evenodd" clip-rule="evenodd" d="M4 2a4 4 0 0 0-4 4v12a4 4 0 0 0 4 4h6.774l-1.489-2.556a3.014 3.014 0 0 1-.012-3.026l1.528-2.646a3.014 3.014 0 0 1 2.626-1.502l3.076.011A3.064 3.064 0 0 1 18 12.68V6a4 4 0 0 0-4-4H4zm7.256 3.546a1 1 0 0 0-1.825.098L7.467 10.8l-.96-1.485a1 1 0 0 0-.84-.457H3v2h2.122l1.737 2.685a1 1 0 0 0 1.774-.187l1.865-4.895.945 1.851a1 1 0 0 0 .89.546H15v-2h-2.054l-1.69-3.312z" fill="currentColor"/><path d="M16.04 17.994a1.215 1.215 0 1 1-2.43 0 1.215 1.215 0 0 1 2.43 0z" fill="currentColor"/><path fill-rule="evenodd" clip-rule="evenodd" d="m19.102 16.85-1.152-1.978a2.284 2.284 0 0 0-1.963-1.133l-2.289-.01a2.243 2.243 0 0 0-1.954 1.12l-1.137 1.968a2.243 2.243 0 0 0 .009 2.252l1.152 1.977a2.284 2.284 0 0 0 1.963 1.134l2.289.009a2.243 2.243 0 0 0 1.954-1.119l1.137-1.969a2.243 2.243 0 0 0-.01-2.252zm-1.5.873-1.152-1.977a.548.548 0 0 0-.47-.272l-2.288-.008a.507.507 0 0 0-.445.25l-1.136 1.969a.507.507 0 0 0 .005.51l1.152 1.978c.097.166.277.27.47.27l2.288.01c.19 0 .357-.1.444-.25l1.137-1.97a.507.507 0 0 0-.005-.51z" fill="currentColor"/></svg>