<svg width="22" height="24" viewBox="0 0 22 24" fill="none" xmlns="http://www.w3.org/2000/svg"><path fill-rule="evenodd" clip-rule="evenodd" d="M0 6a5 5 0 0 1 5-5h10a5 5 0 0 1 5 5v6.679a3.064 3.064 0 0 0-1.497-.398l-3.076-.011a3.014 3.014 0 0 0-2.626 1.502l-1.528 2.646a3.014 3.014 0 0 0 .012 3.026l1.548 2.658c.206.354.478.657.795.898H5a5 5 0 0 1-5-5V6zm14 0H5v2h9V6zm-4 5H5v2h5v-2z" fill="currentColor"/><path d="M18.04 17.994a1.215 1.215 0 1 1-2.43 0 1.215 1.215 0 0 1 2.43 0z" fill="currentColor"/><path fill-rule="evenodd" clip-rule="evenodd" d="m21.102 16.85-1.152-1.978a2.284 2.284 0 0 0-1.963-1.133l-2.289-.01a2.243 2.243 0 0 0-1.954 1.12l-1.137 1.968a2.243 2.243 0 0 0 .009 2.252l1.152 1.977a2.284 2.284 0 0 0 1.963 1.134l2.289.009a2.243 2.243 0 0 0 1.954-1.119l1.137-1.969a2.243 2.243 0 0 0-.01-2.252zm-1.5.873-1.152-1.977a.548.548 0 0 0-.47-.272l-2.288-.008a.507.507 0 0 0-.445.25l-1.136 1.969a.507.507 0 0 0 .005.51l1.152 1.978c.097.166.277.27.47.27l2.288.01c.19 0 .357-.1.444-.25l1.137-1.97a.507.507 0 0 0-.005-.51z" fill="currentColor"/></svg>