<svg width="21" height="24" viewBox="0 0 21 24" fill="none" xmlns="http://www.w3.org/2000/svg"><path fill-rule="evenodd" clip-rule="evenodd" d="M0 6a5 5 0 0 1 5-5h10a5 5 0 0 1 5 5v7.666A6.667 6.667 0 0 0 10.666 23H5a5 5 0 0 1-5-5V6zm5 2h10V6H5v2zm0 5h5v-2H5v2z" fill="currentColor"/><path d="M16.772 20.082a1.313 1.313 0 0 1-.333.168 1.283 1.283 0 1 1 .333-.169z" fill="currentColor"/><path fill-rule="evenodd" clip-rule="evenodd" d="M13.771 14.523a5 5 0 1 1 4.458 8.954 5 5 0 0 1-4.458-8.954zm3.503 7.001 1.165 1.165 1.06-1.061-.555-.555-.556-.556a2.785 2.785 0 0 0 .428-1.484 2.783 2.783 0 1 0-1.542 2.491z" fill="currentColor"/></svg>