<svg width="20" height="24" viewBox="0 0 20 24" fill="none" xmlns="http://www.w3.org/2000/svg"><path fill-rule="evenodd" clip-rule="evenodd" d="M5 1a5 5 0 0 0-5 5v12a5 5 0 0 0 5 5h4v-2H5a3 3 0 0 1-3-3V6a3 3 0 0 1 3-3h10a3 3 0 0 1 3 3v5h2V6a5 5 0 0 0-5-5H5z" fill="currentColor"/><path d="M5 13h5M5 8h10" stroke="currentColor" stroke-width="2"/><path d="M13.508 16.401a2.309 2.309 0 0 1 2.317-2.301 2.309 2.309 0 0 1 2.317 2.301 2.309 2.309 0 0 1-2.317 2.301 2.309 2.309 0 0 1-2.316-2.3zM12 22h7.8" stroke="currentColor" stroke-width="1.8"/><path stroke="currentColor" stroke-width="1.8" d="M15.9 18.2 15.9 21.2"/></svg>