<svg width="21" height="24" viewBox="0 0 21 24" xmlns="http://www.w3.org/2000/svg"><path d="M17.9721747,1.5 C19.6273433,1.5 20.969958,2.83985294 20.9729409,4.49459354 L21,19.4945935 C21.0028602,21.0922718 19.7559755,22.4005004 18.1809304,22.4945848 L17.999214,22.5 L3.00077112,22.5 C1.34349098,22.5 0,21.1568542 0,19.5 L0,4.5 C0,2.84314575 1.34349098,1.5 3.00077112,1.5 L17.9721747,1.5 Z M17.9721747,3.5 L3.00077112,3.5 C2.48780346,3.5 2.0650235,3.88604019 2.00724354,4.38337887 L2.00051407,4.5 L2.00051407,19.5 C2.00051407,20.0128358 2.38665349,20.4355072 2.88412001,20.4932723 L3.00077112,20.5 L18.0010166,20.5 C18.5139834,20.4990742 18.9360668,20.1122729 18.9929501,19.6148309 L18.9994693,19.4981978 L18.97243,4.49819785 C18.9715067,3.98601623 18.5855532,3.56433804 18.0886816,3.50671147 L17.9721747,3.5 Z M9.04166021,12.2374929 L10.2599939,13.5625071 L6.34725417,17.1602231 L3.99999906,14.7027035 L5.30165734,13.4594477 L6.42882778,14.639 L9.04166021,12.2374929 Z M17.1508266,14 L17.1508266,15.8 L11.6508266,15.8 L11.6508266,14 L17.1508266,14 Z M17.1508283,8 L17.1508283,9.8 L4.15082832,9.8 L4.15082832,8 L17.1508283,8 Z" fill="#000" fill-rule="evenodd"/></svg>