<svg width="21" height="24" viewBox="0 0 21 24" fill="none" xmlns="http://www.w3.org/2000/svg"><path fill-rule="evenodd" clip-rule="evenodd" d="M5 1a5 5 0 0 0-5 5v12a5 5 0 0 0 5 5h4v-2H5a3 3 0 0 1-3-3V6a3 3 0 0 1 3-3h10a3 3 0 0 1 3 3v5h2V6a5 5 0 0 0-5-5H5z" fill="currentColor"/><path d="M5 13h5M5 8h10" stroke="currentColor" stroke-width="2"/><path d="M19.826 23A3.913 3.913 0 1 0 12 23" stroke="currentColor" stroke-width="1.8"/><path d="M18.456 16.543a2.543 2.543 0 1 1-5.086 0 2.543 2.543 0 0 1 5.086 0z" stroke="currentColor" stroke-width="1.8"/></svg>