<svg width="21" height="24" viewBox="0 0 21 24" xmlns="http://www.w3.org/2000/svg"><path d="M17.9721747,1.5 C19.6273433,1.5 20.969958,2.83985294 20.9729409,4.49459354 L21,19.4945935 C21.0028602,21.0922718 19.7559755,22.4005004 18.1809304,22.4945848 L17.999214,22.5 L3.00077112,22.5 C1.34349098,22.5 -1.3500312e-13,21.1568542 -1.3500312e-13,19.5 L-1.3500312e-13,4.5 C-1.3500312e-13,2.84314575 1.34349098,1.5 3.00077112,1.5 L17.9721747,1.5 Z M17.9721747,3.5 L3.00077112,3.5 C2.48780346,3.5 2.0650235,3.88604019 2.00724354,4.38337887 L2.00051407,4.5 L2.00051407,19.5 C2.00051407,20.0128358 2.38665349,20.4355072 2.88412001,20.4932723 L3.00077112,20.5 L18.0010166,20.5 C18.5139834,20.4990742 18.9360668,20.1122729 18.9929501,19.6148309 L18.9994693,19.4981978 L18.97243,4.49819785 C18.9715067,3.98601623 18.5855532,3.56433804 18.0886816,3.50671147 L17.9721747,3.5 Z M16.9999991,15 L16.9999991,17 L3.99999906,17 L3.99999906,15 L16.9999991,15 Z M15.4999991,6 C16.3284233,6 16.9999991,6.67157288 16.9999991,7.5 L16.9999991,7.5 L16.9999991,10.5 C16.9999991,11.3284271 16.3284233,12 15.4999991,12 L15.4999991,12 L5.49999906,12 C4.67157178,12 3.99999906,11.3284271 3.99999906,10.5 L3.99999906,10.5 L3.99999906,7.5 C3.99999906,6.67157288 4.67157178,6 5.49999906,6 L5.49999906,6 Z M14.9999986,8 L5.99999859,8 L5.99999859,10 L14.9999986,10 L14.9999986,8 Z" fill="#000" fill-rule="evenodd"/></svg>