<svg width="21" height="24" viewBox="0 0 21 24" fill="none" xmlns="http://www.w3.org/2000/svg"><path fill-rule="evenodd" clip-rule="evenodd" d="M5 1a5 5 0 0 0-5 5v12a5 5 0 0 0 5 5h4v-2H5a3 3 0 0 1-3-3V6a3 3 0 0 1 3-3h10a3 3 0 0 1 3 3v5h2V6a5 5 0 0 0-5-5H5z" fill="currentColor"/><path d="M5 13h5M5 8h10" stroke="currentColor" stroke-width="2"/><path clip-rule="evenodd" d="M15.5 20.963 13.26 22.2a.3.3 0 0 1-.442-.31l.432-2.647-1.842-1.888a.3.3 0 0 1 .17-.507l2.531-.386 1.12-2.384a.3.3 0 0 1 .543 0l1.119 2.384 2.532.386a.3.3 0 0 1 .17.507l-1.843 1.888.432 2.646a.3.3 0 0 1-.441.311L15.5 20.963z" stroke="currentColor" stroke-width="1.8"/></svg>