<svg width="22" height="24" viewBox="0 0 22 24" fill="none" xmlns="http://www.w3.org/2000/svg"><path fill-rule="evenodd" clip-rule="evenodd" d="M1 6a5 5 0 0 1 5-5h10a5 5 0 0 1 5 5v6.185a1.994 1.994 0 0 0-.84-.185h-6.32a2 2 0 0 0-1.993 1.834l-.666 8c-.036.424.063.826.26 1.166H6a5 5 0 0 1-5-5V6zm15 3H6V7h10v2zm-5 5H6v-2h5v2z" fill="currentColor"/><path fill-rule="evenodd" clip-rule="evenodd" d="M21.03 14.837a1.3 1.3 0 0 0-1.31-1.234l-5.462.047a1.3 1.3 0 0 0-1.287 1.233l-.338 6.556a1.3 1.3 0 0 0 1.765 1.28l2.784-1.072 2.37 1.024a1.3 1.3 0 0 0 1.814-1.26l-.337-6.574z" fill="currentColor"/></svg>