<svg width="21" height="24" viewBox="0 0 21 24" fill="none" xmlns="http://www.w3.org/2000/svg"><path fill-rule="evenodd" clip-rule="evenodd" d="M5 1a5 5 0 0 0-5 5v12a5 5 0 0 0 5 5h5.666A6.667 6.667 0 0 1 20 13.666V6a5 5 0 0 0-5-5H5zm0 7h10V6H5v2zm0 5h5v-2H5v2z" fill="currentColor"/><path d="M16 18.6c.089 0 .175-.015.255-.042l.006-.002a.799.799 0 1 0-.726-1.407.799.799 0 0 0 .204 1.407l.006.002c.08.027.166.042.255.042z" fill="currentColor"/><path fill-rule="evenodd" clip-rule="evenodd" d="M14.003 14.415a5 5 0 1 1 3.994 9.17 5 5 0 0 1-3.994-9.17zm-.617 6.335v1.5H18.5v-1.5h-1.75v-.775a2.282 2.282 0 0 0 .458-.217c.279-.173.518-.403.7-.675A2.296 2.296 0 0 0 16 15.5a2.293 2.293 0 0 0-1.088.274 2.3 2.3 0 0 0 .339 4.201v.775h-1.864z" fill="currentColor"/></svg>