<svg width="22" height="24" viewBox="0 0 22 24" fill="none" xmlns="http://www.w3.org/2000/svg"><path d="M10.5 22H5a4 4 0 0 1-4-4V6a4 4 0 0 1 4-4h10a4 4 0 0 1 4 4v4.5" stroke="currentColor" stroke-width="2" stroke-linecap="square" stroke-linejoin="round"/><path d="M5.5 14.2h5" stroke="currentColor" stroke-width="2"/><path transform="matrix(1 0 0 -1 5.5 8.2)" stroke="currentColor" stroke-width="2" d="M0-1 9-1"/><path d="m19.394 14.848 1.366 2.344c.303.52.303 1.154.008 1.665l-1.347 2.334c-.295.51-.845.828-1.447.825l-2.713-.01a1.707 1.707 0 0 1-1.466-.847l-1.365-2.344a1.659 1.659 0 0 1-.008-1.665l1.347-2.334c.295-.51.844-.828 1.446-.825l2.713.01a1.707 1.707 0 0 1 1.466.847z" stroke="currentColor" stroke-width="2"/><circle cx="16.6" cy="18" r="1.4" fill="currentColor"/></svg>