<svg width="24" height="24" viewBox="0 0 24 24" xmlns="http://www.w3.org/2000/svg"><path d="M7.03560463,2.71439115 C9.13223424,2.71791089 10.841534,4.36732046 10.9430197,6.43804288 L10.9477808,6.6397095 L10.9204978,22.9170009 L9.08300038,22.913921 L9.11028336,6.6366296 C9.11212621,5.53716428 8.26109442,4.63539157 7.18115014,4.55736885 L7.03252474,4.55189407 L2.03406891,4.55189115 L2.03406891,2.71439115 L7.03560463,2.71439115 Z M14.4967123,1.99671096 L16.3342097,1.99979086 L16.3069267,18.2770823 C16.3050838,19.3765476 17.1561156,20.2783203 18.2360599,20.356343 L18.3846853,20.3618178 L23.3831411,20.3618207 L23.3831411,22.1993207 L18.3816054,22.1993207 C16.2849758,22.195801 14.575676,20.5463914 14.4741903,18.475669 L14.4694293,18.2740024 L14.4967123,1.99671096 Z" fill="#000" fill-rule="evenodd"/></svg>