<svg width="22" height="24" viewBox="0 0 22 24" fill="none" xmlns="http://www.w3.org/2000/svg"><path d="m12.5 7.073 2.121-2.121a1.4 1.4 0 0 0 0-1.98L12.5.85l-1.273 1.273.71.71c-.378-.021-.803-.032-1.26-.025-1.683.025-3.916.3-5.812 1.391a11.41 11.41 0 0 0-3.773 3.5 10.3 10.3 0 0 0-.788 1.377 7.417 7.417 0 0 0-.232.549l-.007.02-.007.018-.004.013-.002.004v.002s0 .002.948.318c.949.316.948.317.948.317v.002l.004-.012a5.423 5.423 0 0 1 .162-.38c.127-.272.333-.662.635-1.109a9.41 9.41 0 0 1 3.113-2.885c1.467-.844 3.303-1.102 4.846-1.125.553-.009 1.054.013 1.467.044l-.948.948L12.5 7.073z" fill="currentColor"/><path d="M22 13a5 5 0 0 0-5-5H9a5 5 0 0 0-5 5v5a5 5 0 0 0 5 5h8a5 5 0 0 0 5-5v-5z" fill="currentColor"/></svg>