<svg width="24" height="24" viewBox="0 0 24 24" fill="none" xmlns="http://www.w3.org/2000/svg"><path fill-rule="evenodd" clip-rule="evenodd" d="m10.957 2.938.816-.815L10.5.85 8.38 2.972a1.4 1.4 0 0 0 0 1.98l2.121 2.12L11.773 5.8l-1.041-1.041c.43-.035.966-.06 1.561-.052 1.55.024 3.406.283 4.895 1.139a9.51 9.51 0 0 1 3.146 2.916c.306.452.513.846.643 1.122a5.53 5.53 0 0 1 .165.389l.005.014v-.002L22 10c.854-.285.854-.286.853-.286v-.002l-.002-.004-.004-.012-.013-.037a7.37 7.37 0 0 0-.228-.54 10.201 10.201 0 0 0-.78-1.365 11.31 11.31 0 0 0-3.74-3.468c-1.876-1.079-4.089-1.353-5.765-1.378-.5-.008-.961.006-1.364.03zM6 8a5 5 0 0 0-5 5v5a5 5 0 0 0 5 5h8a5 5 0 0 0 5-5v-5a5 5 0 0 0-5-5H6zm-3 5a3 3 0 0 1 3-3h8a3 3 0 0 1 3 3v5a3 3 0 0 1-3 3H6a3 3 0 0 1-3-3v-5z" fill="currentColor"/></svg>