<svg width="16" height="17" viewBox="0 0 16 17" xmlns="http://www.w3.org/2000/svg"><path d="M13.9461916,5 C15.0800983,5 16,6.00731208 16,7.24978064 L16,7.24978064 L16,14.7502194 C16,15.9891781 15.0769042,17 13.9461916,17 L13.9461916,17 L5.05380835,17 C3.91990172,17 3,15.9891781 3,14.7502194 L3,14.7502194 L3,7.24978064 C3,6.01082188 3.91990172,5 5.05061425,5 L5.05061425,5 Z M13.9429975,6.49868383 L5.05061425,6.49868383 C4.67371007,6.49868383 4.36707617,6.83562445 4.36707617,7.24978064 L4.36707617,7.24978064 L4.36707617,14.7502194 C4.36707617,15.1643755 4.67371007,15.5013162 5.05061425,15.5013162 L5.05061425,15.5013162 L13.9429975,15.5013162 C14.3199017,15.5013162 14.6265356,15.1643755 14.6265356,14.7502194 L14.6265356,14.7502194 L14.6265356,7.24978064 C14.6265356,6.83562445 14.3199017,6.49868383 13.9429975,6.49868383 L13.9429975,6.49868383 Z M9.41249576,0.204640371 L10.7862975,1.51693735 C11.0712342,1.78979118 11.0712342,2.22830626 10.7862975,2.49791183 L9.41588786,3.81020882 C9.27341953,3.94663573 9.08685386,4.01160093 8.90028819,4.01160093 C8.71372253,4.01160093 8.52715686,3.94338747 8.38808063,3.81020882 C8.10314397,3.53735499 8.10314397,3.09883991 8.38808063,2.82923434 L8.52037265,2.7025522 C6.41726874,2.7350348 2.89287364,3.3099768 1.39356408,6.58422274 C1.27484047,6.84408353 1.00686433,7 0.728711879,7 C0.633732993,7 0.5319699,6.98051044 0.436991014,6.94477958 C0.0672517787,6.78886311 -0.0989612722,6.37958237 0.0604675725,6.0287703 C1.4105246,3.07935035 4.49055419,1.3675174 8.52037265,1.31229698 L8.38468853,1.18561485 C8.09975187,0.912761021 8.09975187,0.47424594 8.38468853,0.204640371 C8.66962519,-0.0682134571 9.1275591,-0.0682134571 9.41249576,0.204640371 Z" transform="matrix(-1 0 0 1 16 0)" fill="currentColor" fill-rule="nonzero"/></svg>