<svg width="22" height="24" viewBox="0 0 22 24" fill="none" xmlns="http://www.w3.org/2000/svg"><path d="M9.5 7.073 7.38 4.95a1.4 1.4 0 0 1 0-1.98L9.5.852l1.273 1.272-.71.71c.378-.021.803-.032 1.26-.025 1.683.025 3.916.3 5.812 1.391a11.409 11.409 0 0 1 3.773 3.5c.368.544.623 1.025.788 1.377a7.412 7.412 0 0 1 .24.57l.006.017.004.013.002.004v.002s0 .002-.948.318l-.948.317v.002l-.004-.012a5.41 5.41 0 0 0-.162-.38 8.306 8.306 0 0 0-.635-1.109 9.41 9.41 0 0 0-3.113-2.885c-1.467-.844-3.303-1.102-4.846-1.125a16.366 16.366 0 0 0-1.467.044l.948.948L9.5 7.073z" fill="currentColor"/><path d="M0 13a5 5 0 0 1 5-5h8a5 5 0 0 1 5 5v5a5 5 0 0 1-5 5H5a5 5 0 0 1-5-5v-5z" fill="currentColor"/></svg>