<svg width="24" height="24" viewBox="0 0 24 24" xmlns="http://www.w3.org/2000/svg"><path d="M19.043478,1 C21.252617,1 23.043478,2.790861 23.043478,5 L23.043478,5 L23.043478,19.043478 C23.043478,21.252617 21.252617,23.043478 19.043478,23.043478 L19.043478,23.043478 L5,23.043478 C2.790861,23.043478 1,21.252617 1,19.043478 L1,19.043478 L1,5 C1,2.790861 2.790861,1 5,1 L5,1 Z M19.043478,3 L18.932,3 L18.9328062,9 C18.9328062,10.5976809 17.6838862,11.9036609 16.109079,11.9949073 L15.9328062,12 L8,12 C6.34314575,12 5,10.6568542 5,9 L5,9 L4.9989959,3.00000025 C3.8948879,3.0005427 3,3.89576522 3,5 L3,5 L3,19.043478 C3,20.1480475 3.8954305,21.043478 5,21.043478 L5,21.043478 L19.043478,21.043478 C20.1480475,21.043478 21.043478,20.1480475 21.043478,19.043478 L21.043478,19.043478 L21.043478,5 C21.043478,3.8954305 20.1480475,3 19.043478,3 L19.043478,3 Z M17,15 C17.5522847,15 18,15.4477153 18,16 C18,16.5128358 17.6139598,16.9355072 17.1166211,16.9932723 L17,17 L7,17 C6.44771525,17 6,16.5522847 6,16 C6,15.4871642 6.38604019,15.0644928 6.88337887,15.0067277 L7,15 L17,15 Z M16.9328062,3 L7,3 L7,9 C7,9.55228475 7.44771525,10 8,10 L8,10 L15.9328062,10 C16.4850909,10 16.9328062,9.55228475 16.9328062,9 L16.9328062,9 L16.9328062,3 Z M14.5,6 C15.3284271,6 16,6.67157288 16,7.5 C16,8.32842712 15.3284271,9 14.5,9 C13.6715729,9 13,8.32842712 13,7.5 C13,6.67157288 13.6715729,6 14.5,6 Z" fill="#000" fill-rule="nonzero"/></svg>