<svg width="24" height="24" viewBox="0 0 24 24" xmlns="http://www.w3.org/2000/svg"><path d="M22.5,15.5 L22.5,19.5 C22.5,21.1568542 21.1568542,22.5 19.5,22.5 L15.5,22.5 L15.5,20.5 L19.5,20.5 C20.0128358,20.5 20.4355072,20.1139598 20.4932723,19.6166211 L20.5,19.5 L20.5,15.5 L22.5,15.5 Z M3.5,15.499 L3.5,19.5 C3.5,20.0128358 3.88604019,20.4355072 4.38337887,20.4932723 L4.5,20.5 L8.5,20.5 L8.5,22.5 L4.5,22.5 C2.84314575,22.5 1.5,21.1568542 1.5,19.5 L1.5,15.5 L3.5,15.499 Z M22.5,11 L22.5,13 L1.5,13 L1.5,11 L22.5,11 Z M19.5,1.5 C21.1568542,1.5 22.5,2.84314575 22.5,4.5 L22.5,8.5 L20.5,8.5 L20.5,4.5 C20.5,3.98716416 20.1139598,3.56449284 19.6166211,3.50672773 L19.5,3.5 L15.5,3.5 L15.5,1.5 L19.5,1.5 Z M8.5,1.5 L8.5,3.5 L4.5,3.5 C3.98716416,3.5 3.56449284,3.88604019 3.50672773,4.38337887 L3.5,4.5 L3.5,8.499 L1.5,8.5 L1.5,4.5 C1.5,2.84314575 2.84314575,1.5 4.5,1.5 L8.5,1.5 Z" fill="#000" fill-rule="evenodd"/></svg>