<?xml version="1.0" encoding="UTF-8"?>
<svg width="16px" height="16px" viewBox="0 0 16 16" version="1.1" xmlns="http://www.w3.org/2000/svg" xmlns:xlink="http://www.w3.org/1999/xlink">
    <!-- Generator: Sketch 64 (93537) - https://sketch.com -->
    <title>search</title>
    <desc>Created with Sketch.</desc>
    <g id="search" stroke="none" stroke-width="1" fill="none" fill-rule="evenodd">
        <path d="M7.46753247,0.373376623 C11.3855266,0.373376623 14.5616883,3.54953838 14.5616883,7.46753247 C14.5616883,8.86632809 14.1568482,10.1705682 13.4579451,11.2694756 C13.3479668,11.4676067 13.280257,11.6533316 13.2533333,11.8266667 C13.2111279,12.0983859 13.3311279,12.3783859 13.6133333,12.6666667 L13.61071,12.66671 L15.9101169,14.9307777 L14.9746512,15.8808733 L12.70071,13.6420433 L12.6988022,13.6445564 C12.4884129,13.4542549 12.2753665,13.340126 12.0596629,13.3021697 C11.826907,13.2612129 11.591494,13.2964287 11.3534239,13.4078171 C10.2358006,14.1363278 8.90134068,14.5616883 7.46753247,14.5616883 C3.54953838,14.5616883 0.373376623,11.3855266 0.373376623,7.46753247 C0.373376623,3.54953838 3.54953838,0.373376623 7.46753247,0.373376623 Z M7.46753247,1.70670996 C4.28591805,1.70670996 1.70670996,4.28591805 1.70670996,7.46753247 C1.70670996,10.6491469 4.28591805,13.228355 7.46753247,13.228355 C10.6491469,13.228355 13.228355,10.6491469 13.228355,7.46753247 C13.228355,4.28591805 10.6491469,1.70670996 7.46753247,1.70670996 Z" id="形状" fill="#000000"></path>
    </g>
</svg>