<svg width="21" height="24" viewBox="0 0 21 24" xmlns="http://www.w3.org/2000/svg"><path d="M21,20.673913 L21,22.5 L0,22.5 L0,20.673913 L21,20.673913 Z M18,1.5 C19.6568542,1.5 21,2.84898551 21,4.51304348 L21,15.5608696 C21,17.2249275 19.6568542,18.573913 18,18.573913 L3,18.573913 C1.34314575,18.573913 0,17.2249275 0,15.5608696 L0,4.51304348 C0,2.84898551 1.34314575,1.5 3,1.5 L18,1.5 Z M18,3.32608696 L3,3.32608696 C2.3880936,3.32608696 1.88480431,3.79315403 1.82428341,4.39168407 L1.81818182,4.51304348 L1.81818182,15.5608696 C1.81818182,16.1754364 2.28322696,16.6809139 2.87916596,16.741698 L3,16.7478261 L18,16.7478261 C18.6119064,16.7478261 19.1151957,16.280759 19.1757166,15.682229 L19.1818182,15.5608696 L19.1818182,4.51304348 C19.1818182,3.89847662 18.716773,3.39299912 18.120834,3.33221508 L18,3.32608696 Z M13.8181818,4.74130435 C16.2532555,4.74130435 18.2272727,6.72390427 18.2272727,9.16956522 C18.2272727,11.6152262 16.2532555,13.5978261 13.8181818,13.5978261 C13.0647576,13.5978261 12.3554709,13.4080288 11.7351356,13.0734426 L9.7687376,14.984208 L8.50398967,13.6723137 L10.3379689,11.8887293 C9.75584599,11.1382634 9.40909091,10.1945849 9.40909091,9.16956522 C9.40909091,6.72390427 11.3831081,4.74130435 13.8181818,4.74130435 Z M5.5,13.1413043 L5.5,14.9673913 L3.5,14.9673913 L3.5,13.1413043 L5.5,13.1413043 Z M13.8181818,6.5673913 C12.3872622,6.5673913 11.2272727,7.73242425 11.2272727,9.16956522 C11.2272727,10.6067062 12.3872622,11.7717391 13.8181818,11.7717391 C15.2491014,11.7717391 16.4090909,10.6067062 16.4090909,9.16956522 C16.4090909,7.73242425 15.2491014,6.5673913 13.8181818,6.5673913 Z M6.5,9.12391304 L6.5,10.95 L3.5,10.95 L3.5,9.12391304 L6.5,9.12391304 Z M8,5.10652174 L8,6.9326087 L3.5,6.9326087 L3.5,5.10652174 L8,5.10652174 Z" fill="#000" fill-rule="evenodd"/></svg>