<svg width="22" height="24" viewBox="0 0 22 24" fill="none" xmlns="http://www.w3.org/2000/svg"><path d="M14.5 7.1a2.2 2.2 0 1 0 0 4.4 2.2 2.2 0 0 0 0-4.4z" fill="currentColor"/><path fill-rule="evenodd" clip-rule="evenodd" d="M15.538 2.3H6.462c-.808 0-1.469 0-2.006.044-.556.045-1.058.142-1.527.381A3.9 3.9 0 0 0 1.225 4.43C.986 4.9.89 5.4.844 5.956.8 6.493.8 7.154.8 7.962v4.476c0 .808 0 1.469.044 2.006.045.556.142 1.058.381 1.527a3.9 3.9 0 0 0 1.704 1.704c.47.239.971.336 1.527.381.537.044 1.198.044 2.006.044h9.076c.808 0 1.469 0 2.006-.044.556-.045 1.058-.142 1.527-.381a3.9 3.9 0 0 0 1.704-1.704c.239-.47.336-.971.381-1.527.044-.537.044-1.198.044-2.006V7.962c0-.808 0-1.469-.044-2.006-.045-.556-.142-1.058-.381-1.527a3.9 3.9 0 0 0-1.704-1.704c-.47-.239-.971-.336-1.527-.381-.537-.044-1.198-.044-2.006-.044zm-4.838 7a3.8 3.8 0 1 1 2.102 3.4l-2.245 2.175-1.113-1.15 2.102-2.035A3.785 3.785 0 0 1 10.7 9.3zM4.1 7.2h5V5.8h-5v1.4zm4 3.5h-4V9.3h4v1.4zm-1 3.5h-3v-1.4h3v1.4z" fill="currentColor"/><path d="M2.1 21.7h17.8v-1.8H2.1v1.8z" fill="currentColor"/></svg>