<svg width="21" height="24" viewBox="0 0 21 24" xmlns="http://www.w3.org/2000/svg"><path d="M19,1.5 C20.1045695,1.5 21,2.3954305 21,3.5 L21,17.5 C21,18.6045695 20.1045695,19.5 19,19.5 L18,19.5 L18,19.7222222 C18,21.1995271 16.846763,22.4074791 15.3914367,22.4949305 L15.2222222,22.5 L2.77777778,22.5 C1.30047289,22.5 0.0925209305,21.346763 0.00506948883,19.8914367 L0,19.7222222 L0,7.27777778 C0,5.80047289 1.15323697,4.59252093 2.6085633,4.50506949 L2.77777778,4.5 L3,4.5 L3,3.5 C3,2.3954305 3.8954305,1.5 5,1.5 L19,1.5 Z M3,6.5 L2.77777778,6.5 C2.38401921,6.5 2.05860197,6.79260403 2.00710019,7.17223794 L2,7.27777778 L2,19.7222222 C2,20.1159808 2.29260403,20.441398 2.67223794,20.4928998 L2.77777778,20.5 L15.2222222,20.5 C15.6159808,20.5 15.941398,20.207396 15.9928998,19.8277621 L16,19.7222222 L16,19.5 L5,19.5 C3.8954305,19.5 3,18.6045695 3,17.5 L3,6.5 Z M19,3.5 L5,3.5 L5,17.5 L19,17.5 L19,3.5 Z M11.8111111,5.22222222 C14.5602619,5.22222222 16.7888889,7.45084925 16.7888889,10.2 C16.7888889,11.2494539 16.4641256,12.2230552 15.9096175,13.0257854 L17.6913933,14.8086067 L16.3086067,16.1913933 L14.5038041,14.3873242 C13.7275495,14.8875335 12.8032254,15.1777778 11.8111111,15.1777778 C9.06196036,15.1777778 6.83333333,12.9491508 6.83333333,10.2 C6.83333333,7.45084925 9.06196036,5.22222222 11.8111111,5.22222222 Z M11.8111111,7.17777778 C10.1419839,7.17777778 8.78888889,8.53087276 8.78888889,10.2 C8.78888889,11.8691272 10.1419839,13.2222222 11.8111111,13.2222222 C13.4802384,13.2222222 14.8333333,11.8691272 14.8333333,10.2 C14.8333333,8.53087276 13.4802384,7.17777778 11.8111111,7.17777778 Z" fill="#000" fill-rule="evenodd"/></svg>