<svg width="24" height="24" viewBox="0 0 24 24" xmlns="http://www.w3.org/2000/svg"><path d="M23.1965328,15.0242643 L21.4203814,13.5267849 C21.5044435,13.0187115 21.5478304,12.4999419 21.5478304,11.9811722 C21.5478304,11.4624026 21.5044435,10.9436329 21.4203814,10.4355596 L23.1965328,8.93808016 C23.4704126,8.70811011 23.5707448,8.33374026 23.4487192,7.99680739 L23.424314,7.92728156 C22.9334997,6.57687603 22.206769,5.33610739 21.2631039,4.23973855 L21.2142936,4.18358307 C20.981089,3.91350196 20.6041653,3.81188729 20.2624934,3.92954638 L18.0578964,4.70235272 C17.244392,4.04453141 16.3359787,3.52576176 15.35435,3.16208819 L14.928616,0.889128393 C14.8635356,0.538825176 14.5842324,0.26607 14.2290022,0.201892312 L14.1557868,0.18852196 C12.7430007,-0.0628406533 11.2569993,-0.0628406533 9.84421323,0.18852196 L9.77099783,0.201892312 C9.41576756,0.26607 9.13646437,0.538825176 9.07138402,0.889128393 L8.64293834,3.17278447 C7.6694447,3.53645804 6.76645477,4.05255362 5.95837369,4.70770086 L3.73750657,3.92954638 C3.39854639,3.81188729 3.01891098,3.91082789 2.78570638,4.18358307 L2.73689611,4.23973855 C1.79323096,5.33878146 1.06650033,6.57955011 0.57568598,7.92728156 L0.551280847,7.99680739 C0.429255181,8.33106619 0.529587395,8.70543604 0.803467223,8.93808016 L2.60131204,10.451604 C2.51724991,10.9543292 2.47657469,11.4677507 2.47657469,11.9784981 C2.47657469,12.4919197 2.51724991,13.0053412 2.60131204,13.5053923 L0.803467223,15.0189161 C0.529587395,15.2488862 0.429255181,15.623256 0.551280847,15.9601889 L0.57568598,16.0297147 C1.06650033,17.3774462 1.79323096,18.6208889 2.73689611,19.7172578 L2.78570638,19.7734132 C3.01891098,20.0434943 3.39583471,20.145109 3.73750657,20.0274499 L5.95837369,19.2492954 C6.76645477,19.9044427 7.6694447,20.4232123 8.64293834,20.7842118 L9.07138402,23.0678679 C9.13646437,23.4181711 9.41576756,23.6909263 9.77099783,23.755104 L9.84421323,23.7684743 C10.5519621,23.8941556 11.275981,23.9583333 12,23.9583333 C12.724019,23.9583333 13.4507496,23.8941556 14.1557868,23.7684743 L14.2290022,23.755104 C14.5842324,23.6909263 14.8635356,23.4181711 14.928616,23.0678679 L15.35435,20.7949081 C16.3359787,20.4312345 17.244392,19.915139 18.0578964,19.2546436 L20.2624934,20.0274499 C20.6014536,20.145109 20.981089,20.0461684 21.2142936,19.7734132 L21.2631039,19.7172578 C22.206769,18.6182148 22.9334997,17.3774462 23.424314,16.0297147 L23.4487192,15.9601889 C23.5707448,15.6312783 23.4704126,15.2569084 23.1965328,15.0242643 L23.1965328,15.0242643 Z M19.4950876,10.7510999 C19.5628796,11.1548845 19.5981315,11.5693654 19.5981315,11.9838463 C19.5981315,12.3983272 19.5628796,12.8128081 19.4950876,13.2165927 L19.3161166,14.2888949 L21.3417427,15.9976259 C21.0353226,16.6955583 20.6475522,17.3533796 20.1865663,17.9657417 L17.6701259,17.0859725 L16.818658,17.7758827 C16.1705661,18.3000005 15.4492588,18.7118073 14.6682946,19.0006069 L13.6351439,19.382999 L13.1497529,21.9768472 C12.3877704,22.0624175 11.6095179,22.0624175 10.8448237,21.9768472 L10.3594327,19.3776508 L9.33441712,18.9899106 C8.5615879,18.701111 7.84299231,18.2893042 7.2003238,17.7678605 L6.34885582,17.0752762 L3.81614533,17.9630676 C3.35515948,17.3507055 2.97010072,16.6902101 2.66096903,15.9949518 L4.70828854,14.2701764 L4.53202924,13.2005483 C4.46694888,12.8021118 4.43169703,12.390305 4.43169703,11.9838463 C4.43169703,11.5747135 4.4642372,11.1655808 4.53202924,10.7671443 L4.70828854,9.69751614 L2.66096903,7.97274076 C2.96738903,7.2748084 3.35515948,6.61698709 3.81614533,6.00462498 L6.34885582,6.89241634 L7.2003238,6.19983211 C7.84299231,5.6783884 8.5615879,5.26658156 9.33441712,4.97778196 L10.3621444,4.5953899 L10.8475354,1.99619352 C11.6095179,1.91062327 12.3877704,1.91062327 13.1524646,1.99619352 L13.6378556,4.59004176 L14.6710062,4.97243382 C15.4492588,5.26123342 16.1732778,5.67304026 16.8213696,6.19715804 L17.6728376,6.8870682 L20.189278,6.00729905 C20.6502639,6.61966116 21.0353226,7.28015654 21.3444543,7.97541483 L19.3188283,9.68414579 L19.4950876,10.7510999 Z M12.0027117,7.01007543 C9.3669573,7.01007543 7.2301523,9.11724287 7.2301523,11.7164393 C7.2301523,14.3156356 9.3669573,16.4228031 12.0027117,16.4228031 C14.6384661,16.4228031 16.7752711,14.3156356 16.7752711,11.7164393 C16.7752711,9.11724287 14.6384661,7.01007543 12.0027117,7.01007543 Z M14.1503634,13.834303 C13.5754869,14.3985318 12.8135044,14.7113981 12.0027117,14.7113981 C11.1919189,14.7113981 10.4299364,14.3985318 9.85505996,13.834303 C9.28289517,13.2674001 8.96562844,12.5159863 8.96562844,11.7164393 C8.96562844,10.9168922 9.28289517,10.1654784 9.85505996,9.59857553 C10.4299364,9.03167262 11.1919189,8.72148046 12.0027117,8.72148046 C12.8135044,8.72148046 13.5754869,9.03167262 14.1503634,9.59857553 C14.7225282,10.1654784 15.0397949,10.9168922 15.0397949,11.7164393 C15.0397949,12.5159863 14.7225282,13.2674001 14.1503634,13.834303 Z" fill="#000" fill-rule="evenodd"/></svg>