<svg width="24" height="24" viewBox="0 0 24 24" fill="none" xmlns="http://www.w3.org/2000/svg"><path fill-rule="evenodd" clip-rule="evenodd" d="M14.47 1.413a10.984 10.984 0 0 0-5.211.07 1 1 0 0 0-.748 1.02 2 2 0 0 1-3.089 1.783 1 1 0 0 0-1.257.138A10.984 10.984 0 0 0 1.5 8.9a1 1 0 0 0 .4 1.126 2 2 0 0 1-.113 3.394l-.024.014a1 1 0 0 0-.489 1.09 11.047 11.047 0 0 0 2.514 4.916 1 1 0 0 0 1.331.15 2 2 0 0 1 3.137 1.975 1 1 0 0 0 .707 1.137c1.799.52 3.729.582 5.6.135a1 1 0 0 0 .746-1.185 2.001 2.001 0 0 1 3.3-1.906 1 1 0 0 0 1.4-.052 10.998 10.998 0 0 0 2.683-4.918 1 1 0 0 0-.631-1.181 2 2 0 0 1-.142-3.704 1 1 0 0 0 .536-1.227 11.053 11.053 0 0 0-3-4.636 1 1 0 0 0-1.19-.122l-.024.014a2 2 0 0 1-2.996-1.599 1 1 0 0 0-.774-.91zm4.306 3.353zm1.155 13.481.023.02-.401.442c.131-.15.257-.305.378-.462zm-.65.76-.004-.003.004.003zm-5.34 2.943-.587.128a3.147 3.147 0 0 1-.007-.03c.199-.026.396-.059.594-.098zm-4.701-.207v-.002.002zm-4.704-2.965zm-2.286-4.47zm.205-5.113zm2.423-4.07zM9.51 2.452V2.45zM9 12a3 3 0 1 1 6 0 3 3 0 0 1-6 0z" fill="currentColor"/></svg>