<svg width="22" height="24" viewBox="0 0 22 24" xmlns="http://www.w3.org/2000/svg"><path d="M10.9666463,1.02473475 L10.9666463,3.02248614 C6.01115504,3.02248614 1.99393568,7.04739306 1.99393568,12.0123674 C1.99393568,16.9773417 6.01115504,21.0022486 10.9666463,21.0022486 C15.8336465,21.0022486 19.7955855,17.1198049 19.9355313,12.2774313 L19.9393568,12.0123674 L21.9332925,12.0123674 C21.9332925,18.0806693 17.0233577,23 10.9666463,23 C4.90993477,23 0,18.0806693 0,12.0123674 C0,6.04038769 4.7553009,1.18119346 10.6791133,1.02843799 L10.9666463,1.02473475 Z M14.5152324,0.997784592 L22.0003935,1.00489985 L22.0075088,8.48856526 L20.0114658,8.48666785 L20.007,4.458 L14.0023408,10.9256705 L12.5412368,9.56885125 L18.642,2.998 L14.5171298,2.9934287 L14.5152324,0.997784592 Z" fill="#000" fill-rule="evenodd"/></svg>