<svg width="24" height="24" viewBox="0 0 24 24" xmlns="http://www.w3.org/2000/svg"><path d="M12,0 L12,2 C6.4771525,2 2,6.4771525 2,12 C2,17.5228475 6.4771525,22 12,22 C17.4292399,22 21.8479317,17.6733292 21.9961582,12.2799048 L22,12 L24,12 C24,18.627417 18.627417,24 12,24 C5.372583,24 0,18.627417 0,12 C0,5.47454326 5.20854437,0.165607248 11.6950252,0.00379985776 L12,0 Z M23,1 L23,8 L21,8 L21,4.414 L12.7071068,12.7071068 L11.2928932,11.2928932 L19.584,3 L16,3 L16,1 L23,1 Z" fill="#000" fill-rule="nonzero"/></svg>