<svg width="20" height="24" viewBox="0 0 20 24" fill="none" xmlns="http://www.w3.org/2000/svg"><g clip-path="url(#clip0_1809_80235)"><path fill-rule="evenodd" clip-rule="evenodd" d="M8.188 1.132a5 5 0 0 1 3.624 0l6.275 2.44A3 3 0 0 1 20 6.368v5.291a11 11 0 0 1-7.013 10.252l-2.262.88a2 2 0 0 1-1.45 0l-2.262-.88A11 11 0 0 1 0 11.66V6.37a3 3 0 0 1 1.913-2.797l6.275-2.44v-.001zM10 8.982l-2.747-3.14-1.506 1.317L7.797 9.5H5.5v2H9V13H5.5v2H9v2.4h2V15h3.5v-2H11v-1.5h3.5v-2h-2.296l2.049-2.341-1.506-1.318L10 8.981z" fill="currentColor"/></g><defs><clipPath id="clip0_1809_80235"><path fill="currentColor" d="M0 0H20V24H0z"/></clipPath></defs></svg>