<svg width="20" height="24" viewBox="0 0 20 24" fill="none" xmlns="http://www.w3.org/2000/svg"><g clip-path="url(#clip0_1809_80202)"><path fill-rule="evenodd" clip-rule="evenodd" d="M8.188 1.132a5 5 0 0 1 3.624 0l6.275 2.44A3 3 0 0 1 20 6.368v5.291a11 11 0 0 1-7.013 10.252l-2.262.88a2 2 0 0 1-1.45 0l-2.262-.88A11 11 0 0 1 0 11.66V6.37a3 3 0 0 1 1.913-2.797l6.275-2.44v-.001zM5 12.5a1.5 1.5 0 1 0 0-3 1.5 1.5 0 0 0 0 3zm5 0a1.5 1.5 0 1 0 0-3 1.5 1.5 0 0 0 0 3zm6.5-1.5a1.5 1.5 0 1 1-3 0 1.5 1.5 0 0 1 3 0z" fill="currentColor"/></g><defs><clipPath id="clip0_1809_80202"><path fill="currentColor" d="M0 0H20V24H0z"/></clipPath></defs></svg>