<svg width="24" height="24" viewBox="0 0 24 24" fill="none" xmlns="http://www.w3.org/2000/svg"><path d="m13.615 10.251-1.897 4.54a1.1 1.1 0 0 1-1.93.187l-1.787-2.68H6.258v-2h2.814l1.448 2.172 2.185-5.229c.393-.941 1.745-.886 2.06.084l.968 2.972h2.008v2H15.08a1.1 1.1 0 0 1-1.046-.76l-.42-1.286z" fill="currentColor"/><path fill-rule="evenodd" clip-rule="evenodd" d="M12.535 1.073a2 2 0 0 0-1.07 0l-8 2.222A2 2 0 0 0 2 5.222v10.229a2 2 0 0 0 .829 1.621l6.829 4.932a4 4 0 0 0 4.684 0l6.829-4.932A2 2 0 0 0 22 15.451V5.222a2 2 0 0 0-1.465-1.927l-8-2.222zM4 5.223 12 3l8 2.222v10.229l-6.829 4.932a2 2 0 0 1-2.342 0L4 15.45V5.222z" fill="currentColor"/></svg>