<svg width="24" height="24" viewBox="0 0 24 24" xmlns="http://www.w3.org/2000/svg"><g fill="currentColor" fill-rule="evenodd"><path d="M20.5222222,0.522222222 L3.47777778,0.522222222 C2.39775427,0.522222222 1.52222222,1.39775427 1.52222222,2.47777778 L1.52222222,14.3437247 C1.52222222,17.4795252 3.53608725,19.8627776 6.78963079,21.5991563 C7.8863079,22.1844403 9.0535965,22.6557234 10.220066,23.0256232 C10.6281322,23.1550253 11.0077979,23.262771 11.3499893,23.3501089 L11.7396576,23.4440814 L12.082312,23.5160576 L12.3513292,23.4124786 C19.0205211,20.8446574 22.4777778,17.6268228 22.4777778,13.6578947 L22.4777778,2.47777778 C22.4777778,1.39775427 21.6022457,0.522222222 20.5222222,0.522222222 Z M3.47777778,2.47777778 L20.5222222,2.47777778 L20.5222222,13.6578947 L20.5181421,13.8494852 C20.4011421,16.590167 17.766313,19.0959422 12.4132686,21.2842455 L11.927,21.478 L11.8336045,21.4552966 C11.5263818,21.3768838 11.1824146,21.279269 10.811184,21.1615478 C9.751091,20.8253811 8.6918171,20.397708 7.71036921,19.8739206 C5.02641275,18.441524 3.47777778,16.6088351 3.47777778,14.3437247 L3.47777778,2.47777778 Z"/><path transform="rotate(45 9.328 12)" d="M6.328 11H12.328V13H6.328z"/><path transform="rotate(-45 14 11)" d="M9 10H19V12H9z"/></g></svg>