<svg width="20" height="24" viewBox="0 0 20 24" fill="none" xmlns="http://www.w3.org/2000/svg"><path d="M10 8.1a1.7 1.7 0 0 0-.011 3.4h.022A1.7 1.7 0 0 0 10 8.1z" fill="currentColor"/><path fill-rule="evenodd" clip-rule="evenodd" d="M8.188 1.132a5 5 0 0 1 3.624 0l6.275 2.44A3 3 0 0 1 20 6.368v5.291a11 11 0 0 1-7.013 10.252l-2.262.88a2 2 0 0 1-1.45 0l-2.262-.88A11 11 0 0 1 0 11.66V6.37a3 3 0 0 1 1.913-2.797l6.275-2.44zM6.5 9.8c0 .933.365 1.781.96 2.409a4.897 4.897 0 0 0-2.36 4.19h1.8a3.1 3.1 0 0 1 3.087-3.1h.025a3.1 3.1 0 0 1 3.088 3.1h1.8a4.897 4.897 0 0 0-2.36-4.19A3.5 3.5 0 1 0 6.5 9.8z" fill="currentColor"/></svg>