<svg width="20" height="24" viewBox="0 0 20 24" fill="none" xmlns="http://www.w3.org/2000/svg"><path d="M1 11.66V6.367a2 2 0 0 1 1.275-1.864l6.275-2.44a4 4 0 0 1 2.9 0l6.275 2.44A2 2 0 0 1 19 6.368v5.291a10 10 0 0 1-6.376 9.32l-2.262.88a1 1 0 0 1-.724 0l-2.262-.88A10 10 0 0 1 1 11.66z" stroke="currentColor" stroke-width="2" stroke-linecap="square" stroke-linejoin="round"/><path d="M14 16.4a4 4 0 0 0-8 0" stroke="currentColor" stroke-width="1.8"/><path d="M12.6 9.8a2.6 2.6 0 1 1-5.2 0 2.6 2.6 0 0 1 5.2 0z" stroke="currentColor" stroke-width="1.8"/></svg>