<svg width="24" height="24" viewBox="0 0 24 24" fill="none" xmlns="http://www.w3.org/2000/svg"><path d="M1.5 3.5h1.696a1 1 0 0 1 .998.939l.577 9.368A5 5 0 0 0 9.76 18.5H22v-2H9.761a3 3 0 0 1-2.994-2.816l-.576-9.368A3 3 0 0 0 3.196 1.5H1.5v2z" fill="currentColor"/><path d="M8 5h11.301a1 1 0 0 1 .994 1.108l-.511 4.72a2 2 0 0 1-1.903 1.783L8.722 13l.085 1.998 9.159-.39a4 4 0 0 0 3.806-3.566l.512-4.72A3 3 0 0 0 19.3 3H8v2zM10 21a1.5 1.5 0 1 1-3 0 1.5 1.5 0 0 1 3 0zM18.5 22.5a1.5 1.5 0 1 0 0-3 1.5 1.5 0 0 0 0 3z" fill="currentColor"/></svg>