<svg width="24" height="24" viewBox="0 0 24 24" xmlns="http://www.w3.org/2000/svg"><path d="M4.09293477,13.2059596 L4.09293477,18.0169313 C4.09293477,19.0560048 4.89698234,19.907283 5.91683673,19.9825251 L6.06393477,19.9879313 L17.4526114,19.9879313 C18.4916849,19.9879313 19.3429631,19.1838837 19.4182052,18.1640293 L19.4236114,18.0169313 L19.4236114,13.2059596 L21.4816114,13.2059596 L21.4816114,18.0169313 C21.4816114,20.1746576 19.7854341,21.9362205 17.6536991,22.0410005 L17.4526114,22.0459313 L6.06393477,22.0459313 C3.90620846,22.0459313 2.14464558,20.349754 2.03986557,18.218019 L2.03493477,18.0169313 L2.03493477,13.2059596 L4.09293477,13.2059596 Z M20.7991342,1.5 C21.5169341,1.5 22.0988259,2.0818918 22.0988259,2.79969172 L22.0988259,8.499 L22.0993191,8.49989811 C22.0993191,10.2988293 20.6409972,11.7571511 18.8420661,11.7571511 C17.9194399,11.7571511 17.0864077,11.3735536 16.4937565,10.7571455 C15.9027867,11.3735536 15.0697546,11.7571511 14.1471284,11.7571511 C13.2245022,11.7571511 12.3914701,11.3735536 11.7988189,10.7571455 C11.207849,11.3735536 10.3748169,11.7571511 9.45219071,11.7571511 C8.52956455,11.7571511 7.69653239,11.3735536 7.1038812,10.7571455 C6.51291136,11.3735536 5.6798792,11.7571511 4.75725304,11.7571511 C2.95832186,11.7571511 1.5,10.2988293 1.5,8.49989811 L1.50675565,8.499 L1.50675565,2.79969172 C1.50675565,2.0818918 2.08864746,1.5 2.80644737,1.5 L20.7991342,1.5 Z M19.644,3.319 L3.929,3.319 L3.86065718,3.32720958 C3.73492298,3.35091563 3.61475903,3.41141913 3.51745808,3.50872007 C3.3981364,3.62804176 3.33415257,3.78174598 3.3255066,3.93794154 L3.32625565,8.499 L3.3195684,8.49989811 C3.3195684,9.29390941 3.96324174,9.93758274 4.75725304,9.93758274 C5.55126434,9.93758274 6.19493767,9.29390941 6.19493767,8.49989811 L8.01450608,8.49989811 C8.01450608,9.29390941 8.65817941,9.93758274 9.45219071,9.93758274 C10.246202,9.93758274 10.8898753,9.29390941 10.8898753,8.49989811 L12.7094438,8.49989811 C12.7094438,9.29390941 13.3531171,9.93758274 14.1471284,9.93758274 C14.9411397,9.93758274 15.584813,9.29390941 15.584813,8.49989811 L17.4043814,8.49989811 C17.4043814,9.29390941 18.0480548,9.93758274 18.8420661,9.93758274 C19.6360774,9.93758274 20.2797507,9.29390941 20.2797507,8.49989811 L20.279,3.954 C20.2717092,3.82468374 20.2296044,3.69849228 20.1507022,3.59084063 L20.084626,3.51384831 C19.9629998,3.39222212 19.8056502,3.32809196 19.646352,3.3214578 L19.646352,3.3214578 L19.644,3.319 Z" fill="#000" fill-rule="evenodd"/></svg>