<svg width="18" height="24" viewBox="0 0 18 24" xmlns="http://www.w3.org/2000/svg"><path d="M4.27535528,17.4212081 C5.8103572,17.4212081 7.05472213,18.6700632 7.05472213,20.210604 C7.05472213,21.7511449 5.8103572,23 4.27535528,23 C2.74035335,23 1.49598843,21.7511449 1.49598843,20.210604 C1.49598843,18.6700632 2.74035335,17.4212081 4.27535528,17.4212081 Z M13.7164358,17.4212081 C15.2514378,17.4212081 16.4958027,18.6700632 16.4958027,20.210604 C16.4958027,21.7511449 15.2514378,23 13.7164358,23 C12.1814339,23 10.937069,21.7511449 10.937069,20.210604 C10.937069,18.6700632 12.1814339,17.4212081 13.7164358,17.4212081 Z M4.27535528,19.443547 C3.85324455,19.443547 3.5110562,19.7869702 3.5110562,20.210604 C3.5110562,20.6342379 3.85324455,20.977661 4.27535528,20.977661 C4.697466,20.977661 5.03965435,20.6342379 5.03965435,20.210604 C5.03965435,19.7869702 4.697466,19.443547 4.27535528,19.443547 Z M13.7164358,19.443547 C13.2943251,19.443547 12.9521368,19.7869702 12.9521368,20.210604 C12.9521368,20.6342379 13.2943251,20.977661 13.7164358,20.977661 C14.1385466,20.977661 14.4807349,20.6342379 14.4807349,20.210604 C14.4807349,19.7869702 14.1385466,19.443547 13.7164358,19.443547 Z M18,0 L18,13.7464412 C18,15.3619674 16.7416708,16.6825345 15.1549991,16.7748001 L14.9773983,16.7799497 L3.01671354,16.7799497 C1.40699896,16.7767999 0.0936312315,15.5113626 0.00478541624,13.918789 L0,13.7405376 L0.0151823033,5.91114507 C0.0183107217,4.29784468 1.27586526,2.98070022 2.86041824,2.88867626 L3.03777824,2.88354022 L12.5446209,2.88354022 L12.5446209,4.9058792 L3.03777824,4.9058792 C2.52178965,4.9058792 2.09625873,5.29519789 2.03723534,5.79732794 L2.03024626,5.91508082 L2.01506396,13.7444734 C2.01405839,14.2630363 2.40217745,14.6911875 2.90314882,14.7505765 L3.02063514,14.7576088 L14.9773983,14.7576107 C15.4940978,14.7576107 15.9199535,14.3672587 15.9781538,13.864365 L15.9849322,13.7464412 L15.9849322,0 L18,0 Z" fill="currentColor" fill-rule="evenodd"/></svg>