<svg width="22" height="24" viewBox="0 0 22 24" xmlns="http://www.w3.org/2000/svg"><path d="M19.0628696,1 C19.889248,1 20.5752546,1.63683822 20.6346147,2.45909285 L21.9958609,21.315067 C22.0583758,22.181023 21.4053599,22.9335751 20.5373091,22.9959391 L20.4241158,23 L1.57581574,23 C0.70551674,23 -9.59232693e-14,22.2961858 -9.59232693e-14,21.4279871 L0.0040706793,21.315067 L1.36531693,2.45909285 C1.42467695,1.63683822 2.11068355,1 2.93706199,1 L19.0628696,1 Z M18.6627179,2.99974337 L3.33604746,2.99974337 L2.03743203,20.998434 L19.9623361,20.998434 L18.6627179,2.99974337 Z M14.9243099,6.00185935 C15.4781366,6.00185935 15.9271018,6.44974109 15.9271018,7.00223122 C15.9271018,9.76468185 13.6822758,12.0040906 10.9131426,12.0040906 C8.14400938,12.0040906 5.89918339,9.76468185 5.89918339,7.00223122 C5.89918339,6.44974109 6.34814859,6.00185935 6.90197523,6.00185935 C7.45580187,6.00185935 7.90476706,6.44974109 7.90476706,7.00223122 C7.90476706,8.6597016 9.25166266,10.0033468 10.9131426,10.0033468 C12.5152839,10.0033468 13.82491,8.75396242 13.9164112,7.17856955 L13.9215181,7.00223122 C13.9215181,6.44974109 14.3704833,6.00185935 14.9243099,6.00185935 Z" fill="currentColor" fill-rule="evenodd"/></svg>