<svg width="24" height="24" viewBox="0 0 24 24" xmlns="http://www.w3.org/2000/svg"><path d="M21.5,1.5 L21.5,3.5 L6.73076923,3.5 C5.55231548,3.5 4.58728874,4.41378963 4.50560107,5.5714568 L4.5,5.73076923 L4.5,18.2692308 C4.5,19.4476845 5.41378963,20.4127113 6.5714568,20.4943989 L6.73076923,20.5 L21.4924232,20.5 L21.4924232,22.5 L6.73076923,22.5 C4.46498564,22.5 2.61520504,20.7188795 2.50517773,18.4803888 L2.5,18.2692308 L2.5,5.73076923 C2.5,3.46498564 4.2811205,1.61520504 6.51961118,1.50517773 L6.73076923,1.5 L21.5,1.5 Z M16.7078687,7.293656 L21.4142144,12.010161 L16.7063423,16.7078704 L15.2936577,15.2921296 L17.588,13 L11,13 L11,11 L17.58,11 L15.2921313,8.706344 L16.7078687,7.293656 Z" fill="#000" fill-rule="evenodd"/></svg>