<svg width="24" height="24" viewBox="0 0 24 24" xmlns="http://www.w3.org/2000/svg"><path d="M18.5,-1.77635684e-15 C20.1568542,-1.77635684e-15 21.5,1.34314575 21.5,3 L21.5,21 C21.5,22.6568542 20.1568542,24 18.5,24 L5.5,24 C3.84314575,24 2.5,22.6568542 2.5,21 L2.5,3 C2.5,1.34314575 3.84314575,-1.77635684e-15 5.5,-1.77635684e-15 L18.5,-1.77635684e-15 Z M18.5,2 L5.5,2 C4.98716416,2 4.56449284,2.38604019 4.50672773,2.88337887 L4.5,3 L4.5,21 C4.5,21.5128358 4.88604019,21.9355072 5.38337887,21.9932723 L5.5,22 L18.5,22 C19.0128358,22 19.4355072,21.6139598 19.4932723,21.1166211 L19.5,21 L19.5,3 C19.5,2.48716416 19.1139598,2.06449284 18.6166211,2.00672773 L18.5,2 Z M10,4 L10.0000725,7.26760632 C10.5978339,7.61342606 11,8.25974756 11,9 C11,9.74025244 10.5978339,10.3865739 10.0000725,10.7323937 L10,20 L8,20 L7.9989225,10.7318119 C7.40171539,10.3858493 7,9.7398375 7,9 C7,8.2601625 7.40171539,7.61415066 7.9989225,7.26818814 L8,4 L10,4 Z M16,4 L16.0010775,13.2681881 C16.5982846,13.6141507 17,14.2601625 17,15 C17,15.7398375 16.5982846,16.3858493 16.0010775,16.7318119 L16,20 L14,20 L13.9999275,16.7323937 C13.4021661,16.3865739 13,15.7402524 13,15 C13,14.2597476 13.4021661,13.6134261 13.9999275,13.2676063 L14,4 L16,4 Z" fill="#000" transform="rotate(90 12 12)" fill-rule="evenodd"/></svg>