<svg width="24" height="24" viewBox="0 0 24 24" xmlns="http://www.w3.org/2000/svg"><path d="M11.8229886,-7.10542736e-15 C18.3526449,-7.10542736e-15 23.6459773,5.29333231 23.6459773,11.8229886 C23.6459773,18.3526449 18.3526449,23.6459773 11.8229886,23.6459773 C5.29333231,23.6459773 4.47641924e-13,18.3526449 4.47641924e-13,11.8229886 C4.47641924e-13,5.29333231 5.29333231,-7.10542736e-15 11.8229886,-7.10542736e-15 Z M11.8229886,2 C6.39790181,2 2,6.39790181 2,11.8229886 C2,17.2480754 6.39790181,21.6459773 11.8229886,21.6459773 C17.2480754,21.6459773 21.6459773,17.2480754 21.6459773,11.8229886 C21.6459773,6.39790181 17.2480754,2 11.8229886,2 Z M7.85892544,14.0007081 C8.18258616,13.9873342 8.48758369,14.1642236 8.65597388,14.4629724 C9.23647295,15.4407657 10.5510801,16.0714135 12.0050069,16.0714135 C13.4589338,16.0714135 14.7753271,15.4388371 15.3558262,14.4610438 C15.4833483,14.2457771 15.6849263,14.0941104 15.9161184,14.0394815 C16.1473105,13.9848527 16.3891326,14.0317476 16.5882703,14.1698272 C17.0032235,14.4566092 17.1247061,15.0520525 16.8597653,15.5005519 C15.945256,17.0434211 14.0858728,18 12.0050069,18 C9.92592722,18 8.06654406,17.0434211 7.15203477,15.5024805 C6.97126331,15.2122896 6.95017621,14.8391639 7.09692798,14.5273933 C7.24367975,14.2156227 7.53526472,14.0140819 7.85892544,14.0007081 Z M8.5,8 C9.32842712,8 10,8.67157287 10,9.5 C10,10.0358984 9.71410163,10.5310889 9.25000001,10.7990381 C8.78589839,11.0669873 8.21410161,11.0669873 7.74999999,10.7990381 C7.28589837,10.5310889 7,10.0358984 7,9.5 C7,8.67157287 7.67157288,8 8.5,8 Z M15.5,8 C16.3284271,8 17,8.67157287 17,9.5 C17,10.0358984 16.7141016,10.5310889 16.25,10.7990381 C15.7858984,11.0669873 15.2141016,11.0669873 14.75,10.7990381 C14.2858984,10.5310889 14,10.0358984 14,9.5 C14,8.67157287 14.6715729,8 15.5,8 Z" fill="currentColor" fill-rule="evenodd"/></svg>