<?xml version="1.0" encoding="UTF-8"?>
<svg width="11px" height="16px" viewBox="0 0 11 16" version="1.1" xmlns="http://www.w3.org/2000/svg" xmlns:xlink="http://www.w3.org/1999/xlink">
    <!-- Generator: Sketch 60 (88103) - https://sketch.com -->
    <title>基础通用类/排序/填充/16</title>
    <desc>Created with Sketch.</desc>
    <g id="基础通用类/排序/填充/16" stroke="none" stroke-width="1" fill="none" fill-rule="evenodd">
        <path d="M9.69812451,9 C9.94996085,9 10.0905801,9.24529748 9.93462056,9.41276019 L5.73649605,13.903591 C5.61633049,14.0321363 5.38494787,14.0321363 5.26350395,13.903591 L1.06537944,9.41276019 C0.90941988,9.24529748 1.05003915,9 1.30187549,9 L9.69812451,9 Z" id="路径" fill="#000000"></path>
        <path d="M5.26350395,2.09640899 C5.3714541,1.98214648 5.5662694,1.96945065 5.69262508,2.05832149 L5.73649605,2.09640899 L9.93462056,6.58723981 C10.0785832,6.74182077 9.96983968,6.96272249 9.75418195,6.99579269 L9.69812451,7 L1.30187549,7 C1.06941118,7 0.931711704,6.79098913 1.03456911,6.62711966 L1.06537944,6.58723981 L5.26350395,2.09640899 Z" id="路径" fill="#000000"></path>
    </g>
</svg>