<svg width="24" height="24" viewBox="0 0 24 24" xmlns="http://www.w3.org/2000/svg"><g fill="#000" fill-rule="evenodd"><path d="M18.0639576 13.6875C18.4277212 13.6875 18.630838 14.0706784 18.405563 14.3322714L12.3416054 21.3473837C12.1680329 21.5481839 11.8338136 21.5481839 11.6583946 21.3473837L5.59443697 14.3322714C5.36916205 14.0706784 5.57227878 13.6875 5.93604238 13.6875L18.0639576 13.6875zM11.6583946 3.15060017C11.8143226 2.97211108 12.0957225 2.95227896 12.2782362 3.0911038L12.3416054 3.15060017L18.405563 10.1657125C18.6135091 10.4071829 18.4564351 10.7522528 18.1449295 10.8039116L18.0639576 10.8104839L5.93604238 10.8104839C5.60026059 10.8104839 5.40136135 10.4839887 5.54993316 10.2280087L5.59443697 10.1657125L11.6583946 3.15060017z"/></g></svg>