<svg width="24" height="24" viewBox="0 0 24 24" fill="none" xmlns="http://www.w3.org/2000/svg"><path d="m13.392 6.225-.878 2.01a7.742 7.742 0 0 1-3.94 3.992l-2.416 1.072c-.768.341-.768 1.458 0 1.8l2.34 1.038a7.747 7.747 0 0 1 3.997 4.125l.89 2.142a.946.946 0 0 0 1.758 0l.889-2.142a7.747 7.747 0 0 1 3.997-4.125l2.34-1.039c.768-.34.768-1.458 0-1.799l-2.415-1.072a7.742 7.742 0 0 1-3.94-3.991l-.878-2.01a.946.946 0 0 0-1.744 0zM4.604 1.331l-.246.566a4.365 4.365 0 0 1-2.222 2.25l-.76.339a.53.53 0 0 0 0 .963l.718.319a4.368 4.368 0 0 1 2.253 2.326l.254.611a.507.507 0 0 0 .942 0l.253-.61A4.368 4.368 0 0 1 8.05 5.767l.718-.32a.53.53 0 0 0 0-.962l-.76-.338a4.365 4.365 0 0 1-2.222-2.251L5.54 1.33a.507.507 0 0 0-.935 0z" fill="currentColor"/></svg>