<svg width="24" height="24" viewBox="0 0 24 24" xmlns="http://www.w3.org/2000/svg"><path d="M3.5,15 C5.43299662,15 7,16.5670034 7,18.5 C7,18.9446641 6.91707758,19.3699607 6.76585282,19.7612697 C8.26260612,20.8824513 10.0827068,21.5 12,21.5 C12.5482979,21.5 13.089537,21.449691 13.6191667,21.3506688 L14.014141,21.2672934 L14.4725474,23.2140506 C13.668157,23.4034618 12.8399974,23.5 12,23.5 C9.6349944,23.5 7.38552288,22.7327336 5.54084676,21.3438802 C4.96690169,21.7565666 4.2618793,22 3.5,22 C1.56700338,22 0,20.4329966 0,18.5 C0,16.5670034 1.56700338,15 3.5,15 Z M18.911335,4.51587662 C21.3269793,6.54538181 22.75,9.53280327 22.75,12.75 C22.75,13.7045816 22.6253109,14.6431387 22.3820733,15.5477428 C23.3544795,16.1694587 24,17.2593447 24,18.5 C24,20.4329966 22.4329966,22 20.5,22 C18.5670034,22 17,20.4329966 17,18.5 C17,16.5670034 18.5670034,15 20.5,15 L20.4577953,15.0017661 C20.6509671,14.2741398 20.75,13.5192038 20.75,12.75 C20.75,10.2347085 19.683555,7.8952533 17.8570634,6.24927119 L17.6248155,6.04717271 L18.911335,4.51587662 Z M3.5,17 C2.67157288,17 2,17.6715729 2,18.5 C2,19.3284271 2.67157288,20 3.5,20 C4.32842712,20 5,19.3284271 5,18.5 C5,17.6715729 4.32842712,17 3.5,17 Z M20.5,17 C19.6715729,17 19,17.6715729 19,18.5 C19,19.3284271 19.6715729,20 20.5,20 C21.3284271,20 22,19.3284271 22,18.5 C22,17.6715729 21.3284271,17 20.5,17 Z M14,9 C15.1045695,9 16,9.8954305 16,11 L16,11 L16,15 C16,16.1045695 15.1045695,17 14,17 L14,17 L10,17 C8.8954305,17 8,16.1045695 8,15 L8,15 L8,11 C8,9.8954305 8.8954305,9 10,9 L10,9 Z M14,11 L10,11 L10,15 L14,15 L14,11 Z M12,0 C13.9329966,0 15.5,1.56700338 15.5,3.5 C15.5,5.43299662 13.9329966,7 12,7 C10.413698,7 9.07387659,5.94469143 8.64429551,4.49783412 C6.11070328,5.46794828 4.15430121,7.77633418 3.50052121,10.639922 L3.43823028,10.9346807 L1.47501647,10.5528541 C2.24252182,6.60662037 5.04047465,3.43263345 8.68425779,2.37544888 C9.15225259,0.994638996 10.4599711,0 12,0 Z M12,2 C11.1715729,2 10.5,2.67157288 10.5,3.5 C10.5,4.32842712 11.1715729,5 12,5 C12.8284271,5 13.5,4.32842712 13.5,3.5 C13.5,2.67157288 12.8284271,2 12,2 Z" fill="#000" fill-rule="evenodd"/></svg>