<svg width="22" height="24" viewBox="0 0 22 24" fill="none" xmlns="http://www.w3.org/2000/svg"><path d="M9.5 10.4a.1.1 0 0 0-.1.1v3a.1.1 0 0 0 .1.1h3a.1.1 0 0 0 .1-.1v-3a.1.1 0 0 0-.1-.1h-3z" fill="currentColor"/><path fill-rule="evenodd" clip-rule="evenodd" d="M7.971 2.467a3.35 3.35 0 0 1 6.058 0C18.071 3.75 21 7.533 21 12c0 .964-.137 1.897-.391 2.78a3.35 3.35 0 0 1-3.757 5.33A9.954 9.954 0 0 1 11 22a9.954 9.954 0 0 1-5.57-1.694 3.35 3.35 0 0 1-3.99-5.366A9.999 9.999 0 0 1 1 12c0-4.467 2.929-8.25 6.971-9.533zm3.03-.417a1.85 1.85 0 1 0 0 3.7 1.85 1.85 0 0 0 0-3.7zM16.25 17a1.85 1.85 0 1 1 3.7 0 1.85 1.85 0 0 1-3.7 0zm-14.5.5a1.85 1.85 0 1 1 3.7 0 1.85 1.85 0 0 1-3.7 0zm5.85-7c0-1.05.85-1.9 1.9-1.9h3c1.05 0 1.9.85 1.9 1.9v3a1.9 1.9 0 0 1-1.9 1.9h-3a1.9 1.9 0 0 1-1.9-1.9v-3z" fill="currentColor"/></svg>