<svg width="24" height="24" viewBox="0 0 24 24" xmlns="http://www.w3.org/2000/svg"><path d="M12.3212829,2.18140769 C12.4198892,2.23007281 12.4997029,2.30988657 12.548368,2.40849288 L15.4797652,8.34815228 L22.0345685,9.30062096 C22.307841,9.34032977 22.4971817,9.59405119 22.4574729,9.86732362 C22.4416606,9.97614214 22.390417,10.0767133 22.3116752,10.1534676 L17.568575,14.7768477 L18.6882691,21.3051651 C18.7349496,21.5773334 18.5521556,21.8358113 18.2799874,21.8824918 C18.1716086,21.9010803 18.0601246,21.8834229 17.9627943,21.8322534 L12.1,18.75 L6.23720568,21.8322534 C5.99278338,21.9607538 5.6904698,21.8667805 5.5619694,21.6223582 C5.51079987,21.525028 5.49314253,21.413544 5.51173095,21.3051651 L6.63142503,14.7768477 L1.88832479,10.1534676 C1.690583,9.96071704 1.68653685,9.64416041 1.87928745,9.44641862 C1.95604175,9.3676768 2.05661296,9.31643321 2.16543148,9.30062096 L8.7202348,8.34815228 L11.651632,2.40849288 C11.7738431,2.16086605 12.073656,2.05919655 12.3212829,2.18140769 Z M14.1516342,10.1761678 L12.1,6.019 L10.0483658,10.1761678 L5.46,10.842 L8.78038617,14.0786079 L7.996,18.647 L12.1,16.4904485 L16.203,18.647 L15.4196138,14.0786079 L18.739,10.842 L14.1516342,10.1761678 Z" fill="#000" fill-rule="evenodd"/></svg>