<svg width="24" height="24" viewBox="0 0 24 24" xmlns="http://www.w3.org/2000/svg"><g stroke="none" stroke-width="1" fill="currentColor" fill-rule="evenodd"><path d="M12.321 2.181a.5.5 0 0 1 .227.227l2.932 5.94 6.555.953a.5.5 0 0 1 .277.852l-4.743 4.624 1.12 6.528a.5.5 0 0 1-.726.527L12.1 18.75l-5.863 3.082a.5.5 0 0 1-.725-.527l1.12-6.528-4.744-4.624a.5.5 0 0 1 .277-.852l6.555-.953 2.932-5.94a.5.5 0 0 1 .67-.227zm1.83 7.995L12.1 6.02l-2.052 4.157-4.588.666 3.32 3.237-.784 4.568L12.1 16.49l4.103 2.157-.783-4.568 3.319-3.237-4.587-.666z"/><path d="M12 2.14v16.662l-5.763 3.03a.5.5 0 0 1-.725-.527l1.12-6.528-4.744-4.624a.5.5 0 0 1 .277-.852l6.555-.953 2.932-5.94a.5.5 0 0 1 .347-.268z"/></g></svg>