<svg width="24" height="24" viewBox="0 0 24 24" fill="none" xmlns="http://www.w3.org/2000/svg"><path fill-rule="evenodd" clip-rule="evenodd" d="M10.19 2.604c.72-1.534 2.9-1.534 3.62 0l2.051 4.37 4.666.712c1.61.246 2.267 2.209 1.13 3.374l-3.439 3.524.803 4.922c.269 1.648-1.48 2.88-2.941 2.073L12 19.324l-4.08 2.255c-1.46.808-3.21-.425-2.941-2.073l.803-4.922-3.439-3.524c-1.136-1.165-.48-3.128 1.13-3.374l4.666-.713 2.05-4.37zm1.81.85L9.496 8.788l-5.721.874 4.143 4.247-.965 5.918L12 17.038l5.047 2.79-.965-5.918 4.143-4.247-5.72-.874L12 3.453z" fill="currentColor"/></svg>