<svg width="24" height="24" viewBox="0 0 24 24" xmlns="http://www.w3.org/2000/svg"><path d="M12,0 C18.627417,0 24,5.372583 24,12 C24,18.627417 18.627417,24 12,24 C5.372583,24 0,18.627417 0,12 C0,5.372583 5.372583,0 12,0 Z M2,12 C2,17.5228475 6.4771525,22 12,22 C14.2732625,22 16.3693598,21.2414662 18.0489946,19.9636961 L4.03630391,5.95100535 C2.75853381,7.63064015 2,9.72673754 2,12 Z M12,2 C9.47114017,2 7.16152471,2.93869672 5.40058407,4.4866597 L19.5133403,18.5994159 C21.0613033,16.8384753 22,14.5288598 22,12 C22,6.4771525 17.5228475,2 12,2 Z" fill="#000" fill-rule="evenodd"/></svg>