<svg width="21" height="24" viewBox="0 0 21 24" xmlns="http://www.w3.org/2000/svg"><path d="M10.87,2 C13.246,2 15.271,2.9762533 16.621,4.37467018 L16.621,4.37467018 L15.433,5.77308707 C14.218,4.63852243 12.76,3.92612137 10.87,3.92612137 C8.575,3.92612137 7.036,5.06068602 7.036,6.88126649 C7.036,8.86015831 8.818,9.59894459 10.33,10.23219 L10.33,10.23219 L11.958,10.907 L21,10.9074563 L21,12.8619173 L15.6491194,12.8614196 C16.6491778,13.7253861 17.296,14.8839901 17.296,16.591029 C17.296,19.6253298 14.731,22 10.654,22 C7.846,22 5.497,20.8918206 3.796,19.1240106 L3.796,19.1240106 L5.146,17.6200528 C6.577,19.1240106 8.575,20.0738786 10.681,20.0738786 C13.381,20.0738786 15.028,18.7282322 15.028,16.7493404 C15.028,14.6649077 13.543,14.005277 11.653,13.1873351 L11.653,13.1873351 L10.901,12.861 L0,12.8619173 L0,10.9074563 L6.85409869,10.9073681 C5.69794012,10.082024 4.768,8.88055189 4.768,7.03957784 C4.768,4.11081794 7.36,2 10.87,2 Z" fill="#000" fill-rule="evenodd"/></svg>