<?xml version="1.0" encoding="UTF-8"?>
<svg width="16px" height="16px" viewBox="0 0 16 16" version="1.1" xmlns="http://www.w3.org/2000/svg" xmlns:xlink="http://www.w3.org/1999/xlink">
    <!-- Generator: Sketch 64 (93537) - https://sketch.com -->
    <title>sync</title>
    <desc>Created with Sketch.</desc>
    <g id="sync" stroke="none" stroke-width="1" fill="none" fill-rule="evenodd">
        <path d="M15.6633333,7.99666667 C15.6633333,12.2290816 12.2697982,15.6633333 8.07965891,15.6633333 C5.72245374,15.6633333 3.55098458,14.5671095 2.13145569,12.7533804 L1.10056313,13.3492168 C1.03679078,13.3860358 0.955245392,13.3641857 0.918426409,13.3004134 C0.903711056,13.2749257 0.897842046,13.2452854 0.901734308,13.2161132 L1.28750852,10.3247663 C1.29724727,10.2517752 1.3643131,10.200499 1.43730424,10.2102377 C1.44983853,10.2119101 1.46207118,10.215357 1.47363456,10.220475 L4.09005786,11.3785023 C4.15739512,11.4083057 4.1878223,11.4870538 4.15801887,11.5543911 C4.14658231,11.5802306 4.1272322,11.6017686 4.10276065,11.6158972 L3.30064516,12.0793202 C4.47191943,13.487097 6.2045654,14.33 8.07965891,14.33 C11.4703496,14.33 14.2332494,11.5931117 14.3275138,8.17707411 L14.33,7.99666667 L15.6633333,7.99666667 Z M7.91367443,0.33 C10.2708796,0.33 12.4423487,1.42622385 13.8618776,3.23995294 L14.8927702,2.64411655 C14.9565426,2.60729756 15.0380879,2.62914759 15.0749069,2.69291994 C15.0896223,2.71840767 15.0954913,2.74804798 15.091599,2.77722017 L14.7058248,5.66856703 C14.6960861,5.74155818 14.6290202,5.79283437 14.5560291,5.78309562 C14.5434948,5.78142325 14.5312622,5.7779763 14.5196988,5.77285835 L11.9032755,4.61483103 C11.8359382,4.58502761 11.805511,4.50627953 11.8353145,4.43894227 C11.846751,4.41310275 11.8661011,4.39156475 11.8905727,4.3774361 L12.6926882,3.91401315 C11.5214139,2.50623634 9.78876793,1.66333333 7.91367443,1.66333333 C4.52298376,1.66333333 1.76008396,4.40022159 1.66581949,7.81625922 L1.66333333,7.99666667 L0.33,7.99666667 C0.33,3.7642517 3.7235351,0.33 7.91367443,0.33 Z" id="形状" fill="#000000"></path>
    </g>
</svg>