<svg width="24" height="24" viewBox="0 0 24 24" xmlns="http://www.w3.org/2000/svg"><path d="M23.5,12 C23.5,18.3486224 18.4096974,23.5 12.1244884,23.5 C8.5886806,23.5 5.33147688,21.8556642 3.20218354,19.1350706 L1.65584469,20.0288252 C1.56018617,20.0840537 1.43786809,20.0512786 1.38263961,19.9556201 C1.36056658,19.9173885 1.35176307,19.872928 1.35760146,19.8291698 L1.93626279,15.4921494 C1.95087091,15.3826627 2.05146965,15.3057484 2.16095636,15.3203566 C2.17975779,15.3228651 2.19810676,15.3280356 2.21545183,15.3357125 L6.14008679,17.0727534 C6.24109268,17.1174586 6.28673345,17.2355807 6.2420283,17.3365866 C6.22487347,17.3753459 6.1958483,17.4076529 6.15914098,17.4288459 L4.95596774,18.1239803 C6.71287915,20.2356455 9.3118481,21.5 12.1244884,21.5 C17.2105244,21.5 21.3548741,17.3946676 21.4962708,12.2706112 L21.5,12 L23.5,12 Z M11.8755116,0.5 C15.4113194,0.5 18.6685231,2.14433578 20.7978165,4.86492941 L22.3441553,3.97117482 C22.4398138,3.91594635 22.5621319,3.94872138 22.6173604,4.0443799 C22.6394334,4.08261151 22.6482369,4.12707196 22.6423985,4.17083025 L22.0637372,8.50785055 C22.0491291,8.61733726 21.9485303,8.69425156 21.8390436,8.67964344 C21.8202422,8.67713488 21.8018932,8.67196445 21.7845482,8.66428753 L17.8599132,6.92724655 C17.7589073,6.88254141 17.7132666,6.76441929 17.7579717,6.66341341 C17.7751265,6.62465412 17.8041517,6.59234713 17.840859,6.57115414 L19.0440323,5.87601972 C17.2871209,3.76435451 14.6881519,2.5 11.8755116,2.5 C6.78947564,2.5 2.64512594,6.60533238 2.50372923,11.7293888 L2.5,12 L0.5,12 C0.5,5.65137756 5.59030265,0.5 11.8755116,0.5 Z" fill="#000" fill-rule="evenodd"/></svg>