<svg width="24" height="24" viewBox="0 0 24 24" xmlns="http://www.w3.org/2000/svg"><path d="M11.6702708,-0.663902593 L19.1702708,5.22895455 L19.1702708,18.9935613 C19.1702708,20.6095438 17.9258151,21.93838 16.3470219,22.0312356 L16.1702708,22.0364184 L7.17027078,22.0364184 C5.56796021,22.0364184 4.2662792,20.7652959 4.17534575,19.171885 L4.17027078,18.9935613 L4.17027078,5.22895455 L11.6702708,-0.663902593 Z M11.6702708,1.87884697 L6.17027078,6.19984697 L6.17027078,18.9935613 C6.17027078,19.4938084 6.5061504,19.9061504 6.94926565,20.0107469 L7.06214622,20.0303574 L7.17027078,20.0364184 L16.1702708,20.0364184 C16.6812555,20.0364184 17.1095132,19.6337794 17.1643432,19.1080091 L17.1702708,18.9935613 L17.1702708,6.20084697 L11.6702708,1.87884697 Z M11.6702708,5.17927554 C13.5046451,5.17927554 14.9916993,6.66632976 14.9916993,8.50070411 C14.9916993,10.3350785 13.5046451,11.8221327 11.6702708,11.8221327 C9.83589643,11.8221327 8.3488422,10.3350785 8.3488422,8.50070411 C8.3488422,6.66632976 9.83589643,5.17927554 11.6702708,5.17927554 Z M11.6702708,7.17927554 C10.9404659,7.17927554 10.3488422,7.77089926 10.3488422,8.50070411 C10.3488422,9.23050896 10.9404659,9.82213268 11.6702708,9.82213268 C12.4000756,9.82213268 12.9916993,9.23050896 12.9916993,8.50070411 C12.9916993,7.77089926 12.4000756,7.17927554 11.6702708,7.17927554 Z" fill="#000" transform="rotate(-30 11.67 10.686)" fill-rule="evenodd"/></svg>