<svg width="16" height="16" viewBox="0 0 16 16" fill="none" xmlns="http://www.w3.org/2000/svg"><path d="M3.666 2v1.334c0 .736.597 1.333 1.334 1.333h6c.736 0 1.333-.597 1.333-1.333V2h1c.737 0 1.333.597 1.333 1.334v9.333A2.667 2.667 0 0 1 12 15.334H4a2.667 2.667 0 0 1-2.667-2.667V3.334C1.333 2.597 1.93 2 2.666 2h1zM6 11.334H4.667v1.333H6v-1.333zM6 9H4.667v1.334H6V9zm0-2.333H4.667V8H6V6.667zm4.333-6c.368 0 .667.298.667.667v1.333a.667.667 0 0 1-.667.667H5.666A.667.667 0 0 1 5 2.667V1.334c0-.369.298-.667.666-.667h4.667z" fill="currentColor"/></svg>