<svg width="22" height="24" viewBox="0 0 22 24" fill="none" xmlns="http://www.w3.org/2000/svg"><g clip-path="url(#clip0_1013_14005)"><path fill-rule="evenodd" clip-rule="evenodd" d="M13 6.5a4.5 4.5 0 1 1-9 0 4.5 4.5 0 0 1 9 0zM.5 19a7 7 0 0 1 7-7h2a7 7 0 0 1 7 7v3H.5v-3zM14.836 4.748c.913.812 1.225 1.676 1.246 2.531.021.9-.28 1.859-.731 2.783l-.41.842.813.464c2.316 1.324 3.3 3.284 3.64 5.24.345 1.991.01 3.956-.324 5.116l1.922.553c.386-1.34.785-3.626.372-6.01-.38-2.197-1.459-4.494-3.852-6.153.345-.878.594-1.863.57-2.883-.035-1.398-.581-2.79-1.918-3.978l-1.328 1.495z" fill="currentColor"/></g><defs><clipPath id="clip0_1013_14005"><path fill="currentColor" d="M0 0H22V24H0z"/></clipPath></defs></svg>