<svg width="23" height="24" viewBox="0 0 23 24" xmlns="http://www.w3.org/2000/svg"><path d="M11.5540867,1.50017943 C15.0533211,1.51349838 18.9307,2.26679139 20.0367229,3.14705599 C21.1700827,4.04907758 22.0966905,5.92534665 22.9235662,8.8177298 C23.2217641,9.86083053 22.6209925,10.9490557 21.5817019,11.2483506 C21.4061439,11.2989077 21.2244007,11.3245594 21.041759,11.3245594 L21.041759,11.3245594 L19.666,11.324 L21.1858812,17.219277 C21.2875225,17.5820258 21.3390584,17.9567717 21.3390584,18.3332849 C21.3390584,20.5706231 19.5606339,22.3901117 17.3345747,22.495205 L17.1310095,22.5 L5.97055007,22.5 C5.597787,22.5 5.22665009,22.4509592 4.86688775,22.3541452 C2.69208596,21.7688944 1.37741205,19.5953986 1.85732184,17.4499778 L3.434,11.324 L1.95776217,11.3245594 C0.925669047,11.3245594 0.0801067684,10.5230047 0.00536989414,9.50629183 L-1.97175609e-13,9.35964678 C-1.97175609e-13,9.22502102 0.0137851154,9.09075167 0.0411380947,8.9589548 C0.641149884,6.06787383 1.5895112,4.11559179 2.97581348,3.11832741 C4.2357431,2.21197174 8.06622208,1.48690376 11.5540867,1.50017943 Z M14.1580799,7.89283949 L8.79388114,7.89283949 L9.38687268,9.79360262 C9.56765873,10.3735891 9.27927224,10.988369 8.73662966,11.225824 L8.73662966,11.225824 L8.61653576,11.2707816 C8.50301505,11.3064267 8.38475854,11.3245594 8.26581207,11.3245594 L8.26581207,11.3245594 L5.455,11.324 L3.79845163,17.7578902 C3.47543792,18.9250508 4.17563809,20.1338107 5.37389327,20.4562677 C5.50346474,20.491136 5.63584612,20.5145442 5.76944283,20.5262754 L5.97055007,20.5350874 L17.1310095,20.5350874 C18.3776558,20.5350874 19.3813216,19.5453836 19.3813216,18.3332849 C19.3813216,18.185822 19.3661782,18.0388404 19.3339243,17.8861395 L19.2958939,17.7313024 L17.644,11.324 L14.7705704,11.3245594 C14.1623795,11.3245594 13.6621463,10.8606439 13.6019929,10.2661524 L13.5959283,10.1456118 C13.5959283,10.0421514 13.6094973,9.93914106 13.6362857,9.83923523 L13.6362857,9.83923523 L14.1580799,7.89283949 Z M11.5503745,12.2135379 C13.4425238,12.2135379 14.9764139,13.7530502 14.9764139,15.652135 C14.9764139,17.5512198 13.4425238,19.0907321 11.5503745,19.0907321 C9.65822523,19.0907321 8.12433516,17.5512198 8.12433516,15.652135 C8.12433516,13.7530502 9.65822523,12.2135379 11.5503745,12.2135379 Z M11.5503745,14.1784505 C10.7394534,14.1784505 10.0820719,14.8382415 10.0820719,15.652135 C10.0820719,16.4660285 10.7394534,17.1258195 11.5503745,17.1258195 C12.3612956,17.1258195 13.0186771,16.4660285 13.0186771,15.652135 C13.0186771,14.8382415 12.3612956,14.1784505 11.5503745,14.1784505 Z M11.5466623,3.46507795 C8.43773513,3.45324461 4.95418725,4.11264231 4.11631241,4.71538439 C3.21648225,5.36269529 2.46709329,6.90537589 1.95773697,9.35964678 L1.95773697,9.35964678 L7.2002834,9.35964678 L6.60800557,7.45949135 C6.58432895,7.38353348 6.56840717,7.30546309 6.56042339,7.22648335 L6.56042339,7.22648335 L6.55442411,7.10748213 C6.55442411,6.45636735 7.08032928,5.92853454 7.72906618,5.92853454 L7.72906618,5.92853454 L15.1797248,5.92853454 C15.2828075,5.92853454 15.3854416,5.94215329 15.4849826,5.96903986 C16.1114307,6.13824699 16.4825987,6.78511444 16.3140095,7.41385874 L16.3140095,7.41385874 L15.7918113,9.35964678 L21.041759,9.35964678 L20.8476976,8.70777947 C20.1819113,6.56193396 19.4791488,5.21101004 18.8203154,4.68665582 C18.1612342,4.16210443 14.6339578,3.47682896 11.5466623,3.46507795 Z" fill="#000" fill-rule="evenodd"/></svg>