<svg width="24" height="24" viewBox="0 0 24 24" xmlns="http://www.w3.org/2000/svg"><path d="M19.2187797,1.7 C20.8756339,1.7 22.2187797,3.04314575 22.2187797,4.7 L22.2187797,19.541711 C22.2187797,21.1985652 20.8756339,22.541711 19.2187797,22.541711 L4.7,22.541711 C3.04314575,22.541711 1.7,21.1985652 1.7,19.541711 L1.7,4.7 C1.7,3.04314575 3.04314575,1.7 4.7,1.7 L19.2187797,1.7 Z M3.7,19.541711 C3.7,20.0545468 4.08604019,20.4772182 4.58337887,20.5349833 L4.7,20.541711 L8.2,20.541 L8.2,9.2 L3.7,9.2 L3.7,19.541711 Z M20.218,9.2 L10.2,9.2 L10.2,20.541 L19.2187797,20.541711 C19.7316155,20.541711 20.1542868,20.1556708 20.2120519,19.6583321 L20.2187797,19.541711 L20.218,9.2 Z M19.2187797,3.7 L4.7,3.7 C4.18716416,3.7 3.76449284,4.08604019 3.70672773,4.58337887 L3.7,4.7 L3.7,7.2 L20.218,7.2 L20.2187797,4.7 C20.2187797,4.18716416 19.8327395,3.76449284 19.3354008,3.70672773 L19.2187797,3.7 Z" fill="#000" fill-rule="evenodd"/></svg>