<svg width="24" height="24" viewBox="0 0 24 24" fill="none" xmlns="http://www.w3.org/2000/svg"><path fill-rule="evenodd" clip-rule="evenodd" d="M6.5 1.5a5 5 0 0 0-5 5v11a5 5 0 0 0 5 5h11a5 5 0 0 0 5-5v-11a5 5 0 0 0-5-5h-11zm-3 5a3 3 0 0 1 3-3h11a3 3 0 0 1 3 3v11a3 3 0 0 1-3 3h-11a3 3 0 0 1-3-3v-11zm10.236 11.746h2.618c.644 0 1.106-.14 1.414-.392.322-.28.56-1.148.7-2.604l-1.386-.448c-.056 1.022-.168 1.638-.336 1.848-.14.196-.364.294-.672.294h-1.918c-.308 0-.462-.196-.462-.574v-2.24c1.68-.938 3.136-2.03 4.382-3.276l-1.022-1.036c-.882.966-2.002 1.862-3.36 2.688V9.398h-1.47v3.906c-.7.336-1.47.672-2.282.994l.812 1.232c.49-.196.98-.42 1.47-.644v1.806c0 1.036.504 1.554 1.512 1.554zm-7.7-3.08a17.426 17.426 0 0 0 1.75-1.596v4.928H9.27v-6.762c.42-.616.77-1.274 1.05-1.946l-1.316-.63c-.742 1.736-1.876 3.262-3.416 4.55l.448 1.456zm2.73-8.54H5.91v1.372h2.856v1.036h1.442V7.998h3.598v1.036h1.442V7.998h2.856V6.626h-2.856V5.464h-1.442v1.162h-3.598V5.464H8.766v1.162z" fill="currentColor"/></svg>