<svg width="24" height="24" viewBox="0 0 24 24" fill="none" xmlns="http://www.w3.org/2000/svg"><path fill-rule="evenodd" clip-rule="evenodd" d="M6.5 1.5a5 5 0 0 0-5 5v11a5 5 0 0 0 5 5h11a5 5 0 0 0 5-5v-11a5 5 0 0 0-5-5h-11zm5.257 4.332-.112-.145-1.882.68.242.276c.36.409.678.832.95 1.275H5.991V9.77h2.04a11.81 11.81 0 0 0 2.744 4.695c-1.285 1.028-2.896 1.79-4.83 2.288l-.327.084 1.002 1.646.183-.051c2.074-.586 3.848-1.504 5.306-2.748 1.376 1.106 3.075 2.036 5.094 2.793l.188.07 1.035-1.587-.295-.109c-1.855-.683-3.424-1.502-4.7-2.476 1.099-1.266 1.947-2.8 2.546-4.605h2.032V7.918h-5.005a11.584 11.584 0 0 0-1.247-2.086zm.336 7.366A10.037 10.037 0 0 1 9.875 9.77h4.169c-.463 1.313-1.117 2.457-1.951 3.428z" fill="currentColor"/></svg>