<svg width="24" height="24" viewBox="0 0 24 24" xmlns="http://www.w3.org/2000/svg"><path d="M19.0187797,1.5 C20.6756339,1.5 22.0187797,2.84314575 22.0187797,4.5 L22.0187797,19.341711 C22.0187797,20.9985652 20.6756339,22.341711 19.0187797,22.341711 L4.5,22.341711 C2.84314575,22.341711 1.5,20.9985652 1.5,19.341711 L1.5,4.5 C1.5,2.84314575 2.84314575,1.5 4.5,1.5 L19.0187797,1.5 Z M19.0187797,3.5 L4.5,3.5 C3.98716416,3.5 3.56449284,3.88604019 3.50672773,4.38337887 L3.5,4.5 L3.5,19.341711 C3.5,19.8545468 3.88604019,20.2772182 4.38337887,20.3349833 L4.5,20.341711 L19.0187797,20.341711 C19.5316155,20.341711 19.9542868,19.9556708 20.0120519,19.4583321 L20.0187797,19.341711 L20.0187797,4.5 C20.0187797,3.98716416 19.6327395,3.56449284 19.1354008,3.50672773 L19.0187797,3.5 Z M18,7 L18,9 L13,9 L13,18 L11,18 L11,9 L6,9 L6,7 L18,7 Z" fill="#000" fill-rule="evenodd"/></svg>