<svg width="24" height="24" viewBox="0 0 24 24" xmlns="http://www.w3.org/2000/svg"><path d="M14.3718373,1.09710556 L14.5,1.15374878 L14.619936,1.22085278 C15.5784,1.81374878 16.5,3.73374878 16.5,5.65374878 C16.5,6.875971 16.3599537,8.37828582 16.0798611,10.1606932 L16,10.6537488 L19.9632064,10.6537488 C20.1204181,10.6537488 20.2770816,10.6722852 20.4299523,10.7089742 C21.4552003,10.9550337 22.1047479,11.9499712 21.9374805,12.9740737 L21.907981,13.1204947 L20.235962,20.0872406 C19.8203135,21.8191092 18.3134867,23.059093 16.5508783,23.148568 L16.3464128,23.1537488 L9,23.153 L9,10.6537488 L10.0408585,9.43941383 C11.2395689,8.04091834 11.994804,6.32036381 12.2150047,4.49681722 L12.25,4.15374878 L12.4017342,2.33293851 C12.4171188,2.14868994 12.4674897,1.96906091 12.5501749,1.80369048 C12.866898,1.17024421 13.5838047,0.869172732 14.2412725,1.05368357 L14.3718373,1.09710556 Z M7.5,10.6537488 L7.5,23.1537488 L3.5,23.1537488 C2.94771525,23.1537488 2.5,22.7060335 2.5,22.1537488 L2.5,11.6537488 C2.5,11.101464 2.94771525,10.6537488 3.5,10.6537488 L7.5,10.6537488 Z" fill="#000" transform="matrix(1 0 0 -1 0 24.154)" fill-rule="evenodd"/></svg>