<svg width="24" height="24" viewBox="0 0 24 24" xmlns="http://www.w3.org/2000/svg"><path d="M11.7214959,2.20801525 C12.3442694,1.14805731 13.6609157,0.710260824 14.824185,1.19988754 L14.9817824,1.27243198 L15.1390943,1.35971748 C16.5079195,2.18029838 17.5,4.23034213 17.5,6.34872287 C17.5,7.12851351 17.4463429,7.95800127 17.3393935,8.83756178 L17.2688317,9.37130982 L17.195,9.84872287 L19.5185039,9.84872287 L19.7324282,9.85635986 L19.7324282,9.85635986 L19.9451288,9.8792126 L20.1557929,9.91719378 C21.7170089,10.2565886 22.727874,11.7544325 22.4825021,13.3126804 L22.450033,13.4860118 L21.1620202,19.4108711 C20.6784769,21.63517 18.7578998,23.2422687 16.5027298,23.343638 L16.2761383,23.3487229 L4.5,23.3487229 C3.4456382,23.3487229 2.58183488,22.5328451 2.50548574,21.4979852 L2.5,21.3487229 L2.5,11.8487229 C2.5,10.7943611 3.31587779,9.93055775 4.35073766,9.85420861 L4.5,9.84872287 L7.16026031,9.84872287 C7.96866769,9.84872287 8.73981732,9.52264537 9.30195068,8.94948809 L9.43803012,8.80109699 L9.7407434,8.4479315 C10.5181428,7.54096559 11.0196654,6.43292475 11.1896423,5.25465959 L11.2251972,4.95870602 L11.3921134,3.2227773 C11.4152741,2.98146618 11.4739003,2.74522922 11.565812,2.52161174 L11.6409526,2.35638267 L11.7214959,2.20801525 Z M8.00068234,11.7776232 C7.81694728,11.8089497 7.63079901,11.8301074 7.44303009,11.8407318 L7.16026031,11.8487229 L4.5,11.8477229 L4.5,21.3487229 L8,21.348 L8.00068234,11.7776232 Z M14.0527864,3.04315006 C13.8234117,2.92846272 13.5444944,3.02143518 13.429807,3.25080986 L13.3988555,3.33022054 L13.3988555,3.33022054 L13.3829481,3.41402941 L13.2160152,5.15013083 C13.063631,6.73492705 12.4581965,8.23978213 11.475566,9.48639954 L11.2592566,9.74951425 L10.9565433,10.1026797 C10.6734502,10.432955 10.351559,10.7214496 10.0005032,10.9637328 L10,21.348 L16.2761383,21.3487229 C17.6260543,21.3487229 18.8013832,20.4487521 19.1634023,19.1635991 L19.2076674,18.9860118 L20.4956803,13.0611525 C20.613002,12.5214729 20.2706132,11.9888682 19.7309336,11.8715465 L19.6253301,11.8544452 L19.6253301,11.8544452 L19.5185039,11.8487229 L14.7801961,11.8487229 L15.0194193,10.6526067 C15.3405158,9.04712457 15.5,7.61176639 15.5,6.34872287 C15.5,4.96717261 14.8988785,3.65229674 14.2513936,3.16680388 L14.1431453,3.09369866 L14.0527864,3.04315006 Z" fill="#000" fill-rule="evenodd"/></svg>