<?xml version="1.0" encoding="UTF-8"?>
<svg width="16px" height="16px" viewBox="0 0 16 16" version="1.1" xmlns="http://www.w3.org/2000/svg" xmlns:xlink="http://www.w3.org/1999/xlink">
    <!-- Generator: Sketch 64 (93537) - https://sketch.com -->
    <title>times-circle</title>
    <desc>Created with Sketch.</desc>
    <g id="times-circle" stroke="none" stroke-width="1" fill="none" fill-rule="evenodd">
        <path d="M7.88199242,-8.8817842e-16 C12.2350966,-8.8817842e-16 15.7639848,3.52888821 15.7639848,7.88199242 C15.7639848,12.2350966 12.2350966,15.7639848 7.88199242,15.7639848 C3.52888821,15.7639848 -8.8817842e-16,12.2350966 -8.8817842e-16,7.88199242 C-8.8817842e-16,3.52888821 3.52888821,-8.8817842e-16 7.88199242,-8.8817842e-16 Z M7.88199242,1.33333333 C4.26526788,1.33333333 1.33333333,4.26526788 1.33333333,7.88199242 C1.33333333,11.498717 4.26526788,14.4306515 7.88199242,14.4306515 C11.498717,14.4306515 14.4306515,11.498717 14.4306515,7.88199242 C14.4306515,4.26526788 11.498717,1.33333333 7.88199242,1.33333333 Z M10.4062656,4.53464877 L11.3575266,5.46892945 L8.872,7.999 L11.3575266,10.438397 L10.423734,11.390146 L7.937,8.951 L5.54200532,11.390146 L4.59074437,10.4558654 L6.985,8.017 L4.4064628,5.48639784 L5.34025083,4.53464877 L7.92,7.065 L10.4062656,4.53464877 Z" id="形状" fill="#000000"></path>
    </g>
</svg>