<svg width="24" height="24" viewBox="0 0 24 24" xmlns="http://www.w3.org/2000/svg"><path d="M11.8229886,-1.24344979e-14 C18.3526449,-1.24344979e-14 23.6459773,5.29333231 23.6459773,11.8229886 C23.6459773,18.3526449 18.3526449,23.6459773 11.8229886,23.6459773 C5.29333231,23.6459773 -1.24344979e-14,18.3526449 -1.24344979e-14,11.8229886 C-1.24344979e-14,5.29333231 5.29333231,-1.24344979e-14 11.8229886,-1.24344979e-14 Z M11.8229886,2 C6.39790181,2 2,6.39790181 2,11.8229886 C2,17.2480754 6.39790181,21.6459773 11.8229886,21.6459773 C17.2480754,21.6459773 21.6459773,17.2480754 21.6459773,11.8229886 C21.6459773,6.39790181 17.2480754,2 11.8229886,2 Z M15.6093984,6.80197316 L17.0362899,8.20339418 L13.308,11.999 L17.0362899,15.6575955 L15.635601,17.0852191 L11.906,13.426 L8.31300798,17.0852191 L6.88611656,15.6837981 L10.478,12.025 L6.6096942,8.22959676 L8.01037625,6.80197316 L11.88,10.598 L15.6093984,6.80197316 Z" fill="#000" fill-rule="evenodd"/></svg>