<?xml version="1.0" encoding="utf-8"?><svg width="24" height="24" viewBox="0 0 24 24" xmlns="http://www.w3.org/2000/svg"><path d="M11.8229886,-1.0658141e-14 C18.3526449,-1.0658141e-14 23.6459773,5.29333231 23.6459773,11.8229886 C23.6459773,18.3526449 18.3526449,23.6459773 11.8229886,23.6459773 C5.29333231,23.6459773 -1.0658141e-14,18.3526449 -1.0658141e-14,11.8229886 C-1.0658141e-14,5.29333231 5.29333231,-1.0658141e-14 11.8229886,-1.0658141e-14 Z M15.6093984,6.80197316 L11.8796942,10.5989732 L8.01037625,6.80197316 L6.6096942,8.22959676 L10.4786942,12.0249732 L6.88611656,15.6837981 L8.31300798,17.0852191 L11.9056942,13.4259732 L15.635601,17.0852191 L17.0362899,15.6575955 L13.3076942,11.9989732 L17.0362899,8.20339418 L15.6093984,6.80197316 Z" fill="#000" fill-rule="evenodd"/></svg>