<svg width="22" height="24" viewBox="0 0 22 24" xmlns="http://www.w3.org/2000/svg"><path d="M15.7142857,1 C16.7686475,1 17.6324508,1.80541782 17.7088,2.82701025 L17.7142857,2.97435897 L17.714,6.217 L20,6.21794872 C21.0543618,6.21794872 21.9181651,7.02336654 21.9945143,8.04495897 L22,8.19230769 L22,21.025641 C22,22.1160494 21.1045695,23 20,23 L20,23 L2,23 C0.8954305,23 0,22.1160494 0,21.025641 L0,21.025641 L0,8.19230769 C0,7.10189934 0.8954305,6.21794872 2,6.21794872 L2,6.21794872 L4.285,6.217 L4.28571429,2.97435897 C4.28571429,1.93351464 5.10159208,1.08078571 6.13645194,1.00541541 L6.28571429,1 L15.7142857,1 Z M20,13.081 L2,13.081 L2,21.025641 L20,21.025641 L20,13.081 Z M20,8.19230769 L2,8.19230769 L2,11.106 L20,11.106 L20,8.19230769 Z M15.7142857,2.97435897 L6.28571429,2.97435897 L6.285,6.217 L15.714,6.217 L15.7142857,2.97435897 Z" fill="#000" fill-rule="evenodd"/></svg>