<svg width="24" height="24" viewBox="0 0 24 24" fill="none" xmlns="http://www.w3.org/2000/svg"><path fill-rule="evenodd" clip-rule="evenodd" d="M6.5 1.5a5 5 0 0 0-5 5v6h2v-6a3 3 0 0 1 3-3h11a3 3 0 0 1 3 3v6h2v-6a5 5 0 0 0-5-5h-11zm3.854 14.539 1.638-1.637 1.648 1.647a4.22 4.22 0 0 0 3.638 6.362 4.22 4.22 0 0 0 4.222-4.219 4.22 4.22 0 0 0-6.367-3.635l-1.648-1.647 4.422-4.418L16.414 7l-4.422 4.419-4.417-4.414-1.493 1.491 4.417 4.414-1.642 1.641a4.22 4.22 0 0 0-6.357 3.64 4.22 4.22 0 0 0 4.222 4.22 4.22 4.22 0 0 0 3.632-6.372zm-1.52 2.153a2.11 2.11 0 1 1-4.221-.002 2.11 2.11 0 0 1 4.22.002zm10.555 0a2.11 2.11 0 1 1-4.22-.002 2.11 2.11 0 0 1 4.22.002z" fill="currentColor"/></svg>