<svg width="24" height="24" viewBox="0 0 24 24" xmlns="http://www.w3.org/2000/svg"><path d="M21.5595476,4.2328918 L21.5595476,6.3328918 L20.6990109,6.33218788 L20.6985832,6.33418671 C20.5495268,6.35932244 20.4090518,6.43807568 20.3086538,6.56657929 C20.236957,6.65834704 20.1948225,6.76380803 20.1808419,6.87149205 L20.1820125,18.6201236 C20.1820125,20.7708479 18.5055639,22.5300166 16.3881408,22.6621557 L16.1320125,22.6701236 L8.10558994,22.6701236 C5.95486567,22.6701236 4.19569695,20.993675 4.06355782,18.876252 L4.05558994,18.6201236 L4.05501094,7.00418788 C4.06298413,6.88973823 4.04134032,6.77394998 3.98756261,6.66885504 L3.92301298,6.5678183 C3.84771446,6.4714406 3.74987269,6.40304747 3.64277477,6.36427038 L3.53001094,6.33218788 L2.57451094,6.3328918 L2.57451094,4.2328918 L21.5595476,4.2328918 Z M18.0815109,6.33218788 L6.15501094,6.33218788 L6.15558994,18.6201236 C6.15558994,19.6297692 6.92291442,20.4601965 7.90621377,20.560056 L8.10558994,20.5701236 L16.1320125,20.5701236 C17.141658,20.5701236 17.9720853,19.8027991 18.0719448,18.8194998 L18.0820125,18.6201236 L18.0815109,6.33218788 Z M10.8197795,8.75218458 L10.8197795,17.7888108 L8.71977946,17.7888108 L8.71977946,8.75218458 L10.8197795,8.75218458 Z M15.4142791,8.75218458 L15.4142791,17.7888108 L13.3142791,17.7888108 L13.3142791,8.75218458 L15.4142791,8.75218458 Z M15.7520036,0.46118788 L15.7520036,2.56118788 L8.54012476,2.56118788 L8.54012476,0.46118788 L15.7520036,0.46118788 Z" fill="#000" fill-rule="evenodd"/></svg>