<?xml version="1.0" encoding="UTF-8"?>
<svg width="13px" height="16px" viewBox="0 0 13 16" version="1.1" xmlns="http://www.w3.org/2000/svg" xmlns:xlink="http://www.w3.org/1999/xlink">
    <!-- Generator: Sketch 64 (93537) - https://sketch.com -->
    <title>trash</title>
    <desc>Created with Sketch.</desc>
    <g id="trash" stroke="none" stroke-width="1" fill="none" fill-rule="evenodd">
        <path d="M13,3.04742323 L13,4.46577125 L12.4107477,4.46529582 L12.4104548,4.46664584 C12.3083885,4.48362261 12.2121983,4.53681285 12.1434508,4.62360467 C12.0943564,4.68558497 12.0655048,4.75681372 12.0559316,4.82954392 L12.0567331,12.7646145 C12.0567331,14.2172219 10.9087853,15.4053712 9.45888028,15.4946185 L9.28349642,15.5 L3.78740523,15.5 C2.31469722,15.5 1.11010679,14.3677202 1.01962455,12.9376046 L1.01416854,12.7646145 L1.01377208,4.91916719 C1.01923171,4.84186745 1.00441112,4.76366363 0.967586845,4.69268211 L0.923386498,4.62444151 C0.871825854,4.55934764 0.804828721,4.51315466 0.731493439,4.48696446 L0.654278432,4.46529582 L0,4.46577125 L0,3.04742323 L13,3.04742323 Z M10.6184151,4.46529582 L2.45174665,4.46529582 L2.45214312,12.7646145 C2.45214312,13.446533 2.9775684,14.0074068 3.65088243,14.0748523 L3.78740523,14.081652 L9.28349642,14.081652 C9.97485102,14.081652 10.543486,13.5633981 10.6118647,12.899274 L10.6187585,12.7646145 L10.6184151,4.46529582 Z M5.64594595,6.09977084 L5.64594595,12.2031427 L4.20797138,12.2031427 L4.20797138,6.09977084 L5.64594595,6.09977084 Z M8.79202862,6.09977084 L8.79202862,12.2031427 L7.35405405,12.2031427 L7.35405405,6.09977084 L8.79202862,6.09977084 Z M9.02328541,0.5 L9.02328541,1.91834802 L4.08495286,1.91834802 L4.08495286,0.5 L9.02328541,0.5 Z" id="形状" fill="#000000"></path>
    </g>
</svg>