<svg width="23" height="24" viewBox="0 0 23 24" xmlns="http://www.w3.org/2000/svg"><path d="M19.5438581,1 L19.7052492,1.00582223 C20.9825291,1.09846945 21.9201582,2.28457997 21.9931249,3.68559027 L21.9977043,3.86177228 L21.9977043,9.42142679 L21.9498711,9.42174005 C22.5250078,9.64115928 22.9375018,10.1895266 22.9934951,10.8327636 L23,10.9827805 L23,13.6020978 L22.9942117,13.7436404 C22.9425994,14.3724973 22.5503127,14.9118912 21.9977986,15.1439373 L21.9977043,20.0736611 C21.9977043,21.5795246 21.0443206,22.8950616 19.7062382,22.9940291 L19.5438581,23 L3.55155043,23 C2.18360202,23 1.17760493,21.7423809 1.10224413,20.2533855 L1.09770428,20.0736611 L1.09660841,15.1800288 C0.498420584,14.973361 0.0656079998,14.4146344 0.00682960923,13.7557991 L0,13.6020978 L0,10.9827805 L0.0057883009,10.8412379 C0.0603092229,10.1769418 0.494983898,9.61247608 1.09710654,9.40467743 L1.09770428,3.86177228 L1.10228369,3.68559027 C1.17525036,2.28457997 2.11287942,1.09846945 3.3901594,1.00582223 L3.55155043,1 L19.5438581,1 Z M7.44652537,15.2661592 L3.097,15.2649893 L3.09770428,20.0736611 C3.09770428,20.5798706 3.3251157,20.9220357 3.50413424,20.9755479 L3.55155043,20.9828918 L19.5438581,20.9828918 C19.7117986,20.9828918 19.953205,20.6829108 19.9922732,20.2075574 L19.9977043,20.0736611 L19.997,15.2649893 L15.5145638,15.2661592 C15.4140495,15.9610536 14.8508155,16.5045254 14.1503886,16.5682633 L14.0121871,16.5745214 L8.94890205,16.5745214 C8.1854318,16.5745214 7.55357162,16.0062116 7.44652537,15.2661592 Z M11.4805446,8.63215786 C10.2896806,8.63215786 9.31489965,9.56523338 9.23573538,10.746038 L9.23054456,10.9014046 L9.23,14.7586951 L13.73,14.7586951 L13.7305446,10.9014046 C13.7305446,9.75494704 12.8875771,8.80705928 11.7926602,8.65381501 L11.6345934,8.63739307 L11.4805446,8.63215786 Z M11.5,10.5306552 C11.8796958,10.5306552 12.193491,10.8152226 12.2431534,11.1844296 L12.25,11.2870708 L12.25,12.5104503 C12.25,12.9282071 11.9142136,13.2668659 11.5,13.2668659 C11.1203042,13.2668659 10.806509,12.9822984 10.7568466,12.6130914 L10.75,12.5104503 L10.75,11.2870708 C10.75,10.869314 11.0857864,10.5306552 11.5,10.5306552 Z M7.43,11.3356625 L1.999,11.3369972 L1.999,13.2492158 L7.43,13.2478811 L7.43,11.3356625 Z M15.53,11.3356625 L15.53,13.2478811 L21,13.2492158 L21,11.3369972 L15.53,11.3356625 Z M19.5438581,3.01710821 L3.55155043,3.01710821 L3.4975964,3.02525218 C3.33209908,3.07376701 3.14058432,3.3358873 3.10393634,3.72681042 L3.09770428,3.86177228 L3.097,9.31855427 L7.74594515,9.31833416 C8.33441396,7.90793427 9.68543225,6.90072784 11.2784087,6.82175936 L11.4805446,6.81676046 C13.1607239,6.81676046 14.6019377,7.8486453 15.215144,9.31833416 L19.997,9.31855427 L19.9977043,3.86177228 L19.9914722,3.72681042 C19.9548242,3.3358873 19.7633095,3.07376701 19.5978122,3.02525218 L19.5438581,3.01710821 Z" fill="currentColor" fill-rule="evenodd"/></svg>