<svg width="21" height="24" viewBox="0 0 21 24" xmlns="http://www.w3.org/2000/svg"><path d="M21,20.5 L21,22.5 L0,22.5 L0,20.5 L21,20.5 Z M18,1.5 C19.6568542,1.5 21,2.84314575 21,4.5 L21,16.5 C21,18.1568542 19.6568542,19.5 18,19.5 L3,19.5 C1.34314575,19.5 0,18.1568542 0,16.5 L0,4.5 C0,2.84314575 1.34314575,1.5 3,1.5 L18,1.5 Z M18,3.5 L3,3.5 C2.48716416,3.5 2.06449284,3.88604019 2.00672773,4.38337887 L2,4.5 L2,16.5 C2,17.0128358 2.38604019,17.4355072 2.88337887,17.4932723 L3,17.5 L18,17.5 C18.5128358,17.5 18.9355072,17.1139598 18.9932723,16.6166211 L19,16.5 L19,4.5 C19,3.98716416 18.6139598,3.56449284 18.1166211,3.50672773 L18,3.5 Z M14.5,5 C16.1568542,5 17.5,6.34314575 17.5,8 C17.5,9.65685425 16.1568542,11 14.5,11 C14.2564511,11 14.0196806,10.970978 13.7929583,10.9162038 L12.1053434,13.6182468 C11.7022236,14.2632385 10.8868098,14.4981465 10.2094323,14.1874488 L10.0759604,14.1179944 L7.767,12.767 L5.82134724,15.5704285 L4.17865276,14.4295715 L6.38895896,11.2470012 C6.80782264,10.6438888 7.59561398,10.4380907 8.24951857,10.7405884 L8.37836535,10.8078981 L10.666,12.146 L12.1179256,9.82390831 C11.7303457,9.31847993 11.5,8.68614002 11.5,8 C11.5,6.34314575 12.8431458,5 14.5,5 Z M14.5,7 C13.9477153,7 13.5,7.44771525 13.5,8 C13.5,8.55228475 13.9477153,9 14.5,9 C15.0522847,9 15.5,8.55228475 15.5,8 C15.5,7.44771525 15.0522847,7 14.5,7 Z" fill="#000" fill-rule="evenodd"/></svg>