<svg width="24" height="24" viewBox="0 0 24 24" fill="none" xmlns="http://www.w3.org/2000/svg"><path fill-rule="evenodd" clip-rule="evenodd" d="M6.324 2A4.324 4.324 0 0 0 2 6.324v10.352A4.324 4.324 0 0 0 6.324 21h6.448A6.213 6.213 0 0 1 21 12.06V6.324A4.324 4.324 0 0 0 16.676 2H6.324zm1.837 4.37a.859.859 0 0 1 1.37-.072l2.75 3.278a.86.86 0 0 0 1.294.026l1.015-1.116a.859.859 0 0 1 1.242-.029l1.56 1.56 1.215-1.215-1.56-1.56a2.577 2.577 0 0 0-3.728.088l-.353.389-2.119-2.525a2.577 2.577 0 0 0-4.11.214l-3.45 5.111 1.425.961 3.45-5.11zM4 14.704h4.46V13H4v1.705zm14.842 5.575-.436 1h-.867l-.436-1a3.846 3.846 0 0 0-1.958-1.983l-1.2-.533v-.894l1.163-.516a3.85 3.85 0 0 0 1.986-2.05l.442-1.064h.873l.442 1.064a3.849 3.849 0 0 0 1.986 2.05L22 16.87v.894l-1.2.533a3.847 3.847 0 0 0-1.958 1.983z" fill="currentColor"/></svg>