<svg width="24" height="24" viewBox="0 0 24 24" xmlns="http://www.w3.org/2000/svg"><path d="M21,4.36363636 C22.6568542,4.36363636 24,5.70678211 24,7.36363636 L24,19.3636364 C24,21.0204906 22.6568542,22.3636364 21,22.3636364 L3,22.3636364 C1.34314575,22.3636364 0,21.0204906 0,19.3636364 L0,7.36363636 C0,5.70678211 1.34314575,4.36363636 3,4.36363636 L21,4.36363636 Z M21,6.36363636 L3,6.36363636 C2.48716416,6.36363636 2.06449284,6.74967655 2.00672773,7.24701524 L2,7.36363636 L2,19.3636364 C2,19.8764722 2.38604019,20.2991435 2.88337887,20.3569086 L3,20.3636364 L21,20.3636364 C21.5128358,20.3636364 21.9355072,19.9775962 21.9932723,19.4802575 L22,19.3636364 L22,7.36363636 C22,6.85080052 21.6139598,6.4281292 21.1166211,6.37036409 L21,6.36363636 Z M14.1152673,9.03147514 L14.1793504,9.14211687 L16.116,13 L18.5,13 L18.5,15 L15.5,15 C15.1638791,15 14.8533111,14.8314732 14.6692567,14.5566936 L14.6063639,14.4487922 L13.419,12.084 L11.2220435,17.9420325 C10.9476731,18.6736868 9.99317631,18.8103507 9.51687314,18.2310784 L9.44211562,18.1278833 L7.451,15 L5,15 L5,13 L8,13 C8.29912645,13 8.58011656,13.1337043 8.76866736,13.3603302 L8.84359867,13.4630258 L10.053,15.363 L12.3493851,9.23978565 C12.6403638,8.46384246 13.676705,8.37051027 14.1152673,9.03147514 Z M17.4090909,1 L17.4090909,3 L6.5,3 L6.5,1 L17.4090909,1 Z" fill="#000" fill-rule="evenodd"/></svg>