<svg width="21" height="24" viewBox="0 0 21 24" xmlns="http://www.w3.org/2000/svg"><path d="M19,1.5 C20.1045695,1.5 21,2.3954305 21,3.5 L21,17.5 C21,18.6045695 20.1045695,19.5 19,19.5 L18,19.5 L18,19.7222222 C18,21.1995271 16.846763,22.4074791 15.3914367,22.4949305 L15.2222222,22.5 L2.77777778,22.5 C1.30047289,22.5 0.0925209305,21.346763 0.00506948883,19.8914367 L0,19.7222222 L0,7.27777778 C0,5.80047289 1.15323697,4.59252093 2.6085633,4.50506949 L2.77777778,4.5 L3,4.5 L3,3.5 C3,2.3954305 3.8954305,1.5 5,1.5 L19,1.5 Z M3,6.5 L2.77777778,6.5 C2.38401921,6.5 2.05860197,6.79260403 2.00710019,7.17223794 L2,7.27777778 L2,19.7222222 C2,20.1159808 2.29260403,20.441398 2.67223794,20.4928998 L2.77777778,20.5 L15.2222222,20.5 C15.6159808,20.5 15.941398,20.207396 15.9928998,19.8277621 L16,19.7222222 L16,19.5 L5,19.5 C3.8954305,19.5 3,18.6045695 3,17.5 L3,6.5 Z M19,3.5 L5,3.5 L5,17.5 L19,17.5 L19,3.5 Z M15.5,5.1 C17.1016258,5.1 18.4,6.39837423 18.4,8 C18.4,9.60162577 17.1016258,10.9 15.5,10.9 C15.2309038,10.9 14.9703681,10.8633484 14.7231126,10.794765 L13.184336,13.0874307 C12.7181166,13.7824445 11.8156542,14.0177842 11.0762311,13.6602735 L10.9396462,13.5862603 L8.927,12.372 L7.03599044,15.515715 L5.32247003,14.484285 L7.3857098,11.0566149 C7.83334445,10.310681 8.77229035,10.041852 9.53989226,10.414365 L9.67424559,10.4878602 L11.7,11.709 L13.097985,9.6254225 C12.7836393,9.1617948 12.6,8.60234303 12.6,8 C12.6,6.39837423 13.8983742,5.1 15.5,5.1 Z M15.5,6.9 C14.8924868,6.9 14.4,7.39248678 14.4,8 C14.4,8.60751322 14.8924868,9.1 15.5,9.1 C16.1075132,9.1 16.6,8.60751322 16.6,8 C16.6,7.39248678 16.1075132,6.9 15.5,6.9 Z" fill="#000" fill-rule="evenodd"/></svg>