<svg width="21" height="24" viewBox="0 0 21 24" fill="none" xmlns="http://www.w3.org/2000/svg"><path d="M15.1 8a1.1 1.1 0 1 0-2.2 0 1.1 1.1 0 0 0 2.2 0z" fill="currentColor"/><path fill-rule="evenodd" clip-rule="evenodd" d="M17.703 18.703A5.002 5.002 0 0 1 13 22H5a5 5 0 0 1-5-5V9a5.002 5.002 0 0 1 3.297-4.703A5.002 5.002 0 0 1 8 1h8a5 5 0 0 1 5 5v8a5.002 5.002 0 0 1-3.297 4.703zM3 6.763C2.386 7.314 2 8.112 2 9v8a3 3 0 0 0 3 3h8c.889 0 1.687-.386 2.236-1H8a5 5 0 0 1-5-5V6.764zM14 5.1a2.9 2.9 0 1 1-.386 5.774l-1.232 1.8a1.667 1.667 0 0 1-2.224.495l-1.081-.64-1.225 1.994-1.704-1.046 1.396-2.274a1.667 1.667 0 0 1 2.268-.562l1.095.647.929-1.357A2.9 2.9 0 0 1 14 5.1z" fill="currentColor"/></svg>