<svg width="24" height="24" viewBox="0 0 24 24" xmlns="http://www.w3.org/2000/svg"><path d="M21.18 17.875a3.32 3.32 0 0 0-5.245-1.991V8.71a1.328 1.328 0 0 1 1.908-1.195l3.983 1.936c.458.222.748.686.748 1.195v5.902c0 .733-.595 1.327-1.328 1.327h-.066zm-11.287 0a3.32 3.32 0 0 0-6.506 0h-.73a1.328 1.328 0 0 1-1.328-1.327V5.925c0-.733.595-1.327 1.328-1.327H13.28c.734 0 1.328.594 1.328 1.327v10.623c0 .733-.594 1.327-1.328 1.327H9.893zM6.64 20.531a1.992 1.992 0 1 0 0-3.983 1.992 1.992 0 0 0 0 3.983zm11.286 0a1.992 1.992 0 1 0 0-3.983 1.992 1.992 0 0 0 0 3.983z" fill="currentColor" fill-rule="nonzero" stroke="none" stroke-width="1"/></svg>