<svg width="24" height="24" viewBox="0 0 24 24" fill="none" xmlns="http://www.w3.org/2000/svg"><path fill-rule="evenodd" clip-rule="evenodd" d="M1 6a3 3 0 0 1 3-3h9a3 3 0 0 1 3 3v1.5h2.586A2 2 0 0 1 20 8.086l2.414 2.414A2 2 0 0 1 23 11.914V17a2 2 0 0 1-1.63 1.966A3.251 3.251 0 0 1 15.14 19H9.559a3.251 3.251 0 0 1-6.24-.078A3.001 3.001 0 0 1 1 16V6zm20 7.3v3.017a3.248 3.248 0 0 0-5-.612V13.3h5zm-.314-1.7-2.1-2.1H16v2.1h4.686zM3.438 16.827A3.251 3.251 0 0 1 9.527 17H14V6a1 1 0 0 0-1-1H4a1 1 0 0 0-1 1v10c0 .344.174.647.438.827zM5.2 18.05a1.25 1.25 0 1 1 2.5 0 1.25 1.25 0 0 1-2.5 0zm13.05-1.25a1.25 1.25 0 1 0 0 2.5 1.25 1.25 0 0 0 0-2.5z" fill="currentColor"/></svg>