<svg width="24" height="24" viewBox="0 0 24 24" xmlns="http://www.w3.org/2000/svg"><path d="M13.326 0a1 1 0 0 1 .993.883l.007.117v4.287h3.557a1 1 0 0 1 .533.154l.114.084 2.367 2.011a1 1 0 0 1 .345.638l.008.124v7.177a1 1 0 0 1-.883.993l-.117.007-1.144-.002a2.966 2.966 0 0 1-2.465 1.314c-1.026 0-1.93-.52-2.464-1.312H8.057a2.966 2.966 0 0 1-2.463 1.312c-1.027 0-1.931-.52-2.464-1.312H1a1 1 0 0 1-.993-.884L0 15.475V1A1 1 0 0 1 .883.007L1 0h12.326zm3.315 13.85a.969.969 0 1 0 0 1.937.969.969 0 0 0 0-1.937zm-11.047 0a.969.969 0 1 0 0 1.937.969.969 0 0 0 0-1.937zM12.326 2H2v12.474h.645a2.97 2.97 0 0 1 5.898 0h3.783V2zm5.189 5.287h-3.189v5.672l.12-.14a2.968 2.968 0 0 1 4.804.582v-4.64l-1.735-1.474z" transform="translate(1.393 3)" fill="currentColor" fill-rule="nonzero" stroke="none" stroke-width="1"/></svg>