<svg width="24" height="24" viewBox="0 0 24 24" xmlns="http://www.w3.org/2000/svg"><path d="M22.5,20 L22.5,22 L1.5,22 L1.5,20 L22.5,20 Z M7.5,2.5 L7.5,12.5 C7.5,14.6421954 9.18396847,16.3910789 11.3003597,16.4951047 L11.5,16.5 L12.5,16.5 C14.6421954,16.5 16.3910789,14.8160315 16.4951047,12.6996403 L16.5,12.5 L16.5,2.5 L18.5,2.5 L18.5,12.5 C18.5,15.7383969 15.9344251,18.3775718 12.7249383,18.4958615 L12.5,18.5 L11.5,18.5 C8.26160306,18.5 5.62242824,15.9344251 5.50413847,12.7249383 L5.5,12.5 L5.5,2.5 L7.5,2.5 Z" fill="#000" fill-rule="evenodd"/></svg>