<svg width="24" height="24" viewBox="0 0 24 24" xmlns="http://www.w3.org/2000/svg"><path d="M12.501,0.5 C15.8521661,0.5 18.6533195,2.85488478 19.3399394,6.00013381 L17.2722708,6.00054746 C16.635308,3.97171127 14.7400223,2.5 12.501,2.5 C9.8122453,2.5 7.61918189,4.62230671 7.50561951,7.28311038 L7.501,7.5 L7.499,8.454 L21.7261905,8.45466374 L21.7261905,20.4313812 C21.7261905,22.0882354 20.3830447,23.4313812 18.7261905,23.4313812 L6,23.4313812 C4.34314575,23.4313812 3,22.0882354 3,20.4313812 L3,8.45466374 L5.499,8.454 L5.501,7.5 C5.501,3.63400675 8.63500675,0.5 12.501,0.5 Z M19.709,10.471 L5.016,10.471 L5.01666667,20.4313812 C5.01666667,20.9356697 5.39627285,21.3512965 5.88532256,21.4080989 L6,21.4147145 L18.7261905,21.4147145 C19.2304791,21.4147145 19.6461059,21.0351083 19.7029082,20.5460586 L19.7095238,20.4313812 L19.709,10.471 Z M13.3253521,13.5000171 L13.3713926,18.9476089 L11.3547979,18.9646522 L11.3087575,13.5170604 L13.3253521,13.5000171 Z" fill="#000" fill-rule="evenodd"/></svg>