<svg width="24" height="24" viewBox="0 0 24 24" fill="none" xmlns="http://www.w3.org/2000/svg"><path d="m13.42 14.832-2.83-2.829-2.828 2.829-1.414-1.415 4.243-4.242 2.828 2.828 2.829-2.828 1.414 1.414-4.243 4.242z" fill="currentColor"/><path fill-rule="evenodd" clip-rule="evenodd" d="M1.006 12.018H1v.015l.001.039.002.06c-.005.23-.002.368-.002.368h.015l.008.159c.017.334.05.798.113 1.137a11.345 11.345 0 0 0 3.616 6.367 11.204 11.204 0 0 0 13.765.887l-1.127-1.652a9.204 9.204 0 0 1-11.31-.73 9.345 9.345 0 0 1-2.978-5.242 7.836 7.836 0 0 1-.082-.871l-.003-.055h2.943l-3-6.5s-1 1.5-1.5 3c-.349 1.045-.435 2.334-.455 3.018zm19.93-.518h-2.942l3 6.5s1-1.5 1.5-3c.349-1.046.435-2.334.455-3.019h.006v-.014l-.002-.039-.001-.06c.005-.23.002-.368.002-.368h-.015l-.008-.159a9.534 9.534 0 0 0-.114-1.137 11.345 11.345 0 0 0-3.615-6.368A11.204 11.204 0 0 0 5.437 2.95l1.126 1.653a9.204 9.204 0 0 1 11.31.73 9.345 9.345 0 0 1 2.98 5.242c.035.191.063.533.08.871l.003.055z" fill="currentColor"/></svg>