<svg width="24" height="24" viewBox="0 0 24 24" xmlns="http://www.w3.org/2000/svg"><g stroke="none" stroke-width="1" fill="currentColor" fill-rule="nonzero"><path d="M16 22 16 24 8 24 8 22z"/><path d="M9.871 1.323 2.905 8.406a2.2 2.2 0 0 0-.631 1.526l.004.158a2.2 2.2 0 0 0 2.18 2.059l3.668.026L8.116 21h7.764l.011-8.825 3.653-.026a2.2 2.2 0 0 0 1.554-3.74l-6.984-7.12a3 3 0 0 0-4.243.034zm2.745 1.309.108.095 6.946 7.082a.2.2 0 0 1-.141.34l-5.636.042-.01 8.809h-3.765l.01-8.81-5.656-.041a.2.2 0 0 1-.14-.34l6.965-7.083a1 1 0 0 1 1.32-.094z"/></g></svg>