<svg width="24" height="24" viewBox="0 0 24 24" fill="none" xmlns="http://www.w3.org/2000/svg"><path d="M11.855 7.62a.2.2 0 0 1 .29 0l1.992 2.096H13.6v4.59h1.6v-2.99h.777a.81.81 0 0 0 .587-1.368l-3.259-3.43a1.8 1.8 0 0 0-2.61 0l-3.259 3.43a.81.81 0 0 0 .588 1.368H8.8v2.947H12v-1.6h-1.6V9.716h-.536l1.991-2.097z" fill="currentColor"/><path fill-rule="evenodd" clip-rule="evenodd" d="M2 7a5 5 0 0 1 5-5h10a5 5 0 0 1 5 5v6a5 5 0 0 1-5 5H7a5 5 0 0 1-5-5V7zm5-3a3 3 0 0 0-3 3v6a3 3 0 0 0 3 3h10a3 3 0 0 0 3-3V7a3 3 0 0 0-3-3H7z" fill="currentColor"/><path d="M20 21.5H4v-2h16v2z" fill="currentColor"/></svg>