<svg width="21" height="24" viewBox="0 0 21 24" xmlns="http://www.w3.org/2000/svg"><path d="M21,20.5 L21,22.5 L0,22.5 L0,20.5 L21,20.5 Z M18,1.5 C19.6568542,1.5 21,2.84314575 21,4.5 L21,16.5 C21,18.1568542 19.6568542,19.5 18,19.5 L3,19.5 C1.34314575,19.5 0,18.1568542 0,16.5 L0,4.5 C0,2.84314575 1.34314575,1.5 3,1.5 L18,1.5 Z M18,3.5 L3,3.5 C2.48716416,3.5 2.06449284,3.88604019 2.00672773,4.38337887 L2,4.5 L2,16.5 C2,17.0128358 2.38604019,17.4355072 2.88337887,17.4932723 L3,17.5 L18,17.5 C18.5128358,17.5 18.9355072,17.1139598 18.9932723,16.6166211 L19,16.5 L19,4.5 C19,3.98716416 18.6139598,3.56449284 18.1166211,3.50672773 L18,3.5 Z M10.5,4.72720779 L16.119325,10.3465328 L16.2581114,10.6025139 C16.4662908,11.00523 16.4200287,11.0889949 16.119325,11.6334672 L15.948177,11.7605917 C15.8564713,11.8235697 15.7961463,11.8485572 15.6867684,11.8688707 L15.4758579,11.9 L14.4,11.9 L14.4,15.5 L12.6,15.5 L12.6,10.1 L13.327,10.1 L10.5,7.273 L7.672,10.1 L8.4,10.1 L8.4,13.6 L10,13.6 L10,15.4 L6.6,15.4 L6.6,11.9 L5.52414214,11.9 L5.29061353,11.8313802 C4.88266159,11.706129 4.80801315,11.6314805 4.68276197,11.2235286 L4.61414214,10.99 C4.65009516,10.7221915 4.65908341,10.6552393 4.75355044,10.5176809 L4.88067496,10.3465328 L10.5,4.72720779 Z" fill="#000" fill-rule="evenodd"/></svg>