<?xml version="1.0" encoding="UTF-8"?>
<svg width="14px" height="16px" viewBox="0 0 14 16" version="1.1" xmlns="http://www.w3.org/2000/svg" xmlns:xlink="http://www.w3.org/1999/xlink">
    <!-- Generator: Sketch 64 (93537) - https://sketch.com -->
    <title>upload</title>
    <desc>Created with Sketch.</desc>
    <g id="upload" stroke="none" stroke-width="1" fill="none" fill-rule="evenodd">
        <path d="M1.33333333,8.33333333 L1.33333333,13 C1.33333333,13.3418906 1.59069346,13.6236714 1.92225258,13.6621815 L2,13.6666667 L12,13.6666667 C12.3418906,13.6666667 12.6236714,13.4093065 12.6621815,13.0777474 L12.6666667,13 L12.6666667,8.33333333 L14,8.33333333 L14,13 C14,14.0651206 13.1673867,14.9357739 12.1175152,14.9966049 L12,15 L2,15 C0.934879411,15 0.0642260804,14.1673867 0.00339512894,13.1175152 L0,13 L0,8.33333333 L1.33333333,8.33333333 Z M6.99944039,1 L11.9524859,5.39322371 L11.0677348,6.39071725 L7.66666667,3.374 L7.66666667,12 L6.33333333,12 L6.33333333,3.37866667 L2.95355407,6.38976776 L2.06666667,5.39417321 L6.99944039,1 Z" id="形状" fill="#000000"></path>
    </g>
</svg>