<svg width="24" height="24" viewBox="0 0 24 24" xmlns="http://www.w3.org/2000/svg"><path d="M4,12.5 L4,19.5 C4,20.0128358 4.38604019,20.4355072 4.88337887,20.4932723 L5,20.5 L20,20.5 C20.5128358,20.5 20.9355072,20.1139598 20.9932723,19.6166211 L21,19.5 L21,12.5 L23,12.5 L23,19.5 C23,21.0976809 21.75108,22.4036609 20.1762728,22.4949073 L20,22.5 L5,22.5 C3.40231912,22.5 2.09633912,21.25108 2.00509269,19.6762728 L2,19.5 L2,12.5 L4,12.5 Z M12.4991606,1.5 L19.9287288,8.08983557 L18.6016023,9.58607587 L13.5,5.061 L13.5,18 L11.5,18 L11.5,5.068 L6.43033111,9.58465163 L5.1,8.09125981 L12.4991606,1.5 Z" fill="#000" fill-rule="evenodd"/></svg>