<svg width="24" height="24" viewBox="0 0 24 24" fill="none" xmlns="http://www.w3.org/2000/svg"><path d="m10.414 6.907-1.3-.616-.051.164c-.512 1.633-1.311 3.05-2.375 4.255l-.056.063.446 1.438.177-.187c.25-.267.496-.534.733-.807v5.433H9.41v-.735l.89.777.098-.094c1.52-1.435 2.41-3.556 2.687-6.341h.07v5.023c0 .366.086.671.286.885.202.216.496.312.856.312h1.391c.344-.024.632-.145.847-.384l.006-.009a.918.918 0 0 0 .132-.286c.037-.118.07-.266.102-.44.063-.35.12-.819.175-1.404l.01-.118-1.306-.436-.007.2c-.016.447-.038.795-.063 1.044a3.721 3.721 0 0 1-.04.295.985.985 0 0 1-.026.11.507.507 0 0 1-.085.085c-.023.017-.033.017-.035.017H14.6a.167.167 0 0 1-.052-.006c-.009-.003-.012-.006-.012-.006a.03.03 0 0 1-.007-.013.167.167 0 0 1-.006-.051v-4.818h2.136v-1.38h-1.17l.831-.832-.103-.106a10.8 10.8 0 0 0-1.74-1.413l-.1-.066-.939.898.145.106c.689.5 1.23.979 1.619 1.413h-2.036l.003-.08c.003-.08.005-.167.005-.256V6.393h-1.39v2.148c0 .078-.002.157-.004.238v.001a14.03 14.03 0 0 0-.003.097H9.66v1.38h2.034c-.25 2.373-1.024 4.141-2.284 5.334V9.207c.395-.69.716-1.422.963-2.174l.041-.126z" fill="currentColor"/><path fill-rule="evenodd" clip-rule="evenodd" d="M17.837 1.949a3 3 0 0 1 3.02 2.845l.728 14.154c.109 2.113-1.945 3.672-3.951 2.998l-5.32-1.786a1 1 0 0 0-.633-.001l-5.453 1.805c-2.003.663-4.047-.896-3.938-3.004l.729-14.072A3 3 0 0 1 5.99 2.043l11.846-.094zm1.022 2.948a1 1 0 0 0-1.007-.949l-11.845.095a1 1 0 0 0-.99.948l-.73 14.073a1 1 0 0 0 1.313 1l5.453-1.804a3 3 0 0 1 1.897.004l5.32 1.786a1 1 0 0 0 1.317-1L18.86 4.898z" fill="currentColor"/></svg>