<svg width="24" height="24" viewBox="0 0 24 24" xmlns="http://www.w3.org/2000/svg"><path d="M11.8229886,-1.24344979e-14 C18.3526449,-1.24344979e-14 23.6459773,5.29333231 23.6459773,11.8229886 C23.6459773,18.3526449 18.3526449,23.6459773 11.8229886,23.6459773 C5.29333231,23.6459773 6.69686528e-13,18.3526449 6.69686528e-13,11.8229886 C6.69686528e-13,5.29333231 5.29333231,-1.24344979e-14 11.8229886,-1.24344979e-14 Z M11.8229886,2 C6.39790181,2 2,6.39790181 2,11.8229886 C2,17.2480754 6.39790181,21.6459773 11.8229886,21.6459773 C17.2480754,21.6459773 21.6459773,17.2480754 21.6459773,11.8229886 C21.6459773,6.39790181 17.2480754,2 11.8229886,2 Z M12.05,4.6 C14.3972102,4.6 16.3,6.50278981 16.3,8.85 C16.3,10.2758505 15.597842,11.5377033 14.52044,12.3086441 C16.7904469,13.2621436 18.404378,15.4708052 18.495897,18.0668659 L18.5,18.3 L16.5,18.3 C16.5,15.8147186 14.4852814,13.8 12,13.8 C9.58572667,13.8 7.61551091,15.7012365 7.50489799,18.0881643 L7.5,18.3 L5.5,18.3 C5.5,15.5793559 7.17149813,13.2491111 9.54358667,12.2801733 C8.48612408,11.5087005 7.8,10.2594767 7.8,8.85 C7.8,6.50278981 9.70278981,4.6 12.05,4.6 Z M12.05,6.6 C10.8073593,6.6 9.8,7.60735931 9.8,8.85 C9.8,10.0926407 10.8073593,11.1 12.05,11.1 C13.2926407,11.1 14.3,10.0926407 14.3,8.85 C14.3,7.60735931 13.2926407,6.6 12.05,6.6 Z" fill="#000" fill-rule="evenodd"/></svg>