<svg width="21" height="24" viewBox="0 0 21 24" xmlns="http://www.w3.org/2000/svg"><path d="M18,1.5 C19.6568542,1.5 21,2.82705442 21,4.46405901 L21,21.5119803 C21,22.0576485 20.5522847,22.5 20,22.5 C19.7529582,22.5 19.51466,22.4096519 19.3310353,22.2463696 L17.112,20.2723737 L3,20.2723737 C1.34314575,20.2723737 0,18.9453193 0,17.3083147 L0,4.46405901 C0,2.82705442 1.34314575,1.5 3,1.5 L18,1.5 Z M18,3.47603934 L3,3.47603934 C2.48716416,3.47603934 2.06449284,3.85745464 2.00672773,4.34883504 L2,4.46405901 L2,17.3083147 C2,17.8150066 2.38604019,18.2326142 2.88337887,18.2896872 L3,18.2963344 L17.8797005,18.2963344 L19,19.2922582 L19,4.46405901 C19,3.95736711 18.6139598,3.53975953 18.1166211,3.48268647 L18,3.47603934 Z M10.5,4.46405901 C12.5710678,4.46405901 14.25,6.12287703 14.25,8.16913277 C14.25,9.6286485 13.3958564,10.8910583 12.1545042,11.4950212 C14.4906141,12.1768524 16.2126135,14.2724319 16.3083028,16.7792766 L16.3125,16.9995586 L14.3125,16.9995586 C14.3125,14.9191986 12.6055856,13.2327336 10.5,13.2327336 C8.46021394,13.2327336 6.79457148,14.8154414 6.6924608,16.8057182 L6.6875,16.9995586 L4.6875,16.9995586 C4.6875,14.3963568 6.44056206,12.1976993 8.84390272,11.4931578 C7.60369187,10.8903906 6.75,9.62826249 6.75,8.16913277 C6.75,6.12287703 8.42893219,4.46405901 10.5,4.46405901 Z M10.5,6.44009834 C9.53350169,6.44009834 8.75,7.21421342 8.75,8.16913277 C8.75,9.12405211 9.53350169,9.89816719 10.5,9.89816719 C11.4664983,9.89816719 12.25,9.12405211 12.25,8.16913277 C12.25,7.21421342 11.4664983,6.44009834 10.5,6.44009834 Z" fill="#000" fill-rule="evenodd"/></svg>