<svg width="24" height="24" viewBox="0 0 24 24" fill="none" xmlns="http://www.w3.org/2000/svg"><path fill-rule="evenodd" clip-rule="evenodd" d="M14.467 12.131a2.9 2.9 0 1 0-3.933 0A3.898 3.898 0 0 0 8.6 15.5h1.8a2.1 2.1 0 1 1 4.2 0h1.8a3.898 3.898 0 0 0-1.933-3.369zM11.4 10a1.1 1.1 0 1 1 2.2 0 1.1 1.1 0 0 1-2.2 0z" fill="currentColor"/><path fill-rule="evenodd" clip-rule="evenodd" d="M19.624 18.624A4.902 4.902 0 0 1 15 21.9H7A4.9 4.9 0 0 1 2.1 17V9a4.902 4.902 0 0 1 3.276-4.624A4.902 4.902 0 0 1 10 1.1h8A4.9 4.9 0 0 1 22.9 6v8a4.902 4.902 0 0 1-3.276 4.624zM5.1 6.55A3.095 3.095 0 0 0 3.9 9v8A3.1 3.1 0 0 0 7 20.1h8c.996 0 1.883-.47 2.45-1.2H10A4.9 4.9 0 0 1 5.1 14V6.55zM7.55 4.1A3.095 3.095 0 0 1 10 2.9h8A3.1 3.1 0 0 1 21.1 6v8c0 .996-.47 1.883-1.2 2.45V9A4.9 4.9 0 0 0 15 4.1H7.55zm-.648 1.802L7 5.9h8A3.1 3.1 0 0 1 18.1 9v8l-.001.099A3.226 3.226 0 0 1 18 17.1h-8A3.1 3.1 0 0 1 6.9 14V6c0-.033 0-.066.002-.098z" fill="currentColor"/></svg>