<svg width="24" height="24" viewBox="0 0 24 24" fill="none" xmlns="http://www.w3.org/2000/svg"><path fill-rule="evenodd" clip-rule="evenodd" d="M11.973 1C5.953 1 1.092 5.936 1.092 12h2c0-4.982 3.987-9 8.881-9 2.717 0 5.154 1.236 6.785 3.192l-.576.333a.5.5 0 0 0 .048.89l2.803 1.241a.5.5 0 0 0 .698-.391l.413-3.098a.5.5 0 0 0-.746-.499l-.887.512C18.521 2.638 15.44 1 11.973 1zm11.119 11c0 6.064-4.86 11-10.882 11-3.465 0-6.548-1.638-8.538-4.18l-.887.512a.5.5 0 0 1-.746-.5l.413-3.097a.5.5 0 0 1 .698-.391l2.804 1.24a.5.5 0 0 1 .047.89l-.576.334C7.057 19.763 9.493 21 12.21 21c4.894 0 8.882-4.018 8.882-9h2zm-11.103-.4h.022a1.7 1.7 0 1 0-.022 0zm-2.528.709a3.5 3.5 0 1 1 5.079 0A4.897 4.897 0 0 1 16.9 16.5h-1.8a3.1 3.1 0 0 0-3.087-3.1h-.026A3.1 3.1 0 0 0 8.9 16.5H7.1c0-1.777.945-3.332 2.36-4.191z" fill="currentColor"/></svg>