<svg width="22" height="24" viewBox="0 0 22 24" xmlns="http://www.w3.org/2000/svg"><path d="M19.0733945,1 C20.6897141,1 22,2.31028592 22,3.9266055 L22,3.9266055 L22,17.0458716 C22,18.6621911 20.6897141,19.9724771 19.0733945,19.9724771 L19.0733945,19.9724771 L18.972,19.972 L18.9724771,20.0733945 C18.9724771,21.6319884 17.7541117,22.9060178 16.2178319,22.9950319 L16.0458716,23 L2.9266055,23 C1.31028592,23 -2.27373675e-13,21.6897141 -2.27373675e-13,20.0733945 L-2.27373675e-13,20.0733945 L-2.27373675e-13,6.95412844 C-2.27373675e-13,5.33780885 1.31028592,4.02752294 2.9266055,4.02752294 L2.9266055,4.02752294 L3.027,4.027 L3.02752294,3.9266055 C3.02752294,2.36801162 4.24588828,1.0939822 5.78216814,1.0049681 L5.95412844,1 Z M3.027,5.844 L2.9266055,5.8440367 C2.31351876,5.8440367 1.81651376,6.3410417 1.81651376,6.95412844 L1.81651376,6.95412844 L1.81651376,20.0733945 C1.81651376,20.6864812 2.31351876,21.1834862 2.9266055,21.1834862 L2.9266055,21.1834862 L16.0458716,21.1834862 C16.6589583,21.1834862 17.1559633,20.6864812 17.1559633,20.0733945 L17.1559633,20.0733945 L17.155,19.972 L5.95412844,19.9724771 C4.39553455,19.9724771 3.12150514,18.7541117 3.03249104,17.2178319 L3.02752294,17.0458716 L3.027,5.844 Z M16.0458716,5.8440367 L4.844,5.844 L4.8440367,17.0458716 C4.8440367,17.6180859 5.27698328,18.0891801 5.83317171,18.1494494 L5.95412844,18.1559633 L17.155,18.155 L17.1559633,6.95412844 C17.1559633,6.38191415 16.7230167,5.91081995 16.1668283,5.85055056 L16.0458716,5.8440367 Z M19.0733945,2.81651376 L5.95412844,2.81651376 C5.3410417,2.81651376 4.8440367,3.31351876 4.8440367,3.9266055 L4.8440367,3.9266055 L4.844,4.027 L16.0458716,4.02752294 C17.6044654,4.02752294 18.8784949,5.24588828 18.967509,6.78216814 L18.9724771,6.95412844 L18.972,18.155 L19.0733945,18.1559633 C19.6456088,18.1559633 20.116703,17.7230167 20.1769724,17.1668283 L20.1834862,17.0458716 L20.1834862,3.9266055 C20.1834862,3.31351876 19.6864812,2.81651376 19.0733945,2.81651376 L19.0733945,2.81651376 Z M11,7.05504587 C12.6163196,7.05504587 13.9266055,8.36533179 13.9266055,9.98165138 C13.9266055,10.9935743 13.4130275,11.8855446 12.6323069,12.4111268 C14.2131824,13.0352447 15.3501755,14.542887 15.4352465,16.3261446 L15.440367,16.5412844 L13.6238532,16.5412844 C13.6238532,15.0921703 12.4491141,13.9174312 11,13.9174312 C9.60662104,13.9174312 8.46691722,15.0035435 8.3813089,16.3753478 L8.37614679,16.5412844 L6.55963303,16.5412844 C6.55963303,14.6647891 7.7236301,13.0601599 9.36898038,12.4100406 C8.5874099,11.886304 8.0733945,10.9940051 8.0733945,9.98165138 C8.0733945,8.36533179 9.38368041,7.05504587 11,7.05504587 Z M11,8.87155963 C10.3869133,8.87155963 9.88990826,9.36856464 9.88990826,9.98165138 C9.88990826,10.5947381 10.3869133,11.0917431 11,11.0917431 C11.6130867,11.0917431 12.1100917,10.5947381 12.1100917,9.98165138 C12.1100917,9.36856464 11.6130867,8.87155963 11,8.87155963 Z" fill="#000" fill-rule="evenodd"/></svg>