<svg width="21" height="24" viewBox="0 0 21 24" xmlns="http://www.w3.org/2000/svg"><path d="M10.643771,3.52374923 C15.4046476,3.52374923 19.2639999,7.38310151 19.2639999,12.1439781 C19.2639999,14.1588327 18.5727613,16.0122175 17.414488,17.4799288 L21,21.065783 L19.565783,22.5 L15.9797216,18.9146952 C14.5120104,20.0729684 12.6586255,20.764207 10.643771,20.764207 C5.88289437,20.764207 2.02354209,16.9048547 2.02354209,12.1439781 C2.02354209,7.38310151 5.88289437,3.52374923 10.643771,3.52374923 Z M2.02828915,17.2192409 L2.02828915,20.2616746 L5.07072287,20.2616746 L5.07072287,22.2899638 L2.02828915,22.2899638 L1.87691555,22.2844005 C0.827418035,22.2069714 0,21.3309499 0,20.2616746 L0,20.2616746 L0,17.2192409 L2.02828915,17.2192409 Z M10.643771,5.55203838 C7.00308753,5.55203838 4.05183124,8.50329468 4.05183124,12.1439781 C4.05183124,15.7846616 7.00308753,18.7359179 10.643771,18.7359179 C14.2844544,18.7359179 17.2357107,15.7846616 17.2357107,12.1439781 C17.2357107,8.50329468 14.2844544,5.55203838 10.643771,5.55203838 Z M10.648518,6.9763807 C12.2727981,6.9763807 13.5895373,8.29311988 13.5895373,9.91739997 C13.5895373,10.9343067 13.0734298,11.83067 12.2888642,12.3588407 C13.8780062,12.9866699 15.0201365,14.501477 15.1056085,16.2931403 L15.1107542,16.5093397 L13.2852939,16.5093397 C13.2852939,15.0530886 12.1047691,13.8725638 10.648518,13.8725638 C9.24827658,13.8725638 8.10295962,14.9640253 8.01692968,16.3425858 L8.01174214,16.5093397 L6.18628191,16.5093397 C6.18628191,14.6238167 7.35574601,13.0114367 9.00890203,12.3579719 C8.22404574,11.8314332 7.70749877,10.9347396 7.70749877,9.91739997 C7.70749877,8.29311988 9.02423794,6.9763807 10.648518,6.9763807 Z M10.648518,8.80184094 C10.0324118,8.80184094 9.532959,9.30129373 9.532959,9.91739997 C9.532959,10.5335062 10.0324118,11.032959 10.648518,11.032959 C11.2646243,11.032959 11.7640771,10.5335062 11.7640771,9.91739997 C11.7640771,9.30129373 11.2646243,8.80184094 10.648518,8.80184094 Z M5.07072287,1.5 L5.07072287,3.52828915 L2.02828915,3.52828915 L2.02828915,6.57072287 L0,6.57072287 L0,3.52828915 C0,2.45901386 0.827418035,1.5829924 1.87691555,1.50556333 L2.02828915,1.5 L5.07072287,1.5 Z M18.7616746,1.5 L18.9130482,1.50556333 C19.9625457,1.5829924 20.7899638,2.45901386 20.7899638,3.52828915 L20.7899638,3.52828915 L20.7899638,6.57072287 L18.7616746,6.57072287 L18.7616746,3.52828915 L15.7192409,3.52828915 L15.7192409,1.5 L18.7616746,1.5 Z" fill="#000" fill-rule="evenodd"/></svg>