<svg width="22" height="24" viewBox="0 0 22 24" xmlns="http://www.w3.org/2000/svg"><path d="M12.1332371,21.1834862 L12.1332371,23 L8.09653983,23 L8.09653983,21.1834862 L12.1332371,21.1834862 Z M7.08736551,21.1834862 L7.08736551,23 L3.05066827,23 L3.05066827,21.1834862 L7.08736551,21.1834862 Z M17.1294968,21.181063 L17.2480731,22.9937024 L17.1581919,22.9981883 L13.142406,23 L13.142406,21.1834862 L17.0604998,21.1834733 C17.083646,21.1833639 17.1066489,21.1825576 17.1294968,21.181063 Z M1.81651376,18.24114 L1.81651376,20.0733945 C1.81651376,20.5069407 2.06687485,20.8948179 2.45202446,21.0774506 L1.67372655,22.7187838 C0.660305416,22.2382333 0,21.2152412 0,20.0733945 L0,18.24114 L1.81651376,18.24114 Z M19.0733945,1 C20.6897141,1 22,2.31028592 22,3.9266055 L22,3.9266055 L22,17.0458716 C22,18.3450698 21.1534308,19.4465413 19.9818321,19.8287461 L19.9816514,20.0733945 C19.9816514,21.0928961 19.455293,22.0232233 18.6078708,22.5543873 L17.6431293,21.0152329 C17.9659577,20.8128842 18.1651376,20.4608379 18.1651376,20.0733945 L18.165,19.972 L5.95412844,19.9724771 C4.39553455,19.9724771 3.12150514,18.7541117 3.03249104,17.2178319 L3.02752294,17.0458716 L3.02752294,3.9266055 C3.02752294,2.31028592 4.33780885,1 5.95412844,1 L5.95412844,1 Z M19.0733945,2.81651376 L5.95412844,2.81651376 C5.3410417,2.81651376 4.8440367,3.31351876 4.8440367,3.9266055 L4.8440367,3.9266055 L4.8440367,17.0458716 C4.8440367,17.6589583 5.3410417,18.1559633 5.95412844,18.1559633 L5.95412844,18.1559633 L19.0733945,18.1559633 C19.6864812,18.1559633 20.1834862,17.6589583 20.1834862,17.0458716 L20.1834862,17.0458716 L20.1834862,3.9266055 C20.1834862,3.31351876 19.6864812,2.81651376 19.0733945,2.81651376 L19.0733945,2.81651376 Z M1.81651376,13.1952685 L1.81651376,17.2319657 L0,17.2319657 L0,13.1952685 L1.81651376,13.1952685 Z M12.5137615,4.02752294 C14.5480947,4.02752294 16.1972477,5.6766759 16.1972477,7.71100917 C16.1972477,9.26117723 15.2396694,10.5876909 13.883765,11.1312979 C16.3372847,11.7273093 18.1759334,13.8956582 18.2745069,16.509377 L18.2786697,16.7305046 L16.462156,16.7305046 C16.462156,14.5498665 14.6943995,12.7821101 12.5137615,12.7821101 C10.4012683,12.7821101 8.67625495,14.4411081 8.5705046,16.5273207 L8.56536697,16.7305046 L6.74885321,16.7305046 C6.74885321,14.0185712 8.62143771,11.7440033 11.1441268,11.1292809 C9.78785354,10.5876909 8.83027523,9.26117723 8.83027523,7.71100917 C8.83027523,5.6766759 10.4794282,4.02752294 12.5137615,4.02752294 Z M1.81651376,8.14939689 L1.81651376,12.1860941 L0,12.1860941 L0,8.14939689 L1.81651376,8.14939689 Z M12.5137615,5.8440367 C11.482661,5.8440367 10.646789,6.67990875 10.646789,7.71100917 C10.646789,8.7421096 11.482661,9.57798165 12.5137615,9.57798165 C13.5448619,9.57798165 14.3807339,8.7421096 14.3807339,7.71100917 C14.3807339,6.67990875 13.5448619,5.8440367 12.5137615,5.8440367 Z M2.5417177,3.04353541 L2.77903021,4.844481 C2.23171514,4.91660128 1.81651376,5.386567 1.81651376,5.94495413 L1.81651376,7.14022258 L0,7.14022258 L0,5.94495413 C0,4.47216236 1.09356305,3.23436028 2.5417177,3.04353541 Z" fill="#000" fill-rule="evenodd"/></svg>