<svg width="21" height="24" viewBox="0 0 21 24" xmlns="http://www.w3.org/2000/svg"><path d="M17,1.5 L17,4.977 L21,4.97741935 L21,6.96451613 L17,6.964 L17,10.577 L19.1363636,10.5774194 C20.1166093,10.5774194 20.9200935,11.3293426 20.994393,12.2843298 L21,12.4290323 L21,20.6483871 C21,21.6710047 20.1656216,22.5 19.1363636,22.5 L19.1363636,22.5 L12.8636364,22.5 C11.8343784,22.5 11,21.6710047 11,20.6483871 L11,20.6483871 L11,12.4290323 C11,11.4064147 11.8343784,10.5774194 12.8636364,10.5774194 L12.8636364,10.5774194 L15,10.577 L15,1.5 L17,1.5 Z M5.11363636,1.5 C7.81230048,1.5 10,3.67358533 10,6.35483871 L10,6.35483871 L10,6.58064516 C10,8.43035778 8.9588328,10.0384617 7.42700638,10.8580005 C8.77565293,11.6722286 9.69445361,13.1195837 9.76796005,14.7836036 L9.7727205,14.9995686 L9.79999323,22.3608589 L7.80000677,22.3681733 L7.77272727,15.0032258 C7.77272727,13.4194157 6.48045826,12.1354839 4.88636364,12.1354839 C3.34920097,12.1354839 2.09268991,13.3293439 2.00489979,14.8347242 L2,15.0032258 L2,22.3645161 L1.29674049e-13,22.3645161 L1.29674049e-13,15.0032258 C1.29674049e-13,13.2018616 0.987449745,11.6296407 2.45389086,10.7917412 C0.987449745,9.95423022 0,8.38200934 0,6.58064516 L0,6.58064516 L0.00461951385,6.2522516 C0.118181885,3.60861441 2.3112453,1.5 5,1.5 L5,1.5 Z M19,12.5641548 L13,12.5641548 L13,20.5125419 L19,20.5125419 L19,12.5641548 Z M5.11363636,3.48709677 L5,3.48709677 C3.34314575,3.48709677 2,4.82157707 2,6.46774194 L2,6.46774194 L2,6.58064516 C2,8.1644553 3.29226902,9.4483871 4.88636364,9.4483871 L4.88636364,9.4483871 L5.11363636,9.4483871 C6.70773098,9.4483871 8,8.1644553 8,6.58064516 L8,6.58064516 L8,6.35483871 C8,4.77102857 6.70773098,3.48709677 5.11363636,3.48709677 L5.11363636,3.48709677 Z" fill="#000" fill-rule="evenodd"/></svg>