<svg width="21" height="24" viewBox="0 0 21 24" fill="none" xmlns="http://www.w3.org/2000/svg"><g clip-path="url(#clip0_1365_89712)"><circle cx="9.875" cy="6.875" r="4.125" stroke="currentColor" stroke-width="2"/><path fill-rule="evenodd" clip-rule="evenodd" d="M13.246 22.2H4.375c-2.225 0-4.29-1.54-4.373-3.762v-.022L0 18.304v-.016c0-.372.035-.88.103-1.362.061-.437.17-1.015.384-1.418a3.929 3.929 0 0 1 1.466-1.526c.621-.377 1.352-.618 2.18-.753l1.43-.234c2.893-.472 5.132-.521 7.887-.147-.435.235-.806.59-1.063 1.035l-.465.804c-2.007-.178-3.796-.083-6.036.282l-1.431.234c-.644.105-1.116.277-1.466.49a1.93 1.93 0 0 0-.735.752c0 .002-.01.021-.024.062a2.096 2.096 0 0 0-.05.175 5.422 5.422 0 0 0-.097.523A8.506 8.506 0 0 0 2 18.281l.001.092c.04.884.95 1.827 2.374 1.827h7.356l.599 1.056c.224.395.541.717.916.944z" fill="currentColor"/><path d="m18.635 14.873.951 1.678c.336.593.33 1.326-.014 1.923l-.978 1.693c-.345.598-.977.969-1.658.974l-1.928.015a1.868 1.868 0 0 1-1.643-.948l-.951-1.678a1.938 1.938 0 0 1 .015-1.923l.977-1.692a1.938 1.938 0 0 1 1.658-.975l1.928-.015a1.868 1.868 0 0 1 1.643.948z" stroke="currentColor" stroke-width="1.8"/><circle cx="16" cy="17.6" r="1.3" fill="currentColor"/></g><defs><clipPath id="clip0_1365_89712"><path fill="currentColor" d="M0 0H21V24H0z"/></clipPath></defs></svg>