<svg width="20" height="24" viewBox="0 0 20 24" fill="none" xmlns="http://www.w3.org/2000/svg"><path d="M12.6 5.6a2.6 2.6 0 1 1-5.2 0 2.6 2.6 0 0 1 5.2 0z" fill="currentColor"/><path d="M10 8.2a4 4 0 0 0-4 4h8a4 4 0 0 0-4-4z" fill="currentColor"/><path d="M6.252 7H3a3 3 0 0 0-3 3v2a4 4 0 0 0 4 4h12a4 4 0 0 0 4-4v-2a3 3 0 0 0-3-3h-3.252a3.99 3.99 0 0 1-.477.903 5.391 5.391 0 0 1 2.13 4.297v1.4H4.6v-1.4c0-1.753.834-3.31 2.128-4.297A3.99 3.99 0 0 1 6.252 7zM18 17.1v1.8H2v-1.8h16zM15 20.1v1.8H5v-1.8h10z" fill="currentColor"/></svg>