<svg width="24" height="24" viewBox="0 0 24 24" xmlns="http://www.w3.org/2000/svg"><path d="M23.5,12.5 C23.5,18.8486224 18.4096974,24 12.1244884,24 C8.5886806,24 5.33147688,22.3556642 3.20218354,19.6350706 L1.65584469,20.5288252 C1.56018617,20.5840537 1.43786809,20.5512786 1.38263961,20.4556201 C1.36056658,20.4173885 1.35176307,20.372928 1.35760146,20.3291698 L1.93626279,15.9921494 C1.95087091,15.8826627 2.05146965,15.8057484 2.16095636,15.8203566 C2.17975779,15.8228651 2.19810676,15.8280356 2.21545183,15.8357125 L6.14008679,17.5727534 C6.24109268,17.6174586 6.28673345,17.7355807 6.2420283,17.8365866 C6.22487347,17.8753459 6.1958483,17.9076529 6.15914098,17.9288459 L4.95596774,18.6239803 C6.71287915,20.7356455 9.3118481,22 12.1244884,22 C17.2105244,22 21.3548741,17.8946676 21.4962708,12.7706112 L21.5,12.5 L23.5,12.5 Z M12,5.5 C14.0710678,5.5 15.75,7.17893219 15.75,9.25 C15.75,10.7272132 14.8958564,12.0049306 13.6545042,12.6162168 C15.6178963,13.1975361 17.1703407,14.7924029 17.6561665,16.8437622 L17.69,17 L15.6242196,16.9996977 C15.1196701,15.4560715 13.668561,14.375 12,14.375 C10.3314851,14.375 8.88033865,15.456021 8.37577362,16.9997219 L6.309,17 L6.31358572,16.9786526 C6.32336995,16.9324392 6.3337149,16.886371 6.34461748,16.8404562 C6.83141536,14.7903672 8.38358474,13.196823 10.3457057,12.6145593 C9.10414362,12.0049306 8.25,10.7272132 8.25,9.25 C8.25,7.17893219 9.92893219,5.5 12,5.5 Z M11.8755116,0 C15.4113194,0 18.6685231,1.64433578 20.7978165,4.36492941 L22.3441553,3.47117482 C22.4398138,3.41594635 22.5621319,3.44872138 22.6173604,3.5443799 C22.6394334,3.58261151 22.6482369,3.62707196 22.6423985,3.67083025 L22.0637372,8.00785055 C22.0491291,8.11733726 21.9485303,8.19425156 21.8390436,8.17964344 C21.8202422,8.17713488 21.8018932,8.17196445 21.7845482,8.16428753 L17.8599132,6.42724655 C17.7589073,6.38254141 17.7132666,6.26441929 17.7579717,6.16341341 C17.7751265,6.12465412 17.8041517,6.09234713 17.840859,6.07115414 L19.0440323,5.37601972 C17.2871209,3.26435451 14.6881519,2 11.8755116,2 C6.78947564,2 2.64512594,6.10533238 2.50372923,11.2293888 L2.5,11.5 L0.5,11.5 C0.5,5.15137756 5.59030265,0 11.8755116,0 Z M12,7.5 C11.0335017,7.5 10.25,8.28350169 10.25,9.25 C10.25,10.2164983 11.0335017,11 12,11 C12.9664983,11 13.75,10.2164983 13.75,9.25 C13.75,8.28350169 12.9664983,7.5 12,7.5 Z" fill="#000" fill-rule="evenodd"/></svg>