<svg width="24" height="24" viewBox="0 0 24 24" fill="none" xmlns="http://www.w3.org/2000/svg"><path fill-rule="evenodd" clip-rule="evenodd" d="M16.54 11.008a3.5 3.5 0 1 0-5.079 0A4.897 4.897 0 0 0 9.1 15.2h1.8a3.1 3.1 0 1 1 6.2 0h1.8a4.897 4.897 0 0 0-2.361-4.191zM12.3 8.6a1.7 1.7 0 1 1 3.4 0 1.7 1.7 0 0 1-3.4 0z" fill="currentColor"/><path fill-rule="evenodd" clip-rule="evenodd" d="M5.2 5.013c-.066.319-.1.649-.1.987v8a4.9 4.9 0 0 0 4.9 4.9h8c.338 0 .669-.034.987-.1l.781.21c.042-.156.074-.315.096-.477A4.901 4.901 0 0 0 22.9 14V6A4.9 4.9 0 0 0 18 1.1h-8a4.901 4.901 0 0 0-4.533 3.036c-.162.022-.32.055-.476.096l.209.78zM6.9 6A3.1 3.1 0 0 1 10 2.9h8A3.1 3.1 0 0 1 21.1 6v8a3.1 3.1 0 0 1-3.1 3.1h-8A3.1 3.1 0 0 1 6.9 14V6z" fill="currentColor"/><path d="M4.05 4.622A3.915 3.915 0 0 0 2.622 6.05l1.558.901c.184-.319.45-.585.77-.77l-.902-1.558zM2.232 6.99A3.904 3.904 0 0 0 2.1 8v1.111h1.8V8c0-.19.025-.372.071-.544L2.232 6.99zM2.1 10.222v2.223h1.8v-2.223H2.1zM2.1 13.556v2.222h1.8v-2.222H2.1zM2.1 16.889V18c0 .348.046.686.132 1.01l1.74-.466A2.104 2.104 0 0 1 3.9 18v-1.111H2.1zM2.623 19.951a3.914 3.914 0 0 0 1.426 1.427l.902-1.558a2.115 2.115 0 0 1-.77-.77l-1.558.901zM17.951 21.378a3.914 3.914 0 0 0 1.427-1.427l-1.558-.902a2.115 2.115 0 0 1-.77.77l.901 1.559zM4.99 21.768c.324.086.662.132 1.01.132h1.111v-1.8h-1.11c-.19 0-.373-.025-.545-.071l-.465 1.739zM16 21.9c.348 0 .686-.046 1.01-.132l-.466-1.739A2.106 2.106 0 0 1 16 20.1H14.89v1.8H16zM8.222 21.9h2.223v-1.8H8.221v1.8zM11.556 21.9h2.222v-1.8h-2.222v1.8z" fill="currentColor"/></svg>