<svg width="21" height="24" viewBox="0 0 21 24" xmlns="http://www.w3.org/2000/svg"><path d="M17.0731707,1.5 C18.3220546,1.5 19.3018047,2.53373764 19.3812823,3.7973571 L19.3864916,3.96341463 L19.3864916,10.7926829 L17.3864916,10.7926829 L17.3864916,3.96341463 C17.3864916,3.71963041 17.2595128,3.54766675 17.128974,3.50848496 L17.0731707,3.5 L2.31332083,3.5 C2.18428371,3.5 2.04117529,3.64149064 2.00741439,3.86351059 L2,3.96341463 L2,20.0365854 C2,20.2803696 2.12697878,20.4523332 2.25751752,20.491515 L2.31332083,20.5 L12,20.5 L12,22.5 L2.31332083,22.5 C1.06443699,22.5 0.0846869005,21.4662624 0.00520926082,20.2026429 L-3.55271368e-14,20.0365854 L-3.55271368e-14,3.96341463 C-3.55271368e-14,2.68132503 0.927713263,1.59416699 2.15200109,1.50579634 L2.31332083,1.5 L17.0731707,1.5 Z M21,12.5 L21,22.1869885 L17.175,20.094 L13.5,22.2431729 L13.5,12.5 L21,12.5 Z M19,14.5 L15.5,14.5 L15.5,18.756 L17.1421571,17.7965706 L19,18.813 L19,14.5 Z M12,16.5243902 L12,18.4756098 L3,18.4756098 L3,16.5243902 L12,16.5243902 Z M7.5,5.1 C9.10162577,5.1 10.4,6.39837423 10.4,8 C10.4,9.00274947 9.89106459,9.88663071 9.1174079,10.4074296 C10.6839568,11.0258137 11.8106279,12.5197582 11.8949261,14.286816 L11.9,14.5 L10.1,14.5 C10.1,13.0640597 8.93594035,11.9 7.5,11.9 C6.11928813,11.9 4.98994524,12.9762386 4.90511518,14.3355719 L4.9,14.5 L3.1,14.5 C3.1,12.6405957 4.25337557,11.0505768 5.88372363,10.4063462 C5.10893541,9.88663071 4.6,9.00274947 4.6,8 C4.6,6.39837423 5.89837423,5.1 7.5,5.1 Z M7.5,6.9 C6.89248678,6.9 6.4,7.39248678 6.4,8 C6.4,8.60751322 6.89248678,9.1 7.5,9.1 C8.10751322,9.1 8.6,8.60751322 8.6,8 C8.6,7.39248678 8.10751322,6.9 7.5,6.9 Z" fill="#000" fill-rule="evenodd"/></svg>