<svg width="24" height="24" viewBox="0 0 24 24" fill="none" xmlns="http://www.w3.org/2000/svg"><path fill-rule="evenodd" clip-rule="evenodd" d="M14.472 12.177a3.955 3.955 0 1 0-4.887-.026A6.001 6.001 0 0 0 6 17.645h2a4 4 0 0 1 8 0h2a6.001 6.001 0 0 0-3.528-5.468zm-4.381-3.122a1.955 1.955 0 1 1 3.909 0 1.955 1.955 0 0 1-3.91 0z" fill="currentColor"/><path fill-rule="evenodd" clip-rule="evenodd" d="M12 23c6.075 0 11-4.925 11-11S18.075 1 12 1 1 5.925 1 12s4.925 11 11 11zm0-2a9 9 0 1 0 0-18 9 9 0 0 0 0 18z" fill="currentColor"/></svg>