<svg width="21" height="24" viewBox="0 0 21 24" fill="none" xmlns="http://www.w3.org/2000/svg"><path d="M9.4 10a1.1 1.1 0 1 1 2.2 0 1.1 1.1 0 0 1-2.2 0z" fill="currentColor"/><path fill-rule="evenodd" clip-rule="evenodd" d="M13 21.9a4.902 4.902 0 0 0 4.624-3.276A4.902 4.902 0 0 0 20.9 14V6A4.9 4.9 0 0 0 16 1.1H8a4.902 4.902 0 0 0-4.624 3.276A4.902 4.902 0 0 0 .1 9v8A4.9 4.9 0 0 0 5 21.9h8zM1.9 9c0-.996.47-1.883 1.2-2.45V14A4.9 4.9 0 0 0 8 18.9h7.45A3.095 3.095 0 0 1 13 20.1H5A3.1 3.1 0 0 1 1.9 17V9zM8 2.9c-.996 0-1.882.47-2.45 1.2H13A4.9 4.9 0 0 1 17.9 9v7.45A3.094 3.094 0 0 0 19.1 14V6A3.1 3.1 0 0 0 16 2.9H8zm2.5 4.2a2.9 2.9 0 0 0-1.966 5.031A3.898 3.898 0 0 0 6.6 15.5h1.8a2.1 2.1 0 1 1 4.2 0h1.8a3.898 3.898 0 0 0-1.933-3.369A2.9 2.9 0 0 0 10.5 7.1z" fill="currentColor"/></svg>