<svg width="18" height="24" viewBox="0 0 18 24" xmlns="http://www.w3.org/2000/svg"><g fill="none" fill-rule="evenodd"><path d="M15,0 C16.6568542,0 18,1.34314575 18,3 L18,21 C18,22.6568542 16.6568542,24 15,24 L3,24 C1.34314575,24 0,22.6568542 0,21 L0,3 C0,1.34314575 1.34314575,0 3,0 L15,0 Z M1.81803799,20.9834848 L1.81818182,21 C1.81818182,21.6119064 2.28322696,22.1151957 2.87916596,22.1757166 L3,22.1818182 L15,22.1818182 C15.6119064,22.1818182 16.1151957,21.716773 16.1757166,21.120834 L16.1818182,21 L2,21 C1.93785924,21 1.87704231,20.994332 1.81803799,20.9834848 Z M15,1.81818182 L3,1.81818182 C2.3880936,1.81818182 1.88480431,2.28322696 1.82428341,2.87916596 L1.81818182,3 L1.81803799,19.0165152 C1.83958451,19.0125541 1.86137274,19.0092837 1.88337887,19.0067277 L2,19 L16.181,19 L16.1818182,3 C16.1818182,2.3880936 15.716773,1.88480431 15.120834,1.82428341 L15,1.81818182 Z M9,6.5 C10.7949254,6.5 12.25,7.95507456 12.25,9.75 C12.25,10.8828733 11.6703644,11.8803654 10.7914858,12.4620836 C12.5693127,13.1522304 13.8474732,14.8458488 13.9329382,16.8483215 L13.9375,17.0625 L11.9375,17.0625 C11.9375,15.4401635 10.6223365,14.125 9,14.125 C7.43560414,14.125 6.15683206,15.3479008 6.0674866,16.8898996 L6.0625,17.0625 L4.0625,17.0625 C4.0625,14.9675389 5.36722985,13.1773138 7.20843855,12.4600757 C6.32919893,11.8796137 5.75,10.8824464 5.75,9.75 C5.75,7.95507456 7.20507456,6.5 9,6.5 Z M9,8.5 C8.30964406,8.5 7.75,9.05964406 7.75,9.75 C7.75,10.4403559 8.30964406,11 9,11 C9.69035594,11 10.25,10.4403559 10.25,9.75 C10.25,9.05964406 9.69035594,8.5 9,8.5 Z M10,3 C10.5522847,3 11,3.44771525 11,4 C11,4.51283584 10.6139598,4.93550716 10.1166211,4.99327227 L10,5 L8,5 C7.44771525,5 7,4.55228475 7,4 C7,3.48716416 7.38604019,3.06449284 7.88337887,3.00672773 L8,3 L10,3 Z" fill="#000"/></g></svg>