<svg width="24" height="24" viewBox="0 0 24 24" xmlns="http://www.w3.org/2000/svg"><path d="M12.0818182,1 C15.5712536,1 18.4,3.82874635 18.4,7.31818182 C18.4,9.91799449 16.8297537,12.1510565 14.5859286,13.1207004 C18.7688549,14.2358864 21.8723434,17.9967417 21.9961582,22.5019133 L22,22.7818182 L20,22.7818182 C20,18.3635402 16.418278,14.7818182 12,14.7818182 C7.66508574,14.7818182 4.13545713,18.229656 4.00380682,22.5326389 L4,22.7818182 L2,22.7818182 C2,18.1162571 5.19509325,14.1969501 9.51656267,13.0926142 C7.30512248,12.1099363 5.76363636,9.89407575 5.76363636,7.31818182 C5.76363636,3.82874635 8.59238272,1 12.0818182,1 Z M12.0818182,3 C9.69695222,3 7.76363636,4.93331585 7.76363636,7.31818182 C7.76363636,9.70304778 9.69695222,11.6363636 12.0818182,11.6363636 C14.4666841,11.6363636 16.4,9.70304778 16.4,7.31818182 C16.4,4.93331585 14.4666841,3 12.0818182,3 Z" fill="#000" fill-rule="evenodd"/></svg>