<svg width="21" height="24" viewBox="0 0 21 24" fill="none" xmlns="http://www.w3.org/2000/svg"><path d="M12 6.9a1.7 1.7 0 0 0-.011 3.4h.022A1.7 1.7 0 0 0 12 6.9z" fill="currentColor"/><path fill-rule="evenodd" clip-rule="evenodd" d="M3.1 6.102c-.118.056-.23.122-.334.198L1.707 4.845a3.885 3.885 0 0 1 1.76-.709A4.902 4.902 0 0 1 8 1.1h8A4.9 4.9 0 0 1 20.9 6v8c0 2.046-1.254 3.8-3.036 4.533a3.885 3.885 0 0 1-.709 1.76l-1.455-1.06c.076-.104.142-.215.198-.333H8A4.9 4.9 0 0 1 3.1 14V6.102zM8.5 8.6c0 .933.365 1.781.96 2.409a4.897 4.897 0 0 0-2.36 4.19h1.8a3.1 3.1 0 0 1 3.087-3.099h.025a3.1 3.1 0 0 1 3.088 3.1h1.8a4.897 4.897 0 0 0-2.36-4.191A3.5 3.5 0 1 0 8.5 8.6z" fill="currentColor"/><path d="M2.3 6.766c-.251.346-.4.772-.4 1.234v2H.1V8c0-.856.277-1.65.745-2.293l1.456 1.06zM1.9 15v-4H.1v4h1.8zM1.9 16v2c0 .462.149.887.4 1.234L.846 20.293A3.886 3.886 0 0 1 .1 18v-2h1.8zM4 20.1c-.462 0-.887-.149-1.234-.4l-1.059 1.455A3.886 3.886 0 0 0 4 21.9h2v-1.8H4zM14 20.1c.463 0 .888-.149 1.234-.4l1.06 1.455A3.886 3.886 0 0 1 14 21.9h-2v-1.8h2zM11 20.1H7v1.8h4v-1.8z" fill="currentColor"/></svg>