<svg width="24" height="24" viewBox="0 0 24 24" xmlns="http://www.w3.org/2000/svg"><path d="M18.6,21.0222222 L18.6,22.9777778 L5.4,22.9777778 L5.4,21.0222222 L18.6,21.0222222 Z M21.5333333,18.0222222 L21.5333333,19.9777778 L2.46666667,19.9777778 L2.46666667,18.0222222 L21.5333333,18.0222222 Z M5,8.02222222 L5,9.97777778 L1.977,9.977 L1.977,15.022 L22.022,15.022 L22.022,9.977 L19,9.97777778 L19,8.02222222 L22.5111111,8.02222222 C23.2521074,8.02222222 23.8974798,8.56075081 23.9708419,9.29718295 L23.9777778,9.4375 L23.9777778,15.5625 C23.9777778,16.3223395 23.3759934,16.9055645 22.648811,16.9715501 L22.5111111,16.9777778 L1.48888889,16.9777778 C0.747892584,16.9777778 0.102520235,16.4392492 0.0291580771,15.702817 L0.0222222222,15.5625 L0.0222222222,9.4375 C0.0222222222,8.67766049 0.624006554,8.09443545 1.35118898,8.02844994 L1.48888889,8.02222222 L5,8.02222222 Z M12,1 C14.0710678,1 15.75,2.67893219 15.75,4.75 C15.75,6.22686392 14.8962603,7.50432624 13.6553848,8.11578306 C15.9908508,8.80660715 17.7126201,10.9274797 17.8083028,13.4645469 L17.8125,13.6875 L15.8125,13.6875 C15.8125,11.5819144 14.1055856,9.875 12,9.875 C9.96021394,9.875 8.29457148,11.4768992 8.1924608,13.4913093 L8.1875,13.6875 L6.1875,13.6875 C6.1875,11.0526258 7.9407046,8.82723441 10.3441958,8.11424389 C9.1037397,7.50432624 8.25,6.22686392 8.25,4.75 C8.25,2.67893219 9.92893219,1 12,1 Z M12,3 C11.0335017,3 10.25,3.78350169 10.25,4.75 C10.25,5.71649831 11.0335017,6.5 12,6.5 C12.9664983,6.5 13.75,5.71649831 13.75,4.75 C13.75,3.78350169 12.9664983,3 12,3 Z" fill="#000" fill-rule="evenodd"/></svg>