<svg width="21" height="24" viewBox="0 0 21 24" fill="none" xmlns="http://www.w3.org/2000/svg"><path d="M9.875 1.75a5.125 5.125 0 1 0 0 10.25 5.125 5.125 0 0 0 0-10.25zM12.588 12.743c-2.377-.254-4.44-.17-7.024.252l-1.432.234c-.827.135-1.558.376-2.18.753-.627.38-1.127.889-1.465 1.526-.214.403-.323.98-.384 1.418-.068.481-.103.99-.103 1.362v.008l.002.131v.01C.085 20.66 2.15 22.2 4.375 22.2h7.943a2.908 2.908 0 0 1-.391-.537l-1.47-2.593a2.996 2.996 0 0 1 .022-2.972l1.511-2.617c.162-.28.365-.528.598-.738zM17.3 17.6a1.3 1.3 0 1 1-2.6 0 1.3 1.3 0 0 1 2.6 0z" fill="currentColor"/><path fill-rule="evenodd" clip-rule="evenodd" d="M16.985 13.025a2.768 2.768 0 0 1 2.433 1.405l.952 1.677a2.838 2.838 0 0 1-.019 2.817l-.977 1.693a2.838 2.838 0 0 1-2.43 1.424l-1.929.015a2.768 2.768 0 0 1-2.433-1.404l-.95-1.678a2.838 2.838 0 0 1 .018-2.817l.977-1.693a2.838 2.838 0 0 1 2.43-1.424l1.928-.015zm.868 2.292a.968.968 0 0 0-.853-.492l-1.929.015a1.038 1.038 0 0 0-.885.524l-.978 1.693a1.039 1.039 0 0 0-.011 1.03l.951 1.677a.968.968 0 0 0 .853.492l1.929-.015c.356-.003.697-.198.885-.524l.977-1.693c.188-.326.188-.719.012-1.029l-.951-1.678z" fill="currentColor"/></svg>