<svg width="40" height="40" viewBox="0 0 40 40" fill="none" xmlns="http://www.w3.org/2000/svg"><path d="M31.277 1.845v4.432h-4.432v2.4h4.432V13.2h2.4V8.677H38.2v-2.4h-4.523V1.845h-2.4z" fill="currentColor"/><path d="M4.2 11A4.8 4.8 0 0 1 9 6.2h14V3.8H9A7.2 7.2 0 0 0 1.8 11v18A7.2 7.2 0 0 0 9 36.2h22a7.2 7.2 0 0 0 7.2-7.2V17h-2.4v12a4.8 4.8 0 0 1-4.8 4.8H9A4.8 4.8 0 0 1 4.2 29V11z" fill="currentColor"/><path fill-rule="evenodd" clip-rule="evenodd" d="M18.319 12.609c-1.35-.928-3.186.038-3.186 1.675v11.498c0 1.638 1.837 2.604 3.186 1.676l8.362-5.75a2.033 2.033 0 0 0 0-3.35l-8.362-5.75zm-.786 12.476V14.981l7.349 5.052-7.349 5.052z" fill="currentColor"/></svg>