<svg width="23" height="24" viewBox="0 0 23 24" fill="none" xmlns="http://www.w3.org/2000/svg"><path fill-rule="evenodd" clip-rule="evenodd" d="M0 8a5 5 0 0 1 5-5h8a5.002 5.002 0 0 1 4.902 4.008l1.184-.795c1.33-.89 3.114.062 3.114 1.662v8.215c0 1.614-1.813 2.563-3.14 1.644l-1.148-.796A5.002 5.002 0 0 1 13 21H5a5 5 0 0 1-5-5V8zm18 6.565V9.35l2.2-1.475v8.215L18 14.565zM5 5a3 3 0 0 0-3 3v8a3 3 0 0 0 3 3h8a3 3 0 0 0 3-3V8a3 3 0 0 0-3-3H5zm1.5 4.45a1 1 0 0 1 1.567-.824l3.708 2.55a1 1 0 0 1 0 1.648l-3.708 2.55a1 1 0 0 1-1.567-.825V9.451z" fill="currentColor"/></svg>