<svg width="24" height="24" viewBox="0 0 24 24" fill="none" xmlns="http://www.w3.org/2000/svg"><path d="M5 16V1H3v2H1v2h2v11a5 5 0 0 0 5 5h9.5v-2H8a3 3 0 0 1-3-3z" fill="currentColor"/><path d="M21 21h2v-2h-2V8a5 5 0 0 0-5-5H6.5v2H16a3 3 0 0 1 3 3v15h2v-2z" fill="currentColor"/><path fill-rule="evenodd" clip-rule="evenodd" d="M11.236 8.38A1.3 1.3 0 0 0 9.2 9.45v5.1a1.3 1.3 0 0 0 2.037 1.07l3.708-2.549a1.3 1.3 0 0 0 0-2.142l-3.709-2.55zM13.68 12 10.8 13.98v-3.96L13.679 12z" fill="currentColor"/></svg>