<svg width="23" height="24" viewBox="0 0 23 24" xmlns="http://www.w3.org/2000/svg"><path d="M4.65932742,-1.42108547e-14 L4.659,2.658 L17.3404361,2.6588544 C18.9384948,2.6588544 20.2447837,3.90806975 20.3360517,5.48324945 L20.3411456,5.65956392 L20.341,18.34 L23,18.3406726 L23,20.3411456 L20.341,20.341 L20.3411456,23 L18.3406726,23 L18.34,20.341 L5.65956392,20.3411456 C4.06150518,20.3411456 2.75521631,19.0919303 2.6639483,17.5167506 L2.6588544,17.3404361 L2.658,4.659 L-1.42108547e-14,4.65932742 L-1.42108547e-14,2.6588544 L2.658,2.658 L2.6588544,-1.42108547e-14 L4.65932742,-1.42108547e-14 Z M17.3404361,4.65932742 L5.545,4.659 C5.33499261,4.72810195 5.15951793,4.82912909 5.01958757,4.96696627 L4.92130437,5.07724604 C4.77979372,5.25824035 4.69382109,5.49675034 4.66338649,5.79277601 L4.66338649,5.79277601 L4.659,5.792 L4.65932742,17.3404361 C4.65932742,17.8533932 5.04545891,18.2761645 5.54291522,18.3339433 L5.65956392,18.3406726 L17.4593603,18.3413591 C17.7206565,18.2608626 17.9271478,18.1236096 18.0788343,17.9296003 C18.220345,17.748606 18.3063176,17.510096 18.3367522,17.2140703 L18.3367522,17.2140703 L18.34,17.214 L18.3406726,5.65956392 C18.3406726,5.1466068 17.9545411,4.72383551 17.4570848,4.66605674 L17.3404361,4.65932742 Z M8.50201032,8.50201032 C8.50201032,7.73003695 9.33942271,7.24905211 10.006237,7.63802712 L10.006237,7.63802712 L15.0074196,10.5553836 C15.6690813,10.941353 15.6690813,11.8973806 15.0074196,12.28335 L15.0074196,12.28335 L10.006237,15.2007065 C9.33942271,15.5896815 8.50201032,15.1086966 8.50201032,14.3367233 L8.50201032,14.3367233 Z M10.5024833,10.2424218 L10.5024833,12.5949781 L12.5179599,11.4187 L10.5024833,10.2424218 Z" fill="currentColor" fill-rule="evenodd"/></svg>