<svg width="24" height="24" viewBox="0 0 24 24" xmlns="http://www.w3.org/2000/svg"><path d="M18,3 C19.1045695,3 20,3.8954305 20,5 L20,7.509 L22.205992,6.11910854 C22.7666247,5.76567176 23.5076244,5.93363723 23.8610612,6.49426991 C23.9576905,6.64754638 24.0180391,6.8201966 24.0383134,6.99908914 L24.0459459,7.13422381 L24.0459459,17.4026726 C24.0459459,18.0654143 23.5086876,18.6026726 22.8459459,18.6026726 C22.6598453,18.6026726 22.4769543,18.5593993 22.3114539,18.4770655 L22.1908108,18.4080571 L20,16.981 L20,19 C20,20.1045695 19.1045695,21 18,21 L2,21 C0.8954305,21 0,20.1045695 0,19 L0,5 C0,3.8954305 0.8954305,3 2,3 L18,3 Z M18,5 L2,5 L2,19 L18,19 L18,5 Z M22.0456029,8.58471248 L20,9.874 L20,14.593 L22.0456029,15.9267125 L22.0456029,8.58471248 Z M8,7 L8,9 L4,9 L4,7 L8,7 Z" fill="#000" fill-rule="evenodd"/></svg>