<svg width="22" height="24" viewBox="0 0 22 24" xmlns="http://www.w3.org/2000/svg"><path d="M19,1 C20.6568542,1 22,2.34314575 22,4 L22,20 C22,21.6568542 20.6568542,23 19,23 L3,23 C1.34314575,23 8.22439572e-17,21.6568542 1.8369702e-16,20 L1.16341446e-15,4 C1.26486752e-15,2.34314575 1.34314575,1 3,1 L19,1 Z M4,18 L2,18 L2,20 C2,20.5128358 2.38604019,20.9355072 2.88337887,20.9932723 L3,21 L4,21 L4,18 Z M16,3 L6,3 L6,21 L16,21 L16,3 Z M20,18 L18,18 L18,21 L19,21 C19.5128358,21 19.9355072,20.6139598 19.9932723,20.1166211 L20,20 L20,18 Z M20,13 L18,13 L18,16 L20,16 L20,13 Z M4,13 L2,13 L2,16 L4,16 L4,13 Z M7.7,9 C7.7,8.22820917 8.53721439,7.74733806 9.20387103,8.1362211 L9.20387103,8.1362211 L14.203871,11.0528878 C14.8653763,11.4387659 14.8653763,12.3945675 14.203871,12.7804456 L14.203871,12.7804456 L9.20387103,15.6971122 C8.53721439,16.0859953 7.7,15.6051242 7.7,14.8333333 L7.7,14.8333333 Z M9.7,10.74 L9.7,13.092 L11.715,11.916 L9.7,10.74 Z M20,8 L18,8 L18,11 L20,11 L20,8 Z M4,8 L2,8 L2,11 L4,11 L4,8 Z M19,3 L18,3 L18,6 L20,6 L20,4 C20,3.48716416 19.6139598,3.06449284 19.1166211,3.00672773 L19,3 Z M4,3 L3,3 C2.48716416,3 2.06449284,3.38604019 2.00672773,3.88337887 L2,4 L2,6 L4,6 L4,3 Z" fill="currentColor" fill-rule="evenodd"/></svg>