<svg width="22" height="24" viewBox="0 0 22 24" fill="none" xmlns="http://www.w3.org/2000/svg"><path fill-rule="evenodd" clip-rule="evenodd" d="M.5 5.5a4 4 0 0 1 4-4h13a4 4 0 0 1 4 4v13a4 4 0 0 1-4 4h-13a4 4 0 0 1-4-4v-13zm9.367 3.126a1 1 0 0 0-1.567.825v5.098a1 1 0 0 0 1.567.825l3.708-2.55a1 1 0 0 0 0-1.648l-3.708-2.55zM3.5 4a.5.5 0 0 0-.5.5V6a.5.5 0 0 0 .5.5H5a.5.5 0 0 0 .5-.5V4.5A.5.5 0 0 0 5 4H3.5zm0 4.5A.5.5 0 0 0 3 9v1.5a.5.5 0 0 0 .5.5H5a.5.5 0 0 0 .5-.5V9a.5.5 0 0 0-.5-.5H3.5zm-.5 5a.5.5 0 0 1 .5-.5H5a.5.5 0 0 1 .5.5V15a.5.5 0 0 1-.5.5H3.5A.5.5 0 0 1 3 15v-1.5zm.5 4a.5.5 0 0 0-.5.5v1.5a.5.5 0 0 0 .5.5H5a.5.5 0 0 0 .5-.5V18a.5.5 0 0 0-.5-.5H3.5zm13-13A.5.5 0 0 1 17 4h1.5a.5.5 0 0 1 .5.5V6a.5.5 0 0 1-.5.5H17a.5.5 0 0 1-.5-.5V4.5zm.5 4a.5.5 0 0 0-.5.5v1.5a.5.5 0 0 0 .5.5h1.5a.5.5 0 0 0 .5-.5V9a.5.5 0 0 0-.5-.5H17zm-.5 5a.5.5 0 0 1 .5-.5h1.5a.5.5 0 0 1 .5.5V15a.5.5 0 0 1-.5.5H17a.5.5 0 0 1-.5-.5v-1.5zm.5 4a.5.5 0 0 0-.5.5v1.5a.5.5 0 0 0 .5.5h1.5a.5.5 0 0 0 .5-.5V18a.5.5 0 0 0-.5-.5H17z" fill="currentColor"/></svg>