<svg width="40" height="40" viewBox="0 0 40 40" xmlns="http://www.w3.org/2000/svg"><path d="M23.7333918,4.2 L23.7333918,6.2 L4.63243243,6.2 C3.22919842,6.2 2.09065959,7.25782298 2.00515547,8.58264724 L2,8.74285714 L2,32.6571429 C2,34.0020619 3.08456829,35.1116125 4.46536534,35.1949731 L4.63243243,35.2 L30.9675676,35.2 C32.3708016,35.2 33.5093404,34.142177 33.5948445,32.8173528 L33.6,32.6571429 L33.6,15.5 L35.6,15.5 L35.6,32.6571429 C35.6,35.0999128 33.6376105,37.0837035 31.1851917,37.1950688 L30.9675676,37.2 L4.63243243,37.2 C2.15246204,37.2 0.119216253,35.2860028 0.00505524546,32.8714543 L-4.61852778e-14,32.6571429 L-4.61852778e-14,8.74285714 C-4.61852778e-14,6.30008718 1.96238949,4.31629653 4.4148083,4.20493116 L4.63243243,4.2 L23.7333918,4.2 Z M14.7414205,13.6174085 C14.9561797,13.6174085 15.1677908,13.6635155 15.3621757,13.7518811 L15.5045144,13.8260187 L25.0216735,19.4497945 C25.7348884,19.8712396 25.9714145,20.7910633 25.5499693,21.5042782 C25.4469915,21.6785484 25.310085,21.8297134 25.1479086,21.9491143 L25.0216735,22.032574 L15.5045144,27.6563499 C14.7912996,28.077795 13.8714758,27.8412689 13.4500307,27.128054 C13.3407764,26.9431621 13.2728184,26.7375245 13.2500054,26.5252192 L13.2414205,26.3649601 L13.2414205,15.1174085 C13.2414205,14.2889813 13.9129933,13.6174085 14.7414205,13.6174085 Z M15.2414205,15.9931843 L15.2414205,25.4881843 L23.2764205,20.7401843 L15.2414205,15.9931843 Z M35.5,0 L35.5,4.2 L40,4.2 L40,6.2 L35.5,6.2 L35.5,11 L33.5,11 L33.5,6.2 L29,6.2 L29,4.2 L33.5,4.2 L33.5,0 L35.5,0 Z" fill="#000" fill-rule="evenodd"/></svg>