<svg width="22" height="24" viewBox="0 0 22 24" fill="none" xmlns="http://www.w3.org/2000/svg"><path d="M9.412 3.263c1.604-1.468 4.188-.33 4.188 1.844v13.786c0 2.174-2.584 3.312-4.188 1.844l-2.7-2.472H3.6a3 3 0 0 1-3-3v-6.53a3 3 0 0 1 3-3h3.111l2.7-2.472zM19.861 12.322c0-1.733-.862-3.58-2.833-5.55l1.344-1.344c2.177 2.178 3.39 4.48 3.39 6.894 0 2.415-1.213 4.717-3.39 6.894l-1.344-1.343c1.97-1.97 2.833-3.817 2.833-5.55z" fill="currentColor"/><path d="M16.472 12.322c0-.759-.474-1.7-1.865-2.813l1.187-1.484c1.571 1.257 2.578 2.686 2.578 4.297 0 1.611-1.007 3.04-2.578 4.298l-1.187-1.484c1.39-1.113 1.865-2.054 1.865-2.814z" fill="currentColor"/></svg>