<svg width="24" height="24" viewBox="0 0 24 24" xmlns="http://www.w3.org/2000/svg"><path d="M13,3.11492769 C14.0543618,3.11492769 14.9181651,3.93080548 14.9945143,4.96566534 L15,5.11492769 L15,19.3850723 C15,19.8332001 14.8494997,20.2683443 14.5726367,20.6207154 C13.9243312,21.4458315 12.7571939,21.623254 11.8974337,21.0538377 L11.7643569,20.957709 L8,18 L3,18 C1.9456382,18 1.08183488,17.1841222 1.00548574,16.1492623 L1,16 L1,8.5 C1,7.4456382 1.81587779,6.58183488 2.85073766,6.50548574 L3,6.5 L8,6.5 L11.7643569,3.54229101 C12.116728,3.26542799 12.5518722,3.11492769 13,3.11492769 Z M13,5.11492769 L8.69172615,8.5 L3,8.5 L3,16 L8.69172615,16 L13,19.3850723 L13,5.11492769 Z M17.6094772,5.32372672 C20.4981944,6.23572593 22.5,8.92397532 22.5,12 C22.5,14.8610953 20.7675551,17.3954797 18.1815712,18.4677469 L17.9366615,18.5639538 L17.2404306,16.6890504 C19.1837495,15.967414 20.5,14.1077496 20.5,12 C20.5,9.87855002 19.166663,8.01484181 17.2184123,7.30277995 L17.0073509,7.23093514 L17.6094772,5.32372672 Z" fill="#000" fill-rule="evenodd"/></svg>