<svg width="24" height="24" viewBox="0 0 24 24" xmlns="http://www.w3.org/2000/svg"><path d="M12,0 C18.6275847,0 24,5.37241525 24,12 C24,18.6275847 18.6275847,24 12,24 C5.37241525,24 0,18.6275847 0,12 C0,5.37241525 5.37241525,0 12,0 Z M12,2 C9.62081219,2 7.43573501,2.8307887 5.71903472,4.21809985 C6.48718916,3.97903305 7.30351946,3.85 8.15,3.85 C12.6512847,3.85 16.3,7.49871525 16.3,12 C16.3,14.3744347 14.3744347,16.3 12,16.3 C9.62556525,16.3 7.7,14.3744347 7.7,12 C7.7,9.62556525 9.62556525,7.7 12,7.7 C12.1981562,7.7 12.3931863,7.71341076 12.5842319,7.73937398 C11.4656944,6.57457714 9.89251246,5.85 8.15,5.85 C4.8059548,5.85 2.08554053,8.51856094 2.00197814,11.8424618 L2,12 C2,17.5230153 6.47698475,22 12,22 C17.5230153,22 22,17.5230153 22,12 C22,6.47698475 17.5230153,2 12,2 Z M12,9.7 C10.7301347,9.7 9.7,10.7301347 9.7,12 C9.7,13.2698653 10.7301347,14.3 12,14.3 C13.2698653,14.3 14.3,13.2698653 14.3,12 L14.3000605,12.0111124 C14.3000202,12.007413 14.3,12.0037089 14.3,12 L14.2994857,11.9508944 C14.2733373,10.7036841 13.2534561,9.7 12,9.7 Z" fill="#000" fill-rule="evenodd"/></svg>