<svg width="24" height="24" viewBox="0 0 24 24" xmlns="http://www.w3.org/2000/svg"><g fill="none" fill-rule="evenodd"><path opacity=".1" d="M0 0H20.8V20.8H0z" transform="translate(2 1.4)"/><path d="M13,1.625 C16.7572768,1.625 19.825,4.5222941 19.825,8.125 C19.825,11.6510526 16.8864295,14.5013916 13.2388668,14.6210864 L13,14.625 L7.8,14.625 L7.8,12.675 L13,12.675 C15.7044547,12.675 17.875,10.6250406 17.875,8.125 C17.875,5.69440499 15.8233658,3.68923392 13.2241002,3.57971099 L13,3.575 L2.6,3.575 L2.6,1.625 L13,1.625 Z" fill="currentColor" fill-rule="nonzero" transform="translate(2 1.4)"/><path d="M12.35,6.825 C16.1072768,6.825 19.175,9.7222941 19.175,13.325 C19.175,16.8510526 16.2364295,19.7013916 12.5888668,19.8210864 L12.35,19.825 L7.15,19.825 L7.15,17.875 L12.35,17.875 C15.0544547,17.875 17.225,15.8250406 17.225,13.325 C17.225,10.894405 15.1733658,8.88923392 12.5741002,8.77971099 L12.35,8.775 L1.95,8.775 L1.95,6.825 L12.35,6.825 Z" fill="currentColor" fill-rule="nonzero" transform="rotate(180 11.563 14.025)"/></g></svg>