<svg width="24" height="24" viewBox="0 0 24 24" xmlns="http://www.w3.org/2000/svg"><path d="M12,0 C18.627417,0 24,5.372583 24,12 C24,18.627417 18.627417,24 12,24 C5.372583,24 0,18.627417 0,12 C0,5.372583 5.372583,0 12,0 Z M12,2 C6.4771525,2 2,6.4771525 2,12 C2,17.5228475 6.4771525,22 12,22 C17.5228475,22 22,17.5228475 22,12 C22,6.4771525 17.5228475,2 12,2 Z M15.2928932,5.29289322 L16.7071068,6.70710678 L13.414,10 L17,10 L17,12 L13,12 L13,14 L17,14 L17,16 L13,16 L13,19 L11,19 L11,16 L7,16 L7,14 L11,14 L11,12 L7,12 L7,10 L10.586,10 L7.29289322,6.70710678 L8.70710678,5.29289322 L12,8.585 L15.2928932,5.29289322 Z" fill="#000" fill-rule="evenodd"/></svg>