<svg width="24" height="24" viewBox="0 0 24 24" xmlns="http://www.w3.org/2000/svg"><path d="M11.2012987,0.560064935 C17.0782898,0.560064935 21.8425325,5.32430757 21.8425325,11.2012987 C21.8425325,13.2994921 21.2352722,15.2558523 20.1869177,16.9042133 C20.0219502,17.20141 19.9203855,17.4799974 19.88,17.74 C19.8166918,18.1475788 19.9966918,18.5675788 20.42,19 L20.4160649,19.0000649 L23.8651754,22.3961666 L22.4619767,23.8213099 L19.0510649,20.4630649 L19.0482033,20.4668346 C18.7326193,20.1813823 18.4130497,20.0101889 18.0894944,19.9532546 C17.7403606,19.8918193 17.387241,19.944643 17.0301359,20.1117257 C15.3537009,21.2044917 13.352011,21.8425325 11.2012987,21.8425325 C5.32430757,21.8425325 0.560064935,17.0782898 0.560064935,11.2012987 C0.560064935,5.32430757 5.32430757,0.560064935 11.2012987,0.560064935 Z M11.2012987,2.56006494 C6.42887707,2.56006494 2.56006494,6.42887707 2.56006494,11.2012987 C2.56006494,15.9737203 6.42887707,19.8425325 11.2012987,19.8425325 C15.9737203,19.8425325 19.8425325,15.9737203 19.8425325,11.2012987 C19.8425325,6.42887707 15.9737203,2.56006494 11.2012987,2.56006494 Z M12.5,6.2 L12.4990649,10.0740649 L16.5,10.075 L16.5,12.075 L12.4990649,12.0740649 L12.5,16.2 L10.5,16.2 L10.4990649,12.0740649 L6.5,12.075 L6.5,10.075 L10.4990649,10.0740649 L10.5,6.2 L12.5,6.2 Z" fill="#000" fill-rule="evenodd"/></svg>