<svg width="24" height="24" viewBox="0 0 24 24" fill="none" xmlns="http://www.w3.org/2000/svg"><path d="M6.785 10.282v1.8h3.497v3.568h1.8v-3.568h3.568v-1.8h-3.568V6.785h-1.8v3.497H6.785z" fill="currentColor"/><path fill-rule="evenodd" clip-rule="evenodd" d="M11.2 1.4c-5.412 0-9.8 4.388-9.8 9.8 0 5.412 4.388 9.8 9.8 9.8a9.76 9.76 0 0 0 6.187-2.2l3.473 3.419 1.403-1.425-3.462-3.408A9.76 9.76 0 0 0 21 11.2c0-5.412-4.388-9.8-9.8-9.8zm-7.8 9.8a7.8 7.8 0 1 1 15.6 0 7.8 7.8 0 0 1-15.6 0z" fill="currentColor"/></svg>